<svg width="73" height="73" viewBox="0 0 73 73" fill="none" xmlns="http://www.w3.org/2000/svg">
<mask id="mask0_2621_2282" style="mask-type:luminance" maskUnits="userSpaceOnUse" x="0" y="0" width="73" height="73">
<path d="M0 7.62939e-06H73V73H0V7.62939e-06Z" fill="white"/>
</mask>
<g mask="url(#mask0_2621_2282)">
<path d="M24.4453 65.1144C24.992 64.8608 25.5041 64.5085 25.9551 64.0575L29.1454 60.8672C27.084 62.9286 27.084 66.2709 29.1454 68.3323C31.2068 70.3938 34.5491 70.3938 36.6105 68.3323L59.6581 45.2848C63.7418 41.2009 64.7784 35.2253 62.7712 30.1794L70.8069 22.1435C72.3035 20.6469 72.3035 18.2202 70.8069 16.7236L58.3589 4.27549C56.8622 2.77885 54.4356 2.77885 52.939 4.27549L45.051 12.1635" stroke="#0048B4" stroke-width="2" stroke-miterlimit="10" stroke-linecap="round" stroke-linejoin="round"/>
<path d="M25.0048 20.2181L5.04605 40.1769C2.98465 42.2383 2.98465 45.5806 5.04605 47.642C7.10744 49.7034 10.4496 49.7034 12.511 47.6422L9.13504 51.018C7.07365 53.0795 7.07365 56.4217 9.13504 58.4831C11.1964 60.5446 14.5388 60.5446 16.6001 58.4831L18.4909 56.5925C16.4295 58.6539 16.4295 61.9961 18.4909 64.0576C18.7862 64.3528 19.1077 64.6057 19.4477 64.8163" stroke="#0048B4" stroke-width="2" stroke-miterlimit="10" stroke-linecap="round" stroke-linejoin="round"/>
<path d="M36.7129 68.231L37.2089 68.727C39.2703 70.7884 42.6126 70.7884 44.674 68.727C46.7354 66.6656 46.7354 63.3235 44.674 61.2621L46.3468 62.9348C48.4081 64.9963 51.7505 64.9963 53.812 62.9348C55.8734 60.8734 55.8734 57.5314 53.8121 55.4698L54.8728 56.5306C56.9342 58.592 60.2765 58.592 62.3379 56.5306C64.3994 54.4691 64.3994 51.1269 62.3379 49.0655L59.7917 46.5192C61.8531 48.5807 65.1954 48.5807 67.2568 46.5192H67.257C69.3184 44.4578 69.3184 41.1156 67.257 39.0541L63.7628 35.5602" stroke="#0048B4" stroke-width="2" stroke-miterlimit="10" stroke-linecap="round" stroke-linejoin="round"/>
<path d="M37.3289 9.13517C36.251 8.95595 35.1536 8.86427 34.0466 8.86427C31.5292 8.86427 29.0782 9.50801 26.9139 10.7042L26.9146 10.7051L20.0588 3.84937C18.5621 2.35258 16.1355 2.35258 14.6389 3.84937L2.19095 16.2973C0.694163 17.7939 0.694163 20.2206 2.19095 21.7173L9.12224 28.6487C8.09098 31.2416 7.86542 34.0796 8.44172 36.7806" stroke="#0048B4" stroke-width="2" stroke-miterlimit="10" stroke-linecap="round" stroke-linejoin="round"/>
<path d="M25.0039 20.2188C27.2412 22.0643 30.1086 23.1731 33.2358 23.1731C34.8578 23.1731 36.4087 22.8723 37.8396 22.3278L43.057 27.5451C45.5604 30.0487 49.6343 30.0246 52.1074 27.473C54.5006 25.0041 54.3887 20.918 51.9573 18.4867L48.1954 14.7247C46.4611 12.9903 44.4413 11.6075 42.2463 10.6214" stroke="#0048B4" stroke-width="2" stroke-miterlimit="10" stroke-linecap="round" stroke-linejoin="round"/>
<path d="M44.6738 61.262L44.1777 60.7659" stroke="#0048B4" stroke-width="2" stroke-miterlimit="10" stroke-linecap="round" stroke-linejoin="round"/>
<path d="M53.8116 55.4698L51.6426 53.3008" stroke="#0048B4" stroke-width="2" stroke-miterlimit="10" stroke-linecap="round" stroke-linejoin="round"/>
<path d="M59.7909 46.5193L59.1074 45.8358" stroke="#0048B4" stroke-width="2" stroke-miterlimit="10" stroke-linecap="round" stroke-linejoin="round"/>
<path d="M12.5098 47.6421L23.7944 36.3575" stroke="#0048B4" stroke-width="2" stroke-miterlimit="10" stroke-linecap="round" stroke-linejoin="round"/>
<path d="M18.4902 56.5925L30.6226 44.4601" stroke="#0048B4" stroke-width="2" stroke-miterlimit="10" stroke-linecap="round" stroke-linejoin="round"/>
<path d="M29.1465 60.8673L39.962 50.0518" stroke="#0048B4" stroke-width="2" stroke-miterlimit="10" stroke-linecap="round" stroke-linejoin="round"/>
</g>
</svg>
