<svg width="110" height="110" viewBox="0 0 110 110" fill="none" xmlns="http://www.w3.org/2000/svg">
<g opacity="0.5">
<path d="M107.452 100.796C108.777 97.756 107.951 94.2317 105.38 92.151C105.255 92.0485 105.178 91.911 105.174 91.7498C104.909 86.715 99.936 83.1982 95.0642 84.7893V46.4842L95.5002 46.7972C98.6178 49.0696 103.005 48.2859 105.187 45.2188C107.454 42.0806 106.701 37.7431 103.602 35.5326L96.5209 30.4609C102.857 28.1123 107.014 21.8354 106.238 14.7041C105.486 7.79944 99.9298 2.22919 93.0273 1.46048C84.2621 0.481649 76.5625 7.1085 76.2845 15.9218L59.0412 3.53157C56.6317 1.801 53.3794 1.79929 50.9437 3.53093L34.2922 15.4891V12.2779C35.9382 11.9118 37.1748 10.4455 37.1748 8.69083V6.8363C37.1748 4.8071 35.5237 3.15624 33.4947 3.15624H19.08C17.0508 3.15624 15.4 4.80731 15.4 6.8363V8.69083C15.4 10.4459 16.637 11.9124 18.2836 12.2783V26.9863L6.38275 35.5328C3.28256 37.7545 2.57057 42.0975 4.79828 45.219C7.04984 48.3377 11.3888 49.0507 14.5004 46.8028L14.9359 46.4902V79.3211C10.4775 79.8391 6.92201 83.748 6.92201 88.3003V88.4825C6.92803 88.9479 6.69729 89.3423 6.27877 89.5694C2.51234 91.6618 1.005 96.3967 2.9502 100.302C2.09834 101.227 1.61816 102.41 1.61816 103.672C1.61816 106.409 3.85125 108.636 6.59566 108.636H103.404C106.121 108.636 108.382 106.437 108.382 103.672C108.382 102.599 108.032 101.61 107.452 100.796ZM102.941 91.8351C102.959 92.6176 103.333 93.3633 103.97 93.8845C105.577 95.1852 106.209 97.2975 105.651 99.255C104.973 98.9084 104.216 98.694 103.404 98.694H95.0645V87.1904C98.6311 85.4648 102.737 87.9845 102.941 91.8351ZM92.7798 3.6811C98.6511 4.3353 103.377 9.07282 104.016 14.9462C104.992 23.9114 96.8214 30.8453 88.4591 28.8582C88.1884 28.7938 87.9048 28.8326 87.6609 28.9674L84.0546 30.9583C83.786 31.1081 83.4539 30.9297 83.427 30.6234L83.0762 26.5946C83.0478 26.2689 82.8759 25.9858 82.6272 25.8008C79.9994 23.3898 78.4946 19.9654 78.4946 16.3906C78.4949 8.97593 84.9045 2.80218 92.7798 3.6811ZM17.6348 8.69083V6.8363C17.6348 6.03923 18.2829 5.39104 19.08 5.39104H33.495C34.292 5.39104 34.9402 6.03923 34.9402 6.8363V8.69083C34.9402 9.48747 34.292 10.1357 33.495 10.1357C27.9359 10.1346 19.4208 10.1357 19.08 10.1357C18.2829 10.1357 17.6348 9.48747 17.6348 8.69083ZM32.0579 12.3705V17.094L20.5182 25.3812V12.3702L32.0579 12.3705ZM13.1957 44.9885C11.0923 46.5081 8.14469 46.0352 6.6135 43.9153C5.10379 41.8 5.58439 38.8542 7.68557 37.3484C57.3953 1.66157 2.31383 41.2068 52.2429 5.35001C53.8972 4.17481 56.1053 4.17417 57.7377 5.34614L76.4755 18.81C76.9995 22.0049 78.5299 24.9762 80.8889 27.2338L81.201 30.8167C81.3669 32.7316 83.4504 33.8434 85.1344 32.9147L88.3725 31.1272C90.2348 31.5072 91.9112 31.4952 93.7167 31.2007L102.302 37.3506C104.387 38.8386 104.924 41.7667 103.371 43.917C101.892 45.9961 98.916 46.5218 96.8096 44.9865L55.6561 15.4318C55.2573 15.1447 54.7155 15.1639 54.3286 15.4513C54.7546 15.1456 48.8503 19.3866 13.1957 44.9885ZM92.8297 44.8821V98.6938H17.1705V44.8851C20.7302 42.3291 3.67701 54.5737 54.9927 17.7282L92.8297 44.8821ZM7.35449 91.5279C8.49982 90.9064 9.17357 89.757 9.1566 88.4677V88.3001C9.1566 84.9702 11.7203 82.0812 14.9357 81.5738V98.6938H6.59545C5.97842 98.6938 5.38352 98.8154 4.82514 99.0273C3.61234 96.2414 4.73555 92.9826 7.35449 91.5279ZM103.404 106.401H6.59545C5.08295 106.401 3.85275 105.177 3.85275 103.672C3.85275 102.093 5.15686 100.929 6.59545 100.929H103.404C104.917 100.929 106.147 102.16 106.147 103.672C106.147 105.209 104.881 106.401 103.404 106.401Z" fill="#0048B4"/>
<path d="M38.7083 82.6614H71.3117C74.3414 82.6614 76.8059 80.1876 76.8059 77.1474V44.5242C76.8059 41.4945 74.3414 39.03 71.3117 39.03H38.7083C35.6683 39.03 33.1943 41.4945 33.1943 44.5242V77.1474C33.1943 80.1874 35.668 82.6614 38.7083 82.6614ZM35.4291 44.5242C35.4291 42.7271 36.9002 41.2648 38.7083 41.2648H71.3117C73.1089 41.2648 74.5711 42.7271 74.5711 44.5242V77.1474C74.5711 78.9555 73.1089 80.4266 71.3117 80.4266H38.7083C36.9002 80.4266 35.4291 78.9555 35.4291 77.1474V44.5242Z" fill="#0048B4"/>
<path d="M85.3547 14.6752C87.2337 14.6752 88.7621 13.147 88.7621 11.2678C88.7621 9.38854 87.2339 7.86035 85.3547 7.86035C83.4696 7.86035 81.9365 9.38854 81.9365 11.2678C81.9365 13.147 83.4694 14.6752 85.3547 14.6752ZM85.3547 10.0954C86.0012 10.0954 86.5273 10.6213 86.5273 11.268C86.5273 11.9147 86.0014 12.4406 85.3547 12.4406C84.7022 12.4406 84.1713 11.9147 84.1713 11.268C84.1713 10.6213 84.702 10.0954 85.3547 10.0954Z" fill="#0048B4"/>
<path d="M94.0771 20.6141C94.0771 22.4931 95.6103 24.0215 97.4953 24.0215C99.3743 24.0215 100.903 22.4933 100.903 20.6141C100.903 18.7355 99.3746 17.2073 97.4953 17.2073C95.6103 17.2073 94.0771 18.7355 94.0771 20.6141ZM97.4953 19.4421C98.1418 19.4421 98.6679 19.968 98.6679 20.6141C98.6679 21.2605 98.142 21.7867 97.4953 21.7867C96.8428 21.7867 96.312 21.2607 96.312 20.6141C96.312 19.968 96.8428 19.4421 97.4953 19.4421Z" fill="#0048B4"/>
<path d="M87.0574 25.4515C88.5256 26.142 90.2869 25.5098 90.9787 24.0372L96.9421 11.3503H96.9428C97.6341 9.87923 96.9995 8.11966 95.5285 7.42894C94.0598 6.738 92.3052 7.35611 91.6071 8.84261L85.6437 21.5296C84.9515 23.0012 85.5851 24.7593 87.0574 25.4515ZM87.6658 22.48L93.6299 9.79308C93.8033 9.42312 94.2304 9.28648 94.5782 9.45148C94.946 9.624 95.0927 10.0316 94.9202 10.3998L88.9568 23.0868C88.7871 23.4485 88.3703 23.5981 88.0081 23.4288C87.6521 23.2614 87.4987 22.8358 87.6658 22.48Z" fill="#0048B4"/>
<path d="M37.5125 60.8531V75.0837C37.5125 76.8798 38.974 78.3415 40.7704 78.3415H69.2462C71.0337 78.3415 72.4877 76.88 72.4877 75.0837V60.8556C72.4877 60.8518 72.4899 60.8488 72.4899 60.8449C72.4899 60.841 72.4877 60.838 72.4877 60.8342V46.5904C72.4877 44.8029 71.0337 43.3489 69.2462 43.3489H40.7704C38.9743 43.3489 37.5125 44.8029 37.5125 46.5904V60.8369C37.5125 60.84 37.5107 60.8423 37.5107 60.8451C37.5107 60.8479 37.5125 60.85 37.5125 60.8531ZM39.7475 75.0837V61.9623H53.8831V76.1068H40.7706C40.2062 76.1068 39.7475 75.6478 39.7475 75.0837ZM69.2464 76.1068H56.1179V61.9623H70.2529V75.0837C70.2529 75.6478 69.8011 76.1068 69.2464 76.1068ZM70.2529 46.5904V59.7277H56.1179V45.5839H69.2464C69.8011 45.5837 70.2529 46.0355 70.2529 46.5904ZM40.7704 45.5837H53.8829V59.7275H39.7473V46.5902C39.7475 46.0355 40.2062 45.5837 40.7704 45.5837Z" fill="#0048B4"/>
</g>
</svg>
