<svg width="100" height="100" viewBox="0 0 100 100" fill="none" xmlns="http://www.w3.org/2000/svg">
<g clip-path="url(#clip0_1907_6946)">
<path d="M21.8753 54.1666H32.292C33.6733 54.1666 34.9981 53.6179 35.9748 52.6411C36.9516 51.6643 37.5003 50.3396 37.5003 48.9583V46.8749C37.5003 46.5987 37.3906 46.3337 37.1952 46.1383C36.9999 45.943 36.7349 45.8333 36.4587 45.8333C36.1824 45.8333 35.9174 45.943 35.7221 46.1383C35.5267 46.3337 35.417 46.5987 35.417 46.8749V48.9583C35.417 49.7871 35.0878 50.5819 34.5017 51.168C33.9156 51.754 33.1208 52.0833 32.292 52.0833H21.8753C21.0465 52.0833 20.2517 51.754 19.6656 51.168C19.0796 50.5819 18.7503 49.7871 18.7503 48.9583V38.5416C18.7503 37.7128 19.0796 36.9179 19.6656 36.3319C20.2517 35.7458 21.0465 35.4166 21.8753 35.4166H34.3753C34.6516 35.4166 34.9165 35.3068 35.1119 35.1115C35.3072 34.9161 35.417 34.6512 35.417 34.3749C35.417 34.0987 35.3072 33.8337 35.1119 33.6383C34.9165 33.443 34.6516 33.3333 34.3753 33.3333H21.8753C20.494 33.3333 19.1692 33.882 18.1925 34.8587C17.2157 35.8355 16.667 37.1602 16.667 38.5416V48.9583C16.667 50.3396 17.2157 51.6643 18.1925 52.6411C19.1692 53.6179 20.494 54.1666 21.8753 54.1666Z" fill="#0048B4"/>
<path d="M29.5351 44.6021L26.2809 41.35C26.0845 41.1602 25.8214 41.0552 25.5482 41.0576C25.2751 41.06 25.0139 41.1695 24.8207 41.3627C24.6276 41.5558 24.518 41.8171 24.5157 42.0902C24.5133 42.3633 24.6183 42.6264 24.808 42.8229L28.0622 46.075C28.6482 46.6608 29.4429 46.9899 30.2716 46.9899C31.1002 46.9899 31.8949 46.6608 32.4809 46.075L39.2789 39.2791C39.4745 39.0838 39.5845 38.8188 39.5847 38.5424C39.5848 38.266 39.4752 38.0008 39.2799 37.8052C39.0846 37.6096 38.8196 37.4996 38.5431 37.4994C38.2667 37.4992 38.0015 37.6088 37.8059 37.8041L31.008 44.6021C30.8127 44.7973 30.5478 44.907 30.2716 44.907C29.9954 44.907 29.7305 44.7973 29.5351 44.6021Z" fill="#0048B4"/>
<path d="M21.8753 81.25H32.292C33.6733 81.25 34.9981 80.7012 35.9748 79.7245C36.9516 78.7477 37.5003 77.423 37.5003 76.0416V73.9583C37.5003 73.682 37.3906 73.4171 37.1952 73.2217C36.9999 73.0264 36.7349 72.9166 36.4587 72.9166C36.1824 72.9166 35.9174 73.0264 35.7221 73.2217C35.5267 73.4171 35.417 73.682 35.417 73.9583V76.0416C35.417 76.8704 35.0878 77.6653 34.5017 78.2513C33.9156 78.8374 33.1208 79.1666 32.292 79.1666H21.8753C21.0465 79.1666 20.2517 78.8374 19.6656 78.2513C19.0796 77.6653 18.7503 76.8704 18.7503 76.0416V65.625C18.7503 64.7962 19.0796 64.0013 19.6656 63.4153C20.2517 62.8292 21.0465 62.5 21.8753 62.5H34.3753C34.6516 62.5 34.9165 62.3902 35.1119 62.1949C35.3072 61.9995 35.417 61.7346 35.417 61.4583C35.417 61.182 35.3072 60.9171 35.1119 60.7217C34.9165 60.5264 34.6516 60.4166 34.3753 60.4166H21.8753C20.494 60.4166 19.1692 60.9654 18.1925 61.9421C17.2157 62.9189 16.667 64.2436 16.667 65.625V76.0416C16.667 77.423 17.2157 78.7477 18.1925 79.7245C19.1692 80.7012 20.494 81.25 21.8753 81.25Z" fill="#0048B4"/>
<path d="M37.8062 64.8874L31.0082 71.6853C30.8129 71.8806 30.548 71.9903 30.2718 71.9903C29.9956 71.9903 29.7307 71.8806 29.5353 71.6853L26.2812 68.4332C26.1851 68.3337 26.0701 68.2544 25.943 68.1998C25.816 68.1452 25.6793 68.1165 25.541 68.1153C25.4026 68.114 25.2655 68.1404 25.1375 68.1928C25.0094 68.2452 24.8931 68.3225 24.7953 68.4203C24.6975 68.5181 24.6202 68.6344 24.5678 68.7624C24.5154 68.8905 24.4891 69.0276 24.4903 69.1659C24.4915 69.3042 24.5202 69.4409 24.5748 69.568C24.6294 69.6951 24.7088 69.81 24.8082 69.9061L28.0624 73.1582C28.6484 73.7441 29.4431 74.0732 30.2718 74.0732C31.1004 74.0732 31.8951 73.7441 32.4812 73.1582L39.2791 66.3624C39.4747 66.1671 39.5847 65.902 39.5849 65.6256C39.5851 65.3492 39.4754 65.084 39.2801 64.8884C39.0848 64.6928 38.8198 64.5828 38.5434 64.5826C38.2669 64.5824 38.0018 64.6921 37.8062 64.8874Z" fill="#0048B4"/>
<path d="M48.958 47.9166H59.3747C60.2035 47.9166 60.9983 47.5873 61.5844 47.0013C62.1704 46.4152 62.4997 45.6204 62.4997 44.7916V42.7083C62.4997 41.8795 62.1704 41.0846 61.5844 40.4985C60.9983 39.9125 60.2035 39.5833 59.3747 39.5833H48.958C48.1292 39.5833 47.3344 39.9125 46.7483 40.4985C46.1622 41.0846 45.833 41.8795 45.833 42.7083V44.7916C45.833 45.6204 46.1622 46.4152 46.7483 47.0013C47.3344 47.5873 48.1292 47.9166 48.958 47.9166ZM47.9163 42.7083C47.9163 42.432 48.0261 42.167 48.2214 41.9717C48.4168 41.7763 48.6817 41.6666 48.958 41.6666H59.3747C59.6509 41.6666 59.9159 41.7763 60.1112 41.9717C60.3066 42.167 60.4163 42.432 60.4163 42.7083V44.7916C60.4163 45.0679 60.3066 45.3328 60.1112 45.5282C59.9159 45.7235 59.6509 45.8333 59.3747 45.8333H48.958C48.6817 45.8333 48.4168 45.7235 48.2214 45.5282C48.0261 45.3328 47.9163 45.0679 47.9163 44.7916V42.7083Z" fill="#0048B4"/>
<path d="M39.5837 14.5833C40.4077 14.5833 41.2133 14.339 41.8985 13.8811C42.5837 13.4233 43.1178 12.7725 43.4332 12.0112C43.7485 11.2498 43.831 10.412 43.6703 9.60379C43.5095 8.79554 43.1127 8.05311 42.5299 7.47039C41.9472 6.88767 41.2048 6.49083 40.3965 6.33006C39.5883 6.16929 38.7505 6.25181 37.9891 6.56717C37.2278 6.88254 36.577 7.41659 36.1192 8.10179C35.6614 8.787 35.417 9.59258 35.417 10.4167C35.417 11.5217 35.856 12.5815 36.6374 13.3629C37.4188 14.1443 38.4786 14.5833 39.5837 14.5833ZM39.5837 8.33334C39.9957 8.33334 40.3985 8.45552 40.7411 8.68444C41.0837 8.91336 41.3507 9.23873 41.5084 9.61941C41.6661 10.0001 41.7073 10.419 41.627 10.8231C41.5466 11.2272 41.3482 11.5984 41.0568 11.8898C40.7654 12.1812 40.3942 12.3796 39.9901 12.46C39.586 12.5404 39.1671 12.4991 38.7864 12.3414C38.4057 12.1837 38.0803 11.9167 37.8514 11.5741C37.6225 11.2315 37.5003 10.8287 37.5003 10.4167C37.5003 9.86413 37.7198 9.33423 38.1105 8.94353C38.5012 8.55283 39.0311 8.33334 39.5837 8.33334Z" fill="#0048B4"/>
<path d="M9.375 99.9999H84.375C86.3089 99.9999 88.1635 99.2317 89.531 97.8643C90.8984 96.4968 91.6667 94.6421 91.6667 92.7083V79.6333C92.4157 79.9523 93.2485 80.018 94.0382 79.8202C94.828 79.6223 95.5315 79.1719 96.0417 78.5374L97.6313 76.5479C98.2209 75.8058 98.5088 74.8685 98.4374 73.9234C98.3659 72.9782 97.9404 72.0949 97.2458 71.4499L79.1667 54.7479V19.7916C79.1667 18.5605 78.9242 17.3414 78.453 16.2039C77.9819 15.0665 77.2913 14.033 76.4208 13.1625C75.5502 12.2919 74.5168 11.6014 73.3793 11.1302C72.2419 10.6591 71.0228 10.4166 69.7917 10.4166H60.3125C60.0724 9.24019 59.4331 8.18286 58.503 7.42358C57.5729 6.6643 56.409 6.2497 55.2083 6.24994H49.0938C48.292 4.39343 46.9643 2.81222 45.2745 1.70135C43.5847 0.590478 41.6066 -0.00146484 39.5844 -0.00146484C37.5621 -0.00146484 35.5841 0.590478 33.8943 1.70135C32.2045 2.81222 30.8768 4.39343 30.075 6.24994H23.9583C22.758 6.25018 21.5946 6.665 20.6649 7.42424C19.7352 8.18348 19.0963 9.24054 18.8563 10.4166H9.375C6.88944 10.4194 4.50648 11.408 2.74892 13.1655C0.991363 14.9231 0.00275714 17.306 0 19.7916L0 90.6249C0.00275714 93.1105 0.991363 95.4935 2.74892 97.251C4.50648 99.0086 6.88944 99.9972 9.375 99.9999ZM79.1667 97.9166H66.6667V85.4166C66.6667 84.8641 66.8862 84.3342 67.2769 83.9435C67.6676 83.5528 68.1975 83.3333 68.75 83.3333H77.0833C77.6359 83.3333 78.1658 83.5528 78.5565 83.9435C78.9472 84.3342 79.1667 84.8641 79.1667 85.4166V97.9166ZM89.5833 92.7083C89.5833 94.0896 89.0346 95.4144 88.0579 96.3911C87.0811 97.3679 85.7563 97.9166 84.375 97.9166H81.25V85.4166C81.25 84.3115 80.811 83.2517 80.0296 82.4703C79.2482 81.6889 78.1884 81.2499 77.0833 81.2499H68.75C67.6449 81.2499 66.5851 81.6889 65.8037 82.4703C65.0223 83.2517 64.5833 84.3115 64.5833 85.4166V97.9166H61.4583C60.077 97.9166 58.7522 97.3679 57.7755 96.3911C56.7987 95.4144 56.25 94.0896 56.25 92.7083V78.0312L72.7083 62.8374C72.7662 62.7874 72.8402 62.7599 72.9167 62.7599C72.9932 62.7599 73.0671 62.7874 73.125 62.8374L89.5833 78.0333V92.7083ZM95.8333 72.9812C96.1428 73.2672 96.3325 73.6597 96.3642 74.0799C96.3959 74.5 96.2672 74.9166 96.0042 75.2458L94.4125 77.2354C94.2687 77.4129 94.09 77.5592 93.8876 77.6652C93.6852 77.7713 93.4633 77.8348 93.2354 77.852C93.0075 77.8692 92.7786 77.8396 92.5625 77.7651C92.3465 77.6906 92.148 77.5727 91.9792 77.4187L74.5313 61.3083C74.0882 60.9017 73.5087 60.6762 72.9073 60.6762C72.3059 60.6762 71.7264 60.9017 71.2833 61.3083L53.8375 77.4187C53.6687 77.5727 53.4702 77.6906 53.2541 77.7651C53.0381 77.8396 52.8091 77.8692 52.5813 77.852C52.3534 77.8348 52.1315 77.7713 51.9291 77.6652C51.7266 77.5592 51.548 77.4129 51.4042 77.2354L49.8125 75.2458C49.5509 74.9145 49.4247 74.4962 49.4595 74.0755C49.4943 73.6548 49.6875 73.2629 50 72.9791L69.9583 54.5499C70.7695 53.809 71.8285 53.3982 72.9271 53.3982C74.0257 53.3982 75.0846 53.809 75.8958 54.5499L95.8333 72.9812ZM60.4167 12.4999H69.7917C71.7255 12.4999 73.5802 13.2682 74.9477 14.6356C76.3151 16.0031 77.0833 17.8577 77.0833 19.7916V52.8583C75.918 51.8742 74.4419 51.3344 72.9167 51.3344C71.3914 51.3344 69.9154 51.8742 68.75 52.8583V23.9583C68.75 23.1295 68.4208 22.3346 67.8347 21.7486C67.2487 21.1625 66.4538 20.8333 65.625 20.8333H60.4167V12.4999ZM20.8333 11.4583C20.8333 10.6295 21.1626 9.83462 21.7486 9.24856C22.3347 8.66251 23.1295 8.33327 23.9583 8.33327H30.7813C30.9964 8.33315 31.2063 8.26639 31.382 8.14217C31.5577 8.01794 31.6906 7.84235 31.7625 7.63952C32.3288 6.01676 33.3858 4.61032 34.7871 3.61514C36.1884 2.61996 37.8646 2.08533 39.5833 2.08533C41.3021 2.08533 42.9782 2.61996 44.3795 3.61514C45.7809 4.61032 46.8379 6.01676 47.4042 7.63952C47.476 7.84235 47.609 8.01794 47.7847 8.14217C47.9604 8.26639 48.1702 8.33315 48.3854 8.33327H55.2083C56.0371 8.33327 56.832 8.66251 57.418 9.24856C58.0041 9.83462 58.3333 10.6295 58.3333 11.4583V21.8749C58.3333 22.7037 58.0041 23.4986 57.418 24.0846C56.832 24.6707 56.0371 24.9999 55.2083 24.9999H23.9583C23.1295 24.9999 22.3347 24.6707 21.7486 24.0846C21.1626 23.4986 20.8333 22.7037 20.8333 21.8749V11.4583ZM23.9583 27.0833H55.2083C56.409 27.0835 57.5729 26.6689 58.503 25.9096C59.4331 25.1504 60.0724 24.093 60.3125 22.9166H65.625C65.9013 22.9166 66.1662 23.0264 66.3616 23.2217C66.5569 23.4171 66.6667 23.682 66.6667 23.9583V54.7458L48.5771 71.4583C47.8833 72.1038 47.4584 72.9872 47.3874 73.9322C47.3163 74.8772 47.6043 75.8142 48.1938 76.5562L49.7854 78.5437C50.296 79.1776 50.999 79.6282 51.7883 79.8274C52.5775 80.0266 53.4101 79.9636 54.1604 79.6479V87.4999H13.5417C13.2654 87.4999 13.0004 87.3902 12.8051 87.1948C12.6097 86.9995 12.5 86.7345 12.5 86.4583V23.9583C12.5 23.682 12.6097 23.4171 12.8051 23.2217C13.0004 23.0264 13.2654 22.9166 13.5417 22.9166H18.8563C19.0963 24.0927 19.7352 25.1497 20.6649 25.909C21.5946 26.6682 22.758 27.083 23.9583 27.0833ZM2.08333 19.7916C2.08333 17.8577 2.85156 16.0031 4.21901 14.6356C5.58647 13.2682 7.44113 12.4999 9.375 12.4999H18.75V20.8333H13.5417C12.7129 20.8333 11.918 21.1625 11.332 21.7486C10.7459 22.3346 10.4167 23.1295 10.4167 23.9583V86.4583C10.4167 87.2871 10.7459 88.0819 11.332 88.668C11.918 89.254 12.7129 89.5833 13.5417 89.5833H54.1667V92.7083C54.1669 93.6797 54.3622 94.6412 54.7408 95.5359C55.1194 96.4305 55.6737 97.2401 56.3708 97.9166H9.375C7.44113 97.9166 5.58647 97.1484 4.21901 95.7809C2.85156 94.4135 2.08333 92.5588 2.08333 90.6249V19.7916Z" fill="#0048B4"/>
</g>
<defs>
<clipPath id="clip0_1907_6946">
<rect width="100" height="100" fill="white"/>
</clipPath>
</defs>
</svg>
