<svg width="100" height="100" viewBox="0 0 100 100" fill="none" xmlns="http://www.w3.org/2000/svg">
<g clip-path="url(#clip0_1907_6957)">
<path d="M75.0004 50C72.1597 50.006 69.341 50.4992 66.6671 51.4583V42.7562C67.7418 43.3711 69.0003 43.5829 70.2171 43.3539C71.4338 43.1248 72.5292 42.4698 73.3067 41.5062L75.6588 38.5646C76.4802 37.5347 76.882 36.2323 76.7834 34.9186C76.6849 33.605 76.0934 32.3771 75.1275 31.4812L44.9025 3.56667C43.1655 1.97751 40.8964 1.09619 38.5421 1.09619C36.1878 1.09619 33.9188 1.97751 32.1817 3.56667L1.95668 31.4792C0.9908 32.375 0.39929 33.6029 0.300764 34.9166C0.202238 36.2302 0.60398 37.5326 1.42543 38.5625L3.77752 41.5C4.55334 42.4656 5.64788 43.1231 6.86472 43.3544C8.08156 43.5858 9.34103 43.3759 10.4171 42.7625V63.5417C10.4199 66.0272 11.4085 68.4102 13.166 70.1677C14.9236 71.9253 17.3065 72.9139 19.7921 72.9167H50.1067C50.0484 73.6062 50.0004 74.2958 50.0004 75C50.0004 79.9445 51.4667 84.778 54.2137 88.8893C56.9607 93.0005 60.8652 96.2048 65.4333 98.097C70.0015 99.9892 75.0282 100.484 79.8777 99.5196C84.7272 98.555 89.1818 96.174 92.6781 92.6777C96.1744 89.1814 98.5554 84.7268 99.5201 79.8773C100.485 75.0277 99.9896 70.0011 98.0974 65.4329C96.2052 60.8648 93.0009 56.9603 88.8897 54.2133C84.7785 51.4662 79.945 50 75.0004 50ZM9.96502 40.5437C9.64966 40.8339 9.27817 41.0563 8.8735 41.1972C8.46883 41.3382 8.03956 41.3947 7.6122 41.3632C7.18484 41.3318 6.76846 41.2131 6.38876 41.0145C6.00907 40.8158 5.67412 40.5415 5.4046 40.2083L3.05043 37.2667C2.55908 36.6483 2.31917 35.8674 2.37865 35.0799C2.43813 34.2923 2.79262 33.5562 3.37127 33.0187L33.5942 5.10208C34.9463 3.86738 36.7111 3.18279 38.5421 3.18279C40.3731 3.18279 42.138 3.86738 43.49 5.10208L73.7129 33.0187C74.2916 33.5562 74.6461 34.2923 74.7056 35.0799C74.765 35.8674 74.5251 36.6483 74.0338 37.2667L71.6796 40.2083C71.4103 40.5415 71.0757 40.8161 70.6963 41.0152C70.317 41.2142 69.9009 41.3335 69.4737 41.3657C69.0465 41.3979 68.6172 41.3423 68.2123 41.2024C67.8074 41.0625 67.4354 40.8412 67.1192 40.5521L40.6442 16.0979C40.0703 15.5723 39.3203 15.2808 38.5421 15.2808C37.7639 15.2808 37.0139 15.5723 36.44 16.0979L9.96502 40.5437ZM48.9588 70.8333H28.1254V51.0417C28.1254 50.2129 28.4547 49.418 29.0407 48.832C29.6268 48.2459 30.4216 47.9167 31.2504 47.9167H45.8338C46.6626 47.9167 47.4574 48.2459 48.0435 48.832C48.6295 49.418 48.9588 50.2129 48.9588 51.0417V70.8333ZM45.8338 45.8333H31.2504C29.8691 45.8333 28.5443 46.3821 27.5676 47.3588C26.5908 48.3356 26.0421 49.6603 26.0421 51.0417V70.8333H19.7921C17.8582 70.8333 16.0036 70.0651 14.6361 68.6976C13.2687 67.3302 12.5004 65.4755 12.5004 63.5417V41.0417L37.8525 17.6271C38.0414 17.4559 38.2872 17.3612 38.5421 17.3612C38.797 17.3612 39.0428 17.4559 39.2317 17.6271L64.5838 41.0417V52.3062C61.3491 53.7965 58.4687 55.9582 56.1339 58.6475C53.7991 61.3368 52.0634 64.4923 51.0421 67.9042V51.0417C51.0421 49.6603 50.4934 48.3356 49.5166 47.3588C48.5399 46.3821 47.2151 45.8333 45.8338 45.8333ZM75.0004 97.9167C70.4679 97.9167 66.0372 96.5726 62.2686 94.0545C58.5 91.5364 55.5627 87.9573 53.8282 83.7698C52.0937 79.5824 51.6399 74.9746 52.5241 70.5292C53.4084 66.0838 55.591 62.0004 58.7959 58.7955C62.0009 55.5905 66.0842 53.4079 70.5296 52.5237C74.975 51.6394 79.5828 52.0933 83.7703 53.8278C87.9577 55.5623 91.5368 58.4995 94.0549 62.2682C96.5731 66.0368 97.9171 70.4675 97.9171 75C97.9099 81.0757 95.4932 86.9005 91.1971 91.1966C86.9009 95.4928 81.0761 97.9095 75.0004 97.9167Z" fill="#0048B4"/>
<path d="M81.8899 66.4583C82.1191 65.4458 82.4482 64.052 82.6399 63.4541C82.9378 62.0853 82.7903 60.6571 82.2192 59.3779C81.648 58.0988 80.683 57.0356 79.4649 56.3437C78.9087 56.1354 77.0003 55.6249 75.7753 58.2458C75.5253 58.7791 75.2503 59.4458 74.942 60.1854C73.9682 63.1138 72.3992 65.8091 70.3337 68.102C70.0511 67.6623 69.6627 67.3005 69.2041 67.0498C68.7455 66.799 68.2313 66.6673 67.7087 66.6666H63.542C62.7132 66.6666 61.9183 66.9958 61.3323 67.5819C60.7462 68.168 60.417 68.9628 60.417 69.7916V84.3749C60.417 85.2037 60.7462 85.9986 61.3323 86.5847C61.9183 87.1707 62.7132 87.4999 63.542 87.4999H67.7087C68.315 87.498 68.9077 87.3197 69.4145 86.9868C69.9213 86.6539 70.3203 86.1807 70.5628 85.6249L72.7899 86.7708C73.7077 87.2459 74.7252 87.4958 75.7587 87.4999H80.3774C82.8182 87.4972 85.1583 86.5264 86.8842 84.8004C88.6101 83.0745 89.5809 80.7345 89.5837 78.2937V75.5708C89.603 73.3828 88.8374 71.2603 87.4259 69.5884C86.0143 67.9166 84.0502 66.806 81.8899 66.4583ZM68.7503 84.3749C68.7503 84.6512 68.6406 84.9162 68.4452 85.1115C68.2499 85.3069 67.9849 85.4166 67.7087 85.4166H63.542C63.2657 85.4166 63.0008 85.3069 62.8054 85.1115C62.6101 84.9162 62.5003 84.6512 62.5003 84.3749V69.7916C62.5003 69.5153 62.6101 69.2504 62.8054 69.055C63.0008 68.8597 63.2657 68.7499 63.542 68.7499H67.7087C67.8485 68.7529 67.9863 68.7834 68.1144 68.8397C68.2424 68.896 68.3581 68.9769 68.4548 69.0779C68.5515 69.1789 68.6274 69.2979 68.6781 69.4283C68.7288 69.5586 68.7534 69.6976 68.7503 69.8374V84.3749ZM87.5003 78.2937C87.4981 80.1821 86.747 81.9926 85.4116 83.3279C84.0763 84.6632 82.2659 85.4144 80.3774 85.4166H75.7587C75.058 85.416 74.3675 85.2489 73.7441 84.9291L70.8337 83.4312V70.2708C73.7045 68.5312 75.5232 64.2291 76.8753 60.9854C77.1691 60.277 77.4337 59.6395 77.6712 59.1291C78.167 58.0708 78.5503 58.2208 78.7128 58.2854C79.4318 58.781 79.9959 59.4698 80.3402 60.2723C80.6845 61.0748 80.7949 61.9582 80.6587 62.8208C80.317 63.8999 79.6274 67.0499 79.5982 67.1958C79.5653 67.3477 79.5667 67.505 79.6025 67.6563C79.6383 67.8075 79.7074 67.9489 79.8049 68.0699C79.9024 68.191 80.0257 68.2887 80.1659 68.3559C80.3061 68.4231 80.4595 68.4581 80.6149 68.4583C82.4695 68.4933 84.2349 69.2612 85.5251 70.5939C86.8153 71.9267 87.5254 73.716 87.5003 75.5708V78.2937Z" fill="#0048B4"/>
</g>
<defs>
<clipPath id="clip0_1907_6957">
<rect width="100" height="100" fill="white"/>
</clipPath>
</defs>
</svg>
