<svg width="100" height="100" viewBox="0 0 100 100" fill="none" xmlns="http://www.w3.org/2000/svg">
<path d="M1.60238 79.2333L6.8753 91.9042C7.84152 94.1987 9.67694 96.0174 11.9803 96.9626C14.2836 97.9077 16.8675 97.9025 19.167 96.9479L36.5461 89.6167C37.2036 89.3338 37.7549 88.8506 38.1215 88.236C38.4881 87.6213 38.6513 86.9066 38.5878 86.1938L39.8003 85.6792C41.2042 85.0827 42.7445 84.8817 44.2545 85.0979C52.8774 86.3917 67.669 83.4042 75.2961 78.8354C82.7088 74.3604 89.8085 69.3864 96.5461 63.9479C97.8765 62.9305 98.7611 61.4375 99.0146 59.782C99.2681 58.1265 98.8707 56.4372 97.9058 55.0683C96.9408 53.6994 95.4833 52.7574 93.8389 52.4398C92.1945 52.1221 90.4911 52.4536 89.0857 53.3646C86.9065 54.8229 81.6899 58.5104 79.217 60.2583C78.8723 59.0883 78.1181 58.0815 77.0921 57.422C76.0661 56.7625 74.8369 56.4943 73.6295 56.6667C72.8857 56.8375 72.1711 57.0667 71.442 57.2917C68.5524 58.2187 65.567 59.1771 58.994 56.6667C46.494 51.875 34.0628 58.0271 33.6045 58.2625L28.1878 60.5542C27.7371 59.9926 27.1152 59.5936 26.4168 59.418C25.7185 59.2424 24.9818 59.2997 24.319 59.5812C21.5045 60.7521 13.1753 64.2417 6.63155 66.9833C4.3422 67.9433 2.52706 69.7721 1.58426 72.0685C0.641455 74.365 0.647974 76.9417 1.60238 79.2333ZM34.4774 60.1708C34.5982 60.1125 46.6274 54.1792 58.2503 58.6312C65.5086 61.4062 69.0003 60.2812 72.0774 59.2917C72.7524 59.0729 73.4107 58.8604 74.094 58.7042C76.0357 58.3125 77.5253 60.6 77.5253 62.3937C77.5253 64.6729 73.6628 67.0938 72.2565 67.7188C69.1301 68.6373 65.8435 68.8767 62.617 68.4208C62.4813 68.403 62.3434 68.4122 62.2112 68.4477C62.079 68.4832 61.9552 68.5444 61.8466 68.6277C61.7381 68.7111 61.6471 68.8151 61.5787 68.9336C61.5103 69.0522 61.466 69.183 61.4482 69.3187C61.4304 69.4544 61.4395 69.5923 61.475 69.7245C61.5106 69.8567 61.5717 69.9806 61.6551 70.0891C61.7385 70.1976 61.8424 70.2887 61.961 70.357C62.0796 70.4254 62.2104 70.4697 62.3461 70.4875C65.9508 70.9958 69.6232 70.7006 73.1003 69.6229C73.1649 69.5937 79.4503 66.6833 79.5961 62.5396C81.3649 61.2896 87.8128 56.7312 90.242 55.0958C91.2016 54.4757 92.365 54.2535 93.4856 54.4761C94.6063 54.6987 95.5964 55.3487 96.2462 56.2885C96.896 57.2283 97.1546 58.3841 96.9671 59.5112C96.7797 60.6383 96.161 61.6482 95.242 62.3271C88.58 67.7059 81.5596 72.6249 74.2295 77.05C67.0711 81.3396 52.6524 84.2583 44.567 83.0375C42.6786 82.77 40.7531 83.0206 38.9961 83.7625L37.9545 84.2021L29.1524 62.4208L34.4774 60.1708ZM25.1024 61.5208C25.4254 61.3877 25.788 61.3882 26.1106 61.5222C26.4332 61.6562 26.6895 61.9127 26.8232 62.2354L36.4315 86.0042C36.5586 86.322 36.5563 86.6769 36.4251 86.993C36.2939 87.3092 36.0442 87.5614 35.7295 87.6958L32.2253 89.1729L21.3878 63.075L25.1024 61.5208ZM19.467 63.8792L30.3128 89.9833L18.3586 95.0271C16.5695 95.7731 14.5576 95.7793 12.7639 95.0443C10.9702 94.3093 9.54114 92.8932 8.78988 91.1063L3.5253 78.4354C2.78614 76.655 2.78213 74.6542 3.51415 72.8708C4.24618 71.0874 5.65466 69.6665 7.43155 68.9188C11.3253 67.2917 15.8461 65.3917 19.467 63.8792Z" fill="#0048B4"/>
<path d="M56.8874 38.8541L59.4354 38.8937C60.8482 38.8794 62.2019 38.3248 63.2187 37.3437L65.5395 34.9896L69.2437 38.2146C69.6183 38.5405 70.0971 38.722 70.5936 38.7262C71.0902 38.7304 71.5719 38.5571 71.952 38.2375L75.7916 35.0125L78.4999 38.0646C78.867 38.477 79.3828 38.7269 79.934 38.7594C80.4851 38.7918 81.0266 38.6041 81.4395 38.2375L89.9645 30.6854C90.502 30.2023 90.9339 29.6133 91.233 28.9553C91.532 28.2974 91.6919 27.5847 91.7024 26.8621C91.713 26.1394 91.5741 25.4224 91.2943 24.756C91.0146 24.0896 90.6002 23.4882 90.077 22.9896L83.377 16.6896C81.674 15.0866 79.4322 14.1798 77.0937 14.1479L57.2499 13.8562C55.0839 9.96746 51.9174 6.72868 48.0785 4.47551C44.2395 2.22234 39.8679 1.03677 35.4166 1.04164C29.0387 1.10994 22.9222 3.5861 18.2929 7.9739C13.6636 12.3617 10.8636 18.3369 10.4541 24.7021C10.1538 30.2818 11.7315 35.8013 14.9354 40.3794C18.1392 44.9575 22.7844 48.3303 28.1294 49.9594C33.4745 51.5885 39.2112 51.3799 44.4239 49.367C49.6365 47.3541 54.0245 43.6528 56.8874 38.8541ZM18.677 41.6916C16.5615 39.443 14.9259 36.7872 13.87 33.886C12.8141 30.9848 12.36 27.899 12.5354 24.8166C12.9088 18.9811 15.4746 13.5025 19.7182 9.47955C23.9618 5.45656 29.5695 3.18664 35.4166 3.12497C39.5953 3.11943 43.6957 4.25841 47.2728 6.4183C50.85 8.57819 53.7673 11.6765 55.7083 15.3771C55.7957 15.5422 55.926 15.6808 56.0855 15.7783C56.2449 15.8758 56.4276 15.9286 56.6145 15.9312L77.0687 16.2312C78.8864 16.2575 80.6288 16.9619 81.9541 18.2062L88.6604 24.5083C88.9754 24.8067 89.225 25.1673 89.3936 25.5671C89.5622 25.9669 89.646 26.3974 89.6397 26.8313C89.6334 27.2651 89.5373 27.693 89.3572 28.0878C89.1772 28.4826 88.9172 28.8358 88.5937 29.125L80.0687 36.6791L77.3604 33.6312C77.0019 33.2215 76.4962 32.9699 75.9532 32.9309C75.4102 32.8919 74.8737 33.0687 74.4604 33.4229L70.6249 36.6437L66.9187 33.4187C66.5191 33.0701 66.0015 32.887 65.4716 32.9068C64.9417 32.9265 64.4392 33.1476 64.0666 33.525L61.7437 35.8812C61.4477 36.181 61.0941 36.4179 60.7042 36.5776C60.3144 36.7373 59.8962 36.8164 59.4749 36.8104L56.3187 36.7625C56.1318 36.7613 55.948 36.8097 55.7859 36.9027C55.6238 36.9956 55.4892 37.1298 55.3958 37.2916C53.3661 40.8753 50.4117 43.8483 46.8409 45.9005C43.2701 47.9527 39.2139 49.0087 35.0958 48.9583C32.009 48.9255 28.9613 48.2643 26.1385 47.0149C23.3156 45.7656 20.7769 43.9543 18.677 41.6916Z" fill="#0048B4"/>
<path d="M27.2084 17.5875C25.5603 17.5629 23.942 18.0277 22.558 18.9229C21.1741 19.8182 20.0867 21.1038 19.4334 22.6171C18.7802 24.1304 18.5903 25.8034 18.888 27.4246C19.1856 29.0458 19.9573 30.5423 21.1055 31.7249C22.2537 32.9074 23.7268 33.723 25.3385 34.0683C26.9502 34.4136 28.6281 34.2732 30.16 33.6649C31.6919 33.0565 33.009 32.0076 33.9447 30.6506C34.8804 29.2937 35.3927 27.6897 35.4168 26.0416C35.4203 23.8406 34.5643 21.7252 33.0311 20.146C31.4978 18.5669 29.4086 17.6488 27.2084 17.5875ZM27.0001 32.1708C26.179 32.1599 25.368 31.9874 24.6136 31.6629C23.8592 31.3385 23.1761 30.8685 22.6034 30.28C22.0307 29.6914 21.5796 28.9958 21.2759 28.2328C20.9722 27.4698 20.8219 26.6544 20.8334 25.8333C20.8513 24.5974 21.2352 23.3945 21.9367 22.3767C22.6381 21.3589 23.6256 20.572 24.7743 20.1155C25.923 19.6589 27.1812 19.5532 28.39 19.8118C29.5987 20.0703 30.7037 20.6814 31.5651 21.5679C32.4265 22.4544 33.0057 23.5764 33.2295 24.792C33.4533 26.0077 33.3116 27.2624 32.8223 28.3975C32.333 29.5326 31.5181 30.4972 30.4807 31.1692C29.4432 31.8412 28.2298 32.1905 26.9938 32.1729L27.0001 32.1708Z" fill="#0048B4"/>
<path d="M57.2917 27.3104H67.7083C67.9846 27.3104 68.2496 27.2006 68.4449 27.0053C68.6403 26.8099 68.75 26.545 68.75 26.2687C68.75 25.9925 68.6403 25.7275 68.4449 25.5321C68.2496 25.3368 67.9846 25.2271 67.7083 25.2271H57.2917C57.0154 25.2271 56.7504 25.3368 56.5551 25.5321C56.3597 25.7275 56.25 25.9925 56.25 26.2687C56.25 26.545 56.3597 26.8099 56.5551 27.0053C56.7504 27.2006 57.0154 27.3104 57.2917 27.3104Z" fill="#0048B4"/>
</svg>
