<svg width="103" height="103" viewBox="0 0 103 103" fill="none" xmlns="http://www.w3.org/2000/svg">
<path d="M15.135 53.4504C14.8328 53.4504 14.5476 53.266 14.4338 52.9667C14.2869 52.5795 14.4812 52.1462 14.8684 51.9989L43.2786 41.1989C43.6667 41.0534 44.0989 41.246 44.2463 41.6335C44.3933 42.0207 44.199 42.454 43.8118 42.6012L15.4016 53.4013C15.3137 53.4345 15.2239 53.4504 15.135 53.4504Z" fill="#0048B4"/>
<path d="M51.4048 67.2401C51.3145 67.2401 51.2241 67.2237 51.1382 67.191L14.8906 53.4095C14.5947 53.3084 14.3799 53.0289 14.3799 52.7C14.3799 52.2857 14.7104 51.95 15.1245 51.95H15.1348C15.2261 51.95 15.3164 51.9666 15.4014 51.9991L51.4048 65.6878L85.5737 52.7L59.0781 42.6312C58.6909 42.484 58.4966 42.0509 58.6436 41.6637C58.791 41.276 59.2251 41.0826 59.6113 41.2288L87.9512 51.9989C88.2422 52.1095 88.4346 52.3885 88.4346 52.7C88.4346 53.0113 88.2422 53.2904 87.9512 53.4012L51.6714 67.1912C51.5854 67.2237 51.4951 67.2401 51.4048 67.2401Z" fill="#0048B4"/>
<path d="M51.4053 99.7601C51.3149 99.7601 51.2246 99.7438 51.1392 99.7113L14.8589 85.9313C14.5674 85.8207 14.375 85.5416 14.375 85.2301V69.91C14.375 69.4957 14.7109 69.16 15.125 69.16C15.5391 69.16 15.875 69.4957 15.875 69.91V84.7128L51.4053 98.2079L86.9351 84.7128V69.91C86.9351 69.4957 87.271 69.16 87.6851 69.16C88.0991 69.16 88.4351 69.4957 88.4351 69.91V85.2301C88.4351 85.5416 88.2427 85.8207 87.9512 85.9313L51.6714 99.7113C51.5859 99.7438 51.4956 99.7601 51.4053 99.7601Z" fill="#0048B4"/>
<path d="M51.4045 67.2301C51.3141 67.2301 51.2238 67.2137 51.1379 67.1813L14.8581 53.4012C14.4709 53.2543 14.2761 52.8209 14.423 52.4337C14.5705 52.0463 15.0055 51.8534 15.3903 51.9989L51.4045 65.6779L87.4181 51.9989C87.8034 51.8524 88.238 52.0465 88.3854 52.4337C88.5324 52.8209 88.3376 53.2543 87.9504 53.4012L51.6711 67.1813C51.5851 67.2137 51.4948 67.2301 51.4045 67.2301Z" fill="#0048B4"/>
<path d="M51.4072 99.7618C50.9932 99.7618 50.6572 99.4261 50.6572 99.0118V66.4816C50.6572 66.0673 50.9932 65.7316 51.4072 65.7316C51.8213 65.7316 52.1572 66.0673 52.1572 66.4816V99.0118C52.1572 99.4261 51.8213 99.7618 51.4072 99.7618Z" fill="#0048B4"/>
<path d="M61.8299 80.8522C61.6019 80.8522 61.3797 80.7477 61.2347 80.5583L50.808 66.9425C50.6639 66.7543 50.617 66.5092 50.682 66.2814C50.7464 66.0536 50.9154 65.8698 51.1366 65.7856L87.4051 51.9926C87.7196 51.873 88.076 51.9777 88.2762 52.2497L98.0804 65.609C98.2181 65.7968 98.2611 66.0375 98.1966 66.2609C98.1322 66.4845 97.9671 66.6654 97.7508 66.7506L62.1048 80.8C62.0155 80.8354 61.9222 80.8522 61.8299 80.8522ZM52.6107 66.8297L62.0814 79.1969L96.2953 65.7121L87.4046 53.5973L52.6107 66.8297Z" fill="#0048B4"/>
<path d="M40.9742 80.8522C40.8819 80.8522 40.7886 80.8354 40.6993 80.8L5.05328 66.7507C4.83697 66.6655 4.67193 66.4845 4.60748 66.2609C4.54303 66.0375 4.586 65.7968 4.72369 65.6091L14.5279 52.2497C14.7271 51.9777 15.0855 51.8732 15.399 51.9926L51.6675 65.7856C51.8887 65.8698 52.0577 66.0536 52.1221 66.2814C52.1871 66.5092 52.1402 66.7543 51.9962 66.9426L41.5694 80.5583C41.4244 80.7477 41.2022 80.8522 40.9742 80.8522ZM6.50885 65.7121L40.7227 79.1969L50.1934 66.8298L15.3995 53.5973L6.50885 65.7121Z" fill="#0048B4"/>
<path d="M15.1343 53.45C14.9058 53.45 14.6836 53.3453 14.5391 53.1561L4.10889 39.5362C3.96338 39.3465 3.91748 39.0992 3.98389 38.8702C4.05078 38.6409 4.22315 38.4573 4.44727 38.3756L33.9072 27.6356C34.2979 27.4942 34.7271 27.6942 34.8687 28.0833C35.0107 28.4725 34.8101 28.9029 34.4209 29.0448L5.92041 39.4349L15.3906 51.8013L43.3389 41.2384C43.7251 41.0919 44.1592 41.2869 44.3057 41.6749C44.4521 42.0623 44.2568 42.4952 43.8691 42.6417L15.3994 53.4017C15.313 53.4344 15.2231 53.45 15.1343 53.45Z" fill="#0048B4"/>
<path d="M99.2483 34.7833C99.1628 34.7833 99.0764 34.7686 98.9915 34.7376L97.2141 34.0897C96.825 33.9478 96.6243 33.5174 96.7664 33.1283C96.9084 32.7388 97.3386 32.5389 97.7278 32.6805L99.5051 33.3284C99.8943 33.4703 100.095 33.9007 99.9529 34.2899C99.842 34.5943 99.5544 34.7833 99.2483 34.7833Z" fill="#0048B4"/>
<path d="M94.1838 32.9368C94.0984 32.9368 94.012 32.9222 93.927 32.8912L84.2493 29.3634C83.8601 29.2215 83.6594 28.7911 83.8015 28.4019C83.9436 28.0128 84.3738 27.8116 84.7629 27.9542L94.4407 31.482C94.8298 31.6239 95.0305 32.0543 94.8884 32.4434C94.7776 32.7479 94.49 32.9368 94.1838 32.9368Z" fill="#0048B4"/>
<path d="M87.3651 53.1901C87.2762 53.1901 87.1864 53.1744 87.0999 53.1417L59.16 42.5817C58.7723 42.4352 58.577 42.0023 58.7235 41.6149C58.8704 41.2272 59.3031 41.0333 59.6903 41.1784L87.1082 51.5414L96.5692 39.1752L68.5184 28.9447C68.1292 28.8029 67.9286 28.3722 68.0706 27.983C68.2127 27.5939 68.6449 27.3932 69.0321 27.5355L98.0418 38.1156C98.266 38.1974 98.4383 38.381 98.5047 38.61C98.5716 38.8392 98.5257 39.0863 98.3807 39.276L87.9608 52.8959C87.8158 53.0853 87.5936 53.1901 87.3651 53.1901Z" fill="#0048B4"/>
<path d="M68.9388 97.944C68.6395 97.944 68.3567 97.7634 68.2405 97.4677C68.0892 97.082 68.2791 96.6467 68.6649 96.4955L85.0887 90.0549C85.4734 89.9045 85.909 90.0932 86.0608 90.4792C86.2122 90.8649 86.0223 91.3002 85.6365 91.4513L69.2127 97.892C69.1229 97.9272 69.0301 97.944 68.9388 97.944Z" fill="#0048B4"/>
<path d="M63.5227 100.068C63.2234 100.068 62.9402 99.8873 62.8245 99.5914C62.6731 99.2059 62.8635 98.7706 63.2488 98.6195L64.5837 98.096C64.9685 97.9456 65.405 98.1341 65.5559 98.5206C65.7073 98.9061 65.5168 99.3414 65.1316 99.4925L63.7966 100.016C63.7068 100.051 63.614 100.068 63.5227 100.068Z" fill="#0048B4"/>
<path d="M90.8184 20.1132C90.3838 20.1132 90.0171 19.8124 89.9268 19.3815C89.6543 18.0367 88.9946 16.816 88.0186 15.8468C87.0444 14.8658 85.8267 14.2062 84.4917 13.9354C84.0576 13.8453 83.7563 13.4789 83.7559 13.0436C83.7559 12.608 84.0566 12.2411 84.4878 12.1512C85.8237 11.8802 87.0449 11.2201 88.0239 10.2411C88.9971 9.26819 89.6548 8.04675 89.9263 6.70862C90.0171 6.27356 90.3838 5.97278 90.8184 5.97278C91.2534 5.97278 91.6201 6.27356 91.7104 6.70447C91.9829 8.04724 92.6406 9.26868 93.6133 10.2411C94.5923 11.2201 95.8135 11.8802 97.1455 12.1503C97.5811 12.2413 97.8818 12.6083 97.8813 13.0436C97.8809 13.4786 97.5801 13.8451 97.1494 13.9347C97.1489 13.9347 97.1484 13.9347 97.1479 13.9349C94.4097 14.4989 92.2754 16.6359 91.7104 19.3793C91.6201 19.8124 91.2534 20.1132 90.8184 20.1132ZM86.5767 13.0428C87.5015 13.462 88.3486 14.0502 89.0791 14.7863C89.813 15.5145 90.3999 16.3624 90.8193 17.2906C91.6689 15.4054 93.1787 13.8939 95.062 13.0436C94.1377 12.6249 93.2881 12.0375 92.5527 11.3016C91.8218 10.5707 91.2368 9.72351 90.8188 8.79797C90.4014 9.72253 89.8159 10.5702 89.0845 11.3016C88.3496 12.0367 87.501 12.6239 86.5767 13.0428ZM96.8438 12.4659C96.8379 12.4694 96.8433 12.4662 96.8438 12.4659V12.4659Z" fill="#0048B4"/>
<path d="M7.50439 32.1053C5.021 32.1053 3.00098 30.0851 3.00098 27.6019C3.00098 25.1227 5.021 23.1058 7.50439 23.1058C9.9834 23.1058 12.0005 25.1227 12.0005 27.6019C12.0005 30.0851 9.9834 32.1053 7.50439 32.1053ZM7.50439 24.6058C5.84814 24.6058 4.50098 25.9498 4.50098 27.6019C4.50098 29.2579 5.84814 30.6053 7.50439 30.6053C9.15625 30.6053 10.5005 29.2579 10.5005 27.6019C10.5005 25.9498 9.15625 24.6058 7.50439 24.6058Z" fill="#0048B4"/>
<path d="M45.4023 45.9779C45.2036 45.9779 45.0127 45.8991 44.8721 45.7582C44.7314 45.6176 44.6523 45.4269 44.6523 45.2279C44.6523 44.0502 44.0054 42.9753 42.9639 42.4228C37.0088 39.2636 33.3096 33.1154 33.3096 26.3776C33.3096 21.362 35.4126 16.5216 39.0796 13.0981C42.7969 9.62711 47.6577 7.90934 52.748 8.25919C61.8467 8.8837 69.2539 16.5221 69.6113 25.6486C69.8872 32.6974 66.189 39.1274 59.9595 42.4294C58.9282 42.9762 58.2876 44.0478 58.2876 45.226C58.2876 45.64 57.9517 45.976 57.5376 45.976L45.4023 45.9779ZM46.0923 44.4779H56.8472C57.0767 43.0461 57.9565 41.7936 59.2573 41.1042C64.9727 38.0746 68.3657 32.1747 68.1123 25.7072C67.7847 17.3354 60.9907 10.3285 52.6455 9.75577C47.9595 9.43448 43.5132 11.0109 40.1035 14.1942C36.7393 17.3354 34.8096 21.776 34.8096 26.3776C34.8096 32.559 38.2036 38.1994 43.667 41.0976C44.9756 41.7919 45.8608 43.0468 46.0923 44.4779Z" fill="#0048B4"/>
<path d="M58.8687 51.0028H44.0674C42.2686 51.0028 40.8047 49.5392 40.8047 47.7404C40.8047 45.9415 42.2686 44.4779 44.0674 44.4779H58.8687C60.6675 44.4779 62.1313 45.9415 62.1313 47.7404C62.1313 49.5392 60.6675 51.0028 58.8687 51.0028ZM44.0674 45.9779C43.0952 45.9779 42.3047 46.7684 42.3047 47.7404C42.3047 48.7123 43.0952 49.5028 44.0674 49.5028H58.8687C59.8408 49.5028 60.6313 48.7123 60.6313 47.7404C60.6313 46.7684 59.8408 45.9779 58.8687 45.9779H44.0674Z" fill="#0048B4"/>
<path d="M58.8687 56.0277H44.0674C42.2686 56.0277 40.8047 54.5641 40.8047 52.7653C40.8047 50.9664 42.2686 49.5028 44.0674 49.5028H58.8687C60.6675 49.5028 62.1313 50.9664 62.1313 52.7653C62.1313 54.5641 60.6675 56.0277 58.8687 56.0277ZM44.0674 51.0028C43.0952 51.0028 42.3047 51.7933 42.3047 52.7653C42.3047 53.7372 43.0952 54.5277 44.0674 54.5277H58.8687C59.8408 54.5277 60.6313 53.7372 60.6313 52.7653C60.6313 51.7933 59.8408 51.0028 58.8687 51.0028H44.0674Z" fill="#0048B4"/>
<path d="M54.046 59.0602H48.8883C47.9347 59.0602 47.0348 58.5538 46.5397 57.7384L45.2828 55.6691C45.1422 55.4374 45.1373 55.1481 45.2701 54.912C45.4029 54.6757 45.6529 54.5297 45.9239 54.5297H57.0104C57.2814 54.5297 57.5314 54.6757 57.6642 54.912C57.797 55.1481 57.7921 55.4374 57.6515 55.6691L56.3946 57.7386C55.8995 58.5538 54.9996 59.0602 54.046 59.0602ZM47.2569 56.0297L47.8219 56.9598C48.0465 57.3302 48.4552 57.5602 48.8883 57.5602H54.046C54.4791 57.5602 54.8878 57.3302 55.1124 56.9601L55.6774 56.0297H47.2569Z" fill="#0048B4"/>
<path d="M51.4023 5.99255C50.9883 5.99255 50.6523 5.65686 50.6523 5.24255V3.68201C50.6523 3.2677 50.9883 2.93201 51.4023 2.93201C51.8164 2.93201 52.1523 3.2677 52.1523 3.68201V5.24255C52.1523 5.65686 51.8164 5.99255 51.4023 5.99255Z" fill="#0048B4"/>
<path d="M40.8355 8.82462C40.5767 8.82462 40.3243 8.6901 40.1856 8.44938L39.4053 7.09781C39.1983 6.73917 39.3209 6.28043 39.6797 6.0734C40.0381 5.86637 40.4971 5.98844 40.7042 6.34781L41.4844 7.69938C41.6915 8.05802 41.5689 8.51676 41.21 8.72379C41.0918 8.79215 40.9629 8.82462 40.8355 8.82462Z" fill="#0048B4"/>
<path d="M33.0992 16.5605C32.9717 16.5605 32.8428 16.528 32.7247 16.4596L31.3731 15.6794C31.0142 15.4723 30.8917 15.0136 31.0987 14.6549C31.3057 14.2961 31.7647 14.1733 32.1231 14.3805L33.4747 15.1608C33.8335 15.3678 33.9561 15.8266 33.7491 16.1852C33.6104 16.4257 33.358 16.5605 33.0992 16.5605Z" fill="#0048B4"/>
<path d="M30.2676 27.1278H28.707C28.293 27.1278 27.957 26.7921 27.957 26.3778C27.957 25.9635 28.293 25.6278 28.707 25.6278H30.2676C30.6816 25.6278 31.0176 25.9635 31.0176 26.3778C31.0176 26.7921 30.6816 27.1278 30.2676 27.1278Z" fill="#0048B4"/>
<path d="M74.0986 27.1278H72.5381C72.124 27.1278 71.7881 26.7921 71.7881 26.3778C71.7881 25.9635 72.124 25.6278 72.5381 25.6278H74.0986C74.5127 25.6278 74.8486 25.9635 74.8486 26.3778C74.8486 26.7921 74.5127 27.1278 74.0986 27.1278Z" fill="#0048B4"/>
<path d="M69.7066 16.5604C69.4478 16.5604 69.1954 16.4259 69.0567 16.1851C68.8497 15.8265 68.9722 15.3678 69.3311 15.1607L70.6827 14.3805C71.0406 14.1732 71.5 14.2957 71.7071 14.6549C71.9141 15.0135 71.7916 15.4723 71.4327 15.6793L70.0811 16.4596C69.9629 16.5279 69.834 16.5604 69.7066 16.5604Z" fill="#0048B4"/>
<path d="M61.9703 8.82463C61.8428 8.82463 61.7139 8.79216 61.5958 8.7238C61.2369 8.51677 61.1143 8.05803 61.3213 7.69939L62.1016 6.34783C62.3086 5.98894 62.7681 5.86638 63.126 6.07341C63.4849 6.28045 63.6075 6.73919 63.4004 7.09783L62.6202 8.44939C62.4815 8.68987 62.2291 8.82463 61.9703 8.82463Z" fill="#0048B4"/>
<path d="M51.4697 37.0282C51.4233 37.0282 51.3774 37.0279 51.3305 37.0274C48.4863 36.9906 45.8261 35.8485 43.8408 33.8109C41.8549 31.7733 40.7817 29.0848 40.8183 26.2403C40.8549 23.3959 41.997 20.7357 44.0346 18.7501C46.0722 16.7645 48.7367 15.6983 51.6054 15.7276C54.4496 15.7643 57.1098 16.9066 59.0951 18.9442C61.081 20.9815 62.1542 23.6703 62.1176 26.5147C62.0424 32.3402 57.2792 37.0282 51.4697 37.0282ZM51.4648 17.2269C49.0658 17.2269 46.8032 18.1463 45.0815 19.8243C43.331 21.5304 42.3495 23.8158 42.3183 26.2596C42.2866 28.7035 43.2089 31.0135 44.915 32.764C46.621 34.5145 48.9062 35.4959 51.35 35.5274C51.3896 35.5279 51.4296 35.5282 51.4697 35.5282C56.4609 35.5284 60.5532 31.5008 60.6176 26.4955C60.6493 24.0519 59.727 21.7416 58.0209 19.9911C56.3149 18.2403 54.0297 17.2591 51.5859 17.2276C51.5453 17.2272 51.5048 17.2269 51.4648 17.2269Z" fill="#0048B4"/>
<path d="M52.5681 27.1417C52.5652 27.1417 52.5618 27.1417 52.5583 27.1417L50.3586 27.1134C48.8577 27.0939 47.6526 25.8571 47.6721 24.3566C47.6916 22.8556 48.9504 21.6847 50.4289 21.6703L52.6287 21.6986C53.3552 21.7079 54.0354 21.9999 54.5427 22.5204C55.05 23.0411 55.3245 23.7281 55.3152 24.4552C55.3098 24.8661 54.9748 25.1954 54.5652 25.1954C54.5622 25.1954 54.5588 25.1954 54.5554 25.1954C54.1413 25.1901 53.8098 24.85 53.8152 24.4357C53.8196 24.1095 53.6965 23.8011 53.4685 23.5675C53.241 23.3336 52.9358 23.2028 52.6091 23.1986L50.4094 23.1703C50.1028 23.1593 49.7746 23.2892 49.5412 23.5167C49.3074 23.7445 49.1765 24.0497 49.1721 24.3761C49.1677 24.7023 49.2908 25.0106 49.5188 25.2445C49.7463 25.4781 50.052 25.6093 50.3782 25.6134L52.5779 25.6417C52.9919 25.6471 53.3235 25.9872 53.3181 26.4015C53.3127 26.8121 52.9778 27.1417 52.5681 27.1417Z" fill="#0048B4"/>
<path d="M52.5432 31.0851C52.5315 31.0851 52.5198 31.0848 52.5076 31.0848L50.3078 31.0565C49.5808 31.047 48.9011 30.755 48.3938 30.2345C47.8865 29.7137 47.612 29.0267 47.6213 28.2997C47.6267 27.8888 47.9617 27.5594 48.3713 27.5594H48.3811C48.7951 27.5648 49.1267 27.9049 49.1213 28.3192C49.1169 28.6454 49.24 28.9537 49.468 29.1876C49.6955 29.4213 50.0012 29.5524 50.3274 29.5565L52.5271 29.5848C53.1843 29.6195 53.7556 29.0526 53.7644 28.3788C53.7688 28.0526 53.6457 27.7443 53.4177 27.5106C53.1902 27.2767 52.885 27.1459 52.5583 27.1417L50.3586 27.1134C49.9446 27.108 49.613 26.7679 49.6184 26.3536C49.6238 25.943 49.9587 25.6134 50.3684 25.6134H50.3782L52.5779 25.6417C53.3044 25.651 53.9846 25.943 54.4919 26.4635C54.9993 26.9843 55.2737 27.6713 55.2644 28.3983C55.2449 29.8871 54.0276 31.0851 52.5432 31.0851Z" fill="#0048B4"/>
<path d="M51.5196 23.1845C51.5167 23.1845 51.5132 23.1845 51.5103 23.1845C51.0962 23.1793 50.7647 22.8393 50.7696 22.4252L50.7828 21.3722C50.7881 20.9582 51.107 20.6066 51.542 20.6315C51.9561 20.6366 52.2877 20.9767 52.2828 21.3908L52.2696 22.4438C52.2642 22.8549 51.9297 23.1845 51.5196 23.1845Z" fill="#0048B4"/>
<path d="M51.4044 32.1234C51.4014 32.1234 51.398 32.1234 51.3946 32.1234C50.9805 32.118 50.649 31.778 50.6544 31.3636L50.668 30.3109C50.6734 29.9 51.0084 29.5707 51.418 29.5707H51.4278C51.8419 29.576 52.1734 29.9161 52.168 30.3304L52.1544 31.3832C52.149 31.7941 51.814 32.1234 51.4044 32.1234Z" fill="#0048B4"/>
</svg>
