<svg width="110" height="110" viewBox="0 0 110 110" fill="none" xmlns="http://www.w3.org/2000/svg">
<g opacity="0.5">
<path d="M97.8542 87.5526H93.9559V17.1363C93.9559 8.47355 86.9081 1.42603 78.245 1.42603H21.6152C12.952 1.42603 5.9043 8.47376 5.9043 17.1363V92.8521C5.9043 101.521 12.952 108.574 21.6152 108.574C34.1805 108.573 75.4842 108.569 97.8368 108.569C101.288 108.569 104.096 105.761 104.096 102.308V93.7953C104.096 90.3531 101.296 87.5526 97.8542 87.5526ZM8.1391 92.8521V17.1363C8.1391 9.70567 14.1844 3.66083 21.6152 3.66083H78.245C85.6756 3.66083 91.7211 9.70567 91.7211 17.1363V87.5526C91.6063 87.5526 40.9475 87.5633 41.062 87.5601C40.6626 87.5715 40.5051 87.7361 40.2219 87.8592L27.9191 94.1032C24.6941 95.751 24.6935 100.371 27.9219 102.019L36.4327 106.339H21.6152C14.1844 106.339 8.1391 100.289 8.1391 92.8521ZM28.9383 100.02C27.3358 99.2057 27.3302 96.9185 28.9383 96.1016L30.873 95.1181V101.003L28.9383 100.02ZM39.9759 105.63L33.1078 102.139V93.9824L39.9759 90.4914V105.63ZM42.2107 106.334V89.7874H85.9821V106.334H42.2107ZM88.2193 106.334V89.7874H91.3794V106.334H88.2193ZM101.862 102.308C101.862 104.528 100.056 106.334 97.8368 106.334H93.6143V89.7874H97.8542C100.064 89.7874 101.862 91.5852 101.862 93.7955V102.308Z" fill="#0048B4"/>
<path d="M20.8196 17.2192H35.8217C36.4387 17.2192 36.9391 16.7188 36.9391 16.1018C36.9391 15.4847 36.4387 14.9844 35.8217 14.9844H20.8196C20.2025 14.9844 19.7021 15.4847 19.7021 16.1018C19.7021 16.7188 20.2025 17.2192 20.8196 17.2192Z" fill="#0048B4"/>
<path d="M40.8811 17.2192H47.2768C47.8938 17.2192 48.3942 16.7188 48.3942 16.1018C48.3942 15.4847 47.8938 14.9844 47.2768 14.9844H40.8811C40.264 14.9844 39.7637 15.4847 39.7637 16.1018C39.7637 16.7188 40.2638 17.2192 40.8811 17.2192Z" fill="#0048B4"/>
<path d="M52.1906 17.2192H62.1594C62.7764 17.2192 63.2768 16.7188 63.2768 16.1018C63.2768 15.4847 62.7764 14.9844 62.1594 14.9844H52.1906C51.5736 14.9844 51.0732 15.4847 51.0732 16.1018C51.0732 16.7188 51.5736 17.2192 52.1906 17.2192Z" fill="#0048B4"/>
<path d="M67.228 17.2192H79.2781C79.8952 17.2192 80.3955 16.7188 80.3955 16.1018C80.3955 15.4847 79.8952 14.9844 79.2781 14.9844H67.2278C66.6107 14.9844 66.1104 15.4847 66.1104 16.1018C66.1104 16.7188 66.6107 17.2192 67.228 17.2192Z" fill="#0048B4"/>
<path d="M20.8196 24.5441H58.0573C58.6744 24.5441 59.1747 24.0438 59.1747 23.4267C59.1747 22.8097 58.6744 22.3093 58.0573 22.3093H20.8196C20.2025 22.3093 19.7021 22.8097 19.7021 23.4267C19.7021 24.0438 20.2025 24.5441 20.8196 24.5441Z" fill="#0048B4"/>
<path d="M63.1155 24.5441H69.5116C70.1286 24.5441 70.629 24.0438 70.629 23.4267C70.629 22.8097 70.1286 22.3093 69.5116 22.3093H63.1155C62.4984 22.3093 61.998 22.8097 61.998 23.4267C61.998 24.0438 62.4984 24.5441 63.1155 24.5441Z" fill="#0048B4"/>
<path d="M20.8196 36.1076H35.8217C36.4387 36.1076 36.9391 35.6072 36.9391 34.9902C36.9391 34.3732 36.4387 33.8728 35.8217 33.8728H20.8196C20.2025 33.8728 19.7021 34.3732 19.7021 34.9902C19.7021 35.6072 20.2025 36.1076 20.8196 36.1076Z" fill="#0048B4"/>
<path d="M40.8811 33.8728C40.264 33.8728 39.7637 34.3732 39.7637 34.9902C39.7637 35.6072 40.264 36.1076 40.8811 36.1076H47.2768C47.8938 36.1076 48.3942 35.6072 48.3942 34.9902C48.3942 34.3732 47.8938 33.8728 47.2768 33.8728H40.8811Z" fill="#0048B4"/>
<path d="M51.0732 34.9902C51.0732 35.6072 51.5736 36.1076 52.1906 36.1076H62.1594C62.7764 36.1076 63.2768 35.6072 63.2768 34.9902C63.2768 34.3732 62.7764 33.8728 62.1594 33.8728H52.1906C51.5736 33.8728 51.0732 34.3732 51.0732 34.9902Z" fill="#0048B4"/>
<path d="M79.2781 33.8728H67.2278C66.6107 33.8728 66.1104 34.3732 66.1104 34.9902C66.1104 35.6072 66.6107 36.1076 67.2278 36.1076H79.2781C79.8952 36.1076 80.3955 35.6072 80.3955 34.9902C80.3955 34.3732 79.8954 33.8728 79.2781 33.8728Z" fill="#0048B4"/>
<path d="M20.8196 43.4318H58.0573C58.6744 43.4318 59.1747 42.9315 59.1747 42.3144C59.1747 41.6974 58.6744 41.197 58.0573 41.197H20.8196C20.2025 41.197 19.7021 41.6974 19.7021 42.3144C19.7021 42.9315 20.2025 43.4318 20.8196 43.4318Z" fill="#0048B4"/>
<path d="M63.1155 43.4318H69.5116C70.1286 43.4318 70.629 42.9315 70.629 42.3144C70.629 41.6974 70.1286 41.197 69.5116 41.197H63.1155C62.4984 41.197 61.998 41.6974 61.998 42.3144C61.998 42.9315 62.4984 43.4318 63.1155 43.4318Z" fill="#0048B4"/>
<path d="M20.8196 54.996H35.8217C36.4387 54.996 36.9391 54.4957 36.9391 53.8786C36.9391 53.2616 36.4387 52.7612 35.8217 52.7612H20.8196C20.2025 52.7612 19.7021 53.2616 19.7021 53.8786C19.7021 54.4957 20.2025 54.996 20.8196 54.996Z" fill="#0048B4"/>
<path d="M40.8811 52.7612C40.264 52.7612 39.7637 53.2616 39.7637 53.8786C39.7637 54.4957 40.264 54.996 40.8811 54.996H47.2768C47.8938 54.996 48.3942 54.4957 48.3942 53.8786C48.3942 53.2616 47.8938 52.7612 47.2768 52.7612H40.8811Z" fill="#0048B4"/>
<path d="M51.0732 53.8786C51.0732 54.4957 51.5736 54.996 52.1906 54.996H62.1594C62.7764 54.996 63.2768 54.4957 63.2768 53.8786C63.2768 53.2616 62.7764 52.7612 62.1594 52.7612H52.1906C51.5736 52.7612 51.0732 53.2616 51.0732 53.8786Z" fill="#0048B4"/>
<path d="M79.2781 52.7612H67.2278C66.6107 52.7612 66.1104 53.2616 66.1104 53.8786C66.1104 54.4957 66.6107 54.996 67.2278 54.996H79.2781C79.8952 54.996 80.3955 54.4957 80.3955 53.8786C80.3955 53.2616 79.8954 52.7612 79.2781 52.7612Z" fill="#0048B4"/>
<path d="M20.8196 62.3203H58.0573C58.6744 62.3203 59.1747 61.8199 59.1747 61.2029C59.1747 60.5858 58.6744 60.0854 58.0573 60.0854H20.8196C20.2025 60.0854 19.7021 60.5858 19.7021 61.2029C19.7021 61.8199 20.2025 62.3203 20.8196 62.3203Z" fill="#0048B4"/>
<path d="M63.1155 62.3203H69.5116C70.1286 62.3203 70.629 61.8199 70.629 61.2029C70.629 60.5858 70.1286 60.0854 69.5116 60.0854H63.1155C62.4984 60.0854 61.998 60.5858 61.998 61.2029C61.998 61.8199 62.4984 62.3203 63.1155 62.3203Z" fill="#0048B4"/>
<path d="M20.8196 73.884H35.8217C36.4387 73.884 36.9391 73.3836 36.9391 72.7666C36.9391 72.1495 36.4387 71.6492 35.8217 71.6492H20.8196C20.2025 71.6492 19.7021 72.1495 19.7021 72.7666C19.7021 73.3836 20.2025 73.884 20.8196 73.884Z" fill="#0048B4"/>
<path d="M40.8811 71.6492C40.264 71.6492 39.7637 72.1495 39.7637 72.7666C39.7637 73.3836 40.264 73.884 40.8811 73.884H47.2768C47.8938 73.884 48.3942 73.3836 48.3942 72.7666C48.3942 72.1495 47.8938 71.6492 47.2768 71.6492H40.8811Z" fill="#0048B4"/>
<path d="M51.0732 72.7666C51.0732 73.3836 51.5736 73.884 52.1906 73.884H62.1594C62.7764 73.884 63.2768 73.3836 63.2768 72.7666C63.2768 72.1495 62.7764 71.6492 62.1594 71.6492H52.1906C51.5736 71.6492 51.0732 72.1495 51.0732 72.7666Z" fill="#0048B4"/>
<path d="M79.2781 71.6492H67.2278C66.6107 71.6492 66.1104 72.1495 66.1104 72.7666C66.1104 73.3836 66.6107 73.884 67.2278 73.884H79.2781C79.8952 73.884 80.3955 73.3836 80.3955 72.7666C80.3955 72.1495 79.8954 71.6492 79.2781 71.6492Z" fill="#0048B4"/>
<path d="M59.1747 80.0913C59.1747 79.4742 58.6744 78.9739 58.0573 78.9739H20.8196C20.2025 78.9739 19.7021 79.4742 19.7021 80.0913C19.7021 80.7083 20.2025 81.2087 20.8196 81.2087H58.0573C58.6744 81.2087 59.1747 80.7085 59.1747 80.0913Z" fill="#0048B4"/>
<path d="M69.5116 78.9739H63.1154C62.4984 78.9739 61.998 79.4742 61.998 80.0913C61.998 80.7083 62.4984 81.2087 63.1154 81.2087H69.5116C70.1286 81.2087 70.629 80.7083 70.629 80.0913C70.629 79.4742 70.1286 78.9739 69.5116 78.9739Z" fill="#0048B4"/>
</g>
</svg>
