<svg width="110" height="110" viewBox="0 0 110 110" fill="none" xmlns="http://www.w3.org/2000/svg">
<g opacity="0.5">
<path d="M99.7411 13.2338H73.2144L58.1336 2.40456C56.2703 1.0635 53.7497 1.06136 51.857 2.40348L40.1274 10.8217V9.27419C41.3442 8.89327 42.2356 7.76899 42.2356 6.42837V5.06927C42.2356 3.41776 40.8918 2.07391 39.2403 2.07391H28.6768C27.0253 2.07391 25.6815 3.41776 25.6815 5.06927V6.42837C25.6815 7.76964 26.5737 8.89456 27.7912 9.27483V13.2338H10.2591C5.39185 13.2338 1.43164 17.1938 1.43164 22.0613V84.1668C1.43164 89.0283 5.39164 92.9833 10.2591 92.9833H43.6197C42.6556 95.8438 41.2265 98.4863 39.3692 100.868H37.6176C35.4728 100.868 33.7504 102.581 33.7504 104.735C33.7504 106.867 35.4855 108.602 37.6176 108.602H72.3816C74.5006 108.602 76.2488 106.854 76.2488 104.735C76.2488 102.603 74.5138 100.868 72.3816 100.868H70.6302C68.7757 98.499 67.3472 95.8564 66.3802 92.9833H99.7413C104.609 92.9833 108.569 89.0283 108.569 84.1668V22.061C108.569 17.1938 104.609 13.2338 99.7411 13.2338ZM53.1548 4.223C54.2634 3.43667 55.7394 3.43409 56.8285 4.2187L89.4935 27.6749C90.9044 28.6815 91.2301 30.6503 90.2087 32.0676C90.207 32.0698 90.2059 32.0715 90.2044 32.073C89.1859 33.5051 87.2029 33.7887 85.8107 32.7856L55.6522 11.1304C55.2627 10.8511 54.7378 10.8511 54.3481 11.1304L24.1857 32.7888C22.783 33.8048 20.8062 33.4817 19.7832 32.0713C18.7685 30.6533 19.0828 28.6827 20.4984 27.6725C68.571 -6.83286 5.04424 38.7705 53.1548 4.223ZM30.0261 9.42372H37.8926V12.4365C37.6545 12.6075 29.5106 18.453 30.0261 18.0832V9.42372ZM17.9697 33.3771C19.6315 35.6684 22.8655 36.3673 25.3442 34.6919V57.955C19.4207 58.9175 19.5071 64.7984 19.4669 64.9103C19.4708 65.1329 19.3595 65.3179 19.1434 65.4363C16.4138 66.9683 15.109 70.3951 16.5169 73.509C15.9213 74.2197 15.581 75.0969 15.581 76.0337C15.581 76.6662 15.7456 77.2559 16.0127 77.7859C15.0239 77.7737 14.8044 77.813 13.7179 77.7546C12.0735 77.6635 10.7846 76.2934 10.7846 74.6352V25.7374C10.7846 24.0002 12.1983 22.5865 13.9355 22.5865H23.7522L19.1975 25.8558C16.7932 27.5718 16.2208 30.9319 17.9697 33.3771ZM85.4878 49.7475L88.823 53.055L86.3682 55.5369C86.119 55.2877 82.8295 51.9982 83.0334 52.2021C82.1706 51.3395 80.7642 51.3378 79.901 52.2021L78.7399 53.4095L76.1451 42.8876C76.5784 42.9913 87.3053 45.5585 86.6911 45.4116C86.635 45.5235 86.6346 45.5246 86.6905 45.4126L85.4873 46.6151C84.6241 47.4788 84.6241 48.8839 85.4878 49.7475ZM20.2275 67.3909C21.1545 66.8824 21.7198 65.9173 21.7017 64.8914C21.7432 64.7797 21.6336 61.113 25.3442 60.2031V72.0876H19.5273C19.1431 72.0876 18.774 72.1594 18.4161 72.2638C17.7284 70.292 18.611 68.2978 20.2275 67.3909ZM90.4719 74.3222C91.4157 74.3222 92.1836 75.0899 92.1836 76.0339C92.1836 76.9949 91.3899 77.7346 90.4719 77.7346H19.5273C18.5835 77.7346 17.8156 76.9719 17.8156 76.0339C17.8156 75.0675 18.6024 74.3222 19.5273 74.3222H90.4719ZM91.898 72.3643C91.4544 72.1912 90.9759 72.0874 90.4717 72.0874H84.6561V64.1431C87.0533 63.1316 89.6998 64.8388 89.8302 67.3757C89.8525 68.0447 90.1739 68.672 90.7009 69.0888C91.6853 69.8881 92.1153 71.1395 91.898 72.3643ZM82.4213 33.1049V42.1146L76.6865 40.7194C75.9313 40.5245 75.149 40.7346 74.5956 41.2782C74.0381 41.8243 73.8116 42.6061 73.9928 43.3798L76.5692 53.9406C76.763 54.7295 77.3439 55.3302 78.1242 55.5485C78.8929 55.7625 79.7168 55.5479 80.2782 54.985L81.4534 53.7825L82.4213 54.7504V72.0876H27.579V33.1049L55.0001 13.4138L82.4213 33.1049ZM93.7717 73.8811C94.6979 71.5686 94.0512 68.9283 92.0628 67.2811C91.8703 63.5293 88.2971 60.884 84.6561 61.8011V56.985L84.7882 57.1171C85.6504 57.9793 87.0557 57.9831 87.9206 57.1171L90.4038 54.6346C91.2664 53.7709 91.2664 52.3658 90.4032 51.5028L87.0679 48.1953L88.2711 46.9928C88.8331 46.4308 89.0486 45.6053 88.8342 44.8381C88.6159 44.0578 88.0152 43.4769 87.2245 43.2831L84.6563 42.6583V34.6917C87.162 36.3782 90.4042 35.6437 92.0231 33.3728C93.7502 30.9753 93.2327 27.598 90.7944 25.8575L86.2393 22.5865H96.0649C97.8022 22.5865 99.2158 24.0002 99.2158 25.7374V74.6355C99.2158 76.2571 97.8971 77.6566 96.2761 77.7552C95.6447 77.7906 94.8854 77.769 93.9921 77.7756C94.2607 77.2376 94.4182 76.6498 94.4182 76.0337C94.4182 75.2392 94.1775 74.5012 93.7717 73.8811ZM27.9161 5.06927C27.9161 4.64968 28.257 4.30872 28.6766 4.30872H39.2401C39.6596 4.30872 40.0006 4.64968 40.0006 5.06927V6.42837C40.0006 6.84796 39.6596 7.18891 39.2401 7.18891C34.6596 7.1887 28.1249 7.1902 28.6766 7.18891C28.257 7.18891 27.9161 6.84796 27.9161 6.42837V5.06927ZM74.014 104.735C74.014 105.619 73.2657 106.367 72.3816 106.367H37.6176C36.7174 106.367 35.9852 105.635 35.9852 104.735C35.9852 103.853 36.6634 103.103 37.6176 103.103C37.7336 103.103 74.6495 103.106 72.3816 103.103C73.2818 103.103 74.014 103.835 74.014 104.735ZM67.8465 100.868H42.1505C43.8154 98.4541 45.0733 95.8066 45.946 92.9833H64.0541C64.9287 95.816 66.1864 98.4642 67.8465 100.868ZM106.334 84.1668C106.334 87.7961 103.377 90.7485 99.7411 90.7485H10.2591C6.62377 90.7485 3.66645 87.7961 3.66645 84.1668V22.061C3.66645 18.4257 6.62355 15.4683 10.2591 15.4683H27.7912V19.6872L26.8657 20.3517H13.9353C10.9655 20.3517 8.54963 22.7677 8.54963 25.7374V74.6355C8.54963 77.6252 10.981 80.0102 13.9353 80.0102C101.991 80.0102 96.2265 80.0267 96.4936 79.9801C99.2794 79.7679 101.45 77.4359 101.45 74.6352V25.7374C101.45 22.7677 99.0345 20.3517 96.0647 20.3517H83.1268L76.3266 15.4686H99.7411C103.377 15.4686 106.334 18.4257 106.334 22.0613V84.1668Z" fill="#0048B4"/>
<path d="M94.2767 81.8314C92.194 81.8314 90.5 83.5158 90.5 85.5858C90.5 87.6625 92.194 89.3516 94.2767 89.3516C96.3474 89.3516 98.0316 87.6625 98.0316 85.5858C98.0318 83.5158 96.3474 81.8314 94.2767 81.8314ZM94.2767 87.1168C93.4266 87.1168 92.7348 86.4299 92.7348 85.5858C92.7348 84.7477 93.4266 84.0662 94.2767 84.0662C95.1148 84.0662 95.7968 84.7477 95.7968 85.5858C95.797 86.4299 95.1148 87.1168 94.2767 87.1168Z" fill="#0048B4"/>
<path d="M85.1369 81.8314C83.0602 81.8314 81.3711 83.5158 81.3711 85.5858C81.3711 87.6625 83.0602 89.3516 85.1369 89.3516C87.2069 89.3516 88.8913 87.6625 88.8913 85.5858C88.8911 83.5158 87.2069 81.8314 85.1369 81.8314ZM85.1369 87.1168C84.2928 87.1168 83.6059 86.4299 83.6059 85.5858C83.6059 84.7477 84.2928 84.0662 85.1369 84.0662C85.975 84.0662 86.6565 84.7477 86.6565 85.5858C86.6563 86.4299 85.9748 87.1168 85.1369 87.1168Z" fill="#0048B4"/>
<path d="M76.0075 81.8314C73.9315 81.8314 72.2422 83.5158 72.2422 85.5858C72.2422 87.6625 73.9313 89.3516 76.0075 89.3516C78.0782 89.3516 79.7624 87.6625 79.7624 85.5858C79.7624 83.5158 78.0782 81.8314 76.0075 81.8314ZM76.0075 87.1168C75.1634 87.1168 74.4772 86.4299 74.4772 85.5858C74.4772 84.7477 75.1636 84.0662 76.0075 84.0662C76.8456 84.0662 77.5276 84.7477 77.5276 85.5858C77.5276 86.4299 76.8456 87.1168 76.0075 87.1168Z" fill="#0048B4"/>
<path d="M41.8865 44.6569V55.0835C41.8865 56.5642 43.0911 57.7691 44.5725 57.7691H65.4404C66.9147 57.7691 68.1144 56.5644 68.1144 55.0835V44.6541C68.1144 44.6522 68.1155 44.6505 68.1155 44.6488C68.1155 44.6468 68.1144 44.6451 68.1144 44.6434V34.2026C68.1144 32.7284 66.9145 31.5287 65.4404 31.5287H44.5725C43.0911 31.5287 41.8865 32.7286 41.8865 34.2026V44.6406C41.8865 44.6436 41.8848 44.646 41.8848 44.6488C41.885 44.6516 41.8865 44.6539 41.8865 44.6569ZM44.1213 55.0835V45.7662H53.8827V55.5343H44.5725C44.3237 55.5343 44.1213 55.3317 44.1213 55.0835ZM65.4404 55.5343H56.1175V45.7662H65.8796V55.0835C65.8796 55.3317 65.6828 55.5343 65.4404 55.5343ZM65.8796 34.2024V43.5311H56.1175V33.7631H65.4404C65.6828 33.7633 65.8796 33.9603 65.8796 34.2024ZM44.5725 33.7633H53.8827V43.5314H44.1213V34.2026C44.1213 33.9603 44.3237 33.7633 44.5725 33.7633Z" fill="#0048B4"/>
</g>
</svg>
