<svg width="110" height="110" viewBox="0 0 110 110" fill="none" xmlns="http://www.w3.org/2000/svg">
<g opacity="0.5">
<path d="M82.2162 8.25419C80.8872 6.66478 78.6818 6.09308 76.7203 6.83407L65.1377 11.325L65.3869 10.3612C66.5247 10.2636 67.5332 9.47192 67.8357 8.30554L68.1347 7.14946V7.14882C68.5167 5.67134 67.6251 4.15884 66.1481 3.77706L57.1609 1.45331C56.4457 1.27005 55.7004 1.37146 55.063 1.74786C54.4262 2.12276 53.9733 2.7239 53.7885 3.43976L53.4895 4.59583C53.1874 5.762 53.6871 6.94171 54.6357 7.57872L52.3888 16.2679L43.777 19.6067C41.2821 20.5796 40.039 23.403 41.0086 25.9064C41.9115 28.2018 44.4007 29.5523 46.9249 28.7952L46.0105 32.3365H37.0148L36.5331 29.6788C35.5668 24.3488 30.9313 20.4805 25.5119 20.4805C23.079 20.4797 21.099 20.4792 19.4859 20.4786C17.794 17.7421 14.8436 16.0556 11.5995 16.0556C6.4735 16.0556 2.30273 20.2214 2.30273 25.3414C2.30273 30.4613 6.47328 34.6271 11.5995 34.6271C14.8739 34.6271 17.8312 32.9226 19.5061 30.1564L25.5114 30.1575C26.2475 30.1575 26.8804 30.6856 27.0158 31.4085C28.3334 38.6814 33.8977 69.3936 35.2164 76.6718C29.0362 77.6758 24.4166 82.9573 24.4166 89.347C24.4166 96.3556 30.1478 102.175 37.2559 102.175H38.3741C40.1891 105.988 44.0686 108.636 48.5653 108.636C53.0619 108.636 56.9414 105.988 58.7564 102.175H76.2668C78.0818 105.988 81.9612 108.636 86.4579 108.636C90.9546 108.636 94.834 105.988 96.649 102.175H101.049C103.723 102.175 105.898 100.009 105.898 97.3473C105.898 94.6734 103.723 92.4979 101.049 92.4979H96.6417C95.0598 89.1873 91.9192 86.7697 88.1704 86.1956H95.9308C98.2616 86.1956 100.27 84.5304 100.707 82.2268L107.49 44.7892C108.728 37.7845 104.958 35.6599 82.2162 8.25419ZM55.6534 5.15571L55.9524 3.999C56.0276 3.70745 56.3237 3.54374 56.6013 3.617L65.589 5.94075C65.8756 6.01466 66.0441 6.30642 65.971 6.58958L65.672 7.74566C65.5989 8.03054 65.3059 8.20069 65.0227 8.12808C64.5213 7.99831 55.9045 5.77038 56.036 5.80433C55.7524 5.73149 55.5786 5.4421 55.6534 5.15571ZM56.7577 8.29974L63.1817 9.96048L62.572 12.3195L54.9543 15.2731L56.7577 8.29974ZM43.0906 25.0939C42.5675 23.7425 43.2391 22.2147 44.5866 21.6899C47.3213 20.7072 33.5524 25.9805 77.5189 8.9215C78.5824 8.51823 79.781 8.82718 80.5007 9.68634L99.6575 32.6656C98.8202 32.4559 97.9546 32.3362 97.0697 32.3362H92.5313L78.1946 15.1393C77.8884 14.771 77.3805 14.6389 76.9326 14.8125L46.5006 26.6031C45.1531 27.1312 43.6243 26.4525 43.0906 25.0939ZM49.4779 27.8464L76.9921 17.1865L89.6221 32.3365H79.3017L63.2967 28.1915C62.6042 28.0157 61.8819 28.1189 61.2632 28.48C60.6362 28.8467 60.1937 29.4322 60.0192 30.1223L59.4434 32.3365H48.3186L49.4779 27.8464ZM70.3865 32.3362H61.7526L62.184 30.6776C62.2222 30.527 62.3303 30.4452 62.3907 30.4097C62.4545 30.3726 62.5887 30.3158 62.7419 30.3562L70.3865 32.3362ZM11.5992 32.3919C7.7052 32.3919 4.53732 29.229 4.53732 25.3409C4.53732 21.4529 7.7052 18.29 11.5992 18.29C13.561 18.29 15.3874 19.0989 16.7005 20.4771C16.5222 20.4771 12.8303 20.4756 12.6507 20.4756C9.94 20.4253 7.77395 22.6341 7.77395 25.3098C7.77395 27.9811 9.94773 30.1547 12.6189 30.1547H12.6472H12.6823H12.6904L16.7478 30.1554C15.4387 31.5656 13.5926 32.3919 11.5992 32.3919ZM38.381 92.4974H37.2555C35.3895 92.4974 34.0932 90.96 34.0932 89.3465C34.0932 87.7238 35.4398 86.195 37.2555 86.195H46.8525C43.1035 86.7693 39.9629 89.1869 38.381 92.4974ZM48.5648 106.401C43.5708 106.401 39.5077 102.337 39.5077 97.3435C39.5077 96.1839 39.7345 95.0783 40.1335 94.0585C40.1374 94.0501 40.1393 94.0417 40.1427 94.0334C41.4683 90.6732 44.7397 88.2859 48.5648 88.2859C53.5589 88.2859 57.622 92.349 57.622 97.3435C57.622 102.337 53.5587 106.401 48.5648 106.401ZM59.5436 99.9394C59.7412 99.1043 59.8566 98.2378 59.8566 97.3435C59.8566 96.4435 59.7395 95.5718 59.5395 94.7322H75.4824C75.2826 95.5718 75.1653 96.4435 75.1653 97.3435C75.1653 98.2381 75.2809 99.1043 75.4783 99.9394H59.5436ZM101.048 94.7322C102.49 94.7322 103.663 95.9053 103.663 97.3469C103.663 98.7765 102.49 99.9396 101.048 99.9396H97.4362C97.6338 99.1045 97.7492 98.2381 97.7492 97.3437C97.7492 96.4437 97.6321 95.5721 97.4321 94.7325H101.048V94.7322ZM95.5144 97.3435C95.5144 102.337 91.4513 106.401 86.4572 106.401C81.4632 106.401 77.4001 102.337 77.4001 97.3435C77.4001 96.1826 77.6276 95.076 78.0272 94.0548C78.0294 94.0499 78.0306 94.045 78.0328 94.0398C79.3567 90.6762 82.6296 88.2859 86.4572 88.2859C91.4513 88.2859 95.5144 92.349 95.5144 97.3435ZM76.2737 92.4974H58.7486C57.1667 89.1869 54.0262 86.7693 50.2771 86.1952H84.7447C80.9961 86.7693 77.8555 89.1869 76.2737 92.4974ZM105.29 44.3948L98.5087 81.8186C98.273 83.0593 97.1889 83.9602 95.9301 83.9602H37.2555C34.2068 83.9602 31.8584 86.4913 31.8584 89.3465C31.8584 92.161 34.1482 94.7322 37.2555 94.7322H37.59C37.3902 95.5718 37.2731 96.4435 37.2731 97.3435C37.2731 98.2381 37.3887 99.1043 37.5863 99.9394H37.2557C31.3943 99.9394 26.6512 95.1334 26.6512 89.3463C26.6512 83.6592 31.0639 79.1094 36.5987 78.762C37.2666 78.7197 37.7472 78.1059 37.6282 77.4472C36.8477 73.1392 40.612 93.916 29.2132 31.0016C28.8787 29.2176 27.3215 27.9223 25.5112 27.9223C25.3903 27.9223 12.5329 27.9199 12.6447 27.9201C12.6359 27.9201 12.6266 27.9201 12.618 27.9201C11.1792 27.9195 10.009 26.7488 10.009 25.31C10.009 23.8768 11.1799 22.7108 12.6187 22.7108C28.8359 22.7188 14.8687 22.7119 25.5114 22.7151C29.8502 22.7151 33.5608 25.8114 34.3344 30.0769L34.9826 33.6528C35.0787 34.1848 35.5419 34.571 36.082 34.571H97.0701C102.331 34.571 106.184 39.3352 105.29 44.3948Z" fill="#0048B4"/>
<path d="M97.0697 39.7781H37.4336C37.1023 39.7781 36.7882 39.9248 36.576 40.1792C36.3637 40.4334 36.2754 40.7689 36.3343 41.0946L42.9837 77.7678C43.0522 78.347 43.5975 78.7555 44.0923 78.7555H92.8358C93.3183 78.7555 93.8522 78.3397 93.938 77.8039C103.104 27.1955 99.115 49.2209 100.155 43.4781C100.524 41.5834 99.057 39.7781 97.0697 39.7781ZM45.0268 76.5088L42.441 62.2482L90.0755 74.5718C90.7615 74.7491 91.5124 74.7523 92.2577 74.5499L91.9017 76.5086H45.0268V76.5088ZM92.8006 71.5528C92.2961 72.3503 91.4047 72.6066 90.6339 72.4081L42.002 59.826L41.2241 55.5356C45.6602 56.682 23.8303 51.0408 91.6204 68.5585C92.3687 68.7575 92.9275 69.381 93.0597 70.123L92.8006 71.5528ZM42.8066 53.6258L45.8082 42.0129H56.9416L54.7545 50.4655C54.3923 51.8955 55.262 53.3659 56.698 53.744L77.0149 58.9933C78.455 59.3757 79.9102 58.5092 80.2956 57.065L84.1911 42.0129H95.3138L89.206 65.6257L42.8066 53.6258ZM59.5941 42.0129L68.7868 44.3933L66.3269 53.9236L57.2622 51.5818C57.0112 51.5158 56.8585 51.261 56.9195 51.0198L59.2501 42.0129H59.5941ZM81.8824 42.0129L81.0424 45.2592L71.5089 42.79L71.7096 42.0129H81.8824ZM80.4825 47.4222L78.1338 56.497C78.0679 56.7447 77.8266 56.8981 77.5823 56.8315L68.4906 54.4826L70.9503 44.9537L80.4825 47.4222ZM69.3452 42.2294L68.5086 42.0127H69.4013L69.3452 42.2294ZM43.4999 42.0129L40.7214 52.7639L38.7721 42.0129H43.4999ZM97.9592 43.0652L93.6099 67.0841C93.1901 66.7783 92.7153 66.5369 92.1872 66.3966L91.3697 66.1852L97.5817 42.1704C97.8616 42.3684 98.0324 42.6873 97.9592 43.0652Z" fill="#0048B4"/>
<path d="M79.9688 97.3434C79.9688 100.921 82.8797 103.832 86.4577 103.832C90.0357 103.832 92.9466 100.921 92.9466 97.3434C92.9466 93.7654 90.0357 90.8545 86.4577 90.8545C82.8797 90.8545 79.9688 93.7654 79.9688 97.3434ZM90.7118 97.3434C90.7118 99.6891 88.8033 101.598 86.4577 101.598C84.112 101.598 82.2036 99.6891 82.2036 97.3434C82.2036 94.9978 84.112 93.0893 86.4577 93.0893C88.8033 93.0893 90.7118 94.998 90.7118 97.3434Z" fill="#0048B4"/>
<path d="M48.5651 90.8545C44.9871 90.8545 42.0762 93.7654 42.0762 97.3434C42.0762 100.921 44.9871 103.832 48.5651 103.832C52.1431 103.832 55.054 100.921 55.054 97.3434C55.054 93.7654 52.1431 90.8545 48.5651 90.8545ZM48.5651 101.598C46.2194 101.598 44.311 99.6891 44.311 97.3434C44.311 94.9978 46.2194 93.0893 48.5651 93.0893C50.9108 93.0893 52.8192 94.9978 52.8192 97.3434C52.8192 99.6891 50.9105 101.598 48.5651 101.598Z" fill="#0048B4"/>
</g>
</svg>
