<svg width="98" height="98" viewBox="0 0 98 98" fill="none" xmlns="http://www.w3.org/2000/svg">
<path d="M44.7192 90.792C44.6467 91.3729 44.1519 91.7978 43.5813 91.7978C43.5336 91.7978 43.4856 91.795 43.4372 91.7888C26.1557 89.6267 11.698 77.3823 6.56638 60.907L5.58121 62.992C5.38521 63.4067 4.97235 63.65 4.54207 63.65C4.37765 63.65 4.21075 63.6146 4.05207 63.5396C3.47862 63.2685 3.23343 62.5841 3.50446 62.0106L5.92957 56.8781C6.07715 56.5659 6.35718 56.3366 6.69252 56.2539C7.02671 56.1708 7.38216 56.2434 7.65836 56.451L12.1941 59.8638C12.7008 60.2451 12.8028 60.9652 12.4215 61.472C12.0398 61.9787 11.3201 62.0807 10.8133 61.6992L8.7308 60.1323C13.5715 75.8024 27.3026 87.4554 43.7224 89.5098C44.3517 89.5886 44.7981 90.1627 44.7192 90.792ZM91.403 56.5058C90.7846 56.3607 90.1675 56.7439 90.0224 57.3615C86.1925 73.6828 72.8741 86.2153 56.5081 89.1687L58.1955 87.2804C58.6182 86.8075 58.5774 86.0815 58.1044 85.6589C57.6315 85.2364 56.9053 85.277 56.4828 85.75L52.701 89.982C52.471 90.2394 52.3689 90.5868 52.4231 90.9279C52.4775 91.2688 52.6823 91.5674 52.9811 91.7406L57.8912 94.5891C58.0725 94.6944 58.2708 94.7443 58.4664 94.7443C58.8624 94.7443 59.2479 94.5391 59.4607 94.172C59.779 93.6235 59.5924 92.9206 59.0437 92.6023L56.9968 91.4148C74.2187 88.2731 88.2258 75.0708 92.2584 57.8864C92.4033 57.2689 92.0201 56.6509 91.4026 56.506L91.403 56.5058ZM67.9508 11.7401C67.3216 11.8214 66.8777 12.3972 66.9589 13.0263C67.0337 13.6053 67.5275 14.0278 68.0962 14.0276C68.1454 14.0276 68.195 14.0245 68.2448 14.018L73.8713 13.291C74.2136 13.2468 74.5179 13.051 74.6999 12.7578C74.882 12.4645 74.9225 12.1051 74.8102 11.7787L72.9654 6.41284C72.7593 5.81317 72.1062 5.49409 71.5061 5.70024C70.9063 5.90638 70.5872 6.55984 70.7933 7.15971L71.5653 9.4051C64.7474 5.37293 57.0123 3.25598 48.9996 3.25598C39.8621 3.25598 31.0853 6.0084 23.6184 11.2156C23.0979 11.5785 22.9703 12.2942 23.3332 12.8146C23.6961 13.3349 24.412 13.4625 24.9322 13.0996C32.0119 8.16249 40.3345 5.55286 48.9996 5.55286C56.6203 5.55286 63.9754 7.572 70.4536 11.4168L67.9504 11.7403L67.9508 11.7401ZM43.7038 65.1958C43.5036 64.4309 43.0226 63.7934 42.349 63.401C41.8948 63.1349 41.3887 62.999 40.8738 62.999C40.6214 62.999 40.3666 63.0318 40.1151 63.0978C39.3522 63.298 38.7161 63.779 38.3236 64.4522L38.3226 64.4539L34.1974 71.5034C33.8022 72.1781 33.6948 72.9705 33.8948 73.7352C34.095 74.5001 34.5768 75.139 35.2519 75.5344C35.9273 75.9281 36.7222 76.0344 37.4886 75.8321C38.2493 75.6311 38.8836 75.1499 39.2745 74.4773L43.4012 67.4249C43.7968 66.7517 43.904 65.9607 43.7038 65.196V65.1958ZM50.786 69.3457C50.5864 68.576 50.1031 67.9335 49.4249 67.5361C48.9617 67.2661 48.4537 67.1376 47.9515 67.1376C46.938 67.1376 45.9488 67.6604 45.4002 68.5963L45.3987 68.5992L42.6583 73.2471C42.2659 73.9147 42.1591 74.7041 42.3586 75.4682C42.559 76.2354 43.04 76.8746 43.7137 77.2684C45.1122 78.0876 46.9211 77.6139 47.7461 76.212L50.4809 71.5643C50.8758 70.8953 50.9841 70.1079 50.786 69.3453V69.3457ZM28.2183 55.1315C26.8177 54.3153 25.0091 54.7875 24.1892 56.1863L20.0705 63.2404C19.6752 63.913 19.5677 64.7018 19.7663 65.4642C19.966 66.2304 20.4481 66.8706 21.1244 67.2666C21.7979 67.6613 22.5892 67.7687 23.3523 67.5689C24.1155 67.3688 24.7534 66.8871 25.1487 66.212L29.2737 59.1629C30.09 57.7624 29.6171 55.953 28.2183 55.1313V55.1315ZM22.3915 21.0723L9.37833 49.1962C9.32665 49.3079 9.23401 49.3558 9.18348 49.3745C9.1341 49.3927 9.03591 49.4157 8.927 49.3652L2.48828 46.3833L15.7945 17.6386L22.2255 20.6192C22.3959 20.6984 22.4699 20.9019 22.3915 21.0723ZM8.27028 43.4555C8.27028 42.8214 7.75616 42.3073 7.12204 42.3073C6.48791 42.3073 5.97379 42.8214 5.97379 43.4555C5.97379 44.0896 6.48791 44.6037 7.12204 44.6037C7.75616 44.6037 8.27028 44.0896 8.27028 43.4555ZM35.2823 59.2701C33.882 58.4497 32.0766 58.9225 31.2559 60.3228L27.1307 67.3725C26.3119 68.7732 26.7844 70.5787 28.1842 71.3972C29.5857 72.2179 31.3941 71.7453 32.2156 70.3431L36.3404 63.2942C37.1573 61.8925 36.6832 60.0868 35.2823 59.2703V59.2701ZM55.9505 71.8028L53.1784 70.1565C53.1686 71.0565 52.9265 71.9396 52.4593 72.7309L50.3054 76.3913L52.4185 77.646C54.0365 78.6055 56.135 78.0698 57.0957 76.4505C58.0311 74.8743 57.5044 72.7604 55.9505 71.8028ZM67.575 25.8339C65.3384 26.0502 62.6988 25.645 59.9036 25.216C54.9654 24.4582 49.3694 23.5994 45.3461 26.2289L32.1985 36.8453C31.5905 37.3374 31.2754 37.9805 31.2635 38.7561C31.2524 39.3219 31.4392 39.6806 31.8883 39.9608C33.7137 41.0993 38.7812 40.273 41.6492 38.7974L47.8495 35.6142C47.8919 35.5923 47.9354 35.5732 47.9802 35.5569C50.016 34.8145 52.0732 35.0049 53.9297 36.1082L76.1288 49.2817C76.9202 49.7493 77.5722 50.3928 78.048 51.159C81.1574 50.4891 83.6143 49.4339 85.5192 47.9486L74.6712 24.5149C72.2547 25.0189 68.8343 25.7066 67.5748 25.8339H67.575ZM74.9587 51.2576L52.7573 38.0827C51.5143 37.3445 50.1942 37.2128 48.8316 37.6913L42.6989 40.8399C39.6215 42.4231 33.5673 43.7147 30.6727 41.9093C29.5296 41.1963 28.9401 40.0921 28.967 38.7159C28.9894 37.2536 29.6077 35.9874 30.7544 35.0593L40.9571 26.8208C37.6783 24.4728 33.0784 24.5111 28.2263 24.5528C26.6103 24.5666 24.9471 24.58 23.3374 24.4959L12.5329 47.8467C15.1563 49.7415 16.1166 52.3813 16.9729 54.7368C17.6565 56.6166 18.2651 58.2845 19.5721 59.5392L22.2071 55.0262C23.6651 52.537 26.8819 51.695 29.3778 53.1495C30.8043 53.9876 31.6883 55.4014 31.9114 56.9246C33.3481 56.3718 35.0134 56.4512 36.4407 57.2875C37.8693 58.1203 38.7556 59.5319 38.9789 61.0553C39.1588 60.9866 39.343 60.9263 39.5321 60.8767C40.8911 60.5201 42.3025 60.7125 43.5074 61.4184C44.7098 62.1193 45.5692 63.2549 45.9253 64.6149C45.9764 64.8101 46.0146 65.0063 46.0433 65.2029C47.4821 64.6444 49.1518 64.7194 50.5835 65.5539C51.1462 65.8837 51.6322 66.3077 52.028 66.8032L60.4101 71.7808C61.192 72.2443 62.1121 72.3743 63.0004 72.1465C63.8855 71.9195 64.6262 71.3658 65.0858 70.5872C65.5478 69.8089 65.6767 68.8913 65.4502 68.0013C65.2244 67.1141 64.6756 66.373 63.9046 65.9126L55.3428 60.8348C54.7973 60.5113 54.6176 59.807 54.9411 59.2614C55.2643 58.7159 55.9693 58.5362 56.5142 58.8595L66.1431 64.5703C66.9219 65.0335 67.8384 65.1635 68.7242 64.9378C69.6125 64.7114 70.3571 64.1565 70.8205 63.375C71.2808 62.5996 71.4089 61.6825 71.1813 60.7923C70.9535 59.9025 70.4015 59.1589 69.6261 58.6981L60.6339 53.3659C60.0885 53.0425 59.9086 52.3381 60.2319 51.7926C60.5556 51.2471 61.2601 51.0673 61.8053 51.3906L71.4745 57.1244C73.0923 58.0862 75.1903 57.552 76.1527 55.9337C76.6128 55.1587 76.7407 54.2401 76.5122 53.348C76.2842 52.4577 75.7324 51.7156 74.9583 51.2584L74.9587 51.2576ZM82.2107 17.6384L95.5117 46.3834L89.0803 49.3644C88.9748 49.4128 88.8806 49.3968 88.8202 49.3744C88.7704 49.356 88.6795 49.3085 88.627 49.195L76.3858 22.752C76.3818 22.7425 76.3772 22.7333 76.3728 22.7239L75.6087 21.0734C75.5297 20.9023 75.6041 20.6986 75.7726 20.6202L82.2105 17.6386L82.2107 17.6384ZM89.7343 43.4555C89.7343 44.0896 90.2484 44.6037 90.8826 44.6037C91.5167 44.6037 92.0308 44.0896 92.0308 43.4555C92.0308 42.8214 91.5167 42.3073 90.8826 42.3073C90.2484 42.3073 89.7343 42.8214 89.7343 43.4555Z" fill="#0048B4"/>
</svg>
