<svg width="100" height="100" viewBox="0 0 100 100" fill="none" xmlns="http://www.w3.org/2000/svg">
<path fill-rule="evenodd" clip-rule="evenodd" d="M33.1021 17.1652C35.1163 13.505 37.5421 10.2 40.3001 7.34499C40.3549 7.28839 40.3673 7.20719 40.3319 7.13679C40.2967 7.06659 40.2243 7.02779 40.1463 7.03759C33.6035 7.86399 27.5321 10.6074 22.5173 14.8572C22.4647 14.9018 22.4425 14.9672 22.4571 15.0348C22.4717 15.1024 22.5189 15.1526 22.5855 15.1714C25.8117 16.0856 29.3235 16.7896 32.9191 17.258C32.9947 17.268 33.0651 17.2322 33.1021 17.1652ZM50.0389 35.5136L51.0355 33.7874C51.3997 33.1566 52.2137 32.9386 52.8445 33.3028L69.9803 43.1962C70.6111 43.5604 70.8293 44.3744 70.4651 45.0052L69.4685 46.7314C69.1043 47.3622 68.2903 47.5804 67.6595 47.2162L66.9541 46.809C66.8673 46.7588 66.7555 46.7888 66.7053 46.8756L63.5995 52.255C63.5493 52.3418 63.5793 52.4536 63.6661 52.5038L89.5915 67.4718C90.3285 67.8972 90.5833 68.8484 90.1577 69.5854L88.9973 71.5954C88.5719 72.3324 87.6207 72.5872 86.8837 72.1618L60.9583 57.1938C60.8715 57.1436 60.7597 57.1736 60.7095 57.2604L57.6037 62.6398C57.5535 62.7266 57.5835 62.8384 57.6703 62.8886L58.3757 63.2958C59.0065 63.66 59.2245 64.474 58.8605 65.1048L57.8639 66.831C57.4997 67.4618 56.6857 67.68 56.0549 67.3158L38.9191 57.4224C38.2883 57.0582 38.0701 56.2442 38.4343 55.6134L39.4309 53.8872C39.7951 53.2564 40.6091 53.0384 41.2399 53.4026L41.2753 53.423C41.3623 53.4732 41.4741 53.4432 41.5241 53.3564L50.6255 37.5922C50.6757 37.5054 50.6457 37.3936 50.5589 37.3434L50.5235 37.323C49.8929 36.9584 49.6747 36.1444 50.0389 35.5136ZM16.5239 85.3968H72.9535C75.5737 85.3968 77.7107 87.5338 77.7107 90.154V92.782C77.7107 92.8824 77.6289 92.9642 77.5285 92.9642H11.9489C11.8485 92.9642 11.7667 92.8824 11.7667 92.782V90.154C11.7667 87.5338 13.9037 85.3968 16.5239 85.3968ZM66.3563 82.475C66.2607 79.8458 64.1719 77.8292 61.6025 77.8292H27.8749C25.3055 77.8292 23.2169 79.8458 23.1211 82.475C23.1193 82.5262 23.1363 82.5712 23.1721 82.608C23.2077 82.645 23.2519 82.6638 23.3033 82.6638H66.1743C66.2257 82.6638 66.2697 82.645 66.3055 82.608C66.3409 82.5712 66.3581 82.5264 66.3563 82.475ZM61.1191 62.2468C61.9125 63.484 62.0071 65.1134 61.2243 66.4692L60.2277 68.1954C59.2341 69.9164 57.1519 70.6334 55.3429 69.9818C55.2591 69.9516 55.1677 69.9852 55.1233 70.0622C54.1755 71.7072 53.1333 73.2922 51.9987 74.805C51.9563 74.8616 51.9499 74.9326 51.9815 74.9958C52.0131 75.059 52.0737 75.0966 52.1445 75.0966H61.0611C61.0947 75.0966 61.1235 75.0888 61.1525 75.072C64.0043 73.4186 66.6103 71.3576 68.8983 68.9638C69.6667 68.1598 70.3993 67.318 71.0935 66.4418C71.1275 66.3988 71.1399 66.3484 71.1297 66.2946C71.1195 66.2408 71.0893 66.1984 71.0419 66.171L61.9731 60.9352C61.8863 60.885 61.7745 60.915 61.7243 61.0018L61.1147 62.0576C61.0797 62.118 61.0813 62.188 61.1191 62.2468ZM76.6627 56.6072C78.0605 52.9118 78.8979 48.919 79.0651 44.7442C79.0671 44.6928 79.0501 44.6478 79.0145 44.6108C78.9789 44.5736 78.9347 44.5548 78.8831 44.5548H73.5381C73.4435 44.5548 73.3653 44.6262 73.3567 44.7204C73.3053 45.286 73.1337 45.8492 72.8321 46.3714L71.8355 48.0976C71.0517 49.4552 69.5911 50.1886 68.1209 50.1194C68.0511 50.1162 67.9895 50.1498 67.9545 50.2102L67.3469 51.2626C67.2967 51.3494 67.3267 51.4612 67.4135 51.5114L76.4011 56.7004C76.4491 56.728 76.5013 56.7328 76.5535 56.7142C76.6055 56.6956 76.6431 56.6588 76.6627 56.6072ZM29.3483 44.742C29.6625 55.8656 33.4233 66.8032 40.3587 75.0318C40.3945 75.0744 40.4425 75.0964 40.4981 75.0964H48.2033C48.2589 75.0964 48.3067 75.0742 48.3425 75.0316C49.9857 73.0818 51.4505 70.98 52.7335 68.7596C52.7837 68.6726 52.7537 68.5608 52.6669 68.5108L37.5545 59.7858C35.6219 58.67 34.9551 56.1814 36.0709 54.2486L37.0675 52.5224C37.6913 51.442 38.7443 50.7572 39.8893 50.5584C39.9443 50.5488 39.9879 50.5184 40.0159 50.47L43.2733 44.828C43.3067 44.77 43.3067 44.7038 43.2733 44.6458C43.2399 44.5878 43.1825 44.5548 43.1155 44.5548H29.5303C29.4793 44.5548 29.4353 44.5734 29.3997 44.61C29.3643 44.6466 29.3467 44.691 29.3483 44.742ZM31.0323 64.9908C32.5777 68.5512 34.4889 71.8466 36.7057 74.8052C36.7481 74.8618 36.7545 74.9326 36.7229 74.9958C36.6913 75.059 36.6307 75.0964 36.5601 75.0964L27.6489 75.1018C27.6153 75.1018 27.5865 75.0942 27.5575 75.0774C24.7019 73.4232 22.0929 71.36 19.8023 68.9636C13.8277 62.713 10.0141 54.1956 9.63532 44.7442C9.63332 44.6928 9.65032 44.6478 9.68612 44.6108C9.72172 44.5736 9.76592 44.5548 9.81752 44.5548H26.4323C26.5309 44.5548 26.6117 44.6334 26.6145 44.732C26.8097 52.0136 28.3833 58.8882 31.0323 64.9908ZM26.6141 41.6444C26.6115 41.743 26.5305 41.8216 26.4319 41.8216H9.81712C9.76572 41.8216 9.72132 41.8028 9.68572 41.7656C9.65012 41.7284 9.63292 41.6836 9.63492 41.632C10.0155 32.142 13.8633 23.5744 19.8975 17.3132C19.9467 17.2622 20.0161 17.2446 20.0837 17.266C23.5823 18.3724 27.4169 19.2316 31.4847 19.8166C31.5437 19.825 31.5907 19.8578 31.6191 19.9102C31.6475 19.9626 31.6489 20.02 31.6237 20.074C28.5857 26.5646 26.8217 33.9156 26.6141 41.6444ZM58.4135 33.0142C57.5499 28.5228 56.1179 24.249 54.1749 20.3176C54.1405 20.248 54.0699 20.209 53.9925 20.2172C47.6709 20.8818 41.0297 20.8818 34.7079 20.2172C34.6307 20.209 34.5599 20.248 34.5255 20.3176C31.3715 26.6988 29.5637 33.9816 29.3481 41.6346C29.3467 41.6856 29.3641 41.73 29.3995 41.7668C29.4349 41.8036 29.4791 41.822 29.5301 41.822H44.9037C44.9705 41.822 45.0281 41.7888 45.0615 41.731L47.3697 37.733C47.3977 37.6846 47.4023 37.6316 47.3829 37.579C46.9813 36.4862 47.0471 35.2298 47.6721 34.1472L48.6687 32.421C49.7855 30.4866 52.2765 29.8192 54.2109 30.936L58.1433 33.2064C58.2065 33.2428 58.2805 33.2394 58.3401 33.197C58.3997 33.1546 58.4273 33.0858 58.4135 33.0142ZM68.6167 17.266C65.1241 18.3706 61.2781 19.2334 57.2159 19.8168C57.1569 19.8252 57.1097 19.8582 57.0815 19.9106C57.0531 19.963 57.0515 20.0204 57.0769 20.0744C59.2407 24.6976 60.7581 29.7574 61.5271 35.0796C61.5353 35.1368 61.5663 35.1824 61.6163 35.2114L71.3471 40.8294C71.7767 41.0774 72.1437 41.3932 72.4425 41.7556C72.4783 41.799 72.5267 41.8218 72.5831 41.8218H78.8835C78.9349 41.8218 78.9793 41.803 79.0149 41.7658C79.0505 41.7286 79.0677 41.6836 79.0657 41.6322C78.6851 32.1358 74.8387 23.5808 68.8033 17.3132C68.7537 17.2622 68.6843 17.2446 68.6167 17.266ZM48.3999 7.34479C48.3451 7.28819 48.3327 7.20699 48.3681 7.13659C48.4035 7.06619 48.4757 7.02759 48.5537 7.03739C55.0969 7.86459 61.1677 10.6072 66.1829 14.8572C66.2355 14.9018 66.2577 14.9672 66.2431 15.0348C66.2285 15.1024 66.1811 15.1526 66.1147 15.1714C62.8883 16.0858 59.3773 16.7896 55.7811 17.258C55.7053 17.2678 55.6349 17.2322 55.5981 17.1652C53.5841 13.505 51.1581 10.1998 48.3999 7.34479ZM44.2283 7.34119C44.2979 7.27859 44.4025 7.27859 44.4721 7.34119C47.5873 10.1446 50.3243 13.5252 52.5737 17.3518C52.6063 17.4072 52.6079 17.4702 52.5787 17.5274C52.5493 17.5846 52.4971 17.6198 52.4331 17.6256C47.1267 18.1014 41.5739 18.1014 36.2675 17.6256C36.2035 17.6198 36.1511 17.5846 36.1217 17.5274C36.0923 17.4702 36.0941 17.4072 36.1267 17.3518C38.3761 13.5252 41.1131 10.1446 44.2283 7.34119Z" fill="#0048B4"/>
</svg>
