<svg width="110" height="110" viewBox="0 0 110 110" fill="none" xmlns="http://www.w3.org/2000/svg">
<g opacity="0.5">
<path d="M85.553 55.7106C84.9359 55.7106 84.4355 56.2109 84.4355 56.828V81.4933C84.4355 82.1104 84.9359 82.6107 85.553 82.6107C86.17 82.6107 86.6704 82.1104 86.6704 81.4933V56.828C86.6704 56.2107 86.17 55.7106 85.553 55.7106Z" fill="#0048B4"/>
<path d="M32.4444 58.5996C25.8453 58.5996 20.4766 66.213 20.4766 75.5708C20.4766 84.9373 25.8453 92.5578 32.4444 92.5578C39.0354 92.5578 44.397 84.9373 44.397 75.5708C44.397 66.213 39.0354 58.5996 32.4444 58.5996ZM32.4444 90.3228C27.0779 90.3228 22.7114 83.7052 22.7114 75.5705C22.7114 67.4447 27.0779 60.8342 32.4444 60.8342C37.8029 60.8342 42.1622 67.4447 42.1622 75.5705C42.1622 83.7052 37.8029 90.3228 32.4444 90.3228Z" fill="#0048B4"/>
<path d="M81.9631 3.55576C79.9571 3.55576 77.9629 3.81443 76.0222 4.30277C69.0263 -0.117423 60.2997 0.873865 52.7675 4.45832C42.8057 9.19756 34.471 18.0519 30.8421 29.9057C15.617 31.0442 3.80078 48.1068 3.80078 69.2258C3.80078 90.9568 16.6482 108.637 32.4399 108.637C48.2255 108.637 61.068 90.9568 61.068 69.2258C61.068 50.1573 51.4379 34.1673 37.9932 30.5694C41.2117 21.4295 47.8964 14.5444 55.7822 10.7921C58.3008 9.59416 62.8108 7.91945 67.337 8.4976C52.2281 19.9995 55.6003 43.5317 73.2275 50.3795V85.6901C73.2275 87.3165 73.8261 88.8771 74.907 90.0785L80.0254 95.8576C81.913 97.9581 85.3086 97.6062 86.7294 95.1342L89.8665 89.5773C90.4193 88.58 90.7117 87.4565 90.7117 86.3282V50.3812C99.8089 46.8831 106.2 38.0848 106.2 27.7921C106.2 14.4281 95.3272 3.55576 81.9631 3.55576ZM36.0016 43.5315C35.95 42.2444 35.9966 40.9525 36.0924 39.663C37.2505 40.6947 37.9489 42.1845 37.9489 43.7825C37.9489 46.8139 35.4778 49.2801 32.4399 49.2801C29.402 49.2801 26.9309 46.8139 26.9309 43.7825C26.9309 42.0278 27.7541 40.4346 29.083 39.4194C28.9833 40.8836 28.9338 42.3497 28.9921 43.8108C29.1777 48.4686 36.1853 48.104 36.0016 43.5315ZM58.833 69.2258C58.833 89.7249 46.9934 106.402 32.4397 106.402C17.8801 106.402 6.03537 89.7249 6.03537 69.2258C6.03537 50.0056 16.7408 33.835 30.1952 32.2084C29.8302 33.6932 29.556 35.1975 29.3532 36.7113C26.5478 37.9198 24.6956 40.6661 24.6956 43.7825C24.6956 48.0458 28.1694 51.5149 32.4395 51.5149C36.7095 51.5149 40.1833 48.0458 40.1833 43.7825C40.1833 41.0299 38.7084 38.5102 36.3745 37.1247C36.596 35.6341 36.9104 34.1587 37.3203 32.7068C49.6545 35.974 58.833 51.4182 58.833 69.2258ZM54.8217 8.77453C46.1278 12.9107 38.7724 20.6348 35.5018 30.9855C35.4819 31.0388 35.4475 31.0833 35.4355 31.1406C35.4305 31.1645 35.4385 31.187 35.435 31.2107C34.7909 33.2946 34.3247 35.4313 34.0508 37.5917C34.045 37.6381 34.0306 37.6828 34.0308 37.729C33.79 39.6873 33.6901 41.6594 33.7685 43.6207C33.8353 45.2846 31.2915 45.411 31.2243 43.721C30.5965 27.9678 39.4659 13.2609 53.7275 6.47549C69.294 -0.932755 81.449 7.24355 82.7909 18.6354C82.8747 19.3352 82.3724 19.9651 81.6799 20.0474C80.9804 20.1297 80.3464 19.6289 80.2645 18.9328C79.3085 10.8224 70.1312 1.48767 54.8217 8.77453ZM78.0456 19.1951C78.2714 21.1106 80.0125 22.4944 81.9397 22.2674C83.8623 22.0409 85.2405 20.2987 85.0109 18.3729C84.8096 16.6651 84.3571 15.0026 83.7016 13.4257C86.5257 14.1918 88.6119 16.7667 88.6119 19.8252C88.6119 23.4911 85.629 26.4736 81.9631 26.4736C78.3097 26.4736 75.3373 23.4913 75.3373 19.8252C75.3373 18.2036 75.9159 16.6885 76.9456 15.503C77.5094 16.6724 77.895 17.9194 78.0456 19.1951ZM80.2985 72.0608L75.4677 74.9395V67.7253L80.298 70.604C80.8506 70.9331 80.85 71.7319 80.298 72.0608H80.2985ZM75.4675 78.8705L78.1165 80.4458C78.67 80.7749 78.6693 81.5748 78.1165 81.9037L75.4675 83.4789V78.8705ZM88.4765 51.1213V86.3278C88.4765 87.078 88.2812 87.8265 87.9162 88.4856L84.7872 94.0273C84.1231 95.183 82.5455 95.319 81.6926 94.3694L76.5737 88.5896C75.9412 87.8864 75.5773 86.9978 75.4965 86.0616L79.2593 83.8238C81.2679 82.6294 81.27 79.7202 79.2593 78.5248L76.5346 76.9047L81.4423 73.9798H81.4429C83.4511 72.7827 83.4468 69.8785 81.4423 68.6841L76.5116 65.7459L79.2593 64.1118C81.2679 62.9175 81.27 60.0083 79.2593 58.8129L75.4623 56.5554V51.1314C77.8194 51.7899 80.6375 52.1313 83.1548 51.9826C84.8418 51.9048 86.7876 51.5783 88.3979 51.1402C88.4237 51.1333 88.4505 51.1288 88.4765 51.1213ZM75.4675 63.767V59.1588L78.1165 60.7341C78.67 61.0632 78.6693 61.8633 78.1165 62.192L75.4675 63.767ZM83.4943 49.7076C70.6984 50.5939 59.9837 40.4214 59.9837 27.7921C59.9837 20.2775 63.9001 13.21 70.227 9.20637C72.4171 10.0408 74.346 11.5832 75.7494 13.5067C74.0568 15.1575 73.1025 17.4072 73.1025 19.825C73.1025 24.723 77.0773 28.7082 81.9631 28.7082C86.8615 28.7082 90.8467 24.723 90.8467 19.825C90.8467 15.1064 87.1367 11.2476 82.4787 10.9786C81.3952 9.14449 80.014 7.48933 78.4091 6.08941C79.5828 5.89842 80.7703 5.79035 81.9631 5.79035C94.0953 5.79035 103.965 15.6605 103.965 27.7921C103.965 39.2965 95.1528 48.9187 83.4943 49.7076Z" fill="#0048B4"/>
</g>
</svg>
