<svg width="120" height="134" viewBox="0 0 120 134" fill="none" xmlns="http://www.w3.org/2000/svg">
<g opacity="0.5">
<path d="M97.986 20.9928C97.9859 20.9729 97.9854 20.9529 97.9848 20.9318C97.9847 20.9179 97.9844 20.904 97.9838 20.8901C97.9785 20.685 97.9664 20.4769 97.9453 20.2709C97.9425 20.2367 97.9388 20.2024 97.9349 20.1677C97.9339 20.1573 97.9327 20.1468 97.9315 20.1371C97.9285 20.102 97.924 20.0667 97.9189 20.0319C97.9175 20.0205 97.9159 20.009 97.9144 19.9974C97.9112 19.9663 97.9062 19.9384 97.9023 19.908C97.8929 19.8393 97.8813 19.7641 97.8697 19.6957C97.8339 19.4809 97.7908 19.27 97.7388 19.0588C97.6876 18.8477 97.6233 18.6272 97.5568 18.4257C97.5052 18.2673 97.4483 18.1149 97.388 17.9627C97.2815 17.696 97.1693 17.4518 97.039 17.2035C96.999 17.1271 96.9551 17.0454 96.9118 16.9698C96.887 16.9245 96.8554 16.8722 96.8297 16.8285C96.8262 16.8223 96.8227 16.8162 96.819 16.8102C96.5941 16.435 96.346 16.0876 96.0686 15.7625C95.9459 15.618 95.8021 15.4622 95.6715 15.3326C95.6612 15.322 95.6507 15.3113 95.6401 15.3009C95.5988 15.2585 95.5541 15.2154 95.5072 15.1727C95.4948 15.1613 95.4821 15.1491 95.4698 15.138C95.4164 15.089 95.3635 15.0392 95.3093 14.9929C95.1792 14.8803 95.0455 14.7709 94.9087 14.6684C94.4538 14.3268 93.9636 14.0454 93.4507 13.8324C93.3098 13.7735 93.1575 13.7159 93.0085 13.6674C92.9181 13.6362 92.8107 13.6048 92.7288 13.582C92.7082 13.5759 92.6876 13.5703 92.6671 13.5647C92.659 13.5625 92.6509 13.5605 92.6429 13.5587C92.5037 13.5219 92.3629 13.4883 92.2192 13.4611C92.0707 13.4324 91.902 13.4059 91.7481 13.3887C91.6078 13.372 91.4483 13.3596 91.3017 13.3532C91.1479 13.1998 29.1681 13.4503 28.9625 13.3465C25.1235 13.3468 22 16.8347 22 21.1218V112.923C22 117.21 25.1235 120.698 28.9627 120.698H56.2435C59.0649 120.702 61.8726 119.781 64.2405 118.079C64.4832 117.899 93.843 96.8076 94.0692 96.6404C94.3133 96.4649 94.5483 96.276 94.7735 96.0747C96.291 94.7163 97.3701 92.7962 97.7892 90.6626C97.9208 89.9931 97.9869 89.3051 97.987 88.6194C97.9199 88.4607 98.0367 21.1373 97.986 20.9928ZM28.9627 119.198C25.864 119.198 23.3431 116.383 23.3431 112.923V21.1218C23.3431 17.6617 25.864 14.8466 28.9627 14.8466C29.1446 14.8499 91.0382 14.8402 91.205 14.8499C91.3469 14.8558 91.5029 14.867 91.639 14.8836C91.6404 14.8838 91.6436 14.8842 91.6439 14.8842C91.7681 14.9001 91.9016 14.921 92.0194 14.9445L92.0697 14.9551C92.1753 14.9763 92.2686 15.0016 92.3705 15.0277C93.0156 15.2042 93.6268 15.5104 94.1767 15.926C94.2323 15.9684 94.288 16.0124 94.3424 16.0568C94.397 16.1018 94.4513 16.1477 94.5045 16.1939C94.5892 16.2711 94.676 16.3483 94.7568 16.4308C95.1143 16.7855 95.4275 17.1865 95.696 17.6328C95.8695 17.9228 96.0186 18.2216 96.1484 18.5407C96.2038 18.6795 96.2586 18.8258 96.3052 18.9705C96.3978 19.2533 96.4708 19.5447 96.5265 19.8393C96.5433 19.9299 96.5584 20.0236 96.5722 20.1161C96.5752 20.1401 96.5787 20.1644 96.582 20.1872C96.5836 20.2015 96.5857 20.2169 96.5877 20.2315C96.5895 20.2483 96.5917 20.2651 96.5945 20.2818L96.5952 20.2871C96.5965 20.3021 96.5981 20.3176 96.6 20.3336C96.6228 20.5388 96.6371 20.7442 96.6418 20.9513C96.648 21.0349 96.6418 88.5016 96.6439 88.6192C96.6439 88.9242 96.628 89.2297 96.597 89.5331H66.4184C66.05 89.5331 65.6779 89.5619 65.3113 89.619C64.9487 89.6762 64.5923 89.76 64.2527 89.8679C62.841 90.3134 61.5479 91.2126 60.5602 92.4279C59.2344 94.0574 58.5043 96.1679 58.5043 98.3705V118.984C57.7588 119.125 57.0007 119.198 56.2435 119.198H28.9627ZM96.2952 91.0886C95.8994 92.4561 95.1683 93.6992 94.2037 94.6505C93.9332 94.9171 93.6448 95.161 93.3417 95.3797C93.1872 95.4952 63.6972 116.683 63.5399 116.799C62.401 117.617 61.1532 118.247 59.8474 118.649V98.3705C59.8293 95.7756 61.1331 93.2762 63.1526 92.0017C63.8785 91.5371 64.6664 91.2345 65.498 91.1042C65.8021 91.0569 66.1118 91.0329 66.4184 91.0329H96.311C96.3057 91.0515 96.3006 91.0701 96.2952 91.0886Z" fill="#0048B4"/>
<path d="M70.7071 58.0143C69.1448 58.5028 68.0159 60.0401 67.8979 61.8396C66.9454 72.9532 70.737 83.2351 78.706 86.2062C79.5083 86.5119 80.3921 86.5118 81.1945 86.2063C82.7739 85.605 85.7915 84.0418 88.2562 80.3275C91.2502 75.8154 92.5107 69.5951 92.0024 61.8396C91.8845 60.0401 90.7555 58.5028 89.1932 58.0143L80.9914 55.4499C80.3102 55.2369 79.5902 55.2369 78.909 55.4499L70.7071 58.0143ZM79.9502 56.79C80.1786 56.79 80.4071 56.8247 80.6292 56.8942L88.8311 59.4586C89.85 59.7772 90.5861 60.778 90.6629 61.949C91.5405 72.3431 88.1824 82.0015 80.7609 84.7867C80.2382 84.9858 79.6622 84.9858 79.1393 84.7868C71.7336 82.0231 68.3505 72.3189 69.2377 61.9489C69.3142 60.778 70.0504 59.7772 71.0693 59.4586L79.2712 56.8942C79.4933 56.8247 79.7217 56.79 79.9502 56.79Z" fill="#0048B4"/>
<path d="M77.3546 77.0879C78.1302 78.1453 79.6507 78.1503 80.431 77.0952C80.431 77.0953 88.4759 66.5201 88.4759 66.5201C89.1951 65.5746 89.0915 64.1521 88.2448 63.3489C87.3982 62.5458 86.1242 62.6617 85.405 63.607L78.9022 72.1551L74.8762 66.8167C74.1957 65.8757 72.8511 65.7468 72.0374 66.5451C71.6258 66.9321 71.3738 67.4751 71.3278 68.0738C71.2819 68.6725 71.4475 69.2554 71.7942 69.715L77.3546 77.0879ZM72.6661 68.2018C72.7149 67.5409 73.4682 67.2738 73.8488 67.7828C73.8488 67.7828 78.3864 73.7994 78.3864 73.7994C78.5136 73.9681 78.701 74.0657 78.8986 74.0662C79.0961 74.0667 79.2839 73.97 79.4118 73.8018L86.4287 64.578C86.6684 64.2629 87.093 64.2242 87.3752 64.492C87.6574 64.7597 87.692 65.2339 87.4523 65.549L79.4074 76.1242C79.2796 76.2923 79.093 76.3886 78.8956 76.3886V77.1385L78.8941 76.3886C78.6962 76.3882 78.5095 76.2909 78.3819 76.1218L72.8215 68.7489C72.7059 68.5957 72.6508 68.4014 72.6661 68.2018Z" fill="#0048B4"/>
<path d="M42.4476 46.9424H44.042C45.2876 51.9961 51.849 51.9931 53.0929 46.9424H67.9479C69.1935 51.9961 75.7548 51.9931 76.9988 46.9424H77.5404C78.6513 46.9424 79.5551 45.9332 79.5551 44.6927C79.5575 43.4215 78.6026 42.3988 77.4666 42.443V40.3676C77.4666 37.0236 75.6536 34.0032 72.9168 32.7151C69.9786 17.7254 51.366 17.736 48.4333 32.7151C45.6966 34.0032 43.8835 37.0236 43.8835 40.3676V42.443H42.4476C39.7747 42.5666 39.7758 46.8194 42.4476 46.9424ZM48.6615 49.2371C47.2508 49.3163 45.9513 48.3674 45.4537 46.9424H51.6813C51.2018 48.2957 50.0145 49.2371 48.6615 49.2371ZM72.5674 49.2371C71.1567 49.3163 69.8572 48.3674 69.3595 46.9424H75.5872C75.1077 48.2957 73.9204 49.2371 72.5674 49.2371ZM60.6751 22.945C65.8082 22.945 70.1788 26.7774 71.4404 32.2136C71.1433 32.1508 70.843 32.1069 70.5413 32.084C70.3714 32.0715 70.2013 32.0645 70.031 32.0645H51.3191C50.8464 32.0647 50.374 32.1149 49.9097 32.2136C51.1714 26.7774 55.5419 22.945 60.6751 22.945ZM45.2266 40.3676C45.1816 36.6908 48.024 33.5075 51.3192 33.5643C51.3191 33.5643 70.031 33.5643 70.031 33.5643C70.1195 33.5643 70.2079 33.5664 70.2959 33.5706C70.9124 33.6 71.5162 33.7322 72.0945 33.9646C74.5044 34.9332 76.1235 37.5063 76.1235 40.3676V42.443H45.2266V40.3676ZM42.4476 43.9428C42.8618 43.9427 76.3827 43.9428 77.5404 43.9428C77.9107 43.9428 78.212 44.2792 78.212 44.6927C78.212 45.1062 77.9107 45.4426 77.5404 45.4426H76.4504C66.6165 45.4425 52.2642 45.4427 42.4476 45.4426C41.569 45.4074 41.5446 43.9907 42.4476 43.9428Z" fill="#0048B4"/>
<path d="M51.3309 36.7837C50.1533 36.7837 49.1953 37.8535 49.1953 39.1684C49.3126 42.3321 53.3496 42.3312 53.4665 39.1684C53.4665 37.8535 52.5085 36.7837 51.3309 36.7837ZM51.3309 40.0533C50.8939 40.0533 50.5384 39.6564 50.5384 39.1684C50.582 37.9945 52.08 37.9948 52.1234 39.1684C52.1234 39.6564 51.7679 40.0533 51.3309 40.0533Z" fill="#0048B4"/>
<path d="M69.9246 36.7837C68.7471 36.7837 67.7891 37.8535 67.7891 39.1684C67.9064 42.3321 71.9434 42.3312 72.0602 39.1684C72.0602 37.8535 71.1022 36.7837 69.9246 36.7837ZM69.9246 40.0533C69.4877 40.0533 69.1322 39.6564 69.1322 39.1684C69.1757 37.9945 70.6737 37.9948 70.7171 39.1684C70.7171 39.6564 70.3616 40.0533 69.9246 40.0533Z" fill="#0048B4"/>
<path d="M63.6404 37.5609H56.3487C55.2378 37.5609 54.334 38.5701 54.334 39.8106C54.334 41.0511 55.2378 42.0603 56.3487 42.0603H63.6404C66.3112 41.9378 66.3142 37.6849 63.6404 37.5609ZM63.6404 40.5605H56.3487C55.4597 40.5204 55.4561 39.1027 56.3487 39.0607C56.3487 39.0607 63.6404 39.0607 63.6404 39.0607C64.5293 39.1008 64.5329 40.5186 63.6404 40.5605Z" fill="#0048B4"/>
<path d="M35.1096 61.3215H58.8193C59.9302 61.3215 60.8339 60.3123 60.8339 59.0717C60.8339 57.8312 59.9302 56.822 58.8193 56.822H35.1096C32.4434 56.9421 32.4315 61.1953 35.1096 61.3215ZM35.1096 58.3218H58.8193C59.1896 58.3218 59.4908 58.6582 59.4908 59.0717C59.4908 59.4852 59.1896 59.8216 58.8193 59.8216H35.1096C34.2259 59.784 34.2117 58.3669 35.1096 58.3218Z" fill="#0048B4"/>
<path d="M35.1096 69.4391H58.8193C59.9302 69.4391 60.8339 68.4299 60.8339 67.1894C60.8339 65.9489 59.9302 64.9397 58.8193 64.9397H35.1096C32.4434 65.0598 32.4315 69.313 35.1096 69.4391ZM35.1096 66.4395H58.8193C59.1896 66.4395 59.4908 66.7759 59.4908 67.1894C59.4908 67.6029 59.1896 67.9393 58.8193 67.9393H35.1096C34.2259 67.9016 34.2117 66.4845 35.1096 66.4395Z" fill="#0048B4"/>
<path d="M35.1096 77.7801H58.8193C59.9302 77.7801 60.8339 76.7709 60.8339 75.5304C60.8339 74.2898 59.9302 73.2806 58.8193 73.2806H35.1096C32.4434 73.4007 32.4315 77.654 35.1096 77.7801ZM35.1096 74.7805H58.8193C59.1896 74.7805 59.4908 75.1169 59.4908 75.5304C59.4908 75.9439 59.1896 76.2803 58.8193 76.2803H35.1096C34.2259 76.2426 34.2117 74.8255 35.1096 74.7805Z" fill="#0048B4"/>
<path d="M60.8347 83.8714C60.8347 82.6309 59.9309 81.6217 58.82 81.6217H35.1104C33.9995 81.6217 33.0957 82.6309 33.0957 83.8714C33.0957 85.1119 33.9995 86.1211 35.1104 86.1211H58.82C59.9309 86.1211 60.8347 85.1119 60.8347 83.8714ZM34.4388 83.8714C34.4388 83.4579 34.7401 83.1215 35.1104 83.1215H58.82C59.1903 83.1215 59.4916 83.4579 59.4916 83.8714C59.4916 84.2849 59.1903 84.6213 58.82 84.6213H35.1104C34.7401 84.6213 34.4388 84.2849 34.4388 83.8714Z" fill="#0048B4"/>
</g>
</svg>
