<svg width="128" height="128" viewBox="0 0 128 128" fill="none" xmlns="http://www.w3.org/2000/svg">
<g opacity="0.5">
<path d="M115.24 100.407L110.196 73.1637C109.895 71.3275 107.985 70.0136 106.162 70.3904C106.162 70.3904 94.432 72.5623 94.432 72.5623C94.2047 72.6044 93.9849 72.6679 93.7749 72.7515C93.1448 73.0023 92.6027 73.4334 92.2098 74.0047C91.6841 74.7672 91.4906 75.696 91.6586 76.596C91.6902 76.7697 91.7927 77.3185 91.823 77.4837L86.2756 78.5932C79.5354 74.2102 69.5364 71.8723 60.8055 73.3906C60.8055 73.3906 60.8054 73.3906 60.8053 73.3906C57.9566 73.8376 48.1696 75.534 40.6972 78.749L36.1531 77.6792L36.3411 76.6638C36.6909 74.8063 35.4481 72.9725 33.5678 72.6301C33.5678 72.6301 21.8375 70.4582 21.8375 70.4582C20.9287 70.2899 20.0082 70.4856 19.2463 71.0094C18.4845 71.5332 17.9722 72.3224 17.8038 73.2315L12.7597 100.474C12.5926 101.373 12.7855 102.305 13.311 103.066C13.7967 103.773 14.5167 104.267 15.3411 104.467C15.4044 104.483 15.4684 104.496 15.533 104.508L27.2633 106.68C27.7162 106.763 28.1853 106.758 28.6351 106.659C29.7334 106.423 30.6892 105.62 31.1032 104.575C31.9324 104.708 33.5842 105.007 35.794 105.579C35.5691 106.821 35.9599 108.123 36.8191 109.045C36.8191 109.045 37.0916 109.339 37.0916 109.339C37.629 109.921 38.338 110.34 39.1076 110.528C40.1523 110.788 41.2952 110.615 42.2128 110.051C42.6919 109.782 43.5181 108.934 43.9348 108.567C43.9603 109.738 44.4674 110.715 45.2889 111.525C46.6371 113.027 49.0418 113.267 50.6639 112.069C50.684 113.248 51.192 114.232 52.0187 115.048C53.2083 116.368 55.2357 116.733 56.8134 115.94C57.0873 115.804 57.347 115.639 57.5834 115.444C57.7359 115.328 58.2702 114.818 58.4205 114.683C58.7855 114.783 59.154 114.876 59.5225 114.961C59.7019 115.464 59.9827 115.94 60.3676 116.356L60.6401 116.651C61.8469 117.976 63.8596 118.334 65.4449 117.537C65.7865 117.368 66.1097 117.148 66.4033 116.877L67.8025 115.583C67.8033 115.582 67.8041 115.582 67.8049 115.581C73.0149 115.179 77.1857 113.404 79.7838 111.973C84.6303 109.302 88.9068 106.419 89.6881 105.886L96.9064 104.531C97.3101 105.527 98.206 106.3 99.2468 106.563C99.678 106.675 100.13 106.698 100.572 106.639C100.627 106.631 100.681 106.622 100.736 106.612L112.467 104.44C114.343 104.093 115.587 102.283 115.24 100.407ZM29.8883 103.646C29.7116 104.721 28.5924 105.493 27.5241 105.271C27.5241 105.271 15.7938 103.099 15.7938 103.099C14.7964 102.916 14.1033 102.022 14.1352 101.043C14.1384 100.94 14.1495 100.837 14.1684 100.735C14.1684 100.735 19.2126 73.4923 19.2126 73.4923C19.3347 72.804 19.8252 72.2185 20.477 71.9687C20.7636 71.8567 21.0759 71.8138 21.3824 71.8405C21.4475 71.8469 21.5123 71.8547 21.5767 71.8669C21.5767 71.8669 33.307 74.0388 33.307 74.0388C34.2348 74.2011 34.9553 75.0419 34.9661 75.9939C34.9687 76.1286 34.9578 76.2654 34.9324 76.4029L29.8883 103.646ZM43.5316 106.989C43.5316 106.989 43.5317 106.989 43.5316 106.989L41.8823 108.513C41.5808 108.791 41.2417 108.983 40.8634 109.1C39.9185 109.397 38.8177 109.111 38.1436 108.367C38.1436 108.367 37.8711 108.072 37.8711 108.072C37.1902 107.353 36.9801 106.241 37.3473 105.317C37.4909 104.946 37.7176 104.611 38.0177 104.333L42.7744 99.9357C43.2672 99.4801 43.9005 99.2326 44.5679 99.2326C45.3091 99.2318 46.0106 99.5372 46.5131 100.082C46.5131 100.082 46.7855 100.377 46.7855 100.377C47.7724 101.401 47.7032 103.172 46.6389 104.116C46.639 104.116 43.5316 106.989 43.5316 106.989ZM50.586 110.231C50.5864 110.232 50.0795 110.699 50.0795 110.699C49.0438 111.687 47.2985 111.62 46.3409 110.553C46.3409 110.553 46.0684 110.258 46.0684 110.258C45.4945 109.639 45.2484 108.761 45.4203 107.926C45.5304 107.388 45.804 106.899 46.2149 106.519L50.9716 102.122C51.4797 101.652 52.1239 101.42 52.7667 101.42C53.4791 101.42 54.1897 101.705 54.7103 102.268L54.9828 102.563C55.9697 103.587 55.9005 105.358 54.8362 106.302C54.8362 106.302 50.586 110.231 50.586 110.231ZM60.5937 110.593C60.373 110.797 60.1809 111.02 60.0158 111.257L57.7426 113.359C57.7425 113.359 57.7426 113.359 57.7426 113.359L56.8093 114.222C55.7851 115.209 54.0144 115.139 53.0706 114.075C53.0706 114.075 52.7982 113.78 52.7982 113.78C52.1622 113.093 51.935 112.096 52.2152 111.195C52.3512 110.757 52.5993 110.361 52.9447 110.042L57.7014 105.644C58.2095 105.174 58.8537 104.942 59.4965 104.942C60.2089 104.942 60.9195 105.227 61.4401 105.791L61.7126 106.085C62.517 106.926 62.6427 108.303 62.018 109.277C62.0097 109.285 62.0011 109.291 61.9929 109.299L60.5937 110.593ZM66.9672 114.393C66.92 114.443 66.8789 114.486 66.83 114.531L65.4308 115.825C65.163 116.072 64.8573 116.254 64.534 116.37C63.6877 116.679 62.6964 116.523 61.9877 115.953C61.8838 115.87 61.785 115.779 61.6921 115.678C61.5992 115.573 61.3713 115.341 61.2902 115.231C60.6022 114.38 60.5275 113.126 61.1148 112.192C61.5514 111.763 62.7805 110.736 63.1015 110.234C64.1764 109.367 65.7561 109.472 66.7042 110.498L66.9767 110.792C67.9226 111.816 67.9043 113.391 66.9672 114.393ZM79.0925 110.718C76.8134 111.974 73.2638 113.507 68.8442 114.039C69.3752 112.637 69.1132 110.993 68.0286 109.82C66.9746 108.525 65.3752 107.958 63.8229 108.327C63.9764 106.974 63.4558 105.755 62.4921 104.818C61.0803 103.291 58.7635 103.091 57.1171 104.276C57.1001 103.108 56.5911 102.109 55.7623 101.296C54.2356 99.6445 51.6502 99.543 49.9991 101.07L48.9191 102.068C48.8961 100.909 48.3883 99.9181 47.565 99.1097C46.8256 98.3098 45.8188 97.8458 44.7302 97.8032C43.6425 97.7606 42.6017 98.1442 41.8019 98.8837L37.0452 103.281C36.7421 103.562 36.4876 103.88 36.2856 104.227C34.0489 103.642 32.3506 103.327 31.432 103.177L35.8919 79.0896L40.6001 80.1979C40.7508 80.2334 40.9091 80.2191 41.0511 80.1571C45.1249 78.3769 49.9551 77.0619 53.933 76.1677C52.7221 77.0603 51.3804 78.2722 50.0022 79.9171C48.3038 81.9443 46.9489 83.1144 45.9597 83.9688C44.3129 85.3911 43.4058 86.1746 44.2567 88.4438C44.5155 89.2757 45.6726 90.0952 47.6753 90.0557C51.468 90.1136 57.7581 87.4885 59.8908 84.2912C63.6404 88.818 67.8938 92.7103 75.2291 95.7966C80.3668 97.8405 83.7869 100.398 85.7581 102.192L88.3284 105.076C86.8632 106.056 83.1836 108.464 79.0925 110.718ZM91.3111 104.124L89.7346 104.42C86.8354 100.595 82.3133 97.1263 75.7589 94.4652C69.0973 91.9311 62.9556 86.2683 60.42 82.6041C60.1292 82.1595 59.4177 82.1932 59.1829 82.6935C57.4283 86.3061 50.7998 88.7765 47.3538 88.6158C46.3962 88.5711 45.7399 88.3187 45.5981 87.9407C45.0977 86.6063 45.3025 86.4295 46.8962 85.053C47.9223 84.1668 49.3277 82.953 51.1004 80.8372C53.951 77.4878 56.7477 75.7048 59.265 75.1344C66.4315 73.4967 74.0532 74.7841 78.5205 76.444C79.1616 76.6704 79.7866 76.9081 80.3976 77.1619C83.3128 78.3497 85.6598 79.8785 85.695 79.9307C85.8574 80.0488 86.0626 80.0975 86.2616 80.057C86.2616 80.057 92.0838 78.8926 92.0838 78.8926L96.5727 103.136L91.3111 104.124ZM112.206 103.032L100.476 105.204C99.4078 105.423 98.2876 104.655 98.1115 103.578C98.1115 103.578 93.0673 76.3351 93.0673 76.3351C92.8473 75.2672 93.616 74.1472 94.6928 73.971C94.6927 73.971 106.423 71.7991 106.423 71.7991C106.64 71.7593 106.863 71.7539 107.081 71.7853C107.926 71.8992 108.642 72.5808 108.787 73.4246C108.787 73.4245 113.831 100.667 113.831 100.667C113.85 100.769 113.861 100.873 113.864 100.975C113.896 101.953 113.203 102.848 112.206 103.032Z" fill="#0048B4"/>
<path d="M45.2955 49.7092C43.4363 49.7092 41.9238 51.2217 41.9238 53.0809C42.109 57.5538 48.4826 57.5525 48.6672 53.0809C48.6672 51.2217 47.1546 49.7092 45.2955 49.7092ZM45.2955 55.0199C44.2263 55.0199 43.3565 54.15 43.3565 53.0809C43.463 50.5085 47.1284 50.5093 47.2345 53.0809C47.2345 54.15 46.3647 55.0199 45.2955 55.0199Z" fill="#0048B4"/>
<path d="M79.0201 49.7092C77.161 49.7092 75.6484 51.2217 75.6484 53.0809C75.8336 57.5538 82.2072 57.5525 82.3918 53.0809C82.3918 51.2217 80.8793 49.7092 79.0201 49.7092ZM79.0201 55.0199C77.9509 55.0199 77.0811 54.15 77.0811 53.0809C77.1876 50.5085 80.853 50.5093 80.9591 53.0809C80.9591 54.15 80.0893 55.0199 79.0201 55.0199Z" fill="#0048B4"/>
<path d="M30.2609 63.7781H33.3669V66.8746C33.3669 69.086 35.1659 70.885 37.3773 70.885H45.3439C47.5553 70.885 49.3543 69.086 49.3543 66.8746V63.7781H76.7253V66.8746C76.7253 69.086 78.5244 70.885 80.7357 70.885H88.7024C90.9137 70.885 92.7128 69.086 92.7128 66.8746V63.7781H93.9093C96.7605 63.66 96.7592 59.5976 93.9093 59.4801C93.9093 59.4801 93.2738 59.4801 93.2738 59.4801V49.9755C93.2738 45.6333 89.766 42.0955 85.4354 42.0453C85.4075 41.0625 85.5111 34.951 85.354 34.1165C90.158 31.725 89.5186 26.1664 84.905 23.6187C84.5344 23.4016 84.1302 23.1931 83.699 22.9964V18.7863C84.4751 19.2146 85.0019 19.6784 85.0315 19.7047C85.9021 20.5004 87.2598 20.443 88.0602 19.5759C88.8639 18.7052 88.8095 17.343 87.9387 16.5392C87.8786 16.4837 86.4422 15.1702 84.4148 14.3848C84.1778 14.293 83.9385 14.2107 83.699 14.1385V12.1915C83.699 11.0065 82.735 10.0425 81.55 10.0425C80.3651 10.0425 79.401 11.0065 79.401 12.1915V14.0175C78.316 14.3113 77.3085 14.8628 76.3992 15.6618C72.2802 19.3583 74.5598 23.3157 77.9284 25.2655C76.9391 24.9604 75.8888 24.796 74.8007 24.796H51.8399C45.9759 24.796 41.2052 29.5667 41.2052 35.4307V42.0453C36.8746 42.0955 33.3669 45.6333 33.3669 49.9755V59.4801H30.2609C27.4099 59.5981 27.4109 63.6606 30.2609 63.7781ZM47.9217 66.8746C47.9217 68.296 46.7653 69.4523 45.3439 69.4523H37.3773C35.9559 69.4523 34.7995 68.296 34.7995 66.8746V63.7781H47.9217V66.8746ZM91.2801 66.8746C91.2801 68.296 90.1238 69.4523 88.7024 69.4523H80.7357C79.3144 69.4523 78.158 68.296 78.158 66.8746V63.7781H91.2801V66.8746ZM75.7041 20.5852C75.0931 18.2745 77.9086 15.6387 80.2451 15.2946C80.5858 15.2329 80.8337 14.9361 80.8337 14.5897V12.1915C80.8337 11.7965 81.155 11.4751 81.55 11.4751C81.945 11.4751 82.2664 11.7965 82.2664 12.1915V14.6876C82.2664 15.02 82.495 15.3088 82.8186 15.3849C83.1765 15.4691 83.5395 15.5821 83.8972 15.7207C85.6734 16.4088 86.9542 17.5802 86.967 17.5919C87.6388 18.2676 86.7194 19.26 85.993 18.6426C85.9462 18.6003 84.8292 17.6 83.3056 17.0284C82.8245 16.8045 82.2681 17.1361 82.2664 17.6733C82.2664 17.6733 82.2664 23.4647 82.2664 23.4647C82.2664 23.7531 82.4393 24.0133 82.7052 24.125C83.2449 24.3519 83.7414 24.5974 84.181 24.8549C86.8727 26.3731 88.3108 29.2589 86.3352 31.6184C85.5647 32.4935 84.2561 33.1954 82.8346 33.4959C82.5034 33.5659 82.2664 33.8582 82.2664 34.1967V36.6471C82.2302 37.59 80.8766 37.6045 80.8337 36.647C80.8337 36.6471 80.8337 34.2218 80.8337 34.2218C80.8337 33.8683 80.5759 33.5677 80.2266 33.5138C79.4699 33.3971 78.7001 33.2087 78.0002 32.969C76.552 32.473 75.41 31.7833 74.6062 30.9192C74.3384 30.6423 74.3552 30.1635 74.6428 29.9068C74.9314 29.6382 75.3857 29.6538 75.6552 29.9434C76.8642 31.2433 78.8832 31.7992 79.979 32.0149C80.4065 32.1092 80.8445 31.7504 80.8337 31.3121C80.8337 31.3121 80.8337 25.4862 80.8337 25.4862C80.8337 25.1713 80.628 24.8933 80.327 24.8012C79.0497 24.4205 76.2144 22.869 75.7041 20.5852ZM42.6379 35.4307C42.6379 30.3567 46.7659 26.2287 51.8399 26.2287H74.8007C76.4754 26.2287 78.0469 26.6785 79.401 27.4635V30.4053C78.2165 30.0699 77.2582 29.5633 76.7041 28.9676C75.8969 28.0999 74.5344 28.0509 73.667 28.8579C72.8051 29.6272 72.7529 31.0655 73.5572 31.895C74.8558 33.3519 77.2558 34.4256 79.401 34.8227V36.6471C79.401 37.832 80.3651 38.796 81.55 38.796C82.735 38.796 83.699 37.832 83.699 36.6471V34.7586C83.7907 34.7331 83.8816 34.7062 83.9719 34.678C84.0339 34.9698 83.9908 41.5895 84.0027 42.0442H42.6379V35.4307ZM34.7995 49.9755C34.7915 46.1268 38.1191 43.1897 41.9216 43.4769C41.9216 43.4768 84.7191 43.4768 84.7191 43.4768H85.3424C88.9258 43.4768 91.8411 46.3921 91.8411 49.9755V59.4801H34.7995V49.9755ZM30.2609 60.9128H33.9935C34.1958 60.9247 92.4374 60.9247 92.6471 60.9128H93.9093C94.3043 60.9128 94.6256 61.2341 94.6256 61.6291C94.6256 62.0241 94.3043 62.3454 93.9093 62.3454C83.5672 62.3455 59.2477 62.3454 48.638 62.3454C45.9429 62.3453 32.7099 62.3456 30.2609 62.3454C29.8659 62.3454 29.5446 62.0241 29.5446 61.6291C29.5446 61.2341 29.8659 60.9128 30.2609 60.9128Z" fill="#0048B4"/>
<path d="M68.7711 52.0481H55.546C52.6986 52.1644 52.6926 56.227 55.546 56.3461C55.546 56.3461 68.7711 56.3461 68.7711 56.3461C69.9561 56.3461 70.9201 55.382 70.9201 54.1971C70.9201 53.0121 69.9561 52.0481 68.7711 52.0481ZM68.7711 54.9134H55.546C55.151 54.9134 54.8297 54.5921 54.8297 54.1971C54.8297 53.8021 55.151 53.4808 55.546 53.4808H68.7711C69.7177 53.5183 69.7248 54.8727 68.7711 54.9134Z" fill="#0048B4"/>
<path d="M80.8344 22.3895V17.5432C80.8344 17.3116 80.7224 17.0943 80.5338 16.9599C80.3452 16.8255 80.1032 16.7905 79.8842 16.8662C78.5363 17.2918 76.7369 18.9864 77.1054 20.2834C77.4039 21.6695 79.2306 22.7306 79.7833 23.0228C80.2499 23.2769 80.8412 22.9217 80.8344 22.3895ZM79.4018 21.0752C78.9099 20.6849 78.5709 20.2836 78.5058 19.9816C78.4295 19.7693 78.8398 19.1836 79.4018 18.7526V21.0752Z" fill="#0048B4"/>
<path d="M82.5621 31.8116C82.7486 31.9467 82.9892 31.9832 83.2061 31.9116C83.7118 31.745 84.651 31.3625 85.2591 30.6717C86.639 29.0461 85.2606 27.0521 83.3328 26.019C82.8656 25.7493 82.259 26.1033 82.2657 26.6436C82.2657 26.6436 82.2657 31.2312 82.2657 31.2312C82.2657 31.461 82.3759 31.6769 82.5621 31.8116ZM83.6983 28.029C84.1301 28.4293 84.6745 29.227 84.1838 29.725C84.1112 29.8075 84.0223 29.8887 83.92 29.9675C83.8482 29.8481 83.7746 29.73 83.6983 29.6137V28.029Z" fill="#0048B4"/>
</g>
</svg>
