<svg width="112" height="112" viewBox="0 0 112 112" fill="none" xmlns="http://www.w3.org/2000/svg">
<g opacity="0.5" clip-path="url(#clip0_1943_8236)">
<path d="M57.0491 89.6874H54.5291C53.0766 89.6874 51.6766 89.1449 50.6091 88.1474L44.0991 82.1274C42.9266 81.0424 42.2441 79.4849 42.2441 77.8749V65.6949C42.2441 63.8049 42.6466 62.1249 43.4341 60.7249C44.3616 59.0624 45.5691 58.0299 47.0216 57.6624C48.7016 57.2249 50.6966 57.6974 52.9191 59.0799C57.3641 61.5124 60.8641 62.3874 63.9266 61.8274C65.6941 61.4949 67.4266 62.3349 68.0916 63.8574C69.3516 66.6924 69.7366 71.3649 69.2816 78.1374C69.1766 79.6074 68.5466 80.9724 67.4791 81.9699L61.0216 88.0949C59.9366 89.1274 58.5366 89.6874 57.0491 89.6874ZM48.2816 59.2724C47.9841 59.2724 47.7041 59.3074 47.4416 59.3774C46.4616 59.6399 45.6391 60.3574 44.9566 61.5999C44.3091 62.7549 43.9941 64.1374 43.9941 65.7124V77.8924C43.9941 79.0124 44.4666 80.0974 45.2891 80.8499L51.7991 86.8699C52.5516 87.5524 53.5141 87.9374 54.5291 87.9374H57.0491C58.0816 87.9374 59.0616 87.5524 59.8141 86.8349L66.2716 80.7099C67.0066 80.0099 67.4616 79.0474 67.5316 78.0149C67.9691 71.6099 67.6016 67.0949 66.4816 64.5574C66.1316 63.7699 65.2041 63.3499 64.2241 63.5424C60.7416 64.1724 56.8741 63.2449 52.0266 60.5849C50.5916 59.7099 49.3316 59.2724 48.2816 59.2724Z" fill="#0048B4"/>
<path d="M55.2122 96.6699C54.7922 96.6699 54.3897 96.6524 53.9697 96.6174C50.8547 96.3549 48.3522 95.1474 46.9172 93.1874C46.7247 92.9249 46.6897 92.5749 46.8472 92.2774C46.9172 92.1374 47.0397 92.0149 47.1622 91.9274C47.7047 91.1399 48.8597 87.5699 48.9122 86.5549C48.8072 86.3799 48.7547 86.1699 48.7897 85.9599C48.8597 85.4874 49.3147 85.1549 49.7872 85.2249C50.0847 85.2774 50.7497 85.5049 50.6447 86.6949C50.6272 86.9749 49.8397 90.8249 48.7197 92.6274C49.8922 93.8874 51.7822 94.6749 54.0922 94.8674C57.2597 95.1299 60.6897 94.2549 62.8247 92.6799C62.4747 92.1724 62.1772 91.5074 61.9147 90.8424C61.0222 88.5849 60.2347 85.7849 61.5647 85.2074C62.0197 85.0149 62.5272 85.2249 62.7197 85.6624C62.8597 85.9774 62.7897 86.3099 62.5972 86.5549C62.5272 87.5349 63.6997 91.0349 64.3472 91.8049C64.5747 91.8399 64.8022 91.9799 64.9247 92.2074C65.1347 92.5574 65.0822 93.0124 64.8022 93.2924C62.7372 95.3574 58.9047 96.6699 55.2122 96.6699Z" fill="#0048B4"/>
<path d="M65.8345 112.875H65.817H31.377C30.922 112.875 30.537 112.525 30.502 112.07C29.907 104.65 31.2545 99.19 34.5095 95.8475C37.4145 92.855 41.8245 91.5075 47.687 91.805C48.0195 91.8225 48.3345 92.0325 48.457 92.3475C48.5795 92.6625 48.5095 93.03 48.282 93.275L41.6321 100.398L46.3395 111.125H65.257L69.772 100.625L63.5595 93.24C63.3495 92.9775 63.2971 92.6275 63.4196 92.33C63.5596 92.0325 63.8395 91.8225 64.172 91.805C70.017 91.5075 74.4445 92.8725 77.3495 95.8475C80.6045 99.2075 81.952 104.668 81.357 112.07C81.322 112.525 80.937 112.875 80.482 112.875H65.852H65.8345ZM67.1645 111.125H79.677C80.0795 104.65 78.8895 99.925 76.107 97.055C73.8671 94.745 70.507 93.555 66.0795 93.5025L71.452 99.9075C71.662 100.153 71.7145 100.52 71.592 100.818L67.1645 111.125ZM32.1995 111.125H44.432L39.7945 100.573C39.6545 100.258 39.7245 99.8725 39.952 99.6275L45.657 93.52C41.2995 93.6075 37.9745 94.7975 35.7695 97.0725C32.987 99.925 31.797 104.65 32.1995 111.125Z" fill="#0048B4"/>
<path d="M49.6821 101.85C49.1921 101.85 48.7196 101.658 48.3521 101.29L43.8371 96.67C43.5046 96.32 43.5046 95.7775 43.8546 95.4275C44.2046 95.095 44.7646 95.095 45.0971 95.445L49.6121 100.065L55.2821 95.13C55.6321 94.815 56.1571 94.8325 56.4896 95.165L61.2321 100.013L66.2371 95.1475C66.5871 94.7975 67.1296 94.7975 67.4796 95.1475C67.8296 95.4975 67.8296 96.04 67.4796 96.39L62.6146 101.255C62.2646 101.605 61.8271 101.868 61.3021 101.798C60.7946 101.798 60.3396 101.588 59.9896 101.238L55.8421 96.985L50.9421 101.36C50.5571 101.693 50.1196 101.85 49.6821 101.85Z" fill="#0048B4"/>
<path d="M58.1704 103.688H53.6379C53.3404 103.688 53.0604 103.53 52.9029 103.285L50.8379 100.083C50.5754 99.68 50.6979 99.1375 51.1004 98.875C51.5029 98.6125 52.0454 98.735 52.3079 99.1375L54.1104 101.938H57.6804L59.1679 99.4875C59.4129 99.0675 59.9554 98.945 60.3754 99.19C60.7954 99.435 60.9179 99.9775 60.6729 100.398L58.9229 103.268C58.7654 103.53 58.4854 103.688 58.1704 103.688Z" fill="#0048B4"/>
<path d="M51.958 112.875C51.9055 112.875 51.853 112.875 51.8005 112.858C51.328 112.77 51.013 112.315 51.1005 111.843L52.7805 102.655C52.868 102.183 53.323 101.868 53.7955 101.955C54.268 102.043 54.583 102.498 54.4955 102.97L52.8155 112.158C52.7455 112.578 52.378 112.875 51.958 112.875Z" fill="#0048B4"/>
<path d="M59.4295 112.875C58.992 112.875 58.6245 112.56 58.572 112.122L57.312 102.935C57.242 102.462 57.5745 102.007 58.0645 101.955C58.537 101.885 58.992 102.217 59.0445 102.707L60.3045 111.895C60.3745 112.367 60.042 112.822 59.552 112.875C59.517 112.875 59.482 112.875 59.4295 112.875Z" fill="#0048B4"/>
<path d="M38.2715 112.875C37.7815 112.875 37.3965 112.49 37.3965 112V105.98C37.3965 105.49 37.7815 105.105 38.2715 105.105C38.7615 105.105 39.1465 105.49 39.1465 105.98V112C39.1465 112.49 38.744 112.875 38.2715 112.875Z" fill="#0048B4"/>
<path d="M73.0977 112.875C72.6077 112.875 72.2227 112.49 72.2227 112V105.98C72.2227 105.49 72.6077 105.105 73.0977 105.105C73.5877 105.105 73.9727 105.49 73.9727 105.98V112C73.9727 112.49 73.5877 112.875 73.0977 112.875Z" fill="#0048B4"/>
<path d="M68.3202 69.2649C68.1802 69.2649 68.0577 69.2299 67.9177 69.1774C67.4802 68.9674 67.3052 68.4249 67.5327 68.0049C69.7727 63.5599 70.2277 59.7624 68.8627 56.6824C67.6377 53.9349 64.8902 51.8524 61.1452 50.8374C60.8477 50.7499 60.6202 50.5224 60.5327 50.2249C60.4452 49.9274 60.5327 49.6124 60.7427 49.3849L62.6852 47.3024C56.4552 44.7649 51.1002 46.1649 46.3577 51.5549C46.2527 51.6774 46.0952 51.7649 45.9377 51.8174C42.7877 52.7274 41.4927 56.1574 41.3527 59.0624C41.2127 61.8799 42.1052 64.3299 43.4702 64.8724C43.9252 65.0474 44.1352 65.5549 43.9602 66.0099C43.7852 66.4649 43.2777 66.6749 42.8227 66.4999C40.3902 65.5199 39.4452 62.0199 39.6027 58.9749C39.7777 55.5274 41.3527 51.4674 45.2202 50.2074C50.7152 44.0824 57.2252 42.7349 64.5577 46.1999C64.8027 46.3224 64.9952 46.5499 65.0477 46.8299C65.1002 47.1099 65.0127 47.3899 64.8202 47.5824L62.9827 49.5424C66.5702 50.8024 69.1952 53.0424 70.4902 55.9299C72.0827 59.4999 71.6277 63.8049 69.1252 68.7574C68.9502 69.0899 68.6352 69.2649 68.3202 69.2649Z" fill="#0048B4"/>
<path d="M43.1187 77.7525C39.9337 77.7525 37.3262 75.1625 37.3262 71.96C37.3262 68.7575 39.9162 66.1675 43.1187 66.1675C43.6087 66.1675 43.9937 66.5525 43.9937 67.0425C43.9937 67.5325 43.6087 67.9175 43.1187 67.9175C40.8962 67.9175 39.0762 69.7375 39.0762 71.96C39.0762 74.1825 40.8787 76.0025 43.1187 76.0025C43.6087 76.0025 43.9937 76.3875 43.9937 76.8775C43.9937 77.35 43.5912 77.7525 43.1187 77.7525Z" fill="#0048B4"/>
<path d="M68.4766 77.7525C67.9866 77.7525 67.6016 77.3675 67.6016 76.8775C67.6016 76.3875 67.9866 76.0025 68.4766 76.0025C70.7691 76.0025 72.7991 74.1125 72.7991 71.96C72.7991 69.7725 71.1016 68.005 68.9141 67.9175C68.4241 67.9 68.0566 67.4975 68.0741 67.0075C68.0916 66.5175 68.5466 66.115 68.9841 66.1675C72.0991 66.2725 74.5491 68.81 74.5491 71.96C74.5316 75.0925 71.7666 77.7525 68.4766 77.7525Z" fill="#0048B4"/>
<path d="M32.2004 90.51C32.0429 90.51 31.8854 90.475 31.7454 90.3875C22.3304 84.665 18.4279 73.885 18.2529 73.43C18.0954 72.975 18.3229 72.4675 18.7779 72.31C19.2329 72.1525 19.7404 72.38 19.8979 72.835C19.9329 72.94 23.7829 83.51 32.6379 88.8825C33.0579 89.1275 33.1804 89.67 32.9354 90.09C32.7779 90.37 32.4979 90.51 32.2004 90.51Z" fill="#0048B4"/>
<path d="M17.5696 68.6175C11.2171 68.6175 6.03711 63.4375 6.03711 57.085C6.03711 50.7325 11.2171 45.5525 17.5696 45.5525C23.9221 45.5525 29.1021 50.7325 29.1021 57.085C29.1021 63.4375 23.9221 68.6175 17.5696 68.6175ZM17.5696 47.3025C12.1796 47.3025 7.78711 51.695 7.78711 57.085C7.78711 62.475 12.1796 66.8675 17.5696 66.8675C22.9596 66.8675 27.3521 62.475 27.3521 57.085C27.3346 51.695 22.9596 47.3025 17.5696 47.3025Z" fill="#0048B4"/>
<path d="M19.0749 42.9799C18.9524 42.9799 18.8299 42.9624 18.7074 42.8924C18.2699 42.6999 18.0774 42.1749 18.2699 41.7374C22.9774 31.3599 30.7299 23.7299 41.3174 19.0574C41.7549 18.8649 42.2799 19.0574 42.4724 19.5124C42.6649 19.9499 42.4724 20.4749 42.0174 20.6674C31.8499 25.1649 24.3949 32.4974 19.8624 42.4724C19.7399 42.7874 19.4249 42.9799 19.0749 42.9799Z" fill="#0048B4"/>
<path d="M79.3797 90.5099C79.0822 90.5099 78.8022 90.3524 78.6272 90.0899C78.3822 89.6699 78.5047 89.1449 78.9247 88.8824C87.7972 83.4924 91.6297 72.9399 91.6647 72.8349C91.8222 72.3799 92.3297 72.1349 92.7847 72.3099C93.2397 72.4674 93.4847 72.9749 93.3097 73.4299C93.1522 73.8849 89.2322 84.6824 79.8172 90.3874C79.6947 90.4749 79.5372 90.5099 79.3797 90.5099Z" fill="#0048B4"/>
<path d="M92.5042 42.98C92.1717 42.98 91.8567 42.7875 91.6992 42.4725C87.1667 32.4975 79.7117 25.165 69.5442 20.6675C69.1067 20.475 68.8967 19.95 69.0892 19.5125C69.2817 19.075 69.8067 18.865 70.2442 19.0575C80.8142 23.73 88.5667 31.36 93.2917 41.7375C93.4842 42.175 93.2917 42.7 92.8542 42.8925C92.7492 42.945 92.6267 42.98 92.5042 42.98Z" fill="#0048B4"/>
<path d="M51.9922 25.4099C51.5022 25.4099 51.1172 25.0249 51.1172 24.5349V17.6224C51.1172 17.1324 51.5022 16.7474 51.9922 16.7474C52.4822 16.7474 52.8672 17.1324 52.8672 17.6224V24.5349C52.8672 25.0074 52.4647 25.4099 51.9922 25.4099Z" fill="#0048B4"/>
<path d="M56.9629 25.4098C56.4729 25.4098 56.0879 25.0248 56.0879 24.5348V14.4548C56.0879 13.9648 56.4729 13.5798 56.9629 13.5798C57.4529 13.5798 57.8379 13.9648 57.8379 14.4548V24.5173C57.8379 25.0073 57.4529 25.4098 56.9629 25.4098Z" fill="#0048B4"/>
<path d="M61.9316 25.4099C61.4416 25.4099 61.0566 25.0249 61.0566 24.5349V10.4824C61.0566 9.99242 61.4416 9.60742 61.9316 9.60742C62.4216 9.60742 62.8066 9.99242 62.8066 10.4824V24.5349C62.8066 25.0074 62.4216 25.4099 61.9316 25.4099Z" fill="#0048B4"/>
<path d="M67.2179 6.14245C66.7279 6.14245 66.3429 5.75745 66.3429 5.26745V0.892448C61.6529 0.944948 61.6354 0.927448 61.3379 0.629948L61.9504 -5.17964e-05L62.0729 -0.857552C62.3704 -0.822552 64.9429 -0.840052 67.2179 -0.875052C67.3929 -0.892552 67.6729 -0.787552 67.8479 -0.630052C68.0229 -0.472552 68.1104 -0.245052 68.1104 -5.17964e-05V5.26745C68.0929 5.75745 67.6904 6.14245 67.2179 6.14245Z" fill="#0048B4"/>
<path d="M52.5877 11.6024H47.3027C46.8127 11.6024 46.4277 11.2174 46.4277 10.7274C46.4277 10.2374 46.8127 9.85242 47.3027 9.85242H52.2202L55.1077 6.96492C55.2652 6.80742 55.4927 6.70242 55.7202 6.70242H59.2552L66.5877 -0.630078C66.9377 -0.980078 67.4802 -0.980078 67.8302 -0.630078C68.1802 -0.280078 68.1802 0.262422 67.8302 0.612422L60.2527 8.18992C60.0952 8.34742 59.8677 8.45242 59.6402 8.45242H56.1052L53.2002 11.3399C53.0427 11.5149 52.8152 11.6024 52.5877 11.6024Z" fill="#0048B4"/>
<path d="M17.5698 57.96C15.8198 57.96 14.4023 56.5425 14.4023 54.7925C14.4023 53.0425 15.8198 51.625 17.5698 51.625C19.3198 51.625 20.7373 53.0425 20.7373 54.7925C20.7373 55.2825 20.3523 55.6675 19.8623 55.6675C19.3723 55.6675 18.9873 55.2825 18.9873 54.7925C18.9873 54.005 18.3573 53.375 17.5698 53.375C16.7823 53.375 16.1523 54.005 16.1523 54.7925C16.1523 55.58 16.7823 56.21 17.5698 56.21C18.0598 56.21 18.4448 56.595 18.4448 57.085C18.4448 57.575 18.0423 57.96 17.5698 57.96Z" fill="#0048B4"/>
<path d="M17.5698 62.545C15.8198 62.545 14.4023 61.1275 14.4023 59.3775C14.4023 58.8875 14.7873 58.5025 15.2773 58.5025C15.7673 58.5025 16.1523 58.8875 16.1523 59.3775C16.1523 60.165 16.7823 60.795 17.5698 60.795C18.3573 60.795 18.9873 60.165 18.9873 59.3775C18.9873 58.59 18.3573 57.96 17.5698 57.96C17.0798 57.96 16.6948 57.575 16.6948 57.085C16.6948 56.595 17.0798 56.21 17.5698 56.21C19.3198 56.21 20.7373 57.6275 20.7373 59.3775C20.7198 61.1275 19.3023 62.545 17.5698 62.545Z" fill="#0048B4"/>
<path d="M17.5703 53.375C17.0803 53.375 16.6953 52.99 16.6953 52.5V51.135C16.6953 50.645 17.0803 50.26 17.5703 50.26C18.0603 50.26 18.4453 50.645 18.4453 51.135V52.5C18.4453 52.99 18.0428 53.375 17.5703 53.375Z" fill="#0048B4"/>
<path d="M17.5703 63.9099C17.0803 63.9099 16.6953 63.5249 16.6953 63.0349V61.6699C16.6953 61.1799 17.0803 60.7949 17.5703 60.7949C18.0603 60.7949 18.4453 61.1799 18.4453 61.6699V63.0349C18.4453 63.5074 18.0428 63.9099 17.5703 63.9099Z" fill="#0048B4"/>
<path d="M102.164 68.2498H85.8716C84.4891 68.2498 83.3516 67.1123 83.3516 65.7298V58.8523C83.3516 58.3623 83.7366 57.9773 84.2266 57.9773C84.7166 57.9773 85.1016 58.3623 85.1016 58.8523V65.7298C85.1016 66.1498 85.4516 66.4998 85.8716 66.4998H102.164C102.584 66.4998 102.934 66.1498 102.934 65.7298V58.8523C102.934 58.3623 103.319 57.9773 103.809 57.9773C104.299 57.9773 104.684 58.3623 104.684 58.8523V65.7298C104.684 67.1123 103.564 68.2498 102.164 68.2498Z" fill="#0048B4"/>
<path d="M95.8817 61.6873C95.4792 61.6873 95.1292 61.4248 95.0242 61.0223C94.9017 60.5498 95.1992 60.0773 95.6717 59.9723L103.092 58.1698C103.757 58.0123 104.212 57.4348 104.212 56.7523V52.5698C104.212 51.9573 103.739 51.4673 103.144 51.4673H84.8917C84.2967 51.4673 83.8242 51.9573 83.8242 52.5698V56.7523C83.8242 57.4173 84.2792 57.9948 84.9442 58.1698L92.3467 59.9723C92.8192 60.0948 93.0992 60.5673 92.9942 61.0223C92.8717 61.4948 92.3992 61.7748 91.9442 61.6698L84.5417 59.8673C83.0892 59.5173 82.0742 58.2398 82.0742 56.7523V52.5698C82.0742 50.9948 83.3342 49.7173 84.8917 49.7173H103.144C104.702 49.7173 105.962 50.9948 105.962 52.5698V56.7523C105.962 58.2223 104.947 59.4998 103.494 59.8673L96.0742 61.6698C96.0217 61.6873 95.9517 61.6873 95.8817 61.6873Z" fill="#0048B4"/>
<path d="M95.1294 64.2599H92.9244C92.0319 64.2599 91.2969 63.5249 91.2969 62.6324V59.9024C91.2969 59.0099 92.0319 58.2749 92.9244 58.2749H95.1469C96.0394 58.2749 96.7744 59.0099 96.7744 59.9024V62.6324C96.7569 63.5249 96.0219 64.2599 95.1294 64.2599ZM95.0069 59.9024L92.9069 60.0249L93.0294 62.6324L95.0069 62.5274V59.9024Z" fill="#0048B4"/>
<path d="M97.3512 51.4673C96.8612 51.4673 96.4762 51.0823 96.4762 50.5923V48.5973H91.5762V50.5923C91.5762 51.0823 91.1912 51.4673 90.7012 51.4673C90.2112 51.4673 89.8262 51.0823 89.8262 50.5923V48.4748C89.8262 47.5648 90.5262 46.8298 91.3837 46.8298H96.6687C97.5262 46.8298 98.2262 47.5648 98.2262 48.4748V50.5923C98.2262 51.0823 97.8237 51.4673 97.3512 51.4673Z" fill="#0048B4"/>
</g>
<defs>
<clipPath id="clip0_1943_8236">
<rect width="112" height="112" fill="white"/>
</clipPath>
</defs>
</svg>
