<svg width="89" height="89" viewBox="0 0 89 89" fill="none" xmlns="http://www.w3.org/2000/svg">
<path d="M60.75 5.625C60.75 5.02826 60.5129 4.45597 60.091 4.03401C59.669 3.61205 59.0967 3.375 58.5 3.375H45V7.875H58.5C59.0967 7.875 59.669 7.63795 60.091 7.21599C60.5129 6.79403 60.75 6.22174 60.75 5.625Z" fill="#0048B4"/>
<path d="M15.75 47.25H51.75C52.6451 47.25 53.5035 46.8944 54.1365 46.2615C54.7694 45.6285 55.125 44.7701 55.125 43.875V21.375C55.125 20.4799 54.7694 19.6214 54.1365 18.9885C53.5035 18.3556 52.6451 18 51.75 18H15.75C14.8549 18 13.9964 18.3556 13.3635 18.9885C12.7306 19.6214 12.375 20.4799 12.375 21.375V43.875C12.375 44.7701 12.7306 45.6285 13.3635 46.2615C13.9964 46.8944 14.8549 47.25 15.75 47.25ZM21.375 45H19.125V42.75H21.375V45ZM52.875 42.75V45H50.625V42.75H52.875ZM33.75 21.375H51.75V39.375H33.75V21.375ZM32.625 42.75H48.375V45H32.625V42.75ZM27 21.375C27.445 21.375 27.88 21.507 28.25 21.7542C28.62 22.0014 28.9084 22.3528 29.0787 22.764C29.249 23.1751 29.2936 23.6275 29.2068 24.064C29.12 24.5004 28.9057 24.9013 28.591 25.216C28.2763 25.5307 27.8754 25.745 27.439 25.8318C27.0025 25.9186 26.5501 25.874 26.139 25.7037C25.7278 25.5334 25.3764 25.245 25.1292 24.875C24.882 24.505 24.75 24.07 24.75 23.625C24.75 23.0283 24.9871 22.456 25.409 22.034C25.831 21.6121 26.4033 21.375 27 21.375ZM27 30.375C27.445 30.375 27.88 30.507 28.25 30.7542C28.62 31.0014 28.9084 31.3528 29.0787 31.764C29.249 32.1751 29.2936 32.6275 29.2068 33.064C29.12 33.5004 28.9057 33.9013 28.591 34.216C28.2763 34.5307 27.8754 34.745 27.439 34.8318C27.0025 34.9186 26.5501 34.874 26.139 34.7037C25.7278 34.5334 25.3764 34.245 25.1292 33.875C24.882 33.505 24.75 33.07 24.75 32.625C24.75 32.0283 24.9871 31.456 25.409 31.034C25.831 30.6121 26.4033 30.375 27 30.375ZM18 21.375C18.445 21.375 18.88 21.507 19.25 21.7542C19.62 22.0014 19.9084 22.3528 20.0787 22.764C20.249 23.1751 20.2936 23.6275 20.2068 24.064C20.12 24.5004 19.9057 24.9013 19.591 25.216C19.2763 25.5307 18.8754 25.745 18.439 25.8318C18.0025 25.9186 17.5501 25.874 17.139 25.7037C16.7278 25.5334 16.3764 25.245 16.1292 24.875C15.882 24.505 15.75 24.07 15.75 23.625C15.75 23.0283 15.9871 22.456 16.409 22.034C16.831 21.6121 17.4033 21.375 18 21.375ZM18 30.375C18.445 30.375 18.88 30.507 19.25 30.7542C19.62 31.0014 19.9084 31.3528 20.0787 31.764C20.249 32.1751 20.2936 32.6275 20.2068 33.064C20.12 33.5004 19.9057 33.9013 19.591 34.216C19.2763 34.5307 18.8754 34.745 18.439 34.8318C18.0025 34.9186 17.5501 34.874 17.139 34.7037C16.7278 34.5334 16.3764 34.245 16.1292 33.875C15.882 33.505 15.75 33.07 15.75 32.625C15.75 32.0283 15.9871 31.456 16.409 31.034C16.831 30.6121 17.4033 30.375 18 30.375ZM14.625 38.25H30.375V40.5H14.625V38.25ZM14.625 42.75H16.875V45H14.625V42.75Z" fill="#0048B4"/>
<path d="M43.875 57.375V54H23.625V57.375C23.625 57.6734 23.7435 57.9595 23.9545 58.1705C24.1655 58.3815 24.4516 58.5 24.75 58.5H42.75C43.0484 58.5 43.3345 58.3815 43.5455 58.1705C43.7565 57.9595 43.875 57.6734 43.875 57.375Z" fill="#0048B4"/>
<path d="M39.7037 7.07963C39.9146 6.86863 40.2007 6.75006 40.4991 6.75H42.7491V4.5H38.7148L33.0898 10.125L34.8741 11.9081L39.7037 7.07963Z" fill="#0048B4"/>
<path d="M57.375 23.625H59.625V41.625H57.375V23.625Z" fill="#0048B4"/>
<path d="M30.375 60.75H37.125V67.5H30.375V60.75Z" fill="#0048B4"/>
<path d="M3.375 23.625H5.625V41.625H3.375V23.625Z" fill="#0048B4"/>
<path d="M28.7843 9H18V15.75H35.5343L28.7843 9Z" fill="#0048B4"/>
<path d="M68.625 17.5702L61.875 20.9452V44.3047L68.625 47.6797V17.5702Z" fill="#0048B4"/>
<path d="M7.875 25.875H10.125V39.375H7.875V25.875Z" fill="#0048B4"/>
<path d="M46.125 50.625V49.5H21.375V50.625C21.375 50.9234 21.4935 51.2095 21.7045 51.4205C21.9155 51.6315 22.2016 51.75 22.5 51.75H45C45.2984 51.75 45.5845 51.6315 45.7955 51.4205C46.0065 51.2095 46.125 50.9234 46.125 50.625Z" fill="#0048B4"/>
<path d="M14.625 57.375H22.5V55.125H14.625V54H7.875V58.5H14.625V57.375Z" fill="#0048B4"/>
<path d="M38.25 34.875L47.25 30.375L38.25 25.875V34.875Z" fill="#0048B4"/>
<path d="M2.25 68.625H69.75V70.875H2.25V68.625Z" fill="#0048B4"/>
</svg>
