<svg width="72" height="72" viewBox="0 0 72 72" fill="none" xmlns="http://www.w3.org/2000/svg">
<g clip-path="url(#clip0_3077_14688)">
<path fill-rule="evenodd" clip-rule="evenodd" d="M44.1615 68.1194C43.6554 68.1194 43.1914 67.6977 43.1914 67.1493V29.905H45.1317V67.1493C45.1317 67.6977 44.7099 68.1194 44.1615 68.1194Z" fill="#0048B4"/>
<path fill-rule="evenodd" clip-rule="evenodd" d="M56.0975 67.4446C55.8023 67.4446 55.5492 67.3181 55.3383 67.065L43.4016 51.3322C43.0641 50.9104 43.1485 50.3198 43.5703 49.9824C43.9921 49.6872 44.6248 49.7715 44.92 50.1933L56.8568 65.884C57.1942 66.3058 57.1098 66.8963 56.688 67.2337C56.5193 67.3603 56.3084 67.4446 56.0975 67.4446Z" fill="#0048B4"/>
<path fill-rule="evenodd" clip-rule="evenodd" d="M32.2253 67.4446C32.0144 67.4446 31.8456 67.3603 31.6347 67.2337C31.2129 66.8963 31.1286 66.3058 31.466 65.884L43.4028 50.1933C43.7402 49.7715 44.3307 49.6872 44.7525 49.9824C45.1743 50.3198 45.2586 50.9104 44.9212 51.3322L32.9845 67.065C32.8158 67.3181 32.5205 67.4446 32.2253 67.4446Z" fill="#0048B4"/>
<path fill-rule="evenodd" clip-rule="evenodd" d="M68.5407 45.1318C66.6005 45.1318 65.082 43.5711 65.082 41.6731V7.29696C65.082 5.39889 66.6005 3.83826 68.5407 3.83826C70.4388 3.83826 71.9994 5.39889 71.9994 7.29696V41.6731C71.9994 43.5711 70.4388 45.1318 68.5407 45.1318Z" fill="#0048B4"/>
<path fill-rule="evenodd" clip-rule="evenodd" d="M63.9431 41.6731L47.2402 30.4534C46.9871 30.2425 46.8184 29.9473 46.8184 29.652V19.3181C46.8184 19.0228 46.9871 18.7276 47.2402 18.5167L63.9431 7.297V41.6731Z" fill="#0048B4"/>
<path fill-rule="evenodd" clip-rule="evenodd" d="M45.6793 28.8084H40.5756C40.0273 28.8084 39.6055 28.3866 39.6055 27.8382V21.1317C39.6055 20.6256 40.0273 20.1616 40.5756 20.1616H45.6793V28.8084Z" fill="#0048B4"/>
<path fill-rule="evenodd" clip-rule="evenodd" d="M30.5378 41.2513H0.970123C0.421793 41.2513 0 40.8295 0 40.2812V21.427C0 20.8787 0.421793 20.4569 0.970123 20.4569H30.5378C31.0861 20.4569 31.5079 20.8787 31.5079 21.427V40.2812C31.5079 40.8295 31.0861 41.2513 30.5378 41.2513ZM20.5413 33.4903C22.0176 33.4903 23.1564 32.3093 23.1564 30.8752C23.1564 29.3989 22.0176 28.2601 20.5413 28.2601C19.1072 28.2601 17.9262 29.3989 17.9262 30.8752C17.9262 32.3093 19.1072 33.4903 20.5413 33.4903ZM20.5413 29.3146C21.3849 29.3146 22.1019 30.0316 22.1019 30.8752C22.1019 31.7188 21.3849 32.3936 20.5413 32.3936C19.6977 32.3936 19.0228 31.7188 19.0228 30.8752C19.0228 30.0316 19.6977 29.3146 20.5413 29.3146ZM9.40598 36.9912C9.70123 36.9912 9.95431 36.7381 9.95431 36.4429V32.5624C9.95431 32.2671 9.70123 32.0562 9.40598 32.0562H5.56766C5.27241 32.0562 5.01933 32.2671 5.01933 32.5624V36.4429C5.01933 36.7381 5.27241 36.9912 5.56766 36.9912H9.40598ZM6.11599 35.8945V33.1107H8.85765V35.8945H6.11599ZM9.3638 29.6098C9.65905 29.6098 9.91213 29.3567 9.91213 29.0615V25.3075C9.91213 25.0123 9.65905 24.7592 9.3638 24.7592H5.60984C5.31459 24.7592 5.06151 25.0123 5.06151 25.3075V29.0615C5.06151 29.3567 5.31459 29.6098 5.60984 29.6098H9.3638ZM6.15817 28.5131V25.8137H8.81547V28.5131H6.15817ZM20.5413 36.7803C23.8313 36.7803 26.4886 34.123 26.4886 30.8752C26.4886 27.5852 23.8313 24.9279 20.5413 24.9279C17.2935 24.9279 14.6362 27.5852 14.6362 30.8752C14.6362 34.123 17.2935 36.7803 20.5413 36.7803ZM20.5413 26.0246C23.2408 26.0246 25.3919 28.1757 25.3919 30.8752C25.3919 33.5325 23.2408 35.6836 20.5413 35.6836C17.884 35.6836 15.7329 33.5325 15.7329 30.8752C15.7329 28.1757 17.884 26.0246 20.5413 26.0246Z" fill="#0048B4"/>
<path fill-rule="evenodd" clip-rule="evenodd" d="M13.1172 19.3602L15.2262 16.492C15.437 16.2811 15.6901 16.1124 16.0276 16.1124H21.6374C21.9327 16.1124 22.2279 16.2811 22.3966 16.492L24.5478 19.3602H13.1172Z" fill="#0048B4"/>
<path fill-rule="evenodd" clip-rule="evenodd" d="M3.71094 19.3602V18.137C3.71094 17.5887 4.13273 17.1669 4.68106 17.1669H8.13976C8.68809 17.1669 9.10988 17.5887 9.10988 18.137V19.3602H3.71094Z" fill="#0048B4"/>
<path fill-rule="evenodd" clip-rule="evenodd" d="M18.2215 44.7522H13.2865C12.7804 44.7522 12.3164 44.3304 12.3164 43.7821V42.3901H19.1494V43.7821C19.1494 44.3304 18.7277 44.7522 18.2215 44.7522Z" fill="#0048B4"/>
<path fill-rule="evenodd" clip-rule="evenodd" d="M14.8047 47.1142V45.891H16.7028V47.1142H14.8047Z" fill="#0048B4"/>
<path fill-rule="evenodd" clip-rule="evenodd" d="M20.1192 53.3567H11.3881C10.8398 53.3567 10.418 52.9349 10.418 52.3866V49.2232C10.418 48.6748 10.8398 48.2531 11.3881 48.2531H20.1192C20.6254 48.2531 21.0893 48.6748 21.0893 49.2232V52.3866C21.0893 52.9349 20.6254 53.3567 20.1192 53.3567Z" fill="#0048B4"/>
<path fill-rule="evenodd" clip-rule="evenodd" d="M15.7326 68.1195C15.2265 68.1195 14.8047 67.6977 14.8047 67.1494V54.4956H16.7028V67.1494C16.7028 67.6977 16.281 68.1195 15.7326 68.1195Z" fill="#0048B4"/>
<path fill-rule="evenodd" clip-rule="evenodd" d="M22.3136 66.7698C21.9761 66.7698 21.6387 66.5589 21.47 66.2214L15.6914 54.4956H17.8425L23.1993 65.3779C23.4102 65.8418 23.2415 66.4323 22.7353 66.6854C22.6088 66.7276 22.4823 66.7698 22.3136 66.7698Z" fill="#0048B4"/>
<path fill-rule="evenodd" clip-rule="evenodd" d="M9.15302 66.7698C9.02648 66.7698 8.89995 66.7276 8.73123 66.6854C8.26726 66.4323 8.05636 65.8418 8.30944 65.3779L13.6662 54.4956H15.7752L10.0388 66.2214C9.87007 66.5589 9.53264 66.7698 9.15302 66.7698Z" fill="#0048B4"/>
</g>
<defs>
<clipPath id="clip0_3077_14688">
<rect width="72" height="72" fill="white"/>
</clipPath>
</defs>
</svg>
