<svg width="80" height="80" viewBox="0 0 80 80" fill="none" xmlns="http://www.w3.org/2000/svg">
<path d="M38.7494 58.6888V66.25H33.7494V68.75H46.2494V66.25H41.2494V58.6888C45.7758 58.3833 50.0383 56.4485 53.2481 53.2424C56.4578 50.0363 58.3975 45.776 58.7081 41.25H56.2081C55.9032 45.1139 54.2288 48.742 51.4863 51.481C48.7439 54.22 45.1137 55.8899 41.2494 56.19V48.65C43.3301 48.3497 45.2332 47.3102 46.6104 45.7218C47.9876 44.1335 48.7469 42.1023 48.7494 40V37.5H31.2494V40C31.2518 42.1023 32.0111 44.1335 33.3883 45.7218C34.7656 47.3102 36.6686 48.3497 38.7494 48.65V56.19C34.8862 55.8885 31.2575 54.218 28.5163 51.4791C25.7752 48.7403 24.1016 45.1129 23.7969 41.25H21.2969C21.6073 45.775 23.5461 50.0345 26.7546 53.2405C29.9631 56.4464 34.2241 58.3819 38.7494 58.6888Z" fill="#0048B4"/>
<path d="M52.5 71.25H27.5C27.1685 71.25 26.8505 71.3817 26.6161 71.6161C26.3817 71.8505 26.25 72.1685 26.25 72.5V76.25H53.75V72.5C53.75 72.1685 53.6183 71.8505 53.3839 71.6161C53.1495 71.3817 52.8315 71.25 52.5 71.25Z" fill="#0048B4"/>
<path d="M48.75 27.5V25H43.75V22.5H48.375C47.831 20.7023 46.723 19.1273 45.2148 18.0079C43.7066 16.8885 41.8782 16.2842 40 16.2842C38.1218 16.2842 36.2934 16.8885 34.7852 18.0079C33.277 19.1273 32.169 20.7023 31.625 22.5H36.25V25H31.25V27.5H36.25V30H31.25V35H48.75V30H43.75V27.5H48.75Z" fill="#0048B4"/>
<path d="M37.4113 9.21497L38.5525 6.35872L40.0525 11.5937C40.1182 11.823 40.248 12.0287 40.4268 12.1865C40.6055 12.3444 40.8257 12.4478 41.0613 12.4846C41.297 12.5214 41.5382 12.49 41.7566 12.3942C41.9749 12.2984 42.1613 12.1421 42.2937 11.9437L44.4188 8.74997H52.5V6.24997H43.75C43.5443 6.24994 43.3417 6.3007 43.1603 6.39773C42.9789 6.49476 42.8242 6.63508 42.71 6.80622L41.71 8.30622L39.9513 2.15622C39.8801 1.90534 39.7323 1.68298 39.5285 1.52029C39.3247 1.3576 39.0751 1.26272 38.8147 1.24894C38.5543 1.23516 38.2961 1.30317 38.0763 1.44345C37.8564 1.58373 37.686 1.78924 37.5887 2.03122L35.4037 7.49997H27.5V9.99997H36.25C36.4998 10.0002 36.744 9.92548 36.951 9.78556C37.158 9.64563 37.3183 9.44689 37.4113 9.21497Z" fill="#0048B4"/>
</svg>
