<svg width="81" height="81" viewBox="0 0 81 81" fill="none" xmlns="http://www.w3.org/2000/svg">
<path d="M69.6094 12.6562H72.1406V20.25H69.6094V12.6562Z" fill="#0048B4"/>
<path d="M8.85938 12.6562H11.3906V20.25H8.85938V12.6562Z" fill="#0048B4"/>
<path d="M7.59375 29.1094C7.59375 29.7807 7.86043 30.4245 8.33514 30.8992C8.80984 31.3739 9.45367 31.6406 10.125 31.6406C10.7963 31.6406 11.4402 31.3739 11.9149 30.8992C12.3896 30.4245 12.6562 29.7807 12.6562 29.1094V21.5156H7.59375V29.1094Z" fill="#0048B4"/>
<path d="M37.9688 34.1719H43.0312V36.7031H37.9688V34.1719Z" fill="#0048B4"/>
<path d="M52.0837 31.6406L54.1922 18.9844H26.8066L28.9152 31.6406H52.0837ZM40.4994 22.7812C41.0001 22.7812 41.4895 22.9297 41.9057 23.2078C42.322 23.486 42.6464 23.8813 42.838 24.3438C43.0296 24.8064 43.0797 25.3153 42.982 25.8063C42.8844 26.2973 42.6433 26.7484 42.2893 27.1024C41.9353 27.4564 41.4843 27.6974 40.9933 27.7951C40.5022 27.8928 39.9933 27.8427 39.5308 27.6511C39.0682 27.4595 38.6729 27.135 38.3948 26.7188C38.1166 26.3025 37.9682 25.8131 37.9682 25.3125C37.9682 24.6412 38.2349 23.9973 38.7096 23.5226C39.1843 23.0479 39.8281 22.7812 40.4994 22.7812Z" fill="#0048B4"/>
<path d="M15.1875 25.3125V27.8438H25.7175L25.2948 25.3125H15.1875Z" fill="#0048B4"/>
<path d="M32.9062 39.2344H48.0938V41.7656H32.9062V39.2344Z" fill="#0048B4"/>
<path d="M35.4375 44.2969H45.5625V46.8281H35.4375V44.2969Z" fill="#0048B4"/>
<path d="M50.1005 13.9219H30.8984L28.3672 16.4531H52.6317L50.1005 13.9219Z" fill="#0048B4"/>
<path d="M26.5781 67.0781H54.4219V49.3594H26.5781V67.0781ZM49.3594 51.8906H51.8906V54.4219H49.3594V51.8906ZM40.5 53.1562C41.5013 53.1562 42.4801 53.4532 43.3126 54.0094C44.1451 54.5657 44.794 55.3564 45.1771 56.2814C45.5603 57.2065 45.6606 58.2244 45.4652 59.2064C45.2699 60.1884 44.7877 61.0905 44.0797 61.7985C43.3717 62.5065 42.4697 62.9886 41.4876 63.184C40.5056 63.3793 39.4877 63.2791 38.5627 62.8959C37.6376 62.5127 36.847 61.8638 36.2907 61.0313C35.7344 60.1988 35.4375 59.22 35.4375 58.2188C35.4375 56.8761 35.9709 55.5884 36.9203 54.639C37.8697 53.6896 39.1573 53.1562 40.5 53.1562Z" fill="#0048B4"/>
<path d="M68.3438 29.1094C68.3438 29.7807 68.6104 30.4245 69.0851 30.8992C69.5598 31.3739 70.2037 31.6406 70.875 31.6406C71.5463 31.6406 72.1902 31.3739 72.6649 30.8992C73.1396 30.4245 73.4062 29.7807 73.4062 29.1094V21.5156H68.3438V29.1094Z" fill="#0048B4"/>
<path d="M55.2832 27.8438H65.8132V25.3125H55.7059L55.2832 27.8438Z" fill="#0048B4"/>
<path d="M35.4375 69.6094H45.5625V72.1406H35.4375V69.6094Z" fill="#0048B4"/>
<path d="M75.9375 8.85938H65.8125C65.4768 8.85938 65.1549 8.99272 64.9176 9.23007C64.6802 9.46742 64.5469 9.78934 64.5469 10.125C64.5469 10.4607 64.6802 10.7826 64.9176 11.0199C65.1549 11.2573 65.4768 11.3906 65.8125 11.3906H75.9375C76.2732 11.3906 76.5951 11.2573 76.8324 11.0199C77.0698 10.7826 77.2031 10.4607 77.2031 10.125C77.2031 9.78934 77.0698 9.46742 76.8324 9.23007C76.5951 8.99272 76.2732 8.85938 75.9375 8.85938Z" fill="#0048B4"/>
<path d="M16.4531 10.125C16.4531 9.78934 16.3198 9.46742 16.0824 9.23007C15.8451 8.99272 15.5232 8.85938 15.1875 8.85938H5.0625C4.72684 8.85938 4.40492 8.99272 4.16757 9.23007C3.93022 9.46742 3.79688 9.78934 3.79688 10.125C3.79688 10.4607 3.93022 10.7826 4.16757 11.0199C4.40492 11.2573 4.72684 11.3906 5.0625 11.3906H15.1875C15.5232 11.3906 15.8451 11.2573 16.0824 11.0199C16.3198 10.7826 16.4531 10.4607 16.4531 10.125Z" fill="#0048B4"/>
</svg>
