<svg width="72" height="72" viewBox="0 0 72 72" fill="none" xmlns="http://www.w3.org/2000/svg">
<path d="M24.6484 63C24.7835 63.7439 24.7835 64.5061 24.6484 65.25H42.8509C42.7159 64.5061 42.7159 63.7439 42.8509 63H24.6484Z" fill="#0048B4"/>
<path d="M31.5 47.25H36V56.25H31.5V47.25Z" fill="#0048B4"/>
<path d="M27 59.625V60.75H40.5V59.625C40.5 59.3266 40.3815 59.0405 40.1705 58.8295C39.9595 58.6185 39.6734 58.5 39.375 58.5H28.125C27.8266 58.5 27.5405 58.6185 27.3295 58.8295C27.1185 59.0405 27 59.3266 27 59.625Z" fill="#0048B4"/>
<path d="M3.375 10.125H5.625V28.125H3.375V10.125Z" fill="#0048B4"/>
<path d="M7.875 12.375H10.125V25.875H7.875V12.375Z" fill="#0048B4"/>
<path d="M18 59.625C17.11 59.625 16.24 59.8889 15.4999 60.3834C14.7599 60.8779 14.1831 61.5807 13.8425 62.4029C13.5019 63.2252 13.4128 64.13 13.5865 65.0029C13.7601 65.8758 14.1887 66.6776 14.818 67.307C15.4474 67.9363 16.2492 68.3649 17.1221 68.5385C17.995 68.7122 18.8998 68.6231 19.7221 68.2825C20.5443 67.9419 21.2471 67.3651 21.7416 66.6251C22.2361 65.885 22.5 65.015 22.5 64.125C22.5 62.9315 22.0259 61.7869 21.182 60.943C20.3381 60.0991 19.1935 59.625 18 59.625ZM18 66.375C17.555 66.375 17.12 66.243 16.75 65.9958C16.38 65.7486 16.0916 65.3972 15.9213 64.986C15.751 64.5749 15.7064 64.1225 15.7932 63.686C15.8801 63.2496 16.0943 62.8487 16.409 62.534C16.7237 62.2193 17.1246 62.005 17.561 61.9182C17.9975 61.8314 18.4499 61.876 18.861 62.0463C19.2722 62.2166 19.6236 62.505 19.8708 62.875C20.118 63.245 20.25 63.68 20.25 64.125C20.25 64.7217 20.0129 65.294 19.591 65.716C19.169 66.1379 18.5967 66.375 18 66.375Z" fill="#0048B4"/>
<path d="M23.625 43.875C23.625 44.1734 23.7435 44.4595 23.9545 44.6705C24.1655 44.8815 24.4516 45 24.75 45H42.75C43.0484 45 43.3345 44.8815 43.5455 44.6705C43.7565 44.4595 43.875 44.1734 43.875 43.875V40.5H23.625V43.875Z" fill="#0048B4"/>
<path d="M25.875 33.75V4.5H15.75C14.8549 4.5 13.9964 4.85558 13.3635 5.48851C12.7306 6.12145 12.375 6.97989 12.375 7.875V30.375C12.375 31.2701 12.7306 32.1286 13.3635 32.7615C13.9964 33.3944 14.8549 33.75 15.75 33.75H25.875ZM15.75 7.875H22.5V25.875H15.75V7.875ZM14.625 29.25H23.625V31.5H14.625V29.25Z" fill="#0048B4"/>
<path d="M46.125 37.125V36H21.375V37.125C21.375 37.4234 21.4935 37.7095 21.7045 37.9205C21.9155 38.1315 22.2016 38.25 22.5 38.25H45C45.2984 38.25 45.5845 38.1315 45.7955 37.9205C46.0065 37.7095 46.125 37.4234 46.125 37.125Z" fill="#0048B4"/>
<path d="M51.75 4.5H28.125V33.75H51.75C52.6451 33.75 53.5035 33.3944 54.1365 32.7615C54.7694 32.1286 55.125 31.2701 55.125 30.375V7.875C55.125 6.97989 54.7694 6.12145 54.1365 5.48851C53.5035 4.85558 52.6451 4.5 51.75 4.5ZM33.75 7.875H51.75V25.875H33.75V7.875ZM48.375 31.5H32.625V29.25H48.375V31.5ZM52.875 31.5H50.625V29.25H52.875V31.5Z" fill="#0048B4"/>
<path d="M57.375 10.125H59.625V28.125H57.375V10.125Z" fill="#0048B4"/>
<path d="M61.875 7.44519V30.8047L68.625 34.1797V4.07019L61.875 7.44519Z" fill="#0048B4"/>
<path d="M49.5 59.625C48.61 59.625 47.74 59.8889 46.9999 60.3834C46.2599 60.8779 45.6831 61.5807 45.3425 62.4029C45.0019 63.2252 44.9128 64.13 45.0865 65.0029C45.2601 65.8758 45.6887 66.6776 46.318 67.307C46.9474 67.9363 47.7492 68.3649 48.6221 68.5385C49.495 68.7122 50.3998 68.6231 51.2221 68.2825C52.0443 67.9419 52.7471 67.3651 53.2416 66.6251C53.7361 65.885 54 65.015 54 64.125C54 62.9315 53.5259 61.7869 52.682 60.943C51.8381 60.0991 50.6935 59.625 49.5 59.625ZM49.5 66.375C49.055 66.375 48.62 66.243 48.25 65.9958C47.88 65.7486 47.5916 65.3972 47.4213 64.986C47.251 64.5749 47.2064 64.1225 47.2932 63.686C47.3801 63.2496 47.5943 62.8487 47.909 62.534C48.2237 62.2193 48.6246 62.005 49.061 61.9182C49.4975 61.8314 49.9499 61.876 50.361 62.0463C50.7722 62.2166 51.1236 62.505 51.3708 62.875C51.618 63.245 51.75 63.68 51.75 64.125C51.75 64.7217 51.513 65.294 51.091 65.716C50.669 66.1379 50.0967 66.375 49.5 66.375Z" fill="#0048B4"/>
<path d="M38.25 21.375L47.25 16.875L38.25 12.375V21.375Z" fill="#0048B4"/>
</svg>
