<svg width="636" height="584" viewBox="0 0 636 584" fill="none" xmlns="http://www.w3.org/2000/svg">
<path fill-rule="evenodd" clip-rule="evenodd" d="M561.727 351.274L628.617 391.048V391.283L617.999 397.599L530.937 345.97V333.023L561.727 351.274ZM635.896 387.071V386.759V373.813V373.735V373.578V373.422V373.266V373.188V373.032V372.876V372.798V372.642V372.487V372.331V372.253V372.097V371.941V371.863V371.708V371.552V371.395V371.317V371.161V371.005V370.849V370.77V370.614V370.458V370.38V370.224V370.069V369.913V369.834V369.679V369.523V369.444V369.289V369.133V368.977V368.899V368.743V368.586V368.508V368.352V368.196V368.04V367.962V367.805V367.649V367.493V367.415V367.26V367.104V367.026V366.87V366.714V366.558V366.48V366.324V366.168V366.012V365.934V365.778V365.621V365.543V365.387V365.232V352.363V352.207V352.051V351.973V351.817V351.662V351.506V351.428V351.272V351.115V351.037V350.881V350.726V350.57V350.492V350.335V350.179V350.1V349.945V349.789V349.633V349.555V349.399V349.243V349.087V349.01V348.854V348.698V348.62V348.464V348.309V348.152V348.073V347.918V347.762V347.606V347.528V347.371V347.215V347.137V346.981V346.825V346.669V346.591V346.435V346.279V346.201V346.045V345.89V345.734V345.656V345.5V345.344V345.265V345.109V344.953V344.797V344.719V344.562V344.406V344.251V344.173V344.017V343.861V343.783V330.838V322.258V309.388V300.732V287.864V279.285V266.338V257.759V244.89V244.735V244.579V244.501V244.345V244.189V244.033V243.956V243.8V243.644V243.566V243.41V243.253V243.097V243.019V242.863V242.707V242.628V242.472V242.317V242.161V242.083V241.927V241.771V241.615V241.538V241.382V241.226V241.148V240.992V240.836V240.68V240.602V240.445V240.289V240.211V240.055V239.899V239.744V239.664V239.508V239.353V239.274V239.119V238.963V238.807V238.73V238.574V238.418V238.262V238.184V238.028V237.872V237.794V237.638V237.481V237.325V237.247V237.092V236.936V236.858V236.701V236.545V236.389V236.311V223.365V223.21V223.131V222.976V222.819V222.74V222.585V222.429V222.273V222.193V222.038V221.882V221.804V221.648V221.492V221.336V221.259V221.103V220.947V220.869V220.713V220.557V220.401V220.323V220.167V220.011V219.855V219.777V219.621V219.465V219.387V219.23V219.074V218.918V218.841V218.685V218.529V218.451V218.295V218.139V217.983V217.905V217.749V217.593V217.515V217.359V217.203V217.046V216.968V216.812V216.656V216.5V216.422V216.265V216.109V216.031V215.875V215.72V215.564V215.486V215.33V215.174V215.096V214.94V214.784V201.915V201.758V201.602V201.447V201.368V201.213V201.057V200.978V200.823V200.667V200.511V200.433V200.277V200.121V200.044V199.888V199.732V199.575V199.496V199.34V199.184V199.107V198.951V198.794V198.638V198.56V198.405V198.249V198.093V198.015V197.859V197.703V197.625V197.469V197.313V197.157V197.08V196.924V196.768V196.689V196.533V196.377V196.221V196.143V195.986V195.83V195.674V195.597V195.441V195.285V195.207V195.051V194.895V194.739V194.661V194.505V194.349V194.271V194.115V193.96V193.803V193.724V193.569V193.413V193.335V180.388V180.232V180.154V179.998V179.842V179.687V179.609V179.453V179.297V179.217V179.062V178.906V178.75V178.673V178.515V178.359V178.203V178.125V177.969V177.814V177.735V177.58V177.424V177.268V177.19V177.035V176.879V176.801V176.645V176.489V176.332V176.254V176.098V175.942V175.864V175.708V175.551V175.396V175.317V175.161V175.006V174.85V174.771V174.616V174.46V174.382V174.226V174.071V173.915V173.837V173.681V173.525V173.446V173.29V173.134V172.978V172.901V172.745V172.588V172.51V172.354V172.198V172.042V171.964V171.808V158.861V158.784V158.628V158.472V158.394V158.238V158.081V157.925V157.847V157.691V157.535V157.457V157.302V157.146V156.99V156.912V156.756V156.6V156.444V156.366V156.21V156.054V155.976V155.819V155.664V155.508V155.43V155.274V155.117V155.039V154.883V154.727V154.571V154.494V154.338V154.182V154.104V153.948V153.792V153.637V153.558V153.402V153.247V153.091V153.011V152.856V152.7V152.622V152.466V152.309V152.153V152.075V151.919V151.763V151.607V151.529V151.373V151.217V151.14V150.984V150.828V150.672V150.594V150.439V150.283V137.413V137.257V137.101V137.023V136.867V136.712V136.633V136.477V136.322V136.166V136.088V135.932V135.776V135.62V135.541V135.385V135.229V135.151V134.995V134.838V134.683V134.605V134.449V134.293V134.215V134.059V133.903V133.747V133.669V133.513V133.357V133.279V133.123V132.967V132.811V132.733V132.576V132.42V132.265V132.186V132.03V131.873V131.795V131.639V131.484V131.328V131.25V131.094V130.938V130.86V130.704V130.548V130.392V130.314V130.158V130.002V129.925V129.769V129.612V129.456V129.378V129.222V129.067V128.909V128.831V115.886V115.808V115.652V115.496V115.34V115.263V115.105V114.95V114.872V114.716V114.56V114.403V114.325V114.169V114.013V113.857V113.779V113.623V113.467V113.39V113.234V113.078V112.922V112.844V112.688V112.533V112.455V112.299V112.142V111.986V111.908V111.752V111.596V111.517V111.361V111.205V111.049V110.971V110.815V110.659V110.504V110.425V110.269V110.114V110.035V109.88V109.724V109.568V109.49V109.333V109.177V109.099V108.943V108.787V108.631V108.552V108.396V108.24V108.085V108.006V107.85V107.695V107.616V107.46V107.305V94.4362V94.2803V94.1244V94.0452V93.8893V93.7334V93.5776V93.4994V93.344V93.1881V93.1104V92.9545V92.7986V92.6427V92.565V92.4091V92.2533V92.1091V92.0313V91.874V91.7181V91.6404V91.4846V91.3292V91.1732V91.0941V90.9382V90.7823V90.6264V90.5482V90.3924V90.2364V90.1588V90.0028V89.8474V89.6916V89.6139V89.458V89.3021V89.2239V89.068V88.9106V88.7548V88.6771V88.5212V88.3653V88.2876V88.1302V87.9743V87.8184V87.7403V87.5844V87.4285V87.2726V87.1949V87.039V86.8831V86.8054V86.6495V86.4937V86.3383V86.26V86.1042V85.9468V85.8686V72.922V68.6338V64.3427L527.373 0L525.552 1.0922L420.821 63.2515L419.002 64.3422V248.792V253.082L321.55 195.212L317.91 193.185L314.271 195.368L216.818 253.238V248.948V193.027V184.449V68.711V64.4199L108.295 0.156382L106.476 1.17088L1.81948 63.4084L0 64.4214V66.6058V238.42V386.993L104.656 449.074V436.284V427.705V414.836V406.257V393.31V384.731V371.863V363.284V350.336V341.758V328.812V320.232V307.364V298.786V285.838V277.259V264.391V255.812V242.865V234.286V221.418V212.761V199.893V191.314V178.366V169.786V156.919V148.34V135.393V126.814V113.945V105.288V92.4203V83.8411V70.8944V62.3151V49.4472V40.8679V27.9227V19.3435V10.8424L7.20338 68.712V238.42V391.283L0.000464049 386.993V395.572L188.228 507.177L317.911 584L324.659 580.02L314.271 573.781V573.236V564.891V556.311V543.444V534.865V521.916V513.337V500.47V491.89V478.944V470.364V457.418V448.839V435.971V427.393V414.447V405.867V392.998V384.419V371.472V362.895V349.947V341.367V328.5V319.921V306.974V298.395V285.526V276.946V264.001V255.422V242.474V233.895V221.027V212.448V203.947L216.819 261.817V352.442V362.659V515.6L324.659 580.02L325.19 579.709L419.003 524.101L419.23 524.023L447.593 507.176L526.919 460.148L635.897 395.494V387.071H635.896ZM419.229 261.817V270.397L419.002 270.318V274.607L321.549 216.738V203.87L352.264 222.119L419.002 261.74L419.229 261.817ZM419.229 283.342V291.921L419.002 291.765L419.077 296.134L321.549 238.264V225.318L352.264 243.568L419.002 283.186L419.229 283.342ZM419.229 304.791V313.448L419.002 313.292V317.58L321.549 259.711V246.843L352.264 265.092L419.077 304.713L419.229 304.791ZM419.229 326.316V334.895L419.078 334.817H419.002V339.107L321.55 281.237V268.29L352.264 286.541L419.078 326.238L419.229 326.316ZM419.229 347.764V356.421L419.078 356.342L419.002 356.265V360.554L321.55 302.685V289.816L352.264 308.067L419.078 347.686L419.229 347.764ZM419.229 369.29V377.869H419.078L419.002 377.791V382.079L321.55 324.211V311.342L352.264 329.591L419.078 369.212L419.229 369.29ZM419.229 390.736V399.393L419.154 399.315L419.002 399.237V403.527L321.55 345.736V332.788L352.264 351.039L419.078 390.736H419.229ZM419.229 412.262V420.841H419.154L419.002 420.763V425.053L321.55 367.183V354.315L352.264 372.565L419.154 412.262H419.229ZM419.154 433.71V442.367L419.002 442.289V446.578L321.55 388.709V375.762L352.264 394.011L419.154 433.71ZM419.229 455.236V463.893L419.002 463.736V468.027L321.549 410.157V397.289L352.264 415.539L419.229 455.236ZM419.229 476.762V485.341L419.002 485.262V489.552L321.549 431.682V418.737L352.264 437.064L419.229 476.762ZM419.229 498.208V506.865L419.002 506.709V510.999L321.549 453.129V440.261L352.264 458.511L419.229 498.208ZM426.432 511.155V446.657L426.281 68.6338L523.734 10.7642V19.2653V27.8446V40.712V49.2913V62.238V70.8173V83.6862V92.3432V105.211V113.79V126.737V135.316V148.185V156.764V169.709V178.288V191.158V199.815V212.683V221.262V234.209V242.788V255.657V264.236V277.181V285.761V298.63V307.209V320.156V328.735V341.68V350.259V363.129V371.709V384.654V393.233V406.101V414.681V427.627V436.207V453.521L426.432 511.155ZM530.937 449.229V440.494L538.294 444.863L530.937 449.229ZM545.497 440.574L530.936 431.916V419.048L556.418 434.1L545.497 440.574ZM563.699 429.81L530.937 410.391V397.522L561.727 415.773L574.543 423.416L563.699 429.81ZM581.748 419.048L530.936 388.943V376.074L561.727 394.325L592.593 412.653L581.748 419.048ZM599.875 408.362L530.937 367.417V354.549L561.727 372.799L610.718 401.889L599.875 408.362ZM628.616 382.47L530.936 324.444V311.576L561.727 329.825L628.616 369.524V382.47ZM628.616 360.944L530.936 302.996V290.051L561.727 308.301L628.616 348.076V360.944ZM628.616 339.418L530.936 281.472V268.602L561.727 286.852L628.616 326.549V339.418ZM628.616 317.97L530.936 259.945V247.077L561.727 265.327L628.616 305.025V317.97ZM628.616 296.446L530.936 238.498V225.551L561.727 243.802L628.616 283.577V296.446ZM628.616 274.998L530.936 216.973V204.104L561.727 222.354L628.616 262.051V274.998ZM628.616 253.472L530.936 195.524V182.579L561.727 200.828L628.616 240.605V253.472ZM628.616 231.947L530.936 173.999V161.131L561.727 179.381L628.616 219.077V231.947ZM628.616 210.498L530.936 152.552V139.605L561.727 157.854L628.616 197.553V210.498ZM628.616 188.973L530.936 131.026V118.079L561.727 136.33L628.616 176.105V188.973ZM628.616 167.526L530.936 109.502V96.6318L561.727 114.883L628.616 154.58V167.526ZM628.616 146L530.936 88.052V75.1064L561.727 93.3557L628.616 133.132V146ZM628.616 124.475L530.936 66.5271V53.6587L561.727 71.9095L628.616 111.606V124.475ZM628.616 103.027L530.936 45.0794V32.1327L561.727 50.383L628.616 90.1583V103.027ZM628.616 81.5013L530.936 23.5535V10.686L561.727 28.9353L628.616 68.6338V81.5013ZM188.227 498.598L209.614 511.311V498.598L142.649 458.901L111.934 440.652V453.286L104.958 449.23L188.227 498.598ZM635.896 387.071L628.617 391.283L635.896 387.071ZM209.615 232.104L111.934 174.078V161.209L142.649 179.459L209.615 219.155V232.104ZM209.615 210.576L111.934 152.63V139.761L142.649 158.01L209.615 197.709V210.576ZM209.615 189.129L111.934 131.104V118.236L142.649 136.486L209.615 176.183V188.74V189.129ZM142.649 200.984L209.615 240.682V253.55L111.934 195.602V182.735L142.649 200.984ZM142.649 222.432L209.615 262.207V275.076L111.934 217.128V204.182L142.649 222.432ZM142.649 243.957L209.615 283.655V296.601L111.934 238.576V225.707L142.649 243.957ZM142.649 265.404L209.615 305.181V318.048L111.934 260.101V247.155L142.649 265.404ZM142.649 286.93L209.615 326.627V339.575L111.934 281.55V268.68L142.649 286.93ZM142.649 308.456L209.615 348.153V361.022L111.934 303.074V290.206L142.649 308.456ZM142.649 329.903L209.615 369.68V382.548L111.934 324.6V311.654L142.649 329.903ZM142.649 351.43L209.615 391.125V404.073L111.934 346.048V333.179L142.649 351.43ZM142.649 372.876L209.615 412.653V425.521L111.934 367.573V354.628L142.649 372.876ZM142.649 394.402L209.615 434.099V447.046L111.934 389.022V376.152L142.649 394.402ZM209.615 167.603L111.934 109.657V96.709L142.649 114.96L209.615 154.735V167.603ZM209.615 146.078L111.934 88.1302V75.2628L142.649 93.5121L209.615 133.211V146.078ZM209.615 124.631L111.934 66.6834V53.7369L142.649 71.9876L209.615 111.685V124.631ZM142.649 415.928L209.615 455.625V468.494L111.934 410.546V397.677L142.649 415.928ZM142.649 437.375L209.615 477.073V490.019L111.934 431.994V419.126L142.649 437.375ZM209.615 103.105L111.934 45.1576V32.2891L142.649 50.5394L209.615 90.2364V103.105ZM209.615 81.6572L111.934 23.6316V10.8424V10.7642L142.649 29.0135L209.615 68.712V81.6572ZM404.669 524.024L321.549 474.655V461.787L352.264 480.037L415.514 517.552L404.669 524.024ZM386.542 534.786L321.55 496.181V483.234L352.264 501.483L397.388 528.313L386.542 534.786ZM368.418 545.47L321.549 517.629V504.76L352.264 523.01L379.339 539.075L368.418 545.47ZM350.291 556.234L321.549 539.153V526.208L352.264 544.457L361.212 549.761L350.291 556.234ZM332.167 566.92L321.549 560.602V547.732L343.088 560.522L332.167 566.92ZM321.549 573.236V569.259L324.964 571.207L321.549 573.236Z" fill="#0C41CC" fill-opacity="0.05"/>
</svg>
