<svg width="28" height="28" viewBox="0 0 28 28" fill="none" xmlns="http://www.w3.org/2000/svg">
<path d="M26.3875 8.06056H24.5632C23.8844 8.06056 23.3753 8.61208 23.3753 9.24844V11.0727H22.2299V7.80602C22.2299 6.99996 21.5935 6.3636 20.7875 6.3636H19.0481V5.17572H19.9814C20.6602 5.17572 21.1693 4.6242 21.1693 3.98784V2.63026C21.1693 1.95147 20.6178 1.44238 19.9814 1.44238H14.1269C13.4481 1.44238 12.939 1.9939 12.939 2.63026V3.98784C12.939 4.66663 13.4905 5.17572 14.1269 5.17572H15.0602V6.3636H12.5572C12.4299 6.3636 12.3026 6.40602 12.2178 6.53329L10.139 9.1636H6.3208C5.51474 9.1636 4.87837 9.79996 4.87837 10.606V14.1272H3.73292V12.303C3.73292 11.6242 3.1814 11.1151 2.54504 11.1151H1.61171C0.932919 11.1151 0.423828 11.6666 0.423828 12.303V23.3333C0.423828 24.0121 0.975343 24.5212 1.61171 24.5212H2.54504C3.22383 24.5212 3.73292 23.9697 3.73292 23.3333V21.4666H4.87837V25.1575C4.87837 25.9212 5.51474 26.6 6.3208 26.6H15.442C15.5693 26.6 15.6966 26.5575 15.7814 26.4303L18.6663 22.6545H21.7632C21.9753 22.6545 22.1875 22.4848 22.1875 22.2303V18.4545H23.3329V20.2787C23.3329 20.9575 23.8844 21.4666 24.5208 21.4666H26.345C27.0238 21.4666 27.5329 20.9151 27.5329 20.2787V9.24844C27.5753 8.61208 27.0238 8.06056 26.3875 8.06056ZM2.88443 23.3333C2.88443 23.5454 2.71474 23.6727 2.54504 23.6727H1.61171C1.44201 23.6727 1.27231 23.503 1.27231 23.3333V12.3454C1.27231 12.1333 1.44201 12.006 1.61171 12.006H2.54504C2.75716 12.006 2.88443 12.1757 2.88443 12.3454V23.3333ZM14.1269 4.36966C13.9147 4.36966 13.7875 4.19996 13.7875 4.03026V2.63026C13.7875 2.41814 13.9572 2.29087 14.1269 2.29087H19.9814C20.1935 2.29087 20.3208 2.46056 20.3208 2.63026V3.98784C20.3208 4.19996 20.1511 4.32723 19.9814 4.32723H14.1269V4.36966ZM21.3814 21.7636H18.4966C18.3693 21.7636 18.242 21.8484 18.1572 21.9333L15.2723 25.709H6.36322C6.02383 25.709 5.76928 25.4545 5.76928 25.1151V10.6484C5.76928 10.309 6.02383 10.0545 6.36322 10.0545H10.3511C10.4784 10.0545 10.6056 10.0121 10.6905 9.88481L12.7693 7.2545H20.8299C21.1693 7.2545 21.4238 7.50905 21.4238 7.84844V21.7636H21.3814ZM26.7269 20.2363C26.7269 20.4484 26.5572 20.5757 26.3875 20.5757H24.5632C24.3511 20.5757 24.2238 20.406 24.2238 20.2363V9.24844C24.2238 9.03632 24.3935 8.90905 24.5632 8.90905H26.3875C26.5996 8.90905 26.7269 9.07875 26.7269 9.24844V20.2363Z" fill="#0048B4"/>
<path d="M20.2792 12.0912C20.0246 12.0063 19.8973 11.9215 19.8973 11.879C19.8973 11.8366 19.9822 11.7518 20.2792 11.6669C20.4913 11.6245 20.6186 11.4124 20.6186 11.2003C20.5337 10.6487 20.3216 10.1397 20.0246 9.63056C19.8973 9.46087 19.6428 9.37602 19.4731 9.50329C19.261 9.63056 19.0913 9.63056 19.0489 9.63056C19.0489 9.58814 19.0489 9.41844 19.1761 9.20632C19.3034 9.03662 19.261 8.78208 19.0489 8.65481C18.5822 8.31541 18.0731 8.10329 17.5216 7.97602C17.3095 7.93359 17.0973 8.06087 17.0125 8.27299C16.9277 8.52753 16.8004 8.65481 16.8004 8.65481C16.758 8.65481 16.6731 8.52753 16.5883 8.27299C16.5458 8.06087 16.3337 7.93359 16.1216 7.93359C15.5701 8.01844 15.0186 8.23056 14.5519 8.52753C14.5095 8.52753 14.5095 8.56996 14.467 8.56996C14.3398 8.69723 14.2973 8.90935 14.3822 9.07905C14.5095 9.29117 14.5095 9.46087 14.5095 9.50329C14.467 9.50329 14.3398 9.50329 14.0852 9.37602C13.9155 9.29117 13.7034 9.29117 13.5761 9.41844L13.5337 9.46087C13.1943 9.92753 12.9822 10.4366 12.8549 10.9881C12.8125 11.2003 12.9398 11.4124 13.1519 11.4972C13.4064 11.5821 13.5337 11.6669 13.5337 11.7094C13.5337 11.7518 13.4064 11.8366 13.1519 11.9215C12.9398 11.9639 12.8125 12.176 12.8125 12.3881C12.8973 12.9397 13.1095 13.4912 13.4064 13.9578C13.5337 14.1275 13.7883 14.2124 13.958 14.0851C14.1701 13.9578 14.3398 13.9578 14.3398 13.9578C14.3398 14.0003 14.3398 14.17 14.2125 14.3821C14.0852 14.5518 14.1277 14.8063 14.3398 14.9336C14.8064 15.273 15.3155 15.4851 15.867 15.6124C16.0792 15.6548 16.2913 15.5275 16.3337 15.3154C16.4186 15.0609 16.5458 14.9336 16.5458 14.9336C16.5883 14.9336 16.6731 15.0609 16.758 15.3154C16.8004 15.4851 16.9701 15.6548 17.1822 15.6548H17.267C17.8186 15.57 18.3701 15.3578 18.8367 15.0609L18.8792 15.0184C19.0064 14.8912 19.0489 14.679 18.964 14.5094C18.8367 14.2972 18.8367 14.1275 18.8367 14.0851C18.8792 14.0851 19.0489 14.0851 19.261 14.2124C19.4307 14.2972 19.6428 14.2972 19.7701 14.17L19.8125 14.1275C20.1519 13.6609 20.364 13.1518 20.4913 12.6003C20.6186 12.3457 20.4913 12.1336 20.2792 12.0912ZM19.6428 12.7275C19.6004 12.9397 19.5155 13.1094 19.3883 13.279C18.964 13.1518 18.5822 13.1942 18.3277 13.4487C18.0731 13.7033 17.9883 14.0851 18.1155 14.5094C17.9458 14.5942 17.7337 14.679 17.5216 14.7215C17.3519 14.3397 17.0125 14.0851 16.6731 14.0851C16.3337 14.0851 15.9943 14.2972 15.8246 14.679C15.6125 14.6366 15.4428 14.5518 15.2731 14.4245C15.4004 14.0003 15.358 13.6184 15.1034 13.3639C14.8489 13.1094 14.467 13.0245 14.0428 13.1518C13.958 12.9821 13.8731 12.77 13.8307 12.6003C14.2125 12.3881 14.467 12.0912 14.467 11.7518C14.467 11.37 14.2549 11.073 13.8731 10.8609C13.958 10.6487 14.0004 10.479 14.1277 10.3094C14.5519 10.4366 14.9337 10.3942 15.1883 10.1397C15.4428 9.88511 15.5277 9.50329 15.4004 9.07905C15.5701 8.9942 15.7822 8.90935 15.9943 8.86693C16.2064 9.24874 16.5034 9.50329 16.8428 9.50329C17.1822 9.50329 17.5216 9.29117 17.7337 8.90935C17.9458 8.95178 18.1155 9.03662 18.2852 9.1639C18.158 9.58814 18.2004 9.96996 18.4549 10.2245C18.7095 10.479 19.0913 10.5639 19.5155 10.4366C19.6004 10.6063 19.6852 10.8184 19.7277 11.0306C19.3458 11.2427 19.0913 11.5397 19.0913 11.879C19.0489 12.2184 19.261 12.5154 19.6428 12.7275Z" fill="#0048B4"/>
<path d="M18.0723 13.0665C17.7329 13.4484 17.2239 13.6181 16.7572 13.6181C16.2905 13.6181 15.8239 13.4484 15.4845 13.109C14.7633 12.3878 14.7208 11.2423 15.442 10.5211C16.1633 9.79987 17.3087 9.75745 18.0299 10.4787C18.7511 11.1999 18.7511 12.3453 18.0723 13.0665Z" fill="#0048B4"/>
<path d="M15.6966 20.491C15.3148 20.3637 15.1451 20.194 15.1451 20.1092C15.1451 20.0244 15.3148 19.8547 15.739 19.7698C15.9512 19.7274 16.0784 19.5153 16.0784 19.3031C15.9936 18.6244 15.739 17.9456 15.3148 17.3516C15.1875 17.1819 14.933 17.0971 14.7633 17.2244C14.4239 17.394 14.1693 17.4365 14.0845 17.3516C14.0421 17.3092 13.9996 17.0547 14.2542 16.6728C14.3815 16.5031 14.339 16.2486 14.1269 16.1213C13.533 15.6971 12.8966 15.4425 12.2178 15.2728C12.0057 15.2304 11.7936 15.3577 11.7087 15.5698C11.5815 15.9516 11.4118 16.1213 11.3269 16.1213C11.2421 16.1213 11.0724 15.9516 10.9451 15.5274C10.9027 15.3153 10.6906 15.188 10.4784 15.188C9.79964 15.2728 9.12086 15.5274 8.52692 15.9516C8.52692 15.9516 8.48449 15.9516 8.48449 15.994C8.3148 16.1213 8.27237 16.3334 8.39964 16.5456C8.61177 16.885 8.56934 17.1819 8.52692 17.2244C8.48449 17.2668 8.22995 17.3092 7.84813 17.0547C7.67843 16.9698 7.46631 16.9698 7.33904 17.0971L7.29661 17.1395C6.87237 17.691 6.61783 18.3274 6.44813 19.0486C6.40571 19.2607 6.53298 19.4728 6.7451 19.5577C7.16934 19.685 7.29661 19.8547 7.29661 19.9395C7.29661 20.0244 7.12692 20.194 6.70268 20.2789C6.49055 20.3213 6.36328 20.5334 6.36328 20.7456C6.44813 21.4244 6.7451 22.1031 7.12692 22.6971C7.25419 22.8668 7.50874 22.9516 7.67843 22.8244C8.01783 22.6122 8.27237 22.6547 8.35722 22.6971C8.44207 22.7819 8.39964 23.0365 8.18752 23.3759C8.06025 23.5456 8.10268 23.8001 8.27237 23.9274C8.86631 24.3516 9.50268 24.6062 10.1815 24.7759C10.3936 24.8183 10.6057 24.691 10.6481 24.4789C10.7754 24.0971 10.9451 23.9274 11.0299 23.9274C11.1148 23.9274 11.2845 24.0971 11.3693 24.5213C11.4118 24.7334 11.5815 24.8607 11.7936 24.8607H11.8784C12.5572 24.7759 13.236 24.5213 13.8299 24.0971C13.8724 24.0971 13.8724 24.0547 13.9148 24.0547C14.0421 23.9274 14.0845 23.7153 13.9996 23.5456C13.8299 23.2062 13.7875 22.9516 13.8724 22.8668C13.9148 22.8244 14.1693 22.8244 14.5087 23.0365C14.6784 23.1213 14.8906 23.1213 15.0178 22.994C15.0603 22.994 15.0603 22.9516 15.0603 22.9516C15.4845 22.3577 15.739 21.7213 15.8663 21.0425C16.036 20.788 15.9087 20.5759 15.6966 20.491ZM14.2966 20.1092C14.2966 20.5334 14.5936 20.9577 15.1027 21.1698C15.0178 21.5092 14.8906 21.8062 14.7209 22.1031C14.2118 21.891 13.7027 21.9334 13.4057 22.2304C13.0663 22.5274 13.0239 23.0365 13.1936 23.5456C12.8966 23.7153 12.5996 23.8425 12.2603 23.9274C12.0481 23.4183 11.6663 23.0789 11.2421 23.0789C10.8178 23.0789 10.436 23.3759 10.1815 23.885C9.84207 23.8001 9.5451 23.6728 9.24813 23.5031C9.46025 22.994 9.41783 22.485 9.12086 22.188C8.82389 21.891 8.3148 21.8062 7.80571 21.9759C7.63601 21.6789 7.50874 21.3395 7.42389 21.0425C7.93298 20.8304 8.27237 20.4486 8.27237 19.9819C8.27237 19.5577 7.9754 19.1334 7.46631 18.9213C7.55116 18.5819 7.67843 18.285 7.84813 17.988C8.35722 18.2001 8.86631 18.1577 9.20571 17.8607C9.50268 17.5637 9.58752 17.0547 9.3754 16.5456C9.67237 16.3759 9.96934 16.2486 10.3087 16.1637C10.5209 16.6728 10.9027 17.0122 11.3693 17.0122C11.836 17.0122 12.1754 16.7153 12.4299 16.2062C12.7693 16.291 13.0663 16.4183 13.3633 16.6304C13.1512 17.1395 13.1936 17.6486 13.4906 17.9456C13.7875 18.285 14.2966 18.3274 14.8057 18.1577C14.9754 18.4547 15.1027 18.794 15.1451 19.091C14.5936 19.3031 14.2966 19.6425 14.2966 20.1092Z" fill="#0048B4"/>
<path d="M13.8306 19.982C13.8306 20.6608 13.5761 21.3396 13.1094 21.8062C12.6427 22.3153 12.0064 22.5699 11.2851 22.5699H11.2427C10.5639 22.5699 9.92757 22.3153 9.4609 21.8486C8.95181 21.382 8.69727 20.7456 8.69727 20.0244C8.69727 19.3456 8.95181 18.6668 9.41848 18.2002C9.88514 17.6911 10.5215 17.4365 11.2427 17.4365C11.9215 17.4365 12.6003 17.6911 13.067 18.1577C13.5336 18.6668 13.8306 19.3032 13.8306 19.982Z" fill="#0048B4"/>
<path d="M7.29729 11.5819H10.9458C11.2003 11.5819 11.37 11.4122 11.37 11.1576C11.37 10.9031 11.2003 10.7334 10.9458 10.7334H7.29729C7.04274 10.7334 6.87305 10.9031 6.87305 11.1576C6.87305 11.4122 7.04274 11.5819 7.29729 11.5819Z" fill="#0048B4"/>
<path d="M20.4057 20.4062H18.1996C17.9451 20.4062 17.7754 20.5759 17.7754 20.8305C17.7754 21.085 17.9451 21.2547 18.1996 21.2547H20.4057C20.6602 21.2547 20.8299 21.085 20.8299 20.8305C20.8299 20.5759 20.6178 20.4062 20.4057 20.4062Z" fill="#0048B4"/>
<path d="M20.4903 18.1578C20.4903 18.9638 19.854 19.6002 19.0479 19.6002C18.2418 19.6002 17.6055 18.9638 17.6055 18.1578C17.6055 17.3517 18.2418 16.7153 19.0479 16.7153C19.854 16.7153 20.4903 17.3517 20.4903 18.1578Z" fill="#0048B4"/>
<path d="M10.1398 13.5333C10.1398 14.2969 9.50348 14.9333 8.73984 14.9333C7.97621 14.9333 7.33984 14.2969 7.33984 13.5333C7.33984 12.7697 7.97621 12.1333 8.73984 12.1333C9.5459 12.1333 10.1398 12.7697 10.1398 13.5333Z" fill="#0048B4"/>
</svg>
