<svg width="32" height="32" viewBox="0 0 32 32" fill="none" xmlns="http://www.w3.org/2000/svg">
<g clip-path="url(#clip0_3002_11895)">
<path d="M14.4995 32C13.1215 32 11.9995 30.878 11.9995 29.5V16.786C11.9995 16.533 11.9045 16.29 11.7315 16.105L0.667545 4.202C0.177545 3.674 -0.0614552 2.959 0.0135448 2.24C0.141545 0.984 1.27754 0 2.59854 0H29.4005C30.7215 0 31.8575 0.984 31.9855 2.24C32.0595 2.959 31.8205 3.675 31.3305 4.202L20.2675 16.105C20.0945 16.291 19.9995 16.533 19.9995 16.786V27C19.9995 27.939 19.5515 28.836 18.8005 29.4L15.9985 31.5C15.5635 31.827 15.0445 32 14.4995 32ZM2.59854 2C2.30054 2 2.02754 2.203 2.00254 2.444C1.98154 2.645 2.07554 2.778 2.13254 2.84L13.1965 14.743C13.7145 15.3 13.9995 16.025 13.9995 16.786V29.5C13.9995 29.776 14.2235 30 14.4995 30C14.6375 30 14.7375 29.946 14.7985 29.901L17.5995 27.8C17.8495 27.612 17.9995 27.313 17.9995 27V16.786C17.9995 16.025 18.2845 15.3 18.8025 14.743L29.8665 2.84C29.9245 2.778 30.0175 2.644 29.9965 2.444C29.9715 2.203 29.6985 2 29.4005 2H2.59854Z" fill="#0048B4"/>
</g>
<defs>
<clipPath id="clip0_3002_11895">
<rect width="32" height="32" fill="white"/>
</clipPath>
</defs>
</svg>
