<svg width="74" height="84" viewBox="0 0 74 84" fill="none" xmlns="http://www.w3.org/2000/svg">
<g filter="url(#filter0_d_3080_3768)">
<path d="M62.2898 55.0001H66.6579L69.9999 74.7775H66.7752L66.1888 70.8503V70.9068H62.5243L61.938 74.7775H58.9478L62.2898 55.0001ZM65.8077 68.2227L64.3712 58.447H64.3126L62.9054 68.2227H65.8077Z" fill="white"/>
<path d="M62.2898 55.0001H66.6579L69.9999 74.7775H66.7752L66.1888 70.8503V70.9068H62.5243L61.938 74.7775H58.9478L62.2898 55.0001ZM65.8077 68.2227L64.3712 58.447H64.3126L62.9054 68.2227H65.8077Z" fill="#0048B4"/>
</g>
<g filter="url(#filter1_d_3080_3768)">
<path d="M47.2876 55.0001H51.3332L54.47 66.8383H54.5287V55.0001H57.4017V74.7775H54.0889L50.2192 60.34H50.1606V74.7775H47.2876V55.0001Z" fill="white"/>
<path d="M47.2876 55.0001H51.3332L54.47 66.8383H54.5287V55.0001H57.4017V74.7775H54.0889L50.2192 60.34H50.1606V74.7775H47.2876V55.0001Z" fill="#0048B4"/>
</g>
<g filter="url(#filter2_d_3080_3768)">
<path d="M41.6475 55.0001H44.8722V74.7775H41.6475V55.0001Z" fill="white"/>
<path d="M41.6475 55.0001H44.8722V74.7775H41.6475V55.0001Z" fill="#0048B4"/>
</g>
<g filter="url(#filter3_d_3080_3768)">
<path d="M25.8726 55.0001H30.4752L32.5273 69.155H32.5859L34.6381 55.0001H39.2407V74.7775H36.1918V59.8032H36.1332L33.7879 74.7775H31.0908L28.7455 59.8032H28.6869V74.7775H25.8726V55.0001Z" fill="white"/>
<path d="M25.8726 55.0001H30.4752L32.5273 69.155H32.5859L34.6381 55.0001H39.2407V74.7775H36.1918V59.8032H36.1332L33.7879 74.7775H31.0908L28.7455 59.8032H28.6869V74.7775H25.8726V55.0001Z" fill="#0048B4"/>
</g>
<g filter="url(#filter4_d_3080_3768)">
<path d="M18.7678 75.06C17.2043 75.06 16.0121 74.6362 15.1912 73.7886C14.3704 72.9222 13.96 71.6884 13.96 70.0874V55.0001H17.1847V70.3134C17.1847 70.9915 17.3215 71.4812 17.5952 71.7826C17.8883 72.084 18.2987 72.2347 18.8264 72.2347C19.3541 72.2347 19.7548 72.084 20.0284 71.7826C20.3216 71.4812 20.4681 70.9915 20.4681 70.3134V55.0001H23.5756V70.0874C23.5756 71.6884 23.1652 72.9222 22.3444 73.7886C21.5235 74.6362 20.3313 75.06 18.7678 75.06Z" fill="white"/>
<path d="M18.7678 75.06C17.2043 75.06 16.0121 74.6362 15.1912 73.7886C14.3704 72.9222 13.96 71.6884 13.96 70.0874V55.0001H17.1847V70.3134C17.1847 70.9915 17.3215 71.4812 17.5952 71.7826C17.8883 72.084 18.2987 72.2347 18.8264 72.2347C19.3541 72.2347 19.7548 72.084 20.0284 71.7826C20.3216 71.4812 20.4681 70.9915 20.4681 70.3134V55.0001H23.5756V70.0874C23.5756 71.6884 23.1652 72.9222 22.3444 73.7886C21.5235 74.6362 20.3313 75.06 18.7678 75.06Z" fill="#0048B4"/>
</g>
<g filter="url(#filter5_d_3080_3768)">
<path d="M4 55.0001H7.22477V71.9521H12.531V74.7775H4V55.0001Z" fill="white"/>
<path d="M4 55.0001H7.22477V71.9521H12.531V74.7775H4V55.0001Z" fill="#0048B4"/>
</g>
<path fill-rule="evenodd" clip-rule="evenodd" d="M58.8715 31.3952L64.8497 34.95V34.971L63.9008 35.5355L56.1196 30.9211V29.764L58.8715 31.3952ZM65.5003 34.5946V34.5667V33.4096V33.4026V33.3886V33.3746V33.3607V33.3538V33.3398V33.3259V33.3189V33.305V33.291V33.2771V33.2702V33.2562V33.2423V33.2354V33.2214V33.2075V33.1935V33.1865V33.1726V33.1586V33.1447V33.1376V33.1237V33.1098V33.1028V33.0889V33.0749V33.061V33.054V33.0401V33.0262V33.0192V33.0052V32.9913V32.9774V32.9704V32.9565V32.9424V32.9354V32.9215V32.9076V32.8936V32.8867V32.8726V32.8587V32.8448V32.8378V32.8239V32.81V32.803V32.7891V32.7752V32.7612V32.7542V32.7403V32.7264V32.7124V32.7054V32.6915V32.6774V32.6705V32.6566V32.6426V31.4925V31.4785V31.4646V31.4577V31.4437V31.4298V31.4159V31.409V31.395V31.381V31.374V31.3601V31.3462V31.3322V31.3253V31.3112V31.2973V31.2903V31.2764V31.2624V31.2485V31.2416V31.2276V31.2137V31.1998V31.1928V31.1789V31.1649V31.158V31.1441V31.1301V31.1161V31.1091V31.0952V31.0813V31.0673V31.0604V31.0463V31.0324V31.0254V31.0115V30.9975V30.9836V30.9766V30.9627V30.9488V30.9418V30.9279V30.9139V30.9V30.8931V30.8791V30.8652V30.8581V30.8442V30.8303V30.8163V30.8093V30.7953V30.7814V30.7675V30.7605V30.7466V30.7326V30.7257V29.5687V28.8019V27.6517V26.8779V25.7279V24.9611V23.804V23.0372V21.8871V21.8732V21.8593V21.8523V21.8384V21.8244V21.8105V21.8036V21.7896V21.7757V21.7687V21.7548V21.7408V21.7268V21.7199V21.706V21.692V21.6849V21.671V21.6571V21.6431V21.6362V21.6223V21.6083V21.5944V21.5875V21.5735V21.5596V21.5527V21.5387V21.5248V21.5109V21.5039V21.4898V21.4759V21.4689V21.455V21.4411V21.4272V21.4201V21.4061V21.3922V21.3852V21.3713V21.3574V21.3434V21.3365V21.3226V21.3086V21.2947V21.2878V21.2738V21.2599V21.2529V21.239V21.2249V21.211V21.204V21.1901V21.1762V21.1692V21.1552V21.1412V21.1273V21.1203V19.9633V19.9494V19.9424V19.9285V19.9145V19.9075V19.8935V19.8796V19.8657V19.8585V19.8447V19.8307V19.8238V19.8098V19.7959V19.782V19.775V19.7611V19.7472V19.7402V19.7263V19.7123V19.6984V19.6914V19.6775V19.6635V19.6496V19.6426V19.6287V19.6148V19.6078V19.5937V19.5798V19.5659V19.5589V19.545V19.5311V19.5241V19.5101V19.4962V19.4823V19.4753V19.4614V19.4474V19.4404V19.4265V19.4126V19.3986V19.3916V19.3776V19.3637V19.3498V19.3428V19.3287V19.3148V19.3078V19.2939V19.28V19.2661V19.2591V19.2452V19.2312V19.2242V19.2103V19.1964V18.0462V18.0322V18.0183V18.0043V17.9973V17.9834V17.9695V17.9625V17.9486V17.9346V17.9207V17.9137V17.8998V17.8859V17.8789V17.865V17.8511V17.837V17.83V17.8161V17.8022V17.7952V17.7813V17.7673V17.7533V17.7464V17.7324V17.7185V17.7046V17.6976V17.6837V17.6697V17.6628V17.6488V17.6349V17.621V17.614V17.6001V17.5862V17.5791V17.5652V17.5512V17.5373V17.5304V17.5163V17.5024V17.4884V17.4815V17.4675V17.4536V17.4466V17.4327V17.4188V17.4048V17.3978V17.3839V17.37V17.363V17.3491V17.3352V17.3211V17.3142V17.3002V17.2863V17.2793V16.1222V16.1083V16.1013V16.0874V16.0735V16.0596V16.0526V16.0386V16.0247V16.0176V16.0037V15.9898V15.9758V15.9689V15.9548V15.9409V15.927V15.92V15.906V15.8921V15.8851V15.8712V15.8573V15.8434V15.8364V15.8225V15.8086V15.8016V15.7877V15.7737V15.7597V15.7527V15.7388V15.7248V15.7179V15.704V15.6899V15.676V15.669V15.6551V15.6412V15.6272V15.6202V15.6063V15.5924V15.5854V15.5715V15.5576V15.5437V15.5367V15.5228V15.5089V15.5018V15.4879V15.4739V15.46V15.453V15.4391V15.4251V15.4181V15.4042V15.3902V15.3763V15.3693V15.3554V14.1983V14.1913V14.1774V14.1635V14.1565V14.1425V14.1285V14.1145V14.1076V14.0937V14.0797V14.0728V14.0589V14.0449V14.031V14.0241V14.0101V13.9962V13.9823V13.9753V13.9613V13.9474V13.9404V13.9264V13.9125V13.8986V13.8916V13.8776V13.8636V13.8566V13.8427V13.8288V13.8148V13.8079V13.794V13.78V13.7731V13.7592V13.7452V13.7313V13.7243V13.7104V13.6964V13.6825V13.6754V13.6615V13.6476V13.6406V13.6267V13.6126V13.5987V13.5917V13.5778V13.5638V13.5499V13.5429V13.529V13.5151V13.5081V13.4942V13.4803V13.4663V13.4594V13.4455V13.4315V12.2813V12.2674V12.2534V12.2465V12.2325V12.2186V12.2116V12.1977V12.1838V12.1698V12.1629V12.149V12.135V12.1211V12.114V12.1001V12.0861V12.0792V12.0652V12.0512V12.0373V12.0303V12.0164V12.0025V11.9955V11.9815V11.9676V11.9537V11.9467V11.9328V11.9188V11.9118V11.8979V11.884V11.87V11.863V11.849V11.8351V11.8212V11.8142V11.8002V11.7862V11.7792V11.7653V11.7514V11.7375V11.7305V11.7166V11.7026V11.6956V11.6817V11.6678V11.6538V11.6469V11.6329V11.619V11.612V11.5981V11.5841V11.5702V11.5632V11.5493V11.5353V11.5213V11.5143V10.3573V10.3504V10.3364V10.3225V10.3086V10.3016V10.2876V10.2736V10.2667V10.2528V10.2388V10.2248V10.2178V10.2039V10.19V10.176V10.169V10.1551V10.1412V10.1342V10.1203V10.1064V10.0924V10.0855V10.0716V10.0577V10.0507V10.0367V10.0227V10.0087V10.0018V9.98787V9.97393V9.96686V9.95292V9.93899V9.92506V9.91807V9.90414V9.8902V9.87627V9.86928V9.85535V9.84142V9.83443V9.82054V9.80661V9.79268V9.78573V9.77167V9.75774V9.75075V9.73682V9.72288V9.70895V9.70187V9.68794V9.67401V9.66008V9.65309V9.63916V9.62522V9.61824V9.6043V9.59037V8.44025V8.42632V8.41239V8.40531V8.39137V8.37744V8.36351V8.35652V8.34263V8.3287V8.32176V8.30782V8.29389V8.27996V8.27301V8.25908V8.24515V8.23227V8.22532V8.21126V8.19732V8.19038V8.17645V8.16256V8.14862V8.14155V8.12762V8.11369V8.09975V8.09277V8.07883V8.0649V8.05796V8.04402V8.03013V8.0162V8.00926V7.99532V7.98139V7.9744V7.96047V7.9464V7.93247V7.92553V7.91159V7.89766V7.89072V7.87666V7.86272V7.84879V7.8418V7.82787V7.81394V7.80001V7.79306V7.77913V7.7652V7.75825V7.74432V7.73039V7.7165V7.70951V7.69558V7.68151V7.67452V6.51742V6.13416V5.75064L55.8011 0L55.6383 0.0976152L46.2779 5.65311L46.1154 5.7506V22.2358V22.6192L37.4055 17.4471L37.0803 17.2659L36.755 17.461L28.0451 22.6331V22.2498V17.2518V16.4852V6.14106V5.75754L18.3459 0.0139766L18.1833 0.104647L8.82961 5.66713L8.66699 5.75767V5.9529V21.3089V34.5876L18.0206 40.136V38.9929V38.2262V37.0761V36.3093V35.1522V34.3854V33.2354V32.4686V31.3113V30.5447V29.3876V28.6208V27.4707V26.7041V25.5468V24.78V23.63V22.8632V21.7061V20.9394V19.7892V19.0155V17.8655V17.0987V15.9415V15.1747V14.0247V13.2579V12.1008V11.334V10.1838V9.41012V8.26009V7.49331V6.3362V5.56943V4.41935V3.65258V2.4956V1.72883V0.969039L9.3108 6.14114V21.3088V34.971L8.66703 34.5876V35.3543L25.4899 45.329L37.0803 52.1951L37.6835 51.8394L36.755 51.2818V51.2331V50.4872V49.7204V48.5704V47.8036V46.6464V45.8796V44.7296V43.9628V42.8057V42.0389V40.8818V40.115V38.965V38.1983V37.0412V36.2745V35.1243V34.3575V33.2004V32.4338V31.2765V30.5098V29.3597V28.593V27.4358V26.6691V25.5189V24.7521V23.5952V22.8284V21.6711V20.9044V19.7543V18.9876V18.2278L28.0452 23.3999V31.4996V32.4127V46.0819L37.6835 51.8394L37.7309 51.8116L46.1154 46.8417L46.1358 46.8347L48.6707 45.329L55.7605 41.1258L65.5004 35.3474V34.5946H65.5003ZM46.1357 23.4V24.1667L46.1153 24.1598V24.543L37.4055 19.371V18.2209L40.1506 19.852L46.1153 23.3931L46.1357 23.4ZM46.1357 25.3237V26.0905L46.1153 26.0766L46.1221 26.467L37.4055 21.2949V20.1378L40.1506 21.7689L46.1153 25.3098L46.1357 25.3237ZM46.1357 27.2407V28.0145L46.1153 28.0005V28.3838L37.4055 23.2117V22.0617L40.1506 23.6927L46.1221 27.2338L46.1357 27.2407ZM46.1357 29.1645V29.9313L46.1221 29.9243H46.1154V30.3077L37.4055 25.1356V23.9785L40.1507 25.6096L46.1221 29.1576L46.1357 29.1645ZM46.1357 31.0814V31.8552L46.1221 31.8482L46.1154 31.8412V32.2246L37.4055 27.0525V25.9024L40.1507 27.5336L46.1221 31.0745L46.1357 31.0814ZM46.1357 33.0053V33.7721H46.1221L46.1154 33.7651V34.1484L37.4055 28.9764V27.8263L40.1507 29.4573L46.1221 32.9984L46.1357 33.0053ZM46.1357 34.9221V35.6958L46.1289 35.6889L46.1154 35.6819V36.0653L37.4055 30.9002V29.743L40.1507 31.3742L46.1221 34.9221H46.1357ZM46.1357 36.846V37.6127H46.1289L46.1154 37.6058V37.9891L37.4055 32.817V31.667L40.1507 33.298L46.129 36.846H46.1357ZM46.1289 38.7629V39.5366L46.1154 39.5296V39.913L37.4055 34.7409V33.5838L40.1507 35.2148L46.1289 38.7629ZM46.1357 40.6868V41.4605L46.1153 41.4464V41.83L37.4055 36.6579V35.5077L40.1506 37.1389L46.1357 40.6868ZM46.1357 42.6107V43.3774L46.1153 43.3704V43.7538L37.4055 38.5816V37.4247L40.1506 39.0627L46.1357 42.6107ZM46.1357 44.5274V45.3012L46.1153 45.2872V45.6706L37.4055 40.4985V39.3484L40.1506 40.9795L46.1357 44.5274ZM46.7794 45.6845V39.92L46.7659 6.13416L55.4758 0.96205V1.72184V2.48861V3.63865V4.40542V5.56253V6.32931V7.47947V8.25319V9.40322V10.17V11.3271V12.0939V13.244V14.0108V15.1678V15.9346V17.0848V17.8585V19.0086V19.7753V20.9325V21.6992V22.8494V23.6162V24.7731V25.5399V26.6901V27.4569V28.614V29.3807V30.5377V31.3045V32.4547V33.2215V34.3785V35.1453V36.2954V37.0622V38.2193V38.986V40.5335L46.7794 45.6845ZM56.1196 40.1499V39.3692L56.7771 39.7597L56.1196 40.1499ZM57.4209 39.3763L56.1195 38.6026V37.4525L58.3969 38.7978L57.4209 39.3763ZM59.0477 38.4143L56.1196 36.6787V35.5286L58.8715 37.1598L60.0168 37.8429L59.0477 38.4143ZM60.6608 37.4524L56.1195 34.7618V33.6117L58.8714 35.2428L61.6301 36.881L60.6608 37.4524ZM62.2809 36.4974L56.1196 32.838V31.6879L58.8715 33.319L63.25 35.9189L62.2809 36.4974ZM64.8497 34.1833L56.1195 28.9973V27.8471L58.8714 29.4782L64.8497 33.0262V34.1833ZM64.8497 32.2595L56.1195 27.0804V25.9234L58.8714 27.5544L64.8497 31.1093V32.2595ZM64.8497 30.3355L56.1195 25.1566V24.0063L58.8714 25.6375L64.8497 29.1854V30.3355ZM64.8497 28.4186L56.1195 23.2326V22.0826L58.8714 23.7136L64.8497 27.2617V28.4186ZM64.8497 26.4949L56.1195 21.3158V20.1587L58.8714 21.7899L64.8497 25.3448V26.4949ZM64.8497 24.578L56.1195 19.392V18.2418L58.8714 19.873L64.8497 23.4209V24.578ZM64.8497 22.6541L56.1195 17.475V16.318L58.8714 17.9491L64.8497 21.5041V22.6541ZM64.8497 20.7303L56.1195 15.5512V14.4011L58.8714 16.0322L64.8497 19.5801V20.7303ZM64.8497 18.8133L56.1195 13.6343V12.4772L58.8714 14.1083L64.8497 17.6563V18.8133ZM64.8497 16.8895L56.1195 11.7104V10.5533L58.8714 12.1845L64.8497 15.7394V16.8895ZM64.8497 14.9726L56.1195 9.78673V8.63649L58.8714 10.2677L64.8497 13.8156V14.9726ZM64.8497 13.0488L56.1195 7.86967V6.71265L58.8714 8.34368L64.8497 11.8987V13.0488ZM64.8497 11.125L56.1195 5.94587V4.79575L58.8714 6.42692L64.8497 9.97485V11.125ZM64.8497 9.20808L56.1195 4.02898V2.87187L58.8714 4.50299L64.8497 8.05791V9.20808ZM64.8497 7.28419L56.1195 2.10509V0.955063L58.8714 2.5861L64.8497 6.13416V7.28419ZM25.4898 44.5623L27.4013 45.6985V44.5623L21.4162 41.0144L18.6711 39.3833V40.5125L18.0477 40.15L25.4898 44.5623ZM65.5003 34.5946L64.8497 34.971L65.5003 34.5946ZM27.4013 20.7443L18.6712 15.5583V14.408L21.4163 16.0392L27.4013 19.587V20.7443ZM27.4013 18.8203L18.6712 13.6413V12.4912L21.4163 14.1222L27.4013 17.6702V18.8203ZM27.4013 16.9035L18.6712 11.7174V10.5674L21.4163 12.1984L27.4013 15.7464V16.8687V16.9035ZM21.4163 17.963L27.4013 21.511V22.6611L18.6712 17.482V16.3319L21.4163 17.963ZM21.4163 19.8799L27.4013 23.4348V24.585L18.6712 19.4059V18.2488L21.4163 19.8799ZM21.4163 21.8037L27.4013 25.3517V26.5088L18.6712 21.3227V20.1726L21.4163 21.8037ZM21.4163 23.7206L27.4013 27.2756V28.4256L18.6712 23.2465V22.0896L21.4163 23.7206ZM21.4163 25.6444L27.4013 29.1924V30.3496L18.6712 25.1636V24.0133L21.4163 25.6444ZM21.4163 27.5683L27.4013 31.1162V32.2664L18.6712 27.0873V25.9372L21.4163 27.5683ZM21.4163 29.4851L27.4013 33.0402V34.1903L18.6712 29.0112V27.8541L21.4163 29.4851ZM21.4163 31.4091L27.4013 34.9569V36.1141L18.6712 30.9281V29.7779L21.4163 31.4091ZM21.4163 33.3259L27.4013 36.881V38.031L18.6712 32.8519V31.6949L21.4163 33.3259ZM21.4163 35.2498L27.4013 38.7977V39.9548L18.6712 34.7689V33.6186L21.4163 35.2498ZM27.4013 14.9796L18.6712 9.80063V8.64339L21.4163 10.2746L27.4013 13.8295V14.9796ZM27.4013 13.0558L18.6712 7.87666V6.72662L21.4163 8.35766L27.4013 11.9057V13.0558ZM27.4013 11.1389L18.6712 5.95985V4.80274L21.4163 6.43391L27.4013 9.98184V11.1389ZM21.4163 37.1737L27.4013 40.7216V41.8717L18.6712 36.6926V35.5425L21.4163 37.1737ZM21.4163 39.0904L27.4013 42.6385V43.7955L18.6712 38.6096V37.4594L21.4163 39.0904ZM27.4013 9.21506L18.6712 4.03596V2.88585L21.4163 4.51697L27.4013 8.0649V9.21506ZM27.4013 7.29813L18.6712 2.11208V0.969039V0.96205L21.4163 2.59309L27.4013 6.14114V7.29813ZM44.8343 46.8347L37.4055 42.4224V41.2723L40.1506 42.9034L45.8036 46.2563L44.8343 46.8347ZM43.2143 47.7966L37.4055 44.3462V43.1891L40.1507 44.8202L44.1836 47.2181L43.2143 47.7966ZM41.5944 48.7515L37.4055 46.2632V45.113L40.1506 46.7441L42.5705 48.18L41.5944 48.7515ZM39.9743 49.7135L37.4055 48.1869V47.0299L40.1506 48.6609L40.9504 49.135L39.9743 49.7135ZM38.3545 50.6685L37.4055 50.1039V48.9537L39.3305 50.0967L38.3545 50.6685ZM37.4055 51.2331V50.8777L37.7107 51.0518L37.4055 51.2331Z" fill="#0048B4"/>
<defs>
<filter id="filter0_d_3080_3768" x="54.9478" y="55.0001" width="19.0522" height="27.7774" filterUnits="userSpaceOnUse" color-interpolation-filters="sRGB">
<feFlood flood-opacity="0" result="BackgroundImageFix"/>
<feColorMatrix in="SourceAlpha" type="matrix" values="0 0 0 0 0 0 0 0 0 0 0 0 0 0 0 0 0 0 127 0" result="hardAlpha"/>
<feOffset dy="4"/>
<feGaussianBlur stdDeviation="2"/>
<feComposite in2="hardAlpha" operator="out"/>
<feColorMatrix type="matrix" values="0 0 0 0 0.48769 0 0 0 0 0.640654 0 0 0 0 0.870101 0 0 0 0.15 0"/>
<feBlend mode="normal" in2="BackgroundImageFix" result="effect1_dropShadow_3080_3768"/>
<feBlend mode="normal" in="SourceGraphic" in2="effect1_dropShadow_3080_3768" result="shape"/>
</filter>
<filter id="filter1_d_3080_3768" x="43.2876" y="55.0001" width="18.1143" height="27.7774" filterUnits="userSpaceOnUse" color-interpolation-filters="sRGB">
<feFlood flood-opacity="0" result="BackgroundImageFix"/>
<feColorMatrix in="SourceAlpha" type="matrix" values="0 0 0 0 0 0 0 0 0 0 0 0 0 0 0 0 0 0 127 0" result="hardAlpha"/>
<feOffset dy="4"/>
<feGaussianBlur stdDeviation="2"/>
<feComposite in2="hardAlpha" operator="out"/>
<feColorMatrix type="matrix" values="0 0 0 0 0.48769 0 0 0 0 0.640654 0 0 0 0 0.870101 0 0 0 0.15 0"/>
<feBlend mode="normal" in2="BackgroundImageFix" result="effect1_dropShadow_3080_3768"/>
<feBlend mode="normal" in="SourceGraphic" in2="effect1_dropShadow_3080_3768" result="shape"/>
</filter>
<filter id="filter2_d_3080_3768" x="37.6475" y="55.0001" width="11.2246" height="27.7774" filterUnits="userSpaceOnUse" color-interpolation-filters="sRGB">
<feFlood flood-opacity="0" result="BackgroundImageFix"/>
<feColorMatrix in="SourceAlpha" type="matrix" values="0 0 0 0 0 0 0 0 0 0 0 0 0 0 0 0 0 0 127 0" result="hardAlpha"/>
<feOffset dy="4"/>
<feGaussianBlur stdDeviation="2"/>
<feComposite in2="hardAlpha" operator="out"/>
<feColorMatrix type="matrix" values="0 0 0 0 0.48769 0 0 0 0 0.640654 0 0 0 0 0.870101 0 0 0 0.15 0"/>
<feBlend mode="normal" in2="BackgroundImageFix" result="effect1_dropShadow_3080_3768"/>
<feBlend mode="normal" in="SourceGraphic" in2="effect1_dropShadow_3080_3768" result="shape"/>
</filter>
<filter id="filter3_d_3080_3768" x="21.8726" y="55.0001" width="21.3682" height="27.7774" filterUnits="userSpaceOnUse" color-interpolation-filters="sRGB">
<feFlood flood-opacity="0" result="BackgroundImageFix"/>
<feColorMatrix in="SourceAlpha" type="matrix" values="0 0 0 0 0 0 0 0 0 0 0 0 0 0 0 0 0 0 127 0" result="hardAlpha"/>
<feOffset dy="4"/>
<feGaussianBlur stdDeviation="2"/>
<feComposite in2="hardAlpha" operator="out"/>
<feColorMatrix type="matrix" values="0 0 0 0 0.48769 0 0 0 0 0.640654 0 0 0 0 0.870101 0 0 0 0.15 0"/>
<feBlend mode="normal" in2="BackgroundImageFix" result="effect1_dropShadow_3080_3768"/>
<feBlend mode="normal" in="SourceGraphic" in2="effect1_dropShadow_3080_3768" result="shape"/>
</filter>
<filter id="filter4_d_3080_3768" x="9.95996" y="55.0001" width="17.6157" height="28.06" filterUnits="userSpaceOnUse" color-interpolation-filters="sRGB">
<feFlood flood-opacity="0" result="BackgroundImageFix"/>
<feColorMatrix in="SourceAlpha" type="matrix" values="0 0 0 0 0 0 0 0 0 0 0 0 0 0 0 0 0 0 127 0" result="hardAlpha"/>
<feOffset dy="4"/>
<feGaussianBlur stdDeviation="2"/>
<feComposite in2="hardAlpha" operator="out"/>
<feColorMatrix type="matrix" values="0 0 0 0 0.48769 0 0 0 0 0.640654 0 0 0 0 0.870101 0 0 0 0.15 0"/>
<feBlend mode="normal" in2="BackgroundImageFix" result="effect1_dropShadow_3080_3768"/>
<feBlend mode="normal" in="SourceGraphic" in2="effect1_dropShadow_3080_3768" result="shape"/>
</filter>
<filter id="filter5_d_3080_3768" x="0" y="55.0001" width="16.5308" height="27.7774" filterUnits="userSpaceOnUse" color-interpolation-filters="sRGB">
<feFlood flood-opacity="0" result="BackgroundImageFix"/>
<feColorMatrix in="SourceAlpha" type="matrix" values="0 0 0 0 0 0 0 0 0 0 0 0 0 0 0 0 0 0 127 0" result="hardAlpha"/>
<feOffset dy="4"/>
<feGaussianBlur stdDeviation="2"/>
<feComposite in2="hardAlpha" operator="out"/>
<feColorMatrix type="matrix" values="0 0 0 0 0.48769 0 0 0 0 0.640654 0 0 0 0 0.870101 0 0 0 0.15 0"/>
<feBlend mode="normal" in2="BackgroundImageFix" result="effect1_dropShadow_3080_3768"/>
<feBlend mode="normal" in="SourceGraphic" in2="effect1_dropShadow_3080_3768" result="shape"/>
</filter>
</defs>
</svg>
