<svg width="42" height="42" viewBox="0 0 42 42" fill="none" xmlns="http://www.w3.org/2000/svg">
<path fill-rule="evenodd" clip-rule="evenodd" d="M19.2499 33.2496C19.25 33.5957 19.3526 33.934 19.5449 34.2217C19.7372 34.5094 20.0105 34.7336 20.3302 34.8661C20.65 34.9985 21.0018 35.0331 21.3412 34.9657C21.6806 34.8982 21.9924 34.7315 22.2371 34.4869L34.4871 22.2369C34.8152 21.9087 34.9995 21.4637 34.9995 20.9996C34.9995 20.5356 34.8152 20.0906 34.4871 19.7624L22.2371 7.51238C21.9924 7.26771 21.6806 7.1011 21.3412 7.03361C21.0018 6.96611 20.65 7.00077 20.3302 7.13319C20.0105 7.26561 19.7372 7.48986 19.5449 7.77758C19.3526 8.06529 19.25 8.40356 19.2499 8.74963V19.2496L8.74989 19.2496C8.28576 19.2496 7.84064 19.434 7.51245 19.7622C7.18426 20.0904 6.99989 20.5355 6.99989 20.9996C6.99989 21.4638 7.18426 21.9089 7.51245 22.2371C7.84064 22.5653 8.28576 22.7496 8.74989 22.7496L19.2499 22.7496L19.2499 33.2496Z" fill="#0048B4"/>
</svg>
