<svg width="28" height="28" viewBox="0 0 28 28" fill="none" xmlns="http://www.w3.org/2000/svg">
<g clip-path="url(#clip0_2100_781)">
<path d="M13.9999 0.806152C9.88472 0.806152 6.5332 4.15767 6.5332 8.23039C6.5332 12.3455 9.88472 15.6971 13.9999 15.6971C18.115 15.6971 21.4241 12.3455 21.4241 8.27282C21.4241 4.15767 18.115 0.806152 13.9999 0.806152ZM15.315 11.2001C15.1877 11.8365 14.6362 12.3031 13.9999 12.3031C13.915 12.3031 13.8302 12.3031 13.7453 12.2607C13.4059 12.1758 13.109 11.9637 12.8968 11.6668C12.6847 11.3698 12.6423 11.0304 12.6847 10.6486C12.7696 10.1395 13.9999 7.84858 14.3393 7.16979C14.4241 7.00009 14.5938 6.91524 14.8059 6.95767C14.9756 7.00009 15.1453 7.16979 15.1453 7.33949C15.1877 8.14555 15.3999 10.691 15.315 11.2001ZM17.7756 12.1334C17.6908 12.2183 17.6059 12.2607 17.4787 12.2607H17.4362H17.3938C17.309 12.2607 17.1817 12.2183 17.0968 12.1334L16.2908 11.3274C16.1211 11.1577 16.1211 10.9031 16.2908 10.7334C16.4605 10.5637 16.715 10.5637 16.8847 10.7334L17.3938 11.2425C17.9877 10.5637 18.412 9.71524 18.5393 8.82433H17.6908C17.4362 8.82433 17.2665 8.65464 17.2665 8.40009C17.2665 8.14555 17.4362 7.97585 17.6908 7.97585H18.5817C18.5393 7.00009 18.1999 6.06676 17.6059 5.34555L16.8847 6.06676C16.7999 6.15161 16.6726 6.19403 16.5877 6.19403C16.4605 6.19403 16.3756 6.15161 16.2908 6.06676C16.1211 5.89706 16.1211 5.64252 16.2908 5.47282L17.012 4.75161C16.2908 4.11524 15.3574 3.691 14.3817 3.60615V4.66676C14.3817 4.87888 14.212 5.091 13.9574 5.091C13.7029 5.091 13.5332 4.87888 13.5332 4.66676V3.60615C12.515 3.691 11.6241 4.11524 10.9029 4.75161L11.6241 5.47282C11.7938 5.64252 11.7938 5.89706 11.6241 6.06676C11.5393 6.15161 11.4544 6.19403 11.3271 6.19403C11.2423 6.19403 11.115 6.15161 11.0302 6.06676L10.309 5.34555C9.75745 6.06676 9.37563 7.00009 9.3332 7.97585H10.2241C10.4787 7.97585 10.6484 8.14555 10.6484 8.40009C10.6484 8.65464 10.4787 8.82433 10.2241 8.82433H9.37563C9.5029 9.71524 9.88472 10.5637 10.4787 11.2425L10.9877 10.7334C11.1574 10.5637 11.412 10.5637 11.5817 10.7334C11.7514 10.9031 11.7514 11.1577 11.5817 11.3274L10.7756 12.1334C10.6908 12.2183 10.5635 12.2607 10.4787 12.2607H10.4362C10.309 12.2607 10.1817 12.2183 10.0968 12.1334C8.99381 11.0728 8.44229 9.67282 8.44229 8.18797C8.44229 5.17585 10.9029 2.71524 13.915 2.71524C16.9271 2.71524 19.3877 5.17585 19.3877 8.18797C19.4726 9.71524 18.8787 11.1152 17.7756 12.1334Z" fill="#0048B4"/>
<path d="M6.61777 14.8062C3.22383 14.8062 0.423828 17.6062 0.423828 21.0001C0.423828 24.394 3.22383 27.194 6.61777 27.194C10.0117 27.194 12.8117 24.4365 12.8117 21.0001C12.8117 17.6062 10.0117 14.8062 6.61777 14.8062ZM6.87231 24.394C6.78746 24.394 6.70262 24.4365 6.57534 24.4365C6.36322 24.4365 6.1511 24.394 5.93898 24.2668C5.68443 24.0971 5.47231 23.8425 5.38746 23.5031C5.30262 23.0789 5.38746 20.8728 5.42989 20.194C5.42989 20.0243 5.55716 19.8546 5.76928 19.8122C5.93898 19.7698 6.1511 19.8546 6.23595 20.0243C6.57534 20.6183 7.63595 22.5274 7.76322 22.994C7.93292 23.588 7.5511 24.2243 6.87231 24.394ZM9.79959 24.2668C9.71474 24.3516 9.62989 24.394 9.50262 24.394H9.46019H9.41777C9.29049 24.394 9.20565 24.3516 9.1208 24.2668L8.48443 23.6304C8.31474 23.4607 8.31474 23.2062 8.48443 23.0365C8.65413 22.8668 8.90868 22.8668 9.07837 23.0365L9.46019 23.4183C9.92686 22.9092 10.1814 22.2728 10.3087 21.594H9.71474C9.46019 21.594 9.29049 21.4243 9.29049 21.1698C9.29049 20.9577 9.46019 20.7455 9.71474 20.7455H10.3511C10.3087 20.0243 10.0541 19.3455 9.62989 18.794L9.1208 19.3031C9.03595 19.388 8.9511 19.4304 8.82383 19.4304C8.73898 19.4304 8.61171 19.388 8.52686 19.3031C8.35716 19.1334 8.35716 18.8789 8.52686 18.7092L9.07837 18.1577C8.52686 17.691 7.84807 17.394 7.08443 17.3092V18.1152C7.08443 18.3274 6.91474 18.5395 6.66019 18.5395C6.40565 18.5395 6.23595 18.3274 6.23595 18.1152V17.3092C5.47231 17.394 4.79352 17.691 4.24201 18.1577L4.79353 18.7092C4.96322 18.8789 4.96322 19.1334 4.79353 19.3031C4.70868 19.388 4.62383 19.4304 4.49656 19.4304C4.41171 19.4304 4.28443 19.388 4.19959 19.3031L3.69049 18.794C3.26625 19.3455 3.01171 20.0243 2.96928 20.7455H3.60565C3.86019 20.7455 4.02989 20.9577 4.02989 21.1698C4.02989 21.4243 3.86019 21.594 3.60565 21.594H2.92686C3.01171 22.2728 3.30868 22.9092 3.77534 23.4183L4.15716 23.0365C4.32686 22.8668 4.5814 22.8668 4.7511 23.0365C4.9208 23.2062 4.9208 23.4607 4.7511 23.6304L4.11474 24.2668C4.02989 24.3516 3.94504 24.394 3.81777 24.394H3.77534C3.64807 24.394 3.5208 24.3516 3.43595 24.2668C2.54504 23.3758 2.03595 22.2304 2.03595 20.9577C2.03595 18.4122 4.07231 16.3758 6.61777 16.3758C9.1208 16.3758 11.1996 18.4122 11.1996 20.9577C11.1996 22.2304 10.6905 23.3758 9.79959 24.2668Z" fill="#0048B4"/>
<path d="M21.2969 14.6787C17.8605 14.6787 15.0605 17.4787 15.0605 20.9151C15.0605 24.3514 17.8605 27.1939 21.2969 27.1939C24.7333 27.1939 27.5757 24.3939 27.5757 20.9151C27.5757 17.4363 24.7757 14.6787 21.2969 14.6787ZM22.4848 23.4605C22.3575 24.012 21.8484 24.3939 21.2969 24.3939C21.2121 24.3939 21.1272 24.3939 21.0424 24.3514C20.406 24.1817 19.9818 23.5454 20.1515 22.909C20.2363 22.4423 21.3393 20.5333 21.6787 19.9393C21.7636 19.7696 21.9757 19.6848 22.1454 19.7272C22.3151 19.7696 22.4848 19.9393 22.4848 20.109C22.4848 20.8302 22.6121 23.0363 22.4848 23.4605ZM24.5212 24.2242C24.4363 24.309 24.3515 24.3514 24.2242 24.3514C24.2242 24.3514 24.2242 24.3514 24.1818 24.3514C24.1393 24.3514 24.1393 24.3514 24.1393 24.3514C24.0545 24.3514 23.9272 24.309 23.8424 24.2242L23.1636 23.5878C22.9939 23.4181 22.9939 23.1636 23.1636 22.9939C23.3333 22.8242 23.5878 22.8242 23.7575 22.9939L24.1818 23.3333C24.6484 22.8242 24.9454 22.1454 25.0302 21.4666H24.3939C24.1393 21.4666 23.9696 21.2969 23.9696 21.0423C23.9696 20.8302 24.1393 20.6181 24.3939 20.6181H25.0727C25.0302 19.8545 24.7757 19.1757 24.3515 18.6242L23.7999 19.1333C23.7151 19.2181 23.5878 19.2605 23.503 19.2605C23.4181 19.2605 23.2909 19.2181 23.206 19.1333C23.0363 18.9636 23.0363 18.709 23.206 18.5393L23.7575 17.9878C23.206 17.5211 22.4848 17.1817 21.7212 17.0969V17.9454C21.7212 18.1575 21.5515 18.3696 21.2969 18.3696C21.0424 18.3696 20.8727 18.1575 20.8727 17.9454V17.0969C20.109 17.1817 19.4302 17.5211 18.8363 17.9878L19.3878 18.5393C19.5575 18.709 19.5575 18.9636 19.3878 19.1333C19.303 19.2181 19.1757 19.2605 19.0908 19.2605C18.9636 19.2605 18.8787 19.2181 18.7939 19.1333L18.2848 18.6666C17.8605 19.2181 17.606 19.9393 17.5636 20.6605H18.2424C18.4969 20.6605 18.6666 20.8727 18.6666 21.0848C18.6666 21.3393 18.4969 21.509 18.2424 21.509H17.606C17.7333 22.1878 17.9878 22.8242 18.4545 23.3757L18.8363 22.9939C19.006 22.8242 19.2605 22.8242 19.4302 22.9939C19.5999 23.1636 19.5999 23.4181 19.4302 23.5878L18.7515 24.2242C18.6666 24.309 18.5818 24.3514 18.4545 24.3514H18.4121C18.2848 24.3514 18.1575 24.309 18.0727 24.2242C17.1393 23.3333 16.6727 22.1454 16.6727 20.8727C16.6727 18.3272 18.7515 16.2484 21.2969 16.2484C23.8424 16.2484 25.9212 18.3272 25.9212 20.8727C25.9212 22.1878 25.4545 23.3333 24.5212 24.2242Z" fill="#0048B4"/>
</g>
<defs>
<clipPath id="clip0_2100_781">
<rect width="28" height="28" fill="white"/>
</clipPath>
</defs>
</svg>
