<svg width="15" height="15" viewBox="0 0 15 15" fill="none" xmlns="http://www.w3.org/2000/svg">
<path d="M7.84986 13.0125C7.74786 13.0858 7.62544 13.1252 7.49986 13.1252C7.37428 13.1252 7.25186 13.0858 7.14986 13.0125C4.13174 10.8612 0.928613 6.43625 4.16674 3.23875C5.0557 2.36428 6.25288 1.87445 7.49986 1.875C8.74986 1.875 9.94924 2.36563 10.833 3.23813C14.0711 6.43563 10.868 10.86 7.84986 13.0125Z" stroke="black" stroke-linecap="round" stroke-linejoin="round"/>
<path d="M7.5 7.49994C7.83152 7.49994 8.14946 7.36824 8.38388 7.13382C8.6183 6.8994 8.75 6.58146 8.75 6.24994C8.75 5.91842 8.6183 5.60048 8.38388 5.36606C8.14946 5.13164 7.83152 4.99994 7.5 4.99994C7.16848 4.99994 6.85054 5.13164 6.61612 5.36606C6.3817 5.60048 6.25 5.91842 6.25 6.24994C6.25 6.58146 6.3817 6.8994 6.61612 7.13382C6.85054 7.36824 7.16848 7.49994 7.5 7.49994Z" stroke="black" stroke-linecap="round" stroke-linejoin="round"/>
</svg>
