<svg width="89" height="89" viewBox="0 0 89 89" fill="none" xmlns="http://www.w3.org/2000/svg">
<mask id="mask0_2622_3415" style="mask-type:luminance" maskUnits="userSpaceOnUse" x="0" y="0" width="89" height="89">
<path d="M0 7.62939e-06H89V89H0V7.62939e-06Z" fill="white"/>
</mask>
<g mask="url(#mask0_2622_3415)">
<path d="M62.9877 2.1248C60.4119 0.156197 57.1408 -0.484882 54.0126 0.36618L15.0996 10.9516C15.0996 10.9516 66.8576 10.9586 67.0407 10.9657C67.2145 6.90959 65.5633 4.0934 62.9877 2.1248Z" fill="#0048B4"/>
<path d="M41.3652 47.4448C41.3652 56.0733 43.4204 60.986 44.5001 62.0354C45.5797 60.9858 47.6349 56.0733 47.6349 47.4448C47.6349 38.8163 45.5797 33.9038 44.5001 32.8542C43.4204 33.9038 41.3652 38.8163 41.3652 47.4448Z" fill="#0048B4"/>
<path d="M50.9902 34.2395C52.1601 37.7694 52.8507 42.5458 52.8507 47.4448C52.8507 52.3438 52.1601 57.1205 50.9902 60.6504C55.8597 58.2477 59.2186 53.2321 59.2186 47.4448C59.2186 41.6578 55.8597 36.6421 50.9902 34.2395Z" fill="#0048B4"/>
<path d="M44.5003 67.3772C33.5095 67.3772 24.568 58.4356 24.568 47.4448C24.568 36.454 33.5095 27.5127 44.5003 27.5127C55.4911 27.5127 64.4327 36.454 64.4327 47.4448C64.4327 58.4356 55.4911 67.3772 44.5003 67.3772ZM59.3917 77.6541H29.6092V72.4392H59.3917V77.6541ZM66.4892 16.1665H13.5V89H66.4892C71.4661 89 75.5007 84.9655 75.5007 79.9886V25.178C75.5007 20.2011 71.4661 16.1665 66.4892 16.1665Z" fill="#0048B4"/>
<path d="M38.0115 60.6503C36.8417 57.1203 36.1509 52.3439 36.1509 47.4447C36.1509 42.5457 36.8415 37.7693 38.0115 34.2395C33.1421 36.642 29.7832 41.6576 29.7832 47.4447C29.7832 53.232 33.1421 58.2476 38.0115 60.6503Z" fill="#0048B4"/>
</g>
</svg>
