<svg width="96" height="96" viewBox="0 0 96 96" fill="none" xmlns="http://www.w3.org/2000/svg">
<path fill-rule="evenodd" clip-rule="evenodd" d="M48.3036 33.013C41.7075 33.013 36.3001 27.3235 36.3001 20.2527C36.3001 13.1832 41.7075 7.49376 48.3036 7.49376C54.8998 7.49376 60.3072 13.1832 60.3072 20.2527C60.3072 27.3235 54.8998 33.013 48.3036 33.013ZM43.8013 33.013H52.8059C60.9107 33.013 67.6525 38.8579 69.0466 46.5648C61.4075 46.5396 54.801 43.4882 50.5821 38.5637C50.0125 37.8983 49.1802 37.5158 48.3036 37.5158C47.4271 37.5158 46.5948 37.8983 46.0252 38.5637C41.8063 43.4882 35.1998 46.5396 27.5607 46.5648C28.9548 38.8579 35.6966 33.013 43.8013 33.013ZM76.6728 25.8539H76.8158C80.3974 25.8539 83.8307 27.2773 86.3641 29.8103C88.8974 32.3433 90.3202 35.7799 90.3202 39.3637V40.5181C90.3202 43.0049 88.3044 45.0209 85.8179 45.0209H70.2457C68.7735 39.3007 64.5651 34.6816 59.0978 32.6417C59.6856 31.6148 60.4113 30.6621 61.2618 29.8103C63.7952 27.2773 67.2311 25.8539 70.8127 25.8539H70.9558C67.0751 24.5649 64.2321 20.7248 64.2321 16.1547C64.2321 10.5185 68.5551 5.99329 73.8143 5.99329C79.0709 5.99329 83.3937 10.5185 83.3937 16.1547C83.3937 20.7248 80.5509 24.5649 76.6728 25.8539ZM25.6515 27.3543H25.7946C29.3762 27.3543 32.8121 28.7777 35.3455 31.3108C35.8553 31.8221 36.3208 32.3713 36.7396 32.9499C31.189 35.319 27.0716 40.3962 26.0442 46.5214H10.7894C8.30285 46.5214 6.28711 44.5054 6.28711 42.0186V40.8642C6.28711 37.2818 7.70985 33.8452 10.2432 31.3108C12.7766 28.7777 16.2099 27.3543 19.7915 27.3543H19.9345C16.0564 26.0668 13.2136 22.2253 13.2136 17.6552C13.2136 12.019 17.5364 7.49376 22.793 7.49376C28.0522 7.49376 32.3751 12.019 32.3751 17.6552C32.3751 22.2253 29.5322 26.0668 25.6515 27.3543ZM48.3036 90.0533L47.9707 90.0154C40.1417 88.2334 34.2843 83.0245 30.1565 75.6804C26.1588 68.5661 23.7918 59.4232 22.8009 49.563C22.7566 49.1161 22.9153 48.6719 23.2326 48.3539C23.5499 48.0345 23.9921 47.8748 24.4395 47.9196C33.8655 48.8345 42.1185 45.4314 47.1644 39.5402C47.4505 39.2082 47.8667 39.0163 48.3036 39.0163C48.7406 39.0163 49.1567 39.2082 49.4429 39.5402C54.4888 45.4314 62.7418 48.8345 72.1678 47.9196C72.6152 47.8748 73.0574 48.0345 73.3747 48.3539C73.692 48.6719 73.8506 49.1161 73.8064 49.563C72.8129 59.4596 70.4746 68.625 66.4925 75.7407C62.3803 83.0903 56.5228 88.2824 48.6261 90.0182L48.3036 90.0533ZM34.2296 64.4248L42.9065 73.1012C43.4918 73.6882 44.4411 73.6882 45.0264 73.1012L62.3777 55.747C62.9629 55.1614 62.9629 54.2101 62.3777 53.6245C61.7899 53.0375 60.8405 53.0375 60.2552 53.6245L43.9652 69.9167L36.352 62.3009C35.7668 61.7153 34.8174 61.7153 34.2296 62.3009C33.6444 62.8865 33.6444 63.8378 34.2296 64.4248Z" fill="#0048B4"/>
</svg>
