<svg width="122" height="129" viewBox="0 0 122 129" fill="none" xmlns="http://www.w3.org/2000/svg">
<g opacity="0.5">
<path d="M110.606 37.8065C109.618 34.3049 106.729 31.455 103.35 30.6889C102.637 30.5204 101.916 30.4368 101.176 30.4365L64.7859 30.4365V24.1689C64.7859 19.2001 61.2017 15.0997 56.6235 14.6066C56.3183 14.5737 56.0086 14.5569 55.6954 14.5569H24.9785C24.6273 14.5569 24.2781 14.5704 23.9313 14.5973C16.8147 15.0094 10.8084 21.8281 10.9538 29.3865C10.9537 29.3864 10.9537 52.3393 10.9537 52.3393C10.8098 59.8961 16.8133 66.7181 23.9315 67.1283C24.2781 67.1553 24.6273 67.1688 24.9785 67.1688H55.6954C56.0086 67.1688 56.3183 67.152 56.6235 67.1191C61.2017 66.626 64.7859 62.5257 64.7859 57.5568V51.2897H101.176C107.779 51.3385 112.568 44.3698 110.606 37.8065ZM63.4204 31.012C63.3785 31.1883 63.4209 50.3917 63.4062 50.5678C63.4063 50.6179 63.4112 50.6669 63.4204 50.7141V57.5568C63.4204 57.6272 63.4195 57.6973 63.4178 57.7673C63.329 61.6157 60.6915 64.8167 57.2502 65.5587C56.7384 65.6695 56.2268 65.7245 55.6954 65.725H24.9785C17.9981 65.725 12.3192 59.7202 12.3192 52.3393V29.3864C12.3192 22.0055 17.9981 16.0007 24.9785 16.0007H55.6954C56.2268 16.0013 56.7384 16.0562 57.2502 16.167C60.6914 16.9094 63.3291 20.1098 63.4178 23.9584C63.4195 24.0284 63.4204 24.0985 63.4204 24.1689V31.012ZM101.176 49.8459H64.7859V31.8803H101.176C101.587 31.8803 101.992 31.9108 102.39 31.9702C103.013 32.0636 103.611 32.2253 104.194 32.4567C112.914 36.1475 110.648 49.6263 101.176 49.8459Z" fill="#0048B4"/>
<path d="M38.9536 24.3953H29.821C24.8085 24.3953 20.7305 28.7072 20.7305 34.0073V47.7183C20.7305 53.0184 24.8085 57.3304 29.821 57.3304H38.9536C43.9661 57.3304 48.0441 53.0184 48.0441 47.7183V34.0073C48.0441 28.7072 43.9661 24.3953 38.9536 24.3953ZM46.6786 47.7183C46.6786 52.2223 43.2131 55.8865 38.9536 55.8865H29.821C25.5614 55.8865 22.096 52.2223 22.096 47.7183V34.0073C22.096 29.5034 25.5614 25.8391 29.821 25.8391H38.9536C43.2131 25.8391 46.6786 29.5034 46.6786 34.0073V47.7183Z" fill="#0048B4"/>
<path d="M16.851 30.2129C15.7216 30.2129 14.8027 31.1844 14.8027 32.3787V49.3469C14.8027 50.5411 15.7216 51.5127 16.851 51.5127C17.9804 51.5127 18.8992 50.5411 18.8992 49.3469V32.3787C18.8992 31.1844 17.9804 30.2129 16.851 30.2129ZM17.5337 49.3469C17.498 50.2999 16.208 50.3093 16.1682 49.3469C16.1682 49.3469 16.1682 32.3787 16.1682 32.3787C16.1682 31.9806 16.4745 31.6567 16.851 31.6567C17.2275 31.6567 17.5337 31.9806 17.5337 32.3787V49.3469Z" fill="#0048B4"/>
<path d="M37.7624 40.0699C37.5654 40.0699 37.3866 40.1509 37.2528 40.2823C36.6589 38.9559 34.7751 39.3734 34.7559 40.8628C34.7752 42.3524 36.6592 42.7696 37.2528 41.4433C37.7225 41.9118 38.5147 41.553 38.5123 40.8628C38.5123 40.4249 38.1765 40.0699 37.7624 40.0699Z" fill="#0048B4"/>
<path d="M39.0657 34.4764H33.0649C31.3889 34.4764 30.0254 35.9181 30.0254 37.6903V41.1575C28.8929 41.1036 27.5299 40.7565 27.2182 40.4316C27.2095 40.3424 27.2136 40.29 27.2172 40.2655C27.2933 40.1928 27.6187 40.0447 28.2083 40.0111C28.6158 39.9918 28.9103 39.5873 28.8478 39.166L28.738 36.2913C28.7227 35.8929 28.4032 35.5826 28.0283 35.5991C26.1748 35.6357 22.5582 37.1315 23.1855 41.2102C23.3386 42.2072 23.8045 43.0577 24.5702 43.7379C25.7843 44.9045 28.3423 45.479 30.3649 45.5128C30.8797 46.5692 31.9112 47.2492 33.0649 47.2492H39.0657C40.7416 47.2492 42.1051 45.8074 42.1051 44.0353V37.6903C42.1051 35.9181 40.7416 34.4764 39.0657 34.4764ZM40.7396 44.0353C40.7396 45.0113 39.9887 45.8053 39.0657 45.8053H33.0649C32.3365 45.8053 31.6964 45.3132 31.4723 44.5808C31.3824 44.2869 31.1254 44.0861 30.8333 44.0813C28.5598 44.0049 25.0473 43.6982 24.5332 40.9786C24.1607 38.6044 25.8324 37.4422 27.4036 37.136L27.4616 38.6543C26.4203 38.8556 25.6648 39.4967 25.8811 40.7469C26.0603 41.9134 27.9097 42.346 28.9962 42.5001C29.5152 42.5737 30.0857 42.6187 30.692 42.6339C30.8759 42.6392 31.0536 42.5645 31.1852 42.4287C31.3167 42.2928 31.3909 42.1066 31.3909 41.9122V37.6903C31.3909 36.7143 32.1418 35.9203 33.0649 35.9203H39.0657C39.9887 35.9203 40.7396 36.7143 40.7396 37.6903V44.0353Z" fill="#0048B4"/>
<path d="M55.2906 24.9369C52.3507 24.9369 49.959 27.4659 49.959 30.5744C50.2519 38.0532 60.3303 38.0511 60.6221 30.5743C60.6221 27.4659 58.2304 24.9369 55.2906 24.9369ZM55.2906 34.768C53.1037 34.768 51.3245 32.8867 51.3245 30.5744C51.5424 25.011 59.0395 25.0125 59.2566 30.5744C59.2566 32.8867 57.4775 34.768 55.2906 34.768Z" fill="#0048B4"/>
<path d="M55.2906 45.8053C52.3507 45.8053 49.959 48.3342 49.959 51.4427C50.2519 58.9216 60.3303 58.9195 60.6221 51.4427C60.6221 48.3342 58.2304 45.8053 55.2906 45.8053ZM55.2906 55.6364C53.1037 55.6364 51.3245 53.7551 51.3245 51.4427C51.5424 45.8794 59.0396 45.881 59.2566 51.4428C59.2566 53.7551 57.4775 55.6364 55.2906 55.6364Z" fill="#0048B4"/>
<path d="M107.021 82.5346C105.183 80.2984 101.926 81.481 99.9239 83.0108C95.5923 85.9687 88.7532 90.3241 82.2772 90.7497C82.2658 87.6449 81.332 84.1191 77.5953 82.7217C77.5512 82.7058 77.5057 82.6948 77.4596 82.6887L63.2988 80.824C62.5275 80.4399 57.3353 77.8405 53.0868 75.3675C51.4581 74.4144 49.4942 73.6815 47.558 73.2662C43.9371 72.4759 39.7561 72.6251 36.4283 74.2378C34.5952 75.1285 32.812 76.1376 31.0409 77.1596C28.7288 78.4944 25.5252 80.4521 23.4619 81.753C23.2404 81.3648 22.9898 80.8817 22.6871 80.5564C21.5244 79.1969 19.488 78.8786 18.0038 79.8148C18.0038 79.8148 13.6289 82.4856 13.6289 82.4856C13.5163 82.5541 13.4082 82.6293 13.3027 82.7087C12.5941 83.2483 12.0866 84.0226 11.8576 84.9265C11.5927 85.9628 11.7344 87.0577 12.2374 87.9769C12.2374 87.9769 25.5903 112.432 25.5903 112.432C26.0971 113.364 26.9287 114.03 27.8988 114.305C28.6629 114.523 29.4776 114.484 30.2185 114.186C30.412 114.109 30.6009 114.015 30.7836 113.903L35.1585 111.232C35.3783 111.098 35.5825 110.943 35.7693 110.77C37.1255 109.545 37.4637 107.307 36.5265 105.698C37.6645 104.457 39.0187 103.016 40.4704 102.055C40.9195 101.766 41.2128 101.597 44.5172 102.546C47.8707 103.491 54.3458 106.303 57.1033 106.862C57.8094 106.942 58.524 106.896 59.2329 106.875C66.4669 106.507 77.8375 105.22 83.7474 104.59C85.104 104.427 85.6477 104.404 86.0323 104.318C86.1196 104.287 88.2134 103.531 91.9402 100.681C95.5753 97.9005 107.097 89.5841 107.213 89.5004C107.294 89.4412 107.362 89.364 107.413 89.2755C108.369 87.5177 108.828 84.5815 107.021 82.5346ZM80.8386 89.3677C80.8927 89.8183 80.918 90.3192 80.9109 90.7618L71.1382 91.0503C70.7842 91.0691 70.4627 90.7489 70.4575 90.3749C70.4574 90.3657 70.4572 90.3568 70.4568 90.3479C70.4568 89.967 70.74 89.6599 71.1009 89.6489L80.8379 89.3614C80.8381 89.3635 80.8384 89.3656 80.8386 89.3677ZM35.6268 108.348C35.4739 109.036 35.0586 109.628 34.4757 109.982C34.4757 109.982 30.1008 112.653 30.1008 112.653C28.9763 113.369 27.4051 112.924 26.7729 111.71C26.7729 111.71 13.4199 87.2549 13.4199 87.2549C13.3776 87.1777 13.3401 87.0987 13.3054 87.0178C12.795 85.8285 13.2384 84.3825 14.3117 83.736C14.3117 83.736 18.6866 81.0652 18.6866 81.0652C18.7804 81.0079 18.8769 80.9576 18.9753 80.9144C20.0684 80.4152 21.4371 80.9056 22.0145 82.0081C22.0145 82.0081 23.9331 85.5218 23.9331 85.5218C26.0269 89.4248 32.9946 102.409 34.9678 106.089C35.0511 106.244 35.1849 106.359 35.3413 106.415C35.6708 106.993 35.7783 107.686 35.6268 108.348ZM106.886 86.2428C106.872 86.4609 106.846 86.6814 106.804 86.8978C106.671 87.6027 106.425 88.1644 106.307 88.406C103.081 90.7399 97.0834 95.0757 92.6571 98.3682C92.1624 98.7371 91.6135 99.1487 91.1399 99.511C90.5426 99.9679 89.9893 100.368 89.4822 100.718C87.3241 102.203 86.083 102.751 85.6615 102.924C78.0391 103.77 60.0905 105.72 57.2965 105.433C54.7774 104.898 48.8615 102.364 45.6797 101.404C44.8856 101.149 44.1093 100.916 43.3048 100.721C42.422 100.523 41.0922 100.199 40.2415 100.55C40.2414 100.55 40.2413 100.55 40.2412 100.55C39.4268 100.964 38.7215 101.572 38.0296 102.182C37.2946 102.84 36.4403 103.713 35.8154 104.396L25.1184 84.8051L24.1502 83.0007C24.8912 82.5352 26.2869 81.6643 27.9513 80.6546C27.9515 80.6544 27.9518 80.6543 27.952 80.6541C30.9196 78.87 33.8972 77.0762 36.9944 75.5518C41.4766 73.4186 47.8094 74.0385 52.2095 76.5075C56.6577 79.1141 62.8339 82.1942 62.8173 82.1801C62.8821 82.2121 62.9513 82.2332 63.0223 82.2426L77.2195 84.1121C78.8793 84.7027 80.0702 86.124 80.5542 87.9254L71.0621 88.2056C69.9439 88.2382 69.0686 89.2079 69.0921 90.3891C69.0887 91.5261 70.0443 92.5175 71.1177 92.4945C71.1654 92.4958 81.0044 92.2024 81.0588 92.2018C81.1633 92.1986 81.2666 92.1871 81.3681 92.1674C88.6024 92.4104 97.4517 86.4064 100.602 84.2694C100.688 84.2068 100.695 84.2033 100.727 84.1782C100.763 84.1507 104.257 81.4529 106.008 83.5026C106.658 84.2634 106.952 85.1836 106.886 86.2428Z" fill="#0048B4"/>
</g>
</svg>
