<svg width="134" height="149" viewBox="0 0 134 149" fill="none" xmlns="http://www.w3.org/2000/svg">
<g opacity="0.5">
<path d="M115.356 53.0945H18.6444C18.2303 53.0945 17.8945 53.4678 17.8945 53.9283C17.8945 54.3888 17.8945 124.578 17.8945 124.578C17.8945 125.038 18.2303 125.412 18.6444 125.412C24.2247 125.415 37.9175 125.409 43.2934 125.412C59.1904 125.41 100.055 125.413 115.356 125.412C115.771 125.412 116.106 125.038 116.106 124.578V53.9283C116.106 53.4678 115.771 53.0945 115.356 53.0945ZM30.5884 120.621C30.3469 120.009 30.2132 119.338 30.2132 118.633V115.232H48.0599V118.633C48.0599 119.161 47.9847 119.671 47.8452 120.151C47.2641 122.15 45.5664 123.627 43.5383 123.737C43.4572 123.742 43.3755 123.744 43.2934 123.744H34.9797C33.0189 123.734 31.343 122.5 30.5884 120.621ZM87.0503 60.7263C91.5565 60.7797 95.5312 64.8308 95.9645 69.8183H40.6874C41.1073 64.9288 44.9718 60.8966 49.3863 60.7348C49.5322 60.7277 49.6778 60.723 49.8241 60.7232C50.0299 60.7269 86.8721 60.717 87.0503 60.7263ZM40.6322 71.486H96.0198V84.5486H40.6322V71.486ZM39.8823 86.2163H99.6351C103.386 86.2163 106.438 89.5953 106.438 93.7486V110.229H30.2132V93.7486C30.2132 89.5953 33.2652 86.2163 37.0165 86.2163H39.8823ZM29.4633 111.896H107.188H108.985C109.399 111.896 109.735 112.27 109.735 112.73C109.735 113.19 109.399 113.564 108.985 113.564H106.443C82.6771 113.564 48.1074 113.564 24.3826 113.564C23.9691 113.564 23.6327 113.19 23.6327 112.73C23.6327 112.27 23.9691 111.896 24.3826 111.896H29.4633ZM88.5005 123.744H47.4055C48.4498 122.763 49.1946 121.388 49.4509 119.892C49.5131 119.537 49.5478 119.177 49.5574 118.816C49.5589 118.755 49.5597 118.694 49.5597 118.633V115.232H86.3463V118.633C86.3463 118.694 86.3471 118.755 86.3486 118.816C86.3583 119.177 86.3929 119.537 86.4551 119.892C86.7114 121.388 87.4562 122.763 88.5005 123.744ZM87.8461 118.633V115.232H105.693V118.633C105.693 121.451 103.554 123.744 100.926 123.744H92.6126C89.9844 123.744 87.8461 121.451 87.8461 118.633ZM114.607 123.744H105.038C106.083 122.763 106.827 121.388 107.084 119.892C107.146 119.537 107.181 119.177 107.19 118.816C107.192 118.755 107.193 118.694 107.193 118.633V115.232H108.985C111.97 115.094 111.969 110.365 108.985 110.229C108.985 110.229 107.938 110.229 107.938 110.229V93.7486C107.938 88.6757 104.213 84.5486 99.6351 84.5486H97.5196V70.9448C97.5198 70.7498 97.5151 70.5562 97.5067 70.3621C97.481 69.7835 97.4194 69.2063 97.319 68.6388C96.9362 66.453 95.9924 64.4202 94.611 62.7942C92.6069 60.4094 89.7451 59.0409 86.8272 59.0556C86.8272 59.0555 49.8241 59.0555 49.8241 59.0555C49.5694 59.0554 49.3152 59.0666 49.0613 59.0855C46.3507 59.2877 43.7762 60.6768 41.943 62.9113C40.6142 64.515 39.7066 66.5071 39.3329 68.6392C39.2325 69.2065 39.1709 69.7836 39.1453 70.362C39.1369 70.556 39.1322 70.7499 39.1324 70.9448V84.5486H37.0165C32.4382 84.5486 28.7134 88.6757 28.7134 93.7486V110.229H24.3826C23.1421 110.229 22.1329 111.351 22.1329 112.73C22.1329 114.109 23.1421 115.232 24.3826 115.232H28.7134V118.633C28.7134 118.694 28.7143 118.755 28.7158 118.816C28.7254 119.177 28.7601 119.537 28.8222 119.892C29.0786 121.388 29.8234 122.763 30.8676 123.744H19.3943V54.7622H114.607V123.744Z" fill="#0048B4"/>
<path d="M117.355 32.5808L68.898 20.3159C68.5928 20.2385 68.2821 20.2325 67.9743 20.2982L16.7201 31.2383C15.6623 31.4642 14.8945 32.4974 14.8945 33.6951V126.245C14.8945 127.625 15.9038 128.747 17.1443 128.747H116.856C118.096 128.747 119.106 127.625 119.106 126.245V35.02C119.106 33.8448 118.386 32.8418 117.355 32.5808ZM117.606 126.245C117.606 126.705 117.269 127.079 116.856 127.079H17.1443C16.7307 127.079 16.3943 126.705 16.3943 126.245V33.6951C16.3943 33.6951 16.6503 32.9514 17.0029 32.8761C17.1451 32.861 68.2644 21.9054 68.3982 21.9211C68.5661 21.7435 116.849 34.2984 117.023 34.2066C117.366 34.2939 117.606 34.6283 117.606 35.02V126.245Z" fill="#0048B4"/>
<path d="M44.8515 42.2548H47.115C47.787 42.2548 48.3913 42.1061 48.9108 41.8131C50.6281 40.8768 51.1004 38.5013 50.1786 36.7313C49.5386 35.5284 48.3975 34.9173 47.115 34.9246L44.8515 34.9246C44.4373 34.9246 44.1016 35.298 44.1016 35.7585V41.421C44.1016 41.8815 44.4373 42.2548 44.8515 42.2548ZM45.6014 36.5923H47.115C47.5407 36.5923 47.9102 36.6835 48.2129 36.8633C48.824 37.2292 49.1424 37.8969 49.1374 38.6945C49.1423 39.4128 48.801 40.0067 48.2327 40.3256C47.925 40.4991 47.549 40.5871 47.115 40.5871H45.6014V36.5923Z" fill="#0048B4"/>
<path d="M43.6666 51.1166C44.7418 51.143 45.6208 50.1477 45.6024 48.9641C45.6024 48.9641 45.6024 44.7662 45.6024 44.7662H46.8707C46.8894 44.7976 49.844 50.0877 49.8611 50.1144C50.0563 50.4401 50.2944 50.69 50.5672 50.8562C50.849 51.029 51.1655 51.1166 51.5077 51.1166C52.9381 51.1373 54.0297 49.5195 53.0963 47.8232C53.0963 47.8232 50.7174 43.5752 50.7174 43.5752C53.9872 41.0845 53.5898 35.2104 50.0924 33.2025C49.218 32.6787 48.2165 32.4131 47.116 32.4131H43.6666C43.1434 32.4131 42.6733 32.6202 42.3069 33.0122C41.93 33.4158 41.7309 33.9529 41.7309 34.5656V48.9641C41.7088 50.138 42.6101 51.1416 43.6666 51.1166ZM43.2307 34.5656C43.2306 34.2289 43.4218 34.0852 43.6666 34.0808C43.6666 34.0808 47.116 34.0808 47.116 34.0808C48.6943 34.07 50.1197 34.8158 50.9035 36.2869C51.2685 36.9743 51.4536 37.7843 51.4536 38.6945C51.4638 40.3633 50.6991 41.7686 49.3844 42.5276C48.9699 42.7204 48.7957 43.3163 49.0417 43.738C49.0417 43.738 51.8251 48.7082 51.8251 48.7082C52.0056 49.027 51.9333 49.1777 51.9023 49.2422C51.8508 49.3496 51.7674 49.4489 51.5077 49.4489C51.3174 49.4464 51.2259 49.377 51.113 49.1958L47.9231 43.4898C47.7827 43.2387 47.5334 43.0868 47.2675 43.0964C47.2173 43.0978 47.1668 43.0985 47.116 43.0985H44.8525C44.4383 43.0985 44.1026 43.4718 44.1026 43.9323V48.9641C44.099 49.2421 43.9654 49.4475 43.6666 49.4489C43.533 49.4489 43.4393 49.4081 43.3536 49.3128C43.2674 49.2169 43.2307 49.1126 43.2307 48.9641V34.5656Z" fill="#0048B4"/>
<path d="M55.4831 51.1167H64.1347C64.6581 51.1167 65.1249 50.9133 65.4847 50.5284C65.8555 50.1315 66.0516 49.6051 66.0516 49.0061C66.0706 47.8626 65.1681 46.9101 64.1346 46.9375C64.1347 46.9375 57.4188 46.9375 57.4188 46.9375V43.8021H61.967C62.5104 43.8021 62.9855 43.5933 63.341 43.1981C64.0627 42.434 64.0625 40.9909 63.3401 40.2261C62.9846 39.8315 62.5098 39.623 61.967 39.623H57.4188V36.5923H64.1347C65.1696 36.6206 66.0665 35.6672 66.0516 34.5237C66.0516 33.9254 65.8556 33.3991 65.4838 33.0003C65.1239 32.6162 64.6574 32.4131 64.1347 32.4131H55.4831C54.4192 32.3933 53.5235 33.3689 53.5473 34.5657C53.5473 34.5656 53.5473 48.9642 53.5473 48.9642C53.5253 50.1381 54.4265 51.1417 55.4831 51.1167ZM55.0471 34.5656C55.0475 34.2282 55.2378 34.0857 55.4831 34.0808C55.4831 34.0808 64.1347 34.0808 64.1347 34.0808C64.4025 34.0842 64.5503 34.2406 64.5518 34.5237C64.5518 34.6372 64.5187 34.7232 64.4446 34.8025C64.3915 34.8593 64.3082 34.9246 64.1347 34.9246H56.6689C56.2548 34.9246 55.919 35.2979 55.919 35.7584V40.4568C55.919 40.9173 56.2548 41.2907 56.6689 41.2907H61.967C62.1525 41.2907 62.232 41.3525 62.2797 41.4054C62.4169 41.5275 62.4199 41.8948 62.2804 42.0188C62.232 42.0726 62.1527 42.1344 61.967 42.1344H56.6689C56.2548 42.1344 55.919 42.5078 55.919 42.9683V47.7714C55.919 48.2319 56.2548 48.6052 56.6689 48.6052H64.1347C64.308 48.6052 64.3916 48.6707 64.444 48.7267C64.5216 48.8098 64.5518 48.8881 64.5518 49.0061C64.5508 49.3016 64.3932 49.4435 64.1347 49.449C64.1347 49.449 55.4831 49.449 55.4831 49.449C55.3495 49.449 55.2558 49.4082 55.17 49.3128C55.0839 49.217 55.0471 49.1127 55.0471 48.9642V34.5656Z" fill="#0048B4"/>
<path d="M68.6025 51.1168C69.6779 51.1432 70.5566 50.1478 70.5383 48.9643C70.5383 48.9643 70.5383 40.5388 70.5383 40.5388L77.1865 50.3138C77.8485 51.3141 79.3395 51.3856 80.0843 50.4756C80.4363 50.0684 80.6224 49.5458 80.6224 48.9643V34.5658C80.6445 33.3739 79.7735 32.3922 78.7055 32.4133C77.6413 32.3936 76.746 33.3689 76.7697 34.5658C76.7697 34.5658 76.7697 43.0061 76.7697 43.0061L70.138 33.2338C70.122 33.2105 70.1042 33.1863 70.087 33.1643C68.9084 31.6699 66.6664 32.5343 66.6857 34.5658C66.6857 34.5658 66.6857 48.9643 66.6857 48.9643C66.6857 49.5468 66.8719 50.0695 67.2239 50.4758C67.5867 50.8951 68.0635 51.1168 68.6025 51.1168ZM68.1855 34.5658C68.1872 34.2536 68.3348 34.0846 68.6025 34.081C68.7478 34.081 68.8501 34.1316 68.9521 34.255L76.921 45.9977C77.1152 46.2839 77.4521 46.4001 77.7578 46.2861C78.0634 46.1723 78.2695 45.854 78.2695 45.4955V34.5658C78.2454 34.0802 78.7808 33.9509 79.0087 34.2063C79.0617 34.2653 79.1226 34.3595 79.1226 34.5658V48.9643C79.1226 49.1166 79.0868 49.2229 79.0037 49.3191C78.8684 49.5019 78.5224 49.4884 78.3849 49.3111C78.3849 49.3111 70.3865 37.5508 70.3865 37.5508C69.9529 36.9179 69.0407 37.2574 69.0385 38.0538C69.0385 38.0537 69.0385 48.9643 69.0385 48.9643C69.0337 49.2445 68.9016 49.4468 68.6025 49.4491C68.3198 49.4485 68.1875 49.2289 68.1855 48.9643C68.1855 48.9643 68.1855 34.5658 68.1855 34.5658Z" fill="#0048B4"/>
<path d="M82.5501 36.5504H85.7223V48.9642C85.7223 49.5634 85.9247 50.0968 86.3072 50.5066C87.0359 51.3327 88.361 51.3117 89.0558 50.4755C89.4078 50.0683 89.5939 49.5457 89.5939 48.9642V36.5504H92.7661C93.2972 36.5504 93.7625 36.3452 94.1116 35.9571C94.8207 35.2101 94.8208 33.7538 94.1117 33.0068C94.1116 33.0067 94.1115 33.0066 94.1115 33.0065C93.7623 32.6183 93.2972 32.4132 92.7661 32.4132H82.5501C81.5157 32.3918 80.6705 33.3318 80.6898 34.4818C80.6706 35.632 81.5157 36.5718 82.5501 36.5504ZM82.2842 34.1857C82.3307 34.1339 82.3988 34.0809 82.5501 34.0809H92.7661C92.935 34.0809 93.0071 34.137 93.0511 34.1859C93.0512 34.186 93.0512 34.1861 93.0513 34.1862C93.0979 34.238 93.1455 34.3135 93.1455 34.4818C93.1424 34.7489 93.0228 34.8804 92.7661 34.8827C92.7661 34.8827 88.844 34.8827 88.844 34.8827C88.4299 34.8827 88.0941 35.256 88.0941 35.7166V48.9642C88.0906 49.2468 87.954 49.4468 87.6582 49.449C87.427 49.4549 87.2116 49.2343 87.2222 48.9642C87.2222 48.9642 87.2222 35.7166 87.2222 35.7166C87.2222 35.256 86.8864 34.8827 86.4722 34.8827H82.5501C82.3987 34.8827 82.3307 34.8297 82.2839 34.7777C82.2373 34.7258 82.1896 34.6501 82.1896 34.4818C82.1896 34.3135 82.2373 34.2378 82.2842 34.1857Z" fill="#0048B4"/>
<path d="M44.3673 105.394C46.727 105.394 48.6467 103.26 48.6467 100.636C48.4117 94.3233 40.3221 94.325 40.0879 100.636C40.0879 103.26 42.0076 105.394 44.3673 105.394ZM44.3673 97.5452C45.9 97.5452 47.1469 98.9317 47.1469 100.636C46.9942 104.736 41.7398 104.735 41.5877 100.636C41.5877 98.9317 42.8346 97.5452 44.3673 97.5452Z" fill="#0048B4"/>
<path d="M89.1935 105.394C91.5531 105.394 93.4729 103.26 93.4729 100.636C93.2378 94.3232 85.1483 94.3251 84.9141 100.636C84.9141 103.26 86.8338 105.394 89.1935 105.394ZM89.1935 97.5452C90.7261 97.5452 91.9731 98.9317 91.9731 100.636C91.8204 104.736 86.566 104.735 86.4139 100.636C86.4139 98.9317 87.6608 97.5452 89.1935 97.5452Z" fill="#0048B4"/>
<path d="M57.99 104.787H75.569C78.5489 104.652 78.5572 99.9232 75.569 99.7842C75.569 99.7842 57.99 99.7842 57.99 99.7842C56.7494 99.7842 55.7402 100.906 55.7402 102.286C55.7402 103.665 56.7494 104.787 57.99 104.787ZM57.99 101.452H75.569C75.9825 101.452 76.3189 101.826 76.3189 102.286C76.3189 102.746 75.9825 103.12 75.569 103.12H57.99C57 103.076 56.9903 101.5 57.99 101.452Z" fill="#0048B4"/>
</g>
</svg>
