<svg width="45" height="55" viewBox="0 0 45 55" fill="none" xmlns="http://www.w3.org/2000/svg">
<g filter="url(#filter0_d_3007_8237)">
<path d="M36.6778 34.2979H39.1265L41.0001 46.2879H39.1923L38.8636 43.907V43.9412H36.8092L36.4805 46.2879H34.8042L36.6778 34.2979ZM38.6499 42.314L37.8446 36.3875H37.8118L37.0229 42.314H38.6499Z" fill="white"/>
<path d="M36.6778 34.2979H39.1265L41.0001 46.2879H39.1923L38.8636 43.907V43.9412H36.8092L36.4805 46.2879H34.8042L36.6778 34.2979ZM38.6499 42.314L37.8446 36.3875H37.8118L37.0229 42.314H38.6499Z" fill="#0048B4"/>
</g>
<g filter="url(#filter1_d_3007_8237)">
<path d="M28.2671 34.2979H30.5351L32.2936 41.4747H32.3265V34.2979H33.9371V46.2879H32.08L29.9106 37.5352H29.8777V46.2879H28.2671V34.2979Z" fill="white"/>
<path d="M28.2671 34.2979H30.5351L32.2936 41.4747H32.3265V34.2979H33.9371V46.2879H32.08L29.9106 37.5352H29.8777V46.2879H28.2671V34.2979Z" fill="#0048B4"/>
</g>
<g filter="url(#filter2_d_3007_8237)">
<path d="M25.1055 34.2979H26.9133V46.2879H25.1055V34.2979Z" fill="white"/>
<path d="M25.1055 34.2979H26.9133V46.2879H25.1055V34.2979Z" fill="#0048B4"/>
</g>
<g filter="url(#filter3_d_3007_8237)">
<path d="M16.2617 34.2979H18.842L19.9924 42.8793H20.0253L21.1757 34.2979H23.756V46.2879H22.0468V37.2097H22.0139L20.6991 46.2879H19.1871L17.8723 37.2097H17.8395V46.2879H16.2617V34.2979Z" fill="white"/>
<path d="M16.2617 34.2979H18.842L19.9924 42.8793H20.0253L21.1757 34.2979H23.756V46.2879H22.0468V37.2097H22.0139L20.6991 46.2879H19.1871L17.8723 37.2097H17.8395V46.2879H16.2617V34.2979Z" fill="#0048B4"/>
</g>
<g filter="url(#filter4_d_3007_8237)">
<path d="M12.2788 46.4592C11.4023 46.4592 10.7339 46.2022 10.2738 45.6884C9.81358 45.1631 9.5835 44.4151 9.5835 43.4445V34.2979H11.3913V43.5815C11.3913 43.9926 11.468 44.2895 11.6214 44.4722C11.7858 44.6549 12.0158 44.7463 12.3117 44.7463C12.6075 44.7463 12.8321 44.6549 12.9855 44.4722C13.1498 44.2895 13.232 43.9926 13.232 43.5815V34.2979H14.9741V43.4445C14.9741 44.4151 14.744 45.1631 14.2838 45.6884C13.8237 46.2022 13.1553 46.4592 12.2788 46.4592Z" fill="white"/>
<path d="M12.2788 46.4592C11.4023 46.4592 10.7339 46.2022 10.2738 45.6884C9.81358 45.1631 9.5835 44.4151 9.5835 43.4445V34.2979H11.3913V43.5815C11.3913 43.9926 11.468 44.2895 11.6214 44.4722C11.7858 44.6549 12.0158 44.7463 12.3117 44.7463C12.6075 44.7463 12.8321 44.6549 12.9855 44.4722C13.1498 44.2895 13.232 43.9926 13.232 43.5815V34.2979H14.9741V43.4445C14.9741 44.4151 14.744 45.1631 14.2838 45.6884C13.8237 46.2022 13.1553 46.4592 12.2788 46.4592Z" fill="#0048B4"/>
</g>
<g filter="url(#filter5_d_3007_8237)">
<path d="M4 34.2979H5.80783V44.575H8.78252V46.2879H4V34.2979Z" fill="white"/>
<path d="M4 34.2979H5.80783V44.575H8.78252V46.2879H4V34.2979Z" fill="#0048B4"/>
</g>
<path fill-rule="evenodd" clip-rule="evenodd" d="M34.7611 19.9873L38.1126 22.1424V22.1552L37.5806 22.4974L33.2184 19.6999V18.9984L34.7611 19.9873ZM38.4773 21.927V21.9101V21.2086V21.2044V21.1958V21.1874V21.1789V21.1747V21.1663V21.1578V21.1536V21.1452V21.1367V21.1283V21.1241V21.1156V21.1072V21.103V21.0945V21.0861V21.0776V21.0733V21.0649V21.0564V21.048V21.0437V21.0352V21.0268V21.0226V21.0141V21.0057V20.9973V20.993V20.9846V20.9761V20.9719V20.9634V20.955V20.9465V20.9423V20.9339V20.9254V20.9211V20.9127V20.9042V20.8958V20.8916V20.8831V20.8746V20.8662V20.8619V20.8535V20.8451V20.8408V20.8324V20.824V20.8155V20.8113V20.8028V20.7944V20.7859V20.7817V20.7732V20.7647V20.7605V20.7521V20.7436V20.0463V20.0379V20.0294V20.0252V20.0168V20.0084V19.9999V19.9957V19.9873V19.9787V19.9745V19.9661V19.9576V19.9492V19.945V19.9364V19.928V19.9238V19.9153V19.9069V19.8984V19.8942V19.8858V19.8773V19.8689V19.8647V19.8562V19.8478V19.8436V19.8351V19.8267V19.8182V19.8139V19.8055V19.797V19.7886V19.7844V19.7759V19.7674V19.7632V19.7547V19.7463V19.7378V19.7336V19.7251V19.7167V19.7125V19.704V19.6956V19.6872V19.6829V19.6745V19.666V19.6618V19.6533V19.6449V19.6364V19.6322V19.6237V19.6152V19.6068V19.6026V19.5941V19.5857V19.5814V18.88V18.4152V17.7178V17.2488V16.5516V16.0867V15.3852V14.9204V14.2231V14.2147V14.2062V14.202V14.1936V14.1851V14.1767V14.1725V14.164V14.1556V14.1513V14.1429V14.1344V14.1259V14.1217V14.1133V14.1048V14.1005V14.0921V14.0837V14.0752V14.071V14.0625V14.0541V14.0457V14.0414V14.033V14.0246V14.0203V14.0119V14.0034V13.995V13.9908V13.9822V13.9738V13.9696V13.9611V13.9527V13.9443V13.94V13.9315V13.9231V13.9188V13.9104V13.902V13.8935V13.8893V13.8809V13.8724V13.864V13.8597V13.8513V13.8429V13.8386V13.8302V13.8216V13.8132V13.809V13.8005V13.7921V13.7879V13.7794V13.7709V13.7625V13.7582V13.0568V13.0484V13.0441V13.0357V13.0272V13.023V13.0145V13.0061V12.9976V12.9933V12.9849V12.9764V12.9722V12.9638V12.9553V12.9469V12.9427V12.9342V12.9258V12.9215V12.9131V12.9046V12.8962V12.892V12.8835V12.875V12.8666V12.8624V12.8539V12.8455V12.8413V12.8327V12.8243V12.8159V12.8117V12.8032V12.7948V12.7905V12.7821V12.7736V12.7652V12.7609V12.7525V12.7441V12.7398V12.7314V12.7229V12.7144V12.7102V12.7017V12.6933V12.6848V12.6806V12.6721V12.6636V12.6594V12.651V12.6425V12.6341V12.6299V12.6214V12.613V12.6087V12.6003V12.5919V11.8946V11.8861V11.8776V11.8692V11.8649V11.8565V11.848V11.8438V11.8354V11.8269V11.8185V11.8142V11.8058V11.7974V11.7932V11.7847V11.7763V11.7677V11.7635V11.7551V11.7466V11.7424V11.734V11.7255V11.717V11.7128V11.7044V11.6959V11.6875V11.6832V11.6748V11.6663V11.6621V11.6537V11.6452V11.6368V11.6326V11.6241V11.6157V11.6114V11.6029V11.5945V11.586V11.5818V11.5733V11.5649V11.5564V11.5522V11.5438V11.5353V11.5311V11.5226V11.5142V11.5057V11.5015V11.4931V11.4846V11.4804V11.472V11.4635V11.455V11.4508V11.4423V11.4339V11.4296V10.7281V10.7197V10.7155V10.707V10.6986V10.6902V10.6859V10.6775V10.669V10.6647V10.6563V10.6479V10.6394V10.6352V10.6267V10.6182V10.6098V10.6055V10.5971V10.5887V10.5844V10.576V10.5676V10.5591V10.5549V10.5464V10.538V10.5338V10.5253V10.5169V10.5084V10.5041V10.4957V10.4872V10.483V10.4746V10.4661V10.4576V10.4534V10.445V10.4365V10.4281V10.4238V10.4154V10.4069V10.4027V10.3943V10.3859V10.3774V10.3732V10.3648V10.3563V10.352V10.3436V10.3351V10.3267V10.3225V10.314V10.3055V10.3013V10.2928V10.2844V10.2759V10.2717V10.2633V9.56177V9.55756V9.54911V9.54067V9.53643V9.52798V9.51946V9.51101V9.5068V9.49835V9.48991V9.48569V9.47725V9.4688V9.46038V9.45615V9.4477V9.43925V9.43081V9.42657V9.41812V9.40968V9.40544V9.39694V9.38849V9.38007V9.37583V9.36739V9.35886V9.35463V9.34621V9.33776V9.32931V9.3251V9.31666V9.30821V9.304V9.29555V9.28711V9.27866V9.27442V9.26598V9.25753V9.24908V9.24477V9.23635V9.2279V9.22369V9.21524V9.20672V9.19827V9.19403V9.18559V9.17714V9.16869V9.16446V9.15604V9.14759V9.14338V9.13494V9.12649V9.11804V9.11383V9.10538V9.09694V8.3996V8.39115V8.38271V8.3785V8.37005V8.36161V8.35737V8.34892V8.34048V8.33203V8.32782V8.31937V8.31093V8.30248V8.29819V8.28974V8.2813V8.27706V8.26861V8.26011V8.25167V8.24746V8.23901V8.23056V8.22633V8.21788V8.20944V8.20099V8.19675V8.1883V8.17986V8.17562V8.16717V8.15873V8.15028V8.14604V8.13754V8.1291V8.12065V8.11642V8.10797V8.09944V8.09523V8.08678V8.07834V8.06992V8.06568V8.05724V8.04879V8.04455V8.03611V8.02766V8.01921V8.01498V8.00653V7.99808V7.99387V7.98543V7.97693V7.96848V7.96427V7.95582V7.94738V7.93885V7.93461V7.2332V7.22899V7.22054V7.2121V7.20365V7.19944V7.19091V7.18247V7.17826V7.16981V7.16136V7.15284V7.14863V7.14018V7.13173V7.12329V7.11905V7.11061V7.10216V7.09795V7.0895V7.08106V7.07261V7.0684V7.05995V7.05153V7.0473V7.03885V7.03032V7.02187V7.01767V7.00922V7.00077V6.99648V6.98804V6.97959V6.97114V6.96691V6.95846V6.95001V6.94157V6.93733V6.92888V6.92044V6.9162V6.90778V6.89933V6.89089V6.88668V6.87815V6.8697V6.86547V6.85702V6.84858V6.84013V6.83584V6.82739V6.81894V6.8105V6.80626V6.79782V6.78937V6.78513V6.77668V6.76824V6.07098V6.06253V6.05409V6.0498V6.04135V6.03291V6.02446V6.02022V6.0118V6.00336V5.99914V5.9907V5.98225V5.97381V5.9696V5.96115V5.9527V5.94489V5.94068V5.93216V5.92371V5.9195V5.91105V5.90263V5.89418V5.88989V5.88145V5.873V5.86455V5.86032V5.85187V5.84342V5.83922V5.83077V5.82235V5.8139V5.80969V5.80124V5.7928V5.78856V5.78012V5.77159V5.76314V5.75893V5.75049V5.74204V5.73783V5.7293V5.72086V5.71241V5.70818V5.69973V5.69128V5.68283V5.67862V5.67018V5.66173V5.65752V5.64907V5.64063V5.63221V5.62797V5.61952V5.611V5.60676V4.90527V4.67292V4.44041L33.0399 0.954102L32.9486 1.01328L27.7011 4.38129L27.61 4.44039V14.4345V14.6669L22.7272 11.5314L22.5449 11.4215L22.3625 11.5398L17.4797 14.6754V14.443V11.413V10.9482V4.6771V4.4446L12.0423 0.962575L11.9511 1.01754L6.70737 4.38979L6.61621 4.44468V4.56303V13.8725V21.9228L11.8599 25.2865V24.5935V24.1286V23.4314V22.9665V22.265V21.8002V21.103V20.6381V19.9365V19.4718V18.7703V18.3054V17.6081V17.1434V16.4418V15.9769V15.2797V14.8149V14.1134V13.6485V12.9513V12.4822V11.785V11.3201V10.6186V10.1537V9.45651V8.99166V8.29017V7.82531V7.12803V6.65896V5.96176V5.4969V4.79541V4.33055V3.63332V3.16847V2.46705V2.0022V1.54158L6.97713 4.67715V13.8725V22.1552L6.61623 21.9227V22.3876L16.0472 28.4347L22.5449 32.5973L22.883 32.3816L22.3625 32.0436V32.014V31.5618V31.097V30.3998V29.9349V29.2333V28.7685V28.0713V27.6064V26.9049V26.4401V25.7386V25.2737V24.5765V24.1118V23.4103V22.9454V22.2481V21.7833V21.0818V20.617V19.9154V19.4506V18.7534V18.2885V17.587V17.1222V16.4249V15.96V15.2586V14.7938V14.0922V13.6273V12.9301V12.4653V12.0046L17.4797 15.1402V20.0506V20.6042V28.8911L22.883 32.3816L22.9096 32.3647L27.61 29.3517L27.6214 29.3475L29.0425 28.4347L33.0171 25.8865L38.4774 22.3833V21.927H38.4773ZM27.6214 15.1403V15.6051L27.61 15.6009V15.8332L22.7272 12.6977V12.0005L24.2661 12.9893L27.61 15.1361L27.6214 15.1403ZM27.6214 16.3065V16.7714L27.61 16.763L27.6138 16.9997L22.7272 13.8641V13.1626L24.2661 14.1515L27.61 16.2981L27.6214 16.3065ZM27.6214 17.4687V17.9378L27.61 17.9294V18.1617L22.7272 15.0261V14.3289L24.2661 15.3177L27.6138 17.4645L27.6214 17.4687ZM27.6214 18.635V19.0999L27.6138 19.0957H27.61V19.3281L22.7272 16.1925V15.491L24.2662 16.4799L27.6138 18.6308L27.6214 18.635ZM27.6214 19.7971V20.2662L27.6138 20.262L27.61 20.2578V20.4902L22.7272 17.3546V16.6574L24.2662 17.6462L27.6138 19.7929L27.6214 19.7971ZM27.6214 20.9635V21.4283H27.6138L27.61 21.4241V21.6565L22.7272 18.521V17.8237L24.2662 18.8125L27.6138 20.9593L27.6214 20.9635ZM27.6214 22.1255V22.5946L27.6176 22.5904L27.61 22.5861V22.8186L22.7272 19.6873V18.9857L24.2662 19.9746L27.6138 22.1255H27.6214ZM27.6214 23.2919V23.7567H27.6176L27.61 23.7525V23.9849L22.7272 20.8493V20.1521L24.2662 21.141L27.6176 23.2919H27.6214ZM27.6176 24.454V24.9231L27.61 24.9188V25.1513L22.7272 22.0157V21.3142L24.2662 22.303L27.6176 24.454ZM27.6214 25.6204V26.0894L27.61 26.0809V26.3134L22.7272 23.1778V22.4806L24.2661 23.4694L27.6214 25.6204ZM27.6214 26.7867V27.2516L27.61 27.2473V27.4797L22.7272 24.3441V23.6427L24.2661 24.6357L27.6214 26.7867ZM27.6214 27.9487V28.4178L27.61 28.4094V28.6418L22.7272 25.5062V24.809L24.2661 25.7978L27.6214 27.9487ZM27.9823 28.6502V25.1555L27.9747 4.67292L32.8575 1.53734V1.99796V2.46282V3.16002V3.62488V4.32637V4.79123V5.48851V5.95757V6.65478V7.11963V7.82113V8.28598V8.98327V9.44812V10.1495V10.6144V11.3117V11.7808V12.478V12.9429V13.6443V14.1092V14.8065V15.2713V15.9728V16.4376V17.1349V17.5997V18.3012V18.7661V19.4675V19.9324V20.6297V21.0946V21.796V22.2608V22.9581V23.4229V24.1244V24.5893V25.5274L27.9823 28.6502ZM33.2184 25.2949V24.8216L33.587 25.0583L33.2184 25.2949ZM33.9479 24.8259L33.2184 24.3568V23.6596L34.4951 24.4751L33.9479 24.8259ZM34.86 24.2427L33.2184 23.1905V22.4932L34.7611 23.4821L35.4032 23.8962L34.86 24.2427ZM35.7643 23.6596L33.2184 22.0284V21.3311L34.7611 22.32L36.3076 23.3131L35.7643 23.6596ZM36.6725 23.0806L33.2184 20.862V20.1648L34.7611 21.1536L37.2158 22.7299L36.6725 23.0806ZM38.1126 21.6776L33.2184 18.5336V17.8364L34.7611 18.8252L38.1126 20.9762V21.6776ZM38.1126 20.5113L33.2184 17.3715V16.6701L34.7611 17.6589L38.1126 19.8141V20.5113ZM38.1126 19.3449L33.2184 16.2052V15.5079L34.7611 16.4968L38.1126 18.6477V19.3449ZM38.1126 18.1828L33.2184 15.0388V14.3416L34.7611 15.3304L38.1126 17.4814V18.1828ZM38.1126 17.0166L33.2184 13.8767V13.1753L34.7611 14.1641L38.1126 16.3193V17.0166ZM38.1126 15.8545L33.2184 12.7104V12.0132L34.7611 13.002L38.1126 15.153V15.8545ZM38.1126 14.6881L33.2184 11.5483V10.8469L34.7611 11.8357L38.1126 13.9909V14.6881ZM38.1126 13.5218L33.2184 10.382V9.68473L34.7611 10.6736L38.1126 12.8245V13.5218ZM38.1126 12.3596L33.2184 9.21988V8.51838L34.7611 9.5072L38.1126 11.6582V12.3596ZM38.1126 11.1933L33.2184 8.05353V7.35203L34.7611 8.34093L38.1126 10.4961V11.1933ZM38.1126 10.0312L33.2184 6.88728V6.18995L34.7611 7.17884L38.1126 9.32976V10.0312ZM38.1126 8.86488L33.2184 5.72507V5.02363L34.7611 6.01244L38.1126 8.16765V8.86488ZM38.1126 7.69858L33.2184 4.55877V3.86151L34.7611 4.85041L38.1126 7.00133V7.69858ZM38.1126 6.53647L33.2184 3.39666V2.69516L34.7611 3.68403L38.1126 5.83919V6.53647ZM38.1126 5.37012L33.2184 2.23031V1.53311L34.7611 2.52192L38.1126 4.67292V5.37012ZM16.0472 27.9699L17.1188 28.6587V27.9699L13.7635 25.819L12.2246 24.8301V25.5147L11.8751 25.2949L16.0472 27.9699ZM38.4773 21.927L38.1126 22.1552L38.4773 21.927ZM17.1188 13.5303L12.2246 10.3863V9.68894L13.7635 10.6778L17.1188 12.8287V13.5303ZM17.1188 12.3638L12.2246 9.22411V8.52683L13.7635 9.51564L17.1188 11.6666V12.3638ZM17.1188 11.2018L12.2246 8.05777V7.36056L13.7635 8.34937L17.1188 10.5003V11.1807V11.2018ZM13.7635 11.8441L17.1188 13.9951V14.6923L12.2246 11.5525V10.8553L13.7635 11.8441ZM13.7635 13.0062L17.1188 15.1614V15.8587L12.2246 12.7189V12.0174L13.7635 13.0062ZM13.7635 14.1726L17.1188 16.3235V17.025L12.2246 13.881V13.1837L13.7635 14.1726ZM13.7635 15.3346L17.1188 17.4899V18.1871L12.2246 15.0473V14.3458L13.7635 15.3346ZM13.7635 16.501L17.1188 18.6519V19.3535L12.2246 16.2094V15.5121L13.7635 16.501ZM13.7635 17.6673L17.1188 19.8182V20.5155L12.2246 17.3757V16.6785L13.7635 17.6673ZM13.7635 18.8294L17.1188 20.9846V21.6819L12.2246 18.5421V17.8406L13.7635 18.8294ZM13.7635 19.9958L17.1188 22.1466V22.8482L12.2246 19.7042V19.0069L13.7635 19.9958ZM13.7635 21.1578L17.1188 23.3131V24.0103L12.2246 20.8705V20.1691L13.7635 21.1578ZM13.7635 22.3242L17.1188 24.4751V25.1766L12.2246 22.0326V21.3353L13.7635 22.3242ZM17.1188 10.0354L12.2246 6.89571V6.19413L13.7635 7.18302L17.1188 9.33818V10.0354ZM17.1188 8.86912L12.2246 5.7293V5.0321L13.7635 6.02091L17.1188 8.17192V8.86912ZM17.1188 7.70706L12.2246 4.56724V3.86575L13.7635 4.85464L17.1188 7.00556V7.70706ZM13.7635 23.4905L17.1188 25.6415V26.3387L12.2246 23.1989V22.5016L13.7635 23.4905ZM13.7635 24.6526L17.1188 26.8036V27.505L12.2246 24.361V23.6638L13.7635 24.6526ZM17.1188 6.54071L12.2246 3.40089V2.70364L13.7635 3.6925L17.1188 5.84342V6.54071ZM17.1188 5.37857L12.2246 2.23455V1.54158V1.53734L13.7635 2.52615L17.1188 4.67715V5.37857ZM26.8918 29.3475L22.7272 26.6726V25.9753L24.2661 26.9642L27.4352 28.9968L26.8918 29.3475ZM25.9836 29.9307L22.7272 27.8389V27.1374L24.2662 28.1262L26.527 29.5799L25.9836 29.9307ZM25.0755 30.5096L22.7272 29.0011V28.3038L24.2661 29.2926L25.6227 30.1631L25.0755 30.5096ZM24.1673 31.0928L22.7272 30.1673V29.4659L24.2661 30.4547L24.7145 30.7421L24.1673 31.0928ZM23.2592 31.6718L22.7272 31.3295V30.6322L23.8064 31.3251L23.2592 31.6718ZM22.7272 32.014V31.7986L22.8983 31.9041L22.7272 32.014Z" fill="#0048B4"/>
<defs>
<filter id="filter0_d_3007_8237" x="30.8042" y="34.2979" width="14.1958" height="19.9902" filterUnits="userSpaceOnUse" color-interpolation-filters="sRGB">
<feFlood flood-opacity="0" result="BackgroundImageFix"/>
<feColorMatrix in="SourceAlpha" type="matrix" values="0 0 0 0 0 0 0 0 0 0 0 0 0 0 0 0 0 0 127 0" result="hardAlpha"/>
<feOffset dy="4"/>
<feGaussianBlur stdDeviation="2"/>
<feComposite in2="hardAlpha" operator="out"/>
<feColorMatrix type="matrix" values="0 0 0 0 0.48769 0 0 0 0 0.640654 0 0 0 0 0.870101 0 0 0 0.15 0"/>
<feBlend mode="normal" in2="BackgroundImageFix" result="effect1_dropShadow_3007_8237"/>
<feBlend mode="normal" in="SourceGraphic" in2="effect1_dropShadow_3007_8237" result="shape"/>
</filter>
<filter id="filter1_d_3007_8237" x="24.2671" y="34.2979" width="13.6699" height="19.9902" filterUnits="userSpaceOnUse" color-interpolation-filters="sRGB">
<feFlood flood-opacity="0" result="BackgroundImageFix"/>
<feColorMatrix in="SourceAlpha" type="matrix" values="0 0 0 0 0 0 0 0 0 0 0 0 0 0 0 0 0 0 127 0" result="hardAlpha"/>
<feOffset dy="4"/>
<feGaussianBlur stdDeviation="2"/>
<feComposite in2="hardAlpha" operator="out"/>
<feColorMatrix type="matrix" values="0 0 0 0 0.48769 0 0 0 0 0.640654 0 0 0 0 0.870101 0 0 0 0.15 0"/>
<feBlend mode="normal" in2="BackgroundImageFix" result="effect1_dropShadow_3007_8237"/>
<feBlend mode="normal" in="SourceGraphic" in2="effect1_dropShadow_3007_8237" result="shape"/>
</filter>
<filter id="filter2_d_3007_8237" x="21.1055" y="34.2979" width="9.80762" height="19.9902" filterUnits="userSpaceOnUse" color-interpolation-filters="sRGB">
<feFlood flood-opacity="0" result="BackgroundImageFix"/>
<feColorMatrix in="SourceAlpha" type="matrix" values="0 0 0 0 0 0 0 0 0 0 0 0 0 0 0 0 0 0 127 0" result="hardAlpha"/>
<feOffset dy="4"/>
<feGaussianBlur stdDeviation="2"/>
<feComposite in2="hardAlpha" operator="out"/>
<feColorMatrix type="matrix" values="0 0 0 0 0.48769 0 0 0 0 0.640654 0 0 0 0 0.870101 0 0 0 0.15 0"/>
<feBlend mode="normal" in2="BackgroundImageFix" result="effect1_dropShadow_3007_8237"/>
<feBlend mode="normal" in="SourceGraphic" in2="effect1_dropShadow_3007_8237" result="shape"/>
</filter>
<filter id="filter3_d_3007_8237" x="12.2617" y="34.2979" width="15.4941" height="19.9902" filterUnits="userSpaceOnUse" color-interpolation-filters="sRGB">
<feFlood flood-opacity="0" result="BackgroundImageFix"/>
<feColorMatrix in="SourceAlpha" type="matrix" values="0 0 0 0 0 0 0 0 0 0 0 0 0 0 0 0 0 0 127 0" result="hardAlpha"/>
<feOffset dy="4"/>
<feGaussianBlur stdDeviation="2"/>
<feComposite in2="hardAlpha" operator="out"/>
<feColorMatrix type="matrix" values="0 0 0 0 0.48769 0 0 0 0 0.640654 0 0 0 0 0.870101 0 0 0 0.15 0"/>
<feBlend mode="normal" in2="BackgroundImageFix" result="effect1_dropShadow_3007_8237"/>
<feBlend mode="normal" in="SourceGraphic" in2="effect1_dropShadow_3007_8237" result="shape"/>
</filter>
<filter id="filter4_d_3007_8237" x="5.5835" y="34.2979" width="13.3906" height="20.1611" filterUnits="userSpaceOnUse" color-interpolation-filters="sRGB">
<feFlood flood-opacity="0" result="BackgroundImageFix"/>
<feColorMatrix in="SourceAlpha" type="matrix" values="0 0 0 0 0 0 0 0 0 0 0 0 0 0 0 0 0 0 127 0" result="hardAlpha"/>
<feOffset dy="4"/>
<feGaussianBlur stdDeviation="2"/>
<feComposite in2="hardAlpha" operator="out"/>
<feColorMatrix type="matrix" values="0 0 0 0 0.48769 0 0 0 0 0.640654 0 0 0 0 0.870101 0 0 0 0.15 0"/>
<feBlend mode="normal" in2="BackgroundImageFix" result="effect1_dropShadow_3007_8237"/>
<feBlend mode="normal" in="SourceGraphic" in2="effect1_dropShadow_3007_8237" result="shape"/>
</filter>
<filter id="filter5_d_3007_8237" x="0" y="34.2979" width="12.7827" height="19.9902" filterUnits="userSpaceOnUse" color-interpolation-filters="sRGB">
<feFlood flood-opacity="0" result="BackgroundImageFix"/>
<feColorMatrix in="SourceAlpha" type="matrix" values="0 0 0 0 0 0 0 0 0 0 0 0 0 0 0 0 0 0 127 0" result="hardAlpha"/>
<feOffset dy="4"/>
<feGaussianBlur stdDeviation="2"/>
<feComposite in2="hardAlpha" operator="out"/>
<feColorMatrix type="matrix" values="0 0 0 0 0.48769 0 0 0 0 0.640654 0 0 0 0 0.870101 0 0 0 0.15 0"/>
<feBlend mode="normal" in2="BackgroundImageFix" result="effect1_dropShadow_3007_8237"/>
<feBlend mode="normal" in="SourceGraphic" in2="effect1_dropShadow_3007_8237" result="shape"/>
</filter>
</defs>
</svg>
