<svg width="110" height="110" viewBox="0 0 110 110" fill="none" xmlns="http://www.w3.org/2000/svg">
<path d="M85.5719 34.2676V22.9883C85.5719 21.1621 87.5484 19.959 89.2027 20.9043C89.2672 20.9473 89.3531 20.9902 89.4176 21.0117C89.9977 21.4199 91.2008 21.2266 91.6734 20.3672C93.1129 17.6816 94.8102 14.9316 96.3355 12.2891C97.2809 10.6563 99.3648 10.0977 100.976 11.043C102.05 11.666 102.802 12.1387 103.168 13.4707C103.382 14.2871 103.296 15.2754 102.824 16.0488L98.1832 24.127C97.7105 24.9219 97.9898 25.9746 98.8063 26.4258L98.9781 26.5332C99.7301 26.9629 100.181 27.7363 100.181 28.6172C100.181 29.0254 100.074 29.498 99.859 29.8203C99.6441 30.1641 99.3434 30.4863 98.9781 30.7012L89.2242 36.3301C87.5699 37.2969 85.5719 36.0937 85.5719 34.2676ZM87.2906 22.9883V34.2461C87.2906 34.8262 87.9137 35.1055 88.3434 34.8477L98.0973 29.2187L98.3551 28.9609C98.4195 28.8535 98.441 28.7461 98.441 28.6172C98.441 28.3594 98.3336 28.1445 98.0973 28.0156C97.1949 27.5 96.6148 26.834 96.357 25.8457C96.1422 25.0078 96.2281 24.084 96.7008 23.2676L101.363 15.1895C101.836 14.3945 101.556 13.3418 100.74 12.8906L100.138 12.5469C99.3434 12.0742 98.2906 12.3535 97.818 13.1699L93.1988 21.2051C93.1773 21.2266 93.1559 21.2695 93.1344 21.3125C92.6617 22.1074 91.9313 22.623 91.0934 22.8379C90.277 23.0527 89.2027 22.9668 88.4723 22.4727C87.7633 22.043 87.2906 22.5156 87.2906 22.9883ZM23.0309 35.707L12.5465 31.582C10.8063 30.8945 10.4625 28.5957 11.9234 27.4355C12.3531 27.0918 12.6324 26.7695 12.6969 26.1895C12.7398 25.7598 12.6324 25.3086 12.3531 24.9434L6.55235 17.6387C5.37071 16.1777 5.62852 14.0293 7.08946 12.8691C8.05625 12.1172 8.76524 11.5586 10.1402 11.709C11.0211 11.8164 11.902 12.2676 12.4606 13.0195L18.1969 20.2383C18.8629 21.0332 19.8082 21.1406 20.6461 20.5176C21.0758 20.1953 21.3551 20.002 21.8922 19.9375C23.1813 19.7441 24.4273 20.625 24.6422 21.9785L26.318 33.1074C26.5758 34.9551 24.7711 36.3945 23.0309 35.707ZM13.1695 29.9922L23.6539 34.1172C24.1695 34.3105 24.6852 33.9023 24.5992 33.3652L22.9234 22.2363C22.8375 21.6992 22.2145 21.4629 21.8063 21.7852C20.9898 22.4297 20.1734 22.7305 19.1637 22.623C18.3043 22.5156 17.4664 22.0859 16.8863 21.3555C14.9313 18.9707 12.9547 16.4785 11.0856 14.0508C10.5055 13.3203 9.43125 13.2129 8.70078 13.793C8.12071 14.2441 7.62657 14.5449 7.54063 15.3613C7.49766 15.791 7.60508 16.2422 7.88438 16.6074L13.6422 23.8477C14.8668 25.2871 14.609 27.5859 13.0836 28.7031C12.4606 29.1758 12.7398 29.8203 13.1695 29.9922ZM12.9547 71.8437H21.8277C22.3648 71.2422 23.1383 70.8769 23.9762 70.8769H30.8941C31.7535 70.8769 32.5055 71.2422 33.0426 71.8437H35.7711C36.2867 71.3926 36.7809 70.8984 37.275 70.3613C38.6715 68.8359 39.9391 67.6113 41.0992 66.6445C41.0992 65.3555 40.1109 64.3672 38.8648 64.3672H12.9547C11.7301 64.3672 10.7418 65.3769 10.7418 66.6016V69.6094C10.7418 70.834 11.7301 71.8437 12.9547 71.8437ZM21.8277 98.7851H9.88243C9.40977 98.7851 9.02305 98.3984 9.02305 97.9258V72.7031C9.02305 72.2734 9.32383 71.9297 9.73203 71.8652C9.28086 71.2207 9.02305 70.4687 9.02305 69.6309V66.623C9.02305 64.4531 10.7848 62.6699 12.9547 62.6699H15.6188C15.1031 61.9609 14.7809 61.1016 14.7809 60.1562V57.7285C14.7809 55.3867 16.693 53.4961 19.0133 53.4961H40.734C33.3219 45.7402 33.4723 33.4941 41.0563 25.9102C48.7691 18.1973 61.273 18.1973 68.9859 25.9102C76.5699 33.4941 76.7203 45.7402 69.3082 53.4961H94.9605C97.1305 53.4961 98.9137 55.2578 98.9137 57.4492V60.457C98.9137 61.2949 98.6559 62.0469 98.2262 62.6914C100.332 62.7559 102.029 64.5176 102.029 66.6445V67.3105C103.296 68.084 104.091 69.3945 104.199 70.8984C104.306 72.6387 103.468 74.6152 101.341 76.291C95.7555 80.6523 92.4898 83.7246 85.6148 88.5371C82.5211 90.707 66.6656 95.7559 64.2164 95.8203L33.7301 97.4531C33.4508 98.7637 32.2906 99.7519 30.8941 99.7519H23.9762C23.1383 99.7519 22.3648 99.3652 21.8277 98.7851ZM12.9547 73.5625H10.7418V97.0664H21.0973V73.5625H12.9547ZM33.7945 75.3027L33.816 95.7129L64.109 94.0371C66.5797 93.8437 81.7262 89.0957 84.6266 87.0762C91.4801 82.2637 94.7027 79.2559 100.289 74.8945C102.265 73.3477 103.125 71.1777 102.029 69.5664C100.869 67.8262 98.3336 67.998 96.4 69.1367L87.2906 73.5195L83.8316 75.1738C83.0582 75.5391 79.5992 76.3984 76.3551 77.0859C73.691 77.6445 71.1129 78.0742 70.1891 78.0312C65.7418 78.6113 59.0816 78.332 54.9566 77.3008C53.109 76.8496 50.2301 75.8613 50.7242 73.7773C50.8531 73.2832 51.4977 72.209 52.1637 72.1445L64.2164 70.8984C69.9742 70.3184 71.3492 64.0449 65.398 64.1953C62.3473 64.2812 59.7906 64.2812 57.5777 64.2598C48.0816 64.2383 45.3316 64.2383 38.5426 71.543C37.1676 73.0254 35.5777 74.3574 33.7945 75.3027ZM30.8941 72.5957H23.9762C23.3316 72.5957 22.7945 73.1328 22.7945 73.7773V96.8516C22.7945 97.4961 23.3316 98.0332 23.9762 98.0332H30.8941C31.5387 98.0332 32.0758 97.4961 32.0758 96.8516V73.7773C32.0758 73.1328 31.5387 72.5957 30.8941 72.5957ZM42.6461 65.4414C43.2262 65.0332 43.8063 64.668 44.3863 64.3672L42.1305 64.3457C42.3453 64.6894 42.5387 65.0547 42.6461 65.4414ZM51.1969 62.6699C53.0016 62.5625 55.0426 62.5625 57.5563 62.5625C59.7477 62.5625 62.3043 62.584 65.3336 62.498C66.0855 62.4766 66.7516 62.541 67.3531 62.6914H67.8902C69.2867 62.6914 70.4039 61.5527 70.4039 60.1777V57.75C70.4039 56.375 69.2652 55.2363 67.8902 55.2363C67.7613 55.2363 67.6539 55.2148 67.5465 55.1719C64.152 57.9648 59.7906 59.6406 55.0426 59.6406C50.3375 59.6406 46.0191 57.9863 42.6246 55.2578H42.5602C41.1852 55.2578 40.0465 56.3965 40.0465 57.7715V60.1992C40.0465 61.5742 41.1852 62.7129 42.5602 62.7129H51.1969V62.6699ZM70.5758 65.0547C71.6715 67.4394 69.9527 69.5664 69.9313 69.6523C69.9313 70.2539 70.1891 70.8125 70.5973 71.1992C71.0055 71.6074 71.5641 71.8652 72.1656 71.8652H86.7965L95.5621 67.6543C97.3023 66.6875 98.9566 66.4082 100.31 66.666C100.31 65.3984 99.3219 64.4101 98.0973 64.4101H72.1656C71.5426 64.3672 70.984 64.625 70.5758 65.0547ZM68.4918 71.0918C68.1051 71.3711 67.6539 71.6504 67.1813 71.8652C67.5895 71.8652 68.5133 71.8867 68.8785 71.8223C68.7281 71.5859 68.5992 71.3281 68.4918 71.0918ZM54.9566 73.5625L52.5934 73.7988C52.4645 73.9492 52.4 74.0566 52.3785 74.1426C52.357 74.2715 52.5289 74.4434 52.8297 74.6582C53.3883 75.0234 54.2691 75.3242 55.3434 75.6035C59.318 76.5918 65.7633 76.8711 70.0387 76.3125C70.1031 76.291 70.1891 76.291 70.2535 76.3125C71.65 76.5059 82.0055 74.1426 83.2086 73.5625H72.1656C71.4996 73.5625 70.8766 73.3906 70.3395 73.1113C69.7594 73.4121 69.1148 73.5625 68.4488 73.5625H54.9566ZM51.0895 42.6465C50.982 41.5293 52.7008 41.3574 52.7867 42.4961C52.9156 43.8926 55.3004 44.623 56.6754 43.5059C57.0406 43.2051 57.2555 42.7969 57.2555 42.3887C57.2555 39.5527 51.0465 42.002 51.0465 37.3184C51.0465 35.5996 52.4645 34.332 54.1402 34.0098V33.0859C54.1402 32.6133 54.527 32.2266 55.0211 32.2266C55.5152 32.2266 55.902 32.6348 55.8805 33.1074L55.859 33.9883C57.5348 34.3105 58.9742 35.5781 58.9742 37.2969C58.9742 38.4355 57.2555 38.4355 57.2555 37.2969C57.2555 35.8145 54.7848 35.0195 53.3668 36.1797C53.0016 36.4805 52.7867 36.8887 52.7867 37.2969C52.7867 40.1328 58.9957 37.6836 58.9957 42.3672C58.9957 44.0859 57.5563 45.375 55.902 45.6758L55.8805 46.5781C55.8805 47.7168 54.1617 47.7168 54.1617 46.5781V45.6543C52.6148 45.3965 51.2398 44.2578 51.0895 42.6465ZM55.0426 25.9961C62.6695 25.9961 68.8785 32.1836 68.8785 39.832C68.8785 47.4805 62.691 53.668 55.0426 53.668C47.3941 53.668 41.2066 47.4805 41.2066 39.832C41.2066 32.1836 47.3941 25.9961 55.0426 25.9961ZM63.5934 31.2598C58.8668 26.5332 51.1969 26.5332 46.4703 31.2598C41.7438 35.9863 41.7438 43.6562 46.4703 48.4043C51.1969 53.1309 58.8668 53.1309 63.5934 48.4043C68.3199 43.6777 68.3199 36.0078 63.5934 31.2598ZM67.7828 27.0918C60.7574 20.0449 49.3277 20.0449 42.3023 27.0918C35.2555 34.1387 35.2555 45.5469 42.3023 52.5937C49.3277 59.6191 60.7359 59.6621 67.7828 52.5937C74.8082 45.5469 74.8082 34.1172 67.7828 27.0918ZM54.1617 11.1074C54.1617 9.96875 55.8805 9.96875 55.8805 11.1074V16.1133C55.8805 17.252 54.1617 17.252 54.1617 16.1133V11.1074ZM26.0816 40.9062C24.943 40.9062 24.943 39.1875 26.0816 39.1875H31.0875C32.2262 39.1875 32.2262 40.9062 31.0875 40.9062H26.0816ZM29.5406 26.3184C28.5523 25.7598 29.4117 24.2773 30.4 24.8359L34.7398 27.3496C35.7066 27.9082 34.8688 29.3906 33.8805 28.832L29.5406 26.3184ZM39.8316 15.4043C39.273 14.416 40.7555 13.5781 41.3141 14.5449L43.8063 18.9062C44.3648 19.873 42.8824 20.7324 42.3238 19.7656L39.8316 15.4043ZM83.982 39.1875C85.1207 39.1875 85.1207 40.9062 83.982 40.9062H78.9762C77.8375 40.9062 77.8375 39.1875 78.9762 39.1875H83.982ZM79.6637 24.8359C80.6305 24.2773 81.4898 25.7598 80.523 26.3184L76.1832 28.832C75.1949 29.3906 74.357 27.9082 75.3238 27.3496L79.6637 24.8359ZM68.7711 14.5664C69.3297 13.5781 70.8121 14.4375 70.2535 15.4258L67.7398 19.7656C67.1812 20.7539 65.6988 19.8945 66.2574 18.9062L68.7711 14.5664ZM71.1988 62.7773C71.4996 62.6914 71.8219 62.6484 72.1656 62.6484H94.9605C96.1852 62.6484 97.1949 61.6387 97.1949 60.4141V57.4062C97.1949 56.1816 96.1852 55.1719 94.9605 55.1719H71.2848C71.8004 55.8809 72.1227 56.7402 72.1227 57.6855V60.1133C72.1227 61.1445 71.7789 62.0469 71.1988 62.7773ZM39.1656 62.6699C38.6285 61.9609 38.3277 61.0801 38.3277 60.1348V57.707C38.3277 56.7617 38.6285 55.9023 39.1656 55.1934H19.0348C17.6598 55.1934 16.5211 56.332 16.5211 57.707V60.1348C16.5211 61.5098 17.6598 62.6484 19.0348 62.6484H38.8863C38.9723 62.6699 39.0797 62.6699 39.1656 62.6699Z" fill="#0048B4"/>
</svg>
