<svg width="110" height="110" viewBox="0 0 110 110" fill="none" xmlns="http://www.w3.org/2000/svg">
<path d="M33.8163 56.8477C32.6776 56.8477 32.6776 55.1289 33.8163 55.1289H73.2831C74.4218 55.1289 74.4218 56.8477 73.2831 56.8477H33.8163ZM49.7147 37.3398C49.6073 36.2227 51.3261 36.0723 51.412 37.1895C51.5194 38.457 53.7108 39.1016 54.9354 38.0918C55.2577 37.834 55.4725 37.4688 55.4725 37.082C55.4725 34.5254 49.6932 36.7813 49.6932 32.3555C49.6932 30.7441 51.0253 29.541 52.5721 29.2188V28.4238C52.5721 27.9512 52.9589 27.5645 53.453 27.5645C53.9471 27.5645 54.3124 27.9512 54.3124 28.4453L54.2909 29.2402C57.2772 29.8418 57.9647 33.2363 56.3319 33.2363C55.8593 33.2363 55.4725 32.8496 55.4725 32.377C55.4725 31.0449 53.2167 30.3145 51.9491 31.3672C51.6268 31.625 51.412 31.9902 51.412 32.377C51.412 34.9336 57.1913 32.6777 57.1913 37.1035C57.1913 38.7148 55.8593 39.918 54.3124 40.2402L54.2909 41.0352C54.2909 42.1738 52.5721 42.1738 52.5721 41.0352V40.2402C51.1327 39.918 49.8651 38.8438 49.7147 37.3398ZM53.453 21.7637C60.6073 21.7637 66.3866 27.5645 66.3866 34.6973C66.3866 41.8516 60.5858 47.6523 53.453 47.6523C46.2987 47.6523 40.4979 41.8516 40.4979 34.6973C40.5194 27.5645 46.3202 21.7637 53.453 21.7637ZM61.4022 26.7695C57.0194 22.3867 49.9081 22.3867 45.5253 26.7695C41.1425 31.1523 41.1425 38.2637 45.5253 42.6465C49.9081 47.0293 57.0194 47.0293 61.4022 42.6465C65.7635 38.2637 65.7635 31.1523 61.4022 26.7695ZM53.453 16.2637C64.6464 16.2637 73.2616 26.1465 71.7147 37.2539C74.2928 38.0918 76.8495 39.0586 79.3846 40.1543C82.0917 37.834 84.6483 36.6953 86.7753 36.1367C89.0311 35.5352 90.7928 35.5996 91.7382 35.6426C92.619 35.6855 93.0487 36.416 93.0057 37.4043C92.9198 39.5098 91.1366 42.8828 89.5897 45.0312C94.6171 48.2969 94.8534 51.7344 95.0253 54.5273C95.2186 57.2988 95.3475 59.2969 103.168 59.2969C103.598 59.2969 103.963 59.5977 104.006 60.0488C105.445 70.5977 97.7538 80.8242 88.8378 86.1309C87.5057 86.9258 86.4745 88.8379 85.6796 91.0723C84.4764 94.5312 83.9178 98.7422 83.746 101.234C83.746 101.707 83.3593 102.094 82.8866 102.094H77.1718C76.7206 102.094 76.3339 101.729 76.3124 101.256C76.2479 99.5801 73.3475 96.9375 72.1659 95.2402C65.9999 101.771 45.246 103.49 37.4686 96.207C36.244 98.5918 32.4843 99.752 32.3983 102.072C32.3983 102.545 32.0116 102.932 31.5389 102.932H27.328C26.9198 102.932 26.5546 102.631 26.4901 102.201C24.3632 89.1816 21.0546 89.9766 18.0897 83.252C10.205 65.3984 16.5643 44.4297 35.1268 36.7168C33.9452 25.7598 42.496 16.2637 53.453 16.2637ZM71.4139 38.9512C69.4803 47.1797 62.1112 53.1523 53.453 53.1523C44.6229 53.1523 37.1249 46.9219 35.3846 38.4355C17.9823 45.9121 12.203 65.6992 19.6366 82.5215C20.5389 84.5625 21.5272 85.8945 22.5155 87.2266C24.5565 89.9766 26.5761 92.748 28.037 101.148H30.787C31.5819 97.8613 36.0292 97.0449 36.2011 94.4023C36.244 93.6074 37.2538 93.3066 37.7264 93.9297C44.1932 102.18 67.3964 99.8379 71.6073 93.1348C72.037 92.4473 73.1112 92.7051 73.1757 93.5215C73.2831 94.5098 77.1503 97.6895 77.8807 100.332H82.0917C82.4354 96.293 83.8534 87.0762 87.9569 84.627C96.035 79.8145 103.275 70.5977 102.394 60.9941C93.7362 60.8437 93.5428 58.2441 93.3065 54.6348C93.1346 52.0996 92.9198 48.9629 87.8925 45.998C87.4413 45.7402 87.3339 45.1387 87.6561 44.7305C89.2245 42.7324 91.201 39.166 91.287 37.3398C87.4843 37.2324 83.7889 38.5 80.1151 41.8086C79.8573 42.0449 79.5136 42.0879 79.2128 41.959C76.6132 40.7988 74.035 39.8105 71.4139 38.9512ZM65.2909 22.8809C58.7596 16.3496 48.1679 16.3496 41.6366 22.8809C35.1054 29.4121 35.1054 40.0039 41.6366 46.5352C48.1679 53.0664 58.7596 53.0664 65.2909 46.5352C71.8221 40.0039 71.8221 29.4121 65.2909 22.8809ZM52.5936 7.94922C52.5936 6.83203 54.3124 6.83203 54.3124 7.94922V12.6113C54.3124 13.75 52.5936 13.75 52.5936 12.6113V7.94922ZM26.5116 35.7715C25.3729 35.7715 25.3729 34.0527 26.5116 34.0527H31.1737C32.3124 34.0527 32.3124 35.7715 31.1737 35.7715H26.5116ZM29.6913 22.1719C28.703 21.6133 29.5624 20.1309 30.5507 20.6895L34.5897 23.0312C35.5565 23.5898 34.7186 25.0723 33.7304 24.5137L29.6913 22.1719ZM39.2304 11.9883C38.6718 11.0215 40.1542 10.1621 40.7128 11.1289L43.0546 15.168C43.6132 16.1348 42.1307 16.9941 41.5721 16.0273L39.2304 11.9883ZM80.4159 34.0527C81.5546 34.0527 81.5546 35.7715 80.4159 35.7715H75.7538C74.6151 35.7715 74.6151 34.0527 75.7538 34.0527H80.4159ZM76.3768 20.6895C77.3436 20.1309 78.203 21.6133 77.2362 22.1719L73.1972 24.5137C72.2304 25.0723 71.371 23.5898 72.3378 23.0312L76.3768 20.6895ZM66.1932 11.1289C66.7518 10.1621 68.2343 11 67.6757 11.9883L65.3339 16.0273C64.7753 16.9941 63.2714 16.1348 63.8514 15.168L66.1932 11.1289ZM97.453 64.4531C97.1522 63.3574 98.828 62.9277 99.1073 64.0019L99.4081 65.1621C99.7089 66.2578 98.0331 66.6875 97.7538 65.6133L97.453 64.4531ZM84.4335 59.9199C83.3163 60.0703 83.08 58.373 84.1971 58.2227L87.0116 57.8145C88.1288 57.6426 88.3651 59.3398 87.2479 59.5117L84.4335 59.9199ZM15.8124 52.207C16.8866 51.8633 17.4022 53.4961 16.328 53.8398C12.955 54.8926 7.73426 53.4746 6.35926 49.9941C4.85535 46.1699 6.55262 43.8926 8.87293 42.9902C10.4413 42.3672 12.5253 42.3887 13.9003 43.291C15.3182 44.2148 15.8768 45.8691 14.4159 48.1035C13.7928 49.0488 12.3749 48.1035 12.9764 47.1582C14.8026 44.3867 11.4081 43.8281 9.49598 44.5801C7.99207 45.1602 6.91785 46.707 7.9491 49.3496C8.95887 51.8848 13.1698 53.0234 15.8124 52.207Z" fill="#0048B4"/>
</svg>
