<svg width="114" height="114" viewBox="0 0 114 114" fill="none" xmlns="http://www.w3.org/2000/svg">
<g opacity="0.5">
<path d="M54.3828 94.5709V36.8214" stroke="#0048B4" stroke-width="2" stroke-miterlimit="10" stroke-linecap="round" stroke-linejoin="round"/>
<path d="M15.1401 16.5446H6.3225C4.96007 16.5446 3.85547 17.6492 3.85547 19.0116V109.863C3.85547 111.226 4.96007 112.33 6.3225 112.33H51.9156" stroke="#0048B4" stroke-width="2" stroke-miterlimit="10" stroke-linecap="round" stroke-linejoin="round"/>
<path d="M53.3326 16.9917C52.9316 16.71 52.4431 16.5446 51.9161 16.5446H22.2656" stroke="#0048B4" stroke-width="2" stroke-miterlimit="10" stroke-linecap="round" stroke-linejoin="round"/>
<path d="M40.0594 105.205H17.9561C16.4716 102.176 14.0095 99.714 10.9805 98.2296V30.6452C14.0095 29.1607 16.4716 26.6986 17.9561 23.6696H40.282C41.7665 26.6988 44.2286 29.1607 47.2578 30.6454V94.7158" stroke="#0048B4" stroke-width="2" stroke-miterlimit="10" stroke-linecap="round" stroke-linejoin="round"/>
<path d="M29.1187 76.0073C35.5086 76.0073 40.6886 70.8273 40.6886 64.4374C40.6886 58.0476 35.5086 52.8676 29.1187 52.8676C22.7288 52.8676 17.5488 58.0476 17.5488 64.4374C17.5488 70.8273 22.7288 76.0073 29.1187 76.0073Z" stroke="#0048B4" stroke-width="2" stroke-miterlimit="10" stroke-linecap="round" stroke-linejoin="round"/>
<path d="M103.661 112.33H107.724C109.061 112.33 110.144 111.247 110.144 109.911V105.943C110.144 104.606 109.061 103.523 107.724 103.523H83.4043" stroke="#0048B4" stroke-width="2" stroke-miterlimit="10" stroke-linecap="round" stroke-linejoin="round"/>
<path d="M83.4043 112.33H96.7741" stroke="#0048B4" stroke-width="2" stroke-miterlimit="10" stroke-linecap="round" stroke-linejoin="round"/>
<path d="M83.4043 103.523H107.725C109.061 103.523 110.144 102.44 110.144 101.103V97.1354C110.144 95.799 109.061 94.7158 107.725 94.7158H83.4043" stroke="#0048B4" stroke-width="2" stroke-miterlimit="10" stroke-linecap="round" stroke-linejoin="round"/>
<path d="M83.4043 94.7159H107.725C109.061 94.7159 110.144 93.6326 110.144 92.2963V88.3283C110.144 86.9919 109.061 85.9087 107.725 85.9087H83.4043" stroke="#0048B4" stroke-width="2" stroke-miterlimit="10" stroke-linecap="round" stroke-linejoin="round"/>
<path d="M63.4395 112.33H87.7597C89.0961 112.33 90.1794 111.247 90.1794 109.911V105.943C90.1794 104.606 89.0961 103.523 87.7597 103.523H63.4395" stroke="#0048B4" stroke-width="2" stroke-miterlimit="10" stroke-linecap="round" stroke-linejoin="round"/>
<path d="M63.4395 103.523H87.7597C89.0961 103.523 90.1794 102.44 90.1794 101.103V97.1354C90.1794 95.799 89.0961 94.7158 87.7597 94.7158H63.4395" stroke="#0048B4" stroke-width="2" stroke-miterlimit="10" stroke-linecap="round" stroke-linejoin="round"/>
<path d="M63.4391 94.7159H87.7594C89.0958 94.7159 90.179 93.6326 90.179 92.2963V88.3283C90.179 86.9919 89.0958 85.9087 87.7594 85.9087H63.4391C62.1028 85.9087 61.0195 86.9919 61.0195 88.3283V92.2963C61.0195 93.6324 62.103 94.7159 63.4391 94.7159Z" stroke="#0048B4" stroke-width="2" stroke-miterlimit="10" stroke-linecap="round" stroke-linejoin="round"/>
<path d="M63.4391 85.9087H87.7594C89.0958 85.9087 90.179 84.8255 90.179 83.4891V79.5212C90.179 78.1848 89.0958 77.1016 87.7594 77.1016H63.4391C62.1028 77.1016 61.0195 78.1848 61.0195 79.5212V83.4891C61.0195 84.8253 62.103 85.9087 63.4391 85.9087Z" stroke="#0048B4" stroke-width="2" stroke-miterlimit="10" stroke-linecap="round" stroke-linejoin="round"/>
<path d="M63.4391 77.1012H87.7594C89.0958 77.1012 90.179 76.018 90.179 74.6816V70.7137C90.179 69.3773 89.0958 68.2941 87.7594 68.2941H63.4391C62.1028 68.2941 61.0195 69.3773 61.0195 70.7137V74.6816C61.0195 76.018 62.103 77.1012 63.4391 77.1012Z" stroke="#0048B4" stroke-width="2" stroke-miterlimit="10" stroke-linecap="round" stroke-linejoin="round"/>
<path d="M42.3884 112.33H66.7087C68.045 112.33 69.1283 111.247 69.1283 109.911V105.943C69.1283 104.606 68.045 103.523 66.7087 103.523H42.3884C41.052 103.523 39.9688 104.606 39.9688 105.943V109.911C39.9687 111.247 41.052 112.33 42.3884 112.33Z" stroke="#0048B4" stroke-width="2" stroke-miterlimit="10" stroke-linecap="round" stroke-linejoin="round"/>
<path d="M42.3884 103.523H66.7087C68.045 103.523 69.1283 102.44 69.1283 101.103V97.1354C69.1283 95.799 68.045 94.7158 66.7087 94.7158H42.3884C41.052 94.7158 39.9688 95.799 39.9688 97.1354V101.103C39.9687 102.44 41.052 103.523 42.3884 103.523Z" stroke="#0048B4" stroke-width="2" stroke-miterlimit="10" stroke-linecap="round" stroke-linejoin="round"/>
<path d="M99.4516 25.36C99.3627 12.1088 88.4686 1.42353 75.1393 1.67425C62.4274 1.91338 52.0414 12.256 51.7519 24.967C51.4892 36.5012 60.1694 46.7225 71.1876 48.9333L74.482 57.4499C74.877 58.4707 76.3214 58.4707 76.7163 57.4499L79.9976 48.9669C91.0964 46.8755 99.5297 37.0236 99.4516 25.36Z" stroke="#0048B4" stroke-width="2" stroke-miterlimit="10" stroke-linecap="round" stroke-linejoin="round"/>
<path d="M75.4957 39.0823C82.9934 39.0823 89.0715 33.0042 89.0715 25.5065C89.0715 18.0088 82.9934 11.9307 75.4957 11.9307C67.998 11.9307 61.9199 18.0088 61.9199 25.5065C61.9199 33.0042 67.998 39.0823 75.4957 39.0823Z" stroke="#0048B4" stroke-width="2" stroke-miterlimit="10" stroke-linecap="round" stroke-linejoin="round"/>
<path d="M85.0957 15.907L65.8965 35.106" stroke="#0048B4" stroke-width="2" stroke-miterlimit="10" stroke-linecap="round" stroke-linejoin="round"/>
<path d="M68.7871 25.5063H82.203" stroke="#0048B4" stroke-width="2" stroke-miterlimit="10" stroke-linecap="round" stroke-linejoin="round"/>
</g>
</svg>
