<svg width="100" height="100" viewBox="0 0 100 100" fill="none" xmlns="http://www.w3.org/2000/svg">
<path d="M96.0414 36.2667L98.5414 33.125C99.1983 32.3024 99.5203 31.262 99.4431 30.2121C99.3658 29.1622 98.895 28.1802 98.1247 27.4625L71.6143 2.97504C70.2641 1.73737 68.4991 1.05078 66.6674 1.05078C64.8358 1.05078 63.0707 1.73737 61.7206 2.97504L35.2081 27.4563C34.4383 28.1742 33.9677 29.1562 33.8905 30.2059C33.8132 31.2557 34.135 32.2959 34.7914 33.1188L37.2914 36.2667C37.934 37.0618 38.8453 37.5944 39.8534 37.764C40.8615 37.9336 41.8969 37.7286 42.7643 37.1875V55.4167C39.5958 55.9598 36.5133 56.921 33.5976 58.275L28.181 60.5667C27.7302 60.0051 27.1084 59.6062 26.41 59.4305C25.7116 59.2549 24.975 59.3122 24.3122 59.5938C21.4976 60.7646 13.1685 64.2542 6.62473 66.9959C4.33961 67.9571 2.52824 69.7843 1.58691 72.0777C0.645581 74.3711 0.650941 76.9439 1.60182 79.2334L6.87473 91.9042C7.84095 94.1988 9.67638 96.0175 11.9797 96.9626C14.2831 97.9078 16.8669 97.9025 19.1664 96.948L36.5476 89.6167C37.2043 89.333 37.7548 88.8496 38.121 88.2351C38.4871 87.6206 38.6503 86.9063 38.5872 86.1938L39.8018 85.6792C41.2055 85.0847 42.7446 84.8837 44.2539 85.098C52.8726 86.3917 67.6706 83.4042 75.2956 78.8355C82.7038 74.3536 89.803 69.38 96.5456 63.948C97.7595 63.0161 98.6042 61.6845 98.93 60.1892C99.2558 58.6939 99.0416 57.1316 98.3255 55.7792C97.6093 54.4267 96.4374 53.3716 95.0175 52.8007C93.5976 52.2298 92.0215 52.1801 90.5685 52.6605V37.175C91.4331 37.722 92.4688 37.9317 93.4781 37.7641C94.4874 37.5966 95.3998 37.0636 96.0414 36.2667ZM18.3581 95.0271C16.5689 95.7731 14.557 95.7793 12.7634 95.0443C10.9697 94.3094 9.54057 92.8932 8.78932 91.1063L3.52473 78.4355C2.78545 76.6553 2.78114 74.6547 3.51276 72.8714C4.24438 71.088 5.65239 69.6669 7.4289 68.9188C11.3247 67.2855 15.8456 65.3917 19.4664 63.8792L30.3122 89.9834L18.3581 95.0271ZM35.7372 87.6959L32.2331 89.173L21.3872 63.075L25.1101 61.5209C25.4331 61.3878 25.7957 61.3883 26.1184 61.5222C26.441 61.6562 26.6973 61.9127 26.831 62.2355L36.4393 86.0042C36.5658 86.3221 36.5633 86.6768 36.4321 86.9928C36.301 87.3087 36.0516 87.561 35.7372 87.6959ZM95.2351 62.325C88.5821 67.7157 81.5609 72.6353 74.2226 77.048C67.0643 81.3375 52.6476 84.2563 44.5601 83.0355C42.6718 82.7669 40.746 83.0175 38.9893 83.7605L37.9476 84.2L29.1518 62.4209L34.4768 60.1709C34.5976 60.1125 46.6268 54.1792 58.2497 58.6313C65.506 61.4063 68.9976 60.2813 72.0768 59.2917C72.7384 59.061 73.4115 58.8649 74.0935 58.7042C76.031 58.2875 77.5247 60.598 77.5247 62.3938C77.5247 64.673 73.6622 67.0938 72.256 67.7188C69.1296 68.6374 65.8429 68.8767 62.6164 68.4209C62.4807 68.4031 62.3428 68.4122 62.2106 68.4477C62.0785 68.4832 61.9546 68.5444 61.8461 68.6278C61.7375 68.7112 61.6465 68.8151 61.5781 68.9337C61.5098 69.0522 61.4654 69.1831 61.4476 69.3188C61.4299 69.4545 61.439 69.5924 61.4745 69.7245C61.51 69.8567 61.5712 69.9806 61.6545 70.0891C61.7379 70.1977 61.8419 70.2887 61.9604 70.3571C62.079 70.4254 62.2099 70.4698 62.3456 70.4875C65.9501 70.9969 69.6228 70.7017 73.0997 69.623C73.1643 69.5938 79.4497 66.6834 79.5956 62.5396C81.3643 61.2896 87.7768 56.675 90.2414 55.0959C91.2008 54.4972 92.354 54.2912 93.4614 54.5205C94.5688 54.7499 95.5453 55.397 96.188 56.3274C96.8308 57.2579 97.0904 58.4002 96.9129 59.5171C96.7355 60.634 96.1346 61.6396 95.2351 62.325ZM44.8539 55.1167V35.3625L66.1872 15.6646C66.3177 15.5441 66.4888 15.4772 66.6664 15.4772C66.844 15.4772 67.0151 15.5441 67.1456 15.6646L88.4789 35.3625V53.775C86.0622 55.423 81.4872 58.648 79.2101 60.2584C78.866 59.0894 78.1128 58.0832 77.088 57.4237C76.0633 56.7643 74.8354 56.4956 73.6289 56.6667C72.8851 56.8375 72.1706 57.0667 71.4414 57.2917C68.5518 58.2188 65.5664 59.1771 58.9935 56.6667C54.4761 55.0093 49.623 54.4773 44.8539 55.1167ZM68.5581 14.1334C68.0414 13.6601 67.3661 13.3975 66.6654 13.3975C65.9646 13.3975 65.2894 13.6601 64.7726 14.1334L41.9664 35.1959C41.7561 35.3897 41.5082 35.5382 41.2381 35.632C40.968 35.7259 40.6814 35.7631 40.3963 35.7414C40.1112 35.7197 39.8335 35.6396 39.5807 35.5059C39.3279 35.3723 39.1053 35.188 38.9268 34.9646L36.4101 31.8167C36.0805 31.4059 35.9188 30.8854 35.9574 30.3601C35.9961 29.8348 36.2323 29.3436 36.6185 28.9855L63.1247 4.50421C64.0893 3.62069 65.35 3.13061 66.6581 3.13061C67.9662 3.13061 69.2268 3.62069 70.1914 4.50421L96.7102 28.9855C97.0964 29.3436 97.3326 29.8348 97.3712 30.3601C97.4099 30.8854 97.2481 31.4059 96.9185 31.8167L94.4039 34.9646C94.2241 35.1865 94.0009 35.3694 93.748 35.502C93.495 35.6346 93.2177 35.7142 92.9329 35.7358C92.6481 35.7575 92.3619 35.7207 92.0919 35.6279C91.8218 35.535 91.5735 35.388 91.3622 35.1959L68.5581 14.1334Z" fill="#0048B4"/>
<path d="M67.6077 46.8751H65.0868C64.5251 46.8745 63.9865 46.6511 63.5893 46.2539C63.1921 45.8567 62.9687 45.3181 62.9681 44.7563C62.9681 44.4801 62.8584 44.2151 62.663 44.0198C62.4677 43.8244 62.2027 43.7147 61.9264 43.7147C61.6502 43.7147 61.3852 43.8244 61.1899 44.0198C60.9945 44.2151 60.8848 44.4801 60.8848 44.7563C60.8859 45.8705 61.3289 46.9386 62.1167 47.7264C62.9046 48.5142 63.9727 48.9573 65.0868 48.9584H65.6243V51.0417C65.6243 51.318 65.7341 51.583 65.9294 51.7783C66.1248 51.9737 66.3897 52.0834 66.666 52.0834C66.9423 52.0834 67.2072 51.9737 67.4026 51.7783C67.5979 51.583 67.7077 51.318 67.7077 51.0417V48.9584C68.9509 48.9452 70.1379 48.4386 71.0076 47.5501C71.8773 46.6617 72.3584 45.4641 72.3452 44.2209C72.3319 42.9777 71.8253 41.7907 70.9369 40.921C70.0484 40.0513 68.8509 39.5702 67.6077 39.5834H65.7327C65.042 39.5834 64.3796 39.3091 63.8913 38.8207C63.4029 38.3323 63.1285 37.6699 63.1285 36.9792C63.1285 36.2886 63.4029 35.6262 63.8913 35.1378C64.3796 34.6494 65.042 34.3751 65.7327 34.3751H68.2535C68.8153 34.3756 69.3539 34.599 69.7511 34.9963C70.1483 35.3935 70.3717 35.9321 70.3723 36.4938C70.3723 36.7701 70.482 37.0351 70.6774 37.2304C70.8727 37.4258 71.1377 37.5355 71.4139 37.5355C71.6902 37.5355 71.9551 37.4258 72.1505 37.2304C72.3458 37.0351 72.4556 36.7701 72.4556 36.4938C72.455 35.9415 72.3457 35.3946 72.1338 34.8845C71.9219 34.3744 71.6116 33.911 71.2207 33.5208C70.8297 33.1306 70.3657 32.8212 69.8552 32.6103C69.3446 32.3995 68.7976 32.2912 68.2452 32.2917H67.7077V30.2084C67.7077 29.9321 67.5979 29.6672 67.4026 29.4718C67.2072 29.2765 66.9423 29.1667 66.666 29.1667C66.3897 29.1667 66.1248 29.2765 65.9294 29.4718C65.7341 29.6672 65.6243 29.9321 65.6243 30.2084V32.3022C64.3975 32.3376 63.2336 32.8532 62.3831 33.7381C61.5325 34.6229 61.0634 35.8063 61.0765 37.0336C61.0896 38.2608 61.5839 39.4339 62.4532 40.3004C63.3224 41.1669 64.497 41.6575 65.7243 41.6667H67.5994C68.29 41.6667 68.9524 41.9411 69.4408 42.4295C69.9291 42.9179 70.2035 43.5802 70.2035 44.2709C70.2035 44.9616 69.9291 45.624 69.4408 46.1123C68.9524 46.6007 68.29 46.8751 67.5994 46.8751H67.6077Z" fill="#0048B4"/>
</svg>
