<svg width="513" height="326" viewBox="0 0 513 326" fill="none" xmlns="http://www.w3.org/2000/svg">
<g clip-path="url(#clip0_3192_1204)">
<rect x="0.5" y="0.5" width="512" height="325" rx="39.5" fill="#0048B4" stroke="#0048B4"/>
<g opacity="0.5">
<path d="M654.939 -3.99805H-13V396H654.939V-3.99805Z" fill="#DDEAFF"/>
<path d="M-12.5 395.5V-3.49805H654.439V395.5H-12.5Z" stroke="white" stroke-opacity="0.1"/>
<mask id="mask0_3192_1204" style="mask-type:luminance" maskUnits="userSpaceOnUse" x="-13" y="-4" width="668" height="400">
<path d="M654.939 -4H-13V395.998H654.939V-4Z" fill="white"/>
<path d="M-12.5 395.498V-3.5H654.439V395.498H-12.5Z" stroke="white"/>
</mask>
<g mask="url(#mask0_3192_1204)">
<path d="M505.389 298.719C510.245 280.714 513.281 262.242 519.237 244.549C525.193 226.856 534.448 209.598 549.346 197.805C559.155 190.04 572.734 181.496 570.15 169.502C567.356 156.537 548.821 154.681 538.892 145.55C523.77 131.64 532.635 105.584 521.359 88.6078C513.497 76.7726 498.126 72.4766 485.303 65.82C457.224 51.2461 438.57 21.1136 438.563 -9.67695C527.598 -11.4589 616.633 -13.2416 705.668 -15.0236C719.589 -15.3023 735.907 -14.4603 743.783 -3.36832C747.902 2.43299 748.632 9.79761 749.237 16.8076C755.241 86.3665 761.238 156.479 752.868 225.808C745.605 285.961 727.553 345.896 734.648 406.067C734.648 405.683 587.909 403.649 574.515 403.428C547.513 402.983 520.51 402.538 493.507 402.093C485.957 401.968 466.047 405.436 461.789 397.698C457.623 390.128 470.531 377.387 474.233 371.292C487.998 348.634 498.532 324.144 505.389 298.719Z" fill="white"/>
<path d="M485.533 65.3762L485.303 65.82L485.533 65.3762C457.763 50.9627 439.268 21.2401 439.065 -9.18689C482.984 -10.0659 526.903 -10.9451 570.823 -11.8243C615.775 -12.7241 660.726 -13.624 705.678 -14.5237C712.632 -14.6629 720.14 -14.5202 726.881 -12.9726C733.618 -11.4258 739.535 -8.48808 743.375 -3.07885C747.403 2.59401 748.132 9.81794 748.739 16.8506C754.743 86.4182 760.735 156.479 752.371 225.749C750.189 243.826 747.035 261.861 743.88 279.904C741.786 291.879 739.691 303.859 737.88 315.857C733.374 345.695 730.633 375.571 734.08 405.519C733.81 405.506 733.452 405.492 733.013 405.477C731.932 405.441 730.347 405.399 728.328 405.353C724.288 405.26 718.503 405.148 711.519 405.024C697.553 404.776 678.791 404.478 659.612 404.186C637.05 403.843 613.911 403.506 597.315 403.265C585.694 403.096 577.282 402.974 574.524 402.928C560.696 402.7 546.868 402.472 533.04 402.244C519.865 402.027 506.69 401.81 493.515 401.593C491.866 401.566 489.639 401.707 487.147 401.866C486.749 401.891 486.344 401.917 485.933 401.943C482.939 402.129 479.627 402.308 476.422 402.251C473.213 402.193 470.141 401.898 467.621 401.152C465.096 400.405 463.2 399.226 462.227 397.457C461.273 395.724 461.274 393.659 461.935 391.375C462.598 389.09 463.906 386.645 465.48 384.214C467.052 381.786 468.871 379.401 470.538 377.229L470.778 376.917C472.341 374.881 473.763 373.029 474.66 371.552C488.449 348.854 499.002 324.32 505.872 298.849C507.736 291.936 509.333 284.951 510.928 277.979C511.412 275.861 511.896 273.744 512.387 271.63C514.497 262.553 516.741 253.531 519.711 244.709C525.651 227.062 534.865 209.906 549.656 198.197L549.346 197.805L549.656 198.197C550.795 197.296 551.991 196.38 553.21 195.446C557.201 192.387 561.442 189.137 564.761 185.581C569.103 180.927 571.981 175.63 570.638 169.397C569.189 162.67 563.656 158.873 557.427 155.644C555.917 154.862 554.357 154.108 552.794 153.354L552.626 153.273C551.006 152.49 549.384 151.704 547.804 150.878C544.64 149.225 541.665 147.421 539.231 145.182C531.825 138.37 530.266 128.567 529.18 118.177C529.083 117.243 528.989 116.305 528.895 115.364C527.951 105.901 526.98 96.167 521.775 88.3312C517.776 82.311 511.882 78.2302 505.424 74.8295C502.195 73.1287 498.812 71.5919 495.447 70.069L495.174 69.9456C491.896 68.4622 488.639 66.9883 485.533 65.3762Z" stroke="white" stroke-opacity="0.1"/>
</g>
<mask id="mask1_3192_1204" style="mask-type:luminance" maskUnits="userSpaceOnUse" x="-13" y="-4" width="668" height="400">
<path d="M654.939 -4H-13V395.998H654.939V-4Z" fill="white"/>
<path d="M-12.5 395.498V-3.5H654.439V395.498H-12.5Z" stroke="white"/>
</mask>
<g mask="url(#mask1_3192_1204)">
<path d="M46.129 387.443C61.4402 348.993 49.5929 301.913 73.6815 267.916C80.9253 257.692 90.8789 249.61 100.044 240.944C118.075 223.897 133.294 204.319 148.437 184.825C162.604 166.59 177.251 147.251 180.306 124.643C182.697 106.946 177.676 89.1839 172.703 71.9947C162.449 36.5509 152.194 1.10641 141.939 -34.3374C69.6351 -33.8621 -2.66795 -33.3867 -74.9717 -32.9107C-74.4413 89.2053 -71.0863 210.869 -70.5559 332.985C-70.4417 359.292 -70.2213 386.206 -60.961 410.946C-24.2357 411.467 11.9552 400.445 46.129 387.443Z" fill="white"/>
<path d="M73.2735 267.627C61.1453 284.744 58.0793 305.134 56.1159 325.962C55.8384 328.907 55.5828 331.86 55.3271 334.814C53.7772 352.721 52.2238 370.669 45.7455 387.054C11.7523 399.976 -24.1756 410.896 -60.612 410.451C-69.7185 385.896 -69.9422 359.191 -70.0559 332.982C-70.3211 271.922 -71.2925 210.974 -72.2638 150.031L-72.2639 150.029C-73.2326 89.2497 -74.2012 28.4737 -74.4695 -32.414C-2.45821 -32.8881 69.5524 -33.3615 141.564 -33.8349C151.784 1.48772 162.003 36.811 172.222 72.1336C177.201 89.3405 182.185 107.001 179.81 124.576C176.777 147.029 162.224 166.263 148.042 184.519C132.896 204.017 117.699 223.564 99.7009 240.58C97.697 242.475 95.6502 244.346 93.5988 246.221C86.3065 252.887 78.9565 259.606 73.2735 267.627Z" stroke="white" stroke-opacity="0.1"/>
</g>
<mask id="mask2_3192_1204" style="mask-type:luminance" maskUnits="userSpaceOnUse" x="-13" y="-4" width="668" height="400">
<path d="M654.939 -4H-13V395.998H654.939V-4Z" fill="white"/>
<path d="M-12.5 395.498V-3.5H654.439V395.498H-12.5Z" stroke="white"/>
</mask>
<g mask="url(#mask2_3192_1204)">
<path d="M155.381 -4.06717C158.084 11.6434 160.785 27.354 163.487 43.0646C167.546 66.6631 172.152 90.241 175.674 113.919C178.219 131.035 169.118 146.677 159.282 160.787C139.94 188.532 110.311 207.354 89.0567 233.512C60.4836 268.679 47.8081 307.456 47.3319 351.792C47.0273 380.123 48.4614 485.425 -9.03815 457.684C-22.4784 451.199 -18.9871 433.006 -19.3371 420.887C-20.5033 380.459 -21.4004 340.023 -22.0276 299.583C-23.2826 218.704 -23.4596 137.809 -22.5592 56.9252C-22.3341 36.7039 -22.0416 16.4841 -21.6816 -3.73517C-19.8694 -1.77585 -4.32317 -3.79517 -1.76563 -3.80984C14.4539 -3.89984 30.6735 -3.9965 46.8931 -4.07584C83.0553 -4.25117 119.218 -3.9105 155.381 -4.06717Z" fill="#0048B4"/>
<path d="M102.135 -3.57609C119.742 -3.53353 137.351 -3.49096 154.96 -3.56536C157.587 11.708 160.214 26.9814 162.841 42.2547L162.994 43.1493C164.348 51.0179 165.761 58.8802 167.175 66.7424C170.003 82.4755 172.832 98.2087 175.179 113.992C177.693 130.894 168.711 146.386 158.872 160.501C149.236 174.323 137.031 185.932 124.548 197.376C123.299 198.521 122.047 199.665 120.794 200.809C109.544 211.086 98.257 221.396 88.6687 233.197C60.0186 268.458 47.3093 307.347 46.8319 351.787C46.8205 352.847 46.8116 354.013 46.8018 355.276C46.6814 370.916 46.4477 401.279 40.1111 425.639C36.6845 438.812 31.4975 450.127 23.6707 456.436C19.7691 459.581 15.2067 461.487 9.8546 461.761C4.49556 462.036 -1.68694 460.675 -8.82088 457.233C-15.319 454.098 -17.7586 448.135 -18.6003 441.337C-19.0212 437.937 -19.0384 434.353 -18.9704 430.847C-18.9518 429.891 -18.9269 428.94 -18.9022 427.999C-18.8368 425.503 -18.7734 423.085 -18.8373 420.873C-20.0035 380.447 -20.9005 340.013 -21.5276 299.575C-22.7826 218.7 -22.9596 137.81 -22.0593 56.9307C-21.8373 36.9932 -21.5498 17.0569 -21.1967 -2.87874C-20.9833 -2.80082 -20.7531 -2.73848 -20.5175 -2.68683C-19.8751 -2.54605 -19.078 -2.4624 -18.1894 -2.41879C-16.4096 -2.33145 -14.1949 -2.40197 -11.9737 -2.53313C-9.74944 -2.66447 -7.50333 -2.85761 -5.65824 -3.01834L-5.44692 -3.03676C-3.68937 -3.18993 -2.35229 -3.30647 -1.76276 -3.30985C2.74271 -3.33485 7.24821 -3.36036 11.7537 -3.38588C23.4678 -3.45221 35.1816 -3.51855 46.8955 -3.57584C64.9745 -3.6635 83.054 -3.62217 101.136 -3.5785L102.135 -3.57609Z" stroke="white" stroke-opacity="0.1"/>
</g>
<mask id="mask3_3192_1204" style="mask-type:luminance" maskUnits="userSpaceOnUse" x="-13" y="-4" width="668" height="400">
<path d="M654.939 -4H-13V395.998H654.939V-4Z" fill="white"/>
<path d="M-12.5 395.498V-3.5H654.439V395.498H-12.5Z" stroke="white"/>
</mask>
<g mask="url(#mask3_3192_1204)">
<path d="M519.952 267.043C523.878 247.697 532.643 228.712 547.773 216.099C553.888 211.003 560.909 207.039 566.73 201.607C572.55 196.174 577.23 188.678 576.63 180.723C575.902 171.061 567.831 163.707 559.777 158.366C551.723 153.026 542.692 148.198 537.897 139.789C530.042 126.013 536.179 107.215 527.757 93.7799C521.018 83.0286 507.459 79.4467 496.056 73.9394C462.726 57.8414 443.254 17.1603 451.56 -19.0215C545.609 -18.6315 639.658 -18.2415 733.706 -17.8522C734.388 121.322 735.07 260.497 735.752 399.672C646.552 401.709 557.351 403.747 468.151 405.784C481.71 382.95 495.275 360.12 508.829 337.283C511.247 333.209 515.492 328.429 516.756 323.881C518.2 318.689 516.647 311.195 516.664 305.801C516.705 292.821 517.366 279.79 519.952 267.043Z" fill="#0048B4"/>
<path d="M520.442 267.142C524.354 247.866 533.079 229 548.094 216.483C550.728 214.287 553.532 212.303 556.353 210.306C556.786 210 557.219 209.694 557.651 209.387C560.899 207.079 564.134 204.713 567.071 201.972C572.941 196.493 577.745 188.859 577.129 180.685C576.381 170.767 568.115 163.295 560.053 157.95C558.805 157.122 557.54 156.31 556.274 155.499C553.428 153.673 550.58 151.846 547.917 149.83C544.08 146.925 540.682 143.664 538.331 139.541C534.541 132.894 534.057 125.042 533.565 117.062L533.538 116.626C533.039 108.547 532.47 100.357 528.181 93.5144C524.743 88.0293 519.578 84.3948 513.885 81.4491C511.039 79.976 508.049 78.6697 505.069 77.3914C504.714 77.2388 504.358 77.0866 504.003 76.9346C501.377 75.811 498.773 74.6964 496.274 73.4891C463.274 57.5509 443.933 17.3377 451.959 -18.5198C545.709 -18.1311 639.459 -17.7423 733.209 -17.3542L735.25 399.183C690.288 400.21 645.327 401.237 600.365 402.264C556.591 403.264 512.816 404.264 469.042 405.264C473.519 397.724 477.997 390.184 482.476 382.644C491.405 367.61 500.335 352.575 509.259 337.538L508.829 337.283L509.259 337.538C510.028 336.243 510.973 334.89 511.959 333.479C512.515 332.684 513.084 331.87 513.641 331.038C515.166 328.76 516.583 326.372 517.238 324.015C517.985 321.331 517.95 318.085 517.744 314.885C517.674 313.789 517.583 312.702 517.495 311.639C517.323 309.56 517.158 307.574 517.164 305.803C517.205 292.836 517.865 279.843 520.442 267.142Z" stroke="white" stroke-opacity="0.1"/>
</g>
<mask id="mask4_3192_1204" style="mask-type:luminance" maskUnits="userSpaceOnUse" x="-13" y="-4" width="668" height="400">
<path d="M654.939 -4H-13V395.998H654.939V-4Z" fill="white"/>
<path d="M-12.5 395.498V-3.5H654.439V395.498H-12.5Z" stroke="white"/>
</mask>
<g mask="url(#mask4_3192_1204)">
<path d="M249.14 78.3703C232.145 77.0883 206.25 65.527 192.79 51.5224C184.024 42.4012 185.99 42.3278 180.563 30.5845C166.727 0.633385 174.537 -6.41458 191.12 -17.9758C212.106 -32.6064 228.877 -51.9243 252.309 -63.0643C270.673 -71.7949 291.625 -76.5022 313.379 -74.4335C323.523 -73.4689 333.842 -71.0302 344.154 -66.8389C361.596 -59.7496 379.299 -47.693 396.247 -47.799C406.218 -47.8617 415.209 -52.223 425.475 -50.361C470.924 -42.1151 355.473 86.3896 249.14 78.3703Z" fill="#C8CDF5"/>
<path d="M343.966 -66.3757L344.154 -66.8389L343.966 -66.3757C348.309 -64.6101 352.673 -62.5337 357.05 -60.4085C357.766 -60.0609 358.482 -59.712 359.198 -59.3629C362.858 -57.5798 366.526 -55.793 370.182 -54.164C378.921 -50.2707 387.665 -47.2453 396.25 -47.299C400.384 -47.325 404.357 -48.0823 408.269 -48.828C409.129 -48.9917 409.985 -49.155 410.84 -49.3098C415.605 -50.173 420.346 -50.7832 425.386 -49.869C428.163 -49.3652 430.286 -48.4093 431.828 -47.0886C433.365 -45.7717 434.351 -44.0695 434.821 -42.0212C435.769 -37.8978 434.628 -32.359 431.597 -25.8514C425.544 -12.8579 412.107 3.67403 393.895 19.729C357.468 51.8429 302.151 81.8668 249.178 77.8717C240.76 77.2367 230.097 74.0494 219.851 69.2643C209.606 64.4797 199.825 58.1201 193.151 51.176C188.779 46.6273 187.122 44.3733 185.874 41.8173C185.316 40.6758 184.839 39.4712 184.238 37.9569C184.16 37.7578 184.078 37.5533 183.995 37.3429C183.277 35.538 182.379 33.3222 181.017 30.3748C174.106 15.4163 172.677 6.32202 174.909 -0.435036C177.144 -7.2022 183.088 -11.7665 191.406 -17.5657C199.275 -23.0517 206.559 -29.2003 213.802 -35.3141C216.238 -37.3701 218.669 -39.422 221.116 -41.4436C230.853 -49.4878 240.865 -57.07 252.524 -62.6127C270.818 -71.3104 291.68 -75.9947 313.331 -73.9358C323.428 -72.9757 333.7 -70.5485 343.966 -66.3757Z" stroke="white" stroke-opacity="0.1"/>
</g>
<mask id="mask5_3192_1204" style="mask-type:luminance" maskUnits="userSpaceOnUse" x="-13" y="-4" width="668" height="400">
<path d="M654.939 -4H-13V395.998H654.939V-4Z" fill="white"/>
<path d="M-12.5 395.498V-3.5H654.439V395.498H-12.5Z" stroke="white"/>
</mask>
<g mask="url(#mask5_3192_1204)">
<path d="M498.763 -8.51514C496.08 -8.50647 494.784 0.648815 494.738 2.01548C494.613 5.73412 495.666 9.41877 496.657 13.0421C500.891 28.5193 511.809 43.3293 529.06 52.8792C540.367 59.1385 553.257 63.1438 561.173 72.2218C568.305 80.4011 571.51 90.221 573.247 99.7683C577.048 120.661 576.707 150.113 607.009 160.611C626.337 167.307 648.959 161.148 670.271 161.777C683.887 162.18 697.21 165.413 710.836 165.249C724.461 165.085 739.62 160.102 743.157 150.333V-8.51514C743.157 -8.51514 498.812 -8.51514 498.763 -8.51514Z" fill="#99CCF6"/>
<path d="M742.657 -8.01514H742.619H742.541H742.457H742.367H742.273H742.173H742.068H741.958H741.843H741.723H741.597H741.467H741.331H741.191H741.045H740.895H740.739H740.579H740.413H740.243H740.068H739.888H739.703H739.514H739.319H739.12H738.916H738.708H738.494H738.277H738.054H737.827H737.595H737.358H737.117H736.872H736.622H736.367H736.108H735.845H735.577H735.304H735.028H734.746H734.461H734.171H733.877H733.579H733.276H732.969H732.658H732.343H732.023H731.7H731.372H731.04H730.704H730.364H730.02H729.672H729.32H728.964H728.604H728.24H727.872H727.501H727.125H726.746H726.362H725.975H725.585H725.19H724.792H724.39H723.984H723.574H723.161H722.745H722.324H721.901H721.473H721.042H720.608H720.17H719.728H719.283H718.835H718.383H717.928H717.47H717.008H716.543H716.074H715.602H715.127H714.649H714.168H713.683H713.195H712.704H712.21H711.713H711.213H710.71H710.203H709.694H709.182H708.666H708.148H707.627H707.103H706.576H706.046H705.513H704.978H704.439H703.898H703.354H702.808H702.259H701.707H701.152H700.595H700.035H699.472H698.907H698.34H697.77H697.197H696.622H696.044H695.464H694.882H694.297H693.709H693.12H692.528H691.933H691.337H690.738H690.137H689.533H688.928H688.32H687.71H687.098H686.484H685.868H685.249H684.629H684.007H683.382H682.756H682.127H681.497H680.865H680.231H679.595H678.957H678.317H677.675H677.032H676.387H675.74H675.092H674.441H673.789H673.136H672.48H671.824H671.165H670.505H669.843H669.18H668.516H667.849H667.182H666.513H665.842H665.171H664.497H663.823H663.147H662.47H661.791H661.111H660.43H659.748H659.065H658.38H657.694H657.007H656.319H655.63H654.94H654.249H653.556H652.863H652.169H651.473H650.777H650.08H649.382H648.683H647.984H647.283H646.582H645.88H645.177H644.473H643.769H643.064H642.358H641.651H640.944H640.237H639.529H638.82H638.11H637.4H636.69H635.979H635.268H634.556H633.844H633.131H632.418H631.705H630.992H630.278H629.563H628.849H628.134H627.419H626.704H625.989H625.273H624.558H623.842H623.126H622.41H621.694H620.979H620.263H619.547H618.831H618.115H617.399H616.684H615.968H615.253H614.538H613.823H613.108H612.394H611.679H610.965H610.252H609.539H608.826H608.113H607.401H606.689H605.978H605.267H604.556H603.846H603.137H602.428H601.72H601.012H600.305H599.599H598.893H598.188H597.483H596.78H596.077H595.375H594.673H593.973H593.273H592.574H591.876H591.179H590.483H589.787H589.093H588.4H587.707H587.016H586.326H585.637H584.948H584.261H583.576H582.891H582.207H581.525H580.844H580.164H579.486H578.808H578.132H577.458H576.784H576.112H575.442H574.773H574.105H573.439H572.774H572.111H571.449H570.789H570.131H569.474H568.818H568.165H567.512H566.862H566.213H565.566H564.921H564.278H563.636H562.996H562.358H561.722H561.088H560.456H559.825H559.197H558.57H557.946H557.323H556.703H556.084H555.468H554.854H554.241H553.631H553.024H552.418H551.814H551.213H550.614H550.017H549.423H548.831H548.241H547.654H547.069H546.486H545.906H545.328H544.753H544.18H543.61H543.042H542.477H541.914H541.354H540.797H540.242H539.69H539.14H538.594H538.05H537.509H536.97H536.434H535.902H535.372H534.844H534.32H533.799H533.28H532.765H532.252H531.743H531.236H530.733H530.233H529.735H529.241H528.75H528.262H527.777H527.296H526.817H526.342H525.87H525.402H524.936H524.474H524.016H523.56H523.108H522.66H522.215H521.773H521.335H520.9H520.469H520.042H519.617H519.197H518.78H518.367H517.957H517.551H517.149H516.751H516.356H515.965H515.578H515.194H514.814H514.439H514.067H513.699H513.335H512.974H512.618H512.266H511.918H511.573H511.233H510.897H510.565H510.237H509.913H509.594H509.278H508.967H508.66H508.357H508.058H507.764H507.474H507.188H506.907H506.63H506.357H506.089H505.825H505.566H505.311H505.061H504.815H504.574H504.337H504.105H503.878H503.655H503.437H503.223H503.014H502.81H502.611H502.416H502.226H502.041H501.861H501.686H501.515H501.35H501.189H501.033H500.883H500.737H500.596H500.46H500.33H500.204H500.083H499.968H499.858H499.752H499.652H499.558H499.468H499.384H499.305H499.231H499.162H499.099H499.041H498.989H498.942H498.9H498.864H498.833H498.808H498.788H498.774H498.766H498.763C498.392 -8.01352 497.936 -7.67985 497.443 -6.81163C496.975 -5.98501 496.573 -4.84439 496.244 -3.6286C495.587 -1.19734 495.259 1.39431 495.237 2.03217L742.657 -8.01514ZM742.657 -8.01514V150.245C740.935 154.899 736.431 158.483 730.586 160.932C724.721 163.39 717.59 164.668 710.83 164.749C704.055 164.831 697.348 164.068 690.611 163.23C690.004 163.154 689.397 163.078 688.789 163.002C682.663 162.234 676.505 161.461 670.285 161.278C662.868 161.058 655.276 161.66 647.75 162.256C644.436 162.518 641.135 162.78 637.867 162.97C627.145 163.593 616.74 163.453 607.173 160.139C592.191 154.948 584.796 145.091 580.659 133.914C577.662 125.817 576.385 117.072 575.188 108.879C574.725 105.706 574.273 102.616 573.739 99.6788C571.995 90.0884 568.765 80.1683 561.55 71.8932C557.53 67.2829 552.261 63.9773 546.618 61.0497C544.223 59.807 541.751 58.6279 539.274 57.4466C538.833 57.2361 538.392 57.0255 537.951 56.8145C535.029 55.4173 532.115 53.9988 529.302 52.4418C512.167 42.9556 501.337 28.2544 497.14 12.9102L497.14 12.9101C497.106 12.7877 497.072 12.6653 497.039 12.543C496.075 9.02458 495.12 5.53845 495.237 2.03233L742.657 -8.01514Z" stroke="white" stroke-opacity="0.1"/>
</g>
<mask id="mask6_3192_1204" style="mask-type:luminance" maskUnits="userSpaceOnUse" x="-13" y="-4" width="668" height="400">
<path d="M654.939 -4H-13V395.998H654.939V-4Z" fill="white"/>
<path d="M-12.5 395.498V-3.5H654.439V395.498H-12.5Z" stroke="white"/>
</mask>
<g mask="url(#mask6_3192_1204)">
<path d="M127.651 -9.55859C105.053 14.9953 115.521 43.8644 126.095 71.041C137.283 99.7921 139.116 130.503 122.011 157.6C99.591 193.116 56.6098 210.132 32.1438 244.225C14.4374 268.899 4.17524 298.944 9.08125 329.091C13.7769 357.945 17.5714 377.331 6.55043 405.441C-0.58984 423.653 -8.90969 441.434 -18.345 458.644H-63.5317V-9.55859H127.651Z" fill="#032D6B"/>
<path d="M-18.6412 458.144H-63.0317V-9.05859H126.526C115.739 3.10678 112.837 16.3103 113.935 29.7983C115.056 43.5661 120.346 57.6441 125.63 71.2223C136.782 99.8831 138.581 130.415 121.588 157.333C110.431 175.007 94.1499 188.091 77.5371 201.052C76.7725 201.648 76.0073 202.244 75.2418 202.841C59.3968 215.185 43.4549 227.605 31.7376 243.933C13.9772 268.682 3.65486 298.859 8.58774 329.171C8.76648 330.27 8.94387 331.354 9.11916 332.426C13.5502 359.514 16.6324 378.356 6.08493 405.259C-1.01164 423.359 -9.27471 441.033 -18.6412 458.144Z" stroke="white" stroke-opacity="0.1"/>
</g>
</g>
<path d="M43.58 43.9367C44.6893 44.4061 45.564 45.1207 46.204 46.0807C46.844 47.0407 47.164 48.1181 47.164 49.3127C47.164 51.0407 46.556 52.5127 45.34 53.7287C44.124 54.9447 42.652 55.5527 40.924 55.5527H31.164V33.1527H40.188C41.8307 33.1527 43.2493 33.7501 44.444 34.9447C45.6173 36.1181 46.204 37.5261 46.204 39.1687C46.204 41.2594 45.3293 42.8487 43.58 43.9367ZM40.188 35.2647H33.404V43.0727H40.188C41.212 43.0727 42.0973 42.6994 42.844 41.9527C43.5907 41.1634 43.964 40.2354 43.964 39.1687C43.964 38.1234 43.5907 37.2061 42.844 36.4167C42.0973 35.6487 41.212 35.2647 40.188 35.2647ZM33.404 53.4407H40.924C42.0333 53.4407 42.972 53.0461 43.74 52.2567C44.5293 51.4674 44.924 50.4861 44.924 49.3127C44.924 48.1607 44.5293 47.1901 43.74 46.4007C42.972 45.5901 42.0333 45.1847 40.924 45.1847H33.404V53.4407ZM59.6478 55.5527H51.6478V33.1527H53.8878V41.4727H59.6478C61.6531 41.4727 63.3278 42.1447 64.6718 43.4887C66.0158 44.8327 66.6878 46.5074 66.6878 48.5127C66.6878 50.5181 66.0158 52.1927 64.6718 53.5367C63.3278 54.8807 61.6531 55.5527 59.6478 55.5527ZM71.3278 55.5527H69.0878V33.1527H71.3278V55.5527ZM53.8878 43.5847V53.4407H59.6478C61.0344 53.4407 62.1758 52.9821 63.0718 52.0647C63.9891 51.1474 64.4478 49.9634 64.4478 48.5127C64.4478 47.0834 63.9891 45.9101 63.0718 44.9927C62.1758 44.0541 61.0344 43.5847 59.6478 43.5847H53.8878ZM79.3403 42.1127H85.4203C87.2549 42.1127 88.8336 42.7741 90.1563 44.0967C91.4789 45.4194 92.1403 46.9981 92.1403 48.8327C92.1403 50.6887 91.4789 52.2781 90.1563 53.6007C88.8549 54.9021 87.2763 55.5527 85.4203 55.5527H77.1003V33.1527H90.2203V35.2647H79.3403V42.1127ZM79.3403 53.4407H85.4203C86.6576 53.4407 87.7136 52.9927 88.5883 52.0967C89.4629 51.1794 89.9003 50.0914 89.9003 48.8327C89.9003 47.5954 89.4629 46.5181 88.5883 45.6007C87.7349 44.6834 86.6789 44.2247 85.4203 44.2247H79.3403V53.4407ZM98.699 45.3127V53.4407H109.579V55.5527H96.459V33.1527H109.419V35.2647H98.699V43.2007H108.619V45.3127H98.699ZM114.068 33.1527H122.068C124.073 33.1527 125.748 33.8247 127.092 35.1687C128.436 36.5127 129.108 38.1874 129.108 40.1927C129.108 42.1981 128.436 43.8727 127.092 45.2167C125.748 46.5607 124.073 47.2327 122.068 47.2327H116.308V55.5527H114.068V33.1527ZM116.308 45.1207H122.068C123.454 45.1207 124.596 44.6621 125.492 43.7447C126.409 42.8274 126.868 41.6434 126.868 40.1927C126.868 38.7634 126.409 37.5901 125.492 36.6727C124.596 35.7341 123.454 35.2647 122.068 35.2647H116.308V45.1207ZM150.223 55.5527H147.983V37.3127L135.503 55.5527H133.583V33.1527H135.823V51.3927L148.303 33.1527H150.223V55.5527ZM154.053 33.1527H170.053V35.2647H163.173V55.5527H160.933V35.2647H154.053V33.1527ZM176.134 45.3127V53.4407H187.014V55.5527H173.894V33.1527H186.854V35.2647H176.134V43.2007H186.054V45.3127H176.134ZM200.143 33.1527H216.143V55.5527H213.903V35.2647H202.383V55.5527H200.143V33.1527ZM221.908 33.1527H229.908C231.913 33.1527 233.588 33.8247 234.932 35.1687C236.276 36.5127 236.948 38.1874 236.948 40.1927C236.948 42.1981 236.276 43.8727 234.932 45.2167C233.588 46.5607 231.913 47.2327 229.908 47.2327H224.148V55.5527H221.908V33.1527ZM224.148 45.1207H229.908C231.294 45.1207 232.436 44.6621 233.332 43.7447C234.249 42.8274 234.708 41.6434 234.708 40.1927C234.708 38.7634 234.249 37.5901 233.332 36.6727C232.436 35.7341 231.294 35.2647 229.908 35.2647H224.148V45.1207ZM259.794 52.5767C257.554 54.8167 254.813 55.9367 251.57 55.9367C248.328 55.9367 245.586 54.8167 243.346 52.5767C241.106 50.2941 239.986 47.5527 239.986 44.3527C239.986 41.1314 241.106 38.4007 243.346 36.1607C245.586 33.8994 248.328 32.7687 251.57 32.7687C254.813 32.7687 257.554 33.8994 259.794 36.1607C262.034 38.4007 263.154 41.1314 263.154 44.3527C263.154 47.5527 262.034 50.2941 259.794 52.5767ZM242.226 44.3527C242.226 46.9981 243.122 49.2274 244.914 51.0407C246.706 52.8541 248.925 53.7607 251.57 53.7607C254.216 53.7607 256.434 52.8541 258.226 51.0407C260.018 49.2274 260.914 46.9981 260.914 44.3527C260.914 41.7287 260.018 39.5101 258.226 37.6967C256.434 35.8621 254.216 34.9447 251.57 34.9447C248.925 34.9447 246.706 35.8621 244.914 37.6967C243.122 39.5101 242.226 41.7287 242.226 44.3527ZM269.865 45.3127V53.4407H280.745V55.5527H267.625V33.1527H280.585V35.2647H269.865V43.2007H279.785V45.3127H269.865ZM289.842 44.0327L300.914 55.5527H297.97L287.474 44.7047V55.5527H285.234V33.1527H287.474V43.3927L297.65 33.1527H300.594L289.842 44.0327ZM302.516 33.1527H318.516V35.2647H311.636V55.5527H309.396V35.2647H302.516V33.1527Z" fill="#F3F3F3"/>
<path d="M39.404 105.553H38.144V95.2927L31.124 105.553H30.044V92.9527H31.304V103.213L38.324 92.9527H39.404V105.553ZM47.1024 100.927C48.1464 101.323 48.6684 102.043 48.6684 103.087C48.6684 103.843 48.3744 104.479 47.7864 104.995C47.2224 105.511 46.3944 105.769 45.3024 105.769C43.4784 105.769 42.2904 105.049 41.7384 103.609L42.7464 103.015C43.1304 104.083 43.9824 104.617 45.3024 104.617C45.9864 104.617 46.5204 104.473 46.9044 104.185C47.2884 103.885 47.4804 103.495 47.4804 103.015C47.4804 102.583 47.3244 102.241 47.0124 101.989C46.7004 101.725 46.2804 101.593 45.7524 101.593H44.4384V100.441H45.3924C45.9084 100.441 46.3104 100.315 46.5984 100.063C46.8984 99.7987 47.0484 99.4387 47.0484 98.9827C47.0484 98.5507 46.8684 98.1967 46.5084 97.9207C46.1604 97.6327 45.6984 97.4887 45.1224 97.4887C44.0064 97.4887 43.2564 97.9387 42.8724 98.8387L41.8824 98.2627C42.4824 96.9787 43.5624 96.3367 45.1224 96.3367C46.0824 96.3367 46.8384 96.5887 47.3904 97.0927C47.9544 97.5847 48.2364 98.1907 48.2364 98.9107C48.2364 99.8347 47.8584 100.507 47.1024 100.927ZM54.0464 104.095L56.9624 96.5527H58.2224L54.3704 106.381C54.0104 107.293 53.5064 107.995 52.8584 108.487C52.2224 108.991 51.5144 109.213 50.7344 109.153V108.037C51.8144 108.169 52.6364 107.545 53.2004 106.165L53.4344 105.607L49.4024 96.5527H50.6624L54.0464 104.095ZM65.8502 101.035V96.5527H67.0382V105.553H65.8502V102.133C65.1542 102.493 64.2962 102.673 63.2762 102.673C62.0882 102.673 61.1882 102.403 60.5762 101.863C59.9642 101.311 59.6582 100.501 59.6582 99.4327V96.5527H60.8462V99.4327C60.8462 100.177 61.0382 100.717 61.4222 101.053C61.8182 101.389 62.4242 101.557 63.2402 101.557C64.1522 101.557 65.0222 101.383 65.8502 101.035ZM71.1111 103.483L76.4751 96.5527H77.4831V105.553H76.2951V98.6227L70.9311 105.553H69.9231V96.5527H71.1111V103.483ZM79.2754 96.5527H86.8354V97.7047H83.6494V105.553H82.4614V97.7047H79.2754V96.5527ZM92.4496 96.3367C93.7936 96.3367 94.8676 96.8107 95.6716 97.7587C96.4996 98.6947 96.9136 99.8047 96.9136 101.089C96.9136 101.149 96.9016 101.335 96.8776 101.647H88.9756C89.0956 102.547 89.4796 103.267 90.1276 103.807C90.7756 104.347 91.5856 104.617 92.5576 104.617C93.9256 104.617 94.8916 104.107 95.4556 103.087L96.4996 103.699C96.1036 104.347 95.5576 104.857 94.8616 105.229C94.1776 105.589 93.4036 105.769 92.5396 105.769C91.1236 105.769 89.9716 105.325 89.0836 104.437C88.1956 103.549 87.7516 102.421 87.7516 101.053C87.7516 99.6967 88.1896 98.5747 89.0656 97.6867C89.9416 96.7867 91.0696 96.3367 92.4496 96.3367ZM92.4496 97.4887C91.5136 97.4887 90.7276 97.7647 90.0916 98.3167C89.4676 98.8687 89.0956 99.5947 88.9756 100.495H95.6896C95.5576 99.5347 95.1916 98.7967 94.5916 98.2807C93.9676 97.7527 93.2536 97.4887 92.4496 97.4887ZM109.387 105.751V109.153H108.199V105.751C106.771 105.619 105.631 105.121 104.779 104.257C103.915 103.369 103.483 102.301 103.483 101.053C103.483 99.8047 103.915 98.7367 104.779 97.8487C105.631 96.9847 106.771 96.4867 108.199 96.3547V92.9527H109.387V96.3547C110.815 96.4867 111.955 96.9847 112.807 97.8487C113.671 98.7367 114.103 99.8047 114.103 101.053C114.103 102.301 113.671 103.369 112.807 104.257C111.955 105.121 110.815 105.619 109.387 105.751ZM108.199 104.581V97.5247C107.131 97.6327 106.273 98.0107 105.625 98.6587C104.989 99.3067 104.671 100.105 104.671 101.053C104.671 102.001 104.989 102.799 105.625 103.447C106.273 104.095 107.131 104.473 108.199 104.581ZM109.387 97.5247V104.581C110.455 104.473 111.307 104.095 111.943 103.447C112.591 102.799 112.915 102.001 112.915 101.053C112.915 100.105 112.591 99.3067 111.943 98.6587C111.307 98.0107 110.455 97.6327 109.387 97.5247ZM117.63 103.483L122.994 96.5527H124.002V105.553H122.814V98.6227L117.45 105.553H116.442V96.5527H117.63V103.483ZM133.246 100.477V96.5527H134.434V105.553H133.246V101.629H128.062V105.553H126.874V96.5527H128.062V100.477H133.246ZM145.046 98.3167V96.5527H146.234V105.553H145.046V103.789C144.218 105.109 143.006 105.769 141.41 105.769C140.126 105.769 139.028 105.313 138.116 104.401C137.216 103.489 136.766 102.373 136.766 101.053C136.766 99.7327 137.216 98.6167 138.116 97.7047C139.028 96.7927 140.126 96.3367 141.41 96.3367C143.006 96.3367 144.218 96.9967 145.046 98.3167ZM138.98 103.591C139.664 104.275 140.504 104.617 141.5 104.617C142.496 104.617 143.336 104.275 144.02 103.591C144.704 102.883 145.046 102.037 145.046 101.053C145.046 100.057 144.704 99.2167 144.02 98.5327C143.336 97.8367 142.496 97.4887 141.5 97.4887C140.504 97.4887 139.664 97.8367 138.98 98.5327C138.296 99.2167 137.954 100.057 137.954 101.053C137.954 102.037 138.296 102.883 138.98 103.591ZM155.482 100.477V96.5527H156.67V105.553H155.482V101.629H150.298V105.553H149.11V96.5527H150.298V100.477H155.482ZM163.736 105.769C162.38 105.769 161.252 105.319 160.352 104.419C159.452 103.495 159.002 102.373 159.002 101.053C159.002 99.7207 159.452 98.6047 160.352 97.7047C161.252 96.7927 162.38 96.3367 163.736 96.3367C164.624 96.3367 165.422 96.5527 166.13 96.9847C166.838 97.4047 167.354 97.9747 167.678 98.6947L166.706 99.2527C166.466 98.7127 166.076 98.2867 165.536 97.9747C165.008 97.6507 164.408 97.4887 163.736 97.4887C162.74 97.4887 161.9 97.8367 161.216 98.5327C160.532 99.2167 160.19 100.057 160.19 101.053C160.19 102.037 160.532 102.883 161.216 103.591C161.9 104.275 162.74 104.617 163.736 104.617C164.396 104.617 164.99 104.461 165.518 104.149C166.058 103.837 166.478 103.405 166.778 102.853L167.768 103.429C167.396 104.149 166.85 104.719 166.13 105.139C165.41 105.559 164.612 105.769 163.736 105.769ZM177.288 104.419C176.364 105.319 175.248 105.769 173.94 105.769C172.608 105.769 171.486 105.319 170.574 104.419C169.662 103.507 169.206 102.385 169.206 101.053C169.206 99.7207 169.662 98.6047 170.574 97.7047C171.486 96.7927 172.608 96.3367 173.94 96.3367C175.26 96.3367 176.376 96.7927 177.288 97.7047C178.212 98.6047 178.674 99.7207 178.674 101.053C178.674 102.373 178.212 103.495 177.288 104.419ZM171.42 103.591C172.104 104.275 172.944 104.617 173.94 104.617C174.936 104.617 175.776 104.275 176.46 103.591C177.144 102.883 177.486 102.037 177.486 101.053C177.486 100.057 177.144 99.2167 176.46 98.5327C175.776 97.8367 174.936 97.4887 173.94 97.4887C172.944 97.4887 172.104 97.8367 171.42 98.5327C170.736 99.2167 170.394 100.057 170.394 101.053C170.394 102.037 170.736 102.883 171.42 103.591ZM186.746 100.927C187.73 101.287 188.222 101.989 188.222 103.033C188.222 103.777 187.97 104.383 187.466 104.851C186.974 105.319 186.284 105.553 185.396 105.553H181.022V96.5527H185.036C185.9 96.5527 186.572 96.7747 187.052 97.2187C187.544 97.6627 187.79 98.2447 187.79 98.9647C187.79 99.8647 187.442 100.519 186.746 100.927ZM185.036 97.7047H182.21V100.441H185.036C186.08 100.441 186.602 99.9727 186.602 99.0367C186.602 98.6167 186.464 98.2927 186.188 98.0647C185.924 97.8247 185.54 97.7047 185.036 97.7047ZM182.21 104.401H185.396C185.924 104.401 186.326 104.275 186.602 104.023C186.89 103.771 187.034 103.417 187.034 102.961C187.034 102.529 186.89 102.193 186.602 101.953C186.326 101.713 185.924 101.593 185.396 101.593H182.21V104.401ZM193.594 104.095L196.51 96.5527H197.77L193.918 106.381C193.558 107.293 193.054 107.995 192.406 108.487C191.77 108.991 191.062 109.213 190.282 109.153V108.037C191.362 108.169 192.184 107.545 192.748 106.165L192.982 105.607L188.95 96.5527H190.21L193.594 104.095ZM207.252 96.3367C208.572 96.3367 209.688 96.7927 210.6 97.7047C211.524 98.6047 211.986 99.7207 211.986 101.053C211.986 102.373 211.524 103.495 210.6 104.419C209.676 105.319 208.56 105.769 207.252 105.769C206.052 105.769 205.008 105.379 204.12 104.599C203.244 103.795 202.746 102.805 202.626 101.629H200.754V105.553H199.566V96.5527H200.754V100.477H202.626C202.758 99.2887 203.256 98.3047 204.12 97.5247C204.996 96.7327 206.04 96.3367 207.252 96.3367ZM204.732 103.591C205.416 104.275 206.256 104.617 207.252 104.617C208.248 104.617 209.088 104.275 209.772 103.591C210.456 102.883 210.798 102.037 210.798 101.053C210.798 100.057 210.456 99.2167 209.772 98.5327C209.088 97.8367 208.248 97.4887 207.252 97.4887C206.256 97.4887 205.416 97.8367 204.732 98.5327C204.048 99.2167 203.706 100.057 203.706 101.053C203.706 102.037 204.048 102.883 204.732 103.591ZM226.635 96.5527H228.003V105.553H226.815V98.3707L223.665 103.483H223.521L220.371 98.3707V105.553H219.183V96.5527H220.551L223.593 101.485L226.635 96.5527ZM238.422 104.419C237.498 105.319 236.382 105.769 235.074 105.769C233.742 105.769 232.62 105.319 231.708 104.419C230.796 103.507 230.34 102.385 230.34 101.053C230.34 99.7207 230.796 98.6047 231.708 97.7047C232.62 96.7927 233.742 96.3367 235.074 96.3367C236.394 96.3367 237.51 96.7927 238.422 97.7047C239.346 98.6047 239.808 99.7207 239.808 101.053C239.808 102.373 239.346 103.495 238.422 104.419ZM232.554 103.591C233.238 104.275 234.078 104.617 235.074 104.617C236.07 104.617 236.91 104.275 237.594 103.591C238.278 102.883 238.62 102.037 238.62 101.053C238.62 100.057 238.278 99.2167 237.594 98.5327C236.91 97.8367 236.07 97.4887 235.074 97.4887C234.078 97.4887 233.238 97.8367 232.554 98.5327C231.87 99.2167 231.528 100.057 231.528 101.053C231.528 102.037 231.87 102.883 232.554 103.591ZM249.365 96.5527V104.401H250.625V107.965H249.437V105.553H242.093V107.965H240.905V104.401H242.003C242.615 103.585 242.921 102.451 242.921 100.999V96.5527H249.365ZM243.443 104.401H248.177V97.7047H244.109V100.999C244.109 102.391 243.887 103.525 243.443 104.401ZM256.588 96.3367C257.932 96.3367 259.006 96.8107 259.81 97.7587C260.638 98.6947 261.052 99.8047 261.052 101.089C261.052 101.149 261.04 101.335 261.016 101.647H253.114C253.234 102.547 253.618 103.267 254.266 103.807C254.914 104.347 255.724 104.617 256.696 104.617C258.064 104.617 259.03 104.107 259.594 103.087L260.638 103.699C260.242 104.347 259.696 104.857 259 105.229C258.316 105.589 257.542 105.769 256.678 105.769C255.262 105.769 254.11 105.325 253.222 104.437C252.334 103.549 251.89 102.421 251.89 101.053C251.89 99.6967 252.328 98.5747 253.204 97.6867C254.08 96.7867 255.208 96.3367 256.588 96.3367ZM256.588 97.4887C255.652 97.4887 254.866 97.7647 254.23 98.3167C253.606 98.8687 253.234 99.5947 253.114 100.495H259.828C259.696 99.5347 259.33 98.7967 258.73 98.2807C258.106 97.7527 257.392 97.4887 256.588 97.4887ZM263.887 96.5527H270.331V105.553H269.143V97.7047H265.075V101.719C265.075 103.219 264.787 104.251 264.211 104.815C263.647 105.379 262.867 105.625 261.871 105.553V104.437C262.567 104.509 263.077 104.341 263.401 103.933C263.725 103.525 263.887 102.787 263.887 101.719V96.5527ZM274.395 99.9727H276.861C277.689 99.9727 278.397 100.237 278.985 100.765C279.573 101.281 279.867 101.947 279.867 102.763C279.867 103.591 279.573 104.263 278.985 104.779C278.421 105.295 277.713 105.553 276.861 105.553H273.207V96.5527H274.395V99.9727ZM274.395 104.401H276.861C277.377 104.401 277.809 104.251 278.157 103.951C278.505 103.639 278.679 103.243 278.679 102.763C278.679 102.283 278.505 101.893 278.157 101.593C277.809 101.281 277.377 101.125 276.861 101.125H274.395V104.401ZM282.386 104.023H283.826L282.746 108.073H281.666L282.386 104.023ZM292.579 103.483L297.943 96.5527H298.951V105.553H297.763V98.6227L292.399 105.553H291.391V96.5527H292.579V103.483ZM306.017 105.769C304.661 105.769 303.533 105.319 302.633 104.419C301.733 103.495 301.283 102.373 301.283 101.053C301.283 99.7207 301.733 98.6047 302.633 97.7047C303.533 96.7927 304.661 96.3367 306.017 96.3367C306.905 96.3367 307.703 96.5527 308.411 96.9847C309.119 97.4047 309.635 97.9747 309.959 98.6947L308.987 99.2527C308.747 98.7127 308.357 98.2867 307.817 97.9747C307.289 97.6507 306.689 97.4887 306.017 97.4887C305.021 97.4887 304.181 97.8367 303.497 98.5327C302.813 99.2167 302.471 100.057 302.471 101.053C302.471 102.037 302.813 102.883 303.497 103.591C304.181 104.275 305.021 104.617 306.017 104.617C306.677 104.617 307.271 104.461 307.799 104.149C308.339 103.837 308.759 103.405 309.059 102.853L310.049 103.429C309.677 104.149 309.131 104.719 308.411 105.139C307.691 105.559 306.893 105.769 306.017 105.769ZM310.859 96.5527H318.419V97.7047H315.233V105.553H314.045V97.7047H310.859V96.5527ZM327.417 104.419C326.493 105.319 325.377 105.769 324.069 105.769C322.737 105.769 321.615 105.319 320.703 104.419C319.791 103.507 319.335 102.385 319.335 101.053C319.335 99.7207 319.791 98.6047 320.703 97.7047C321.615 96.7927 322.737 96.3367 324.069 96.3367C325.389 96.3367 326.505 96.7927 327.417 97.7047C328.341 98.6047 328.803 99.7207 328.803 101.053C328.803 102.373 328.341 103.495 327.417 104.419ZM321.549 103.591C322.233 104.275 323.073 104.617 324.069 104.617C325.065 104.617 325.905 104.275 326.589 103.591C327.273 102.883 327.615 102.037 327.615 101.053C327.615 100.057 327.273 99.2167 326.589 98.5327C325.905 97.8367 325.065 97.4887 324.069 97.4887C323.073 97.4887 322.233 97.8367 321.549 98.5327C320.865 99.2167 320.523 100.057 320.523 101.053C320.523 102.037 320.865 102.883 321.549 103.591ZM335.975 96.3367C337.259 96.3367 338.351 96.7927 339.251 97.7047C340.163 98.6167 340.619 99.7327 340.619 101.053C340.619 102.373 340.163 103.489 339.251 104.401C338.351 105.313 337.259 105.769 335.975 105.769C334.379 105.769 333.167 105.109 332.339 103.789V109.153H331.151V96.5527H332.339V98.3167C333.167 96.9967 334.379 96.3367 335.975 96.3367ZM333.365 103.591C334.049 104.275 334.889 104.617 335.885 104.617C336.881 104.617 337.721 104.275 338.405 103.591C339.089 102.883 339.431 102.037 339.431 101.053C339.431 100.057 339.089 99.2167 338.405 98.5327C337.721 97.8367 336.881 97.4887 335.885 97.4887C334.889 97.4887 334.049 97.8367 333.365 98.5327C332.681 99.2167 332.339 100.057 332.339 101.053C332.339 102.037 332.681 102.883 333.365 103.591ZM344.142 103.483L349.506 96.5527H350.514V105.553H349.326V98.6227L343.962 105.553H342.954V96.5527H344.142V103.483ZM359.219 101.035V96.5527H360.407V105.553H359.219V102.133C358.523 102.493 357.665 102.673 356.645 102.673C355.457 102.673 354.557 102.403 353.945 101.863C353.333 101.311 353.027 100.501 353.027 99.4327V96.5527H354.215V99.4327C354.215 100.177 354.407 100.717 354.791 101.053C355.187 101.389 355.793 101.557 356.609 101.557C357.521 101.557 358.391 101.383 359.219 101.035ZM367.449 96.3367C368.793 96.3367 369.867 96.8107 370.671 97.7587C371.499 98.6947 371.913 99.8047 371.913 101.089C371.913 101.149 371.901 101.335 371.877 101.647H363.975C364.095 102.547 364.479 103.267 365.127 103.807C365.775 104.347 366.585 104.617 367.557 104.617C368.925 104.617 369.891 104.107 370.455 103.087L371.499 103.699C371.103 104.347 370.557 104.857 369.861 105.229C369.177 105.589 368.403 105.769 367.539 105.769C366.123 105.769 364.971 105.325 364.083 104.437C363.195 103.549 362.751 102.421 362.751 101.053C362.751 99.6967 363.189 98.5747 364.065 97.6867C364.941 96.7867 366.069 96.3367 367.449 96.3367ZM367.449 97.4887C366.513 97.4887 365.727 97.7647 365.091 98.3167C364.467 98.8687 364.095 99.5947 363.975 100.495H370.689C370.557 99.5347 370.191 98.7967 369.591 98.2807C368.967 97.7527 368.253 97.4887 367.449 97.4887ZM378.357 105.769C377.001 105.769 375.873 105.319 374.973 104.419C374.073 103.495 373.623 102.373 373.623 101.053C373.623 99.7207 374.073 98.6047 374.973 97.7047C375.873 96.7927 377.001 96.3367 378.357 96.3367C379.245 96.3367 380.043 96.5527 380.751 96.9847C381.459 97.4047 381.975 97.9747 382.299 98.6947L381.327 99.2527C381.087 98.7127 380.697 98.2867 380.157 97.9747C379.629 97.6507 379.029 97.4887 378.357 97.4887C377.361 97.4887 376.521 97.8367 375.837 98.5327C375.153 99.2167 374.811 100.057 374.811 101.053C374.811 102.037 375.153 102.883 375.837 103.591C376.521 104.275 377.361 104.617 378.357 104.617C379.017 104.617 379.611 104.461 380.139 104.149C380.679 103.837 381.099 103.405 381.399 102.853L382.389 103.429C382.017 104.149 381.471 104.719 380.751 105.139C380.031 105.559 379.233 105.769 378.357 105.769ZM386.903 100.873L391.727 105.553H390.143L385.643 101.215V105.553H384.455V96.5527H385.643V100.531L389.927 96.5527H391.547L386.903 100.873ZM396.922 104.095L399.838 96.5527H401.098L397.246 106.381C396.886 107.293 396.382 107.995 395.734 108.487C395.098 108.991 394.39 109.213 393.61 109.153V108.037C394.69 108.169 395.512 107.545 396.076 106.165L396.31 105.607L392.278 96.5527H393.538L396.922 104.095ZM410.58 96.3367C411.9 96.3367 413.016 96.7927 413.928 97.7047C414.852 98.6047 415.314 99.7207 415.314 101.053C415.314 102.373 414.852 103.495 413.928 104.419C413.004 105.319 411.888 105.769 410.58 105.769C409.38 105.769 408.336 105.379 407.448 104.599C406.572 103.795 406.074 102.805 405.954 101.629H404.082V105.553H402.894V96.5527H404.082V100.477H405.954C406.086 99.2887 406.584 98.3047 407.448 97.5247C408.324 96.7327 409.368 96.3367 410.58 96.3367ZM408.06 103.591C408.744 104.275 409.584 104.617 410.58 104.617C411.576 104.617 412.416 104.275 413.1 103.591C413.784 102.883 414.126 102.037 414.126 101.053C414.126 100.057 413.784 99.2167 413.1 98.5327C412.416 97.8367 411.576 97.4887 410.58 97.4887C409.584 97.4887 408.744 97.8367 408.06 98.5327C407.376 99.2167 407.034 100.057 407.034 101.053C407.034 102.037 407.376 102.883 408.06 103.591ZM425.21 91.1527L418.01 107.353H417.11L424.31 91.1527H425.21ZM29.864 120.553H37.424V129.553H36.236V121.705H31.052V129.553H29.864V120.553ZM45.1203 120.337C46.4043 120.337 47.4963 120.793 48.3963 121.705C49.3083 122.617 49.7643 123.733 49.7643 125.053C49.7643 126.373 49.3083 127.489 48.3963 128.401C47.4963 129.313 46.4043 129.769 45.1203 129.769C43.5243 129.769 42.3123 129.109 41.4843 127.789V133.153H40.2963V120.553H41.4843V122.317C42.3123 120.997 43.5243 120.337 45.1203 120.337ZM42.5103 127.591C43.1943 128.275 44.0343 128.617 45.0303 128.617C46.0263 128.617 46.8663 128.275 47.5503 127.591C48.2343 126.883 48.5763 126.037 48.5763 125.053C48.5763 124.057 48.2343 123.217 47.5503 122.533C46.8663 121.837 46.0263 121.489 45.0303 121.489C44.0343 121.489 43.1943 121.837 42.5103 122.533C41.8263 123.217 41.4843 124.057 41.4843 125.053C41.4843 126.037 41.8263 126.883 42.5103 127.591ZM59.6416 128.419C58.7176 129.319 57.6016 129.769 56.2936 129.769C54.9616 129.769 53.8396 129.319 52.9276 128.419C52.0156 127.507 51.5596 126.385 51.5596 125.053C51.5596 123.721 52.0156 122.605 52.9276 121.705C53.8396 120.793 54.9616 120.337 56.2936 120.337C57.6136 120.337 58.7296 120.793 59.6416 121.705C60.5656 122.605 61.0276 123.721 61.0276 125.053C61.0276 126.373 60.5656 127.495 59.6416 128.419ZM53.7736 127.591C54.4576 128.275 55.2976 128.617 56.2936 128.617C57.2896 128.617 58.1296 128.275 58.8136 127.591C59.4976 126.883 59.8396 126.037 59.8396 125.053C59.8396 124.057 59.4976 123.217 58.8136 122.533C58.1296 121.837 57.2896 121.489 56.2936 121.489C55.2976 121.489 54.4576 121.837 53.7736 122.533C53.0896 123.217 52.7476 124.057 52.7476 125.053C52.7476 126.037 53.0896 126.883 53.7736 127.591ZM63.3756 120.553H69.1356V121.705H64.5636V129.553H63.3756V120.553ZM77.3147 124.477V120.553H78.5027V129.553H77.3147V125.629H72.1307V129.553H70.9427V120.553H72.1307V124.477H77.3147ZM88.9169 128.419C87.9929 129.319 86.8769 129.769 85.5689 129.769C84.2369 129.769 83.1149 129.319 82.2029 128.419C81.2909 127.507 80.8349 126.385 80.8349 125.053C80.8349 123.721 81.2909 122.605 82.2029 121.705C83.1149 120.793 84.2369 120.337 85.5689 120.337C86.8889 120.337 88.0049 120.793 88.9169 121.705C89.8409 122.605 90.3029 123.721 90.3029 125.053C90.3029 126.373 89.8409 127.495 88.9169 128.419ZM83.0489 127.591C83.7329 128.275 84.5729 128.617 85.5689 128.617C86.5649 128.617 87.4049 128.275 88.0889 127.591C88.7729 126.883 89.1149 126.037 89.1149 125.053C89.1149 124.057 88.7729 123.217 88.0889 122.533C87.4049 121.837 86.5649 121.489 85.5689 121.489C84.5729 121.489 83.7329 121.837 83.0489 122.533C82.3649 123.217 82.0229 124.057 82.0229 125.053C82.0229 126.037 82.3649 126.883 83.0489 127.591ZM96.9434 124.927C97.9874 125.323 98.5094 126.043 98.5094 127.087C98.5094 127.843 98.2154 128.479 97.6274 128.995C97.0634 129.511 96.2354 129.769 95.1434 129.769C93.3194 129.769 92.1314 129.049 91.5794 127.609L92.5874 127.015C92.9714 128.083 93.8234 128.617 95.1434 128.617C95.8274 128.617 96.3614 128.473 96.7454 128.185C97.1294 127.885 97.3214 127.495 97.3214 127.015C97.3214 126.583 97.1654 126.241 96.8534 125.989C96.5414 125.725 96.1214 125.593 95.5934 125.593H94.2794V124.441H95.2334C95.7494 124.441 96.1514 124.315 96.4394 124.063C96.7394 123.799 96.8894 123.439 96.8894 122.983C96.8894 122.551 96.7094 122.197 96.3494 121.921C96.0014 121.633 95.5394 121.489 94.9634 121.489C93.8474 121.489 93.0974 121.939 92.7134 122.839L91.7234 122.263C92.3234 120.979 93.4034 120.337 94.9634 120.337C95.9234 120.337 96.6794 120.589 97.2314 121.093C97.7954 121.585 98.0774 122.191 98.0774 122.911C98.0774 123.835 97.6994 124.507 96.9434 124.927ZM101.863 127.483L107.227 120.553H108.235V129.553H107.047V122.623L101.683 129.553H100.675V120.553H101.863V127.483ZM115.931 120.337C117.215 120.337 118.307 120.793 119.207 121.705C120.119 122.617 120.575 123.733 120.575 125.053C120.575 126.373 120.119 127.489 119.207 128.401C118.307 129.313 117.215 129.769 115.931 129.769C114.335 129.769 113.123 129.109 112.295 127.789V133.153H111.107V120.553H112.295V122.317C113.123 120.997 114.335 120.337 115.931 120.337ZM113.321 127.591C114.005 128.275 114.845 128.617 115.841 128.617C116.837 128.617 117.677 128.275 118.361 127.591C119.045 126.883 119.387 126.037 119.387 125.053C119.387 124.057 119.045 123.217 118.361 122.533C117.677 121.837 116.837 121.489 115.841 121.489C114.845 121.489 114.005 121.837 113.321 122.533C112.637 123.217 112.295 124.057 112.295 125.053C112.295 126.037 112.637 126.883 113.321 127.591ZM126.123 128.095L129.039 120.553H130.299L126.447 130.381C126.087 131.293 125.583 131.995 124.935 132.487C124.299 132.991 123.591 133.213 122.811 133.153V132.037C123.891 132.169 124.713 131.545 125.277 130.165L125.511 129.607L121.479 120.553H122.739L126.123 128.095ZM135.901 120.337C137.245 120.337 138.319 120.811 139.123 121.759C139.951 122.695 140.365 123.805 140.365 125.089C140.365 125.149 140.353 125.335 140.329 125.647H132.427C132.547 126.547 132.931 127.267 133.579 127.807C134.227 128.347 135.037 128.617 136.009 128.617C137.377 128.617 138.343 128.107 138.907 127.087L139.951 127.699C139.555 128.347 139.009 128.857 138.313 129.229C137.629 129.589 136.855 129.769 135.991 129.769C134.575 129.769 133.423 129.325 132.535 128.437C131.647 127.549 131.203 126.421 131.203 125.053C131.203 123.697 131.641 122.575 132.517 121.687C133.393 120.787 134.521 120.337 135.901 120.337ZM135.901 121.489C134.965 121.489 134.179 121.765 133.543 122.317C132.919 122.869 132.547 123.595 132.427 124.495H139.141C139.009 123.535 138.643 122.797 138.043 122.281C137.419 121.753 136.705 121.489 135.901 121.489ZM150.067 120.553H151.435V129.553H150.247V122.371L147.097 127.483H146.953L143.803 122.371V129.553H142.615V120.553H143.983L147.025 125.485L150.067 120.553ZM157.877 128.095L160.793 120.553H162.053L158.201 130.381C157.841 131.293 157.337 131.995 156.689 132.487C156.053 132.991 155.345 133.213 154.565 133.153V132.037C155.645 132.169 156.467 131.545 157.031 130.165L157.265 129.607L153.233 120.553H154.493L157.877 128.095ZM171.535 120.337C172.855 120.337 173.971 120.793 174.883 121.705C175.807 122.605 176.269 123.721 176.269 125.053C176.269 126.373 175.807 127.495 174.883 128.419C173.959 129.319 172.843 129.769 171.535 129.769C170.335 129.769 169.291 129.379 168.403 128.599C167.527 127.795 167.029 126.805 166.909 125.629H165.037V129.553H163.849V120.553H165.037V124.477H166.909C167.041 123.289 167.539 122.305 168.403 121.525C169.279 120.733 170.323 120.337 171.535 120.337ZM169.015 127.591C169.699 128.275 170.539 128.617 171.535 128.617C172.531 128.617 173.371 128.275 174.055 127.591C174.739 126.883 175.081 126.037 175.081 125.053C175.081 124.057 174.739 123.217 174.055 122.533C173.371 121.837 172.531 121.489 171.535 121.489C170.539 121.489 169.699 121.837 169.015 122.533C168.331 123.217 167.989 124.057 167.989 125.053C167.989 126.037 168.331 126.883 169.015 127.591ZM191.025 120.553V128.401H192.285V131.965H191.097V129.553H183.753V131.965H182.565V128.401H183.663C184.275 127.585 184.581 126.451 184.581 124.999V120.553H191.025ZM185.103 128.401H189.837V121.705H185.769V124.999C185.769 126.391 185.547 127.525 185.103 128.401ZM201.633 128.419C200.709 129.319 199.593 129.769 198.285 129.769C196.953 129.769 195.831 129.319 194.919 128.419C194.007 127.507 193.551 126.385 193.551 125.053C193.551 123.721 194.007 122.605 194.919 121.705C195.831 120.793 196.953 120.337 198.285 120.337C199.605 120.337 200.721 120.793 201.633 121.705C202.557 122.605 203.019 123.721 203.019 125.053C203.019 126.373 202.557 127.495 201.633 128.419ZM195.765 127.591C196.449 128.275 197.289 128.617 198.285 128.617C199.281 128.617 200.121 128.275 200.805 127.591C201.489 126.883 201.831 126.037 201.831 125.053C201.831 124.057 201.489 123.217 200.805 122.533C200.121 121.837 199.281 121.489 198.285 121.489C197.289 121.489 196.449 121.837 195.765 122.533C195.081 123.217 194.739 124.057 194.739 125.053C194.739 126.037 195.081 126.883 195.765 127.591ZM208.784 124.891L212.294 129.553H210.872L208.064 125.845L205.256 129.553H203.834L207.362 124.891L204.068 120.553H205.49L208.064 123.955L210.638 120.553H212.06L208.784 124.891ZM221.179 128.419C220.255 129.319 219.139 129.769 217.831 129.769C216.499 129.769 215.377 129.319 214.465 128.419C213.553 127.507 213.097 126.385 213.097 125.053C213.097 123.721 213.553 122.605 214.465 121.705C215.377 120.793 216.499 120.337 217.831 120.337C219.151 120.337 220.267 120.793 221.179 121.705C222.103 122.605 222.565 123.721 222.565 125.053C222.565 126.373 222.103 127.495 221.179 128.419ZM215.311 127.591C215.995 128.275 216.835 128.617 217.831 128.617C218.827 128.617 219.667 128.275 220.351 127.591C221.035 126.883 221.377 126.037 221.377 125.053C221.377 124.057 221.035 123.217 220.351 122.533C219.667 121.837 218.827 121.489 217.831 121.489C216.835 121.489 215.995 121.837 215.311 122.533C214.627 123.217 214.285 124.057 214.285 125.053C214.285 126.037 214.627 126.883 215.311 127.591ZM232.121 120.553V128.401H233.381V131.965H232.193V129.553H224.849V131.965H223.661V128.401H224.759C225.371 127.585 225.677 126.451 225.677 124.999V120.553H232.121ZM226.199 128.401H230.933V121.705H226.865V124.999C226.865 126.391 226.643 127.525 226.199 128.401ZM241.911 124.477V120.553H243.099V129.553H241.911V125.629H236.727V129.553H235.539V120.553H236.727V124.477H241.911ZM253.513 128.419C252.589 129.319 251.473 129.769 250.165 129.769C248.833 129.769 247.711 129.319 246.799 128.419C245.887 127.507 245.431 126.385 245.431 125.053C245.431 123.721 245.887 122.605 246.799 121.705C247.711 120.793 248.833 120.337 250.165 120.337C251.485 120.337 252.601 120.793 253.513 121.705C254.437 122.605 254.899 123.721 254.899 125.053C254.899 126.373 254.437 127.495 253.513 128.419ZM247.645 127.591C248.329 128.275 249.169 128.617 250.165 128.617C251.161 128.617 252.001 128.275 252.685 127.591C253.369 126.883 253.711 126.037 253.711 125.053C253.711 124.057 253.369 123.217 252.685 122.533C252.001 121.837 251.161 121.489 250.165 121.489C249.169 121.489 248.329 121.837 247.645 122.533C246.961 123.217 246.619 124.057 246.619 125.053C246.619 126.037 246.961 126.883 247.645 127.591ZM261.441 129.769C260.085 129.769 258.957 129.319 258.057 128.419C257.157 127.495 256.707 126.373 256.707 125.053C256.707 123.721 257.157 122.605 258.057 121.705C258.957 120.793 260.085 120.337 261.441 120.337C262.329 120.337 263.127 120.553 263.835 120.985C264.543 121.405 265.059 121.975 265.383 122.695L264.411 123.253C264.171 122.713 263.781 122.287 263.241 121.975C262.713 121.651 262.113 121.489 261.441 121.489C260.445 121.489 259.605 121.837 258.921 122.533C258.237 123.217 257.895 124.057 257.895 125.053C257.895 126.037 258.237 126.883 258.921 127.591C259.605 128.275 260.445 128.617 261.441 128.617C262.101 128.617 262.695 128.461 263.223 128.149C263.763 127.837 264.183 127.405 264.483 126.853L265.473 127.429C265.101 128.149 264.555 128.719 263.835 129.139C263.115 129.559 262.317 129.769 261.441 129.769ZM266.283 120.553H273.843V121.705H270.657V129.553H269.469V121.705H266.283V120.553ZM276.838 123.973H279.304C280.132 123.973 280.84 124.237 281.428 124.765C282.016 125.281 282.31 125.947 282.31 126.763C282.31 127.591 282.016 128.263 281.428 128.779C280.864 129.295 280.156 129.553 279.304 129.553H275.65V120.553H276.838V123.973ZM276.838 128.401H279.304C279.82 128.401 280.252 128.251 280.6 127.951C280.948 127.639 281.122 127.243 281.122 126.763C281.122 126.283 280.948 125.893 280.6 125.593C280.252 125.281 279.82 125.125 279.304 125.125H276.838V128.401Z" fill="#F3F3F3"/>
<path d="M415.6 308.64C403.64 325.627 386.74 334.12 364.9 334.12C343.233 334.12 326.247 325.627 313.94 308.64C301.98 291.48 296 268.6 296 240C296 211.227 301.98 188.433 313.94 171.62C326.247 154.46 343.233 145.88 364.9 145.88C386.74 145.88 403.64 154.46 415.6 171.62C427.733 188.433 433.8 211.227 433.8 240C433.8 268.773 427.733 291.653 415.6 308.64ZM327.46 296.42C336.647 309.767 349.127 316.44 364.9 316.44C380.847 316.44 393.24 309.767 402.08 296.42C411.093 283.247 415.6 264.44 415.6 240C415.6 215.56 411.093 196.753 402.08 183.58C393.24 170.233 380.847 163.56 364.9 163.56C349.127 163.56 336.647 170.233 327.46 183.58C318.62 196.927 314.2 215.733 314.2 240C314.2 264.267 318.62 283.073 327.46 296.42ZM450.791 165.64L498.891 149H514.491V331H496.291V169.02L455.471 181.24L450.791 165.64Z" fill="white"/>
</g>
<defs>
<clipPath id="clip0_3192_1204">
<rect width="513" height="326" rx="40" fill="white"/>
</clipPath>
</defs>
</svg>
