<svg width="513" height="313" viewBox="0 0 513 313" fill="none" xmlns="http://www.w3.org/2000/svg">
<g clip-path="url(#clip0_1877_5371)">
<rect x="0.5" y="0.5" width="512" height="312" rx="39.5" fill="#0048B4" stroke="#0048B4"/>
<path d="M57.784 62.206C59.1013 62.7633 60.14 63.612 60.9 64.752C61.66 65.892 62.04 67.1713 62.04 68.59C62.04 70.642 61.318 72.39 59.874 73.834C58.43 75.278 56.682 76 54.63 76H43.04V49.4H53.756C55.7067 49.4 57.3913 50.1093 58.81 51.528C60.2033 52.9213 60.9 54.5933 60.9 56.544C60.9 59.0267 59.8613 60.914 57.784 62.206ZM53.756 51.908H45.7V61.18H53.756C54.972 61.18 56.0233 60.7367 56.91 59.85C57.7967 58.9127 58.24 57.8107 58.24 56.544C58.24 55.3027 57.7967 54.2133 56.91 53.276C56.0233 52.364 54.972 51.908 53.756 51.908ZM45.7 73.492H54.63C55.9473 73.492 57.062 73.0233 57.974 72.086C58.9113 71.1487 59.38 69.9833 59.38 68.59C59.38 67.222 58.9113 66.0693 57.974 65.132C57.062 64.1693 55.9473 63.688 54.63 63.688H45.7V73.492ZM76.8645 76H67.3645V49.4H70.0245V59.28H76.8645C79.2458 59.28 81.2345 60.078 82.8305 61.674C84.4265 63.27 85.2245 65.2587 85.2245 67.64C85.2245 70.0213 84.4265 72.01 82.8305 73.606C81.2345 75.202 79.2458 76 76.8645 76ZM90.7345 76H88.0745V49.4H90.7345V76ZM70.0245 61.788V73.492H76.8645C78.5111 73.492 79.8665 72.9473 80.9305 71.858C82.0198 70.7687 82.5645 69.3627 82.5645 67.64C82.5645 65.9427 82.0198 64.5493 80.9305 63.46C79.8665 62.3453 78.5111 61.788 76.8645 61.788H70.0245ZM100.249 60.04H107.469C109.648 60.04 111.523 60.8253 113.093 62.396C114.664 63.9667 115.449 65.8413 115.449 68.02C115.449 70.224 114.664 72.1113 113.093 73.682C111.548 75.2273 109.673 76 107.469 76H97.5893V49.4H113.169V51.908H100.249V60.04ZM100.249 73.492H107.469C108.939 73.492 110.193 72.96 111.231 71.896C112.27 70.8067 112.789 69.5147 112.789 68.02C112.789 66.5507 112.27 65.2713 111.231 64.182C110.218 63.0927 108.964 62.548 107.469 62.548H100.249V73.492ZM123.238 63.84V73.492H136.158V76H120.578V49.4H135.968V51.908H123.238V61.332H135.018V63.84H123.238ZM141.488 49.4H150.988C153.37 49.4 155.358 50.198 156.954 51.794C158.55 53.39 159.348 55.3787 159.348 57.76C159.348 60.1413 158.55 62.13 156.954 63.726C155.358 65.322 153.37 66.12 150.988 66.12H144.148V76H141.488V49.4ZM144.148 63.612H150.988C152.635 63.612 153.99 63.0673 155.054 61.978C156.144 60.8887 156.688 59.4827 156.688 57.76C156.688 56.0627 156.144 54.6693 155.054 53.58C153.99 52.4653 152.635 51.908 150.988 51.908H144.148V63.612ZM184.422 76H181.762V54.34L166.942 76H164.662V49.4H167.322V71.06L182.142 49.4H184.422V76ZM188.97 49.4H207.97V51.908H199.8V76H197.14V51.908H188.97V49.4ZM215.192 63.84V73.492H228.112V76H212.532V49.4H227.922V51.908H215.192V61.332H226.972V63.84H215.192ZM243.702 49.4H262.702V76H260.042V51.908H246.362V76H243.702V49.4ZM269.548 49.4H279.048C281.43 49.4 283.418 50.198 285.014 51.794C286.61 53.39 287.408 55.3787 287.408 57.76C287.408 60.1413 286.61 62.13 285.014 63.726C283.418 65.322 281.43 66.12 279.048 66.12H272.208V76H269.548V49.4ZM272.208 63.612H279.048C280.695 63.612 282.05 63.0673 283.114 61.978C284.204 60.8887 284.748 59.4827 284.748 57.76C284.748 56.0627 284.204 54.6693 283.114 53.58C282.05 52.4653 280.695 51.908 279.048 51.908H272.208V63.612ZM314.539 72.466C311.879 75.126 308.623 76.456 304.773 76.456C300.922 76.456 297.667 75.126 295.007 72.466C292.347 69.7553 291.017 66.5 291.017 62.7C291.017 58.8747 292.347 55.632 295.007 52.972C297.667 50.2867 300.922 48.944 304.773 48.944C308.623 48.944 311.879 50.2867 314.539 52.972C317.199 55.632 318.529 58.8747 318.529 62.7C318.529 66.5 317.199 69.7553 314.539 72.466ZM293.677 62.7C293.677 65.8413 294.741 68.4887 296.869 70.642C298.997 72.7953 301.631 73.872 304.773 73.872C307.914 73.872 310.549 72.7953 312.677 70.642C314.805 68.4887 315.869 65.8413 315.869 62.7C315.869 59.584 314.805 56.9493 312.677 54.796C310.549 52.6173 307.914 51.528 304.773 51.528C301.631 51.528 298.997 52.6173 296.869 54.796C294.741 56.9493 293.677 59.584 293.677 62.7ZM326.498 63.84V73.492H339.418V76H323.838V49.4H339.228V51.908H326.498V61.332H338.278V63.84H326.498ZM350.22 62.32L363.368 76H359.872L347.408 63.118V76H344.748V49.4H347.408V61.56L359.492 49.4H362.988L350.22 62.32ZM365.271 49.4H384.271V51.908H376.101V76H373.441V51.908H365.271V49.4Z" fill="#F3F3F3"/>
<path d="M53.2 132H51.66V119.46L43.08 132H41.76V116.6H43.3V129.14L51.88 116.6H53.2V132ZM62.6091 126.346C63.8851 126.83 64.5231 127.71 64.5231 128.986C64.5231 129.91 64.1638 130.687 63.4451 131.318C62.7558 131.949 61.7438 132.264 60.4091 132.264C58.1798 132.264 56.7278 131.384 56.0531 129.624L57.2851 128.898C57.7545 130.203 58.7958 130.856 60.4091 130.856C61.2451 130.856 61.8978 130.68 62.3671 130.328C62.8365 129.961 63.0711 129.485 63.0711 128.898C63.0711 128.37 62.8805 127.952 62.4991 127.644C62.1178 127.321 61.6045 127.16 60.9591 127.16H59.3531V125.752H60.5191C61.1498 125.752 61.6411 125.598 61.9931 125.29C62.3598 124.967 62.5431 124.527 62.5431 123.97C62.5431 123.442 62.3231 123.009 61.8831 122.672C61.4578 122.32 60.8931 122.144 60.1891 122.144C58.8251 122.144 57.9085 122.694 57.4391 123.794L56.2291 123.09C56.9625 121.521 58.2825 120.736 60.1891 120.736C61.3625 120.736 62.2865 121.044 62.9611 121.66C63.6505 122.261 63.9951 123.002 63.9951 123.882C63.9951 125.011 63.5331 125.833 62.6091 126.346ZM71.0963 130.218L74.6603 121H76.2003L71.4923 133.012C71.0523 134.127 70.4363 134.985 69.6443 135.586C68.867 136.202 68.0016 136.473 67.0483 136.4V135.036C68.3683 135.197 69.373 134.435 70.0623 132.748L70.3483 132.066L65.4203 121H66.9603L71.0963 130.218ZM85.5232 126.478V121H86.9752V132H85.5232V127.82C84.6725 128.26 83.6238 128.48 82.3772 128.48C80.9252 128.48 79.8252 128.15 79.0772 127.49C78.3292 126.815 77.9552 125.825 77.9552 124.52V121H79.4072V124.52C79.4072 125.429 79.6418 126.089 80.1112 126.5C80.5952 126.911 81.3358 127.116 82.3332 127.116C83.4478 127.116 84.5112 126.903 85.5232 126.478ZM91.9532 129.47L98.5092 121H99.7412V132H98.2892V123.53L91.7332 132H90.5012V121H91.9532V129.47ZM101.932 121H111.172V122.408H107.278V132H105.826V122.408H101.932V121ZM118.033 120.736C119.676 120.736 120.989 121.315 121.971 122.474C122.983 123.618 123.489 124.975 123.489 126.544C123.489 126.617 123.475 126.845 123.445 127.226H113.787C113.934 128.326 114.403 129.206 115.195 129.866C115.987 130.526 116.977 130.856 118.165 130.856C119.837 130.856 121.018 130.233 121.707 128.986L122.983 129.734C122.499 130.526 121.832 131.149 120.981 131.604C120.145 132.044 119.199 132.264 118.143 132.264C116.413 132.264 115.005 131.721 113.919 130.636C112.834 129.551 112.291 128.172 112.291 126.5C112.291 124.843 112.827 123.471 113.897 122.386C114.968 121.286 116.347 120.736 118.033 120.736ZM118.033 122.144C116.889 122.144 115.929 122.481 115.151 123.156C114.389 123.831 113.934 124.718 113.787 125.818H121.993C121.832 124.645 121.385 123.743 120.651 123.112C119.889 122.467 119.016 122.144 118.033 122.144ZM138.735 132.242V136.4H137.283V132.242C135.538 132.081 134.144 131.472 133.103 130.416C132.047 129.331 131.519 128.025 131.519 126.5C131.519 124.975 132.047 123.669 133.103 122.584C134.144 121.528 135.538 120.919 137.283 120.758V116.6H138.735V120.758C140.48 120.919 141.874 121.528 142.915 122.584C143.971 123.669 144.499 124.975 144.499 126.5C144.499 128.025 143.971 129.331 142.915 130.416C141.874 131.472 140.48 132.081 138.735 132.242ZM137.283 130.812V122.188C135.978 122.32 134.929 122.782 134.137 123.574C133.36 124.366 132.971 125.341 132.971 126.5C132.971 127.659 133.36 128.634 134.137 129.426C134.929 130.218 135.978 130.68 137.283 130.812ZM138.735 122.188V130.812C140.04 130.68 141.082 130.218 141.859 129.426C142.651 128.634 143.047 127.659 143.047 126.5C143.047 125.341 142.651 124.366 141.859 123.574C141.082 122.782 140.04 122.32 138.735 122.188ZM148.809 129.47L155.365 121H156.597V132H155.145V123.53L148.589 132H147.357V121H148.809V129.47ZM167.896 125.796V121H169.348V132H167.896V127.204H161.56V132H160.108V121H161.56V125.796H167.896ZM182.319 123.156V121H183.771V132H182.319V129.844C181.307 131.457 179.825 132.264 177.875 132.264C176.305 132.264 174.963 131.707 173.849 130.592C172.749 129.477 172.199 128.113 172.199 126.5C172.199 124.887 172.749 123.523 173.849 122.408C174.963 121.293 176.305 120.736 177.875 120.736C179.825 120.736 181.307 121.543 182.319 123.156ZM174.905 129.602C175.741 130.438 176.767 130.856 177.985 130.856C179.202 130.856 180.229 130.438 181.065 129.602C181.901 128.737 182.319 127.703 182.319 126.5C182.319 125.283 181.901 124.256 181.065 123.42C180.229 122.569 179.202 122.144 177.985 122.144C176.767 122.144 175.741 122.569 174.905 123.42C174.069 124.256 173.651 125.283 173.651 126.5C173.651 127.703 174.069 128.737 174.905 129.602ZM195.073 125.796V121H196.525V132H195.073V127.204H188.737V132H187.285V121H188.737V125.796H195.073ZM205.161 132.264C203.504 132.264 202.125 131.714 201.025 130.614C199.925 129.485 199.375 128.113 199.375 126.5C199.375 124.872 199.925 123.508 201.025 122.408C202.125 121.293 203.504 120.736 205.161 120.736C206.247 120.736 207.222 121 208.087 121.528C208.953 122.041 209.583 122.738 209.979 123.618L208.791 124.3C208.498 123.64 208.021 123.119 207.361 122.738C206.716 122.342 205.983 122.144 205.161 122.144C203.944 122.144 202.917 122.569 202.081 123.42C201.245 124.256 200.827 125.283 200.827 126.5C200.827 127.703 201.245 128.737 202.081 129.602C202.917 130.438 203.944 130.856 205.161 130.856C205.968 130.856 206.694 130.665 207.339 130.284C207.999 129.903 208.513 129.375 208.879 128.7L210.089 129.404C209.635 130.284 208.967 130.981 208.087 131.494C207.207 132.007 206.232 132.264 205.161 132.264ZM221.725 130.614C220.595 131.714 219.231 132.264 217.633 132.264C216.005 132.264 214.633 131.714 213.519 130.614C212.404 129.499 211.847 128.128 211.847 126.5C211.847 124.872 212.404 123.508 213.519 122.408C214.633 121.293 216.005 120.736 217.633 120.736C219.246 120.736 220.61 121.293 221.725 122.408C222.854 123.508 223.419 124.872 223.419 126.5C223.419 128.113 222.854 129.485 221.725 130.614ZM214.553 129.602C215.389 130.438 216.415 130.856 217.633 130.856C218.85 130.856 219.877 130.438 220.713 129.602C221.549 128.737 221.967 127.703 221.967 126.5C221.967 125.283 221.549 124.256 220.713 123.42C219.877 122.569 218.85 122.144 217.633 122.144C216.415 122.144 215.389 122.569 214.553 123.42C213.717 124.256 213.299 125.283 213.299 126.5C213.299 127.703 213.717 128.737 214.553 129.602ZM233.284 126.346C234.487 126.786 235.088 127.644 235.088 128.92C235.088 129.829 234.78 130.57 234.164 131.142C233.563 131.714 232.72 132 231.634 132H226.288V121H231.194C232.25 121 233.072 121.271 233.658 121.814C234.26 122.357 234.56 123.068 234.56 123.948C234.56 125.048 234.135 125.847 233.284 126.346ZM231.194 122.408H227.74V125.752H231.194C232.47 125.752 233.108 125.18 233.108 124.036C233.108 123.523 232.94 123.127 232.602 122.848C232.28 122.555 231.81 122.408 231.194 122.408ZM227.74 130.592H231.634C232.28 130.592 232.771 130.438 233.108 130.13C233.46 129.822 233.636 129.389 233.636 128.832C233.636 128.304 233.46 127.893 233.108 127.6C232.771 127.307 232.28 127.16 231.634 127.16H227.74V130.592ZM241.655 130.218L245.219 121H246.759L242.051 133.012C241.611 134.127 240.995 134.985 240.203 135.586C239.425 136.202 238.56 136.473 237.607 136.4V135.036C238.927 135.197 239.931 134.435 240.621 132.748L240.907 132.066L235.979 121H237.519L241.655 130.218ZM258.348 120.736C259.961 120.736 261.325 121.293 262.44 122.408C263.569 123.508 264.134 124.872 264.134 126.5C264.134 128.113 263.569 129.485 262.44 130.614C261.31 131.714 259.946 132.264 258.348 132.264C256.881 132.264 255.605 131.787 254.52 130.834C253.449 129.851 252.84 128.641 252.694 127.204H250.406V132H248.954V121H250.406V125.796H252.694C252.855 124.344 253.464 123.141 254.52 122.188C255.59 121.22 256.866 120.736 258.348 120.736ZM255.268 129.602C256.104 130.438 257.13 130.856 258.348 130.856C259.565 130.856 260.592 130.438 261.428 129.602C262.264 128.737 262.682 127.703 262.682 126.5C262.682 125.283 262.264 124.256 261.428 123.42C260.592 122.569 259.565 122.144 258.348 122.144C257.13 122.144 256.104 122.569 255.268 123.42C254.432 124.256 254.014 125.283 254.014 126.5C254.014 127.703 254.432 128.737 255.268 129.602ZM282.037 121H283.709V132H282.257V123.222L278.407 129.47H278.231L274.381 123.222V132H272.929V121H274.601L278.319 127.028L282.037 121ZM296.445 130.614C295.315 131.714 293.951 132.264 292.353 132.264C290.725 132.264 289.353 131.714 288.239 130.614C287.124 129.499 286.567 128.128 286.567 126.5C286.567 124.872 287.124 123.508 288.239 122.408C289.353 121.293 290.725 120.736 292.353 120.736C293.966 120.736 295.33 121.293 296.445 122.408C297.574 123.508 298.139 124.872 298.139 126.5C298.139 128.113 297.574 129.485 296.445 130.614ZM289.273 129.602C290.109 130.438 291.135 130.856 292.353 130.856C293.57 130.856 294.597 130.438 295.433 129.602C296.269 128.737 296.687 127.703 296.687 126.5C296.687 125.283 296.269 124.256 295.433 123.42C294.597 122.569 293.57 122.144 292.353 122.144C291.135 122.144 290.109 122.569 289.273 123.42C288.437 124.256 288.019 125.283 288.019 126.5C288.019 127.703 288.437 128.737 289.273 129.602ZM309.819 121V130.592H311.359V134.948H309.907V132H300.931V134.948H299.479V130.592H300.821C301.569 129.595 301.943 128.209 301.943 126.434V121H309.819ZM302.581 130.592H308.367V122.408H303.395V126.434C303.395 128.135 303.123 129.521 302.581 130.592ZM318.648 120.736C320.29 120.736 321.603 121.315 322.586 122.474C323.598 123.618 324.104 124.975 324.104 126.544C324.104 126.617 324.089 126.845 324.06 127.226H314.402C314.548 128.326 315.018 129.206 315.81 129.866C316.602 130.526 317.592 130.856 318.78 130.856C320.452 130.856 321.632 130.233 322.322 128.986L323.598 129.734C323.114 130.526 322.446 131.149 321.596 131.604C320.76 132.044 319.814 132.264 318.758 132.264C317.027 132.264 315.619 131.721 314.534 130.636C313.448 129.551 312.906 128.172 312.906 126.5C312.906 124.843 313.441 123.471 314.512 122.386C315.582 121.286 316.961 120.736 318.648 120.736ZM318.648 122.144C317.504 122.144 316.543 122.481 315.766 123.156C315.003 123.831 314.548 124.718 314.402 125.818H322.608C322.446 124.645 321.999 123.743 321.266 123.112C320.503 122.467 319.63 122.144 318.648 122.144ZM327.568 121H335.444V132H333.992V122.408H329.02V127.314C329.02 129.147 328.668 130.409 327.964 131.098C327.274 131.787 326.321 132.088 325.104 132V130.636C325.954 130.724 326.578 130.519 326.974 130.02C327.37 129.521 327.568 128.619 327.568 127.314V121ZM340.411 125.18H343.425C344.437 125.18 345.303 125.503 346.021 126.148C346.74 126.779 347.099 127.593 347.099 128.59C347.099 129.602 346.74 130.423 346.021 131.054C345.332 131.685 344.467 132 343.425 132H338.959V121H340.411V125.18ZM340.411 130.592H343.425C344.056 130.592 344.584 130.409 345.009 130.042C345.435 129.661 345.647 129.177 345.647 128.59C345.647 128.003 345.435 127.527 345.009 127.16C344.584 126.779 344.056 126.588 343.425 126.588H340.411V130.592ZM350.179 130.13H351.939L350.619 135.08H349.299L350.179 130.13ZM42.992 159.47L49.548 151H50.78V162H49.328V153.53L42.772 162H41.54V151H42.992V159.47ZM59.4165 162.264C57.7592 162.264 56.3805 161.714 55.2805 160.614C54.1805 159.485 53.6305 158.113 53.6305 156.5C53.6305 154.872 54.1805 153.508 55.2805 152.408C56.3805 151.293 57.7592 150.736 59.4165 150.736C60.5019 150.736 61.4772 151 62.3425 151.528C63.2079 152.041 63.8385 152.738 64.2345 153.618L63.0465 154.3C62.7532 153.64 62.2765 153.119 61.6165 152.738C60.9712 152.342 60.2379 152.144 59.4165 152.144C58.1992 152.144 57.1725 152.569 56.3365 153.42C55.5005 154.256 55.0825 155.283 55.0825 156.5C55.0825 157.703 55.5005 158.737 56.3365 159.602C57.1725 160.438 58.1992 160.856 59.4165 160.856C60.2232 160.856 60.9492 160.665 61.5945 160.284C62.2545 159.903 62.7679 159.375 63.1345 158.7L64.3445 159.404C63.8899 160.284 63.2225 160.981 62.3425 161.494C61.4625 162.007 60.4872 162.264 59.4165 162.264ZM65.3344 151H74.5744V152.408H70.6804V162H69.2284V152.408H65.3344V151ZM85.5721 160.614C84.4428 161.714 83.0788 162.264 81.4801 162.264C79.8521 162.264 78.4808 161.714 77.3661 160.614C76.2515 159.499 75.6941 158.128 75.6941 156.5C75.6941 154.872 76.2515 153.508 77.3661 152.408C78.4808 151.293 79.8521 150.736 81.4801 150.736C83.0935 150.736 84.4575 151.293 85.5721 152.408C86.7015 153.508 87.2661 154.872 87.2661 156.5C87.2661 158.113 86.7015 159.485 85.5721 160.614ZM78.4001 159.602C79.2361 160.438 80.2628 160.856 81.4801 160.856C82.6975 160.856 83.7241 160.438 84.5601 159.602C85.3961 158.737 85.8141 157.703 85.8141 156.5C85.8141 155.283 85.3961 154.256 84.5601 153.42C83.7241 152.569 82.6975 152.144 81.4801 152.144C80.2628 152.144 79.2361 152.569 78.4001 153.42C77.5641 154.256 77.1461 155.283 77.1461 156.5C77.1461 157.703 77.5641 158.737 78.4001 159.602ZM96.0319 150.736C97.6013 150.736 98.9359 151.293 100.036 152.408C101.151 153.523 101.708 154.887 101.708 156.5C101.708 158.113 101.151 159.477 100.036 160.592C98.9359 161.707 97.6013 162.264 96.0319 162.264C94.0813 162.264 92.5999 161.457 91.5879 159.844V166.4H90.1359V151H91.5879V153.156C92.5999 151.543 94.0813 150.736 96.0319 150.736ZM92.8419 159.602C93.6779 160.438 94.7046 160.856 95.9219 160.856C97.1393 160.856 98.1659 160.438 99.0019 159.602C99.8379 158.737 100.256 157.703 100.256 156.5C100.256 155.283 99.8379 154.256 99.0019 153.42C98.1659 152.569 97.1393 152.144 95.9219 152.144C94.7046 152.144 93.6779 152.569 92.8419 153.42C92.0059 154.256 91.5879 155.283 91.5879 156.5C91.5879 157.703 92.0059 158.737 92.8419 159.602ZM106.014 159.47L112.57 151H113.802V162H112.35V153.53L105.794 162H104.562V151H106.014V159.47ZM124.441 156.478V151H125.893V162H124.441V157.82C123.59 158.26 122.541 158.48 121.295 158.48C119.843 158.48 118.743 158.15 117.995 157.49C117.247 156.815 116.873 155.825 116.873 154.52V151H118.325V154.52C118.325 155.429 118.559 156.089 119.029 156.5C119.513 156.911 120.253 157.116 121.251 157.116C122.365 157.116 123.429 156.903 124.441 156.478ZM134.501 150.736C136.143 150.736 137.456 151.315 138.439 152.474C139.451 153.618 139.957 154.975 139.957 156.544C139.957 156.617 139.942 156.845 139.913 157.226H130.255C130.401 158.326 130.871 159.206 131.663 159.866C132.455 160.526 133.445 160.856 134.633 160.856C136.305 160.856 137.485 160.233 138.175 158.986L139.451 159.734C138.967 160.526 138.299 161.149 137.449 161.604C136.613 162.044 135.667 162.264 134.611 162.264C132.88 162.264 131.472 161.721 130.387 160.636C129.301 159.551 128.759 158.172 128.759 156.5C128.759 154.843 129.294 153.471 130.365 152.386C131.435 151.286 132.814 150.736 134.501 150.736ZM134.501 152.144C133.357 152.144 132.396 152.481 131.619 153.156C130.856 153.831 130.401 154.718 130.255 155.818H138.461C138.299 154.645 137.852 153.743 137.119 153.112C136.356 152.467 135.483 152.144 134.501 152.144ZM147.832 162.264C146.175 162.264 144.796 161.714 143.696 160.614C142.596 159.485 142.046 158.113 142.046 156.5C142.046 154.872 142.596 153.508 143.696 152.408C144.796 151.293 146.175 150.736 147.832 150.736C148.918 150.736 149.893 151 150.758 151.528C151.624 152.041 152.254 152.738 152.65 153.618L151.462 154.3C151.169 153.64 150.692 153.119 150.032 152.738C149.387 152.342 148.654 152.144 147.832 152.144C146.615 152.144 145.588 152.569 144.752 153.42C143.916 154.256 143.498 155.283 143.498 156.5C143.498 157.703 143.916 158.737 144.752 159.602C145.588 160.438 146.615 160.856 147.832 160.856C148.639 160.856 149.365 160.665 150.01 160.284C150.67 159.903 151.184 159.375 151.55 158.7L152.76 159.404C152.306 160.284 151.638 160.981 150.758 161.494C149.878 162.007 148.903 162.264 147.832 162.264ZM158.277 156.28L164.173 162H162.237L156.737 156.698V162H155.285V151H156.737V155.862L161.973 151H163.953L158.277 156.28ZM170.523 160.218L174.087 151H175.627L170.919 163.012C170.479 164.127 169.863 164.985 169.071 165.586C168.293 166.202 167.428 166.473 166.475 166.4V165.036C167.795 165.197 168.799 164.435 169.489 162.748L169.775 162.066L164.847 151H166.387L170.523 160.218ZM187.215 150.736C188.829 150.736 190.193 151.293 191.307 152.408C192.437 153.508 193.001 154.872 193.001 156.5C193.001 158.113 192.437 159.485 191.307 160.614C190.178 161.714 188.814 162.264 187.215 162.264C185.749 162.264 184.473 161.787 183.387 160.834C182.317 159.851 181.708 158.641 181.561 157.204H179.273V162H177.821V151H179.273V155.796H181.561C181.723 154.344 182.331 153.141 183.387 152.188C184.458 151.22 185.734 150.736 187.215 150.736ZM184.135 159.602C184.971 160.438 185.998 160.856 187.215 160.856C188.433 160.856 189.459 160.438 190.295 159.602C191.131 158.737 191.549 157.703 191.549 156.5C191.549 155.283 191.131 154.256 190.295 153.42C189.459 152.569 188.433 152.144 187.215 152.144C185.998 152.144 184.971 152.569 184.135 153.42C183.299 154.256 182.881 155.283 182.881 156.5C182.881 157.703 183.299 158.737 184.135 159.602ZM205.097 144.4L196.297 164.2H195.197L203.997 144.4H205.097ZM207.963 151H217.203V162H215.751V152.408H209.415V162H207.963V151ZM226.61 150.736C228.179 150.736 229.514 151.293 230.614 152.408C231.728 153.523 232.286 154.887 232.286 156.5C232.286 158.113 231.728 159.477 230.614 160.592C229.514 161.707 228.179 162.264 226.61 162.264C224.659 162.264 223.178 161.457 222.166 159.844V166.4H220.714V151H222.166V153.156C223.178 151.543 224.659 150.736 226.61 150.736ZM223.42 159.602C224.256 160.438 225.282 160.856 226.5 160.856C227.717 160.856 228.744 160.438 229.58 159.602C230.416 158.737 230.834 157.703 230.834 156.5C230.834 155.283 230.416 154.256 229.58 153.42C228.744 152.569 227.717 152.144 226.5 152.144C225.282 152.144 224.256 152.569 223.42 153.42C222.584 154.256 222.166 155.283 222.166 156.5C222.166 157.703 222.584 158.737 223.42 159.602ZM244.358 160.614C243.229 161.714 241.865 162.264 240.266 162.264C238.638 162.264 237.267 161.714 236.152 160.614C235.037 159.499 234.48 158.128 234.48 156.5C234.48 154.872 235.037 153.508 236.152 152.408C237.267 151.293 238.638 150.736 240.266 150.736C241.879 150.736 243.243 151.293 244.358 152.408C245.487 153.508 246.052 154.872 246.052 156.5C246.052 158.113 245.487 159.485 244.358 160.614ZM237.186 159.602C238.022 160.438 239.049 160.856 240.266 160.856C241.483 160.856 242.51 160.438 243.346 159.602C244.182 158.737 244.6 157.703 244.6 156.5C244.6 155.283 244.182 154.256 243.346 153.42C242.51 152.569 241.483 152.144 240.266 152.144C239.049 152.144 238.022 152.569 237.186 153.42C236.35 154.256 235.932 155.283 235.932 156.5C235.932 157.703 236.35 158.737 237.186 159.602ZM248.922 151H255.962V152.408H250.374V162H248.922V151ZM265.958 155.796V151H267.41V162H265.958V157.204H259.622V162H258.17V151H259.622V155.796H265.958ZM280.139 160.614C279.01 161.714 277.646 162.264 276.047 162.264C274.419 162.264 273.048 161.714 271.933 160.614C270.818 159.499 270.261 158.128 270.261 156.5C270.261 154.872 270.818 153.508 271.933 152.408C273.048 151.293 274.419 150.736 276.047 150.736C277.66 150.736 279.024 151.293 280.139 152.408C281.268 153.508 281.833 154.872 281.833 156.5C281.833 158.113 281.268 159.485 280.139 160.614ZM272.967 159.602C273.803 160.438 274.83 160.856 276.047 160.856C277.264 160.856 278.291 160.438 279.127 159.602C279.963 158.737 280.381 157.703 280.381 156.5C280.381 155.283 279.963 154.256 279.127 153.42C278.291 152.569 277.264 152.144 276.047 152.144C274.83 152.144 273.803 152.569 272.967 153.42C272.131 154.256 271.713 155.283 271.713 156.5C271.713 157.703 272.131 158.737 272.967 159.602ZM289.949 156.346C291.225 156.83 291.863 157.71 291.863 158.986C291.863 159.91 291.504 160.687 290.785 161.318C290.096 161.949 289.084 162.264 287.749 162.264C285.52 162.264 284.068 161.384 283.393 159.624L284.625 158.898C285.094 160.203 286.136 160.856 287.749 160.856C288.585 160.856 289.238 160.68 289.707 160.328C290.176 159.961 290.411 159.485 290.411 158.898C290.411 158.37 290.22 157.952 289.839 157.644C289.458 157.321 288.944 157.16 288.299 157.16H286.693V155.752H287.859C288.49 155.752 288.981 155.598 289.333 155.29C289.7 154.967 289.883 154.527 289.883 153.97C289.883 153.442 289.663 153.009 289.223 152.672C288.798 152.32 288.233 152.144 287.529 152.144C286.165 152.144 285.248 152.694 284.779 153.794L283.569 153.09C284.302 151.521 285.622 150.736 287.529 150.736C288.702 150.736 289.626 151.044 290.301 151.66C290.99 152.261 291.335 153.002 291.335 153.882C291.335 155.011 290.873 155.833 289.949 156.346ZM295.962 159.47L302.518 151H303.75V162H302.298V153.53L295.742 162H294.51V151H295.962V159.47ZM313.156 150.736C314.726 150.736 316.06 151.293 317.16 152.408C318.275 153.523 318.832 154.887 318.832 156.5C318.832 158.113 318.275 159.477 317.16 160.592C316.06 161.707 314.726 162.264 313.156 162.264C311.206 162.264 309.724 161.457 308.712 159.844V166.4H307.26V151H308.712V153.156C309.724 151.543 311.206 150.736 313.156 150.736ZM309.966 159.602C310.802 160.438 311.829 160.856 313.046 160.856C314.264 160.856 315.29 160.438 316.126 159.602C316.962 158.737 317.38 157.703 317.38 156.5C317.38 155.283 316.962 154.256 316.126 153.42C315.29 152.569 314.264 152.144 313.046 152.144C311.829 152.144 310.802 152.569 309.966 153.42C309.13 154.256 308.712 155.283 308.712 156.5C308.712 157.703 309.13 158.737 309.966 159.602ZM325.613 160.218L329.177 151H330.717L326.009 163.012C325.569 164.127 324.953 164.985 324.161 165.586C323.384 166.202 322.518 166.473 321.565 166.4V165.036C322.885 165.197 323.89 164.435 324.579 162.748L324.865 162.066L319.937 151H321.477L325.613 160.218ZM337.564 150.736C339.207 150.736 340.52 151.315 341.502 152.474C342.514 153.618 343.02 154.975 343.02 156.544C343.02 156.617 343.006 156.845 342.976 157.226H333.318C333.465 158.326 333.934 159.206 334.726 159.866C335.518 160.526 336.508 160.856 337.696 160.856C339.368 160.856 340.549 160.233 341.238 158.986L342.514 159.734C342.03 160.526 341.363 161.149 340.512 161.604C339.676 162.044 338.73 162.264 337.674 162.264C335.944 162.264 334.536 161.721 333.45 160.636C332.365 159.551 331.822 158.172 331.822 156.5C331.822 154.843 332.358 153.471 333.428 152.386C334.499 151.286 335.878 150.736 337.564 150.736ZM337.564 152.144C336.42 152.144 335.46 152.481 334.682 153.156C333.92 153.831 333.465 154.718 333.318 155.818H341.524C341.363 154.645 340.916 153.743 340.182 153.112C339.42 152.467 338.547 152.144 337.564 152.144ZM354.878 151H356.55V162H355.098V153.222L351.248 159.47H351.072L347.222 153.222V162H345.77V151H347.442L351.16 157.028L354.878 151ZM364.423 160.218L367.987 151H369.527L364.819 163.012C364.379 164.127 363.763 164.985 362.971 165.586C362.194 166.202 361.329 166.473 360.375 166.4V165.036C361.695 165.197 362.7 164.435 363.389 162.748L363.675 162.066L358.747 151H360.287L364.423 160.218ZM381.116 150.736C382.73 150.736 384.094 151.293 385.208 152.408C386.338 153.508 386.902 154.872 386.902 156.5C386.902 158.113 386.338 159.485 385.208 160.614C384.079 161.714 382.715 162.264 381.116 162.264C379.65 162.264 378.374 161.787 377.288 160.834C376.218 159.851 375.609 158.641 375.462 157.204H373.174V162H371.722V151H373.174V155.796H375.462C375.624 154.344 376.232 153.141 377.288 152.188C378.359 151.22 379.635 150.736 381.116 150.736ZM378.036 159.602C378.872 160.438 379.899 160.856 381.116 160.856C382.334 160.856 383.36 160.438 384.196 159.602C385.032 158.737 385.45 157.703 385.45 156.5C385.45 155.283 385.032 154.256 384.196 153.42C383.36 152.569 382.334 152.144 381.116 152.144C379.899 152.144 378.872 152.569 378.036 153.42C377.2 154.256 376.782 155.283 376.782 156.5C376.782 157.703 377.2 158.737 378.036 159.602ZM50.78 181V190.592H52.32V194.948H50.868V192H41.892V194.948H40.44V190.592H41.782C42.53 189.595 42.904 188.209 42.904 186.434V181H50.78ZM43.542 190.592H49.328V182.408H44.356V186.434C44.356 188.135 44.0847 189.521 43.542 190.592ZM63.7449 190.614C62.6155 191.714 61.2515 192.264 59.6529 192.264C58.0249 192.264 56.6535 191.714 55.5389 190.614C54.4242 189.499 53.8669 188.128 53.8669 186.5C53.8669 184.872 54.4242 183.508 55.5389 182.408C56.6535 181.293 58.0249 180.736 59.6529 180.736C61.2662 180.736 62.6302 181.293 63.7449 182.408C64.8742 183.508 65.4389 184.872 65.4389 186.5C65.4389 188.113 64.8742 189.485 63.7449 190.614ZM56.5729 189.602C57.4089 190.438 58.4355 190.856 59.6529 190.856C60.8702 190.856 61.8969 190.438 62.7329 189.602C63.5689 188.737 63.9869 187.703 63.9869 186.5C63.9869 185.283 63.5689 184.256 62.7329 183.42C61.8969 182.569 60.8702 182.144 59.6529 182.144C58.4355 182.144 57.4089 182.569 56.5729 183.42C55.7369 184.256 55.3189 185.283 55.3189 186.5C55.3189 187.703 55.7369 188.737 56.5729 189.602ZM72.4852 186.302L76.7752 192H75.0372L71.6052 187.468L68.1732 192H66.4352L70.7472 186.302L66.7212 181H68.4592L71.6052 185.158L74.7512 181H76.4892L72.4852 186.302ZM87.6346 190.614C86.5053 191.714 85.1413 192.264 83.5426 192.264C81.9146 192.264 80.5433 191.714 79.4286 190.614C78.314 189.499 77.7566 188.128 77.7566 186.5C77.7566 184.872 78.314 183.508 79.4286 182.408C80.5433 181.293 81.9146 180.736 83.5426 180.736C85.156 180.736 86.52 181.293 87.6346 182.408C88.764 183.508 89.3286 184.872 89.3286 186.5C89.3286 188.113 88.764 189.485 87.6346 190.614ZM80.4626 189.602C81.2986 190.438 82.3253 190.856 83.5426 190.856C84.76 190.856 85.7866 190.438 86.6226 189.602C87.4586 188.737 87.8766 187.703 87.8766 186.5C87.8766 185.283 87.4586 184.256 86.6226 183.42C85.7866 182.569 84.76 182.144 83.5426 182.144C82.3253 182.144 81.2986 182.569 80.4626 183.42C79.6266 184.256 79.2086 185.283 79.2086 186.5C79.2086 187.703 79.6266 188.737 80.4626 189.602ZM101.009 181V190.592H102.549V194.948H101.097V192H92.1207V194.948H90.6687V190.592H92.0107C92.7587 189.595 93.1327 188.209 93.1327 186.434V181H101.009ZM93.7707 190.592H99.5567V182.408H94.5847V186.434C94.5847 188.135 94.3134 189.521 93.7707 190.592ZM112.973 185.796V181H114.425V192H112.973V187.204H106.637V192H105.185V181H106.637V185.796H112.973ZM127.154 190.614C126.025 191.714 124.661 192.264 123.062 192.264C121.434 192.264 120.063 191.714 118.948 190.614C117.833 189.499 117.276 188.128 117.276 186.5C117.276 184.872 117.833 183.508 118.948 182.408C120.063 181.293 121.434 180.736 123.062 180.736C124.675 180.736 126.039 181.293 127.154 182.408C128.283 183.508 128.848 184.872 128.848 186.5C128.848 188.113 128.283 189.485 127.154 190.614ZM119.982 189.602C120.818 190.438 121.845 190.856 123.062 190.856C124.279 190.856 125.306 190.438 126.142 189.602C126.978 188.737 127.396 187.703 127.396 186.5C127.396 185.283 126.978 184.256 126.142 183.42C125.306 182.569 124.279 182.144 123.062 182.144C121.845 182.144 120.818 182.569 119.982 183.42C119.146 184.256 118.728 185.283 118.728 186.5C118.728 187.703 119.146 188.737 119.982 189.602ZM136.844 192.264C135.186 192.264 133.808 191.714 132.708 190.614C131.608 189.485 131.058 188.113 131.058 186.5C131.058 184.872 131.608 183.508 132.708 182.408C133.808 181.293 135.186 180.736 136.844 180.736C137.929 180.736 138.904 181 139.77 181.528C140.635 182.041 141.266 182.738 141.662 183.618L140.474 184.3C140.18 183.64 139.704 183.119 139.044 182.738C138.398 182.342 137.665 182.144 136.844 182.144C135.626 182.144 134.6 182.569 133.764 183.42C132.928 184.256 132.51 185.283 132.51 186.5C132.51 187.703 132.928 188.737 133.764 189.602C134.6 190.438 135.626 190.856 136.844 190.856C137.65 190.856 138.376 190.665 139.022 190.284C139.682 189.903 140.195 189.375 140.562 188.7L141.772 189.404C141.317 190.284 140.65 190.981 139.77 191.494C138.89 192.007 137.914 192.264 136.844 192.264ZM142.761 181H152.001V182.408H148.107V192H146.655V182.408H142.761V181ZM155.663 185.18H158.677C159.689 185.18 160.554 185.503 161.273 186.148C161.992 186.779 162.351 187.593 162.351 188.59C162.351 189.602 161.992 190.423 161.273 191.054C160.584 191.685 159.718 192 158.677 192H154.211V181H155.663V185.18ZM155.663 190.592H158.677C159.308 190.592 159.836 190.409 160.261 190.042C160.686 189.661 160.899 189.177 160.899 188.59C160.899 188.003 160.686 187.527 160.261 187.16C159.836 186.779 159.308 186.588 158.677 186.588H155.663V190.592Z" fill="#F3F3F3"/>
<path d="M402.1 343.94C392.44 357.66 378.79 364.52 361.15 364.52C343.65 364.52 329.93 357.66 319.99 343.94C310.33 330.08 305.5 311.6 305.5 288.5C305.5 265.26 310.33 246.85 319.99 233.27C329.93 219.41 343.65 212.48 361.15 212.48C378.79 212.48 392.44 219.41 402.1 233.27C411.9 246.85 416.8 265.26 416.8 288.5C416.8 311.74 411.9 330.22 402.1 343.94ZM330.91 334.07C338.33 344.85 348.41 350.24 361.15 350.24C374.03 350.24 384.04 344.85 391.18 334.07C398.46 323.43 402.1 308.24 402.1 288.5C402.1 268.76 398.46 253.57 391.18 242.93C384.04 232.15 374.03 226.76 361.15 226.76C348.41 226.76 338.33 232.15 330.91 242.93C323.77 253.71 320.2 268.9 320.2 288.5C320.2 308.1 323.77 323.29 330.91 334.07ZM430.524 228.44L469.374 215H481.974V362H467.274V231.17L434.304 241.04L430.524 228.44Z" fill="white"/>
</g>
<defs>
<clipPath id="clip0_1877_5371">
<rect width="513" height="313" fill="white"/>
</clipPath>
</defs>
</svg>
