<svg width="513" height="326" viewBox="0 0 513 326" fill="none" xmlns="http://www.w3.org/2000/svg">
<g clip-path="url(#clip0_3192_1205)">
<rect x="0.5" y="0.5" width="512" height="325" rx="39.5" fill="#0048B4" stroke="#0048B4"/>
<g opacity="0.5">
<path d="M915.435 -0.997559H-13V554.999H915.435V-0.997559Z" fill="#DDEAFF"/>
<path d="M-12.5 554.499V-0.497559H914.935V554.499H-12.5Z" stroke="white" stroke-opacity="0.1"/>
<mask id="mask0_3192_1205" style="mask-type:luminance" maskUnits="userSpaceOnUse" x="-13" y="-1" width="929" height="556">
<path d="M915.435 -1H-13V554.997H915.435V-1Z" fill="white"/>
<path d="M-12.5 554.497V-0.5H914.935V554.497H-12.5Z" stroke="white"/>
</mask>
<g mask="url(#mask0_3192_1205)">
<path d="M69.1893 543.106C90.4718 489.66 74.0042 424.219 107.487 376.963C117.556 362.752 131.392 351.518 144.132 339.472C169.194 315.776 190.349 288.563 211.398 261.467C231.089 236.119 251.45 209.239 255.695 177.814C259.019 153.215 252.04 128.526 245.127 104.633C230.874 55.3658 216.619 6.09795 202.365 -43.1689C101.863 -42.5082 1.36156 -41.8475 -99.1406 -41.1859C-98.4034 128.555 -93.7399 297.667 -93.0027 467.409C-92.844 503.976 -92.5376 541.387 -79.6658 575.775C-28.6176 576.499 21.6878 561.178 69.1893 543.106Z" fill="white"/>
<path d="M107.079 376.674C90.2538 400.42 85.9943 428.716 83.2653 457.666C82.8797 461.756 82.5247 465.859 82.1695 469.964C80.013 494.882 77.8487 519.892 68.8059 542.717C21.4847 560.71 -28.5577 575.928 -79.3169 575.28C-92.0348 541.077 -92.3444 503.875 -92.5027 467.407C-92.8713 382.533 -94.2216 297.817 -95.5717 213.105L-95.5717 213.103C-96.9193 128.556 -98.2668 44.0112 -98.6385 -40.6892C1.5713 -41.3489 101.78 -42.0077 201.99 -42.6665C216.209 6.47926 230.428 55.6259 244.647 104.772C251.565 128.682 258.507 153.269 255.2 177.747C250.975 209.017 230.709 235.793 211.003 261.161C189.951 288.261 168.818 315.444 143.788 339.109C140.997 341.747 138.149 344.351 135.295 346.96C125.161 356.224 114.965 365.544 107.079 376.674Z" stroke="white" stroke-opacity="0.1"/>
</g>
<mask id="mask1_3192_1205" style="mask-type:luminance" maskUnits="userSpaceOnUse" x="-13" y="-1" width="929" height="556">
<path d="M915.435 -1H-13V554.997H915.435V-1Z" fill="white"/>
<path d="M-12.5 554.497V-0.5H914.935V554.497H-12.5Z" stroke="white"/>
</mask>
<g mask="url(#mask1_3192_1205)">
<path d="M221.05 -1.09396C224.806 20.7437 228.562 42.5815 232.317 64.4192C237.959 97.2211 244.362 129.994 249.256 162.907C252.795 186.699 240.144 208.441 226.472 228.053C199.586 266.619 158.402 292.781 128.859 329.141C89.1422 378.023 71.5232 431.924 70.8613 493.551C70.4379 532.93 72.4313 679.301 -7.49309 640.74C-26.1751 631.726 -21.3221 606.437 -21.8086 589.593C-23.4297 533.397 -24.6766 477.191 -25.5484 420.98C-27.2929 308.557 -27.5389 196.114 -26.2874 83.6854C-25.9745 55.5779 -25.5679 27.4722 -25.0674 -0.63248C-22.5486 2.09098 -0.93927 -0.71588 2.61571 -0.736266C25.1609 -0.861365 47.7061 -0.995731 70.2513 -1.106C120.517 -1.34972 170.783 -0.876192 221.05 -1.09396Z" fill="#0048B4"/>
<path d="M147.038 -0.606354C171.567 -0.547059 196.098 -0.48776 220.629 -0.592145C224.361 21.1065 228.093 42.8052 231.824 64.5039C233.705 75.4378 235.669 86.3644 237.634 97.2919C241.566 119.163 245.498 141.038 248.762 162.98C252.268 186.557 239.737 208.15 226.061 227.767C212.654 247 195.674 263.149 178.324 279.056C176.587 280.648 174.847 282.238 173.106 283.828C157.467 298.114 141.789 312.435 128.471 328.826C88.6771 377.802 71.0244 431.815 70.3613 493.545C70.3455 495.018 70.333 496.64 70.3195 498.396C70.1523 520.133 69.8274 562.361 61.0131 596.247C56.2474 614.568 49.0242 630.347 38.0945 639.158C32.6415 643.554 26.2609 646.219 18.7778 646.602C11.2877 646.986 2.66122 645.084 -7.27582 640.289C-16.3948 635.89 -19.8044 627.521 -20.978 618.041C-21.5648 613.301 -21.5884 608.309 -21.4938 603.433C-21.468 602.101 -21.4333 600.776 -21.399 599.468C-21.3081 596 -21.2202 592.647 -21.3088 589.578C-22.9298 533.385 -24.1767 477.181 -25.0484 420.972C-26.7929 308.554 -27.0389 196.115 -25.7874 83.6909C-25.4779 55.8832 -25.0766 28.0773 -24.5834 0.272373C-24.2355 0.423957 -23.8342 0.540743 -23.4076 0.634235C-22.5299 0.8266 -21.4341 0.942152 -20.2037 1.00253C-17.7406 1.1234 -14.6706 1.0259 -11.5849 0.843699C-8.49634 0.661322 -5.37675 0.393078 -2.81194 0.169651C-2.70825 0.160619 -2.60553 0.151665 -2.50379 0.142798C-0.0728912 -0.0690786 1.79092 -0.231528 2.61858 -0.236274C8.88117 -0.271024 15.1438 -0.30649 21.4064 -0.341955C37.689 -0.434163 53.9713 -0.52637 70.2537 -0.60601C95.3844 -0.727856 120.516 -0.670409 145.649 -0.609712L147.038 -0.606354Z" stroke="white" stroke-opacity="0.1"/>
</g>
<mask id="mask2_3192_1205" style="mask-type:luminance" maskUnits="userSpaceOnUse" x="-13" y="-1" width="929" height="556">
<path d="M915.435 -1H-13V554.997H915.435V-1Z" fill="white"/>
<path d="M-12.5 554.497V-0.5H914.935V554.497H-12.5Z" stroke="white"/>
</mask>
<g mask="url(#mask2_3192_1205)">
<path d="M351.375 113.495C327.752 111.713 291.757 95.6427 273.048 76.1763C260.863 63.4977 263.596 63.3958 256.052 47.0726C236.82 5.44051 247.677 -4.35616 270.727 -20.4263C299.897 -40.7628 323.209 -67.6147 355.779 -83.0992C381.305 -95.2348 410.429 -101.778 440.666 -98.9025C454.767 -97.5616 469.11 -94.1719 483.444 -88.346C507.688 -78.4919 532.295 -61.7332 555.853 -61.8805C569.713 -61.9676 582.211 -68.0299 596.481 -65.4417C659.654 -53.9798 499.178 124.642 351.375 113.495Z" fill="#C8CDF5"/>
<path d="M483.255 -87.8828L483.444 -88.346L483.255 -87.8828C489.3 -85.426 495.371 -82.5373 501.454 -79.5831C502.45 -79.0996 503.446 -78.6143 504.442 -78.1289C509.53 -75.6505 514.624 -73.1687 519.702 -70.906C531.843 -65.4967 543.966 -61.3062 555.856 -61.3805C561.583 -61.4165 567.085 -62.4651 572.522 -63.5012C573.718 -63.7292 574.911 -63.9565 576.102 -64.1723C582.731 -65.3731 589.349 -66.227 596.391 -64.9497C600.276 -64.2449 603.262 -62.9048 605.437 -61.0411C607.608 -59.1813 608.999 -56.7773 609.661 -53.8931C610.993 -48.0975 609.385 -40.3495 605.166 -31.291C596.736 -13.1957 578.037 9.80461 552.713 32.1298C502.062 76.7839 425.121 118.555 351.412 112.996C339.68 112.111 324.836 107.672 310.58 101.014C296.325 94.3571 282.707 85.5049 273.409 75.8298C267.328 69.5025 265.008 66.352 263.259 62.7718C262.481 61.1779 261.814 59.4959 260.98 57.3924C260.87 57.1154 260.758 56.8311 260.641 56.5388C259.645 54.0315 258.397 50.9553 256.506 46.8629C246.898 26.0639 244.881 13.3622 248.008 3.89424C251.139 -5.58383 259.461 -11.9625 271.013 -20.0162C281.943 -27.6361 292.058 -36.1743 302.123 -44.671C305.51 -47.5298 308.891 -50.3839 312.296 -53.1968C325.834 -64.3809 339.766 -74.9327 355.994 -82.6477C381.45 -94.7503 410.484 -101.27 440.619 -98.4048C454.672 -97.0684 468.968 -93.6902 483.255 -87.8828Z" stroke="white" stroke-opacity="0.1"/>
</g>
<mask id="mask3_3192_1205" style="mask-type:luminance" maskUnits="userSpaceOnUse" x="-13" y="-1" width="929" height="556">
<path d="M915.435 -1H-13V554.997H915.435V-1Z" fill="white"/>
<path d="M-12.5 554.497V-0.5H914.935V554.497H-12.5Z" stroke="white"/>
</mask>
<g mask="url(#mask3_3192_1205)">
<path d="M182.505 -8.72559C151.093 25.4043 165.644 65.5324 180.343 103.308C195.894 143.272 198.441 185.96 174.665 223.625C143.501 272.993 83.7574 296.644 49.7498 344.033C25.1379 378.33 10.8734 420.093 17.6928 461.997C24.2197 502.104 29.4941 529.05 14.1749 568.124C4.24998 593.439 -7.31462 618.154 -20.4297 642.075H-83.2393V-8.72559H182.505Z" fill="#032D6B"/>
<path d="M-20.7259 641.575H-82.7393V-8.22559H181.375C166.185 8.7279 162.101 27.1403 163.634 45.9646C165.189 65.069 172.531 84.6116 179.877 103.489C195.393 143.363 197.906 185.871 174.242 223.358C158.713 247.958 136.056 266.164 112.966 284.177C111.906 285.004 110.844 285.831 109.783 286.658C87.7526 303.821 65.6137 321.069 49.3436 343.742C24.6776 378.114 10.3531 420.008 17.1993 462.078C17.4483 463.608 17.6954 465.118 17.9396 466.611C24.0981 504.258 28.3903 530.496 13.7094 567.942C3.82819 593.145 -7.67962 617.753 -20.7259 641.575Z" stroke="white" stroke-opacity="0.1"/>
</g>
</g>
<path d="M43.58 43.9367C44.6893 44.4061 45.564 45.1207 46.204 46.0807C46.844 47.0407 47.164 48.1181 47.164 49.3127C47.164 51.0407 46.556 52.5127 45.34 53.7287C44.124 54.9447 42.652 55.5527 40.924 55.5527H31.164V33.1527H40.188C41.8307 33.1527 43.2493 33.7501 44.444 34.9447C45.6173 36.1181 46.204 37.5261 46.204 39.1687C46.204 41.2594 45.3293 42.8487 43.58 43.9367ZM40.188 35.2647H33.404V43.0727H40.188C41.212 43.0727 42.0973 42.6994 42.844 41.9527C43.5907 41.1634 43.964 40.2354 43.964 39.1687C43.964 38.1234 43.5907 37.2061 42.844 36.4167C42.0973 35.6487 41.212 35.2647 40.188 35.2647ZM33.404 53.4407H40.924C42.0333 53.4407 42.972 53.0461 43.74 52.2567C44.5293 51.4674 44.924 50.4861 44.924 49.3127C44.924 48.1607 44.5293 47.1901 43.74 46.4007C42.972 45.5901 42.0333 45.1847 40.924 45.1847H33.404V53.4407ZM66.0478 42.9767V33.1527H68.2878V55.5527H66.0478V45.0887H53.8878V55.5527H51.6478V33.1527H53.8878V42.9767H66.0478ZM76.2778 45.3127V53.4407H87.1578V55.5527H74.0378V33.1527H86.9978V35.2647H76.2778V43.2007H86.1978V45.3127H76.2778ZM101.954 55.9367C98.5409 55.9367 95.7356 54.8167 93.5383 52.5767C91.3196 50.3154 90.2103 47.5741 90.2103 44.3527C90.2103 41.1314 91.3196 38.3901 93.5383 36.1287C95.7356 33.8887 98.5409 32.7687 101.954 32.7687C104.002 32.7687 105.89 33.2701 107.618 34.2727C109.346 35.2541 110.69 36.5874 111.65 38.2727L109.666 39.4247C108.962 38.0594 107.917 36.9714 106.53 36.1607C105.144 35.3501 103.618 34.9447 101.954 34.9447C99.1383 34.9447 96.8556 35.8514 95.1063 37.6647C93.3356 39.4994 92.4503 41.7287 92.4503 44.3527C92.4503 46.9767 93.3356 49.2061 95.1063 51.0407C96.8556 52.8541 99.1383 53.7607 101.954 53.7607C103.618 53.7607 105.144 53.3554 106.53 52.5447C107.917 51.7341 108.962 50.6461 109.666 49.2807L111.65 50.4007C110.733 52.0861 109.4 53.4301 107.65 54.4327C105.901 55.4354 104.002 55.9367 101.954 55.9367ZM132.614 55.5527H130.374V37.3127L117.894 55.5527H115.974V33.1527H118.214V51.3927L130.694 33.1527H132.614V55.5527ZM136.444 33.1527H152.444V35.2647H145.564V55.5527H143.324V35.2647H136.444V33.1527ZM158.525 45.3127V53.4407H169.405V55.5527H156.285V33.1527H169.245V35.2647H158.525V43.2007H168.445V45.3127H158.525ZM192.998 55.9367C189.585 55.9367 186.779 54.8167 184.582 52.5767C182.363 50.3154 181.254 47.5741 181.254 44.3527C181.254 41.1314 182.363 38.3901 184.582 36.1287C186.779 33.8887 189.585 32.7687 192.998 32.7687C195.046 32.7687 196.934 33.2701 198.662 34.2727C200.39 35.2541 201.734 36.5874 202.694 38.2727L200.71 39.4247C200.006 38.0594 198.961 36.9714 197.574 36.1607C196.187 35.3501 194.662 34.9447 192.998 34.9447C190.182 34.9447 187.899 35.8514 186.15 37.6647C184.379 39.4994 183.494 41.7287 183.494 44.3527C183.494 46.9767 184.379 49.2061 186.15 51.0407C187.899 52.8541 190.182 53.7607 192.998 53.7607C194.662 53.7607 196.187 53.3554 197.574 52.5447C198.961 51.7341 200.006 50.6461 200.71 49.2807L202.694 50.4007C201.777 52.0861 200.443 53.4301 198.694 54.4327C196.945 55.4354 195.046 55.9367 192.998 55.9367ZM213.561 46.9127L219.449 33.1527H221.753L214.297 50.6567C213.55 52.4487 212.601 53.7394 211.449 54.5287C210.297 55.3181 208.867 55.6594 207.161 55.5527V53.5047C208.355 53.6327 209.337 53.4621 210.105 52.9927C210.894 52.5021 211.545 51.6594 212.057 50.4647L212.505 49.4087L204.793 33.1527H207.097L213.561 46.9127ZM242.979 33.1527H245.763V55.5527H243.523V36.5447L235.683 49.6647H235.363L227.523 36.5447V55.5527H225.283V33.1527H228.067L235.523 45.6327L242.979 33.1527ZM269.212 33.1527H271.996V55.5527H269.756V36.5447L261.916 49.6647H261.596L253.756 36.5447V55.5527H251.516V33.1527H254.3L261.756 45.6327L269.212 33.1527ZM284.918 46.9127L290.806 33.1527H293.11L285.654 50.6567C284.908 52.4487 283.958 53.7394 282.806 54.5287C281.654 55.3181 280.225 55.6594 278.518 55.5527V53.5047C279.713 53.6327 280.694 53.4621 281.462 52.9927C282.252 52.5021 282.902 51.6594 283.414 50.4647L283.862 49.4087L276.15 33.1527H278.454L284.918 46.9127Z" fill="#F3F3F3"/>
<path d="M39.998 92.9527H41.564V105.553H40.304V94.8607L35.894 102.241H35.714L31.304 94.8607V105.553H30.044V92.9527H31.61L35.804 99.9727L39.998 92.9527ZM52.1625 104.419C51.2385 105.319 50.1225 105.769 48.8145 105.769C47.4825 105.769 46.3605 105.319 45.4485 104.419C44.5365 103.507 44.0805 102.385 44.0805 101.053C44.0805 99.7207 44.5365 98.6047 45.4485 97.7047C46.3605 96.7927 47.4825 96.3367 48.8145 96.3367C50.1345 96.3367 51.2505 96.7927 52.1625 97.7047C53.0865 98.6047 53.5485 99.7207 53.5485 101.053C53.5485 102.373 53.0865 103.495 52.1625 104.419ZM46.2945 103.591C46.9785 104.275 47.8185 104.617 48.8145 104.617C49.8105 104.617 50.6505 104.275 51.3345 103.591C52.0185 102.883 52.3605 102.037 52.3605 101.053C52.3605 100.057 52.0185 99.2167 51.3345 98.5327C50.6505 97.8367 49.8105 97.4887 48.8145 97.4887C47.8185 97.4887 46.9785 97.8367 46.2945 98.5327C45.6105 99.2167 45.2685 100.057 45.2685 101.053C45.2685 102.037 45.6105 102.883 46.2945 103.591ZM61.6558 100.873L65.6878 105.553H64.2478L60.5758 101.215V105.553H59.3878V101.215L55.7158 105.553H54.2758L58.3078 100.873L54.4558 96.5527H55.8958L59.3878 100.549V96.5527H60.5758V100.549L64.0678 96.5527H65.5078L61.6558 100.873ZM71.102 96.3367C72.446 96.3367 73.52 96.8107 74.324 97.7587C75.152 98.6947 75.566 99.8047 75.566 101.089C75.566 101.149 75.554 101.335 75.53 101.647H67.628C67.748 102.547 68.132 103.267 68.78 103.807C69.428 104.347 70.238 104.617 71.21 104.617C72.578 104.617 73.544 104.107 74.108 103.087L75.152 103.699C74.756 104.347 74.21 104.857 73.514 105.229C72.83 105.589 72.056 105.769 71.192 105.769C69.776 105.769 68.624 105.325 67.736 104.437C66.848 103.549 66.404 102.421 66.404 101.053C66.404 99.6967 66.842 98.5747 67.718 97.6867C68.594 96.7867 69.722 96.3367 71.102 96.3367ZM71.102 97.4887C70.166 97.4887 69.38 97.7647 68.744 98.3167C68.12 98.8687 67.748 99.5947 67.628 100.495H74.342C74.21 99.5347 73.844 98.7967 73.244 98.2807C72.62 97.7527 71.906 97.4887 71.102 97.4887ZM76.3842 96.5527H83.9442V97.7047H80.7582V105.553H79.5702V97.7047H76.3842V96.5527ZM89.5583 96.3367C90.9023 96.3367 91.9763 96.8107 92.7803 97.7587C93.6083 98.6947 94.0223 99.8047 94.0223 101.089C94.0223 101.149 94.0103 101.335 93.9863 101.647H86.0843C86.2043 102.547 86.5883 103.267 87.2363 103.807C87.8843 104.347 88.6943 104.617 89.6663 104.617C91.0343 104.617 92.0003 104.107 92.5643 103.087L93.6083 103.699C93.2123 104.347 92.6663 104.857 91.9703 105.229C91.2863 105.589 90.5123 105.769 89.6483 105.769C88.2323 105.769 87.0803 105.325 86.1923 104.437C85.3043 103.549 84.8603 102.421 84.8603 101.053C84.8603 99.6967 85.2983 98.5747 86.1743 97.6867C87.0503 96.7867 88.1783 96.3367 89.5583 96.3367ZM89.5583 97.4887C88.6223 97.4887 87.8363 97.7647 87.2003 98.3167C86.5763 98.8687 86.2043 99.5947 86.0843 100.495H92.7983C92.6663 99.5347 92.3003 98.7967 91.7003 98.2807C91.0763 97.7527 90.3623 97.4887 89.5583 97.4887ZM105.326 105.769C103.97 105.769 102.842 105.319 101.942 104.419C101.042 103.495 100.592 102.373 100.592 101.053C100.592 99.7207 101.042 98.6047 101.942 97.7047C102.842 96.7927 103.97 96.3367 105.326 96.3367C106.214 96.3367 107.012 96.5527 107.72 96.9847C108.428 97.4047 108.944 97.9747 109.268 98.6947L108.296 99.2527C108.056 98.7127 107.666 98.2867 107.126 97.9747C106.598 97.6507 105.998 97.4887 105.326 97.4887C104.33 97.4887 103.49 97.8367 102.806 98.5327C102.122 99.2167 101.78 100.057 101.78 101.053C101.78 102.037 102.122 102.883 102.806 103.591C103.49 104.275 104.33 104.617 105.326 104.617C105.986 104.617 106.58 104.461 107.108 104.149C107.648 103.837 108.068 103.405 108.368 102.853L109.358 103.429C108.986 104.149 108.44 104.719 107.72 105.139C107 105.559 106.202 105.769 105.326 105.769ZM118.808 96.5527V104.401H120.068V107.965H118.88V105.553H111.536V107.965H110.348V104.401H111.446C112.058 103.585 112.364 102.451 112.364 100.999V96.5527H118.808ZM112.886 104.401H117.62V97.7047H113.552V100.999C113.552 102.391 113.33 103.525 112.886 104.401ZM126.032 96.3367C127.376 96.3367 128.45 96.8107 129.254 97.7587C130.082 98.6947 130.496 99.8047 130.496 101.089C130.496 101.149 130.484 101.335 130.46 101.647H122.558C122.678 102.547 123.062 103.267 123.71 103.807C124.358 104.347 125.168 104.617 126.14 104.617C127.508 104.617 128.474 104.107 129.038 103.087L130.082 103.699C129.686 104.347 129.14 104.857 128.444 105.229C127.76 105.589 126.986 105.769 126.122 105.769C124.706 105.769 123.554 105.325 122.666 104.437C121.778 103.549 121.334 102.421 121.334 101.053C121.334 99.6967 121.772 98.5747 122.648 97.6867C123.524 96.7867 124.652 96.3367 126.032 96.3367ZM126.032 97.4887C125.096 97.4887 124.31 97.7647 123.674 98.3167C123.05 98.8687 122.678 99.5947 122.558 100.495H129.272C129.14 99.5347 128.774 98.7967 128.174 98.2807C127.55 97.7527 126.836 97.4887 126.032 97.4887ZM133.33 96.5527H139.774V105.553H138.586V97.7047H134.518V101.719C134.518 103.219 134.23 104.251 133.654 104.815C133.09 105.379 132.31 105.625 131.314 105.553V104.437C132.01 104.509 132.52 104.341 132.844 103.933C133.168 103.525 133.33 102.787 133.33 101.719V96.5527ZM150.39 98.3167V96.5527H151.578V105.553H150.39V103.789C149.562 105.109 148.35 105.769 146.754 105.769C145.47 105.769 144.372 105.313 143.46 104.401C142.56 103.489 142.11 102.373 142.11 101.053C142.11 99.7327 142.56 98.6167 143.46 97.7047C144.372 96.7927 145.47 96.3367 146.754 96.3367C148.35 96.3367 149.562 96.9967 150.39 98.3167ZM144.324 103.591C145.008 104.275 145.848 104.617 146.844 104.617C147.84 104.617 148.68 104.275 149.364 103.591C150.048 102.883 150.39 102.037 150.39 101.053C150.39 100.057 150.048 99.2167 149.364 98.5327C148.68 97.8367 147.84 97.4887 146.844 97.4887C145.848 97.4887 145.008 97.8367 144.324 98.5327C143.64 99.2167 143.298 100.057 143.298 101.053C143.298 102.037 143.64 102.883 144.324 103.591ZM153.374 96.5527H160.934V97.7047H157.748V105.553H156.56V97.7047H153.374V96.5527ZM163.929 99.9727H166.395C167.223 99.9727 167.931 100.237 168.519 100.765C169.107 101.281 169.401 101.947 169.401 102.763C169.401 103.591 169.107 104.263 168.519 104.779C167.955 105.295 167.247 105.553 166.395 105.553H162.741V96.5527H163.929V99.9727ZM163.929 104.401H166.395C166.911 104.401 167.343 104.251 167.691 103.951C168.039 103.639 168.213 103.243 168.213 102.763C168.213 102.283 168.039 101.893 167.691 101.593C167.343 101.281 166.911 101.125 166.395 101.125H163.929V104.401ZM179.62 96.3367C180.976 96.3367 182.068 96.7867 182.896 97.6867C183.724 98.5747 184.138 99.6967 184.138 101.053C184.138 102.421 183.718 103.549 182.878 104.437C182.05 105.325 180.952 105.769 179.584 105.769C178.624 105.769 177.784 105.559 177.064 105.139C176.356 104.707 175.84 104.125 175.516 103.393L176.542 102.799C176.758 103.363 177.13 103.807 177.658 104.131C178.186 104.455 178.828 104.617 179.584 104.617C180.472 104.617 181.216 104.341 181.816 103.789C182.428 103.237 182.794 102.517 182.914 101.629H178.432V100.477H182.914C182.806 99.5887 182.452 98.8687 181.852 98.3167C181.252 97.7647 180.508 97.4887 179.62 97.4887C178.936 97.4887 178.33 97.6507 177.802 97.9747C177.274 98.2987 176.884 98.7367 176.632 99.2887L175.588 98.6947C175.948 97.9627 176.482 97.3867 177.19 96.9667C177.91 96.5467 178.72 96.3367 179.62 96.3367ZM185.048 96.5527H192.608V97.7047H189.422V105.553H188.234V97.7047H185.048V96.5527ZM201.606 104.419C200.682 105.319 199.566 105.769 198.258 105.769C196.926 105.769 195.804 105.319 194.892 104.419C193.98 103.507 193.524 102.385 193.524 101.053C193.524 99.7207 193.98 98.6047 194.892 97.7047C195.804 96.7927 196.926 96.3367 198.258 96.3367C199.578 96.3367 200.694 96.7927 201.606 97.7047C202.53 98.6047 202.992 99.7207 202.992 101.053C202.992 102.373 202.53 103.495 201.606 104.419ZM195.738 103.591C196.422 104.275 197.262 104.617 198.258 104.617C199.254 104.617 200.094 104.275 200.778 103.591C201.462 102.883 201.804 102.037 201.804 101.053C201.804 100.057 201.462 99.2167 200.778 98.5327C200.094 97.8367 199.254 97.4887 198.258 97.4887C197.262 97.4887 196.422 97.8367 195.738 98.5327C195.054 99.2167 194.712 100.057 194.712 101.053C194.712 102.037 195.054 102.883 195.738 103.591ZM217.742 104.419C216.818 105.319 215.702 105.769 214.394 105.769C213.062 105.769 211.94 105.319 211.028 104.419C210.116 103.507 209.66 102.385 209.66 101.053C209.66 99.7207 210.116 98.6047 211.028 97.7047C211.94 96.7927 213.062 96.3367 214.394 96.3367C215.714 96.3367 216.83 96.7927 217.742 97.7047C218.666 98.6047 219.128 99.7207 219.128 101.053C219.128 102.373 218.666 103.495 217.742 104.419ZM211.874 103.591C212.558 104.275 213.398 104.617 214.394 104.617C215.39 104.617 216.23 104.275 216.914 103.591C217.598 102.883 217.94 102.037 217.94 101.053C217.94 100.057 217.598 99.2167 216.914 98.5327C216.23 97.8367 215.39 97.4887 214.394 97.4887C213.398 97.4887 212.558 97.8367 211.874 98.5327C211.19 99.2167 210.848 100.057 210.848 101.053C210.848 102.037 211.19 102.883 211.874 103.591ZM227.848 100.477V96.5527H229.036V105.553H227.848V101.629H222.664V105.553H221.476V96.5527H222.664V100.477H227.848ZM232.844 96.5527H239.288V105.553H238.1V97.7047H234.032V101.719C234.032 103.219 233.744 104.251 233.168 104.815C232.604 105.379 231.824 105.625 230.828 105.553V104.437C231.524 104.509 232.034 104.341 232.358 103.933C232.682 103.525 232.844 102.787 232.844 101.719V96.5527ZM249.905 98.3167V96.5527H251.093V105.553H249.905V103.789C249.077 105.109 247.865 105.769 246.269 105.769C244.985 105.769 243.887 105.313 242.975 104.401C242.075 103.489 241.625 102.373 241.625 101.053C241.625 99.7327 242.075 98.6167 242.975 97.7047C243.887 96.7927 244.985 96.3367 246.269 96.3367C247.865 96.3367 249.077 96.9967 249.905 98.3167ZM243.839 103.591C244.523 104.275 245.363 104.617 246.359 104.617C247.355 104.617 248.195 104.275 248.879 103.591C249.563 102.883 249.905 102.037 249.905 101.053C249.905 100.057 249.563 99.2167 248.879 98.5327C248.195 97.8367 247.355 97.4887 246.359 97.4887C245.363 97.4887 244.523 97.8367 243.839 98.5327C243.155 99.2167 242.813 100.057 242.813 101.053C242.813 102.037 243.155 102.883 243.839 103.591ZM260.088 95.1127H255.408V94.0687H260.088V95.1127ZM255.156 103.483L260.52 96.5527H261.528V105.553H260.34V98.6227L254.976 105.553H253.968V96.5527H255.156V103.483ZM270.772 100.477V96.5527H271.96V105.553H270.772V101.629H265.588V105.553H264.4V96.5527H265.588V100.477H270.772ZM285.417 100.927C286.401 101.287 286.893 101.989 286.893 103.033C286.893 103.777 286.641 104.383 286.137 104.851C285.645 105.319 284.955 105.553 284.067 105.553H279.693V96.5527H283.707C284.571 96.5527 285.243 96.7747 285.723 97.2187C286.215 97.6627 286.461 98.2447 286.461 98.9647C286.461 99.8647 286.113 100.519 285.417 100.927ZM283.707 97.7047H280.881V100.441H283.707C284.751 100.441 285.273 99.9727 285.273 99.0367C285.273 98.6167 285.135 98.2927 284.859 98.0647C284.595 97.8247 284.211 97.7047 283.707 97.7047ZM280.881 104.401H284.067C284.595 104.401 284.997 104.275 285.273 104.023C285.561 103.771 285.705 103.417 285.705 102.961C285.705 102.529 285.561 102.193 285.273 101.953C284.997 101.713 284.595 101.593 284.067 101.593H280.881V104.401ZM294.849 96.5527H301.293V105.553H300.105V97.7047H296.037V101.719C296.037 103.219 295.749 104.251 295.173 104.815C294.609 105.379 293.829 105.625 292.833 105.553V104.437C293.529 104.509 294.039 104.341 294.363 103.933C294.687 103.525 294.849 102.787 294.849 101.719V96.5527ZM305.357 103.483L310.721 96.5527H311.729V105.553H310.541V98.6227L305.177 105.553H304.169V96.5527H305.357V103.483ZM320.433 101.035V96.5527H321.621V105.553H320.433V102.133C319.737 102.493 318.879 102.673 317.859 102.673C316.671 102.673 315.771 102.403 315.159 101.863C314.547 101.311 314.241 100.501 314.241 99.4327V96.5527H315.429V99.4327C315.429 100.177 315.621 100.717 316.005 101.053C316.401 101.389 317.007 101.557 317.823 101.557C318.735 101.557 319.605 101.383 320.433 101.035ZM330.878 100.477V96.5527H332.066V105.553H330.878V101.629H325.694V105.553H324.506V96.5527H325.694V100.477H330.878ZM342.481 104.419C341.557 105.319 340.441 105.769 339.133 105.769C337.801 105.769 336.679 105.319 335.767 104.419C334.855 103.507 334.399 102.385 334.399 101.053C334.399 99.7207 334.855 98.6047 335.767 97.7047C336.679 96.7927 337.801 96.3367 339.133 96.3367C340.453 96.3367 341.569 96.7927 342.481 97.7047C343.405 98.6047 343.867 99.7207 343.867 101.053C343.867 102.373 343.405 103.495 342.481 104.419ZM336.613 103.591C337.297 104.275 338.137 104.617 339.133 104.617C340.129 104.617 340.969 104.275 341.653 103.591C342.337 102.883 342.679 102.037 342.679 101.053C342.679 100.057 342.337 99.2167 341.653 98.5327C340.969 97.8367 340.129 97.4887 339.133 97.4887C338.137 97.4887 337.297 97.8367 336.613 98.5327C335.929 99.2167 335.587 100.057 335.587 101.053C335.587 102.037 335.929 102.883 336.613 103.591ZM353.667 96.5527H355.035V105.553H353.847V98.3707L350.697 103.483H350.553L347.403 98.3707V105.553H346.215V96.5527H347.583L350.625 101.485L353.667 96.5527ZM365.221 100.873L370.045 105.553H368.461L363.961 101.215V105.553H362.773V96.5527H363.961V100.531L368.245 96.5527H369.865L365.221 100.873ZM378.871 98.3167V96.5527H380.059V105.553H378.871V103.789C378.043 105.109 376.831 105.769 375.235 105.769C373.951 105.769 372.853 105.313 371.941 104.401C371.041 103.489 370.591 102.373 370.591 101.053C370.591 99.7327 371.041 98.6167 371.941 97.7047C372.853 96.7927 373.951 96.3367 375.235 96.3367C376.831 96.3367 378.043 96.9967 378.871 98.3167ZM372.805 103.591C373.489 104.275 374.329 104.617 375.325 104.617C376.321 104.617 377.161 104.275 377.845 103.591C378.529 102.883 378.871 102.037 378.871 101.053C378.871 100.057 378.529 99.2167 377.845 98.5327C377.161 97.8367 376.321 97.4887 375.325 97.4887C374.329 97.4887 373.489 97.8367 372.805 98.5327C372.121 99.2167 371.779 100.057 371.779 101.053C371.779 102.037 372.121 102.883 372.805 103.591ZM386.93 105.769C385.646 105.769 384.566 105.343 383.69 104.491C382.826 103.627 382.394 102.511 382.394 101.143C382.394 99.6067 382.622 98.4307 383.078 97.6147C383.534 96.7867 384.458 96.0367 385.85 95.3647C386.294 95.1607 386.642 95.0047 386.894 94.8967C387.314 94.7287 387.644 94.5847 387.884 94.4647C388.928 93.9847 389.456 93.3907 389.468 92.6827L390.404 93.2227C390.344 93.5227 390.248 93.7927 390.116 94.0327C389.96 94.2967 389.804 94.5067 389.648 94.6627C389.504 94.8187 389.276 94.9867 388.964 95.1667C388.76 95.2867 388.514 95.4187 388.226 95.5627L387.326 95.9407L386.48 96.3007C385.652 96.6607 385.034 97.0387 384.626 97.4347C384.23 97.8187 383.948 98.3227 383.78 98.9467C384.164 98.4307 384.668 98.0407 385.292 97.7767C385.916 97.5007 386.546 97.3627 387.182 97.3627C388.382 97.3627 389.372 97.7587 390.152 98.5507C390.944 99.3307 391.34 100.333 391.34 101.557C391.34 102.769 390.92 103.777 390.08 104.581C389.252 105.373 388.202 105.769 386.93 105.769ZM384.59 103.699C385.214 104.287 385.994 104.581 386.93 104.581C387.866 104.581 388.634 104.299 389.234 103.735C389.846 103.159 390.152 102.433 390.152 101.557C390.152 100.669 389.864 99.9427 389.288 99.3787C388.724 98.8027 387.968 98.5147 387.02 98.5147C386.168 98.5147 385.394 98.7847 384.698 99.3247C384.002 99.8407 383.654 100.549 383.654 101.449C383.654 102.361 383.966 103.111 384.59 103.699ZM394.695 103.483L400.059 96.5527H401.067V105.553H399.879V98.6227L394.515 105.553H393.507V96.5527H394.695V103.483ZM410.311 100.477V96.5527H411.499V105.553H410.311V101.629H405.127V105.553H403.939V96.5527H405.127V100.477H410.311ZM418.529 96.3367C419.873 96.3367 420.947 96.8107 421.751 97.7587C422.579 98.6947 422.993 99.8047 422.993 101.089C422.993 101.149 422.981 101.335 422.957 101.647H415.055C415.175 102.547 415.559 103.267 416.207 103.807C416.855 104.347 417.665 104.617 418.637 104.617C420.005 104.617 420.971 104.107 421.535 103.087L422.579 103.699C422.183 104.347 421.637 104.857 420.941 105.229C420.257 105.589 419.483 105.769 418.619 105.769C417.203 105.769 416.051 105.325 415.163 104.437C414.275 103.549 413.831 102.421 413.831 101.053C413.831 99.6967 414.269 98.5747 415.145 97.6867C416.021 96.7867 417.149 96.3367 418.529 96.3367ZM418.529 97.4887C417.593 97.4887 416.807 97.7647 416.171 98.3167C415.547 98.8687 415.175 99.5947 415.055 100.495H421.769C421.637 99.5347 421.271 98.7967 420.671 98.2807C420.047 97.7527 419.333 97.4887 418.529 97.4887ZM423.812 96.5527H431.372V97.7047H428.186V105.553H426.998V97.7047H423.812V96.5527ZM436.986 96.3367C438.33 96.3367 439.404 96.8107 440.208 97.7587C441.036 98.6947 441.45 99.8047 441.45 101.089C441.45 101.149 441.438 101.335 441.414 101.647H433.512C433.632 102.547 434.016 103.267 434.664 103.807C435.312 104.347 436.122 104.617 437.094 104.617C438.462 104.617 439.428 104.107 439.992 103.087L441.036 103.699C440.64 104.347 440.094 104.857 439.398 105.229C438.714 105.589 437.94 105.769 437.076 105.769C435.66 105.769 434.508 105.325 433.62 104.437C432.732 103.549 432.288 102.421 432.288 101.053C432.288 99.6967 432.726 98.5747 433.602 97.6867C434.478 96.7867 435.606 96.3367 436.986 96.3367ZM436.986 97.4887C436.05 97.4887 435.264 97.7647 434.628 98.3167C434.004 98.8687 433.632 99.5947 433.512 100.495H440.226C440.094 99.5347 439.728 98.7967 439.128 98.2807C438.504 97.7527 437.79 97.4887 436.986 97.4887Z" fill="#F3F3F3"/>
<path d="M386.6 309.64C374.64 326.627 357.74 335.12 335.9 335.12C314.233 335.12 297.247 326.627 284.94 309.64C272.98 292.48 267 269.6 267 241C267 212.227 272.98 189.433 284.94 172.62C297.247 155.46 314.233 146.88 335.9 146.88C357.74 146.88 374.64 155.46 386.6 172.62C398.733 189.433 404.8 212.227 404.8 241C404.8 269.773 398.733 292.653 386.6 309.64ZM298.46 297.42C307.647 310.767 320.127 317.44 335.9 317.44C351.847 317.44 364.24 310.767 373.08 297.42C382.093 284.247 386.6 265.44 386.6 241C386.6 216.56 382.093 197.753 373.08 184.58C364.24 171.233 351.847 164.56 335.9 164.56C320.127 164.56 307.647 171.233 298.46 184.58C289.62 197.927 285.2 216.733 285.2 241C285.2 265.267 289.62 284.073 298.46 297.42ZM546.53 332H430.83V315.62L496.35 249.58C515.07 230.86 524.43 214.827 524.43 201.48C524.43 190.213 520.877 181.287 513.77 174.7C506.837 167.94 498.17 164.56 487.77 164.56C469.224 164.56 455.617 173.14 446.95 190.3L431.61 181.2C437.157 170.107 444.87 161.613 454.75 155.72C464.63 149.827 475.637 146.88 487.77 146.88C502.33 146.88 515.07 151.82 525.99 161.7C537.084 171.233 542.63 184.493 542.63 201.48C542.63 211.533 539.857 221.413 534.31 231.12C528.764 240.653 520.27 251.14 508.83 262.58L456.83 314.32H546.53V332Z" fill="white"/>
</g>
<defs>
<clipPath id="clip0_3192_1205">
<rect width="513" height="326" rx="40" fill="white"/>
</clipPath>
</defs>
</svg>
