<svg width="513" height="334" viewBox="0 0 513 334" fill="none" xmlns="http://www.w3.org/2000/svg">
<rect x="0.5" y="0.5" width="512" height="324" rx="39.5" fill="#0048B4" stroke="#0048B4"/>
<path d="M57.784 62.206C59.1013 62.7633 60.14 63.612 60.9 64.752C61.66 65.892 62.04 67.1713 62.04 68.59C62.04 70.642 61.318 72.39 59.874 73.834C58.43 75.278 56.682 76 54.63 76H43.04V49.4H53.756C55.7067 49.4 57.3913 50.1093 58.81 51.528C60.2033 52.9213 60.9 54.5933 60.9 56.544C60.9 59.0267 59.8613 60.914 57.784 62.206ZM53.756 51.908H45.7V61.18H53.756C54.972 61.18 56.0233 60.7367 56.91 59.85C57.7967 58.9127 58.24 57.8107 58.24 56.544C58.24 55.3027 57.7967 54.2133 56.91 53.276C56.0233 52.364 54.972 51.908 53.756 51.908ZM45.7 73.492H54.63C55.9473 73.492 57.062 73.0233 57.974 72.086C58.9113 71.1487 59.38 69.9833 59.38 68.59C59.38 67.222 58.9113 66.0693 57.974 65.132C57.062 64.1693 55.9473 63.688 54.63 63.688H45.7V73.492ZM84.4645 61.066V49.4H87.1245V76H84.4645V63.574H70.0245V76H67.3645V49.4H70.0245V61.066H84.4645ZM96.6126 63.84V73.492H109.533V76H93.9526V49.4H109.343V51.908H96.6126V61.332H108.393V63.84H96.6126ZM127.103 76.456C123.05 76.456 119.719 75.126 117.109 72.466C114.475 69.7807 113.157 66.5253 113.157 62.7C113.157 58.8747 114.475 55.6193 117.109 52.934C119.719 50.274 123.05 48.944 127.103 48.944C129.535 48.944 131.777 49.5393 133.829 50.73C135.881 51.8953 137.477 53.4787 138.617 55.48L136.261 56.848C135.425 55.2267 134.184 53.9347 132.537 52.972C130.891 52.0093 129.079 51.528 127.103 51.528C123.759 51.528 121.049 52.6047 118.971 54.758C116.869 56.9367 115.817 59.584 115.817 62.7C115.817 65.816 116.869 68.4633 118.971 70.642C121.049 72.7953 123.759 73.872 127.103 73.872C129.079 73.872 130.891 73.3907 132.537 72.428C134.184 71.4653 135.425 70.1733 136.261 68.552L138.617 69.882C137.528 71.8833 135.945 73.4793 133.867 74.67C131.79 75.8607 129.535 76.456 127.103 76.456ZM163.512 76H160.852V54.34L146.032 76H143.752V49.4H146.412V71.06L161.232 49.4H163.512V76ZM168.06 49.4H187.06V51.908H178.89V76H176.23V51.908H168.06V49.4ZM194.281 63.84V73.492H207.201V76H191.621V49.4H207.011V51.908H194.281V61.332H206.061V63.84H194.281ZM235.218 76.456C231.165 76.456 227.833 75.126 225.224 72.466C222.589 69.7807 221.272 66.5253 221.272 62.7C221.272 58.8747 222.589 55.6193 225.224 52.934C227.833 50.274 231.165 48.944 235.218 48.944C237.65 48.944 239.892 49.5393 241.944 50.73C243.996 51.8953 245.592 53.4787 246.732 55.48L244.376 56.848C243.54 55.2267 242.299 53.9347 240.652 52.972C239.005 52.0093 237.194 51.528 235.218 51.528C231.874 51.528 229.163 52.6047 227.086 54.758C224.983 56.9367 223.932 59.584 223.932 62.7C223.932 65.816 224.983 68.4633 227.086 70.642C229.163 72.7953 231.874 73.872 235.218 73.872C237.194 73.872 239.005 73.3907 240.652 72.428C242.299 71.4653 243.54 70.1733 244.376 68.552L246.732 69.882C245.643 71.8833 244.059 73.4793 241.982 74.67C239.905 75.8607 237.65 76.456 235.218 76.456ZM259.636 65.74L266.628 49.4H269.364L260.51 70.186C259.623 72.314 258.496 73.8467 257.128 74.784C255.76 75.7213 254.063 76.1267 252.036 76V73.568C253.455 73.72 254.62 73.5173 255.532 72.96C256.469 72.3773 257.242 71.3767 257.85 69.958L258.382 68.704L249.224 49.4H251.96L259.636 65.74ZM294.57 49.4H297.876V76H295.216V53.428L285.906 69.008H285.526L276.216 53.428V76H273.556V49.4H276.862L285.716 64.22L294.57 49.4ZM325.723 49.4H329.029V76H326.369V53.428L317.059 69.008H316.679L307.369 53.428V76H304.709V49.4H308.015L316.869 64.22L325.723 49.4ZM344.373 65.74L351.365 49.4H354.101L345.247 70.186C344.361 72.314 343.233 73.8467 341.865 74.784C340.497 75.7213 338.8 76.1267 336.773 76V73.568C338.192 73.72 339.357 73.5173 340.269 72.96C341.207 72.3773 341.979 71.3767 342.587 69.958L343.119 68.704L333.961 49.4H336.697L344.373 65.74Z" fill="#F3F3F3"/>
<path d="M53.926 116.6H55.84V132H54.3V118.932L48.91 127.952H48.69L43.3 118.932V132H41.76V116.6H43.674L48.8 125.18L53.926 116.6ZM68.7937 130.614C67.6644 131.714 66.3004 132.264 64.7017 132.264C63.0737 132.264 61.7024 131.714 60.5877 130.614C59.473 129.499 58.9157 128.128 58.9157 126.5C58.9157 124.872 59.473 123.508 60.5877 122.408C61.7024 121.293 63.0737 120.736 64.7017 120.736C66.315 120.736 67.679 121.293 68.7937 122.408C69.923 123.508 70.4877 124.872 70.4877 126.5C70.4877 128.113 69.923 129.485 68.7937 130.614ZM61.6217 129.602C62.4577 130.438 63.4844 130.856 64.7017 130.856C65.919 130.856 66.9457 130.438 67.7817 129.602C68.6177 128.737 69.0357 127.703 69.0357 126.5C69.0357 125.283 68.6177 124.256 67.7817 123.42C66.9457 122.569 65.919 122.144 64.7017 122.144C63.4844 122.144 62.4577 122.569 61.6217 123.42C60.7857 124.256 60.3677 125.283 60.3677 126.5C60.3677 127.703 60.7857 128.737 61.6217 129.602ZM80.3966 126.28L85.3246 132H83.5646L79.0766 126.698V132H77.6246V126.698L73.1366 132H71.3766L76.3046 126.28L71.5966 121H73.3566L77.6246 125.884V121H79.0766V125.884L83.3446 121H85.1046L80.3966 126.28ZM91.942 120.736C93.5847 120.736 94.8973 121.315 95.88 122.474C96.892 123.618 97.398 124.975 97.398 126.544C97.398 126.617 97.3833 126.845 97.354 127.226H87.696C87.8427 128.326 88.312 129.206 89.104 129.866C89.896 130.526 90.886 130.856 92.074 130.856C93.746 130.856 94.9267 130.233 95.616 128.986L96.892 129.734C96.408 130.526 95.7407 131.149 94.89 131.604C94.054 132.044 93.108 132.264 92.052 132.264C90.3213 132.264 88.9133 131.721 87.828 130.636C86.7427 129.551 86.2 128.172 86.2 126.5C86.2 124.843 86.7353 123.471 87.806 122.386C88.8767 121.286 90.2553 120.736 91.942 120.736ZM91.942 122.144C90.798 122.144 89.8373 122.481 89.06 123.156C88.2973 123.831 87.8427 124.718 87.696 125.818H95.902C95.7407 124.645 95.2933 123.743 94.56 123.112C93.7973 122.467 92.9247 122.144 91.942 122.144ZM98.398 121H107.638V122.408H103.744V132H102.292V122.408H98.398V121ZM114.5 120.736C116.142 120.736 117.455 121.315 118.438 122.474C119.45 123.618 119.956 124.975 119.956 126.544C119.956 126.617 119.941 126.845 119.912 127.226H110.254C110.4 128.326 110.87 129.206 111.662 129.866C112.454 130.526 113.444 130.856 114.632 130.856C116.304 130.856 117.484 130.233 118.174 128.986L119.45 129.734C118.966 130.526 118.298 131.149 117.448 131.604C116.612 132.044 115.666 132.264 114.61 132.264C112.879 132.264 111.471 131.721 110.386 130.636C109.3 129.551 108.758 128.172 108.758 126.5C108.758 124.843 109.293 123.471 110.364 122.386C111.434 121.286 112.813 120.736 114.5 120.736ZM114.5 122.144C113.356 122.144 112.395 122.481 111.618 123.156C110.855 123.831 110.4 124.718 110.254 125.818H118.46C118.298 124.645 117.851 123.743 117.118 123.112C116.355 122.467 115.482 122.144 114.5 122.144ZM133.771 132.264C132.114 132.264 130.735 131.714 129.635 130.614C128.535 129.485 127.985 128.113 127.985 126.5C127.985 124.872 128.535 123.508 129.635 122.408C130.735 121.293 132.114 120.736 133.771 120.736C134.857 120.736 135.832 121 136.697 121.528C137.563 122.041 138.193 122.738 138.589 123.618L137.401 124.3C137.108 123.64 136.631 123.119 135.971 122.738C135.326 122.342 134.593 122.144 133.771 122.144C132.554 122.144 131.527 122.569 130.691 123.42C129.855 124.256 129.437 125.283 129.437 126.5C129.437 127.703 129.855 128.737 130.691 129.602C131.527 130.438 132.554 130.856 133.771 130.856C134.578 130.856 135.304 130.665 135.949 130.284C136.609 129.903 137.123 129.375 137.489 128.7L138.699 129.404C138.245 130.284 137.577 130.981 136.697 131.494C135.817 132.007 134.842 132.264 133.771 132.264ZM150.249 121V130.592H151.789V134.948H150.337V132H141.361V134.948H139.909V130.592H141.251C141.999 129.595 142.373 128.209 142.373 126.434V121H150.249ZM143.011 130.592H148.797V122.408H143.825V126.434C143.825 128.135 143.554 129.521 143.011 130.592ZM159.078 120.736C160.721 120.736 162.033 121.315 163.016 122.474C164.028 123.618 164.534 124.975 164.534 126.544C164.534 126.617 164.519 126.845 164.49 127.226H154.832C154.979 128.326 155.448 129.206 156.24 129.866C157.032 130.526 158.022 130.856 159.21 130.856C160.882 130.856 162.063 130.233 162.752 128.986L164.028 129.734C163.544 130.526 162.877 131.149 162.026 131.604C161.19 132.044 160.244 132.264 159.188 132.264C157.457 132.264 156.049 131.721 154.964 130.636C153.879 129.551 153.336 128.172 153.336 126.5C153.336 124.843 153.871 123.471 154.942 122.386C156.013 121.286 157.391 120.736 159.078 120.736ZM159.078 122.144C157.934 122.144 156.973 122.481 156.196 123.156C155.433 123.831 154.979 124.718 154.832 125.818H163.038C162.877 124.645 162.429 123.743 161.696 123.112C160.933 122.467 160.061 122.144 159.078 122.144ZM167.998 121H175.874V132H174.422V122.408H169.45V127.314C169.45 129.147 169.098 130.409 168.394 131.098C167.705 131.787 166.751 132.088 165.534 132V130.636C166.385 130.724 167.008 130.519 167.404 130.02C167.8 129.521 167.998 128.619 167.998 127.314V121ZM188.85 123.156V121H190.302V132H188.85V129.844C187.838 131.457 186.356 132.264 184.406 132.264C182.836 132.264 181.494 131.707 180.38 130.592C179.28 129.477 178.73 128.113 178.73 126.5C178.73 124.887 179.28 123.523 180.38 122.408C181.494 121.293 182.836 120.736 184.406 120.736C186.356 120.736 187.838 121.543 188.85 123.156ZM181.436 129.602C182.272 130.438 183.298 130.856 184.516 130.856C185.733 130.856 186.76 130.438 187.596 129.602C188.432 128.737 188.85 127.703 188.85 126.5C188.85 125.283 188.432 124.256 187.596 123.42C186.76 122.569 185.733 122.144 184.516 122.144C183.298 122.144 182.272 122.569 181.436 123.42C180.6 124.256 180.182 125.283 180.182 126.5C180.182 127.703 180.6 128.737 181.436 129.602ZM192.496 121H201.736V122.408H197.842V132H196.39V122.408H192.496V121ZM205.398 125.18H208.412C209.424 125.18 210.289 125.503 211.008 126.148C211.726 126.779 212.086 127.593 212.086 128.59C212.086 129.602 211.726 130.423 211.008 131.054C210.318 131.685 209.453 132 208.412 132H203.946V121H205.398V125.18ZM205.398 130.592H208.412C209.042 130.592 209.57 130.409 209.996 130.042C210.421 129.661 210.634 129.177 210.634 128.59C210.634 128.003 210.421 127.527 209.996 127.16C209.57 126.779 209.042 126.588 208.412 126.588H205.398V130.592ZM224.576 120.736C226.233 120.736 227.568 121.286 228.58 122.386C229.592 123.471 230.098 124.843 230.098 126.5C230.098 128.172 229.584 129.551 228.558 130.636C227.546 131.721 226.204 132.264 224.532 132.264C223.358 132.264 222.332 132.007 221.452 131.494C220.586 130.966 219.956 130.255 219.56 129.36L220.814 128.634C221.078 129.323 221.532 129.866 222.178 130.262C222.823 130.658 223.608 130.856 224.532 130.856C225.617 130.856 226.526 130.519 227.26 129.844C228.008 129.169 228.455 128.289 228.602 127.204H223.124V125.796H228.602C228.47 124.711 228.037 123.831 227.304 123.156C226.57 122.481 225.661 122.144 224.576 122.144C223.74 122.144 222.999 122.342 222.354 122.738C221.708 123.134 221.232 123.669 220.924 124.344L219.648 123.618C220.088 122.723 220.74 122.019 221.606 121.506C222.486 120.993 223.476 120.736 224.576 120.736ZM231.209 121H240.449V122.408H236.555V132H235.103V122.408H231.209V121ZM251.447 130.614C250.318 131.714 248.954 132.264 247.355 132.264C245.727 132.264 244.356 131.714 243.241 130.614C242.126 129.499 241.569 128.128 241.569 126.5C241.569 124.872 242.126 123.508 243.241 122.408C244.356 121.293 245.727 120.736 247.355 120.736C248.968 120.736 250.332 121.293 251.447 122.408C252.576 123.508 253.141 124.872 253.141 126.5C253.141 128.113 252.576 129.485 251.447 130.614ZM244.275 129.602C245.111 130.438 246.138 130.856 247.355 130.856C248.572 130.856 249.599 130.438 250.435 129.602C251.271 128.737 251.689 127.703 251.689 126.5C251.689 125.283 251.271 124.256 250.435 123.42C249.599 122.569 248.572 122.144 247.355 122.144C246.138 122.144 245.111 122.569 244.275 123.42C243.439 124.256 243.021 125.283 243.021 126.5C243.021 127.703 243.439 128.737 244.275 129.602ZM271.169 130.614C270.039 131.714 268.675 132.264 267.077 132.264C265.449 132.264 264.077 131.714 262.963 130.614C261.848 129.499 261.291 128.128 261.291 126.5C261.291 124.872 261.848 123.508 262.963 122.408C264.077 121.293 265.449 120.736 267.077 120.736C268.69 120.736 270.054 121.293 271.169 122.408C272.298 123.508 272.863 124.872 272.863 126.5C272.863 128.113 272.298 129.485 271.169 130.614ZM263.997 129.602C264.833 130.438 265.859 130.856 267.077 130.856C268.294 130.856 269.321 130.438 270.157 129.602C270.993 128.737 271.411 127.703 271.411 126.5C271.411 125.283 270.993 124.256 270.157 123.42C269.321 122.569 268.294 122.144 267.077 122.144C265.859 122.144 264.833 122.569 263.997 123.42C263.161 124.256 262.743 125.283 262.743 126.5C262.743 127.703 263.161 128.737 263.997 129.602ZM283.521 125.796V121H284.973V132H283.521V127.204H277.185V132H275.733V121H277.185V125.796H283.521ZM289.627 121H297.503V132H296.051V122.408H291.079V127.314C291.079 129.147 290.727 130.409 290.023 131.098C289.334 131.787 288.38 132.088 287.163 132V130.636C288.014 130.724 288.637 130.519 289.033 130.02C289.429 129.521 289.627 128.619 289.627 127.314V121ZM310.479 123.156V121H311.931V132H310.479V129.844C309.467 131.457 307.985 132.264 306.035 132.264C304.465 132.264 303.123 131.707 302.009 130.592C300.909 129.477 300.359 128.113 300.359 126.5C300.359 124.887 300.909 123.523 302.009 122.408C303.123 121.293 304.465 120.736 306.035 120.736C307.985 120.736 309.467 121.543 310.479 123.156ZM303.065 129.602C303.901 130.438 304.927 130.856 306.145 130.856C307.362 130.856 308.389 130.438 309.225 129.602C310.061 128.737 310.479 127.703 310.479 126.5C310.479 125.283 310.061 124.256 309.225 123.42C308.389 122.569 307.362 122.144 306.145 122.144C304.927 122.144 303.901 122.569 303.065 123.42C302.229 124.256 301.811 125.283 301.811 126.5C301.811 127.703 302.229 128.737 303.065 129.602ZM322.925 119.24H317.205V117.964H322.925V119.24ZM316.897 129.47L323.453 121H324.685V132H323.233V123.53L316.677 132H315.445V121H316.897V129.47ZM335.984 125.796V121H337.436V132H335.984V127.204H329.648V132H328.196V121H329.648V125.796H335.984ZM353.882 126.346C355.085 126.786 355.686 127.644 355.686 128.92C355.686 129.829 355.378 130.57 354.762 131.142C354.161 131.714 353.318 132 352.232 132H346.886V121H351.792C352.848 121 353.67 121.271 354.256 121.814C354.858 122.357 355.158 123.068 355.158 123.948C355.158 125.048 354.733 125.847 353.882 126.346ZM351.792 122.408H348.338V125.752H351.792C353.068 125.752 353.706 125.18 353.706 124.036C353.706 123.523 353.538 123.127 353.2 122.848C352.878 122.555 352.408 122.408 351.792 122.408ZM348.338 130.592H352.232C352.878 130.592 353.369 130.438 353.706 130.13C354.058 129.822 354.234 129.389 354.234 128.832C354.234 128.304 354.058 127.893 353.706 127.6C353.369 127.307 352.878 127.16 352.232 127.16H348.338V130.592ZM42.684 151H50.56V162H49.108V152.408H44.136V157.314C44.136 159.147 43.784 160.409 43.08 161.098C42.3907 161.787 41.4373 162.088 40.22 162V160.636C41.0707 160.724 41.694 160.519 42.09 160.02C42.486 159.521 42.684 158.619 42.684 157.314V151ZM55.5277 159.47L62.0837 151H63.3157V162H61.8637V153.53L55.3077 162H54.0757V151H55.5277V159.47ZM73.9542 156.478V151H75.4062V162H73.9542V157.82C73.1036 158.26 72.0549 158.48 70.8082 158.48C69.3562 158.48 68.2562 158.15 67.5082 157.49C66.7602 156.815 66.3862 155.825 66.3862 154.52V151H67.8382V154.52C67.8382 155.429 68.0729 156.089 68.5422 156.5C69.0262 156.911 69.7669 157.116 70.7642 157.116C71.8789 157.116 72.9422 156.903 73.9542 156.478ZM86.7203 155.796V151H88.1723V162H86.7203V157.204H80.3843V162H78.9323V151H80.3843V155.796H86.7203ZM100.901 160.614C99.7715 161.714 98.4075 162.264 96.8088 162.264C95.1808 162.264 93.8095 161.714 92.6948 160.614C91.5801 159.499 91.0228 158.128 91.0228 156.5C91.0228 154.872 91.5801 153.508 92.6948 152.408C93.8095 151.293 95.1808 150.736 96.8088 150.736C98.4221 150.736 99.7861 151.293 100.901 152.408C102.03 153.508 102.595 154.872 102.595 156.5C102.595 158.113 102.03 159.485 100.901 160.614ZM93.7288 159.602C94.5648 160.438 95.5915 160.856 96.8088 160.856C98.0261 160.856 99.0528 160.438 99.8888 159.602C100.725 158.737 101.143 157.703 101.143 156.5C101.143 155.283 100.725 154.256 99.8888 153.42C99.0528 152.569 98.0261 152.144 96.8088 152.144C95.5915 152.144 94.5648 152.569 93.7288 153.42C92.8928 154.256 92.4748 155.283 92.4748 156.5C92.4748 157.703 92.8928 158.737 93.7288 159.602ZM114.573 151H116.245V162H114.793V153.222L110.943 159.47H110.767L106.917 153.222V162H105.465V151H107.137L110.855 157.028L114.573 151ZM128.694 156.28L134.59 162H132.654L127.154 156.698V162H125.702V151H127.154V155.862L132.39 151H134.37L128.694 156.28ZM145.377 153.156V151H146.829V162H145.377V159.844C144.365 161.457 142.884 162.264 140.933 162.264C139.364 162.264 138.022 161.707 136.907 160.592C135.807 159.477 135.257 158.113 135.257 156.5C135.257 154.887 135.807 153.523 136.907 152.408C138.022 151.293 139.364 150.736 140.933 150.736C142.884 150.736 144.365 151.543 145.377 153.156ZM137.963 159.602C138.799 160.438 139.826 160.856 141.043 160.856C142.261 160.856 143.287 160.438 144.123 159.602C144.959 158.737 145.377 157.703 145.377 156.5C145.377 155.283 144.959 154.256 144.123 153.42C143.287 152.569 142.261 152.144 141.043 152.144C139.826 152.144 138.799 152.569 137.963 153.42C137.127 154.256 136.709 155.283 136.709 156.5C136.709 157.703 137.127 158.737 137.963 159.602ZM155.228 162.264C153.658 162.264 152.338 161.743 151.268 160.702C150.212 159.646 149.684 158.282 149.684 156.61C149.684 154.733 149.962 153.295 150.52 152.298C151.077 151.286 152.206 150.369 153.908 149.548C154.45 149.299 154.876 149.108 155.184 148.976C155.697 148.771 156.1 148.595 156.394 148.448C157.67 147.861 158.315 147.135 158.33 146.27L159.474 146.93C159.4 147.297 159.283 147.627 159.122 147.92C158.931 148.243 158.74 148.499 158.55 148.69C158.374 148.881 158.095 149.086 157.714 149.306C157.464 149.453 157.164 149.614 156.812 149.79L155.712 150.252L154.678 150.692C153.666 151.132 152.91 151.594 152.412 152.078C151.928 152.547 151.583 153.163 151.378 153.926C151.847 153.295 152.463 152.819 153.226 152.496C153.988 152.159 154.758 151.99 155.536 151.99C157.002 151.99 158.212 152.474 159.166 153.442C160.134 154.395 160.618 155.62 160.618 157.116C160.618 158.597 160.104 159.829 159.078 160.812C158.066 161.78 156.782 162.264 155.228 162.264ZM152.368 159.734C153.13 160.453 154.084 160.812 155.228 160.812C156.372 160.812 157.31 160.467 158.044 159.778C158.792 159.074 159.166 158.187 159.166 157.116C159.166 156.031 158.814 155.143 158.11 154.454C157.42 153.75 156.496 153.398 155.338 153.398C154.296 153.398 153.35 153.728 152.5 154.388C151.649 155.019 151.224 155.884 151.224 156.984C151.224 158.099 151.605 159.015 152.368 159.734ZM164.718 159.47L171.274 151H172.506V162H171.054V153.53L164.498 162H163.266V151H164.718V159.47ZM183.805 155.796V151H185.257V162H183.805V157.204H177.469V162H176.017V151H177.469V155.796H183.805ZM193.849 150.736C195.492 150.736 196.805 151.315 197.787 152.474C198.799 153.618 199.305 154.975 199.305 156.544C199.305 156.617 199.291 156.845 199.261 157.226H189.603C189.75 158.326 190.219 159.206 191.011 159.866C191.803 160.526 192.793 160.856 193.981 160.856C195.653 160.856 196.834 160.233 197.523 158.986L198.799 159.734C198.315 160.526 197.648 161.149 196.797 161.604C195.961 162.044 195.015 162.264 193.959 162.264C192.229 162.264 190.821 161.721 189.735 160.636C188.65 159.551 188.107 158.172 188.107 156.5C188.107 154.843 188.643 153.471 189.713 152.386C190.784 151.286 192.163 150.736 193.849 150.736ZM193.849 152.144C192.705 152.144 191.745 152.481 190.967 153.156C190.205 153.831 189.75 154.718 189.603 155.818H197.809C197.648 154.645 197.201 153.743 196.467 153.112C195.705 152.467 194.832 152.144 193.849 152.144ZM200.305 151H209.545V152.408H205.651V162H204.199V152.408H200.305V151ZM216.407 150.736C218.05 150.736 219.362 151.315 220.345 152.474C221.357 153.618 221.863 154.975 221.863 156.544C221.863 156.617 221.848 156.845 221.819 157.226H212.161C212.308 158.326 212.777 159.206 213.569 159.866C214.361 160.526 215.351 160.856 216.539 160.856C218.211 160.856 219.392 160.233 220.081 158.986L221.357 159.734C220.873 160.526 220.206 161.149 219.355 161.604C218.519 162.044 217.573 162.264 216.517 162.264C214.786 162.264 213.378 161.721 212.293 160.636C211.208 159.551 210.665 158.172 210.665 156.5C210.665 154.843 211.2 153.471 212.271 152.386C213.342 151.286 214.72 150.736 216.407 150.736ZM216.407 152.144C215.263 152.144 214.302 152.481 213.525 153.156C212.762 153.831 212.308 154.718 212.161 155.818H220.367C220.206 154.645 219.758 153.743 219.025 153.112C218.262 152.467 217.39 152.144 216.407 152.144ZM225.932 161.01C225.932 161.347 225.814 161.633 225.58 161.868C225.345 162.103 225.059 162.22 224.722 162.22C224.384 162.22 224.098 162.103 223.864 161.868C223.629 161.633 223.512 161.347 223.512 161.01C223.512 160.673 223.629 160.387 223.864 160.152C224.098 159.917 224.384 159.8 224.722 159.8C225.059 159.8 225.345 159.917 225.58 160.152C225.814 160.387 225.932 160.673 225.932 161.01Z" fill="#F3F3F3"/>
<path d="M331.2 312.08C321.08 326.453 306.78 333.64 288.3 333.64C269.967 333.64 255.593 326.453 245.18 312.08C235.06 297.56 230 278.2 230 254C230 229.653 235.06 210.367 245.18 196.14C255.593 181.62 269.967 174.36 288.3 174.36C306.78 174.36 321.08 181.62 331.2 196.14C341.467 210.367 346.6 229.653 346.6 254C346.6 278.347 341.467 297.707 331.2 312.08ZM256.62 301.74C264.393 313.033 274.953 318.68 288.3 318.68C301.793 318.68 312.28 313.033 319.76 301.74C327.387 290.593 331.2 274.68 331.2 254C331.2 233.32 327.387 217.407 319.76 206.26C312.28 194.967 301.793 189.32 288.3 189.32C274.953 189.32 264.393 194.967 256.62 206.26C249.14 217.553 245.4 233.467 245.4 254C245.4 274.533 249.14 290.447 256.62 301.74ZM466.526 331H368.626V317.14L424.066 261.26C439.906 245.42 447.826 231.853 447.826 220.56C447.826 211.027 444.819 203.473 438.806 197.9C432.939 192.18 425.606 189.32 416.806 189.32C401.112 189.32 389.599 196.58 382.266 211.1L369.286 203.4C373.979 194.013 380.506 186.827 388.866 181.84C397.226 176.853 406.539 174.36 416.806 174.36C429.126 174.36 439.906 178.54 449.146 186.9C458.532 194.967 463.226 206.187 463.226 220.56C463.226 229.067 460.879 237.427 456.186 245.64C451.492 253.707 444.306 262.58 434.626 272.26L390.626 316.04H466.526V331Z" fill="white"/>
</svg>
