<svg width="351" height="588" viewBox="0 0 351 588" fill="none" xmlns="http://www.w3.org/2000/svg">
<g clip-path="url(#clip0_3080_1482)">
<rect x="0.5" y="0.5" width="350" height="587" rx="39.5" fill="#0048B4" stroke="#0048B4"/>
<path d="M21.76 25.6H32.76V41H31.22V27.052H23.3V41H21.76V25.6ZM49.4614 38.954C47.9214 40.494 46.0368 41.264 43.8074 41.264C41.5781 41.264 39.6934 40.494 38.1534 38.954C36.6134 37.3847 35.8434 35.5 35.8434 33.3C35.8434 31.0853 36.6134 29.208 38.1534 27.668C39.6934 26.1133 41.5781 25.336 43.8074 25.336C46.0368 25.336 47.9214 26.1133 49.4614 27.668C51.0014 29.208 51.7714 31.0853 51.7714 33.3C51.7714 35.5 51.0014 37.3847 49.4614 38.954ZM37.3834 33.3C37.3834 35.1187 37.9994 36.6513 39.2314 37.898C40.4634 39.1447 41.9888 39.768 43.8074 39.768C45.6261 39.768 47.1514 39.1447 48.3834 37.898C49.6154 36.6513 50.2314 35.1187 50.2314 33.3C50.2314 31.496 49.6154 29.9707 48.3834 28.724C47.1514 27.4627 45.6261 26.832 43.8074 26.832C41.9888 26.832 40.4634 27.4627 39.2314 28.724C37.9994 29.9707 37.3834 31.496 37.3834 33.3ZM52.5342 41V39.636C53.6049 39.7827 54.4042 39.4527 54.9322 38.646C55.4749 37.8393 55.7462 36.3433 55.7462 34.158V25.6H65.7342V41H64.1942V27.052H57.2862V34.202C57.2862 35.5953 57.1762 36.7613 56.9562 37.7C56.7362 38.6387 56.4062 39.35 55.9662 39.834C55.5409 40.318 55.0496 40.648 54.4922 40.824C53.9496 41 53.2969 41.0587 52.5342 41ZM74.6291 35.06L78.6771 25.6H80.2611L75.1351 37.634C74.6218 38.866 73.9691 39.7533 73.1771 40.296C72.3851 40.8387 71.4024 41.0733 70.2291 41V39.592C71.0504 39.68 71.7251 39.5627 72.2531 39.24C72.7958 38.9027 73.2431 38.3233 73.5951 37.502L73.9031 36.776L68.6011 25.6H70.1851L74.6291 35.06ZM91.378 33.058V25.6H92.918V41H91.378V34.51C90.0433 35.17 88.65 35.5 87.198 35.5C85.746 35.5 84.5726 35.0893 83.678 34.268C82.798 33.4467 82.358 32.3907 82.358 31.1V25.6H83.898V31.1C83.898 31.9947 84.1913 32.7133 84.778 33.256C85.3646 33.784 86.1713 34.048 87.198 34.048C88.65 34.048 90.0433 33.718 91.378 33.058ZM108.758 41H107.13L105.7 37.216H98.396L96.966 41H95.338L101.256 25.6H102.84L108.758 41ZM102.048 27.514L98.946 35.764H105.15L102.048 27.514ZM119.755 23.84H114.035V22.564H119.755V23.84ZM122.615 41H121.075V28.46L112.495 41H111.175V25.6H112.715V38.14L121.295 25.6H122.615V41ZM125.249 25.6H136.249V27.052H131.519V41H129.979V27.052H125.249V25.6ZM140.429 33.96V39.548H147.909V41H138.889V25.6H147.799V27.052H140.429V32.508H147.249V33.96H140.429ZM167.935 25.6V39.548H169.585V43.948H168.045V41H157.045V43.948H155.505V39.548H156.759C157.771 38.36 158.277 36.5267 158.277 34.048V25.6H167.935ZM158.585 39.548H166.395V27.052H159.817V34.092C159.817 36.512 159.407 38.3307 158.585 39.548ZM185.088 38.954C183.548 40.494 181.663 41.264 179.434 41.264C177.205 41.264 175.32 40.494 173.78 38.954C172.24 37.3847 171.47 35.5 171.47 33.3C171.47 31.0853 172.24 29.208 173.78 27.668C175.32 26.1133 177.205 25.336 179.434 25.336C181.663 25.336 183.548 26.1133 185.088 27.668C186.628 29.208 187.398 31.0853 187.398 33.3C187.398 35.5 186.628 37.3847 185.088 38.954ZM173.01 33.3C173.01 35.1187 173.626 36.6513 174.858 37.898C176.09 39.1447 177.615 39.768 179.434 39.768C181.253 39.768 182.778 39.1447 184.01 37.898C185.242 36.6513 185.858 35.1187 185.858 33.3C185.858 31.496 185.242 29.9707 184.01 28.724C182.778 27.4627 181.253 26.832 179.434 26.832C177.615 26.832 176.09 27.4627 174.858 28.724C173.626 29.9707 173.01 31.496 173.01 33.3ZM195.306 33.058L200.366 41H198.606L194.426 34.422L190.246 41H188.486L193.546 33.058L188.816 25.6H190.554L194.426 31.672L198.298 25.6H200.036L195.306 33.058ZM215.079 38.954C213.539 40.494 211.655 41.264 209.425 41.264C207.196 41.264 205.311 40.494 203.771 38.954C202.231 37.3847 201.461 35.5 201.461 33.3C201.461 31.0853 202.231 29.208 203.771 27.668C205.311 26.1133 207.196 25.336 209.425 25.336C211.655 25.336 213.539 26.1133 215.079 27.668C216.619 29.208 217.389 31.0853 217.389 33.3C217.389 35.5 216.619 37.3847 215.079 38.954ZM203.001 33.3C203.001 35.1187 203.617 36.6513 204.849 37.898C206.081 39.1447 207.607 39.768 209.425 39.768C211.244 39.768 212.769 39.1447 214.001 37.898C215.233 36.6513 215.849 35.1187 215.849 33.3C215.849 31.496 215.233 29.9707 214.001 28.724C212.769 27.4627 211.244 26.832 209.425 26.832C207.607 26.832 206.081 27.4627 204.849 28.724C203.617 29.9707 203.001 31.496 203.001 33.3ZM230.797 25.6V39.548H232.447V43.948H230.907V41H219.907V43.948H218.367V39.548H219.621C220.633 38.36 221.139 36.5267 221.139 34.048V25.6H230.797ZM221.447 39.548H229.257V27.052H222.679V34.092C222.679 36.512 222.268 38.3307 221.447 39.548ZM34.498 72.954C32.958 74.494 31.0733 75.264 28.844 75.264C26.6147 75.264 24.73 74.494 23.19 72.954C21.65 71.3847 20.88 69.5 20.88 67.3C20.88 65.0853 21.65 63.208 23.19 61.668C24.73 60.1133 26.6147 59.336 28.844 59.336C31.0733 59.336 32.958 60.1133 34.498 61.668C36.038 63.208 36.808 65.0853 36.808 67.3C36.808 69.5 36.038 71.3847 34.498 72.954ZM22.42 67.3C22.42 69.1187 23.036 70.6513 24.268 71.898C25.5 73.1447 27.0253 73.768 28.844 73.768C30.6627 73.768 32.188 73.1447 33.42 71.898C34.652 70.6513 35.268 69.1187 35.268 67.3C35.268 65.496 34.652 63.9707 33.42 62.724C32.188 61.4627 30.6627 60.832 28.844 60.832C27.0253 60.832 25.5 61.4627 24.268 62.724C23.036 63.9707 22.42 65.496 22.42 67.3ZM37.6808 59.6H48.6808V61.052H43.9508V75H42.4108V61.052H37.6808V59.6ZM65.6216 61.052L62.0356 66.002C63.253 66.1487 64.265 66.6253 65.0716 67.432C65.8783 68.1947 66.2816 69.2287 66.2816 70.534C66.2816 71.986 65.7756 73.1447 64.7636 74.01C63.781 74.846 62.5636 75.264 61.1116 75.264C59.953 75.264 58.9263 75 58.0316 74.472C57.137 73.9293 56.5136 73.174 56.1616 72.206L57.4376 71.458C57.687 72.206 58.127 72.778 58.7576 73.174C59.403 73.57 60.1876 73.768 61.1116 73.768C62.197 73.768 63.0696 73.482 63.7296 72.91C64.4043 72.3233 64.7416 71.5313 64.7416 70.534C64.7416 69.5367 64.4043 68.752 63.7296 68.18C63.0696 67.5933 62.197 67.3 61.1116 67.3V67.278L61.0896 67.3H60.6716L60.0116 66.288L63.8396 61.052H56.6016V59.6H65.6216V61.052ZM71.6276 65.936C70.6596 65.936 69.8603 65.6207 69.2296 64.99C68.5843 64.3447 68.2616 63.56 68.2616 62.636C68.2616 61.7267 68.5843 60.9493 69.2296 60.304C69.875 59.6587 70.6743 59.336 71.6276 59.336C72.581 59.336 73.3803 59.6587 74.0256 60.304C74.671 60.9493 74.9936 61.7267 74.9936 62.636C74.9936 63.5747 74.6783 64.3593 74.0476 64.99C73.417 65.6207 72.6103 65.936 71.6276 65.936ZM69.6696 62.636C69.6696 63.1933 69.853 63.6627 70.2196 64.044C70.5863 64.4253 71.0556 64.616 71.6276 64.616C72.1996 64.616 72.669 64.4253 73.0356 64.044C73.4023 63.6627 73.5856 63.1933 73.5856 62.636C73.5856 62.0787 73.4023 61.6093 73.0356 61.228C72.669 60.8467 72.1996 60.656 71.6276 60.656C71.0556 60.656 70.5863 60.8467 70.2196 61.228C69.853 61.6093 69.6696 62.0787 69.6696 62.636ZM69.9556 73.438L69.0316 72.91L79.3496 61.316L80.2956 61.844L69.9556 73.438ZM80.2516 74.318C79.621 74.9487 78.8216 75.264 77.8536 75.264C76.8856 75.264 76.0863 74.9487 75.4556 74.318C74.8103 73.6727 74.4876 72.888 74.4876 71.964C74.4876 71.0547 74.8103 70.2773 75.4556 69.632C76.101 68.9867 76.9003 68.664 77.8536 68.664C78.807 68.664 79.6063 68.9867 80.2516 69.632C80.897 70.2773 81.2196 71.0547 81.2196 71.964C81.2196 72.888 80.897 73.6727 80.2516 74.318ZM75.8956 71.964C75.8956 72.5213 76.079 72.9907 76.4456 73.372C76.8123 73.7533 77.2816 73.944 77.8536 73.944C78.4256 73.944 78.895 73.7533 79.2616 73.372C79.6283 72.9907 79.8116 72.5213 79.8116 71.964C79.8116 71.4067 79.6283 70.9373 79.2616 70.556C78.895 70.1747 78.4256 69.984 77.8536 69.984C77.2816 69.984 76.8123 70.1747 76.4456 70.556C76.079 70.9373 75.8956 71.4067 75.8956 71.964ZM92.2193 67.96V73.548H99.6993V75H90.6793V59.6H99.5893V61.052H92.2193V66.508H99.0393V67.96H92.2193ZM112.663 67.08L119.285 75H117.481L111.145 67.476V75H109.605V67.476L103.269 75H101.465L108.087 67.08L101.685 59.6H103.489L109.605 66.706V59.6H111.145V66.706L117.261 59.6H119.065L112.663 67.08ZM123.457 67.96V73.548H130.937V75H121.917V59.6H130.827V61.052H123.457V66.508H130.277V67.96H123.457ZM146.189 59.6H148.103V75H146.563V61.932L141.173 70.952H140.953L135.563 61.932V75H134.023V59.6H135.937L141.063 68.18L146.189 59.6ZM153.598 67.96V73.548H161.078V75H152.058V59.6H160.968V61.052H153.598V66.508H160.418V67.96H153.598ZM171.251 75.264C168.904 75.264 166.976 74.494 165.465 72.954C163.94 71.3993 163.177 69.5147 163.177 67.3C163.177 65.0853 163.94 63.2007 165.465 61.646C166.976 60.106 168.904 59.336 171.251 59.336C172.659 59.336 173.957 59.6807 175.145 60.37C176.333 61.0447 177.257 61.9613 177.917 63.12L176.553 63.912C176.069 62.9733 175.35 62.2253 174.397 61.668C173.444 61.1107 172.395 60.832 171.251 60.832C169.315 60.832 167.746 61.4553 166.543 62.702C165.326 63.9633 164.717 65.496 164.717 67.3C164.717 69.104 165.326 70.6367 166.543 71.898C167.746 73.1447 169.315 73.768 171.251 73.768C172.395 73.768 173.444 73.4893 174.397 72.932C175.35 72.3747 176.069 71.6267 176.553 70.688L177.917 71.458C177.286 72.6167 176.37 73.5407 175.167 74.23C173.964 74.9193 172.659 75.264 171.251 75.264ZM184.635 59.6H190.795V75H189.255V68.84H185.559L181.335 75H179.575L183.865 68.774C182.735 68.5687 181.819 68.048 181.115 67.212C180.381 66.3467 180.015 65.3493 180.015 64.22C180.015 62.944 180.462 61.8587 181.357 60.964C182.266 60.0547 183.359 59.6 184.635 59.6ZM184.635 67.388H189.255V61.052H184.635C183.784 61.052 183.058 61.36 182.457 61.976C181.855 62.6067 181.555 63.3547 181.555 64.22C181.555 65.0707 181.855 65.8187 182.457 66.464C183.058 67.08 183.784 67.388 184.635 67.388ZM203.447 67.058V59.6H204.987V75H203.447V68.51C202.113 69.17 200.719 69.5 199.267 69.5C197.815 69.5 196.642 69.0893 195.747 68.268C194.867 67.4467 194.427 66.3907 194.427 65.1V59.6H195.967V65.1C195.967 65.9947 196.261 66.7133 196.847 67.256C197.434 67.784 198.241 68.048 199.267 68.048C200.719 68.048 202.113 67.718 203.447 67.058ZM218.847 66.354V59.6H220.387V75H218.847V67.806H210.487V75H208.947V59.6H210.487V66.354H218.847ZM237.078 72.954C235.538 74.494 233.654 75.264 231.424 75.264C229.195 75.264 227.31 74.494 225.77 72.954C224.23 71.3847 223.46 69.5 223.46 67.3C223.46 65.0853 224.23 63.208 225.77 61.668C227.31 60.1133 229.195 59.336 231.424 59.336C233.654 59.336 235.538 60.1133 237.078 61.668C238.618 63.208 239.388 65.0853 239.388 67.3C239.388 69.5 238.618 71.3847 237.078 72.954ZM225 67.3C225 69.1187 225.616 70.6513 226.848 71.898C228.08 73.1447 229.606 73.768 231.424 73.768C233.243 73.768 234.768 73.1447 236 71.898C237.232 70.6513 237.848 69.1187 237.848 67.3C237.848 65.496 237.232 63.9707 236 62.724C234.768 61.4627 233.243 60.832 231.424 60.832C229.606 60.832 228.08 61.4627 226.848 62.724C225.616 63.9707 225 65.496 225 67.3Z" fill="#F3F3F3"/>
<path d="M22.1 113.52V117.076H26.86V118H21.12V108.2H26.79V109.124H22.1V112.596H26.44V113.52H22.1ZM33.7238 114.36L36.8598 118H35.7398L32.8838 114.626V118H31.9598V114.626L29.1038 118H27.9838L31.1198 114.36L28.1238 111H29.2438L31.9598 114.108V111H32.8838V114.108L35.5998 111H36.7198L33.7238 114.36ZM41.0709 110.832C42.1162 110.832 42.9515 111.201 43.5769 111.938C44.2209 112.666 44.5429 113.529 44.5429 114.528C44.5429 114.575 44.5335 114.719 44.5149 114.962H38.3689C38.4622 115.662 38.7609 116.222 39.2649 116.642C39.7689 117.062 40.3989 117.272 41.1549 117.272C42.2189 117.272 42.9702 116.875 43.4089 116.082L44.2209 116.558C43.9129 117.062 43.4882 117.459 42.9469 117.748C42.4149 118.028 41.8129 118.168 41.1409 118.168C40.0395 118.168 39.1435 117.823 38.4529 117.132C37.7622 116.441 37.4169 115.564 37.4169 114.5C37.4169 113.445 37.7575 112.573 38.4389 111.882C39.1202 111.182 39.9975 110.832 41.0709 110.832ZM41.0709 111.728C40.3429 111.728 39.7315 111.943 39.2369 112.372C38.7515 112.801 38.4622 113.366 38.3689 114.066H43.5909C43.4882 113.319 43.2035 112.745 42.7369 112.344C42.2515 111.933 41.6962 111.728 41.0709 111.728ZM52.0887 111H53.1527V118H52.2287V112.414L49.7787 116.39H49.6667L47.2167 112.414V118H46.2927V111H47.3567L49.7227 114.836L52.0887 111ZM58.625 110.832C59.6703 110.832 60.5057 111.201 61.131 111.938C61.775 112.666 62.097 113.529 62.097 114.528C62.097 114.575 62.0877 114.719 62.069 114.962H55.923C56.0163 115.662 56.315 116.222 56.819 116.642C57.323 117.062 57.953 117.272 58.709 117.272C59.773 117.272 60.5243 116.875 60.963 116.082L61.775 116.558C61.467 117.062 61.0423 117.459 60.501 117.748C59.969 118.028 59.367 118.168 58.695 118.168C57.5937 118.168 56.6977 117.823 56.007 117.132C55.3163 116.441 54.971 115.564 54.971 114.5C54.971 113.445 55.3117 112.573 55.993 111.882C56.6743 111.182 57.5517 110.832 58.625 110.832ZM58.625 111.728C57.897 111.728 57.2857 111.943 56.791 112.372C56.3057 112.801 56.0163 113.366 55.923 114.066H61.145C61.0423 113.319 60.7577 112.745 60.291 112.344C59.8057 111.933 59.2503 111.728 58.625 111.728ZM67.1088 118.168C66.0541 118.168 65.1768 117.818 64.4768 117.118C63.7768 116.399 63.4268 115.527 63.4268 114.5C63.4268 113.464 63.7768 112.596 64.4768 111.896C65.1768 111.187 66.0541 110.832 67.1088 110.832C67.7995 110.832 68.4201 111 68.9708 111.336C69.5215 111.663 69.9228 112.106 70.1748 112.666L69.4188 113.1C69.2321 112.68 68.9288 112.349 68.5088 112.106C68.0981 111.854 67.6315 111.728 67.1088 111.728C66.3341 111.728 65.6808 111.999 65.1488 112.54C64.6168 113.072 64.3508 113.725 64.3508 114.5C64.3508 115.265 64.6168 115.923 65.1488 116.474C65.6808 117.006 66.3341 117.272 67.1088 117.272C67.6221 117.272 68.0841 117.151 68.4948 116.908C68.9148 116.665 69.2415 116.329 69.4748 115.9L70.2448 116.348C69.9555 116.908 69.5308 117.351 68.9708 117.678C68.4108 118.005 67.7901 118.168 67.1088 118.168ZM73.9127 111H76.7547V118H75.8307V115.312H74.6267L72.4707 118H71.2947L73.5067 115.284C72.9374 115.2 72.4707 114.967 72.1067 114.584C71.752 114.192 71.5747 113.721 71.5747 113.17C71.5747 112.545 71.7987 112.027 72.2467 111.616C72.7134 111.205 73.2687 111 73.9127 111ZM73.9127 114.444H75.8307V111.896H73.9127C73.5114 111.896 73.1754 112.017 72.9047 112.26C72.634 112.493 72.4987 112.797 72.4987 113.17C72.4987 113.543 72.634 113.851 72.9047 114.094C73.1754 114.327 73.5114 114.444 73.9127 114.444ZM83.5307 114.486V111H84.4547V118H83.5307V115.34C82.9894 115.62 82.322 115.76 81.5287 115.76C80.6047 115.76 79.9047 115.55 79.4287 115.13C78.9527 114.701 78.7147 114.071 78.7147 113.24V111H79.6387V113.24C79.6387 113.819 79.788 114.239 80.0867 114.5C80.3947 114.761 80.866 114.892 81.5007 114.892C82.21 114.892 82.8867 114.757 83.5307 114.486ZM91.6545 114.052V111H92.5785V118H91.6545V114.948H87.6225V118H86.6985V111H87.6225V114.052H91.6545ZM100.678 117.118C99.9598 117.818 99.0918 118.168 98.0745 118.168C97.0385 118.168 96.1658 117.818 95.4565 117.118C94.7472 116.409 94.3925 115.536 94.3925 114.5C94.3925 113.464 94.7472 112.596 95.4565 111.896C96.1658 111.187 97.0385 110.832 98.0745 110.832C99.1012 110.832 99.9692 111.187 100.678 111.896C101.397 112.596 101.756 113.464 101.756 114.5C101.756 115.527 101.397 116.399 100.678 117.118ZM96.1145 116.474C96.6465 117.006 97.2998 117.272 98.0745 117.272C98.8492 117.272 99.5025 117.006 100.034 116.474C100.566 115.923 100.832 115.265 100.832 114.5C100.832 113.725 100.566 113.072 100.034 112.54C99.5025 111.999 98.8492 111.728 98.0745 111.728C97.2998 111.728 96.6465 111.999 96.1145 112.54C95.5825 113.072 95.3165 113.725 95.3165 114.5C95.3165 115.265 95.5825 115.923 96.1145 116.474ZM110.625 118.168C109.57 118.168 108.693 117.818 107.993 117.118C107.293 116.399 106.943 115.527 106.943 114.5C106.943 113.464 107.293 112.596 107.993 111.896C108.693 111.187 109.57 110.832 110.625 110.832C111.315 110.832 111.936 111 112.487 111.336C113.037 111.663 113.439 112.106 113.691 112.666L112.935 113.1C112.748 112.68 112.445 112.349 112.025 112.106C111.614 111.854 111.147 111.728 110.625 111.728C109.85 111.728 109.197 111.999 108.665 112.54C108.133 113.072 107.867 113.725 107.867 114.5C107.867 115.265 108.133 115.923 108.665 116.474C109.197 117.006 109.85 117.272 110.625 117.272C111.138 117.272 111.6 117.151 112.011 116.908C112.431 116.665 112.757 116.329 112.991 115.9L113.761 116.348C113.471 116.908 113.047 117.351 112.487 117.678C111.927 118.005 111.306 118.168 110.625 118.168ZM121.165 117.118C120.446 117.818 119.578 118.168 118.561 118.168C117.525 118.168 116.652 117.818 115.943 117.118C115.234 116.409 114.879 115.536 114.879 114.5C114.879 113.464 115.234 112.596 115.943 111.896C116.652 111.187 117.525 110.832 118.561 110.832C119.588 110.832 120.456 111.187 121.165 111.896C121.884 112.596 122.243 113.464 122.243 114.5C122.243 115.527 121.884 116.399 121.165 117.118ZM116.601 116.474C117.133 117.006 117.786 117.272 118.561 117.272C119.336 117.272 119.989 117.006 120.521 116.474C121.053 115.923 121.319 115.265 121.319 114.5C121.319 113.725 121.053 113.072 120.521 112.54C119.989 111.999 119.336 111.728 118.561 111.728C117.786 111.728 117.133 111.999 116.601 112.54C116.069 113.072 115.803 113.725 115.803 114.5C115.803 115.265 116.069 115.923 116.601 116.474ZM131.111 118.168C130.057 118.168 129.179 117.818 128.479 117.118C127.779 116.399 127.429 115.527 127.429 114.5C127.429 113.464 127.779 112.596 128.479 111.896C129.179 111.187 130.057 110.832 131.111 110.832C131.802 110.832 132.423 111 132.973 111.336C133.524 111.663 133.925 112.106 134.177 112.666L133.421 113.1C133.235 112.68 132.931 112.349 132.511 112.106C132.101 111.854 131.634 111.728 131.111 111.728C130.337 111.728 129.683 111.999 129.151 112.54C128.619 113.072 128.353 113.725 128.353 114.5C128.353 115.265 128.619 115.923 129.151 116.474C129.683 117.006 130.337 117.272 131.111 117.272C131.625 117.272 132.087 117.151 132.497 116.908C132.917 116.665 133.244 116.329 133.477 115.9L134.247 116.348C133.958 116.908 133.533 117.351 132.973 117.678C132.413 118.005 131.793 118.168 131.111 118.168ZM136.445 111H141.457V118H140.533V111.896H137.369V115.018C137.369 116.185 137.145 116.987 136.697 117.426C136.258 117.865 135.652 118.056 134.877 118V117.132C135.418 117.188 135.815 117.057 136.067 116.74C136.319 116.423 136.445 115.849 136.445 115.018V111ZM146.928 110.832C147.974 110.832 148.809 111.201 149.434 111.938C150.078 112.666 150.4 113.529 150.4 114.528C150.4 114.575 150.391 114.719 150.372 114.962H144.226C144.32 115.662 144.618 116.222 145.122 116.642C145.626 117.062 146.256 117.272 147.012 117.272C148.076 117.272 148.828 116.875 149.266 116.082L150.078 116.558C149.77 117.062 149.346 117.459 148.804 117.748C148.272 118.028 147.67 118.168 146.998 118.168C145.897 118.168 145.001 117.823 144.31 117.132C143.62 116.441 143.274 115.564 143.274 114.5C143.274 113.445 143.615 112.573 144.296 111.882C144.978 111.182 145.855 110.832 146.928 110.832ZM146.928 111.728C146.2 111.728 145.589 111.943 145.094 112.372C144.609 112.801 144.32 113.366 144.226 114.066H149.448C149.346 113.319 149.061 112.745 148.594 112.344C148.109 111.933 147.554 111.728 146.928 111.728ZM157.757 111V117.104H158.737V119.876H157.813V118H152.101V119.876H151.177V117.104H152.031C152.507 116.469 152.745 115.587 152.745 114.458V111H157.757ZM153.151 117.104H156.833V111.896H153.669V114.458C153.669 115.541 153.496 116.423 153.151 117.104ZM162.913 116.866L165.181 111H166.161L163.165 118.644C162.885 119.353 162.493 119.899 161.989 120.282C161.494 120.674 160.944 120.847 160.337 120.8V119.932C161.177 120.035 161.816 119.549 162.255 118.476L162.437 118.042L159.301 111H160.281L162.913 116.866ZM173.536 110.832C174.562 110.832 175.43 111.187 176.14 111.896C176.858 112.596 177.218 113.464 177.218 114.5C177.218 115.527 176.858 116.399 176.14 117.118C175.421 117.818 174.553 118.168 173.536 118.168C172.602 118.168 171.79 117.865 171.1 117.258C170.418 116.633 170.031 115.863 169.938 114.948H168.482V118H167.558V111H168.482V114.052H169.938C170.04 113.128 170.428 112.363 171.1 111.756C171.781 111.14 172.593 110.832 173.536 110.832ZM171.576 116.474C172.108 117.006 172.761 117.272 173.536 117.272C174.31 117.272 174.964 117.006 175.496 116.474C176.028 115.923 176.294 115.265 176.294 114.5C176.294 113.725 176.028 113.072 175.496 112.54C174.964 111.999 174.31 111.728 173.536 111.728C172.761 111.728 172.108 111.999 171.576 112.54C171.044 113.072 170.778 113.725 170.778 114.5C170.778 115.265 171.044 115.923 171.576 116.474ZM188.415 111V117.104H189.395V119.876H188.471V118H179.035V111H179.959V117.104H183.263V111H184.187V117.104H187.491V111H188.415ZM194.033 110.832C195.079 110.832 195.914 111.201 196.539 111.938C197.183 112.666 197.505 113.529 197.505 114.528C197.505 114.575 197.496 114.719 197.477 114.962H191.331C191.425 115.662 191.723 116.222 192.227 116.642C192.731 117.062 193.361 117.272 194.117 117.272C195.181 117.272 195.933 116.875 196.371 116.082L197.183 116.558C196.875 117.062 196.451 117.459 195.909 117.748C195.377 118.028 194.775 118.168 194.103 118.168C193.002 118.168 192.106 117.823 191.415 117.132C190.725 116.441 190.379 115.564 190.379 114.5C190.379 113.445 190.72 112.573 191.401 111.882C192.083 111.182 192.96 110.832 194.033 110.832ZM194.033 111.728C193.305 111.728 192.694 111.943 192.199 112.372C191.714 112.801 191.425 113.366 191.331 114.066H196.553C196.451 113.319 196.166 112.745 195.699 112.344C195.214 111.933 194.659 111.728 194.033 111.728ZM199.255 111H203.735V111.896H200.179V118H199.255V111ZM210.733 117.118C210.015 117.818 209.147 118.168 208.129 118.168C207.093 118.168 206.221 117.818 205.511 117.118C204.802 116.409 204.447 115.536 204.447 114.5C204.447 113.464 204.802 112.596 205.511 111.896C206.221 111.187 207.093 110.832 208.129 110.832C209.156 110.832 210.024 111.187 210.733 111.896C211.452 112.596 211.811 113.464 211.811 114.5C211.811 115.527 211.452 116.399 210.733 117.118ZM206.169 116.474C206.701 117.006 207.355 117.272 208.129 117.272C208.904 117.272 209.557 117.006 210.089 116.474C210.621 115.923 210.887 115.265 210.887 114.5C210.887 113.725 210.621 113.072 210.089 112.54C209.557 111.999 208.904 111.728 208.129 111.728C207.355 111.728 206.701 111.999 206.169 112.54C205.637 113.072 205.371 113.725 205.371 114.5C205.371 115.265 205.637 115.923 206.169 116.474ZM223.214 111H224.278V118H223.354V112.414L220.904 116.39H220.792L218.342 112.414V118H217.418V111H218.482L220.848 114.836L223.214 111ZM229.75 110.832C230.795 110.832 231.631 111.201 232.256 111.938C232.9 112.666 233.222 113.529 233.222 114.528C233.222 114.575 233.213 114.719 233.194 114.962H227.048C227.141 115.662 227.44 116.222 227.944 116.642C228.448 117.062 229.078 117.272 229.834 117.272C230.898 117.272 231.649 116.875 232.088 116.082L232.9 116.558C232.592 117.062 232.167 117.459 231.626 117.748C231.094 118.028 230.492 118.168 229.82 118.168C228.719 118.168 227.823 117.823 227.132 117.132C226.441 116.441 226.096 115.564 226.096 114.5C226.096 113.445 226.437 112.573 227.118 111.882C227.799 111.182 228.677 110.832 229.75 110.832ZM229.75 111.728C229.022 111.728 228.411 111.943 227.916 112.372C227.431 112.801 227.141 113.366 227.048 114.066H232.27C232.167 113.319 231.883 112.745 231.416 112.344C230.931 111.933 230.375 111.728 229.75 111.728ZM238.234 118.168C237.179 118.168 236.302 117.818 235.602 117.118C234.902 116.399 234.552 115.527 234.552 114.5C234.552 113.464 234.902 112.596 235.602 111.896C236.302 111.187 237.179 110.832 238.234 110.832C238.924 110.832 239.545 111 240.096 111.336C240.646 111.663 241.048 112.106 241.3 112.666L240.544 113.1C240.357 112.68 240.054 112.349 239.634 112.106C239.223 111.854 238.756 111.728 238.234 111.728C237.459 111.728 236.806 111.999 236.274 112.54C235.742 113.072 235.476 113.725 235.476 114.5C235.476 115.265 235.742 115.923 236.274 116.474C236.806 117.006 237.459 117.272 238.234 117.272C238.747 117.272 239.209 117.151 239.62 116.908C240.04 116.665 240.366 116.329 240.6 115.9L241.37 116.348C241.08 116.908 240.656 117.351 240.096 117.678C239.536 118.005 238.915 118.168 238.234 118.168ZM245.038 111H247.88V118H246.956V115.312H245.752L243.596 118H242.42L244.632 115.284C244.062 115.2 243.596 114.967 243.232 114.584C242.877 114.192 242.7 113.721 242.7 113.17C242.7 112.545 242.924 112.027 243.372 111.616C243.838 111.205 244.394 111 245.038 111ZM245.038 114.444H246.956V111.896H245.038C244.636 111.896 244.3 112.017 244.03 112.26C243.759 112.493 243.624 112.797 243.624 113.17C243.624 113.543 243.759 113.851 244.03 114.094C244.3 114.327 244.636 114.444 245.038 114.444ZM255.86 111V117.104H256.98V119.876H256.056V118H250.12V111H251.044V117.104H254.936V111H255.86ZM264.404 112.372V111H265.328V118H264.404V116.628C263.76 117.655 262.817 118.168 261.576 118.168C260.577 118.168 259.723 117.813 259.014 117.104C258.314 116.395 257.964 115.527 257.964 114.5C257.964 113.473 258.314 112.605 259.014 111.896C259.723 111.187 260.577 110.832 261.576 110.832C262.817 110.832 263.76 111.345 264.404 112.372ZM259.686 116.474C260.218 117.006 260.871 117.272 261.646 117.272C262.421 117.272 263.074 117.006 263.606 116.474C264.138 115.923 264.404 115.265 264.404 114.5C264.404 113.725 264.138 113.072 263.606 112.54C263.074 111.999 262.421 111.728 261.646 111.728C260.871 111.728 260.218 111.999 259.686 112.54C259.154 113.072 258.888 113.725 258.888 114.5C258.888 115.265 259.154 115.923 259.686 116.474ZM271.344 111H277.224V118H276.3V111.896H272.268V118H271.344V111ZM285.324 117.118C284.606 117.818 283.738 118.168 282.72 118.168C281.684 118.168 280.812 117.818 280.102 117.118C279.393 116.409 279.038 115.536 279.038 114.5C279.038 113.464 279.393 112.596 280.102 111.896C280.812 111.187 281.684 110.832 282.72 110.832C283.747 110.832 284.615 111.187 285.324 111.896C286.043 112.596 286.402 113.464 286.402 114.5C286.402 115.527 286.043 116.399 285.324 117.118ZM280.76 116.474C281.292 117.006 281.946 117.272 282.72 117.272C283.495 117.272 284.148 117.006 284.68 116.474C285.212 115.923 285.478 115.265 285.478 114.5C285.478 113.725 285.212 113.072 284.68 112.54C284.148 111.999 283.495 111.728 282.72 111.728C281.946 111.728 281.292 111.999 280.76 112.54C280.228 113.072 279.962 113.725 279.962 114.5C279.962 115.265 280.228 115.923 280.76 116.474ZM291.491 118.168C290.436 118.168 289.559 117.818 288.859 117.118C288.159 116.399 287.809 115.527 287.809 114.5C287.809 113.464 288.159 112.596 288.859 111.896C289.559 111.187 290.436 110.832 291.491 110.832C292.181 110.832 292.802 111 293.353 111.336C293.903 111.663 294.305 112.106 294.557 112.666L293.801 113.1C293.614 112.68 293.311 112.349 292.891 112.106C292.48 111.854 292.013 111.728 291.491 111.728C290.716 111.728 290.063 111.999 289.531 112.54C288.999 113.072 288.733 113.725 288.733 114.5C288.733 115.265 288.999 115.923 289.531 116.474C290.063 117.006 290.716 117.272 291.491 117.272C292.004 117.272 292.466 117.151 292.877 116.908C293.297 116.665 293.623 116.329 293.857 115.9L294.627 116.348C294.337 116.908 293.913 117.351 293.353 117.678C292.793 118.005 292.172 118.168 291.491 118.168ZM296.824 111H301.836V118H300.912V111.896H297.748V115.018C297.748 116.185 297.524 116.987 297.076 117.426C296.638 117.865 296.031 118.056 295.256 118V117.132C295.798 117.188 296.194 117.057 296.446 116.74C296.698 116.423 296.824 115.849 296.824 115.018V111ZM307.308 110.832C308.353 110.832 309.188 111.201 309.814 111.938C310.458 112.666 310.78 113.529 310.78 114.528C310.78 114.575 310.77 114.719 310.752 114.962H304.606C304.699 115.662 304.998 116.222 305.502 116.642C306.006 117.062 306.636 117.272 307.392 117.272C308.456 117.272 309.207 116.875 309.646 116.082L310.458 116.558C310.15 117.062 309.725 117.459 309.184 117.748C308.652 118.028 308.05 118.168 307.378 118.168C306.276 118.168 305.38 117.823 304.69 117.132C303.999 116.441 303.654 115.564 303.654 114.5C303.654 113.445 303.994 112.573 304.676 111.882C305.357 111.182 306.234 110.832 307.308 110.832ZM307.308 111.728C306.58 111.728 305.968 111.943 305.474 112.372C304.988 112.801 304.699 113.366 304.606 114.066H309.828C309.725 113.319 309.44 112.745 308.974 112.344C308.488 111.933 307.933 111.728 307.308 111.728ZM20.98 130H26.86V137H25.936V130.896H21.904V137H20.98V130ZM34.96 136.118C34.2413 136.818 33.3733 137.168 32.356 137.168C31.32 137.168 30.4473 136.818 29.738 136.118C29.0287 135.409 28.674 134.536 28.674 133.5C28.674 132.464 29.0287 131.596 29.738 130.896C30.4473 130.187 31.32 129.832 32.356 129.832C33.3827 129.832 34.2507 130.187 34.96 130.896C35.6787 131.596 36.038 132.464 36.038 133.5C36.038 134.527 35.6787 135.399 34.96 136.118ZM30.396 135.474C30.928 136.006 31.5813 136.272 32.356 136.272C33.1307 136.272 33.784 136.006 34.316 135.474C34.848 134.923 35.114 134.265 35.114 133.5C35.114 132.725 34.848 132.072 34.316 131.54C33.784 130.999 33.1307 130.728 32.356 130.728C31.5813 130.728 30.928 130.999 30.396 131.54C29.864 132.072 29.598 132.725 29.598 133.5C29.598 134.265 29.864 134.923 30.396 135.474ZM39.7682 133.36L43.5202 137H42.2882L38.7882 133.626V137H37.8642V130H38.7882V133.094L42.1202 130H43.3802L39.7682 133.36ZM47.5608 135.866L49.8288 130H50.8088L47.8128 137.644C47.5328 138.353 47.1408 138.899 46.6368 139.282C46.1421 139.674 45.5914 139.847 44.9848 139.8V138.932C45.8248 139.035 46.4641 138.549 46.9028 137.476L47.0848 137.042L43.9488 130H44.9288L47.5608 135.866ZM52.2055 130H58.0855V137H57.1615V130.896H53.1295V137H52.2055V130ZM62.2235 133.36L65.9755 137H64.7435L61.2435 133.626V137H60.3195V130H61.2435V133.094L64.5755 130H65.8355L62.2235 133.36ZM68.4414 135.39L72.6134 130H73.3974V137H72.4734V131.61L68.3014 137H67.5174V130H68.4414V135.39ZM77.0314 136.37C77.0314 136.585 76.9567 136.767 76.8074 136.916C76.6581 137.065 76.4761 137.14 76.2614 137.14C76.0467 137.14 75.8647 137.065 75.7154 136.916C75.5661 136.767 75.4914 136.585 75.4914 136.37C75.4914 136.155 75.5661 135.973 75.7154 135.824C75.8647 135.675 76.0467 135.6 76.2614 135.6C76.4761 135.6 76.6581 135.675 76.8074 135.824C76.9567 135.973 77.0314 136.155 77.0314 136.37ZM91.164 135.698C90.184 136.678 88.9846 137.168 87.566 137.168C86.1473 137.168 84.948 136.678 83.968 135.698C82.988 134.699 82.498 133.5 82.498 132.1C82.498 130.691 82.988 129.496 83.968 128.516C84.948 127.527 86.1473 127.032 87.566 127.032C88.9846 127.032 90.184 127.527 91.164 128.516C92.144 129.496 92.634 130.691 92.634 132.1C92.634 133.5 92.144 134.699 91.164 135.698ZM83.478 132.1C83.478 133.257 83.87 134.233 84.654 135.026C85.438 135.819 86.4086 136.216 87.566 136.216C88.7233 136.216 89.694 135.819 90.478 135.026C91.262 134.233 91.654 133.257 91.654 132.1C91.654 130.952 91.262 129.981 90.478 129.188C89.694 128.385 88.7233 127.984 87.566 127.984C86.4086 127.984 85.438 128.385 84.654 129.188C83.87 129.981 83.478 130.952 83.478 132.1ZM93.6099 130H99.4899V130.896H97.0119V137H96.0879V130.896H93.6099V130ZM103.885 137.168C102.83 137.168 101.953 136.818 101.253 136.118C100.553 135.399 100.203 134.527 100.203 133.5C100.203 132.464 100.553 131.596 101.253 130.896C101.953 130.187 102.83 129.832 103.885 129.832C104.575 129.832 105.196 130 105.747 130.336C106.297 130.663 106.699 131.106 106.951 131.666L106.195 132.1C106.008 131.68 105.705 131.349 105.285 131.106C104.874 130.854 104.407 130.728 103.885 130.728C103.11 130.728 102.457 130.999 101.925 131.54C101.393 132.072 101.127 132.725 101.127 133.5C101.127 134.265 101.393 134.923 101.925 135.474C102.457 136.006 103.11 136.272 103.885 136.272C104.398 136.272 104.86 136.151 105.271 135.908C105.691 135.665 106.017 135.329 106.251 134.9L107.021 135.348C106.731 135.908 106.307 136.351 105.747 136.678C105.187 137.005 104.566 137.168 103.885 137.168ZM109.218 130H114.23V137H113.306V130.896H110.142V134.018C110.142 135.185 109.918 135.987 109.47 136.426C109.032 136.865 108.425 137.056 107.65 137V136.132C108.192 136.188 108.588 136.057 108.84 135.74C109.092 135.423 109.218 134.849 109.218 134.018V130ZM119.702 129.832C120.747 129.832 121.582 130.201 122.208 130.938C122.852 131.666 123.174 132.529 123.174 133.528C123.174 133.575 123.164 133.719 123.146 133.962H117C117.093 134.662 117.392 135.222 117.896 135.642C118.4 136.062 119.03 136.272 119.786 136.272C120.85 136.272 121.601 135.875 122.04 135.082L122.852 135.558C122.544 136.062 122.119 136.459 121.578 136.748C121.046 137.028 120.444 137.168 119.772 137.168C118.67 137.168 117.774 136.823 117.084 136.132C116.393 135.441 116.048 134.564 116.048 133.5C116.048 132.445 116.388 131.573 117.07 130.882C117.751 130.182 118.628 129.832 119.702 129.832ZM119.702 130.728C118.974 130.728 118.362 130.943 117.868 131.372C117.382 131.801 117.093 132.366 117 133.066H122.222C122.119 132.319 121.834 131.745 121.368 131.344C120.882 130.933 120.327 130.728 119.702 130.728ZM129.54 133.36L132.676 137H131.556L128.7 133.626V137H127.776V133.626L124.92 137H123.8L126.936 133.36L123.94 130H125.06L127.776 133.108V130H128.7V133.108L131.416 130H132.536L129.54 133.36ZM135.137 135.39L139.309 130H140.093V137H139.169V131.61L134.997 137H134.213V130H135.137V135.39ZM146.779 133.402C147.545 133.682 147.927 134.228 147.927 135.04C147.927 135.619 147.731 136.09 147.339 136.454C146.957 136.818 146.42 137 145.729 137H142.327V130H145.449C146.121 130 146.644 130.173 147.017 130.518C147.4 130.863 147.591 131.316 147.591 131.876C147.591 132.576 147.321 133.085 146.779 133.402ZM145.449 130.896H143.251V133.024H145.449C146.261 133.024 146.667 132.66 146.667 131.932C146.667 131.605 146.56 131.353 146.345 131.176C146.14 130.989 145.841 130.896 145.449 130.896ZM143.251 136.104H145.729C146.14 136.104 146.453 136.006 146.667 135.81C146.891 135.614 147.003 135.339 147.003 134.984C147.003 134.648 146.891 134.387 146.667 134.2C146.453 134.013 146.14 133.92 145.729 133.92H143.251V136.104ZM155.627 131.372V130H156.551V137H155.627V135.628C154.983 136.655 154.041 137.168 152.799 137.168C151.801 137.168 150.947 136.813 150.237 136.104C149.537 135.395 149.187 134.527 149.187 133.5C149.187 132.473 149.537 131.605 150.237 130.896C150.947 130.187 151.801 129.832 152.799 129.832C154.041 129.832 154.983 130.345 155.627 131.372ZM150.909 135.474C151.441 136.006 152.095 136.272 152.869 136.272C153.644 136.272 154.297 136.006 154.829 135.474C155.361 134.923 155.627 134.265 155.627 133.5C155.627 132.725 155.361 132.072 154.829 131.54C154.297 130.999 153.644 130.728 152.869 130.728C152.095 130.728 151.441 130.999 150.909 131.54C150.377 132.072 150.111 132.725 150.111 133.5C150.111 134.265 150.377 134.923 150.909 135.474ZM163.548 128.88H159.908V128.068H163.548V128.88ZM159.712 135.39L163.884 130H164.668V137H163.744V131.61L159.572 137H158.788V130H159.712V135.39ZM166.062 130H171.942V130.896H169.464V137H168.54V130.896H166.062V130ZM176.308 129.832C177.353 129.832 178.189 130.201 178.814 130.938C179.458 131.666 179.78 132.529 179.78 133.528C179.78 133.575 179.771 133.719 179.752 133.962H173.606C173.699 134.662 173.998 135.222 174.502 135.642C175.006 136.062 175.636 136.272 176.392 136.272C177.456 136.272 178.207 135.875 178.646 135.082L179.458 135.558C179.15 136.062 178.725 136.459 178.184 136.748C177.652 137.028 177.05 137.168 176.378 137.168C175.277 137.168 174.381 136.823 173.69 136.132C172.999 135.441 172.654 134.564 172.654 133.5C172.654 132.445 172.995 131.573 173.676 130.882C174.357 130.182 175.235 129.832 176.308 129.832ZM176.308 130.728C175.58 130.728 174.969 130.943 174.474 131.372C173.989 131.801 173.699 132.366 173.606 133.066H178.828C178.725 132.319 178.441 131.745 177.974 131.344C177.489 130.933 176.933 130.728 176.308 130.728ZM188.572 137.168C187.517 137.168 186.64 136.818 185.94 136.118C185.24 135.399 184.89 134.527 184.89 133.5C184.89 132.464 185.24 131.596 185.94 130.896C186.64 130.187 187.517 129.832 188.572 129.832C189.263 129.832 189.883 130 190.434 130.336C190.985 130.663 191.386 131.106 191.638 131.666L190.882 132.1C190.695 131.68 190.392 131.349 189.972 131.106C189.561 130.854 189.095 130.728 188.572 130.728C187.797 130.728 187.144 130.999 186.612 131.54C186.08 132.072 185.814 132.725 185.814 133.5C185.814 134.265 186.08 134.923 186.612 135.474C187.144 136.006 187.797 136.272 188.572 136.272C189.085 136.272 189.547 136.151 189.958 135.908C190.378 135.665 190.705 135.329 190.938 134.9L191.708 135.348C191.419 135.908 190.994 136.351 190.434 136.678C189.874 137.005 189.253 137.168 188.572 137.168ZM199.112 136.118C198.394 136.818 197.526 137.168 196.508 137.168C195.472 137.168 194.6 136.818 193.89 136.118C193.181 135.409 192.826 134.536 192.826 133.5C192.826 132.464 193.181 131.596 193.89 130.896C194.6 130.187 195.472 129.832 196.508 129.832C197.535 129.832 198.403 130.187 199.112 130.896C199.831 131.596 200.19 132.464 200.19 133.5C200.19 134.527 199.831 135.399 199.112 136.118ZM194.548 135.474C195.08 136.006 195.734 136.272 196.508 136.272C197.283 136.272 197.936 136.006 198.468 135.474C199 134.923 199.266 134.265 199.266 133.5C199.266 132.725 199 132.072 198.468 131.54C197.936 130.999 197.283 130.728 196.508 130.728C195.734 130.728 195.08 130.999 194.548 131.54C194.016 132.072 193.75 132.725 193.75 133.5C193.75 134.265 194.016 134.923 194.548 135.474ZM205.278 137.168C204.224 137.168 203.346 136.818 202.646 136.118C201.946 135.399 201.596 134.527 201.596 133.5C201.596 132.464 201.946 131.596 202.646 130.896C203.346 130.187 204.224 129.832 205.278 129.832C205.969 129.832 206.59 130 207.14 130.336C207.691 130.663 208.092 131.106 208.344 131.666L207.588 132.1C207.402 131.68 207.098 131.349 206.678 131.106C206.268 130.854 205.801 130.728 205.278 130.728C204.504 130.728 203.85 130.999 203.318 131.54C202.786 132.072 202.52 132.725 202.52 133.5C202.52 134.265 202.786 134.923 203.318 135.474C203.85 136.006 204.504 136.272 205.278 136.272C205.792 136.272 206.254 136.151 206.664 135.908C207.084 135.665 207.411 135.329 207.644 134.9L208.414 135.348C208.125 135.908 207.7 136.351 207.14 136.678C206.58 137.005 205.96 137.168 205.278 137.168ZM209.044 130H214.924V130.896H212.446V137H211.522V130.896H209.044V130ZM221.923 136.118C221.204 136.818 220.336 137.168 219.319 137.168C218.283 137.168 217.41 136.818 216.701 136.118C215.992 135.409 215.637 134.536 215.637 133.5C215.637 132.464 215.992 131.596 216.701 130.896C217.41 130.187 218.283 129.832 219.319 129.832C220.346 129.832 221.214 130.187 221.923 130.896C222.642 131.596 223.001 132.464 223.001 133.5C223.001 134.527 222.642 135.399 221.923 136.118ZM217.359 135.474C217.891 136.006 218.544 136.272 219.319 136.272C220.094 136.272 220.747 136.006 221.279 135.474C221.811 134.923 222.077 134.265 222.077 133.5C222.077 132.725 221.811 132.072 221.279 131.54C220.747 130.999 220.094 130.728 219.319 130.728C218.544 130.728 217.891 130.999 217.359 131.54C216.827 132.072 216.561 132.725 216.561 133.5C216.561 134.265 216.827 134.923 217.359 135.474ZM226.752 130H229.594V137H228.67V134.312H227.466L225.31 137H224.134L226.346 134.284C225.776 134.2 225.31 133.967 224.946 133.584C224.591 133.192 224.414 132.721 224.414 132.17C224.414 131.545 224.638 131.027 225.086 130.616C225.552 130.205 226.108 130 226.752 130ZM226.752 133.444H228.67V130.896H226.752C226.35 130.896 226.014 131.017 225.744 131.26C225.473 131.493 225.338 131.797 225.338 132.17C225.338 132.543 225.473 132.851 225.744 133.094C226.014 133.327 226.35 133.444 226.752 133.444ZM236.79 133.052V130H237.714V137H236.79V133.948H232.758V137H231.834V130H232.758V133.052H236.79ZM240.872 135.39L245.044 130H245.828V137H244.904V131.61L240.732 137H239.948V130H240.872V135.39ZM251.296 129.832C252.341 129.832 253.176 130.201 253.802 130.938C254.446 131.666 254.768 132.529 254.768 133.528C254.768 133.575 254.758 133.719 254.74 133.962H248.594C248.687 134.662 248.986 135.222 249.49 135.642C249.994 136.062 250.624 136.272 251.38 136.272C252.444 136.272 253.195 135.875 253.634 135.082L254.446 135.558C254.138 136.062 253.713 136.459 253.172 136.748C252.64 137.028 252.038 137.168 251.366 137.168C250.264 137.168 249.368 136.823 248.678 136.132C247.987 135.441 247.642 134.564 247.642 133.5C247.642 132.445 247.982 131.573 248.664 130.882C249.345 130.182 250.222 129.832 251.296 129.832ZM251.296 130.728C250.568 130.728 249.956 130.943 249.462 131.372C248.976 131.801 248.687 132.366 248.594 133.066H253.816C253.713 132.319 253.428 131.745 252.962 131.344C252.476 130.933 251.921 130.728 251.296 130.728ZM260.297 130H266.177V137H265.253V130.896H261.221V137H260.297V130ZM274.277 136.118C273.559 136.818 272.691 137.168 271.673 137.168C270.637 137.168 269.765 136.818 269.055 136.118C268.346 135.409 267.991 134.536 267.991 133.5C267.991 132.464 268.346 131.596 269.055 130.896C269.765 130.187 270.637 129.832 271.673 129.832C272.7 129.832 273.568 130.187 274.277 130.896C274.996 131.596 275.355 132.464 275.355 133.5C275.355 134.527 274.996 135.399 274.277 136.118ZM269.713 135.474C270.245 136.006 270.899 136.272 271.673 136.272C272.448 136.272 273.101 136.006 273.633 135.474C274.165 134.923 274.431 134.265 274.431 133.5C274.431 132.725 274.165 132.072 273.633 131.54C273.101 130.999 272.448 130.728 271.673 130.728C270.899 130.728 270.245 130.999 269.713 131.54C269.181 132.072 268.915 132.725 268.915 133.5C268.915 134.265 269.181 134.923 269.713 135.474ZM280.934 129.832C281.932 129.832 282.782 130.187 283.482 130.896C284.191 131.605 284.546 132.473 284.546 133.5C284.546 134.527 284.191 135.395 283.482 136.104C282.782 136.813 281.932 137.168 280.934 137.168C279.692 137.168 278.75 136.655 278.106 135.628V139.8H277.182V130H278.106V131.372C278.75 130.345 279.692 129.832 280.934 129.832ZM278.904 135.474C279.436 136.006 280.089 136.272 280.864 136.272C281.638 136.272 282.292 136.006 282.824 135.474C283.356 134.923 283.622 134.265 283.622 133.5C283.622 132.725 283.356 132.072 282.824 131.54C282.292 130.999 281.638 130.728 280.864 130.728C280.089 130.728 279.436 130.999 278.904 131.54C278.372 132.072 278.106 132.725 278.106 133.5C278.106 134.265 278.372 134.923 278.904 135.474ZM285.249 130H291.129V130.896H288.651V137H287.727V130.896H285.249V130ZM296.433 137.154V139.8H295.509V137.154C294.398 137.051 293.512 136.664 292.849 135.992C292.177 135.301 291.841 134.471 291.841 133.5C291.841 132.529 292.177 131.699 292.849 131.008C293.512 130.336 294.398 129.949 295.509 129.846V127.2H296.433V129.846C297.544 129.949 298.43 130.336 299.093 131.008C299.765 131.699 300.101 132.529 300.101 133.5C300.101 134.471 299.765 135.301 299.093 135.992C298.43 136.664 297.544 137.051 296.433 137.154ZM295.509 136.244V130.756C294.678 130.84 294.011 131.134 293.507 131.638C293.012 132.142 292.765 132.763 292.765 133.5C292.765 134.237 293.012 134.858 293.507 135.362C294.011 135.866 294.678 136.16 295.509 136.244ZM296.433 130.756V136.244C297.264 136.16 297.926 135.866 298.421 135.362C298.925 134.858 299.177 134.237 299.177 133.5C299.177 132.763 298.925 132.142 298.421 131.638C297.926 131.134 297.264 130.84 296.433 130.756ZM305.154 129.832C306.199 129.832 307.035 130.201 307.66 130.938C308.304 131.666 308.626 132.529 308.626 133.528C308.626 133.575 308.617 133.719 308.598 133.962H302.452C302.545 134.662 302.844 135.222 303.348 135.642C303.852 136.062 304.482 136.272 305.238 136.272C306.302 136.272 307.053 135.875 307.492 135.082L308.304 135.558C307.996 136.062 307.571 136.459 307.03 136.748C306.498 137.028 305.896 137.168 305.224 137.168C304.123 137.168 303.227 136.823 302.536 136.132C301.845 135.441 301.5 134.564 301.5 133.5C301.5 132.445 301.841 131.573 302.522 130.882C303.203 130.182 304.081 129.832 305.154 129.832ZM305.154 130.728C304.426 130.728 303.815 130.943 303.32 131.372C302.835 131.801 302.545 132.366 302.452 133.066H307.674C307.571 132.319 307.287 131.745 306.82 131.344C306.335 130.933 305.779 130.728 305.154 130.728ZM310.83 130H315.842V137H314.918V130.896H311.754V134.018C311.754 135.185 311.53 135.987 311.082 136.426C310.644 136.865 310.037 137.056 309.262 137V136.132C309.804 136.188 310.2 136.057 310.452 135.74C310.704 135.423 310.83 134.849 310.83 134.018V130ZM320.278 130H323.12V137H322.196V134.312H320.992L318.836 137H317.66L319.872 134.284C319.302 134.2 318.836 133.967 318.472 133.584C318.117 133.192 317.94 132.721 317.94 132.17C317.94 131.545 318.164 131.027 318.612 130.616C319.078 130.205 319.634 130 320.278 130ZM320.278 133.444H322.196V130.896H320.278C319.876 130.896 319.54 131.017 319.27 131.26C318.999 131.493 318.864 131.797 318.864 132.17C318.864 132.543 318.999 132.851 319.27 133.094C319.54 133.327 319.876 133.444 320.278 133.444ZM25.432 152.402C26.1973 152.682 26.58 153.228 26.58 154.04C26.58 154.619 26.384 155.09 25.992 155.454C25.6093 155.818 25.0727 156 24.382 156H20.98V149H24.102C24.774 149 25.2967 149.173 25.67 149.518C26.0527 149.863 26.244 150.316 26.244 150.876C26.244 151.576 25.9733 152.085 25.432 152.402ZM24.102 149.896H21.904V152.024H24.102C24.914 152.024 25.32 151.66 25.32 150.932C25.32 150.605 25.2127 150.353 24.998 150.176C24.7927 149.989 24.494 149.896 24.102 149.896ZM21.904 155.104H24.382C24.7927 155.104 25.1053 155.006 25.32 154.81C25.544 154.614 25.656 154.339 25.656 153.984C25.656 153.648 25.544 153.387 25.32 153.2C25.1053 153.013 24.7927 152.92 24.382 152.92H21.904V155.104ZM32.768 149H37.78V156H36.856V149.896H33.692V153.018C33.692 154.185 33.468 154.987 33.02 155.426C32.5813 155.865 31.9747 156.056 31.2 156V155.132C31.7413 155.188 32.138 155.057 32.39 154.74C32.642 154.423 32.768 153.849 32.768 153.018V149ZM40.9413 154.39L45.1133 149H45.8973V156H44.9733V150.61L40.8013 156H40.0173V149H40.9413V154.39ZM52.6673 152.486V149H53.5913V156H52.6673V153.34C52.1259 153.62 51.4586 153.76 50.6653 153.76C49.7413 153.76 49.0413 153.55 48.5653 153.13C48.0893 152.701 47.8513 152.071 47.8513 151.24V149H48.7753V151.24C48.7753 151.819 48.9246 152.239 49.2233 152.5C49.5313 152.761 50.0026 152.892 50.6373 152.892C51.3466 152.892 52.0233 152.757 52.6673 152.486ZM60.7911 152.052V149H61.7151V156H60.7911V152.948H56.7591V156H55.8351V149H56.7591V152.052H60.7911ZM69.8151 155.118C69.0964 155.818 68.2284 156.168 67.2111 156.168C66.1751 156.168 65.3024 155.818 64.5931 155.118C63.8837 154.409 63.5291 153.536 63.5291 152.5C63.5291 151.464 63.8837 150.596 64.5931 149.896C65.3024 149.187 66.1751 148.832 67.2111 148.832C68.2377 148.832 69.1057 149.187 69.8151 149.896C70.5337 150.596 70.8931 151.464 70.8931 152.5C70.8931 153.527 70.5337 154.399 69.8151 155.118ZM65.2511 154.474C65.7831 155.006 66.4364 155.272 67.2111 155.272C67.9857 155.272 68.6391 155.006 69.1711 154.474C69.7031 153.923 69.9691 153.265 69.9691 152.5C69.9691 151.725 69.7031 151.072 69.1711 150.54C68.6391 149.999 67.9857 149.728 67.2111 149.728C66.4364 149.728 65.7831 149.999 65.2511 150.54C64.7191 151.072 64.4531 151.725 64.4531 152.5C64.4531 153.265 64.7191 153.923 65.2511 154.474ZM78.5153 149H79.5793V156H78.6553V150.414L76.2053 154.39H76.0933L73.6433 150.414V156H72.7193V149H73.7833L76.1493 152.836L78.5153 149ZM87.5017 152.36L91.2537 156H90.0217L86.5217 152.626V156H85.5977V149H86.5217V152.094L89.8537 149H91.1137L87.5017 152.36ZM98.1184 150.372V149H99.0424V156H98.1184V154.628C97.4744 155.655 96.5317 156.168 95.2904 156.168C94.2917 156.168 93.4377 155.813 92.7284 155.104C92.0284 154.395 91.6784 153.527 91.6784 152.5C91.6784 151.473 92.0284 150.605 92.7284 149.896C93.4377 149.187 94.2917 148.832 95.2904 148.832C96.5317 148.832 97.4744 149.345 98.1184 150.372ZM93.4004 154.474C93.9324 155.006 94.5857 155.272 95.3604 155.272C96.135 155.272 96.7884 155.006 97.3204 154.474C97.8524 153.923 98.1184 153.265 98.1184 152.5C98.1184 151.725 97.8524 151.072 97.3204 150.54C96.7884 149.999 96.135 149.728 95.3604 149.728C94.5857 149.728 93.9324 149.999 93.4004 150.54C92.8684 151.072 92.6024 151.725 92.6024 152.5C92.6024 153.265 92.8684 153.923 93.4004 154.474ZM104.387 156.168C103.388 156.168 102.548 155.837 101.867 155.174C101.195 154.502 100.859 153.634 100.859 152.57C100.859 151.375 101.036 150.461 101.391 149.826C101.745 149.182 102.464 148.599 103.547 148.076C103.892 147.917 104.163 147.796 104.359 147.712C104.685 147.581 104.942 147.469 105.129 147.376C105.941 147.003 106.351 146.541 106.361 145.99L107.089 146.41C107.042 146.643 106.967 146.853 106.865 147.04C106.743 147.245 106.622 147.409 106.501 147.53C106.389 147.651 106.211 147.782 105.969 147.922C105.81 148.015 105.619 148.118 105.395 148.23L104.695 148.524L104.037 148.804C103.393 149.084 102.912 149.378 102.595 149.686C102.287 149.985 102.067 150.377 101.937 150.862C102.235 150.461 102.627 150.157 103.113 149.952C103.598 149.737 104.088 149.63 104.583 149.63C105.516 149.63 106.286 149.938 106.893 150.554C107.509 151.161 107.817 151.94 107.817 152.892C107.817 153.835 107.49 154.619 106.837 155.244C106.193 155.86 105.376 156.168 104.387 156.168ZM102.567 154.558C103.052 155.015 103.659 155.244 104.387 155.244C105.115 155.244 105.712 155.025 106.179 154.586C106.655 154.138 106.893 153.573 106.893 152.892C106.893 152.201 106.669 151.637 106.221 151.198C105.782 150.75 105.194 150.526 104.457 150.526C103.794 150.526 103.192 150.736 102.651 151.156C102.109 151.557 101.839 152.108 101.839 152.808C101.839 153.517 102.081 154.101 102.567 154.558ZM110.426 154.39L114.598 149H115.382V156H114.458V150.61L110.286 156H109.502V149H110.426V154.39ZM122.572 152.052V149H123.496V156H122.572V152.948H118.54V156H117.616V149H118.54V152.052H122.572ZM128.964 148.832C130.009 148.832 130.845 149.201 131.47 149.938C132.114 150.666 132.436 151.529 132.436 152.528C132.436 152.575 132.427 152.719 132.408 152.962H126.262C126.355 153.662 126.654 154.222 127.158 154.642C127.662 155.062 128.292 155.272 129.048 155.272C130.112 155.272 130.863 154.875 131.302 154.082L132.114 154.558C131.806 155.062 131.381 155.459 130.84 155.748C130.308 156.028 129.706 156.168 129.034 156.168C127.933 156.168 127.037 155.823 126.346 155.132C125.655 154.441 125.31 153.564 125.31 152.5C125.31 151.445 125.651 150.573 126.332 149.882C127.013 149.182 127.891 148.832 128.964 148.832ZM128.964 149.728C128.236 149.728 127.625 149.943 127.13 150.372C126.645 150.801 126.355 151.366 126.262 152.066H131.484C131.381 151.319 131.097 150.745 130.63 150.344C130.145 149.933 129.589 149.728 128.964 149.728ZM133.072 149H138.952V149.896H136.474V156H135.55V149.896H133.072V149ZM143.319 148.832C144.364 148.832 145.2 149.201 145.825 149.938C146.469 150.666 146.791 151.529 146.791 152.528C146.791 152.575 146.782 152.719 146.763 152.962H140.617C140.71 153.662 141.009 154.222 141.513 154.642C142.017 155.062 142.647 155.272 143.403 155.272C144.467 155.272 145.218 154.875 145.657 154.082L146.469 154.558C146.161 155.062 145.736 155.459 145.195 155.748C144.663 156.028 144.061 156.168 143.389 156.168C142.288 156.168 141.392 155.823 140.701 155.132C140.01 154.441 139.665 153.564 139.665 152.5C139.665 151.445 140.006 150.573 140.687 149.882C141.368 149.182 142.246 148.832 143.319 148.832ZM143.319 149.728C142.591 149.728 141.98 149.943 141.485 150.372C141 150.801 140.71 151.366 140.617 152.066H145.839C145.736 151.319 145.452 150.745 144.985 150.344C144.5 149.933 143.944 149.728 143.319 149.728Z" fill="#F3F3F3"/>
<path d="M220.1 302.94C210.44 316.66 196.79 323.52 179.15 323.52C161.65 323.52 147.93 316.66 137.99 302.94C128.33 289.08 123.5 270.6 123.5 247.5C123.5 224.26 128.33 205.85 137.99 192.27C147.93 178.41 161.65 171.48 179.15 171.48C196.79 171.48 210.44 178.41 220.1 192.27C229.9 205.85 234.8 224.26 234.8 247.5C234.8 270.74 229.9 289.22 220.1 302.94ZM148.91 293.07C156.33 303.85 166.41 309.24 179.15 309.24C192.03 309.24 202.04 303.85 209.18 293.07C216.46 282.43 220.1 267.24 220.1 247.5C220.1 227.76 216.46 212.57 209.18 201.93C202.04 191.15 192.03 185.76 179.15 185.76C166.41 185.76 156.33 191.15 148.91 201.93C141.77 212.71 138.2 227.9 138.2 247.5C138.2 267.1 141.77 282.29 148.91 293.07ZM341.974 187.86L307.744 235.11C319.364 236.51 329.024 241.06 336.724 248.76C344.424 256.04 348.274 265.91 348.274 278.37C348.274 292.23 343.444 303.29 333.784 311.55C324.404 319.53 312.784 323.52 298.924 323.52C287.864 323.52 278.064 321 269.524 315.96C260.984 310.78 255.034 303.57 251.674 294.33L263.854 287.19C266.234 294.33 270.434 299.79 276.454 303.57C282.614 307.35 290.104 309.24 298.924 309.24C309.284 309.24 317.614 306.51 323.914 301.05C330.354 295.45 333.574 287.89 333.574 278.37C333.574 268.85 330.354 261.36 323.914 255.9C317.614 250.3 309.284 247.5 298.924 247.5V247.29L298.714 247.5H294.724L288.424 237.84L324.964 187.86H255.874V174H341.974V187.86Z" fill="white"/>
</g>
<defs>
<clipPath id="clip0_3080_1482">
<rect width="351" height="588" fill="white"/>
</clipPath>
</defs>
</svg>
