<svg width="1057" height="668" viewBox="0 0 1057 668" fill="none" xmlns="http://www.w3.org/2000/svg">
<g clip-path="url(#clip0_2621_2688)">
<rect x="0.5" y="0.5" width="1056" height="667" rx="59.5" fill="#0048B4" stroke="#0048B4"/>
<path d="M43.04 49.4H62.04V76H59.38V51.908H45.7V76H43.04V49.4ZM90.8879 72.466C88.2279 75.126 84.9726 76.456 81.1219 76.456C77.2713 76.456 74.0159 75.126 71.3559 72.466C68.6959 69.7553 67.3659 66.5 67.3659 62.7C67.3659 58.8747 68.6959 55.632 71.3559 52.972C74.0159 50.2867 77.2713 48.944 81.1219 48.944C84.9726 48.944 88.2279 50.2867 90.8879 52.972C93.5479 55.632 94.8779 58.8747 94.8779 62.7C94.8779 66.5 93.5479 69.7553 90.8879 72.466ZM70.0259 62.7C70.0259 65.8413 71.0899 68.4887 73.2179 70.642C75.3459 72.7953 77.9806 73.872 81.1219 73.872C84.2633 73.872 86.8979 72.7953 89.0259 70.642C91.1539 68.4887 92.2179 65.8413 92.2179 62.7C92.2179 59.584 91.1539 56.9493 89.0259 54.796C86.8979 52.6173 84.2633 51.528 81.1219 51.528C77.9806 51.528 75.3459 52.6173 73.2179 54.796C71.0899 56.9493 70.0259 59.584 70.0259 62.7ZM96.1955 76V73.644C98.0448 73.8973 99.4255 73.3273 100.337 71.934C101.275 70.5407 101.743 67.9567 101.743 64.182V49.4H118.995V76H116.335V51.908H104.403V64.258C104.403 66.6647 104.213 68.6787 103.833 70.3C103.453 71.9213 102.883 73.15 102.123 73.986C101.389 74.822 100.54 75.392 99.5775 75.696C98.6401 76 97.5128 76.1013 96.1955 76ZM134.359 65.74L141.351 49.4H144.087L135.233 70.186C134.347 72.314 133.219 73.8467 131.851 74.784C130.483 75.7213 128.786 76.1267 126.759 76V73.568C128.178 73.72 129.343 73.5173 130.255 72.96C131.193 72.3773 131.965 71.3767 132.573 69.958L133.105 68.704L123.947 49.4H126.683L134.359 65.74ZM163.289 62.282V49.4H165.949V76H163.289V64.79C160.984 65.93 158.577 66.5 156.069 66.5C153.561 66.5 151.535 65.7907 149.989 64.372C148.469 62.9533 147.709 61.1293 147.709 58.9V49.4H150.369V58.9C150.369 60.4453 150.876 61.6867 151.889 62.624C152.903 63.536 154.296 63.992 156.069 63.992C158.577 63.992 160.984 63.422 163.289 62.282ZM193.309 76H190.497L188.027 69.464H175.411L172.941 76H170.129L180.351 49.4H183.087L193.309 76ZM181.719 52.706L176.361 66.956H187.077L181.719 52.706ZM212.305 46.36H202.425V44.156H212.305V46.36ZM217.245 76H214.585V54.34L199.765 76H197.485V49.4H200.145V71.06L214.965 49.4H217.245V76ZM221.793 49.4H240.793V51.908H232.623V76H229.963V51.908H221.793V49.4ZM248.014 63.84V73.492H260.934V76H245.354V49.4H260.744V51.908H248.014V61.332H259.794V63.84H248.014ZM295.525 49.4V73.492H298.375V81.092H295.715V76H276.715V81.092H274.055V73.492H276.221C277.969 71.44 278.843 68.2733 278.843 63.992V49.4H295.525ZM279.375 73.492H292.865V51.908H281.503V64.068C281.503 68.248 280.793 71.3893 279.375 73.492ZM325.152 72.466C322.492 75.126 319.237 76.456 315.386 76.456C311.535 76.456 308.28 75.126 305.62 72.466C302.96 69.7553 301.63 66.5 301.63 62.7C301.63 58.8747 302.96 55.632 305.62 52.972C308.28 50.2867 311.535 48.944 315.386 48.944C319.237 48.944 322.492 50.2867 325.152 52.972C327.812 55.632 329.142 58.8747 329.142 62.7C329.142 66.5 327.812 69.7553 325.152 72.466ZM304.29 62.7C304.29 65.8413 305.354 68.4887 307.482 70.642C309.61 72.7953 312.245 73.872 315.386 73.872C318.527 73.872 321.162 72.7953 323.29 70.642C325.418 68.4887 326.482 65.8413 326.482 62.7C326.482 59.584 325.418 56.9493 323.29 54.796C321.162 52.6173 318.527 51.528 315.386 51.528C312.245 51.528 309.61 52.6173 307.482 54.796C305.354 56.9493 304.29 59.584 304.29 62.7ZM342.801 62.282L351.541 76H348.501L341.281 64.638L334.061 76H331.021L339.761 62.282L331.591 49.4H334.593L341.281 59.888L347.969 49.4H350.971L342.801 62.282ZM376.955 72.466C374.295 75.126 371.04 76.456 367.189 76.456C363.339 76.456 360.083 75.126 357.423 72.466C354.763 69.7553 353.433 66.5 353.433 62.7C353.433 58.8747 354.763 55.632 357.423 52.972C360.083 50.2867 363.339 48.944 367.189 48.944C371.04 48.944 374.295 50.2867 376.955 52.972C379.615 55.632 380.945 58.8747 380.945 62.7C380.945 66.5 379.615 69.7553 376.955 72.466ZM356.093 62.7C356.093 65.8413 357.157 68.4887 359.285 70.642C361.413 72.7953 364.048 73.872 367.189 73.872C370.331 73.872 372.965 72.7953 375.093 70.642C377.221 68.4887 378.285 65.8413 378.285 62.7C378.285 59.584 377.221 56.9493 375.093 54.796C372.965 52.6173 370.331 51.528 367.189 51.528C364.048 51.528 361.413 52.6173 359.285 54.796C357.157 56.9493 356.093 59.584 356.093 62.7ZM404.104 49.4V73.492H406.954V81.092H404.294V76H385.294V81.092H382.634V73.492H384.8C386.548 71.44 387.422 68.2733 387.422 63.992V49.4H404.104ZM387.954 73.492H401.444V51.908H390.082V64.068C390.082 68.248 389.373 71.3893 387.954 73.492ZM65.042 127.466C62.382 130.126 59.1267 131.456 55.276 131.456C51.4253 131.456 48.17 130.126 45.51 127.466C42.85 124.755 41.52 121.5 41.52 117.7C41.52 113.875 42.85 110.632 45.51 107.972C48.17 105.287 51.4253 103.944 55.276 103.944C59.1267 103.944 62.382 105.287 65.042 107.972C67.702 110.632 69.032 113.875 69.032 117.7C69.032 121.5 67.702 124.755 65.042 127.466ZM44.18 117.7C44.18 120.841 45.244 123.489 47.372 125.642C49.5 127.795 52.1347 128.872 55.276 128.872C58.4173 128.872 61.052 127.795 63.18 125.642C65.308 123.489 66.372 120.841 66.372 117.7C66.372 114.584 65.308 111.949 63.18 109.796C61.052 107.617 58.4173 106.528 55.276 106.528C52.1347 106.528 49.5 107.617 47.372 109.796C45.244 111.949 44.18 114.584 44.18 117.7ZM70.5395 104.4H89.5395V106.908H81.3695V131H78.7095V106.908H70.5395V104.4ZM118.801 106.908L112.607 115.458C114.71 115.711 116.458 116.535 117.851 117.928C119.244 119.245 119.941 121.031 119.941 123.286C119.941 125.794 119.067 127.795 117.319 129.29C115.622 130.734 113.519 131.456 111.011 131.456C109.01 131.456 107.236 131 105.691 130.088C104.146 129.151 103.069 127.846 102.461 126.174L104.665 124.882C105.096 126.174 105.856 127.162 106.945 127.846C108.06 128.53 109.415 128.872 111.011 128.872C112.886 128.872 114.393 128.378 115.533 127.39C116.698 126.377 117.281 125.009 117.281 123.286C117.281 121.563 116.698 120.208 115.533 119.22C114.393 118.207 112.886 117.7 111.011 117.7V117.662L110.973 117.7H110.251L109.111 115.952L115.723 106.908H103.221V104.4H118.801V106.908ZM129.175 115.344C127.503 115.344 126.122 114.799 125.033 113.71C123.918 112.595 123.361 111.24 123.361 109.644C123.361 108.073 123.918 106.731 125.033 105.616C126.148 104.501 127.528 103.944 129.175 103.944C130.822 103.944 132.202 104.501 133.317 105.616C134.432 106.731 134.989 108.073 134.989 109.644C134.989 111.265 134.444 112.621 133.355 113.71C132.266 114.799 130.872 115.344 129.175 115.344ZM125.793 109.644C125.793 110.607 126.11 111.417 126.743 112.076C127.376 112.735 128.187 113.064 129.175 113.064C130.163 113.064 130.974 112.735 131.607 112.076C132.24 111.417 132.557 110.607 132.557 109.644C132.557 108.681 132.24 107.871 131.607 107.212C130.974 106.553 130.163 106.224 129.175 106.224C128.187 106.224 127.376 106.553 126.743 107.212C126.11 107.871 125.793 108.681 125.793 109.644ZM126.287 128.302L124.691 127.39L142.513 107.364L144.147 108.276L126.287 128.302ZM144.071 129.822C142.982 130.911 141.601 131.456 139.929 131.456C138.257 131.456 136.876 130.911 135.787 129.822C134.672 128.707 134.115 127.352 134.115 125.756C134.115 124.185 134.672 122.843 135.787 121.728C136.902 120.613 138.282 120.056 139.929 120.056C141.576 120.056 142.956 120.613 144.071 121.728C145.186 122.843 145.743 124.185 145.743 125.756C145.743 127.352 145.186 128.707 144.071 129.822ZM136.547 125.756C136.547 126.719 136.864 127.529 137.497 128.188C138.13 128.847 138.941 129.176 139.929 129.176C140.917 129.176 141.728 128.847 142.361 128.188C142.994 127.529 143.311 126.719 143.311 125.756C143.311 124.793 142.994 123.983 142.361 123.324C141.728 122.665 140.917 122.336 139.929 122.336C138.941 122.336 138.13 122.665 137.497 123.324C136.864 123.983 136.547 124.793 136.547 125.756ZM164.742 118.84V128.492H177.662V131H162.082V104.4H177.472V106.908H164.742V116.332H176.522V118.84H164.742ZM200.055 117.32L211.493 131H208.377L197.433 118.004V131H194.773V118.004L183.829 131H180.713L192.151 117.32L181.093 104.4H184.209L194.773 116.674V104.4H197.433V116.674L207.997 104.4H211.113L200.055 117.32ZM218.698 118.84V128.492H231.618V131H216.038V104.4H231.428V106.908H218.698V116.332H230.478V118.84H218.698ZM257.962 104.4H261.268V131H258.608V108.428L249.298 124.008H248.918L239.608 108.428V131H236.948V104.4H240.254L249.108 119.22L257.962 104.4ZM270.761 118.84V128.492H283.681V131H268.101V104.4H283.491V106.908H270.761V116.332H282.541V118.84H270.761ZM301.252 131.456C297.198 131.456 293.867 130.126 291.258 127.466C288.623 124.781 287.306 121.525 287.306 117.7C287.306 113.875 288.623 110.619 291.258 107.934C293.867 105.274 297.198 103.944 301.252 103.944C303.684 103.944 305.926 104.539 307.978 105.73C310.03 106.895 311.626 108.479 312.766 110.48L310.41 111.848C309.574 110.227 308.332 108.935 306.686 107.972C305.039 107.009 303.228 106.528 301.252 106.528C297.908 106.528 295.197 107.605 293.12 109.758C291.017 111.937 289.966 114.584 289.966 117.7C289.966 120.816 291.017 123.463 293.12 125.642C295.197 127.795 297.908 128.872 301.252 128.872C303.228 128.872 305.039 128.391 306.686 127.428C308.332 126.465 309.574 125.173 310.41 123.552L312.766 124.882C311.676 126.883 310.093 128.479 308.016 129.67C305.938 130.861 303.684 131.456 301.252 131.456ZM324.369 104.4H335.009V131H332.349V120.36H325.965L318.669 131H315.629L323.039 120.246C321.088 119.891 319.505 118.992 318.289 117.548C317.022 116.053 316.389 114.331 316.389 112.38C316.389 110.176 317.162 108.301 318.707 106.756C320.278 105.185 322.165 104.4 324.369 104.4ZM324.369 117.852H332.349V106.908H324.369C322.9 106.908 321.646 107.44 320.607 108.504C319.568 109.593 319.049 110.885 319.049 112.38C319.049 113.849 319.568 115.141 320.607 116.256C321.646 117.32 322.9 117.852 324.369 117.852ZM356.864 117.282V104.4H359.524V131H356.864V119.79C354.558 120.93 352.152 121.5 349.644 121.5C347.136 121.5 345.109 120.791 343.564 119.372C342.044 117.953 341.284 116.129 341.284 113.9V104.4H343.944V113.9C343.944 115.445 344.45 116.687 345.464 117.624C346.477 118.536 347.87 118.992 349.644 118.992C352.152 118.992 354.558 118.422 356.864 117.282ZM383.464 116.066V104.4H386.124V131H383.464V118.574H369.024V131H366.364V104.4H369.024V116.066H383.464ZM414.954 127.466C412.294 130.126 409.038 131.456 405.188 131.456C401.337 131.456 398.082 130.126 395.422 127.466C392.762 124.755 391.432 121.5 391.432 117.7C391.432 113.875 392.762 110.632 395.422 107.972C398.082 105.287 401.337 103.944 405.188 103.944C409.038 103.944 412.294 105.287 414.954 107.972C417.614 110.632 418.944 113.875 418.944 117.7C418.944 121.5 417.614 124.755 414.954 127.466ZM394.092 117.7C394.092 120.841 395.156 123.489 397.284 125.642C399.412 127.795 402.046 128.872 405.188 128.872C408.329 128.872 410.964 127.795 413.092 125.642C415.22 123.489 416.284 120.841 416.284 117.7C416.284 114.584 415.22 111.949 413.092 109.796C410.964 107.617 408.329 106.528 405.188 106.528C402.046 106.528 399.412 107.617 397.284 109.796C395.156 111.949 394.092 114.584 394.092 117.7Z" fill="#F3F3F3"/>
<path d="M43.3 180.96V186.548H50.78V188H41.76V172.6H50.67V174.052H43.3V179.508H50.12V180.96H43.3ZM61.566 182.28L66.494 188H64.734L60.246 182.698V188H58.794V182.698L54.306 188H52.546L57.474 182.28L52.766 177H54.526L58.794 181.884V177H60.246V181.884L64.514 177H66.274L61.566 182.28ZM73.1114 176.736C74.754 176.736 76.0667 177.315 77.0494 178.474C78.0614 179.618 78.5674 180.975 78.5674 182.544C78.5674 182.617 78.5527 182.845 78.5234 183.226H68.8654C69.012 184.326 69.4814 185.206 70.2734 185.866C71.0654 186.526 72.0554 186.856 73.2434 186.856C74.9154 186.856 76.096 186.233 76.7854 184.986L78.0614 185.734C77.5774 186.526 76.91 187.149 76.0594 187.604C75.2234 188.044 74.2774 188.264 73.2214 188.264C71.4907 188.264 70.0827 187.721 68.9974 186.636C67.912 185.551 67.3694 184.172 67.3694 182.5C67.3694 180.843 67.9047 179.471 68.9754 178.386C70.046 177.286 71.4247 176.736 73.1114 176.736ZM73.1114 178.144C71.9674 178.144 71.0067 178.481 70.2294 179.156C69.4667 179.831 69.012 180.718 68.8654 181.818H77.0714C76.91 180.645 76.4627 179.743 75.7294 179.112C74.9667 178.467 74.094 178.144 73.1114 178.144ZM90.425 177H92.097V188H90.645V179.222L86.795 185.47H86.619L82.769 179.222V188H81.317V177H82.989L86.707 183.028L90.425 177ZM100.696 176.736C102.339 176.736 103.652 177.315 104.634 178.474C105.646 179.618 106.152 180.975 106.152 182.544C106.152 182.617 106.138 182.845 106.108 183.226H96.4505C96.5971 184.326 97.0665 185.206 97.8585 185.866C98.6505 186.526 99.6405 186.856 100.828 186.856C102.5 186.856 103.681 186.233 104.37 184.986L105.646 185.734C105.162 186.526 104.495 187.149 103.644 187.604C102.808 188.044 101.862 188.264 100.806 188.264C99.0758 188.264 97.6678 187.721 96.5825 186.636C95.4971 185.551 94.9545 184.172 94.9545 182.5C94.9545 180.843 95.4898 179.471 96.5605 178.386C97.6311 177.286 99.0098 176.736 100.696 176.736ZM100.696 178.144C99.5525 178.144 98.5918 178.481 97.8145 179.156C97.0518 179.831 96.5971 180.718 96.4505 181.818H104.656C104.495 180.645 104.048 179.743 103.314 179.112C102.552 178.467 101.679 178.144 100.696 178.144ZM114.028 188.264C112.371 188.264 110.992 187.714 109.892 186.614C108.792 185.485 108.242 184.113 108.242 182.5C108.242 180.872 108.792 179.508 109.892 178.408C110.992 177.293 112.371 176.736 114.028 176.736C115.113 176.736 116.089 177 116.954 177.528C117.819 178.041 118.45 178.738 118.846 179.618L117.658 180.3C117.365 179.64 116.888 179.119 116.228 178.738C115.583 178.342 114.849 178.144 114.028 178.144C112.811 178.144 111.784 178.569 110.948 179.42C110.112 180.256 109.694 181.283 109.694 182.5C109.694 183.703 110.112 184.737 110.948 185.602C111.784 186.438 112.811 186.856 114.028 186.856C114.835 186.856 115.561 186.665 116.206 186.284C116.866 185.903 117.379 185.375 117.746 184.7L118.956 185.404C118.501 186.284 117.834 186.981 116.954 187.494C116.074 188.007 115.099 188.264 114.028 188.264ZM124.72 177H129.186V188H127.734V183.776H125.842L122.454 188H120.606L124.082 183.732C123.187 183.6 122.454 183.233 121.882 182.632C121.325 182.016 121.046 181.275 121.046 180.41C121.046 179.427 121.398 178.613 122.102 177.968C122.835 177.323 123.708 177 124.72 177ZM124.72 182.412H127.734V178.408H124.72C124.089 178.408 123.561 178.599 123.136 178.98C122.711 179.347 122.498 179.823 122.498 180.41C122.498 180.997 122.711 181.481 123.136 181.862C123.561 182.229 124.089 182.412 124.72 182.412ZM139.834 182.478V177H141.286V188H139.834V183.82C138.983 184.26 137.935 184.48 136.688 184.48C135.236 184.48 134.136 184.15 133.388 183.49C132.64 182.815 132.266 181.825 132.266 180.52V177H133.718V180.52C133.718 181.429 133.953 182.089 134.422 182.5C134.906 182.911 135.647 183.116 136.644 183.116C137.759 183.116 138.822 182.903 139.834 182.478ZM152.6 181.796V177H154.052V188H152.6V183.204H146.264V188H144.812V177H146.264V181.796H152.6ZM166.78 186.614C165.651 187.714 164.287 188.264 162.688 188.264C161.06 188.264 159.689 187.714 158.574 186.614C157.46 185.499 156.902 184.128 156.902 182.5C156.902 180.872 157.46 179.508 158.574 178.408C159.689 177.293 161.06 176.736 162.688 176.736C164.302 176.736 165.666 177.293 166.78 178.408C167.91 179.508 168.475 180.872 168.475 182.5C168.475 184.113 167.91 185.485 166.78 186.614ZM159.608 185.602C160.444 186.438 161.471 186.856 162.688 186.856C163.906 186.856 164.932 186.438 165.768 185.602C166.604 184.737 167.022 183.703 167.022 182.5C167.022 181.283 166.604 180.256 165.768 179.42C164.932 178.569 163.906 178.144 162.688 178.144C161.471 178.144 160.444 178.569 159.608 179.42C158.772 180.256 158.354 181.283 158.354 182.5C158.354 183.703 158.772 184.737 159.608 185.602ZM182.41 188.264C180.753 188.264 179.374 187.714 178.274 186.614C177.174 185.485 176.624 184.113 176.624 182.5C176.624 180.872 177.174 179.508 178.274 178.408C179.374 177.293 180.753 176.736 182.41 176.736C183.496 176.736 184.471 177 185.336 177.528C186.202 178.041 186.832 178.738 187.228 179.618L186.04 180.3C185.747 179.64 185.27 179.119 184.61 178.738C183.965 178.342 183.232 178.144 182.41 178.144C181.193 178.144 180.166 178.569 179.33 179.42C178.494 180.256 178.076 181.283 178.076 182.5C178.076 183.703 178.494 184.737 179.33 185.602C180.166 186.438 181.193 186.856 182.41 186.856C183.217 186.856 183.943 186.665 184.588 186.284C185.248 185.903 185.762 185.375 186.128 184.7L187.338 185.404C186.884 186.284 186.216 186.981 185.336 187.494C184.456 188.007 183.481 188.264 182.41 188.264ZM198.974 186.614C197.844 187.714 196.48 188.264 194.882 188.264C193.254 188.264 191.882 187.714 190.768 186.614C189.653 185.499 189.096 184.128 189.096 182.5C189.096 180.872 189.653 179.508 190.768 178.408C191.882 177.293 193.254 176.736 194.882 176.736C196.495 176.736 197.859 177.293 198.974 178.408C200.103 179.508 200.668 180.872 200.668 182.5C200.668 184.113 200.103 185.485 198.974 186.614ZM191.802 185.602C192.638 186.438 193.664 186.856 194.882 186.856C196.099 186.856 197.126 186.438 197.962 185.602C198.798 184.737 199.216 183.703 199.216 182.5C199.216 181.283 198.798 180.256 197.962 179.42C197.126 178.569 196.099 178.144 194.882 178.144C193.664 178.144 192.638 178.569 191.802 179.42C190.966 180.256 190.548 181.283 190.548 182.5C190.548 183.703 190.966 184.737 191.802 185.602ZM214.603 188.264C212.946 188.264 211.567 187.714 210.467 186.614C209.367 185.485 208.817 184.113 208.817 182.5C208.817 180.872 209.367 179.508 210.467 178.408C211.567 177.293 212.946 176.736 214.603 176.736C215.689 176.736 216.664 177 217.529 177.528C218.395 178.041 219.025 178.738 219.421 179.618L218.233 180.3C217.94 179.64 217.463 179.119 216.803 178.738C216.158 178.342 215.425 178.144 214.603 178.144C213.386 178.144 212.359 178.569 211.523 179.42C210.687 180.256 210.269 181.283 210.269 182.5C210.269 183.703 210.687 184.737 211.523 185.602C212.359 186.438 213.386 186.856 214.603 186.856C215.41 186.856 216.136 186.665 216.781 186.284C217.441 185.903 217.955 185.375 218.321 184.7L219.531 185.404C219.077 186.284 218.409 186.981 217.529 187.494C216.649 188.007 215.674 188.264 214.603 188.264ZM222.985 177H230.861V188H229.409V178.408H224.437V183.314C224.437 185.147 224.085 186.409 223.381 187.098C222.692 187.787 221.739 188.088 220.521 188V186.636C221.372 186.724 221.995 186.519 222.391 186.02C222.787 185.521 222.985 184.619 222.985 183.314V177ZM239.459 176.736C241.102 176.736 242.414 177.315 243.397 178.474C244.409 179.618 244.915 180.975 244.915 182.544C244.915 182.617 244.9 182.845 244.871 183.226H235.213C235.36 184.326 235.829 185.206 236.621 185.866C237.413 186.526 238.403 186.856 239.591 186.856C241.263 186.856 242.444 186.233 243.133 184.986L244.409 185.734C243.925 186.526 243.258 187.149 242.407 187.604C241.571 188.044 240.625 188.264 239.569 188.264C237.838 188.264 236.43 187.721 235.345 186.636C234.26 185.551 233.717 184.172 233.717 182.5C233.717 180.843 234.252 179.471 235.323 178.386C236.394 177.286 237.772 176.736 239.459 176.736ZM239.459 178.144C238.315 178.144 237.354 178.481 236.577 179.156C235.814 179.831 235.36 180.718 235.213 181.818H243.419C243.258 180.645 242.81 179.743 242.077 179.112C241.314 178.467 240.442 178.144 239.459 178.144ZM256.475 177V186.592H258.015V190.948H256.563V188H247.587V190.948H246.135V186.592H247.477C248.225 185.595 248.599 184.209 248.599 182.434V177H256.475ZM249.237 186.592H255.023V178.408H250.051V182.434C250.051 184.135 249.78 185.521 249.237 186.592ZM264.578 186.218L268.142 177H269.682L264.974 189.012C264.534 190.127 263.918 190.985 263.126 191.586C262.348 192.202 261.483 192.473 260.53 192.4V191.036C261.85 191.197 262.854 190.435 263.544 188.748L263.83 188.066L258.902 177H260.442L264.578 186.218ZM281.271 176.736C282.884 176.736 284.248 177.293 285.363 178.408C286.492 179.508 287.057 180.872 287.057 182.5C287.057 184.113 286.492 185.485 285.363 186.614C284.233 187.714 282.869 188.264 281.271 188.264C279.804 188.264 278.528 187.787 277.443 186.834C276.372 185.851 275.763 184.641 275.617 183.204H273.329V188H271.877V177H273.329V181.796H275.617C275.778 180.344 276.387 179.141 277.443 178.188C278.513 177.22 279.789 176.736 281.271 176.736ZM278.191 185.602C279.027 186.438 280.053 186.856 281.271 186.856C282.488 186.856 283.515 186.438 284.351 185.602C285.187 184.737 285.605 183.703 285.605 182.5C285.605 181.283 285.187 180.256 284.351 179.42C283.515 178.569 282.488 178.144 281.271 178.144C280.053 178.144 279.027 178.569 278.191 179.42C277.355 180.256 276.937 181.283 276.937 182.5C276.937 183.703 277.355 184.737 278.191 185.602ZM304.652 177V186.592H306.192V190.948H304.74V188H289.912V177H291.364V186.592H296.556V177H298.008V186.592H303.2V177H304.652ZM313.481 176.736C315.124 176.736 316.436 177.315 317.419 178.474C318.431 179.618 318.937 180.975 318.937 182.544C318.937 182.617 318.922 182.845 318.893 183.226H309.235C309.382 184.326 309.851 185.206 310.643 185.866C311.435 186.526 312.425 186.856 313.613 186.856C315.285 186.856 316.466 186.233 317.155 184.986L318.431 185.734C317.947 186.526 317.28 187.149 316.429 187.604C315.593 188.044 314.647 188.264 313.591 188.264C311.86 188.264 310.452 187.721 309.367 186.636C308.282 185.551 307.739 184.172 307.739 182.5C307.739 180.843 308.274 179.471 309.345 178.386C310.416 177.286 311.794 176.736 313.481 176.736ZM313.481 178.144C312.337 178.144 311.376 178.481 310.599 179.156C309.836 179.831 309.382 180.718 309.235 181.818H317.441C317.28 180.645 316.832 179.743 316.099 179.112C315.336 178.467 314.464 178.144 313.481 178.144ZM321.687 177H328.727V178.408H323.139V188H321.687V177ZM339.724 186.614C338.594 187.714 337.23 188.264 335.632 188.264C334.004 188.264 332.632 187.714 331.518 186.614C330.403 185.499 329.846 184.128 329.846 182.5C329.846 180.872 330.403 179.508 331.518 178.408C332.632 177.293 334.004 176.736 335.632 176.736C337.245 176.736 338.609 177.293 339.724 178.408C340.853 179.508 341.418 180.872 341.418 182.5C341.418 184.113 340.853 185.485 339.724 186.614ZM332.552 185.602C333.388 186.438 334.414 186.856 335.632 186.856C336.849 186.856 337.876 186.438 338.712 185.602C339.548 184.737 339.966 183.703 339.966 182.5C339.966 181.283 339.548 180.256 338.712 179.42C337.876 178.569 336.849 178.144 335.632 178.144C334.414 178.144 333.388 178.569 332.552 179.42C331.716 180.256 331.298 181.283 331.298 182.5C331.298 183.703 331.716 184.737 332.552 185.602ZM359.336 177H361.008V188H359.556V179.222L355.706 185.47H355.53L351.68 179.222V188H350.228V177H351.9L355.618 183.028L359.336 177ZM369.607 176.736C371.25 176.736 372.562 177.315 373.545 178.474C374.557 179.618 375.063 180.975 375.063 182.544C375.063 182.617 375.048 182.845 375.019 183.226H365.361C365.508 184.326 365.977 185.206 366.769 185.866C367.561 186.526 368.551 186.856 369.739 186.856C371.411 186.856 372.592 186.233 373.281 184.986L374.557 185.734C374.073 186.526 373.406 187.149 372.555 187.604C371.719 188.044 370.773 188.264 369.717 188.264C367.986 188.264 366.578 187.721 365.493 186.636C364.408 185.551 363.865 184.172 363.865 182.5C363.865 180.843 364.4 179.471 365.471 178.386C366.542 177.286 367.92 176.736 369.607 176.736ZM369.607 178.144C368.463 178.144 367.502 178.481 366.725 179.156C365.962 179.831 365.508 180.718 365.361 181.818H373.567C373.406 180.645 372.958 179.743 372.225 179.112C371.462 178.467 370.59 178.144 369.607 178.144ZM382.939 188.264C381.281 188.264 379.903 187.714 378.803 186.614C377.703 185.485 377.153 184.113 377.153 182.5C377.153 180.872 377.703 179.508 378.803 178.408C379.903 177.293 381.281 176.736 382.939 176.736C384.024 176.736 384.999 177 385.865 177.528C386.73 178.041 387.361 178.738 387.757 179.618L386.569 180.3C386.275 179.64 385.799 179.119 385.139 178.738C384.493 178.342 383.76 178.144 382.939 178.144C381.721 178.144 380.695 178.569 379.859 179.42C379.023 180.256 378.605 181.283 378.605 182.5C378.605 183.703 379.023 184.737 379.859 185.602C380.695 186.438 381.721 186.856 382.939 186.856C383.745 186.856 384.471 186.665 385.117 186.284C385.777 185.903 386.29 185.375 386.657 184.7L387.867 185.404C387.412 186.284 386.745 186.981 385.865 187.494C384.985 188.007 384.009 188.264 382.939 188.264ZM393.63 177H398.096V188H396.644V183.776H394.752L391.364 188H389.516L392.992 183.732C392.098 183.6 391.364 183.233 390.792 182.632C390.235 182.016 389.956 181.275 389.956 180.41C389.956 179.427 390.308 178.613 391.012 177.968C391.746 177.323 392.618 177 393.63 177ZM393.63 182.412H396.644V178.408H393.63C393 178.408 392.472 178.599 392.046 178.98C391.621 179.347 391.408 179.823 391.408 180.41C391.408 180.997 391.621 181.481 392.046 181.862C392.472 182.229 393 182.412 393.63 182.412ZM410.636 177V186.592H412.396V190.948H410.944V188H401.616V177H403.068V186.592H409.184V177H410.636ZM424.063 179.156V177H425.515V188H424.063V185.844C423.051 187.457 421.57 188.264 419.619 188.264C418.05 188.264 416.708 187.707 415.593 186.592C414.493 185.477 413.943 184.113 413.943 182.5C413.943 180.887 414.493 179.523 415.593 178.408C416.708 177.293 418.05 176.736 419.619 176.736C421.57 176.736 423.051 177.543 424.063 179.156ZM416.649 185.602C417.485 186.438 418.512 186.856 419.729 186.856C420.947 186.856 421.973 186.438 422.809 185.602C423.645 184.737 424.063 183.703 424.063 182.5C424.063 181.283 423.645 180.256 422.809 179.42C421.973 178.569 420.947 178.144 419.729 178.144C418.512 178.144 417.485 178.569 416.649 179.42C415.813 180.256 415.395 181.283 415.395 182.5C415.395 183.703 415.813 184.737 416.649 185.602ZM434.97 177H444.21V188H442.758V178.408H436.422V188H434.97V177ZM456.938 186.614C455.809 187.714 454.445 188.264 452.846 188.264C451.218 188.264 449.847 187.714 448.732 186.614C447.617 185.499 447.06 184.128 447.06 182.5C447.06 180.872 447.617 179.508 448.732 178.408C449.847 177.293 451.218 176.736 452.846 176.736C454.459 176.736 455.823 177.293 456.938 178.408C458.067 179.508 458.632 180.872 458.632 182.5C458.632 184.113 458.067 185.485 456.938 186.614ZM449.766 185.602C450.602 186.438 451.629 186.856 452.846 186.856C454.063 186.856 455.09 186.438 455.926 185.602C456.762 184.737 457.18 183.703 457.18 182.5C457.18 181.283 456.762 180.256 455.926 179.42C455.09 178.569 454.063 178.144 452.846 178.144C451.629 178.144 450.602 178.569 449.766 179.42C448.93 180.256 448.512 181.283 448.512 182.5C448.512 183.703 448.93 184.737 449.766 185.602ZM466.628 188.264C464.971 188.264 463.592 187.714 462.492 186.614C461.392 185.485 460.842 184.113 460.842 182.5C460.842 180.872 461.392 179.508 462.492 178.408C463.592 177.293 464.971 176.736 466.628 176.736C467.713 176.736 468.689 177 469.554 177.528C470.419 178.041 471.05 178.738 471.446 179.618L470.258 180.3C469.965 179.64 469.488 179.119 468.828 178.738C468.183 178.342 467.449 178.144 466.628 178.144C465.411 178.144 464.384 178.569 463.548 179.42C462.712 180.256 462.294 181.283 462.294 182.5C462.294 183.703 462.712 184.737 463.548 185.602C464.384 186.438 465.411 186.856 466.628 186.856C467.435 186.856 468.161 186.665 468.806 186.284C469.466 185.903 469.979 185.375 470.346 184.7L471.556 185.404C471.101 186.284 470.434 186.981 469.554 187.494C468.674 188.007 467.699 188.264 466.628 188.264ZM475.01 177H482.886V188H481.434V178.408H476.462V183.314C476.462 185.147 476.11 186.409 475.406 187.098C474.716 187.787 473.763 188.088 472.546 188V186.636C473.396 186.724 474.02 186.519 474.416 186.02C474.812 185.521 475.01 184.619 475.01 183.314V177ZM491.483 176.736C493.126 176.736 494.439 177.315 495.421 178.474C496.433 179.618 496.939 180.975 496.939 182.544C496.939 182.617 496.925 182.845 496.895 183.226H487.237C487.384 184.326 487.853 185.206 488.645 185.866C489.437 186.526 490.427 186.856 491.615 186.856C493.287 186.856 494.468 186.233 495.157 184.986L496.433 185.734C495.949 186.526 495.282 187.149 494.431 187.604C493.595 188.044 492.649 188.264 491.593 188.264C489.863 188.264 488.455 187.721 487.369 186.636C486.284 185.551 485.741 184.172 485.741 182.5C485.741 180.843 486.277 179.471 487.347 178.386C488.418 177.286 489.797 176.736 491.483 176.736ZM491.483 178.144C490.339 178.144 489.379 178.481 488.601 179.156C487.839 179.831 487.384 180.718 487.237 181.818H495.443C495.282 180.645 494.835 179.743 494.101 179.112C493.339 178.467 492.466 178.144 491.483 178.144ZM41.54 207H50.78V218H49.328V208.408H42.992V218H41.54V207ZM63.5085 216.614C62.3792 217.714 61.0152 218.264 59.4165 218.264C57.7885 218.264 56.4172 217.714 55.3025 216.614C54.1879 215.499 53.6305 214.128 53.6305 212.5C53.6305 210.872 54.1879 209.508 55.3025 208.408C56.4172 207.293 57.7885 206.736 59.4165 206.736C61.0299 206.736 62.3939 207.293 63.5085 208.408C64.6379 209.508 65.2025 210.872 65.2025 212.5C65.2025 214.113 64.6379 215.485 63.5085 216.614ZM56.3365 215.602C57.1725 216.438 58.1992 216.856 59.4165 216.856C60.6339 216.856 61.6605 216.438 62.4965 215.602C63.3325 214.737 63.7505 213.703 63.7505 212.5C63.7505 211.283 63.3325 210.256 62.4965 209.42C61.6605 208.569 60.6339 208.144 59.4165 208.144C58.1992 208.144 57.1725 208.569 56.3365 209.42C55.5005 210.256 55.0825 211.283 55.0825 212.5C55.0825 213.703 55.5005 214.737 56.3365 215.602ZM71.0643 212.28L76.9603 218H75.0243L69.5243 212.698V218H68.0723V207H69.5243V211.862L74.7603 207H76.7403L71.0643 212.28ZM83.3097 216.218L86.8737 207H88.4137L83.7057 219.012C83.2657 220.127 82.6497 220.985 81.8577 221.586C81.0804 222.202 80.2151 222.473 79.2617 222.4V221.036C80.5817 221.197 81.5864 220.435 82.2758 218.748L82.5617 218.066L77.6337 207H79.1737L83.3097 216.218ZM90.6086 207H99.8486V218H98.3966V208.408H92.0606V218H90.6086V207ZM106.351 212.28L112.247 218H110.311L104.811 212.698V218H103.359V207H104.811V211.862L110.047 207H112.027L106.351 212.28ZM116.122 215.47L122.678 207H123.91V218H122.458V209.53L115.902 218H114.67V207H116.122V215.47ZM129.621 217.01C129.621 217.347 129.503 217.633 129.269 217.868C129.034 218.103 128.748 218.22 128.411 218.22C128.073 218.22 127.787 218.103 127.553 217.868C127.318 217.633 127.201 217.347 127.201 217.01C127.201 216.673 127.318 216.387 127.553 216.152C127.787 215.917 128.073 215.8 128.411 215.8C128.748 215.8 129.034 215.917 129.269 216.152C129.503 216.387 129.621 216.673 129.621 217.01ZM151.829 215.954C150.289 217.494 148.404 218.264 146.175 218.264C143.946 218.264 142.061 217.494 140.521 215.954C138.981 214.385 138.211 212.5 138.211 210.3C138.211 208.085 138.981 206.208 140.521 204.668C142.061 203.113 143.946 202.336 146.175 202.336C148.404 202.336 150.289 203.113 151.829 204.668C153.369 206.208 154.139 208.085 154.139 210.3C154.139 212.5 153.369 214.385 151.829 215.954ZM139.751 210.3C139.751 212.119 140.367 213.651 141.599 214.898C142.831 216.145 144.356 216.768 146.175 216.768C147.994 216.768 149.519 216.145 150.751 214.898C151.983 213.651 152.599 212.119 152.599 210.3C152.599 208.496 151.983 206.971 150.751 205.724C149.519 204.463 147.994 203.832 146.175 203.832C144.356 203.832 142.831 204.463 141.599 205.724C140.367 206.971 139.751 208.496 139.751 210.3ZM155.673 207H164.913V208.408H161.019V218H159.567V208.408H155.673V207ZM171.818 218.264C170.161 218.264 168.782 217.714 167.682 216.614C166.582 215.485 166.032 214.113 166.032 212.5C166.032 210.872 166.582 209.508 167.682 208.408C168.782 207.293 170.161 206.736 171.818 206.736C172.904 206.736 173.879 207 174.744 207.528C175.61 208.041 176.24 208.738 176.636 209.618L175.448 210.3C175.155 209.64 174.678 209.119 174.018 208.738C173.373 208.342 172.64 208.144 171.818 208.144C170.601 208.144 169.574 208.569 168.738 209.42C167.902 210.256 167.484 211.283 167.484 212.5C167.484 213.703 167.902 214.737 168.738 215.602C169.574 216.438 170.601 216.856 171.818 216.856C172.625 216.856 173.351 216.665 173.996 216.284C174.656 215.903 175.17 215.375 175.536 214.7L176.746 215.404C176.292 216.284 175.624 216.981 174.744 217.494C173.864 218.007 172.889 218.264 171.818 218.264ZM180.2 207H188.076V218H186.624V208.408H181.652V213.314C181.652 215.147 181.3 216.409 180.596 217.098C179.907 217.787 178.954 218.088 177.736 218V216.636C178.587 216.724 179.21 216.519 179.606 216.02C180.002 215.521 180.2 214.619 180.2 213.314V207ZM196.674 206.736C198.317 206.736 199.629 207.315 200.612 208.474C201.624 209.618 202.13 210.975 202.13 212.544C202.13 212.617 202.115 212.845 202.086 213.226H192.428C192.575 214.326 193.044 215.206 193.836 215.866C194.628 216.526 195.618 216.856 196.806 216.856C198.478 216.856 199.659 216.233 200.348 214.986L201.624 215.734C201.14 216.526 200.473 217.149 199.622 217.604C198.786 218.044 197.84 218.264 196.784 218.264C195.053 218.264 193.645 217.721 192.56 216.636C191.475 215.551 190.932 214.172 190.932 212.5C190.932 210.843 191.467 209.471 192.538 208.386C193.609 207.286 194.987 206.736 196.674 206.736ZM196.674 208.144C195.53 208.144 194.569 208.481 193.792 209.156C193.029 209.831 192.575 210.718 192.428 211.818H200.634C200.473 210.645 200.025 209.743 199.292 209.112C198.529 208.467 197.657 208.144 196.674 208.144ZM212.134 212.28L217.062 218H215.302L210.814 212.698V218H209.362V212.698L204.874 218H203.114L208.042 212.28L203.334 207H205.094L209.362 211.884V207H210.814V211.884L215.082 207H216.842L212.134 212.28ZM220.93 215.47L227.486 207H228.718V218H227.266V209.53L220.71 218H219.478V207H220.93V215.47ZM239.224 212.346C240.427 212.786 241.028 213.644 241.028 214.92C241.028 215.829 240.72 216.57 240.104 217.142C239.503 217.714 238.66 218 237.574 218H232.228V207H237.134C238.19 207 239.012 207.271 239.598 207.814C240.2 208.357 240.5 209.068 240.5 209.948C240.5 211.048 240.075 211.847 239.224 212.346ZM237.134 208.408H233.68V211.752H237.134C238.41 211.752 239.048 211.18 239.048 210.036C239.048 209.523 238.88 209.127 238.542 208.848C238.22 208.555 237.75 208.408 237.134 208.408ZM233.68 216.592H237.574C238.22 216.592 238.711 216.438 239.048 216.13C239.4 215.822 239.576 215.389 239.576 214.832C239.576 214.304 239.4 213.893 239.048 213.6C238.711 213.307 238.22 213.16 237.574 213.16H233.68V216.592ZM253.128 209.156V207H254.58V218H253.128V215.844C252.116 217.457 250.635 218.264 248.684 218.264C247.115 218.264 245.773 217.707 244.658 216.592C243.558 215.477 243.008 214.113 243.008 212.5C243.008 210.887 243.558 209.523 244.658 208.408C245.773 207.293 247.115 206.736 248.684 206.736C250.635 206.736 252.116 207.543 253.128 209.156ZM245.714 215.602C246.55 216.438 247.577 216.856 248.794 216.856C250.012 216.856 251.038 216.438 251.874 215.602C252.71 214.737 253.128 213.703 253.128 212.5C253.128 211.283 252.71 210.256 251.874 209.42C251.038 208.569 250.012 208.144 248.794 208.144C247.577 208.144 246.55 208.569 245.714 209.42C244.878 210.256 244.46 211.283 244.46 212.5C244.46 213.703 244.878 214.737 245.714 215.602ZM265.575 205.24H259.855V203.964H265.575V205.24ZM259.547 215.47L266.103 207H267.335V218H265.883V209.53L259.327 218H258.095V207H259.547V215.47ZM269.525 207H278.765V208.408H274.871V218H273.419V208.408H269.525V207ZM285.627 206.736C287.27 206.736 288.582 207.315 289.565 208.474C290.577 209.618 291.083 210.975 291.083 212.544C291.083 212.617 291.068 212.845 291.039 213.226H281.381C281.528 214.326 281.997 215.206 282.789 215.866C283.581 216.526 284.571 216.856 285.759 216.856C287.431 216.856 288.612 216.233 289.301 214.986L290.577 215.734C290.093 216.526 289.426 217.149 288.575 217.604C287.739 218.044 286.793 218.264 285.737 218.264C284.006 218.264 282.598 217.721 281.513 216.636C280.428 215.551 279.885 214.172 279.885 212.5C279.885 210.843 280.42 209.471 281.491 208.386C282.562 207.286 283.94 206.736 285.627 206.736ZM285.627 208.144C284.483 208.144 283.522 208.481 282.745 209.156C281.982 209.831 281.528 210.718 281.381 211.818H289.587C289.426 210.645 288.978 209.743 288.245 209.112C287.482 208.467 286.61 208.144 285.627 208.144ZM304.899 218.264C303.241 218.264 301.863 217.714 300.763 216.614C299.663 215.485 299.113 214.113 299.113 212.5C299.113 210.872 299.663 209.508 300.763 208.408C301.863 207.293 303.241 206.736 304.899 206.736C305.984 206.736 306.959 207 307.825 207.528C308.69 208.041 309.321 208.738 309.717 209.618L308.529 210.3C308.235 209.64 307.759 209.119 307.099 208.738C306.453 208.342 305.72 208.144 304.899 208.144C303.681 208.144 302.655 208.569 301.819 209.42C300.983 210.256 300.565 211.283 300.565 212.5C300.565 213.703 300.983 214.737 301.819 215.602C302.655 216.438 303.681 216.856 304.899 216.856C305.705 216.856 306.431 216.665 307.077 216.284C307.737 215.903 308.25 215.375 308.617 214.7L309.827 215.404C309.372 216.284 308.705 216.981 307.825 217.494C306.945 218.007 305.969 218.264 304.899 218.264ZM321.462 216.614C320.333 217.714 318.969 218.264 317.37 218.264C315.742 218.264 314.371 217.714 313.256 216.614C312.141 215.499 311.584 214.128 311.584 212.5C311.584 210.872 312.141 209.508 313.256 208.408C314.371 207.293 315.742 206.736 317.37 206.736C318.983 206.736 320.347 207.293 321.462 208.408C322.591 209.508 323.156 210.872 323.156 212.5C323.156 214.113 322.591 215.485 321.462 216.614ZM314.29 215.602C315.126 216.438 316.153 216.856 317.37 216.856C318.587 216.856 319.614 216.438 320.45 215.602C321.286 214.737 321.704 213.703 321.704 212.5C321.704 211.283 321.286 210.256 320.45 209.42C319.614 208.569 318.587 208.144 317.37 208.144C316.153 208.144 315.126 208.569 314.29 209.42C313.454 210.256 313.036 211.283 313.036 212.5C313.036 213.703 313.454 214.737 314.29 215.602ZM331.152 218.264C329.494 218.264 328.116 217.714 327.016 216.614C325.916 215.485 325.366 214.113 325.366 212.5C325.366 210.872 325.916 209.508 327.016 208.408C328.116 207.293 329.494 206.736 331.152 206.736C332.237 206.736 333.212 207 334.078 207.528C334.943 208.041 335.574 208.738 335.97 209.618L334.782 210.3C334.488 209.64 334.012 209.119 333.352 208.738C332.706 208.342 331.973 208.144 331.152 208.144C329.934 208.144 328.908 208.569 328.072 209.42C327.236 210.256 326.818 211.283 326.818 212.5C326.818 213.703 327.236 214.737 328.072 215.602C328.908 216.438 329.934 216.856 331.152 216.856C331.958 216.856 332.684 216.665 333.33 216.284C333.99 215.903 334.503 215.375 334.87 214.7L336.08 215.404C335.625 216.284 334.958 216.981 334.078 217.494C333.198 218.007 332.222 218.264 331.152 218.264ZM337.07 207H346.31V208.408H342.416V218H340.964V208.408H337.07V207ZM357.307 216.614C356.178 217.714 354.814 218.264 353.215 218.264C351.587 218.264 350.216 217.714 349.101 216.614C347.987 215.499 347.429 214.128 347.429 212.5C347.429 210.872 347.987 209.508 349.101 208.408C350.216 207.293 351.587 206.736 353.215 206.736C354.829 206.736 356.193 207.293 357.307 208.408C358.437 209.508 359.001 210.872 359.001 212.5C359.001 214.113 358.437 215.485 357.307 216.614ZM350.135 215.602C350.971 216.438 351.998 216.856 353.215 216.856C354.433 216.856 355.459 216.438 356.295 215.602C357.131 214.737 357.549 213.703 357.549 212.5C357.549 211.283 357.131 210.256 356.295 209.42C355.459 208.569 354.433 208.144 353.215 208.144C351.998 208.144 350.971 208.569 350.135 209.42C349.299 210.256 348.881 211.283 348.881 212.5C348.881 213.703 349.299 214.737 350.135 215.602ZM364.895 207H369.361V218H367.909V213.776H366.017L362.629 218H360.781L364.257 213.732C363.363 213.6 362.629 213.233 362.057 212.632C361.5 212.016 361.221 211.275 361.221 210.41C361.221 209.427 361.573 208.613 362.277 207.968C363.011 207.323 363.883 207 364.895 207ZM364.895 212.412H367.909V208.408H364.895C364.265 208.408 363.737 208.599 363.311 208.98C362.886 209.347 362.673 209.823 362.673 210.41C362.673 210.997 362.886 211.481 363.311 211.862C363.737 212.229 364.265 212.412 364.895 212.412ZM380.669 211.796V207H382.121V218H380.669V213.204H374.333V218H372.881V207H374.333V211.796H380.669ZM387.084 215.47L393.64 207H394.872V218H393.42V209.53L386.864 218H385.632V207H387.084V215.47ZM403.465 206.736C405.107 206.736 406.42 207.315 407.403 208.474C408.415 209.618 408.921 210.975 408.921 212.544C408.921 212.617 408.906 212.845 408.877 213.226H399.219C399.365 214.326 399.835 215.206 400.627 215.866C401.419 216.526 402.409 216.856 403.597 216.856C405.269 216.856 406.449 216.233 407.139 214.986L408.415 215.734C407.931 216.526 407.263 217.149 406.413 217.604C405.577 218.044 404.631 218.264 403.575 218.264C401.844 218.264 400.436 217.721 399.351 216.636C398.265 215.551 397.723 214.172 397.723 212.5C397.723 210.843 398.258 209.471 399.329 208.386C400.399 207.286 401.778 206.736 403.465 206.736ZM403.465 208.144C402.321 208.144 401.36 208.481 400.583 209.156C399.82 209.831 399.365 210.718 399.219 211.818H407.425C407.263 210.645 406.816 209.743 406.083 209.112C405.32 208.467 404.447 208.144 403.465 208.144ZM417.61 207H426.85V218H425.398V208.408H419.062V218H417.61V207ZM439.579 216.614C438.449 217.714 437.085 218.264 435.487 218.264C433.859 218.264 432.487 217.714 431.373 216.614C430.258 215.499 429.701 214.128 429.701 212.5C429.701 210.872 430.258 209.508 431.373 208.408C432.487 207.293 433.859 206.736 435.487 206.736C437.1 206.736 438.464 207.293 439.579 208.408C440.708 209.508 441.273 210.872 441.273 212.5C441.273 214.113 440.708 215.485 439.579 216.614ZM432.407 215.602C433.243 216.438 434.269 216.856 435.487 216.856C436.704 216.856 437.731 216.438 438.567 215.602C439.403 214.737 439.821 213.703 439.821 212.5C439.821 211.283 439.403 210.256 438.567 209.42C437.731 208.569 436.704 208.144 435.487 208.144C434.269 208.144 433.243 208.569 432.407 209.42C431.571 210.256 431.153 211.283 431.153 212.5C431.153 213.703 431.571 214.737 432.407 215.602ZM450.039 206.736C451.608 206.736 452.943 207.293 454.043 208.408C455.157 209.523 455.715 210.887 455.715 212.5C455.715 214.113 455.157 215.477 454.043 216.592C452.943 217.707 451.608 218.264 450.039 218.264C448.088 218.264 446.607 217.457 445.595 215.844V222.4H444.143V207H445.595V209.156C446.607 207.543 448.088 206.736 450.039 206.736ZM446.849 215.602C447.685 216.438 448.711 216.856 449.929 216.856C451.146 216.856 452.173 216.438 453.009 215.602C453.845 214.737 454.263 213.703 454.263 212.5C454.263 211.283 453.845 210.256 453.009 209.42C452.173 208.569 451.146 208.144 449.929 208.144C448.711 208.144 447.685 208.569 446.849 209.42C446.013 210.256 445.595 211.283 445.595 212.5C445.595 213.703 446.013 214.737 446.849 215.602ZM456.819 207H466.059V208.408H462.165V218H460.713V208.408H456.819V207ZM474.395 218.242V222.4H472.943V218.242C471.198 218.081 469.804 217.472 468.763 216.416C467.707 215.331 467.179 214.025 467.179 212.5C467.179 210.975 467.707 209.669 468.763 208.584C469.804 207.528 471.198 206.919 472.943 206.758V202.6H474.395V206.758C476.14 206.919 477.534 207.528 478.575 208.584C479.631 209.669 480.159 210.975 480.159 212.5C480.159 214.025 479.631 215.331 478.575 216.416C477.534 217.472 476.14 218.081 474.395 218.242ZM472.943 216.812V208.188C471.638 208.32 470.589 208.782 469.797 209.574C469.02 210.366 468.631 211.341 468.631 212.5C468.631 213.659 469.02 214.634 469.797 215.426C470.589 216.218 471.638 216.68 472.943 216.812ZM474.395 208.188V216.812C475.7 216.68 476.742 216.218 477.519 215.426C478.311 214.634 478.707 213.659 478.707 212.5C478.707 211.341 478.311 210.366 477.519 209.574C476.742 208.782 475.7 208.32 474.395 208.188ZM488.099 206.736C489.742 206.736 491.055 207.315 492.037 208.474C493.049 209.618 493.555 210.975 493.555 212.544C493.555 212.617 493.541 212.845 493.511 213.226H483.853C484 214.326 484.469 215.206 485.261 215.866C486.053 216.526 487.043 216.856 488.231 216.856C489.903 216.856 491.084 216.233 491.773 214.986L493.049 215.734C492.565 216.526 491.898 217.149 491.047 217.604C490.211 218.044 489.265 218.264 488.209 218.264C486.479 218.264 485.071 217.721 483.985 216.636C482.9 215.551 482.357 214.172 482.357 212.5C482.357 210.843 482.893 209.471 483.963 208.386C485.034 207.286 486.413 206.736 488.099 206.736ZM488.099 208.144C486.955 208.144 485.995 208.481 485.217 209.156C484.455 209.831 484 210.718 483.853 211.818H492.059C491.898 210.645 491.451 209.743 490.717 209.112C489.955 208.467 489.082 208.144 488.099 208.144ZM497.019 207H504.895V218H503.443V208.408H498.471V213.314C498.471 215.147 498.119 216.409 497.415 217.098C496.726 217.787 495.773 218.088 494.555 218V216.636C495.406 216.724 496.029 216.519 496.425 216.02C496.821 215.521 497.019 214.619 497.019 213.314V207ZM511.865 207H516.331V218H514.879V213.776H512.987L509.599 218H507.751L511.227 213.732C510.332 213.6 509.599 213.233 509.027 212.632C508.47 212.016 508.191 211.275 508.191 210.41C508.191 209.427 508.543 208.613 509.247 207.968C509.98 207.323 510.853 207 511.865 207ZM511.865 212.412H514.879V208.408H511.865C511.234 208.408 510.706 208.599 510.281 208.98C509.856 209.347 509.643 209.823 509.643 210.41C509.643 210.997 509.856 211.481 510.281 211.862C510.706 212.229 511.234 212.412 511.865 212.412ZM48.536 242.346C49.7387 242.786 50.34 243.644 50.34 244.92C50.34 245.829 50.032 246.57 49.416 247.142C48.8147 247.714 47.9713 248 46.886 248H41.54V237H46.446C47.502 237 48.3233 237.271 48.91 237.814C49.5113 238.357 49.812 239.068 49.812 239.948C49.812 241.048 49.3867 241.847 48.536 242.346ZM46.446 238.408H42.992V241.752H46.446C47.722 241.752 48.36 241.18 48.36 240.036C48.36 239.523 48.1913 239.127 47.854 238.848C47.5313 238.555 47.062 238.408 46.446 238.408ZM42.992 246.592H46.886C47.5313 246.592 48.0227 246.438 48.36 246.13C48.712 245.822 48.888 245.389 48.888 244.832C48.888 244.304 48.712 243.893 48.36 243.6C48.0227 243.307 47.5313 243.16 46.886 243.16H42.992V246.592ZM60.064 237H67.94V248H66.488V238.408H61.516V243.314C61.516 245.147 61.164 246.409 60.46 247.098C59.7707 247.787 58.8173 248.088 57.6 248V246.636C58.4507 246.724 59.074 246.519 59.47 246.02C59.866 245.521 60.064 244.619 60.064 243.314V237ZM72.9077 245.47L79.4637 237H80.6957V248H79.2437V239.53L72.6877 248H71.4557V237H72.9077V245.47ZM91.3342 242.478V237H92.7862V248H91.3342V243.82C90.4836 244.26 89.4349 244.48 88.1882 244.48C86.7362 244.48 85.6362 244.15 84.8882 243.49C84.1402 242.815 83.7662 241.825 83.7662 240.52V237H85.2182V240.52C85.2182 241.429 85.4529 242.089 85.9222 242.5C86.4062 242.911 87.1469 243.116 88.1442 243.116C89.2589 243.116 90.3222 242.903 91.3342 242.478ZM104.1 241.796V237H105.552V248H104.1V243.204H97.7643V248H96.3123V237H97.7643V241.796H104.1ZM118.281 246.614C117.151 247.714 115.787 248.264 114.189 248.264C112.561 248.264 111.189 247.714 110.075 246.614C108.96 245.499 108.403 244.128 108.403 242.5C108.403 240.872 108.96 239.508 110.075 238.408C111.189 237.293 112.561 236.736 114.189 236.736C115.802 236.736 117.166 237.293 118.281 238.408C119.41 239.508 119.975 240.872 119.975 242.5C119.975 244.113 119.41 245.485 118.281 246.614ZM111.109 245.602C111.945 246.438 112.971 246.856 114.189 246.856C115.406 246.856 116.433 246.438 117.269 245.602C118.105 244.737 118.523 243.703 118.523 242.5C118.523 241.283 118.105 240.256 117.269 239.42C116.433 238.569 115.406 238.144 114.189 238.144C112.971 238.144 111.945 238.569 111.109 239.42C110.273 240.256 109.855 241.283 109.855 242.5C109.855 243.703 110.273 244.737 111.109 245.602ZM131.953 237H133.625V248H132.173V239.222L128.323 245.47H128.147L124.297 239.222V248H122.845V237H124.517L128.235 243.028L131.953 237ZM146.074 242.28L151.97 248H150.034L144.534 242.698V248H143.082V237H144.534V241.862L149.77 237H151.75L146.074 242.28ZM162.757 239.156V237H164.209V248H162.757V245.844C161.745 247.457 160.264 248.264 158.313 248.264C156.744 248.264 155.402 247.707 154.287 246.592C153.187 245.477 152.637 244.113 152.637 242.5C152.637 240.887 153.187 239.523 154.287 238.408C155.402 237.293 156.744 236.736 158.313 236.736C160.264 236.736 161.745 237.543 162.757 239.156ZM155.343 245.602C156.179 246.438 157.206 246.856 158.423 246.856C159.641 246.856 160.667 246.438 161.503 245.602C162.339 244.737 162.757 243.703 162.757 242.5C162.757 241.283 162.339 240.256 161.503 239.42C160.667 238.569 159.641 238.144 158.423 238.144C157.206 238.144 156.179 238.569 155.343 239.42C154.507 240.256 154.089 241.283 154.089 242.5C154.089 243.703 154.507 244.737 155.343 245.602ZM172.608 248.264C171.038 248.264 169.718 247.743 168.648 246.702C167.592 245.646 167.064 244.282 167.064 242.61C167.064 240.733 167.342 239.295 167.9 238.298C168.457 237.286 169.586 236.369 171.288 235.548C171.83 235.299 172.256 235.108 172.564 234.976C173.077 234.771 173.48 234.595 173.774 234.448C175.05 233.861 175.695 233.135 175.71 232.27L176.854 232.93C176.78 233.297 176.663 233.627 176.502 233.92C176.311 234.243 176.12 234.499 175.93 234.69C175.754 234.881 175.475 235.086 175.094 235.306C174.844 235.453 174.544 235.614 174.192 235.79L173.092 236.252L172.058 236.692C171.046 237.132 170.29 237.594 169.792 238.078C169.308 238.547 168.963 239.163 168.758 239.926C169.227 239.295 169.843 238.819 170.606 238.496C171.368 238.159 172.138 237.99 172.916 237.99C174.382 237.99 175.592 238.474 176.546 239.442C177.514 240.395 177.998 241.62 177.998 243.116C177.998 244.597 177.484 245.829 176.458 246.812C175.446 247.78 174.162 248.264 172.608 248.264ZM169.748 245.734C170.51 246.453 171.464 246.812 172.608 246.812C173.752 246.812 174.69 246.467 175.424 245.778C176.172 245.074 176.546 244.187 176.546 243.116C176.546 242.031 176.194 241.143 175.49 240.454C174.8 239.75 173.876 239.398 172.718 239.398C171.676 239.398 170.73 239.728 169.88 240.388C169.029 241.019 168.604 241.884 168.604 242.984C168.604 244.099 168.985 245.015 169.748 245.734ZM182.098 245.47L188.654 237H189.886V248H188.434V239.53L181.878 248H180.646V237H182.098V245.47ZM201.185 241.796V237H202.637V248H201.185V243.204H194.849V248H193.397V237H194.849V241.796H201.185ZM211.229 236.736C212.872 236.736 214.185 237.315 215.167 238.474C216.179 239.618 216.685 240.975 216.685 242.544C216.685 242.617 216.671 242.845 216.641 243.226H206.983C207.13 244.326 207.599 245.206 208.391 245.866C209.183 246.526 210.173 246.856 211.361 246.856C213.033 246.856 214.214 246.233 214.903 244.986L216.179 245.734C215.695 246.526 215.028 247.149 214.177 247.604C213.341 248.044 212.395 248.264 211.339 248.264C209.609 248.264 208.201 247.721 207.115 246.636C206.03 245.551 205.487 244.172 205.487 242.5C205.487 240.843 206.023 239.471 207.093 238.386C208.164 237.286 209.543 236.736 211.229 236.736ZM211.229 238.144C210.085 238.144 209.125 238.481 208.347 239.156C207.585 239.831 207.13 240.718 206.983 241.818H215.189C215.028 240.645 214.581 239.743 213.847 239.112C213.085 238.467 212.212 238.144 211.229 238.144ZM217.685 237H226.925V238.408H223.031V248H221.579V238.408H217.685V237ZM233.787 236.736C235.43 236.736 236.742 237.315 237.725 238.474C238.737 239.618 239.243 240.975 239.243 242.544C239.243 242.617 239.228 242.845 239.199 243.226H229.541C229.688 244.326 230.157 245.206 230.949 245.866C231.741 246.526 232.731 246.856 233.919 246.856C235.591 246.856 236.772 246.233 237.461 244.986L238.737 245.734C238.253 246.526 237.586 247.149 236.735 247.604C235.899 248.044 234.953 248.264 233.897 248.264C232.166 248.264 230.758 247.721 229.673 246.636C228.588 245.551 228.045 244.172 228.045 242.5C228.045 240.843 228.58 239.471 229.651 238.386C230.722 237.286 232.1 236.736 233.787 236.736ZM233.787 238.144C232.643 238.144 231.682 238.481 230.905 239.156C230.142 239.831 229.688 240.718 229.541 241.818H237.747C237.586 240.645 237.138 239.743 236.405 239.112C235.642 238.467 234.77 238.144 233.787 238.144Z" fill="#F3F3F3"/>
<path d="M261.8 726.85C241.4 756.25 213.05 770.95 176.75 770.95C140.45 770.95 111.95 756.25 91.25 726.85C70.85 696.85 60.65 657.4 60.65 608.5C60.65 559.3 70.85 520 91.25 490.6C111.95 460.9 140.45 446.05 176.75 446.05C213.05 446.05 241.4 460.9 261.8 490.6C282.5 520 292.85 559.3 292.85 608.5C292.85 657.7 282.5 697.15 261.8 726.85ZM103.4 716.05C121.4 742.15 145.85 755.2 176.75 755.2C207.65 755.2 231.95 742.15 249.65 716.05C267.65 689.95 276.65 654.1 276.65 608.5C276.65 562.9 267.65 527.05 249.65 500.95C231.95 474.85 207.65 461.8 176.75 461.8C145.85 461.8 121.4 474.85 103.4 500.95C85.7 527.35 76.85 563.2 76.85 608.5C76.85 653.8 85.7 689.65 103.4 716.05ZM493.258 466.3L415.408 581.5C442.708 583.3 465.208 592.75 482.908 609.85C500.908 626.35 509.908 648.25 509.908 675.55C509.908 704.05 500.008 727.15 480.208 744.85C460.708 762.25 436.258 770.95 406.858 770.95C383.458 770.95 363.058 765.85 345.658 755.65C328.258 745.45 315.808 731.2 308.308 712.9L321.808 704.8C327.808 720.7 338.158 733.15 352.858 742.15C367.858 750.85 385.858 755.2 406.858 755.2C432.658 755.2 453.358 747.85 468.958 733.15C485.158 718.45 493.258 699.25 493.258 675.55C493.258 652.45 485.158 633.4 468.958 618.4C452.458 603.4 431.308 595.9 405.508 595.9H400.558L393.808 585.55L474.808 466.3H314.608V451H493.258V466.3Z" fill="white"/>
</g>
<defs>
<clipPath id="clip0_2621_2688">
<rect width="1057" height="668" fill="white"/>
</clipPath>
</defs>
</svg>
