<svg width="1058" height="682" viewBox="0 0 1058 682" fill="none" xmlns="http://www.w3.org/2000/svg">
<g clip-path="url(#clip0_3192_1212)">
<rect x="0.5" y="0.5" width="1057" height="681" rx="39.5" fill="#0048B4" stroke="#0048B4"/>
<g opacity="0.5">
<path d="M1114.88 -11.9966H-44V682H1114.88V-11.9966Z" fill="#DDEAFF"/>
<path d="M-43.5 681.5V-11.4966H1114.38V681.5H-43.5Z" stroke="white" stroke-opacity="0.1"/>
<mask id="mask0_3192_1212" style="mask-type:luminance" maskUnits="userSpaceOnUse" x="-44" y="-12" width="1159" height="694">
<path d="M1114.88 -12H-44V681.997H1114.88V-12Z" fill="white"/>
<path d="M-43.5 681.497V-11.5H1114.38V681.497H-43.5Z" stroke="white"/>
</mask>
<g mask="url(#mask0_3192_1212)">
<path d="M855.405 513.216C863.831 481.978 869.098 449.93 879.432 419.232C889.766 388.534 905.824 358.592 931.671 338.131C948.69 324.659 972.249 309.835 967.765 289.025C962.919 266.531 930.76 263.312 913.534 247.468C887.297 223.335 902.677 178.128 883.113 148.674C869.473 128.139 842.805 120.686 820.556 109.137C771.839 83.8509 739.474 31.571 739.462 -21.8506C893.938 -24.9423 1048.41 -28.0352 1202.89 -31.127C1227.04 -31.6105 1255.36 -30.1496 1269.02 -10.9051C1276.17 -0.839802 1277.43 11.9378 1278.48 24.1001C1288.9 144.785 1299.3 266.43 1284.78 386.717C1272.18 491.082 1240.86 595.07 1253.17 699.467C1253.17 698.799 998.579 695.27 975.34 694.887C928.49 694.115 881.64 693.343 834.79 692.57C821.69 692.354 787.147 698.371 779.759 684.946C772.532 671.812 794.927 649.706 801.35 639.132C825.232 599.819 843.508 557.329 855.405 513.216Z" fill="white"/>
<path d="M1259.14 543.005C1251.3 594.907 1246.55 646.848 1252.6 698.904C1252.56 698.902 1252.51 698.899 1252.47 698.897C1251.98 698.87 1251.26 698.841 1250.32 698.81C1248.45 698.747 1245.7 698.675 1242.2 698.594C1235.19 698.433 1225.15 698.239 1213.04 698.023C1188.8 697.593 1156.25 697.077 1122.98 696.57C1083.86 695.975 1043.74 695.391 1014.95 694.973C994.757 694.679 980.138 694.466 975.348 694.387C951.923 694.001 928.498 693.615 905.073 693.229C881.648 692.843 858.223 692.457 834.799 692.071C831.952 692.024 828.107 692.268 823.78 692.544C823.089 692.588 822.386 692.632 821.673 692.677C816.478 693.001 810.718 693.312 805.141 693.212C799.561 693.111 794.193 692.6 789.774 691.291C785.35 689.981 781.953 687.896 780.197 684.705C778.478 681.581 778.497 677.887 779.661 673.873C780.824 669.857 783.117 665.58 785.855 661.351C788.592 657.125 791.756 652.975 794.647 649.209L795.057 648.674C797.777 645.133 800.231 641.937 801.777 639.391C825.683 600.039 843.979 557.505 855.888 513.346C859.121 501.359 861.89 489.25 864.656 477.155C865.497 473.479 866.337 469.804 867.19 466.135C870.851 450.384 874.747 434.716 879.906 419.391C890.224 388.74 906.24 358.9 931.981 338.523C933.968 336.951 936.049 335.356 938.169 333.732C945.089 328.429 952.413 322.817 958.147 316.671C965.649 308.632 970.547 299.561 968.254 288.92C965.778 277.429 956.326 270.908 945.522 265.309C942.908 263.953 940.204 262.647 937.491 261.337L937.203 261.198C934.391 259.84 931.573 258.475 928.825 257.039C923.326 254.165 918.131 251.017 913.872 247.1C900.909 235.176 898.2 218.03 896.318 200.014C896.149 198.396 895.987 196.771 895.824 195.142C894.183 178.707 892.506 161.912 883.53 148.397C876.641 138.027 866.478 130.982 855.296 125.093C849.704 122.148 843.845 119.486 838.005 116.844L837.528 116.628C831.843 114.055 826.183 111.495 820.786 108.693L820.556 109.137L820.786 108.693C772.378 83.5675 740.172 31.6976 739.963 -21.3605C816.265 -22.8876 892.567 -24.4151 968.869 -25.9425C1046.88 -27.5041 1124.89 -29.0657 1202.9 -30.6271C1214.97 -30.8687 1228.03 -30.6225 1239.78 -27.9267C1251.51 -25.2317 1261.88 -20.1011 1268.61 -10.6156C1275.67 -0.67878 1276.93 11.9582 1277.98 24.1431C1288.4 144.837 1298.8 266.43 1284.29 386.657C1280.5 418.027 1275.02 449.339 1269.55 480.653C1265.91 501.43 1262.28 522.208 1259.14 543.005Z" stroke="white" stroke-opacity="0.1"/>
</g>
<mask id="mask1_3192_1212" style="mask-type:luminance" maskUnits="userSpaceOnUse" x="-44" y="-12" width="1159" height="694">
<path d="M1114.88 -12H-44V681.997H1114.88V-12Z" fill="white"/>
<path d="M-43.5 681.497V-11.5H1114.38V681.497H-43.5Z" stroke="white"/>
</mask>
<g mask="url(#mask1_3192_1212)">
<path d="M58.5878 667.154C85.1527 600.443 64.5978 518.759 106.391 459.774C118.959 442.037 136.229 428.013 152.131 412.978C183.414 383.401 209.82 349.433 236.093 315.613C260.671 283.973 286.085 250.421 291.385 211.196C295.534 180.491 286.823 149.674 278.194 119.851C260.402 58.356 242.61 -3.1402 224.818 -64.6353C99.371 -63.8106 -26.0749 -62.9859 -151.522 -62.16C-150.602 149.711 -144.781 360.798 -143.861 572.669C-143.662 618.312 -143.28 665.009 -127.213 707.932C-63.495 708.836 -0.703674 689.713 58.5878 667.154Z" fill="white"/>
<path d="M105.983 459.485C85.0027 489.096 79.6873 524.385 76.2811 560.52C75.8 565.623 75.357 570.743 74.9137 575.866C72.2206 606.987 69.516 638.243 58.2045 666.765C-0.906815 689.244 -63.4351 708.265 -126.865 707.437C-142.777 664.699 -143.163 618.211 -143.361 572.667C-143.821 466.728 -145.506 360.987 -147.191 255.248L-147.191 255.246C-148.874 149.673 -150.557 44.1021 -151.02 -61.6633C-25.8652 -62.4872 99.2883 -63.31 224.443 -64.1328C242.2 -2.75889 259.957 58.6161 277.713 119.99C286.347 149.831 295.022 180.546 290.89 211.129C285.611 250.198 260.292 283.647 235.698 315.306C209.421 349.132 183.038 383.068 151.788 412.615C148.3 415.912 144.742 419.164 141.179 422.422C128.532 433.983 115.818 445.605 105.983 459.485Z" stroke="white" stroke-opacity="0.1"/>
</g>
<mask id="mask2_3192_1212" style="mask-type:luminance" maskUnits="userSpaceOnUse" x="-44" y="-12" width="1159" height="694">
<path d="M1114.88 -12H-44V681.997H1114.88V-12Z" fill="white"/>
<path d="M-43.5 681.497V-11.5H1114.38V681.497H-43.5Z" stroke="white"/>
</mask>
<g mask="url(#mask2_3192_1212)">
<path d="M248.142 -12.1176C252.831 15.1403 257.518 42.3982 262.206 69.6561C269.248 110.6 277.24 151.507 283.349 192.588C287.766 222.286 271.975 249.424 254.91 273.904C221.351 322.043 169.945 354.698 133.069 400.083C83.4945 461.097 61.5026 528.376 60.6763 605.299C60.1478 654.452 62.6359 837.153 -37.1258 789.021C-60.4447 777.77 -54.3872 746.205 -54.9945 725.179C-57.0179 655.035 -58.5743 584.879 -59.6624 514.716C-61.84 374.39 -62.1471 234.037 -60.5849 93.7042C-60.1944 58.6203 -59.6868 23.5388 -59.0622 -11.5416C-55.9181 -8.14215 -28.9453 -11.6457 -24.508 -11.6711C3.63299 -11.8273 31.7739 -11.995 59.9149 -12.1326C122.656 -12.4368 185.399 -11.8458 248.142 -12.1176Z" fill="#0048B4"/>
<path d="M155.761 -11.6331C186.413 -11.559 217.067 -11.4849 247.721 -11.6158C252.278 14.8788 256.835 41.3734 261.391 67.868L261.713 69.7408C264.06 83.3869 266.512 97.025 268.964 110.665C273.872 137.965 278.781 165.272 282.855 192.662C287.239 222.144 271.569 249.133 254.499 273.618C237.755 297.637 216.552 317.803 194.896 337.658C192.728 339.645 190.555 341.629 188.383 343.614C168.86 361.447 149.298 379.316 132.681 399.768C83.0295 460.876 61.0037 528.267 60.1763 605.294C60.1565 607.132 60.141 609.157 60.1241 611.348C59.9155 638.479 59.5101 691.204 48.5038 733.516C42.5536 756.391 33.5293 776.12 19.8547 787.143C13.0292 792.645 5.04025 795.983 -4.32808 796.462C-13.7034 796.942 -24.4918 794.561 -36.9085 788.57C-48.346 783.052 -52.6137 772.555 -54.0808 760.704C-54.8144 754.778 -54.8437 748.539 -54.7256 742.452C-54.6934 740.787 -54.65 739.133 -54.6072 737.499C-54.4937 733.172 -54.3842 728.992 -54.4947 725.164C-56.518 655.023 -58.0744 584.869 -59.1625 514.708C-61.34 374.387 -61.6471 234.038 -60.0849 93.7098C-59.6979 58.9366 -59.1958 24.1657 -58.5787 -10.6041C-58.1212 -10.3824 -57.568 -10.2141 -56.9638 -10.0817C-55.8778 -9.84369 -54.5178 -9.69992 -52.9852 -9.62471C-49.9175 -9.47417 -46.0909 -9.59554 -42.2406 -9.82289C-38.3873 -10.0504 -34.495 -10.3851 -31.2935 -10.664C-31.1611 -10.6755 -31.0299 -10.687 -30.9 -10.6983C-27.8733 -10.9621 -25.5434 -11.1652 -24.5052 -11.1711C-16.6881 -11.2145 -8.87103 -11.2588 -1.054 -11.303C19.2699 -11.4181 39.5936 -11.5332 59.9174 -11.6326C91.286 -11.7847 122.655 -11.713 154.027 -11.6373L155.761 -11.6331Z" stroke="white" stroke-opacity="0.1"/>
</g>
<mask id="mask3_3192_1212" style="mask-type:luminance" maskUnits="userSpaceOnUse" x="-44" y="-12" width="1159" height="694">
<path d="M1114.88 -12H-44V681.997H1114.88V-12Z" fill="white"/>
<path d="M-43.5 681.497V-11.5H1114.38V681.497H-43.5Z" stroke="white"/>
</mask>
<g mask="url(#mask3_3192_1212)">
<path d="M880.674 458.261C887.484 424.696 902.692 391.756 928.943 369.873C939.552 361.031 951.734 354.154 961.832 344.729C971.931 335.303 980.051 322.297 979.01 308.495C977.746 291.732 963.743 278.972 949.769 269.706C935.796 260.44 920.126 252.065 911.807 237.475C898.179 213.574 908.826 180.958 894.215 157.649C882.523 138.996 858.997 132.781 839.214 123.226C781.386 95.2957 747.601 24.714 762.013 -38.0615C925.187 -37.3849 1088.36 -36.7082 1251.54 -36.0327C1252.72 205.435 1253.9 446.903 1255.09 688.372C1100.32 691.906 945.56 695.442 790.798 698.977C814.324 659.36 837.859 619.749 861.375 580.126C865.569 573.059 872.935 564.766 875.129 556.875C877.634 547.866 874.938 534.865 874.967 525.507C875.039 502.985 876.185 480.377 880.674 458.261Z" fill="#0048B4"/>
<path d="M881.164 458.36C887.96 424.865 903.128 392.044 929.263 370.257C933.847 366.437 938.724 362.985 943.618 359.522C944.368 358.991 945.119 358.46 945.868 357.927C951.503 353.924 957.097 349.832 962.173 345.094C972.322 335.622 980.566 322.478 979.509 308.457C978.225 291.438 964.027 278.561 950.046 269.29C947.89 267.86 945.701 266.456 943.508 265.05C938.565 261.879 933.603 258.697 928.97 255.189C922.293 250.134 916.354 244.44 912.241 237.227C905.623 225.619 904.779 211.921 903.928 198.105L903.879 197.309C903.012 183.276 902.023 169.163 894.639 157.383C888.724 147.947 879.829 141.679 869.979 136.581C865.053 134.032 859.877 131.771 854.707 129.553C854.09 129.288 853.473 129.024 852.856 128.76C848.302 126.811 843.776 124.874 839.431 122.775C781.934 95.0052 748.281 24.8914 762.411 -37.5599C925.287 -36.8845 1088.16 -36.2091 1251.04 -35.5348L1254.58 687.883C1176.4 689.669 1098.22 691.454 1020.04 693.24C943.921 694.979 867.805 696.718 791.689 698.456C799.607 685.123 807.526 671.79 815.445 658.456C830.901 632.433 846.357 606.41 861.805 580.382C863.144 578.125 864.799 575.757 866.517 573.299C867.479 571.922 868.461 570.517 869.417 569.088C872.061 565.14 874.49 561.037 875.61 557.009C876.888 552.416 876.833 546.839 876.476 541.29C876.354 539.406 876.199 537.528 876.046 535.687C875.746 532.069 875.458 528.596 875.467 525.508C875.539 503 876.685 480.43 881.164 458.36Z" stroke="white" stroke-opacity="0.1"/>
</g>
<mask id="mask4_3192_1212" style="mask-type:luminance" maskUnits="userSpaceOnUse" x="-44" y="-12" width="1159" height="694">
<path d="M1114.88 -12H-44V681.997H1114.88V-12Z" fill="white"/>
<path d="M-43.5 681.497V-11.5H1114.38V681.497H-43.5Z" stroke="white"/>
</mask>
<g mask="url(#mask4_3192_1212)">
<path d="M410.813 130.913C381.327 128.688 336.398 108.629 313.046 84.3314C297.837 68.506 301.247 68.3788 291.832 48.0042C267.826 -3.96115 281.377 -16.1894 310.149 -36.2482C346.558 -61.6323 375.657 -95.1488 416.311 -114.477C448.172 -129.624 484.525 -137.791 522.267 -134.202C539.868 -132.529 557.771 -128.298 575.662 -121.026C605.924 -108.726 636.639 -87.8075 666.044 -87.9914C683.344 -88.1002 698.943 -95.667 716.755 -92.4365C795.609 -78.1297 595.302 144.826 410.813 130.913Z" fill="#C8CDF5"/>
<path d="M416.526 -114.025L416.311 -114.477L416.526 -114.025C448.317 -129.14 484.58 -137.284 522.22 -133.705C539.773 -132.035 557.629 -127.816 575.474 -120.562C583.023 -117.494 590.604 -113.887 598.197 -110.199C599.44 -109.596 600.683 -108.99 601.927 -108.384C608.277 -105.291 614.633 -102.194 620.971 -99.3704C636.122 -92.6201 651.233 -87.3988 666.047 -87.4914C673.182 -87.5363 680.037 -88.8424 686.822 -90.1356C688.316 -90.4203 689.807 -90.7043 691.297 -90.9742C699.574 -92.4735 707.853 -93.543 716.666 -91.9445C721.53 -91.0619 725.279 -89.3819 728.016 -87.0379C730.747 -84.6978 732.496 -81.673 733.328 -78.0492C735 -70.7746 732.979 -61.0722 727.708 -49.7571C717.177 -27.1486 693.822 1.57372 662.207 29.4455C598.972 85.193 502.902 137.356 410.851 130.414C396.187 129.308 377.644 123.761 359.841 115.447C342.039 107.133 325.027 96.0758 313.406 83.985C305.813 76.0842 302.907 72.1407 300.716 67.6543C299.742 65.6603 298.908 63.5561 297.867 60.9314C297.73 60.5855 297.59 60.2306 297.445 59.8657C296.201 56.7372 294.645 52.8996 292.285 47.7944C280.29 21.8288 277.754 5.93597 281.673 -5.93013C285.596 -17.8063 296.022 -25.7901 310.435 -35.838C324.072 -45.3457 336.691 -55.9978 349.254 -66.6023C353.482 -70.1714 357.704 -73.7352 361.956 -77.2481C378.856 -91.2096 396.256 -104.388 416.526 -114.025Z" stroke="white" stroke-opacity="0.1"/>
</g>
<mask id="mask5_3192_1212" style="mask-type:luminance" maskUnits="userSpaceOnUse" x="-44" y="-12" width="1159" height="694">
<path d="M1114.88 -12H-44V681.997H1114.88V-12Z" fill="white"/>
<path d="M-43.5 681.497V-11.5H1114.38V681.497H-43.5Z" stroke="white"/>
</mask>
<g mask="url(#mask5_3192_1212)">
<path d="M843.909 -19.8335C839.255 -19.8185 837.006 -3.93403 836.926 -1.56287C836.71 4.88898 838.536 11.2819 840.256 17.5683C847.601 44.4214 866.545 70.1166 896.476 86.6858C916.093 97.5457 938.457 104.495 952.191 120.245C964.565 134.436 970.127 151.474 973.14 168.038C979.734 204.287 979.143 255.387 1031.72 273.601C1065.25 285.217 1104.5 274.532 1141.48 275.624C1165.1 276.323 1188.22 281.932 1211.86 281.648C1235.5 281.363 1261.8 272.717 1267.93 255.769V-19.8335C1267.93 -19.8335 843.995 -19.8335 843.909 -19.8335Z" fill="#99CCF6"/>
<path d="M1267.43 -19.3335H1267.36H1267.25H1267.13H1267H1266.86H1266.72H1266.56H1266.4H1266.23H1266.04H1265.85H1265.65H1265.44H1265.23H1265H1264.77H1264.52H1264.27H1264.01H1263.74H1263.46H1263.17H1262.88H1262.57H1262.26H1261.94H1261.61H1261.28H1260.93H1260.58H1260.21H1259.84H1259.47H1259.08H1258.69H1258.28H1257.87H1257.45H1257.03H1256.59H1256.15H1255.7H1255.25H1254.78H1254.31H1253.83H1253.34H1252.85H1252.34H1251.83H1251.32H1250.79H1250.26H1249.72H1249.17H1248.62H1248.06H1247.49H1246.91H1246.33H1245.74H1245.14H1244.54H1243.93H1243.31H1242.68H1242.05H1241.41H1240.77H1240.12H1239.46H1238.79H1238.12H1237.45H1236.76H1236.07H1235.37H1234.67H1233.96H1233.24H1232.52H1231.79H1231.05H1230.31H1229.56H1228.81H1228.05H1227.28H1226.51H1225.73H1224.95H1224.16H1223.37H1222.56H1221.76H1220.94H1220.13H1219.3H1218.47H1217.64H1216.8H1215.95H1215.1H1214.24H1213.38H1212.51H1211.64H1210.76H1209.88H1208.99H1208.09H1207.19H1206.29H1205.38H1204.47H1203.55H1202.62H1201.69H1200.76H1199.82H1198.88H1197.93H1196.97H1196.02H1195.05H1194.09H1193.12H1192.14H1191.16H1190.18H1189.19H1188.19H1187.19H1186.19H1185.19H1184.18H1183.16H1182.14H1181.12H1180.09H1179.06H1178.03H1176.99H1175.94H1174.9H1173.85H1172.79H1171.73H1170.67H1169.61H1168.54H1167.46H1166.39H1165.31H1164.22H1163.14H1162.05H1160.95H1159.86H1158.76H1157.65H1156.55H1155.44H1154.32H1153.21H1152.09H1150.97H1149.84H1148.71H1147.58H1146.45H1145.31H1144.17H1143.03H1141.88H1140.73H1139.58H1138.43H1137.27H1136.12H1134.96H1133.79H1132.63H1131.46H1130.29H1129.12H1127.94H1126.76H1125.58H1124.4H1123.22H1122.03H1120.85H1119.66H1118.46H1117.27H1116.07H1114.88H1113.68H1112.48H1111.27H1110.07H1108.86H1107.65H1106.45H1105.23H1104.02H1102.81H1101.59H1100.38H1099.16H1097.94H1096.72H1095.49H1094.27H1093.05H1091.82H1090.59H1089.37H1088.14H1086.91H1085.68H1084.45H1083.21H1081.98H1080.75H1079.51H1078.28H1077.04H1075.8H1074.56H1073.33H1072.09H1070.85H1069.61H1068.37H1067.13H1065.89H1064.65H1063.41H1062.16H1060.92H1059.68H1058.44H1057.2H1055.95H1054.71H1053.47H1052.23H1050.99H1049.74H1048.5H1047.26H1046.02H1044.78H1043.54H1042.3H1041.06H1039.82H1038.58H1037.34H1036.11H1034.87H1033.63H1032.4H1031.16H1029.93H1028.69H1027.46H1026.23H1025H1023.77H1022.54H1021.31H1020.09H1018.86H1017.64H1016.41H1015.19H1013.97H1012.75H1011.53H1010.31H1009.1H1007.88H1006.67H1005.46H1004.25H1003.04H1001.84H1000.63H999.429H998.228H997.029H995.831H994.635H993.442H992.25H991.06H989.872H988.686H987.502H986.32H985.141H983.963H982.788H981.615H980.445H979.277H978.111H976.948H975.787H974.628H973.472H972.319H971.168H970.02H968.875H967.733H966.593H965.456H964.321H963.19H962.062H960.936H959.814H958.694H957.578H956.465H955.355H954.248H953.144H952.044H950.947H949.853H948.762H947.675H946.592H945.512H944.435H943.362H942.293H941.227H940.165H939.106H938.052H937.001H935.954H934.911H933.872H932.836H931.805H930.778H929.754H928.735H927.72H926.709H925.703H924.7H923.702H922.708H921.719H920.734H919.753H918.777H917.805H916.838H915.876H914.918H913.965H913.016H912.072H911.133H910.199H909.27H908.345H907.426H906.511H905.602H904.697H903.798H902.903H902.014H901.13H900.251H899.378H898.51H897.647H896.789H895.937H895.091H894.249H893.414H892.584H891.759H890.941H890.128H889.32H888.519H887.723H886.933H886.149H885.371H884.599H883.832H883.072H882.318H881.57H880.828H880.092H879.363H878.639H877.923H877.212H876.508H875.81H875.118H874.433H873.755H873.083H872.418H871.759H871.107H870.462H869.823H869.192H868.567H867.949H867.337H866.733H866.136H865.546H864.962H864.386H863.817H863.255H862.701H862.153H861.613H861.081H860.555H860.037H859.526H859.023H858.528H858.039H857.559H857.086H856.621H856.163H855.713H855.271H854.837H854.41H853.992H853.581H853.179H852.784H852.397H852.019H851.648H851.286H850.932H850.586H850.248H849.919H849.598H849.285H848.981H848.685H848.398H848.119H847.849H847.587H847.334H847.09H846.854H846.628H846.41H846.2H846H845.809H845.626H845.453H845.288H845.133H844.987H844.849H844.721H844.603H844.493H844.393H844.302H844.22H844.148H844.085H844.032H843.988H843.954H843.929H843.914H843.91C843.046 -19.3303 842.16 -18.575 841.301 -17.0592C840.465 -15.5851 839.758 -13.5714 839.185 -11.4513C838.039 -7.21134 837.464 -2.68628 837.425 -1.54618L1267.43 -19.3335ZM1267.43 -19.3335V255.681C1264.41 263.924 1256.47 270.219 1246.27 274.496C1236.04 278.783 1223.62 281.006 1211.85 281.148C1200.07 281.29 1188.41 279.963 1176.72 278.509C1175.67 278.377 1174.61 278.245 1173.56 278.113C1162.93 276.78 1152.26 275.443 1141.49 275.124C1128.64 274.745 1115.5 275.786 1102.45 276.819C1096.7 277.275 1090.96 277.73 1085.28 278.06C1066.66 279.142 1048.55 278.903 1031.88 273.129C1005.76 264.08 992.862 246.882 985.655 227.409C980.44 213.321 978.215 198.088 976.137 183.86C975.335 178.365 974.554 173.02 973.632 167.949C970.611 151.341 965.026 134.203 952.568 119.917C945.639 111.97 936.547 106.26 926.77 101.188C922.62 99.0349 918.338 96.9922 914.04 94.9424C913.274 94.577 912.508 94.2115 911.742 93.845C906.672 91.4206 901.608 88.9555 896.718 86.2483C866.903 69.743 848.047 44.1565 840.739 17.4364L840.256 17.5683L840.739 17.4364C840.679 17.2172 840.618 16.9979 840.558 16.7787C838.891 10.691 837.22 4.59411 837.425 -1.54602L1267.43 -19.3335Z" stroke="white" stroke-opacity="0.1"/>
</g>
<mask id="mask6_3192_1212" style="mask-type:luminance" maskUnits="userSpaceOnUse" x="-44" y="-12" width="1159" height="694">
<path d="M1114.88 -12H-44V681.997H1114.88V-12Z" fill="white"/>
<path d="M-43.5 681.497V-11.5H1114.38V681.497H-43.5Z" stroke="white"/>
</mask>
<g mask="url(#mask6_3192_1212)">
<path d="M200.031 -21.6431C160.822 20.9579 178.984 71.046 197.332 118.197C216.743 168.081 219.923 221.363 190.245 268.377C151.346 329.998 76.7738 359.52 34.3254 418.671C3.60477 461.48 -14.2002 513.609 -5.68824 565.914C2.45865 615.976 9.04222 649.61 -10.0792 698.382C-22.4676 729.98 -36.9025 760.829 -53.2728 790.688H-131.672V-21.6431H200.031Z" fill="#032D6B"/>
<path d="M-53.569 790.188H-131.172V-21.1431H198.899C179.812 0.04603 174.683 23.0663 176.599 46.6113C178.539 70.4366 187.696 94.8131 196.866 118.379C216.242 168.172 219.387 221.275 189.822 268.11C170.426 298.837 142.127 321.574 113.309 344.056C111.986 345.088 110.663 346.119 109.339 347.15C81.8375 368.576 54.2168 390.095 33.9192 418.38C3.14449 461.264 -14.7206 513.524 -6.18175 565.995C-5.87061 567.906 -5.56181 569.794 -5.25666 571.66C2.42998 618.647 7.79253 651.428 -10.5447 698.2C-22.8894 729.686 -37.2675 760.429 -53.569 790.188Z" stroke="white" stroke-opacity="0.1"/>
</g>
</g>
<path d="M23.56 41.6H39.56V64H37.32V43.712H25.8V64H23.56V41.6ZM63.853 61.024C61.613 63.264 58.8717 64.384 55.629 64.384C52.3863 64.384 49.645 63.264 47.405 61.024C45.165 58.7413 44.045 56 44.045 52.8C44.045 49.5787 45.165 46.848 47.405 44.608C49.645 42.3467 52.3863 41.216 55.629 41.216C58.8717 41.216 61.613 42.3467 63.853 44.608C66.093 46.848 67.213 49.5787 67.213 52.8C67.213 56 66.093 58.7413 63.853 61.024ZM46.285 52.8C46.285 55.4453 47.181 57.6747 48.973 59.488C50.765 61.3013 52.9837 62.208 55.629 62.208C58.2743 62.208 60.493 61.3013 62.285 59.488C64.077 57.6747 64.973 55.4453 64.973 52.8C64.973 50.176 64.077 47.9573 62.285 46.144C60.493 44.3093 58.2743 43.392 55.629 43.392C52.9837 43.392 50.765 44.3093 48.973 46.144C47.181 47.9573 46.285 50.176 46.285 52.8ZM68.3225 64V62.016C69.8798 62.2293 71.0425 61.7493 71.8105 60.576C72.5998 59.4027 72.9945 57.2267 72.9945 54.048V41.6H87.5225V64H85.2825V43.712H75.2345V54.112C75.2345 56.1387 75.0745 57.8347 74.7545 59.2C74.4345 60.5653 73.9545 61.6 73.3145 62.304C72.6958 63.008 71.9812 63.488 71.1705 63.744C70.3812 64 69.4318 64.0853 68.3225 64ZM100.46 55.36L106.348 41.6H108.652L101.196 59.104C100.45 60.896 99.5005 62.1867 98.3485 62.976C97.1965 63.7653 95.7672 64.1067 94.0605 64V61.952C95.2552 62.08 96.2365 61.9093 97.0045 61.44C97.7938 60.9493 98.4445 60.1067 98.9565 58.912L99.4045 57.856L91.6925 41.6H93.9965L100.46 55.36ZM124.822 52.448V41.6H127.062V64H124.822V54.56C122.881 55.52 120.854 56 118.742 56C116.63 56 114.924 55.4027 113.622 54.208C112.342 53.0133 111.702 51.4773 111.702 49.6V41.6H113.942V49.6C113.942 50.9013 114.369 51.9467 115.222 52.736C116.076 53.504 117.249 53.888 118.742 53.888C120.854 53.888 122.881 53.408 124.822 52.448ZM150.102 64H147.734L145.654 58.496H135.03L132.95 64H130.582L139.19 41.6H141.494L150.102 64ZM140.342 44.384L135.83 56.384H144.854L140.342 44.384ZM166.099 39.04H157.779V37.184H166.099V39.04ZM170.259 64H168.019V45.76L155.539 64H153.619V41.6H155.859V59.84L168.339 41.6H170.259V64ZM174.089 41.6H190.089V43.712H183.209V64H180.969V43.712H174.089V41.6ZM196.17 53.76V61.888H207.05V64H193.93V41.6H206.89V43.712H196.17V51.648H206.09V53.76H196.17ZM236.179 41.6V61.888H238.579V68.288H236.339V64H220.339V68.288H218.099V61.888H219.923C221.395 60.16 222.131 57.4933 222.131 53.888V41.6H236.179ZM222.579 61.888H233.939V43.712H224.371V53.952C224.371 57.472 223.773 60.1173 222.579 61.888ZM261.128 61.024C258.888 63.264 256.147 64.384 252.904 64.384C249.661 64.384 246.92 63.264 244.68 61.024C242.44 58.7413 241.32 56 241.32 52.8C241.32 49.5787 242.44 46.848 244.68 44.608C246.92 42.3467 249.661 41.216 252.904 41.216C256.147 41.216 258.888 42.3467 261.128 44.608C263.368 46.848 264.488 49.5787 264.488 52.8C264.488 56 263.368 58.7413 261.128 61.024ZM243.56 52.8C243.56 55.4453 244.456 57.6747 246.248 59.488C248.04 61.3013 250.259 62.208 252.904 62.208C255.549 62.208 257.768 61.3013 259.56 59.488C261.352 57.6747 262.248 55.4453 262.248 52.8C262.248 50.176 261.352 47.9573 259.56 46.144C257.768 44.3093 255.549 43.392 252.904 43.392C250.259 43.392 248.04 44.3093 246.248 46.144C244.456 47.9573 243.56 50.176 243.56 52.8ZM275.99 52.448L283.35 64H280.79L274.71 54.432L268.63 64H266.07L273.43 52.448L266.55 41.6H269.078L274.71 50.432L280.342 41.6H282.87L275.99 52.448ZM304.752 61.024C302.512 63.264 299.77 64.384 296.528 64.384C293.285 64.384 290.544 63.264 288.304 61.024C286.064 58.7413 284.944 56 284.944 52.8C284.944 49.5787 286.064 46.848 288.304 44.608C290.544 42.3467 293.285 41.216 296.528 41.216C299.77 41.216 302.512 42.3467 304.752 44.608C306.992 46.848 308.112 49.5787 308.112 52.8C308.112 56 306.992 58.7413 304.752 61.024ZM287.184 52.8C287.184 55.4453 288.08 57.6747 289.872 59.488C291.664 61.3013 293.882 62.208 296.528 62.208C299.173 62.208 301.392 61.3013 303.184 59.488C304.976 57.6747 305.872 55.4453 305.872 52.8C305.872 50.176 304.976 47.9573 303.184 46.144C301.392 44.3093 299.173 43.392 296.528 43.392C293.882 43.392 291.664 44.3093 289.872 46.144C288.08 47.9573 287.184 50.176 287.184 52.8ZM327.614 41.6V61.888H330.014V68.288H327.774V64H311.774V68.288H309.534V61.888H311.358C312.83 60.16 313.566 57.4933 313.566 53.888V41.6H327.614ZM314.014 61.888H325.374V43.712H315.806V53.952C315.806 57.472 315.208 60.1173 314.014 61.888ZM361.515 61.024C359.275 63.264 356.534 64.384 353.291 64.384C350.049 64.384 347.307 63.264 345.067 61.024C342.827 58.7413 341.707 56 341.707 52.8C341.707 49.5787 342.827 46.848 345.067 44.608C347.307 42.3467 350.049 41.216 353.291 41.216C356.534 41.216 359.275 42.3467 361.515 44.608C363.755 46.848 364.875 49.5787 364.875 52.8C364.875 56 363.755 58.7413 361.515 61.024ZM343.947 52.8C343.947 55.4453 344.843 57.6747 346.635 59.488C348.427 61.3013 350.646 62.208 353.291 62.208C355.937 62.208 358.155 61.3013 359.947 59.488C361.739 57.6747 362.635 55.4453 362.635 52.8C362.635 50.176 361.739 47.9573 359.947 46.144C358.155 44.3093 355.937 43.392 353.291 43.392C350.646 43.392 348.427 44.3093 346.635 46.144C344.843 47.9573 343.947 50.176 343.947 52.8ZM366.145 41.6H382.145V43.712H375.265V64H373.025V43.712H366.145V41.6ZM406.786 43.712L401.57 50.912C403.341 51.1253 404.813 51.8187 405.986 52.992C407.16 54.1013 407.746 55.6053 407.746 57.504C407.746 59.616 407.01 61.3013 405.538 62.56C404.109 63.776 402.338 64.384 400.226 64.384C398.541 64.384 397.048 64 395.746 63.232C394.445 62.4427 393.538 61.344 393.026 59.936L394.882 58.848C395.245 59.936 395.885 60.768 396.802 61.344C397.741 61.92 398.882 62.208 400.226 62.208C401.805 62.208 403.074 61.792 404.034 60.96C405.016 60.1067 405.506 58.9547 405.506 57.504C405.506 56.0533 405.016 54.912 404.034 54.08C403.074 53.2267 401.805 52.8 400.226 52.8V52.768L400.194 52.8H399.586L398.626 51.328L404.194 43.712H393.666V41.6H406.786V43.712ZM415.522 50.816C414.114 50.816 412.952 50.3573 412.034 49.44C411.096 48.5013 410.626 47.36 410.626 46.016C410.626 44.6933 411.096 43.5627 412.034 42.624C412.973 41.6853 414.136 41.216 415.522 41.216C416.909 41.216 418.072 41.6853 419.01 42.624C419.949 43.5627 420.418 44.6933 420.418 46.016C420.418 47.3813 419.96 48.5227 419.042 49.44C418.125 50.3573 416.952 50.816 415.522 50.816ZM412.674 46.016C412.674 46.8267 412.941 47.5093 413.474 48.064C414.008 48.6187 414.69 48.896 415.522 48.896C416.354 48.896 417.037 48.6187 417.57 48.064C418.104 47.5093 418.37 46.8267 418.37 46.016C418.37 45.2053 418.104 44.5227 417.57 43.968C417.037 43.4133 416.354 43.136 415.522 43.136C414.69 43.136 414.008 43.4133 413.474 43.968C412.941 44.5227 412.674 45.2053 412.674 46.016ZM413.09 61.728L411.746 60.96L426.754 44.096L428.13 44.864L413.09 61.728ZM428.066 63.008C427.149 63.9253 425.986 64.384 424.578 64.384C423.17 64.384 422.008 63.9253 421.09 63.008C420.152 62.0693 419.682 60.928 419.682 59.584C419.682 58.2613 420.152 57.1307 421.09 56.192C422.029 55.2533 423.192 54.784 424.578 54.784C425.965 54.784 427.128 55.2533 428.066 56.192C429.005 57.1307 429.474 58.2613 429.474 59.584C429.474 60.928 429.005 62.0693 428.066 63.008ZM421.73 59.584C421.73 60.3947 421.997 61.0773 422.53 61.632C423.064 62.1867 423.746 62.464 424.578 62.464C425.41 62.464 426.093 62.1867 426.626 61.632C427.16 61.0773 427.426 60.3947 427.426 59.584C427.426 58.7733 427.16 58.0907 426.626 57.536C426.093 56.9813 425.41 56.704 424.578 56.704C423.746 56.704 423.064 56.9813 422.53 57.536C421.997 58.0907 421.73 58.7733 421.73 59.584ZM25.8 96.76V104.888H36.68V107H23.56V84.6H36.52V86.712H25.8V94.648H35.72V96.76H25.8ZM55.5368 95.48L65.1688 107H62.5448L53.3287 96.056V107H51.0887V96.056L41.8727 107H39.2487L48.8807 95.48L39.5687 84.6H42.1927L51.0887 94.936V84.6H53.3287V94.936L62.2248 84.6H64.8488L55.5368 95.48ZM71.2362 96.76V104.888H82.1162V107H68.9962V84.6H81.9562V86.712H71.2362V94.648H81.1562V96.76H71.2362ZM104.301 84.6H107.085V107H104.845V87.992L97.005 101.112H96.685L88.845 87.992V107H86.605V84.6H89.389L96.845 97.08L104.301 84.6ZM115.079 96.76V104.888H125.959V107H112.839V84.6H125.799V86.712H115.079V94.648H124.999V96.76H115.079ZM140.755 107.384C137.342 107.384 134.537 106.264 132.339 104.024C130.121 101.763 129.011 99.0213 129.011 95.8C129.011 92.5787 130.121 89.8373 132.339 87.576C134.537 85.336 137.342 84.216 140.755 84.216C142.803 84.216 144.691 84.7173 146.419 85.72C148.147 86.7013 149.491 88.0347 150.451 89.72L148.467 90.872C147.763 89.5067 146.718 88.4187 145.331 87.608C143.945 86.7973 142.419 86.392 140.755 86.392C137.939 86.392 135.657 87.2987 133.907 89.112C132.137 90.9467 131.251 93.176 131.251 95.8C131.251 98.424 132.137 100.653 133.907 102.488C135.657 104.301 137.939 105.208 140.755 105.208C142.419 105.208 143.945 104.803 145.331 103.992C146.718 103.181 147.763 102.093 148.467 100.728L150.451 101.848C149.534 103.533 148.201 104.877 146.451 105.88C144.702 106.883 142.803 107.384 140.755 107.384ZM160.222 84.6H169.182V107H166.942V98.04H161.566L155.422 107H152.862L159.102 97.944C157.46 97.6453 156.126 96.888 155.102 95.672C154.036 94.4133 153.502 92.9627 153.502 91.32C153.502 89.464 154.153 87.8853 155.454 86.584C156.777 85.2613 158.366 84.6 160.222 84.6ZM160.222 95.928H166.942V86.712H160.222C158.985 86.712 157.929 87.16 157.054 88.056C156.18 88.9733 155.742 90.0613 155.742 91.32C155.742 92.5573 156.18 93.6453 157.054 94.584C157.929 95.48 158.985 95.928 160.222 95.928ZM187.586 95.448V84.6H189.826V107H187.586V97.56C185.645 98.52 183.618 99 181.506 99C179.394 99 177.688 98.4027 176.386 97.208C175.106 96.0133 174.466 94.4773 174.466 92.6V84.6H176.706V92.6C176.706 93.9013 177.133 94.9467 177.986 95.736C178.84 96.504 180.013 96.888 181.506 96.888C183.618 96.888 185.645 96.408 187.586 95.448ZM209.986 94.424V84.6H212.226V107H209.986V96.536H197.826V107H195.586V84.6H197.826V94.424H209.986ZM236.504 104.024C234.264 106.264 231.523 107.384 228.28 107.384C225.038 107.384 222.296 106.264 220.056 104.024C217.816 101.741 216.696 99 216.696 95.8C216.696 92.5787 217.816 89.848 220.056 87.608C222.296 85.3467 225.038 84.216 228.28 84.216C231.523 84.216 234.264 85.3467 236.504 87.608C238.744 89.848 239.864 92.5787 239.864 95.8C239.864 99 238.744 101.741 236.504 104.024ZM218.936 95.8C218.936 98.4453 219.832 100.675 221.624 102.488C223.416 104.301 225.635 105.208 228.28 105.208C230.926 105.208 233.144 104.301 234.936 102.488C236.728 100.675 237.624 98.4453 237.624 95.8C237.624 93.176 236.728 90.9573 234.936 89.144C233.144 87.3093 230.926 86.392 228.28 86.392C225.635 86.392 223.416 87.3093 221.624 89.144C219.832 90.9573 218.936 93.176 218.936 95.8Z" fill="#F3F3F3"/>
<path d="M23.7 151.24V155.812H29.82V157H22.44V144.4H29.73V145.588H23.7V150.052H29.28V151.24H23.7ZM38.6449 152.32L42.6769 157H41.2369L37.5649 152.662V157H36.3769V152.662L32.7049 157H31.2649L35.2969 152.32L31.4449 148H32.8849L36.3769 151.996V148H37.5649V151.996L41.0569 148H42.4969L38.6449 152.32ZM48.0911 147.784C49.4351 147.784 50.5091 148.258 51.3131 149.206C52.1411 150.142 52.5551 151.252 52.5551 152.536C52.5551 152.596 52.5431 152.782 52.5191 153.094H44.6171C44.7371 153.994 45.1211 154.714 45.7691 155.254C46.4171 155.794 47.2271 156.064 48.1991 156.064C49.5671 156.064 50.5331 155.554 51.0971 154.534L52.1411 155.146C51.7451 155.794 51.1991 156.304 50.5031 156.676C49.8191 157.036 49.0451 157.216 48.1811 157.216C46.7651 157.216 45.6131 156.772 44.7251 155.884C43.8371 154.996 43.3931 153.868 43.3931 152.5C43.3931 151.144 43.8311 150.022 44.7071 149.134C45.5831 148.234 46.7111 147.784 48.0911 147.784ZM48.0911 148.936C47.1551 148.936 46.3691 149.212 45.7331 149.764C45.1091 150.316 44.7371 151.042 44.6171 151.942H51.3311C51.1991 150.982 50.8331 150.244 50.2331 149.728C49.6091 149.2 48.8951 148.936 48.0911 148.936ZM62.2568 148H63.6248V157H62.4368V149.818L59.2868 154.93H59.1428L55.9928 149.818V157H54.8048V148H56.1728L59.2148 152.932L62.2568 148ZM70.6607 147.784C72.0047 147.784 73.0787 148.258 73.8827 149.206C74.7107 150.142 75.1247 151.252 75.1247 152.536C75.1247 152.596 75.1127 152.782 75.0887 153.094H67.1867C67.3067 153.994 67.6907 154.714 68.3387 155.254C68.9867 155.794 69.7967 156.064 70.7687 156.064C72.1367 156.064 73.1027 155.554 73.6667 154.534L74.7107 155.146C74.3147 155.794 73.7687 156.304 73.0727 156.676C72.3887 157.036 71.6147 157.216 70.7507 157.216C69.3347 157.216 68.1827 156.772 67.2947 155.884C66.4067 154.996 65.9627 153.868 65.9627 152.5C65.9627 151.144 66.4007 150.022 67.2767 149.134C68.1527 148.234 69.2807 147.784 70.6607 147.784ZM70.6607 148.936C69.7247 148.936 68.9387 149.212 68.3027 149.764C67.6787 150.316 67.3067 151.042 67.1867 151.942H73.9007C73.7687 150.982 73.4027 150.244 72.8027 149.728C72.1787 149.2 71.4647 148.936 70.6607 148.936ZM81.5685 157.216C80.2125 157.216 79.0845 156.766 78.1845 155.866C77.2845 154.942 76.8345 153.82 76.8345 152.5C76.8345 151.168 77.2845 150.052 78.1845 149.152C79.0845 148.24 80.2125 147.784 81.5685 147.784C82.4565 147.784 83.2545 148 83.9625 148.432C84.6705 148.852 85.1865 149.422 85.5105 150.142L84.5385 150.7C84.2985 150.16 83.9085 149.734 83.3685 149.422C82.8405 149.098 82.2405 148.936 81.5685 148.936C80.5725 148.936 79.7325 149.284 79.0485 149.98C78.3645 150.664 78.0225 151.504 78.0225 152.5C78.0225 153.484 78.3645 154.33 79.0485 155.038C79.7325 155.722 80.5725 156.064 81.5685 156.064C82.2285 156.064 82.8225 155.908 83.3505 155.596C83.8905 155.284 84.3105 154.852 84.6105 154.3L85.6005 154.876C85.2285 155.596 84.6825 156.166 83.9625 156.586C83.2425 157.006 82.4445 157.216 81.5685 157.216ZM90.3163 148H93.9703V157H92.7823V153.544H91.2343L88.4623 157H86.9503L89.7943 153.508C89.0623 153.4 88.4623 153.1 87.9943 152.608C87.5383 152.104 87.3103 151.498 87.3103 150.79C87.3103 149.986 87.5983 149.32 88.1743 148.792C88.7743 148.264 89.4883 148 90.3163 148ZM90.3163 152.428H92.7823V149.152H90.3163C89.8003 149.152 89.3683 149.308 89.0203 149.62C88.6723 149.92 88.4983 150.31 88.4983 150.79C88.4983 151.27 88.6723 151.666 89.0203 151.978C89.3683 152.278 89.8003 152.428 90.3163 152.428ZM102.682 152.482V148H103.87V157H102.682V153.58C101.986 153.94 101.128 154.12 100.108 154.12C98.9203 154.12 98.0203 153.85 97.4083 153.31C96.7963 152.758 96.4903 151.948 96.4903 150.88V148H97.6783V150.88C97.6783 151.624 97.8703 152.164 98.2543 152.5C98.6503 152.836 99.2563 153.004 100.072 153.004C100.984 153.004 101.854 152.83 102.682 152.482ZM113.127 151.924V148H114.315V157H113.127V153.076H107.943V157H106.755V148H107.943V151.924H113.127ZM124.729 155.866C123.805 156.766 122.689 157.216 121.381 157.216C120.049 157.216 118.927 156.766 118.015 155.866C117.103 154.954 116.647 153.832 116.647 152.5C116.647 151.168 117.103 150.052 118.015 149.152C118.927 148.24 120.049 147.784 121.381 147.784C122.701 147.784 123.817 148.24 124.729 149.152C125.653 150.052 126.115 151.168 126.115 152.5C126.115 153.82 125.653 154.942 124.729 155.866ZM118.861 155.038C119.545 155.722 120.385 156.064 121.381 156.064C122.377 156.064 123.217 155.722 123.901 155.038C124.585 154.33 124.927 153.484 124.927 152.5C124.927 151.504 124.585 150.664 123.901 149.98C123.217 149.284 122.377 148.936 121.381 148.936C120.385 148.936 119.545 149.284 118.861 149.98C118.177 150.664 117.835 151.504 117.835 152.5C117.835 153.484 118.177 154.33 118.861 155.038ZM137.518 157.216C136.162 157.216 135.034 156.766 134.134 155.866C133.234 154.942 132.784 153.82 132.784 152.5C132.784 151.168 133.234 150.052 134.134 149.152C135.034 148.24 136.162 147.784 137.518 147.784C138.406 147.784 139.204 148 139.912 148.432C140.62 148.852 141.136 149.422 141.46 150.142L140.488 150.7C140.248 150.16 139.858 149.734 139.318 149.422C138.79 149.098 138.19 148.936 137.518 148.936C136.522 148.936 135.682 149.284 134.998 149.98C134.314 150.664 133.972 151.504 133.972 152.5C133.972 153.484 134.314 154.33 134.998 155.038C135.682 155.722 136.522 156.064 137.518 156.064C138.178 156.064 138.772 155.908 139.3 155.596C139.84 155.284 140.26 154.852 140.56 154.3L141.55 154.876C141.178 155.596 140.632 156.166 139.912 156.586C139.192 157.006 138.394 157.216 137.518 157.216ZM151.069 155.866C150.145 156.766 149.029 157.216 147.721 157.216C146.389 157.216 145.267 156.766 144.355 155.866C143.443 154.954 142.987 153.832 142.987 152.5C142.987 151.168 143.443 150.052 144.355 149.152C145.267 148.24 146.389 147.784 147.721 147.784C149.041 147.784 150.157 148.24 151.069 149.152C151.993 150.052 152.455 151.168 152.455 152.5C152.455 153.82 151.993 154.942 151.069 155.866ZM145.201 155.038C145.885 155.722 146.725 156.064 147.721 156.064C148.717 156.064 149.557 155.722 150.241 155.038C150.925 154.33 151.267 153.484 151.267 152.5C151.267 151.504 150.925 150.664 150.241 149.98C149.557 149.284 148.717 148.936 147.721 148.936C146.725 148.936 145.885 149.284 145.201 149.98C144.517 150.664 144.175 151.504 144.175 152.5C144.175 153.484 144.517 154.33 145.201 155.038ZM163.857 157.216C162.501 157.216 161.373 156.766 160.473 155.866C159.573 154.942 159.123 153.82 159.123 152.5C159.123 151.168 159.573 150.052 160.473 149.152C161.373 148.24 162.501 147.784 163.857 147.784C164.745 147.784 165.543 148 166.251 148.432C166.959 148.852 167.475 149.422 167.799 150.142L166.827 150.7C166.587 150.16 166.197 149.734 165.657 149.422C165.129 149.098 164.529 148.936 163.857 148.936C162.861 148.936 162.021 149.284 161.337 149.98C160.653 150.664 160.311 151.504 160.311 152.5C160.311 153.484 160.653 154.33 161.337 155.038C162.021 155.722 162.861 156.064 163.857 156.064C164.517 156.064 165.111 155.908 165.639 155.596C166.179 155.284 166.599 154.852 166.899 154.3L167.889 154.876C167.517 155.596 166.971 156.166 166.251 156.586C165.531 157.006 164.733 157.216 163.857 157.216ZM170.715 148H177.159V157H175.971V149.152H171.903V153.166C171.903 154.666 171.615 155.698 171.039 156.262C170.475 156.826 169.695 157.072 168.699 157V155.884C169.395 155.956 169.905 155.788 170.229 155.38C170.553 154.972 170.715 154.234 170.715 153.166V148ZM184.194 147.784C185.538 147.784 186.612 148.258 187.416 149.206C188.244 150.142 188.658 151.252 188.658 152.536C188.658 152.596 188.646 152.782 188.622 153.094H180.72C180.84 153.994 181.224 154.714 181.872 155.254C182.52 155.794 183.33 156.064 184.302 156.064C185.67 156.064 186.636 155.554 187.2 154.534L188.244 155.146C187.848 155.794 187.302 156.304 186.606 156.676C185.922 157.036 185.148 157.216 184.284 157.216C182.868 157.216 181.716 156.772 180.828 155.884C179.94 154.996 179.496 153.868 179.496 152.5C179.496 151.144 179.934 150.022 180.81 149.134C181.686 148.234 182.814 147.784 184.194 147.784ZM184.194 148.936C183.258 148.936 182.472 149.212 181.836 149.764C181.212 150.316 180.84 151.042 180.72 151.942H187.434C187.302 150.982 186.936 150.244 186.336 149.728C185.712 149.2 184.998 148.936 184.194 148.936ZM198.116 148V155.848H199.376V159.412H198.188V157H190.844V159.412H189.656V155.848H190.754C191.366 155.032 191.672 153.898 191.672 152.446V148H198.116ZM192.194 155.848H196.928V149.152H192.86V152.446C192.86 153.838 192.638 154.972 192.194 155.848ZM204.745 155.542L207.661 148H208.921L205.069 157.828C204.709 158.74 204.205 159.442 203.557 159.934C202.921 160.438 202.213 160.66 201.433 160.6V159.484C202.513 159.616 203.335 158.992 203.899 157.612L204.133 157.054L200.101 148H201.361L204.745 155.542ZM218.403 147.784C219.723 147.784 220.839 148.24 221.751 149.152C222.675 150.052 223.137 151.168 223.137 152.5C223.137 153.82 222.675 154.942 221.751 155.866C220.827 156.766 219.711 157.216 218.403 157.216C217.203 157.216 216.159 156.826 215.271 156.046C214.395 155.242 213.897 154.252 213.777 153.076H211.905V157H210.717V148H211.905V151.924H213.777C213.909 150.736 214.407 149.752 215.271 148.972C216.147 148.18 217.191 147.784 218.403 147.784ZM215.883 155.038C216.567 155.722 217.407 156.064 218.403 156.064C219.399 156.064 220.239 155.722 220.923 155.038C221.607 154.33 221.949 153.484 221.949 152.5C221.949 151.504 221.607 150.664 220.923 149.98C220.239 149.284 219.399 148.936 218.403 148.936C217.407 148.936 216.567 149.284 215.883 149.98C215.199 150.664 214.857 151.504 214.857 152.5C214.857 153.484 215.199 154.33 215.883 155.038ZM237.534 148V155.848H238.794V159.412H237.606V157H225.474V148H226.662V155.848H230.91V148H232.098V155.848H236.346V148H237.534ZM244.757 147.784C246.101 147.784 247.175 148.258 247.979 149.206C248.807 150.142 249.221 151.252 249.221 152.536C249.221 152.596 249.209 152.782 249.185 153.094H241.283C241.403 153.994 241.787 154.714 242.435 155.254C243.083 155.794 243.893 156.064 244.865 156.064C246.233 156.064 247.199 155.554 247.763 154.534L248.807 155.146C248.411 155.794 247.865 156.304 247.169 156.676C246.485 157.036 245.711 157.216 244.847 157.216C243.431 157.216 242.279 156.772 241.391 155.884C240.503 154.996 240.059 153.868 240.059 152.5C240.059 151.144 240.497 150.022 241.373 149.134C242.249 148.234 243.377 147.784 244.757 147.784ZM244.757 148.936C243.821 148.936 243.035 149.212 242.399 149.764C241.775 150.316 241.403 151.042 241.283 151.942H247.997C247.865 150.982 247.499 150.244 246.899 149.728C246.275 149.2 245.561 148.936 244.757 148.936ZM251.471 148H257.231V149.152H252.659V157H251.471V148ZM266.228 155.866C265.304 156.766 264.188 157.216 262.88 157.216C261.548 157.216 260.426 156.766 259.514 155.866C258.602 154.954 258.146 153.832 258.146 152.5C258.146 151.168 258.602 150.052 259.514 149.152C260.426 148.24 261.548 147.784 262.88 147.784C264.2 147.784 265.316 148.24 266.228 149.152C267.152 150.052 267.614 151.168 267.614 152.5C267.614 153.82 267.152 154.942 266.228 155.866ZM260.36 155.038C261.044 155.722 261.884 156.064 262.88 156.064C263.876 156.064 264.716 155.722 265.4 155.038C266.084 154.33 266.426 153.484 266.426 152.5C266.426 151.504 266.084 150.664 265.4 149.98C264.716 149.284 263.876 148.936 262.88 148.936C261.884 148.936 261.044 149.284 260.36 149.98C259.676 150.664 259.334 151.504 259.334 152.5C259.334 153.484 259.676 154.33 260.36 155.038ZM282.275 148H283.643V157H282.455V149.818L279.305 154.93H279.161L276.011 149.818V157H274.823V148H276.191L279.233 152.932L282.275 148ZM290.678 147.784C292.022 147.784 293.096 148.258 293.9 149.206C294.728 150.142 295.142 151.252 295.142 152.536C295.142 152.596 295.13 152.782 295.106 153.094H287.204C287.324 153.994 287.708 154.714 288.356 155.254C289.004 155.794 289.814 156.064 290.786 156.064C292.154 156.064 293.12 155.554 293.684 154.534L294.728 155.146C294.332 155.794 293.786 156.304 293.09 156.676C292.406 157.036 291.632 157.216 290.768 157.216C289.352 157.216 288.2 156.772 287.312 155.884C286.424 154.996 285.98 153.868 285.98 152.5C285.98 151.144 286.418 150.022 287.294 149.134C288.17 148.234 289.298 147.784 290.678 147.784ZM290.678 148.936C289.742 148.936 288.956 149.212 288.32 149.764C287.696 150.316 287.324 151.042 287.204 151.942H293.918C293.786 150.982 293.42 150.244 292.82 149.728C292.196 149.2 291.482 148.936 290.678 148.936ZM301.586 157.216C300.23 157.216 299.102 156.766 298.202 155.866C297.302 154.942 296.852 153.82 296.852 152.5C296.852 151.168 297.302 150.052 298.202 149.152C299.102 148.24 300.23 147.784 301.586 147.784C302.474 147.784 303.272 148 303.98 148.432C304.688 148.852 305.204 149.422 305.528 150.142L304.556 150.7C304.316 150.16 303.926 149.734 303.386 149.422C302.858 149.098 302.258 148.936 301.586 148.936C300.59 148.936 299.75 149.284 299.066 149.98C298.382 150.664 298.04 151.504 298.04 152.5C298.04 153.484 298.382 154.33 299.066 155.038C299.75 155.722 300.59 156.064 301.586 156.064C302.246 156.064 302.84 155.908 303.368 155.596C303.908 155.284 304.328 154.852 304.628 154.3L305.618 154.876C305.246 155.596 304.7 156.166 303.98 156.586C303.26 157.006 302.462 157.216 301.586 157.216ZM310.334 148H313.988V157H312.8V153.544H311.252L308.48 157H306.968L309.812 153.508C309.08 153.4 308.48 153.1 308.012 152.608C307.556 152.104 307.328 151.498 307.328 150.79C307.328 149.986 307.616 149.32 308.192 148.792C308.792 148.264 309.506 148 310.334 148ZM310.334 152.428H312.8V149.152H310.334C309.818 149.152 309.386 149.308 309.038 149.62C308.69 149.92 308.516 150.31 308.516 150.79C308.516 151.27 308.69 151.666 309.038 151.978C309.386 152.278 309.818 152.428 310.334 152.428ZM324.248 148V155.848H325.688V159.412H324.5V157H316.868V148H318.056V155.848H323.06V148H324.248ZM335.234 149.764V148H336.422V157H335.234V155.236C334.406 156.556 333.194 157.216 331.598 157.216C330.314 157.216 329.216 156.76 328.304 155.848C327.404 154.936 326.954 153.82 326.954 152.5C326.954 151.18 327.404 150.064 328.304 149.152C329.216 148.24 330.314 147.784 331.598 147.784C333.194 147.784 334.406 148.444 335.234 149.764ZM329.168 155.038C329.852 155.722 330.692 156.064 331.688 156.064C332.684 156.064 333.524 155.722 334.208 155.038C334.892 154.33 335.234 153.484 335.234 152.5C335.234 151.504 334.892 150.664 334.208 149.98C333.524 149.284 332.684 148.936 331.688 148.936C330.692 148.936 329.852 149.284 329.168 149.98C328.484 150.664 328.142 151.504 328.142 152.5C328.142 153.484 328.484 154.33 329.168 155.038ZM344.157 148H351.717V157H350.529V149.152H345.345V157H344.157V148ZM362.131 155.866C361.207 156.766 360.091 157.216 358.783 157.216C357.451 157.216 356.329 156.766 355.417 155.866C354.505 154.954 354.049 153.832 354.049 152.5C354.049 151.168 354.505 150.052 355.417 149.152C356.329 148.24 357.451 147.784 358.783 147.784C360.103 147.784 361.219 148.24 362.131 149.152C363.055 150.052 363.517 151.168 363.517 152.5C363.517 153.82 363.055 154.942 362.131 155.866ZM356.263 155.038C356.947 155.722 357.787 156.064 358.783 156.064C359.779 156.064 360.619 155.722 361.303 155.038C361.987 154.33 362.329 153.484 362.329 152.5C362.329 151.504 361.987 150.664 361.303 149.98C360.619 149.284 359.779 148.936 358.783 148.936C357.787 148.936 356.947 149.284 356.263 149.98C355.579 150.664 355.237 151.504 355.237 152.5C355.237 153.484 355.579 154.33 356.263 155.038ZM370.059 157.216C368.703 157.216 367.575 156.766 366.675 155.866C365.775 154.942 365.325 153.82 365.325 152.5C365.325 151.168 365.775 150.052 366.675 149.152C367.575 148.24 368.703 147.784 370.059 147.784C370.947 147.784 371.745 148 372.453 148.432C373.161 148.852 373.677 149.422 374.001 150.142L373.029 150.7C372.789 150.16 372.399 149.734 371.859 149.422C371.331 149.098 370.731 148.936 370.059 148.936C369.063 148.936 368.223 149.284 367.539 149.98C366.855 150.664 366.513 151.504 366.513 152.5C366.513 153.484 366.855 154.33 367.539 155.038C368.223 155.722 369.063 156.064 370.059 156.064C370.719 156.064 371.313 155.908 371.841 155.596C372.381 155.284 372.801 154.852 373.101 154.3L374.091 154.876C373.719 155.596 373.173 156.166 372.453 156.586C371.733 157.006 370.935 157.216 370.059 157.216ZM376.917 148H383.361V157H382.173V149.152H378.105V153.166C378.105 154.666 377.817 155.698 377.241 156.262C376.677 156.826 375.897 157.072 374.901 157V155.884C375.597 155.956 376.107 155.788 376.431 155.38C376.755 154.972 376.917 154.234 376.917 153.166V148ZM390.396 147.784C391.74 147.784 392.814 148.258 393.618 149.206C394.446 150.142 394.86 151.252 394.86 152.536C394.86 152.596 394.848 152.782 394.824 153.094H386.922C387.042 153.994 387.426 154.714 388.074 155.254C388.722 155.794 389.532 156.064 390.504 156.064C391.872 156.064 392.838 155.554 393.402 154.534L394.446 155.146C394.05 155.794 393.504 156.304 392.808 156.676C392.124 157.036 391.35 157.216 390.486 157.216C389.07 157.216 387.918 156.772 387.03 155.884C386.142 154.996 385.698 153.868 385.698 152.5C385.698 151.144 386.136 150.022 387.012 149.134C387.888 148.234 389.016 147.784 390.396 147.784ZM390.396 148.936C389.46 148.936 388.674 149.212 388.038 149.764C387.414 150.316 387.042 151.042 386.922 151.942H393.636C393.504 150.982 393.138 150.244 392.538 149.728C391.914 149.2 391.2 148.936 390.396 148.936ZM22.26 172H29.82V181H28.632V173.152H23.448V181H22.26V172ZM40.2343 179.866C39.3103 180.766 38.1943 181.216 36.8863 181.216C35.5543 181.216 34.4323 180.766 33.5203 179.866C32.6083 178.954 32.1523 177.832 32.1523 176.5C32.1523 175.168 32.6083 174.052 33.5203 173.152C34.4323 172.24 35.5543 171.784 36.8863 171.784C38.2063 171.784 39.3223 172.24 40.2343 173.152C41.1583 174.052 41.6203 175.168 41.6203 176.5C41.6203 177.82 41.1583 178.942 40.2343 179.866ZM34.3663 179.038C35.0503 179.722 35.8903 180.064 36.8863 180.064C37.8823 180.064 38.7223 179.722 39.4063 179.038C40.0903 178.33 40.4323 177.484 40.4323 176.5C40.4323 175.504 40.0903 174.664 39.4063 173.98C38.7223 173.284 37.8823 172.936 36.8863 172.936C35.8903 172.936 35.0503 173.284 34.3663 173.98C33.6823 174.664 33.3403 175.504 33.3403 176.5C33.3403 177.484 33.6823 178.33 34.3663 179.038ZM46.4163 176.32L51.2403 181H49.6563L45.1563 176.662V181H43.9683V172H45.1563V175.978L49.4403 172H51.0603L46.4163 176.32ZM56.4353 179.542L59.3513 172H60.6112L56.7593 181.828C56.3993 182.74 55.8953 183.442 55.2473 183.934C54.6113 184.438 53.9033 184.66 53.1233 184.6V183.484C54.2033 183.616 55.0253 182.992 55.5893 181.612L55.8233 181.054L51.7912 172H53.0513L56.4353 179.542ZM62.407 172H69.967V181H68.779V173.152H63.595V181H62.407V172ZM75.2873 176.32L80.1113 181H78.5273L74.0273 176.662V181H72.8393V172H74.0273V175.978L78.3113 172H79.9313L75.2873 176.32ZM83.2818 178.93L88.6458 172H89.6538V181H88.4658V174.07L83.1018 181H82.0938V172H83.2818V178.93ZM94.3261 180.19C94.3261 180.466 94.2301 180.7 94.0381 180.892C93.8461 181.084 93.6121 181.18 93.3361 181.18C93.0601 181.18 92.8261 181.084 92.6341 180.892C92.4421 180.7 92.3461 180.466 92.3461 180.19C92.3461 179.914 92.4421 179.68 92.6341 179.488C92.8261 179.296 93.0601 179.2 93.3361 179.2C93.6121 179.2 93.8461 179.296 94.0381 179.488C94.2301 179.68 94.3261 179.914 94.3261 180.19ZM112.497 179.326C111.237 180.586 109.695 181.216 107.871 181.216C106.047 181.216 104.505 180.586 103.245 179.326C101.985 178.042 101.355 176.5 101.355 174.7C101.355 172.888 101.985 171.352 103.245 170.092C104.505 168.82 106.047 168.184 107.871 168.184C109.695 168.184 111.237 168.82 112.497 170.092C113.757 171.352 114.387 172.888 114.387 174.7C114.387 176.5 113.757 178.042 112.497 179.326ZM102.615 174.7C102.615 176.188 103.119 177.442 104.127 178.462C105.135 179.482 106.383 179.992 107.871 179.992C109.359 179.992 110.607 179.482 111.615 178.462C112.623 177.442 113.127 176.188 113.127 174.7C113.127 173.224 112.623 171.976 111.615 170.956C110.607 169.924 109.359 169.408 107.871 169.408C106.383 169.408 105.135 169.924 104.127 170.956C103.119 171.976 102.615 173.224 102.615 174.7ZM115.641 172H123.201V173.152H120.015V181H118.827V173.152H115.641V172ZM128.851 181.216C127.495 181.216 126.367 180.766 125.467 179.866C124.567 178.942 124.117 177.82 124.117 176.5C124.117 175.168 124.567 174.052 125.467 173.152C126.367 172.24 127.495 171.784 128.851 171.784C129.739 171.784 130.537 172 131.245 172.432C131.953 172.852 132.469 173.422 132.793 174.142L131.821 174.7C131.581 174.16 131.191 173.734 130.651 173.422C130.123 173.098 129.523 172.936 128.851 172.936C127.855 172.936 127.015 173.284 126.331 173.98C125.647 174.664 125.305 175.504 125.305 176.5C125.305 177.484 125.647 178.33 126.331 179.038C127.015 179.722 127.855 180.064 128.851 180.064C129.511 180.064 130.105 179.908 130.633 179.596C131.173 179.284 131.593 178.852 131.893 178.3L132.883 178.876C132.511 179.596 131.965 180.166 131.245 180.586C130.525 181.006 129.727 181.216 128.851 181.216ZM135.709 172H142.153V181H140.965V173.152H136.897V177.166C136.897 178.666 136.609 179.698 136.033 180.262C135.469 180.826 134.689 181.072 133.693 181V179.884C134.389 179.956 134.899 179.788 135.223 179.38C135.547 178.972 135.709 178.234 135.709 177.166V172ZM149.188 171.784C150.532 171.784 151.606 172.258 152.41 173.206C153.238 174.142 153.652 175.252 153.652 176.536C153.652 176.596 153.64 176.782 153.616 177.094H145.714C145.834 177.994 146.218 178.714 146.866 179.254C147.514 179.794 148.324 180.064 149.296 180.064C150.664 180.064 151.63 179.554 152.194 178.534L153.238 179.146C152.842 179.794 152.296 180.304 151.6 180.676C150.916 181.036 150.142 181.216 149.278 181.216C147.862 181.216 146.71 180.772 145.822 179.884C144.934 178.996 144.49 177.868 144.49 176.5C144.49 175.144 144.928 174.022 145.804 173.134C146.68 172.234 147.808 171.784 149.188 171.784ZM149.188 172.936C148.252 172.936 147.466 173.212 146.83 173.764C146.206 174.316 145.834 175.042 145.714 175.942H152.428C152.296 174.982 151.93 174.244 151.33 173.728C150.706 173.2 149.992 172.936 149.188 172.936ZM161.837 176.32L165.869 181H164.429L160.757 176.662V181H159.569V176.662L155.897 181H154.457L158.489 176.32L154.637 172H156.077L159.569 175.996V172H160.757V175.996L164.249 172H165.689L161.837 176.32ZM169.034 178.93L174.398 172H175.406V181H174.218V174.07L168.854 181H167.846V172H169.034V178.93ZM184.002 176.374C184.986 176.734 185.478 177.436 185.478 178.48C185.478 179.224 185.226 179.83 184.722 180.298C184.23 180.766 183.54 181 182.652 181H178.278V172H182.292C183.156 172 183.828 172.222 184.308 172.666C184.8 173.11 185.046 173.692 185.046 174.412C185.046 175.312 184.698 175.966 184.002 176.374ZM182.292 173.152H179.466V175.888H182.292C183.336 175.888 183.858 175.42 183.858 174.484C183.858 174.064 183.72 173.74 183.444 173.512C183.18 173.272 182.796 173.152 182.292 173.152ZM179.466 179.848H182.652C183.18 179.848 183.582 179.722 183.858 179.47C184.146 179.218 184.29 178.864 184.29 178.408C184.29 177.976 184.146 177.64 183.858 177.4C183.582 177.16 183.18 177.04 182.652 177.04H179.466V179.848ZM195.378 173.764V172H196.566V181H195.378V179.236C194.55 180.556 193.338 181.216 191.742 181.216C190.458 181.216 189.36 180.76 188.448 179.848C187.548 178.936 187.098 177.82 187.098 176.5C187.098 175.18 187.548 174.064 188.448 173.152C189.36 172.24 190.458 171.784 191.742 171.784C193.338 171.784 194.55 172.444 195.378 173.764ZM189.312 179.038C189.996 179.722 190.836 180.064 191.832 180.064C192.828 180.064 193.668 179.722 194.352 179.038C195.036 178.33 195.378 177.484 195.378 176.5C195.378 175.504 195.036 174.664 194.352 173.98C193.668 173.284 192.828 172.936 191.832 172.936C190.836 172.936 189.996 173.284 189.312 173.98C188.628 174.664 188.286 175.504 188.286 176.5C188.286 177.484 188.628 178.33 189.312 179.038ZM205.561 170.56H200.881V169.516H205.561V170.56ZM200.629 178.93L205.993 172H207.001V181H205.813V174.07L200.449 181H199.441V172H200.629V178.93ZM208.793 172H216.353V173.152H213.167V181H211.979V173.152H208.793V172ZM221.968 171.784C223.312 171.784 224.386 172.258 225.19 173.206C226.018 174.142 226.432 175.252 226.432 176.536C226.432 176.596 226.42 176.782 226.396 177.094H218.494C218.614 177.994 218.998 178.714 219.646 179.254C220.294 179.794 221.104 180.064 222.076 180.064C223.444 180.064 224.41 179.554 224.974 178.534L226.018 179.146C225.622 179.794 225.076 180.304 224.38 180.676C223.696 181.036 222.922 181.216 222.058 181.216C220.642 181.216 219.49 180.772 218.602 179.884C217.714 178.996 217.27 177.868 217.27 176.5C217.27 175.144 217.708 174.022 218.584 173.134C219.46 172.234 220.588 171.784 221.968 171.784ZM221.968 172.936C221.032 172.936 220.246 173.212 219.61 173.764C218.986 174.316 218.614 175.042 218.494 175.942H225.208C225.076 174.982 224.71 174.244 224.11 173.728C223.486 173.2 222.772 172.936 221.968 172.936ZM237.735 181.216C236.379 181.216 235.251 180.766 234.351 179.866C233.451 178.942 233.001 177.82 233.001 176.5C233.001 175.168 233.451 174.052 234.351 173.152C235.251 172.24 236.379 171.784 237.735 171.784C238.623 171.784 239.421 172 240.129 172.432C240.837 172.852 241.353 173.422 241.677 174.142L240.705 174.7C240.465 174.16 240.075 173.734 239.535 173.422C239.007 173.098 238.407 172.936 237.735 172.936C236.739 172.936 235.899 173.284 235.215 173.98C234.531 174.664 234.189 175.504 234.189 176.5C234.189 177.484 234.531 178.33 235.215 179.038C235.899 179.722 236.739 180.064 237.735 180.064C238.395 180.064 238.989 179.908 239.517 179.596C240.057 179.284 240.477 178.852 240.777 178.3L241.767 178.876C241.395 179.596 240.849 180.166 240.129 180.586C239.409 181.006 238.611 181.216 237.735 181.216ZM251.287 179.866C250.363 180.766 249.247 181.216 247.939 181.216C246.607 181.216 245.485 180.766 244.573 179.866C243.661 178.954 243.205 177.832 243.205 176.5C243.205 175.168 243.661 174.052 244.573 173.152C245.485 172.24 246.607 171.784 247.939 171.784C249.259 171.784 250.375 172.24 251.287 173.152C252.211 174.052 252.673 175.168 252.673 176.5C252.673 177.82 252.211 178.942 251.287 179.866ZM245.419 179.038C246.103 179.722 246.943 180.064 247.939 180.064C248.935 180.064 249.775 179.722 250.459 179.038C251.143 178.33 251.485 177.484 251.485 176.5C251.485 175.504 251.143 174.664 250.459 173.98C249.775 173.284 248.935 172.936 247.939 172.936C246.943 172.936 246.103 173.284 245.419 173.98C244.735 174.664 244.393 175.504 244.393 176.5C244.393 177.484 244.735 178.33 245.419 179.038ZM259.215 181.216C257.859 181.216 256.731 180.766 255.831 179.866C254.931 178.942 254.481 177.82 254.481 176.5C254.481 175.168 254.931 174.052 255.831 173.152C256.731 172.24 257.859 171.784 259.215 171.784C260.103 171.784 260.901 172 261.609 172.432C262.317 172.852 262.833 173.422 263.157 174.142L262.185 174.7C261.945 174.16 261.555 173.734 261.015 173.422C260.487 173.098 259.887 172.936 259.215 172.936C258.219 172.936 257.379 173.284 256.695 173.98C256.011 174.664 255.669 175.504 255.669 176.5C255.669 177.484 256.011 178.33 256.695 179.038C257.379 179.722 258.219 180.064 259.215 180.064C259.875 180.064 260.469 179.908 260.997 179.596C261.537 179.284 261.957 178.852 262.257 178.3L263.247 178.876C262.875 179.596 262.329 180.166 261.609 180.586C260.889 181.006 260.091 181.216 259.215 181.216ZM264.057 172H271.617V173.152H268.431V181H267.243V173.152H264.057V172ZM280.615 179.866C279.691 180.766 278.575 181.216 277.267 181.216C275.935 181.216 274.813 180.766 273.901 179.866C272.989 178.954 272.533 177.832 272.533 176.5C272.533 175.168 272.989 174.052 273.901 173.152C274.813 172.24 275.935 171.784 277.267 171.784C278.587 171.784 279.703 172.24 280.615 173.152C281.539 174.052 282.001 175.168 282.001 176.5C282.001 177.82 281.539 178.942 280.615 179.866ZM274.747 179.038C275.431 179.722 276.271 180.064 277.267 180.064C278.263 180.064 279.103 179.722 279.787 179.038C280.471 178.33 280.813 177.484 280.813 176.5C280.813 175.504 280.471 174.664 279.787 173.98C279.103 173.284 278.263 172.936 277.267 172.936C276.271 172.936 275.431 173.284 274.747 173.98C274.063 174.664 273.721 175.504 273.721 176.5C273.721 177.484 274.063 178.33 274.747 179.038ZM286.824 172H290.478V181H289.29V177.544H287.742L284.97 181H283.458L286.302 177.508C285.57 177.4 284.97 177.1 284.502 176.608C284.046 176.104 283.818 175.498 283.818 174.79C283.818 173.986 284.106 173.32 284.682 172.792C285.282 172.264 285.996 172 286.824 172ZM286.824 176.428H289.29V173.152H286.824C286.308 173.152 285.876 173.308 285.528 173.62C285.18 173.92 285.006 174.31 285.006 174.79C285.006 175.27 285.18 175.666 285.528 175.978C285.876 176.278 286.308 176.428 286.824 176.428ZM299.73 175.924V172H300.918V181H299.73V177.076H294.546V181H293.358V172H294.546V175.924H299.73ZM304.978 178.93L310.342 172H311.35V181H310.162V174.07L304.798 181H303.79V172H304.978V178.93ZM318.38 171.784C319.724 171.784 320.798 172.258 321.602 173.206C322.43 174.142 322.844 175.252 322.844 176.536C322.844 176.596 322.832 176.782 322.808 177.094H314.906C315.026 177.994 315.41 178.714 316.058 179.254C316.706 179.794 317.516 180.064 318.488 180.064C319.856 180.064 320.822 179.554 321.386 178.534L322.43 179.146C322.034 179.794 321.488 180.304 320.792 180.676C320.108 181.036 319.334 181.216 318.47 181.216C317.054 181.216 315.902 180.772 315.014 179.884C314.126 178.996 313.682 177.868 313.682 176.5C313.682 175.144 314.12 174.022 314.996 173.134C315.872 172.234 317 171.784 318.38 171.784ZM318.38 172.936C317.444 172.936 316.658 173.212 316.022 173.764C315.398 174.316 315.026 175.042 314.906 175.942H321.62C321.488 174.982 321.122 174.244 320.522 173.728C319.898 173.2 319.184 172.936 318.38 172.936ZM329.954 172H337.514V181H336.326V173.152H331.142V181H329.954V172ZM347.928 179.866C347.004 180.766 345.888 181.216 344.58 181.216C343.248 181.216 342.126 180.766 341.214 179.866C340.302 178.954 339.846 177.832 339.846 176.5C339.846 175.168 340.302 174.052 341.214 173.152C342.126 172.24 343.248 171.784 344.58 171.784C345.9 171.784 347.016 172.24 347.928 173.152C348.852 174.052 349.314 175.168 349.314 176.5C349.314 177.82 348.852 178.942 347.928 179.866ZM342.06 179.038C342.744 179.722 343.584 180.064 344.58 180.064C345.576 180.064 346.416 179.722 347.1 179.038C347.784 178.33 348.126 177.484 348.126 176.5C348.126 175.504 347.784 174.664 347.1 173.98C346.416 173.284 345.576 172.936 344.58 172.936C343.584 172.936 342.744 173.284 342.06 173.98C341.376 174.664 341.034 175.504 341.034 176.5C341.034 177.484 341.376 178.33 342.06 179.038ZM356.486 171.784C357.77 171.784 358.862 172.24 359.762 173.152C360.674 174.064 361.13 175.18 361.13 176.5C361.13 177.82 360.674 178.936 359.762 179.848C358.862 180.76 357.77 181.216 356.486 181.216C354.89 181.216 353.678 180.556 352.85 179.236V184.6H351.662V172H352.85V173.764C353.678 172.444 354.89 171.784 356.486 171.784ZM353.876 179.038C354.56 179.722 355.4 180.064 356.396 180.064C357.392 180.064 358.232 179.722 358.916 179.038C359.6 178.33 359.942 177.484 359.942 176.5C359.942 175.504 359.6 174.664 358.916 173.98C358.232 173.284 357.392 172.936 356.396 172.936C355.4 172.936 354.56 173.284 353.876 173.98C353.192 174.664 352.85 175.504 352.85 176.5C352.85 177.484 353.192 178.33 353.876 179.038ZM362.034 172H369.594V173.152H366.408V181H365.22V173.152H362.034V172ZM376.414 181.198V184.6H375.226V181.198C373.798 181.066 372.658 180.568 371.806 179.704C370.942 178.816 370.51 177.748 370.51 176.5C370.51 175.252 370.942 174.184 371.806 173.296C372.658 172.432 373.798 171.934 375.226 171.802V168.4H376.414V171.802C377.842 171.934 378.982 172.432 379.834 173.296C380.698 174.184 381.13 175.252 381.13 176.5C381.13 177.748 380.698 178.816 379.834 179.704C378.982 180.568 377.842 181.066 376.414 181.198ZM375.226 180.028V172.972C374.158 173.08 373.3 173.458 372.652 174.106C372.016 174.754 371.698 175.552 371.698 176.5C371.698 177.448 372.016 178.246 372.652 178.894C373.3 179.542 374.158 179.92 375.226 180.028ZM376.414 172.972V180.028C377.482 179.92 378.334 179.542 378.97 178.894C379.618 178.246 379.942 177.448 379.942 176.5C379.942 175.552 379.618 174.754 378.97 174.106C378.334 173.458 377.482 173.08 376.414 172.972ZM387.627 171.784C388.971 171.784 390.045 172.258 390.849 173.206C391.677 174.142 392.091 175.252 392.091 176.536C392.091 176.596 392.079 176.782 392.055 177.094H384.153C384.273 177.994 384.657 178.714 385.305 179.254C385.953 179.794 386.763 180.064 387.735 180.064C389.103 180.064 390.069 179.554 390.633 178.534L391.677 179.146C391.281 179.794 390.735 180.304 390.039 180.676C389.355 181.036 388.581 181.216 387.717 181.216C386.301 181.216 385.149 180.772 384.261 179.884C383.373 178.996 382.929 177.868 382.929 176.5C382.929 175.144 383.367 174.022 384.243 173.134C385.119 172.234 386.247 171.784 387.627 171.784ZM387.627 172.936C386.691 172.936 385.905 173.212 385.269 173.764C384.645 174.316 384.273 175.042 384.153 175.942H390.867C390.735 174.982 390.369 174.244 389.769 173.728C389.145 173.2 388.431 172.936 387.627 172.936ZM394.925 172H401.369V181H400.181V173.152H396.113V177.166C396.113 178.666 395.825 179.698 395.249 180.262C394.685 180.826 393.905 181.072 392.909 181V179.884C393.605 179.956 394.115 179.788 394.439 179.38C394.763 178.972 394.925 178.234 394.925 177.166V172ZM407.071 172H410.725V181H409.537V177.544H407.989L405.217 181H403.705L406.549 177.508C405.817 177.4 405.217 177.1 404.749 176.608C404.293 176.104 404.065 175.498 404.065 174.79C404.065 173.986 404.353 173.32 404.929 172.792C405.529 172.264 406.243 172 407.071 172ZM407.071 176.428H409.537V173.152H407.071C406.555 173.152 406.123 173.308 405.775 173.62C405.427 173.92 405.253 174.31 405.253 174.79C405.253 175.27 405.427 175.666 405.775 175.978C406.123 176.278 406.555 176.428 407.071 176.428ZM424.189 176.374C425.173 176.734 425.665 177.436 425.665 178.48C425.665 179.224 425.413 179.83 424.909 180.298C424.417 180.766 423.727 181 422.839 181H418.465V172H422.479C423.343 172 424.015 172.222 424.495 172.666C424.987 173.11 425.233 173.692 425.233 174.412C425.233 175.312 424.885 175.966 424.189 176.374ZM422.479 173.152H419.653V175.888H422.479C423.523 175.888 424.045 175.42 424.045 174.484C424.045 174.064 423.907 173.74 423.631 173.512C423.367 173.272 422.983 173.152 422.479 173.152ZM419.653 179.848H422.839C423.367 179.848 423.769 179.722 424.045 179.47C424.333 179.218 424.477 178.864 424.477 178.408C424.477 177.976 424.333 177.64 424.045 177.4C423.769 177.16 423.367 177.04 422.839 177.04H419.653V179.848ZM23.196 196H29.64V205H28.452V197.152H24.384V201.166C24.384 202.666 24.096 203.698 23.52 204.262C22.956 204.826 22.176 205.072 21.18 205V203.884C21.876 203.956 22.386 203.788 22.71 203.38C23.034 202.972 23.196 202.234 23.196 201.166V196ZM33.7045 202.93L39.0685 196H40.0765V205H38.8885V198.07L33.5245 205H32.5165V196H33.7045V202.93ZM48.7807 200.482V196H49.9687V205H48.7807V201.58C48.0847 201.94 47.2267 202.12 46.2067 202.12C45.0187 202.12 44.1187 201.85 43.5067 201.31C42.8947 200.758 42.5887 199.948 42.5887 198.88V196H43.7767V198.88C43.7767 199.624 43.9687 200.164 44.3527 200.5C44.7487 200.836 45.3547 201.004 46.1707 201.004C47.0827 201.004 47.9527 200.83 48.7807 200.482ZM59.2257 199.924V196H60.4137V205H59.2257V201.076H54.0417V205H52.8537V196H54.0417V199.924H59.2257ZM70.8279 203.866C69.9039 204.766 68.7879 205.216 67.4799 205.216C66.1479 205.216 65.0259 204.766 64.1139 203.866C63.2019 202.954 62.7459 201.832 62.7459 200.5C62.7459 199.168 63.2019 198.052 64.1139 197.152C65.0259 196.24 66.1479 195.784 67.4799 195.784C68.7999 195.784 69.9159 196.24 70.8279 197.152C71.7519 198.052 72.2139 199.168 72.2139 200.5C72.2139 201.82 71.7519 202.942 70.8279 203.866ZM64.9599 203.038C65.6439 203.722 66.4839 204.064 67.4799 204.064C68.4759 204.064 69.3159 203.722 69.9999 203.038C70.6839 202.33 71.0259 201.484 71.0259 200.5C71.0259 199.504 70.6839 198.664 69.9999 197.98C69.3159 197.284 68.4759 196.936 67.4799 196.936C66.4839 196.936 65.6439 197.284 64.9599 197.98C64.2759 198.664 63.9339 199.504 63.9339 200.5C63.9339 201.484 64.2759 202.33 64.9599 203.038ZM82.014 196H83.382V205H82.194V197.818L79.044 202.93H78.9L75.75 197.818V205H74.562V196H75.93L78.972 200.932L82.014 196ZM93.5678 200.32L98.3918 205H96.8078L92.3078 200.662V205H91.1198V196H92.3078V199.978L96.5918 196H98.2118L93.5678 200.32ZM107.218 197.764V196H108.406V205H107.218V203.236C106.39 204.556 105.178 205.216 103.582 205.216C102.298 205.216 101.2 204.76 100.288 203.848C99.3879 202.936 98.9379 201.82 98.9379 200.5C98.9379 199.18 99.3879 198.064 100.288 197.152C101.2 196.24 102.298 195.784 103.582 195.784C105.178 195.784 106.39 196.444 107.218 197.764ZM101.152 203.038C101.836 203.722 102.676 204.064 103.672 204.064C104.668 204.064 105.508 203.722 106.192 203.038C106.876 202.33 107.218 201.484 107.218 200.5C107.218 199.504 106.876 198.664 106.192 197.98C105.508 197.284 104.668 196.936 103.672 196.936C102.676 196.936 101.836 197.284 101.152 197.98C100.468 198.664 100.126 199.504 100.126 200.5C100.126 201.484 100.468 202.33 101.152 203.038ZM115.277 205.216C113.993 205.216 112.913 204.79 112.037 203.938C111.173 203.074 110.741 201.958 110.741 200.59C110.741 199.054 110.969 197.878 111.425 197.062C111.881 196.234 112.805 195.484 114.197 194.812C114.641 194.608 114.989 194.452 115.241 194.344C115.661 194.176 115.991 194.032 116.231 193.912C117.275 193.432 117.803 192.838 117.815 192.13L118.751 192.67C118.691 192.97 118.595 193.24 118.463 193.48C118.307 193.744 118.151 193.954 117.995 194.11C117.851 194.266 117.623 194.434 117.311 194.614C117.107 194.734 116.861 194.866 116.573 195.01L115.673 195.388L114.827 195.748C113.999 196.108 113.381 196.486 112.973 196.882C112.577 197.266 112.295 197.77 112.127 198.394C112.511 197.878 113.015 197.488 113.639 197.224C114.263 196.948 114.893 196.81 115.529 196.81C116.729 196.81 117.719 197.206 118.499 197.998C119.291 198.778 119.687 199.78 119.687 201.004C119.687 202.216 119.267 203.224 118.427 204.028C117.599 204.82 116.549 205.216 115.277 205.216ZM112.937 203.146C113.561 203.734 114.341 204.028 115.277 204.028C116.213 204.028 116.981 203.746 117.581 203.182C118.193 202.606 118.499 201.88 118.499 201.004C118.499 200.116 118.211 199.39 117.635 198.826C117.071 198.25 116.315 197.962 115.367 197.962C114.515 197.962 113.741 198.232 113.045 198.772C112.349 199.288 112.001 199.996 112.001 200.896C112.001 201.808 112.313 202.558 112.937 203.146ZM123.042 202.93L128.406 196H129.414V205H128.226V198.07L122.862 205H121.854V196H123.042V202.93ZM138.658 199.924V196H139.846V205H138.658V201.076H133.474V205H132.286V196H133.474V199.924H138.658ZM146.877 195.784C148.221 195.784 149.295 196.258 150.099 197.206C150.927 198.142 151.341 199.252 151.341 200.536C151.341 200.596 151.329 200.782 151.305 201.094H143.403C143.523 201.994 143.907 202.714 144.555 203.254C145.203 203.794 146.013 204.064 146.985 204.064C148.353 204.064 149.319 203.554 149.883 202.534L150.927 203.146C150.531 203.794 149.985 204.304 149.289 204.676C148.605 205.036 147.831 205.216 146.967 205.216C145.551 205.216 144.399 204.772 143.511 203.884C142.623 202.996 142.179 201.868 142.179 200.5C142.179 199.144 142.617 198.022 143.493 197.134C144.369 196.234 145.497 195.784 146.877 195.784ZM146.877 196.936C145.941 196.936 145.155 197.212 144.519 197.764C143.895 198.316 143.523 199.042 143.403 199.942H150.117C149.985 198.982 149.619 198.244 149.019 197.728C148.395 197.2 147.681 196.936 146.877 196.936ZM152.159 196H159.719V197.152H156.533V205H155.345V197.152H152.159V196ZM165.333 195.784C166.677 195.784 167.751 196.258 168.555 197.206C169.383 198.142 169.797 199.252 169.797 200.536C169.797 200.596 169.785 200.782 169.761 201.094H161.859C161.979 201.994 162.363 202.714 163.011 203.254C163.659 203.794 164.469 204.064 165.441 204.064C166.809 204.064 167.775 203.554 168.339 202.534L169.383 203.146C168.987 203.794 168.441 204.304 167.745 204.676C167.061 205.036 166.287 205.216 165.423 205.216C164.007 205.216 162.855 204.772 161.967 203.884C161.079 202.996 160.635 201.868 160.635 200.5C160.635 199.144 161.073 198.022 161.949 197.134C162.825 196.234 163.953 195.784 165.333 195.784ZM165.333 196.936C164.397 196.936 163.611 197.212 162.975 197.764C162.351 198.316 161.979 199.042 161.859 199.942H168.573C168.441 198.982 168.075 198.244 167.475 197.728C166.851 197.2 166.137 196.936 165.333 196.936Z" fill="#F3F3F3"/>
<path d="M60.6 663.64C48.64 680.627 31.74 689.12 9.90001 689.12C-11.7667 689.12 -28.7533 680.627 -41.06 663.64C-53.02 646.48 -59 623.6 -59 595C-59 566.227 -53.02 543.433 -41.06 526.62C-28.7533 509.46 -11.7667 500.88 9.90001 500.88C31.74 500.88 48.64 509.46 60.6 526.62C72.7333 543.433 78.8 566.227 78.8 595C78.8 623.773 72.7333 646.653 60.6 663.64ZM-27.54 651.42C-18.3533 664.767 -5.87333 671.44 9.90001 671.44C25.8467 671.44 38.24 664.767 47.08 651.42C56.0933 638.247 60.6 619.44 60.6 595C60.6 570.56 56.0933 551.753 47.08 538.58C38.24 525.233 25.8467 518.56 9.90001 518.56C-5.87333 518.56 -18.3533 525.233 -27.54 538.58C-36.38 551.927 -40.8 570.733 -40.8 595C-40.8 619.267 -36.38 638.073 -27.54 651.42ZM211.491 521.16L169.111 579.66C183.498 581.393 195.458 587.027 204.991 596.56C214.525 605.573 219.291 617.793 219.291 633.22C219.291 650.38 213.311 664.073 201.351 674.3C189.738 684.18 175.351 689.12 158.191 689.12C144.498 689.12 132.365 686 121.791 679.76C111.218 673.347 103.851 664.42 99.6914 652.98L114.771 644.14C117.718 652.98 122.918 659.74 130.371 664.42C137.998 669.1 147.271 671.44 158.191 671.44C171.018 671.44 181.331 668.06 189.131 661.3C197.105 654.367 201.091 645.007 201.091 633.22C201.091 621.433 197.105 612.16 189.131 605.4C181.331 598.467 171.018 595 158.191 595V594.74L157.931 595H152.991L145.191 583.04L190.431 521.16H104.891V504H211.491V521.16Z" fill="white"/>
</g>
<defs>
<clipPath id="clip0_3192_1212">
<rect width="1058" height="682" rx="40" fill="white"/>
</clipPath>
</defs>
</svg>
