<svg width="74" height="74" viewBox="0 0 74 74" fill="none" xmlns="http://www.w3.org/2000/svg">
<g clip-path="url(#clip0_2621_2336)">
<path d="M53.5195 32.1935L62.98 34.3557" stroke="#0048B4" stroke-width="2" stroke-miterlimit="10" stroke-linecap="round" stroke-linejoin="round"/>
<path d="M11.0215 34.3557L20.4637 32.1975" stroke="#0048B4" stroke-width="2" stroke-miterlimit="10" stroke-linecap="round" stroke-linejoin="round"/>
<path d="M26.2715 24.0452L28.9371 23.6578C29.5395 23.5703 30.0604 23.1919 30.3298 22.6459L35.3429 12.4886C36.0214 11.1138 37.9818 11.1138 38.6604 12.4886L43.6734 22.646C43.9428 23.1919 44.4637 23.5703 45.0661 23.6579L56.2755 25.2868C57.7927 25.5073 58.3985 27.3717 57.3006 28.4419L49.1894 36.3484C48.8451 36.684 48.6485 37.1366 48.6319 37.6078" stroke="#0048B4" stroke-width="2" stroke-miterlimit="10" stroke-linecap="round" stroke-linejoin="round"/>
<path d="M25.3704 37.6217C25.3573 37.1455 25.1603 36.6873 24.8125 36.3482L16.7013 28.4417C15.6034 27.3716 16.2092 25.5071 17.7263 25.2866L21.3358 24.7621" stroke="#0048B4" stroke-width="2" stroke-miterlimit="10" stroke-linecap="round" stroke-linejoin="round"/>
<path d="M18.582 68.7429L12.1751 67.2785C11.5001 67.1242 11.0215 66.5238 11.0215 65.8313V46.0948" stroke="#0048B4" stroke-width="2" stroke-miterlimit="10" stroke-linecap="round" stroke-linejoin="round"/>
<path d="M62.9804 46.141V65.8313C62.9804 66.5237 62.5018 67.1242 61.8267 67.2785L37.324 72.8792C37.1119 72.9276 36.8916 72.9276 36.6797 72.8792L23.5078 69.8685" stroke="#0048B4" stroke-width="2" stroke-miterlimit="10" stroke-linecap="round" stroke-linejoin="round"/>
<path d="M37 60.6537V72.7358" stroke="#0048B4" stroke-width="2" stroke-miterlimit="10" stroke-linecap="round" stroke-linejoin="round"/>
<path d="M37 40.2937V55.5925" stroke="#0048B4" stroke-width="2" stroke-miterlimit="10" stroke-linecap="round" stroke-linejoin="round"/>
<path d="M56.8334 47.4691L72.5546 43.9308L62.9796 34.3557L37.0009 40.2937L11.0222 34.3557L1.44727 43.9308L27.5002 49.7945L37.0009 40.2937" stroke="#0048B4" stroke-width="2" stroke-miterlimit="10" stroke-linecap="round" stroke-linejoin="round"/>
<path d="M37 40.2937L46.5008 49.7945L51.9216 48.5745" stroke="#0048B4" stroke-width="2" stroke-miterlimit="10" stroke-linecap="round" stroke-linejoin="round"/>
<path d="M37 1.08447V5.53799" stroke="#0048B4" stroke-width="2" stroke-miterlimit="10" stroke-linecap="round" stroke-linejoin="round"/>
<path d="M37 1.08447V5.53799" stroke="#0048B4" stroke-width="2" stroke-miterlimit="10" stroke-linecap="round" stroke-linejoin="round"/>
<path d="M49.0091 10.5123L46.1465 13.924" stroke="#0048B4" stroke-width="2" stroke-miterlimit="10" stroke-linecap="round" stroke-linejoin="round"/>
<path d="M49.0091 10.5123L46.1465 13.924" stroke="#0048B4" stroke-width="2" stroke-miterlimit="10" stroke-linecap="round" stroke-linejoin="round"/>
<path d="M62.1693 15.4259L58.7578 18.2886" stroke="#0048B4" stroke-width="2" stroke-miterlimit="10" stroke-linecap="round" stroke-linejoin="round"/>
<path d="M62.1693 15.4259L58.7578 18.2886" stroke="#0048B4" stroke-width="2" stroke-miterlimit="10" stroke-linecap="round" stroke-linejoin="round"/>
<path d="M24.9922 10.5123L27.8548 13.924" stroke="#0048B4" stroke-width="2" stroke-miterlimit="10" stroke-linecap="round" stroke-linejoin="round"/>
<path d="M24.9922 10.5123L27.8548 13.924" stroke="#0048B4" stroke-width="2" stroke-miterlimit="10" stroke-linecap="round" stroke-linejoin="round"/>
<path d="M11.832 15.4259L15.2435 18.2886" stroke="#0048B4" stroke-width="2" stroke-miterlimit="10" stroke-linecap="round" stroke-linejoin="round"/>
<path d="M11.832 15.4259L15.2435 18.2886" stroke="#0048B4" stroke-width="2" stroke-miterlimit="10" stroke-linecap="round" stroke-linejoin="round"/>
</g>
<defs>
<clipPath id="clip0_2621_2336">
<rect width="74" height="74" fill="white"/>
</clipPath>
</defs>
</svg>
