<svg width="70" height="71" viewBox="0 0 70 71" fill="none" xmlns="http://www.w3.org/2000/svg">
<g clip-path="url(#clip0_2621_2358)">
<mask id="mask0_2621_2358" style="mask-type:luminance" maskUnits="userSpaceOnUse" x="0" y="0" width="70" height="71">
<path d="M0 7.62939e-06H70V71H0V7.62939e-06Z" fill="white"/>
</mask>
<g mask="url(#mask0_2621_2358)">
<path d="M33.0758 12.2614C34.309 15.8613 34.2939 19.8023 33.0293 23.3926L39.2035 29.6564" stroke="#0048B4" stroke-width="2" stroke-miterlimit="10" stroke-linecap="round" stroke-linejoin="round"/>
<path d="M24.7421 35.2046L23.0523 33.4906C17.3251 35.5485 10.6779 34.3143 6.05677 29.7825C1.23607 25.058 -0.120183 18.1036 1.98665 12.1227L9.07962 19.3183C10.455 20.7134 12.2583 21.4109 14.0617 21.4109C15.8663 21.4109 17.6683 20.7134 19.0464 19.3183C21.7972 16.5255 21.7972 12.0006 19.0464 9.20916L11.9534 2.01348C17.764 -0.0915596 24.5097 1.2175 29.1622 5.93651C29.9593 6.74496 30.6579 7.61582 31.2568 8.53383" stroke="#0048B4" stroke-width="2" stroke-miterlimit="10" stroke-linecap="round" stroke-linejoin="round"/>
<path d="M43.6956 34.2117L66.9088 57.7565C68.2846 59.1519 68.9741 60.9818 68.9741 62.8116C68.9741 64.64 68.2846 66.4699 66.9088 67.8655C64.157 70.6579 59.6952 70.6579 56.9421 67.8655L38.2266 48.8824" stroke="#0048B4" stroke-width="2" stroke-miterlimit="10" stroke-linecap="round" stroke-linejoin="round"/>
<path d="M16.2858 69.5702C17.7897 69.1265 19.2088 68.3014 20.3942 67.0991L32.5457 54.7753C34.3874 52.9074 34.3874 49.8788 32.5457 48.0109L25.6004 40.9664C23.7588 39.0985 20.7729 39.0985 18.9313 40.9664L6.77974 53.2915C3.02134 57.1036 3.02134 63.287 6.77974 67.0991C8.31235 68.6536 10.2319 69.5744 12.2225 69.8615" stroke="#0048B4" stroke-width="2" stroke-miterlimit="10" stroke-linecap="round" stroke-linejoin="round"/>
<path d="M34.0144 49.5018L24.13 39.476C23.0999 38.4314 23.0999 36.7376 24.13 35.6929L24.1897 35.6323C25.2196 34.5877 26.8895 34.5877 27.9194 35.6323L37.804 45.6581C38.8339 46.7027 38.8339 48.3965 37.804 49.4412L37.7443 49.5018C36.7144 50.5464 35.0445 50.5464 34.0144 49.5018Z" stroke="#0048B4" stroke-width="2" stroke-miterlimit="10" stroke-linecap="round" stroke-linejoin="round"/>
<path d="M63.2782 18.754L67.845 11.5955C68.3017 10.8798 68.2032 9.93765 67.6089 9.33484L63.7322 5.40281C63.1379 4.8 62.2091 4.70016 61.5035 5.16332L54.4458 9.79524C53.1751 10.6293 52.5085 12.1446 52.7453 13.6607C52.9368 14.8878 52.5377 16.1338 51.6716 17.0121L30.6172 38.3675L35.1084 42.923L56.1629 21.5678C57.0291 20.6893 58.2573 20.2845 59.4672 20.4788C60.962 20.719 62.456 20.0428 63.2782 18.754Z" stroke="#0048B4" stroke-width="2" stroke-miterlimit="10" stroke-linecap="round" stroke-linejoin="round"/>
<path d="M23.775 63.6722L10.1605 49.8632L6.78125 53.2909L20.3956 67.0997L23.775 63.6722Z" stroke="#0048B4" stroke-width="2" stroke-miterlimit="10" stroke-linecap="round" stroke-linejoin="round"/>
<path d="M30.5328 56.8168L16.9183 43.0079L13.5391 46.4356L27.1535 60.2445L30.5328 56.8168Z" stroke="#0048B4" stroke-width="2" stroke-miterlimit="10" stroke-linecap="round" stroke-linejoin="round"/>
</g>
</g>
<defs>
<clipPath id="clip0_2621_2358">
<rect width="70" height="71" fill="white"/>
</clipPath>
</defs>
</svg>
