<svg width="74" height="74" viewBox="0 0 74 74" fill="none" xmlns="http://www.w3.org/2000/svg">
<path d="M54.3599 63.2288V69.7595C54.3599 71.5025 52.9478 72.916 51.2033 72.916H8.73859C6.9941 72.916 5.58203 71.5025 5.58203 69.7595V39.856" stroke="#0048B4" stroke-width="2" stroke-miterlimit="10" stroke-linecap="round" stroke-linejoin="round"/>
<path d="M54.3594 39.856V58.1603" stroke="#0048B4" stroke-width="2" stroke-miterlimit="10" stroke-linecap="round" stroke-linejoin="round"/>
<path d="M26.8079 31.0337H8.73859C6.9941 31.0337 5.58203 32.4472 5.58203 34.1903V39.8559H29.9962" stroke="#0048B4" stroke-width="2" stroke-miterlimit="10" stroke-linecap="round" stroke-linejoin="round"/>
<path d="M42.5938 39.856H42.5952H54.36V34.1903C54.36 33.7698 54.2777 33.368 54.1288 33.0009" stroke="#0048B4" stroke-width="2" stroke-miterlimit="10" stroke-linecap="round" stroke-linejoin="round"/>
<path d="M9.83008 46.105H24.3886" stroke="#0048B4" stroke-width="2" stroke-miterlimit="10" stroke-linecap="round" stroke-linejoin="round"/>
<path d="M9.83008 51.8143H50.1104" stroke="#0048B4" stroke-width="2" stroke-miterlimit="10" stroke-linecap="round" stroke-linejoin="round"/>
<path d="M9.83008 57.6033H32.1503" stroke="#0048B4" stroke-width="2" stroke-miterlimit="10" stroke-linecap="round" stroke-linejoin="round"/>
<path d="M9.83008 63.2738H32.1503" stroke="#0048B4" stroke-width="2" stroke-miterlimit="10" stroke-linecap="round" stroke-linejoin="round"/>
<path d="M40.3116 41.2127L37.5541 43.9702C36.6033 44.9209 35.0621 44.9209 34.1113 43.9702L25.713 35.5721C24.7623 34.6213 24.7623 33.0801 25.713 32.1293L28.4706 29.3718L40.3116 41.2127Z" stroke="#0048B4" stroke-width="2" stroke-miterlimit="10" stroke-linecap="round" stroke-linejoin="round"/>
<path d="M36.6981 15.528L28.4707 29.3717L40.3117 41.2127L63.4796 27.4436C64.8137 26.6507 65.0438 24.8136 63.9465 23.7162L45.9671 5.73705C44.8698 4.63977 43.0325 4.86972 42.2396 6.20389L39.2848 11.1756" stroke="#0048B4" stroke-width="2" stroke-miterlimit="10" stroke-linecap="round" stroke-linejoin="round"/>
<path d="M51.1758 10.9453L52.6539 9.46714C53.7471 8.37391 55.5197 8.37391 56.6129 9.46714L60.2169 13.0712C61.3102 14.1644 61.3102 15.9369 60.2169 17.0302L58.7388 18.5083L51.1758 10.9453Z" stroke="#0048B4" stroke-width="2" stroke-miterlimit="10" stroke-linecap="round" stroke-linejoin="round"/>
<path d="M54.0253 3.67702L52.9688 1.08398" stroke="#0048B4" stroke-width="2" stroke-miterlimit="10" stroke-linecap="round" stroke-linejoin="round"/>
<path d="M60.9551 3.71708L62.0415 1.13647" stroke="#0048B4" stroke-width="2" stroke-miterlimit="10" stroke-linecap="round" stroke-linejoin="round"/>
<path d="M65.8262 8.64527L68.4192 7.58875" stroke="#0048B4" stroke-width="2" stroke-miterlimit="10" stroke-linecap="round" stroke-linejoin="round"/>
<path d="M65.7852 15.5747L68.3658 16.6611" stroke="#0048B4" stroke-width="2" stroke-miterlimit="10" stroke-linecap="round" stroke-linejoin="round"/>
<path d="M48.7557 64.9315H38.853C38.1048 64.9315 37.498 64.3249 37.498 63.5766V57.5415C37.498 56.7933 38.1046 56.1865 38.853 56.1865H48.7557C49.504 56.1865 50.1107 56.7931 50.1107 57.5415V63.5766C50.1107 64.3248 49.504 64.9315 48.7557 64.9315Z" stroke="#0048B4" stroke-width="2" stroke-miterlimit="10" stroke-linecap="round" stroke-linejoin="round"/>
<circle cx="9.83008" cy="35.4448" r="1.08398" fill="#0048B4"/>
</svg>
