<svg width="76" height="76" viewBox="0 0 76 76" fill="none" xmlns="http://www.w3.org/2000/svg">
<g clip-path="url(#clip0_2621_2381)">
<path d="M1.11328 14.3481V26.5718C1.11328 31.0119 4.71274 34.6113 9.1528 34.6113H9.27274C11.0915 34.6113 12.7863 35.5337 13.7737 37.0612L16.4965 41.2726C17.361 42.6098 18.8213 43.2172 20.2271 43.0946" stroke="#0048B4" stroke-width="2" stroke-miterlimit="10" stroke-linecap="round" stroke-linejoin="round"/>
<path d="M52.6701 32.8183C54.487 31.3444 55.648 29.0937 55.648 26.5718V9.1528C55.648 4.71274 52.0486 1.11328 47.6085 1.11328H9.1528C4.71274 1.11328 1.11328 4.71274 1.11328 9.1528" stroke="#0048B4" stroke-width="2" stroke-miterlimit="10" stroke-linecap="round" stroke-linejoin="round"/>
<path d="M10.2912 15.1825H45.1292C46.6093 15.1825 47.8091 13.9827 47.8091 12.5026C47.8091 11.0226 46.6093 9.82275 45.1292 9.82275H10.2912C8.81115 9.82275 7.61133 11.0226 7.61133 12.5026C7.61133 13.9827 8.81115 15.1825 10.2912 15.1825Z" stroke="#0048B4" stroke-width="2" stroke-miterlimit="10" stroke-linecap="round" stroke-linejoin="round"/>
<path d="M45.1292 20.5421H10.2912C8.81115 20.5421 7.61133 21.7419 7.61133 23.222C7.61133 24.7021 8.81115 25.9019 10.2912 25.9019H45.1292C46.6093 25.9019 47.8091 24.7021 47.8091 23.222C47.8089 21.7419 46.6091 20.5421 45.1292 20.5421Z" stroke="#0048B4" stroke-width="2" stroke-miterlimit="10" stroke-linecap="round" stroke-linejoin="round"/>
<path d="M66.8468 32.89H28.3911C23.951 32.89 20.3516 36.4895 20.3516 40.9295V58.3485C20.3516 62.7886 23.951 66.3881 28.3911 66.3881H45.528C47.3468 66.3881 49.0416 67.3104 50.029 68.8379L52.7518 73.0493C54.3356 75.4991 57.9195 75.4991 59.5033 73.0493L62.2261 68.8379C63.2135 67.3104 64.9082 66.3881 66.727 66.3881H66.8469C71.287 66.3881 74.8865 62.7886 74.8865 58.3485V40.9295C74.8863 36.4893 71.2868 32.89 66.8468 32.89Z" stroke="#0048B4" stroke-width="2" stroke-miterlimit="10" stroke-linecap="round" stroke-linejoin="round"/>
<path d="M61.8305 53.3229L58.2286 56.9246L57.5083 56.2043C56.3148 55.0107 54.3796 55.0108 53.1862 56.2043C51.9926 57.3978 51.9926 59.3327 53.1862 60.5263L56.0675 63.4078C56.6406 63.9809 57.418 64.303 58.2286 64.3029C59.0391 64.3029 59.8166 63.9809 60.3897 63.4078L62.5505 61.2468L62.5507 61.2467L66.1524 57.645C67.346 56.4514 67.346 54.5164 66.1524 53.3229C64.9591 52.1295 63.0239 52.1295 61.8305 53.3229Z" stroke="#0048B4" stroke-width="2" stroke-miterlimit="10" stroke-linecap="round" stroke-linejoin="round"/>
<path d="M58.8743 46.9593H64.3675C65.8476 46.9593 67.0474 45.7595 67.0474 44.2794C67.0474 42.7993 65.8476 41.5995 64.3675 41.5995H29.5295C28.0494 41.5995 26.8496 42.7993 26.8496 44.2794C26.8496 45.7595 28.0494 46.9593 29.5295 46.9593H53.6789" stroke="#0048B4" stroke-width="2" stroke-miterlimit="10" stroke-linecap="round" stroke-linejoin="round"/>
<path d="M45.9372 52.3188H29.5295C28.0494 52.3188 26.8496 53.5187 26.8496 54.9987C26.8496 56.4788 28.0494 57.6786 29.5295 57.6786H45.9373C47.4174 57.6786 48.6172 56.4788 48.6172 54.9987C48.6171 53.5187 47.4173 52.3188 45.9372 52.3188Z" stroke="#0048B4" stroke-width="2" stroke-miterlimit="10" stroke-linecap="round" stroke-linejoin="round"/>
</g>
<defs>
<clipPath id="clip0_2621_2381">
<rect width="76" height="76" fill="white"/>
</clipPath>
</defs>
</svg>
