<svg width="110" height="110" viewBox="0 0 110 110" fill="none" xmlns="http://www.w3.org/2000/svg">
<path d="M33.8173 56.8477C32.6786 56.8477 32.6786 55.1289 33.8173 55.1289H73.2841C74.4227 55.1289 74.4227 56.8477 73.2841 56.8477H33.8173ZM49.7157 37.3398C49.6083 36.2227 51.327 36.0723 51.413 37.1895C51.5204 38.457 53.7118 39.1016 54.9364 38.0918C55.2587 37.834 55.4735 37.4688 55.4735 37.082C55.4735 34.5254 49.6942 36.7813 49.6942 32.3555C49.6942 30.7441 51.0262 29.541 52.5731 29.2188V28.4238C52.5731 27.9512 52.9598 27.5645 53.454 27.5645C53.9481 27.5645 54.3134 27.9512 54.3134 28.4453L54.2919 29.2402C57.2782 29.8418 57.9657 33.2363 56.3329 33.2363C55.8602 33.2363 55.4735 32.8496 55.4735 32.377C55.4735 31.0449 53.2177 30.3145 51.9501 31.3672C51.6278 31.625 51.413 31.9902 51.413 32.377C51.413 34.9336 57.1923 32.6777 57.1923 37.1035C57.1923 38.7148 55.8602 39.918 54.3134 40.2402L54.2919 41.0352C54.2919 42.1738 52.5731 42.1738 52.5731 41.0352V40.2402C51.1337 39.918 49.8661 38.8438 49.7157 37.3398ZM53.454 21.7637C60.6083 21.7637 66.3876 27.5645 66.3876 34.6973C66.3876 41.8516 60.5868 47.6523 53.454 47.6523C46.2997 47.6523 40.4989 41.8516 40.4989 34.6973C40.5204 27.5645 46.3212 21.7637 53.454 21.7637ZM61.4032 26.7695C57.0204 22.3867 49.9091 22.3867 45.5262 26.7695C41.1434 31.1523 41.1434 38.2637 45.5262 42.6465C49.9091 47.0293 57.0204 47.0293 61.4032 42.6465C65.7645 38.2637 65.7645 31.1523 61.4032 26.7695ZM53.454 16.2637C64.6473 16.2637 73.2626 26.1465 71.7157 37.2539C74.2938 38.0918 76.8505 39.0586 79.3856 40.1543C82.0927 37.834 84.6493 36.6953 86.7762 36.1367C89.0321 35.5352 90.7938 35.5996 91.7391 35.6426C92.62 35.6855 93.0497 36.416 93.0067 37.4043C92.9208 39.5098 91.1376 42.8828 89.5907 45.0312C94.618 48.2969 94.8544 51.7344 95.0262 54.5273C95.2196 57.2988 95.3485 59.2969 103.169 59.2969C103.599 59.2969 103.964 59.5977 104.007 60.0488C105.446 70.5977 97.7548 80.8242 88.8387 86.1309C87.5067 86.9258 86.4755 88.8379 85.6805 91.0723C84.4774 94.5312 83.9188 98.7422 83.7469 101.234C83.7469 101.707 83.3602 102.094 82.8876 102.094H77.1727C76.7216 102.094 76.3348 101.729 76.3134 101.256C76.2489 99.5801 73.3485 96.9375 72.1669 95.2402C66.0009 101.771 45.247 103.49 37.4696 96.207C36.245 98.5918 32.4852 99.752 32.3993 102.072C32.3993 102.545 32.0126 102.932 31.5399 102.932H27.329C26.9208 102.932 26.5555 102.631 26.4911 102.201C24.3641 89.1816 21.0555 89.9766 18.0907 83.252C10.2059 65.3984 16.5653 44.4297 35.1278 36.7168C33.9462 25.7598 42.497 16.2637 53.454 16.2637ZM71.4149 38.9512C69.4813 47.1797 62.1122 53.1523 53.454 53.1523C44.6239 53.1523 37.1259 46.9219 35.3856 38.4355C17.9833 45.9121 12.204 65.6992 19.6376 82.5215C20.5399 84.5625 21.5282 85.8945 22.5165 87.2266C24.5575 89.9766 26.577 92.748 28.038 101.148H30.788C31.5829 97.8613 36.0302 97.0449 36.202 94.4023C36.245 93.6074 37.2548 93.3066 37.7274 93.9297C44.1942 102.18 67.3973 99.8379 71.6083 93.1348C72.038 92.4473 73.1122 92.7051 73.1766 93.5215C73.2841 94.5098 77.1512 97.6895 77.8817 100.332H82.0927C82.4364 96.293 83.8544 87.0762 87.9579 84.627C96.036 79.8145 103.276 70.5977 102.395 60.9941C93.7372 60.8437 93.5438 58.2441 93.3075 54.6348C93.1356 52.0996 92.9208 48.9629 87.8934 45.998C87.4423 45.7402 87.3348 45.1387 87.6571 44.7305C89.2255 42.7324 91.202 39.166 91.288 37.3398C87.4852 37.2324 83.7899 38.5 80.1161 41.8086C79.8583 42.0449 79.5145 42.0879 79.2138 41.959C76.6141 40.7988 74.036 39.8105 71.4149 38.9512ZM65.2919 22.8809C58.7606 16.3496 48.1688 16.3496 41.6376 22.8809C35.1063 29.4121 35.1063 40.0039 41.6376 46.5352C48.1688 53.0664 58.7606 53.0664 65.2919 46.5352C71.8231 40.0039 71.8231 29.4121 65.2919 22.8809ZM52.5946 7.94922C52.5946 6.83203 54.3134 6.83203 54.3134 7.94922V12.6113C54.3134 13.75 52.5946 13.75 52.5946 12.6113V7.94922ZM26.5126 35.7715C25.3739 35.7715 25.3739 34.0527 26.5126 34.0527H31.1747C32.3134 34.0527 32.3134 35.7715 31.1747 35.7715H26.5126ZM29.6923 22.1719C28.704 21.6133 29.5634 20.1309 30.5516 20.6895L34.5907 23.0312C35.5575 23.5898 34.7196 25.0723 33.7313 24.5137L29.6923 22.1719ZM39.2313 11.9883C38.6727 11.0215 40.1552 10.1621 40.7137 11.1289L43.0555 15.168C43.6141 16.1348 42.1317 16.9941 41.5731 16.0273L39.2313 11.9883ZM80.4169 34.0527C81.5555 34.0527 81.5555 35.7715 80.4169 35.7715H75.7548C74.6161 35.7715 74.6161 34.0527 75.7548 34.0527H80.4169ZM76.3778 20.6895C77.3446 20.1309 78.204 21.6133 77.2372 22.1719L73.1981 24.5137C72.2313 25.0723 71.372 23.5898 72.3388 23.0312L76.3778 20.6895ZM66.1942 11.1289C66.7528 10.1621 68.2352 11 67.6766 11.9883L65.3348 16.0273C64.7762 16.9941 63.2723 16.1348 63.8524 15.168L66.1942 11.1289ZM97.454 64.4531C97.1532 63.3574 98.829 62.9277 99.1083 64.0019L99.4091 65.1621C99.7098 66.2578 98.0341 66.6875 97.7548 65.6133L97.454 64.4531ZM84.4344 59.9199C83.3173 60.0703 83.0809 58.373 84.1981 58.2227L87.0126 57.8145C88.1298 57.6426 88.3661 59.3398 87.2489 59.5117L84.4344 59.9199ZM15.8134 52.207C16.8876 51.8633 17.4032 53.4961 16.329 53.8398C12.9559 54.8926 7.73523 53.4746 6.36023 49.9941C4.85633 46.1699 6.55359 43.8926 8.8739 42.9902C10.4423 42.3672 12.5262 42.3887 13.9012 43.291C15.3192 44.2148 15.8778 45.8691 14.4169 48.1035C13.7938 49.0488 12.3759 48.1035 12.9774 47.1582C14.8036 44.3867 11.4091 43.8281 9.49695 44.5801C7.99305 45.1602 6.91883 46.707 7.95008 49.3496C8.95984 51.8848 13.1708 53.0234 15.8134 52.207Z" fill="#0048B4"/>
</svg>
