<svg width="100" height="100" viewBox="0 0 100 100" fill="none" xmlns="http://www.w3.org/2000/svg">
<g clip-path="url(#clip0_1907_6887)">
<path d="M43.7503 38.5417C43.7516 39.8267 44.152 41.0796 44.8962 42.1271L36.942 50.0001H26.042C23.5564 50.0028 21.1735 50.9914 19.4159 52.749C17.6584 54.5065 16.6697 56.8895 16.667 59.3751V73.9584C16.6697 76.444 17.6584 78.8269 19.4159 80.5845C21.1735 82.342 23.5564 83.3306 26.042 83.3334H73.9587C75.1898 83.3334 76.4089 83.0909 77.5463 82.6198C78.6838 82.1486 79.7172 81.4581 80.5878 80.5875C81.4583 79.717 82.1489 78.6835 82.62 77.5461C83.0912 76.4086 83.3337 75.1895 83.3337 73.9584V59.3751C83.3337 58.1439 83.0912 56.9248 82.62 55.7874C82.1489 54.65 81.4583 53.6165 80.5878 52.7459C79.7172 51.8754 78.6838 51.1848 77.5463 50.7137C76.4089 50.2426 75.1898 50.0001 73.9587 50.0001H63.0587L55.1045 42.1271C55.6722 41.3237 56.0423 40.3977 56.1846 39.4243C56.3269 38.4509 56.2374 37.4576 55.9234 36.5253C55.6094 35.593 55.0797 34.748 54.3775 34.059C53.6753 33.3701 52.8204 32.8566 51.8823 32.5604C50.9442 32.2641 49.9494 32.1935 48.9789 32.3543C48.0084 32.515 47.0895 32.9026 46.2971 33.4855C45.5046 34.0684 44.8609 34.8301 44.4184 35.7087C43.9758 36.5873 43.7469 37.558 43.7503 38.5417ZM73.9587 52.0834C75.8925 52.0834 77.7472 52.8516 79.1146 54.2191C80.4821 55.5865 81.2503 57.4412 81.2503 59.3751V73.9584C81.2503 75.8923 80.4821 77.7469 79.1146 79.1144C77.7472 80.4818 75.8925 81.2501 73.9587 81.2501H26.042C24.1081 81.2501 22.2535 80.4818 20.886 79.1144C19.5186 77.7469 18.7503 75.8923 18.7503 73.9584V59.3751C18.7503 57.4412 19.5186 55.5865 20.886 54.2191C22.2535 52.8516 24.1081 52.0834 26.042 52.0834H73.9587ZM60.0982 50.0001H39.9024L46.3607 43.6188C47.4311 44.3625 48.7032 44.761 50.0066 44.761C51.3099 44.761 52.5821 44.3625 53.6524 43.6188L60.0982 50.0001ZM54.167 38.5417C54.1675 39.0873 54.0602 39.6277 53.8515 40.1318C53.6427 40.6358 53.3364 41.0937 52.9503 41.4792C52.1572 42.2411 51.1001 42.6666 50.0003 42.6666C48.9006 42.6666 47.8434 42.2411 47.0503 41.4792C46.5664 40.9941 46.2096 40.3971 46.0116 39.7412C45.8135 39.0852 45.7802 38.3906 45.9147 37.7187C46.0493 37.0468 46.3474 36.4185 46.7827 35.8894C47.2181 35.3602 47.7772 34.9466 48.4106 34.6852C49.044 34.4238 49.732 34.3226 50.4138 34.3906C51.0957 34.4586 51.7502 34.6937 52.3195 35.0751C52.8887 35.4564 53.3551 35.9723 53.6774 36.577C53.9997 37.1817 54.1678 37.8565 54.167 38.5417Z" fill="#0048B4"/>
<path d="M41.4061 72.9165H46.8749C47.1511 72.9165 47.4161 72.8068 47.6114 72.6114C47.8068 72.4161 47.9165 72.1511 47.9165 71.8748C47.9165 71.5986 47.8068 71.3336 47.6114 71.1383C47.4161 70.9429 47.1511 70.8332 46.8749 70.8332H41.4061C40.9895 70.8332 40.6249 70.3561 40.6249 69.7915V67.7082H46.8749C47.1511 67.7082 47.4161 67.5984 47.6114 67.4031C47.8068 67.2077 47.9165 66.9428 47.9165 66.6665C47.9165 66.3902 47.8068 66.1253 47.6114 65.9299C47.4161 65.7346 47.1511 65.6248 46.8749 65.6248H40.6249V63.5415C40.6249 62.9769 40.9832 62.4998 41.4061 62.4998H46.8749C47.1511 62.4998 47.4161 62.3901 47.6114 62.1947C47.8068 61.9994 47.9165 61.7344 47.9165 61.4582C47.9165 61.1819 47.8068 60.917 47.6114 60.7216C47.4161 60.5262 47.1511 60.4165 46.8749 60.4165H41.4061C40.6127 60.4533 39.866 60.8026 39.3292 61.3881C38.7925 61.9737 38.5093 62.7478 38.5415 63.5415V69.7915C38.5093 70.5852 38.7925 71.3593 39.3292 71.9449C39.866 72.5304 40.6127 72.8797 41.4061 72.9165Z" fill="#0048B4"/>
<path d="M53.1247 72.9165C53.4009 72.9165 53.6659 72.8068 53.8612 72.6114C54.0566 72.4161 54.1663 72.1511 54.1663 71.8748V64.7623L59.5643 72.4707C59.6914 72.6515 59.8728 72.7872 60.0822 72.8581C60.2916 72.929 60.5181 72.9315 60.729 72.8651C60.9399 72.7988 61.1242 72.6671 61.2552 72.489C61.3863 72.311 61.4573 72.0959 61.458 71.8748V61.4582C61.458 61.1819 61.3483 60.917 61.1529 60.7216C60.9576 60.5262 60.6926 60.4165 60.4163 60.4165C60.1401 60.4165 59.8751 60.5262 59.6798 60.7216C59.4844 60.917 59.3747 61.1819 59.3747 61.4582V68.5707L53.9768 60.8623C53.8496 60.6815 53.6682 60.5458 53.4588 60.4749C53.2494 60.404 53.0229 60.4015 52.812 60.4679C52.6012 60.5342 52.4169 60.6659 52.2858 60.844C52.1547 61.022 52.0837 61.2371 52.083 61.4582V71.8748C52.083 72.1511 52.1928 72.4161 52.3881 72.6114C52.5835 72.8068 52.8484 72.9165 53.1247 72.9165Z" fill="#0048B4"/>
<path d="M26.0415 71.8748C26.0415 72.1511 26.1513 72.4161 26.3466 72.6114C26.542 72.8068 26.8069 72.9165 27.0832 72.9165C27.3595 72.9165 27.6244 72.8068 27.8198 72.6114C28.0151 72.4161 28.1249 72.1511 28.1249 71.8748V68.6915L33.7686 72.7228C33.9935 72.8835 34.273 72.9484 34.5458 72.9031C34.8185 72.8578 35.062 72.706 35.2228 72.4811C35.3836 72.2562 35.4484 71.9767 35.4031 71.704C35.3578 71.4312 35.206 71.1877 34.9811 71.0269L30.3353 67.7082H32.0957C33.0025 67.6214 33.8444 67.1998 34.4571 66.5256C35.0697 65.8515 35.4092 64.9733 35.4092 64.0623C35.4092 63.1514 35.0697 62.2732 34.4571 61.599C33.8444 60.9249 33.0025 60.5033 32.0957 60.4165H28.9061C28.1127 60.4533 27.366 60.8026 26.8292 61.3881C26.2925 61.9737 26.0093 62.7478 26.0415 63.5415V71.8748ZM28.1249 63.5415C28.1249 62.9769 28.4832 62.4998 28.9061 62.4998H32.0957C32.4486 62.5819 32.7633 62.781 32.9887 63.0647C33.214 63.3484 33.3366 63.7 33.3366 64.0623C33.3366 64.4246 33.214 64.7763 32.9887 65.06C32.7633 65.3437 32.4486 65.5428 32.0957 65.6248H28.1249V63.5415Z" fill="#0048B4"/>
<path d="M66.1462 62.4998H68.7503V71.8748C68.7503 72.1511 68.8601 72.4161 69.0554 72.6114C69.2508 72.8068 69.5157 72.9165 69.792 72.9165C70.0683 72.9165 70.3332 72.8068 70.5286 72.6114C70.7239 72.4161 70.8337 72.1511 70.8337 71.8748V62.4998H73.4378C73.7141 62.4998 73.979 62.3901 74.1744 62.1947C74.3697 61.9994 74.4795 61.7344 74.4795 61.4582C74.4795 61.1819 74.3697 60.917 74.1744 60.7216C73.979 60.5262 73.7141 60.4165 73.4378 60.4165H66.1462C65.8699 60.4165 65.6049 60.5262 65.4096 60.7216C65.2142 60.917 65.1045 61.1819 65.1045 61.4582C65.1045 61.7344 65.2142 61.9994 65.4096 62.1947C65.6049 62.3901 65.8699 62.4998 66.1462 62.4998Z" fill="#0048B4"/>
<path d="M94.7917 87.5H89.5833V45.2791C90.6759 45.6695 91.8675 45.6839 92.9691 45.3201C94.0708 44.9563 95.0194 44.235 95.6646 43.2708L97.5979 40.3729C98.3496 39.2533 98.6362 37.8853 98.397 36.5582C98.1579 35.2312 97.4118 34.0492 96.3167 33.2624L53.0521 1.96453C52.164 1.32229 51.096 0.976563 50 0.976562C48.904 0.976563 47.836 1.32229 46.9479 1.96453L3.68333 33.2624C2.58818 34.0492 1.8421 35.2312 1.60297 36.5582C1.36384 37.8853 1.65043 39.2533 2.40208 40.3729L4.33542 43.2729C4.97994 44.2375 5.92947 44.9581 7.03201 45.3192C8.13455 45.6802 9.32635 45.661 10.4167 45.2645V87.5H5.20833C3.827 87.5 2.50224 88.0487 1.52549 89.0254C0.548733 90.0022 0 91.327 0 92.7083L0 94.7916C0 95.4756 0.134718 96.1529 0.396461 96.7848C0.658204 97.4167 1.04185 97.9908 1.52549 98.4745C2.00912 98.9581 2.58329 99.3418 3.21519 99.6035C3.84709 99.8652 4.52436 100 5.20833 100H94.7917C95.4756 100 96.1529 99.8652 96.7848 99.6035C97.4167 99.3418 97.9909 98.9581 98.4745 98.4745C98.9582 97.9908 99.3418 97.4167 99.6035 96.7848C99.8653 96.1529 100 95.4756 100 94.7916V92.7083C100 92.0243 99.8653 91.347 99.6035 90.7151C99.3418 90.0832 98.9582 89.5091 98.4745 89.0254C97.9909 88.5418 97.4167 88.1581 96.7848 87.8964C96.1529 87.6347 95.4756 87.5 94.7917 87.5ZM6.06875 42.1145L4.13542 39.2187C3.68615 38.546 3.51524 37.7253 3.65861 36.9292C3.80197 36.1331 4.24846 35.4236 4.90417 34.9499L48.1687 3.65203C48.7016 3.26668 49.3424 3.05925 50 3.05925C50.6576 3.05925 51.2984 3.26668 51.8312 3.65203L95.0979 34.9499C95.7533 35.4239 96.1994 36.1336 96.3423 36.9297C96.4853 37.7258 96.3141 38.5463 95.8646 39.2187L93.9313 42.1145C93.6966 42.4626 93.3946 42.7601 93.043 42.9895C92.6914 43.2188 92.2973 43.3753 91.8842 43.4497C91.4711 43.5241 91.0472 43.5149 90.6377 43.4226C90.2282 43.3303 89.8413 43.1568 89.5 42.9124L51.8312 15.6645C51.2984 15.2792 50.6576 15.0717 50 15.0717C49.3424 15.0717 48.7016 15.2792 48.1687 15.6645L10.5 42.9166C10.1584 43.1608 9.77136 43.334 9.36168 43.426C8.952 43.5179 8.52804 43.5268 8.11488 43.452C7.70172 43.3772 7.30776 43.2203 6.9563 42.9906C6.60485 42.7608 6.30305 42.463 6.06875 42.1145ZM87.5 44.0374V87.5H12.5V44.0374L49.3896 17.352C49.5672 17.2236 49.7808 17.1544 50 17.1544C50.2192 17.1544 50.4328 17.2236 50.6104 17.352L87.5 44.0374ZM97.9167 94.7916C97.9167 95.6204 97.5874 96.4153 97.0014 97.0013C96.4153 97.5874 95.6205 97.9166 94.7917 97.9166H5.20833C4.37953 97.9166 3.58468 97.5874 2.99862 97.0013C2.41257 96.4153 2.08333 95.6204 2.08333 94.7916V92.7083C2.08333 91.8795 2.41257 91.0846 2.99862 90.4986C3.58468 89.9125 4.37953 89.5833 5.20833 89.5833H94.7917C95.6205 89.5833 96.4153 89.9125 97.0014 90.4986C97.5874 91.0846 97.9167 91.8795 97.9167 92.7083V94.7916Z" fill="#0048B4"/>
</g>
<defs>
<clipPath id="clip0_1907_6887">
<rect width="100" height="100" fill="white"/>
</clipPath>
</defs>
</svg>
