<svg width="100" height="100" viewBox="0 0 100 100" fill="none" xmlns="http://www.w3.org/2000/svg">
<g clip-path="url(#clip0_1907_6897)">
<path d="M23.6857 35.1749C24.0786 35.6731 24.6171 36.0364 25.2261 36.2141C25.8352 36.3919 26.4845 36.3752 27.0837 36.1666V47.9166C27.0837 49.0217 27.5226 50.0815 28.304 50.8629C29.0854 51.6443 30.1453 52.0833 31.2503 52.0833H52.0837C53.1887 52.0833 54.2485 51.6443 55.0299 50.8629C55.8113 50.0815 56.2503 49.0217 56.2503 47.9166V36.1937C56.8532 36.3883 57.501 36.3951 58.1078 36.2132C58.7147 36.0312 59.2519 35.6691 59.6482 35.1749L60.8732 33.6458C61.3646 33.0274 61.6045 32.2465 61.545 31.4589C61.4855 30.6714 61.1311 29.9353 60.5524 29.3978L45.2087 15.2208C44.244 14.3372 42.9834 13.8472 41.6753 13.8472C40.3672 13.8472 39.1066 14.3372 38.142 15.2208L22.792 29.3874C22.2129 29.925 21.8579 30.6613 21.7981 31.4492C21.7382 32.2371 21.9778 33.0185 22.4691 33.6374L23.6857 35.1749ZM45.8337 49.9999H37.5003V40.6249C37.5003 40.3487 37.6101 40.0837 37.8054 39.8884C38.0008 39.693 38.2657 39.5833 38.542 39.5833H44.792C45.0683 39.5833 45.3332 39.693 45.5286 39.8884C45.7239 40.0837 45.8337 40.3487 45.8337 40.6249V49.9999ZM54.167 47.9166C54.167 48.4691 53.9475 48.999 53.5568 49.3897C53.1661 49.7804 52.6362 49.9999 52.0837 49.9999H47.917V40.6249C47.917 39.7961 47.5877 39.0013 47.0017 38.4152C46.4156 37.8292 45.6208 37.4999 44.792 37.4999H38.542C37.7132 37.4999 36.9183 37.8292 36.3323 38.4152C35.7462 39.0013 35.417 39.7961 35.417 40.6249V49.9999H31.2503C30.6978 49.9999 30.1679 49.7804 29.7772 49.3897C29.3865 48.999 29.167 48.4691 29.167 47.9166V34.6687L41.667 23.127L54.167 34.6687V47.9166ZM24.1962 30.927L39.5462 16.7499C40.1256 16.2204 40.8821 15.9268 41.667 15.9268C42.4519 15.9268 43.2084 16.2204 43.7878 16.7499L59.1399 30.9291C59.333 31.1079 59.4513 31.3531 59.471 31.6155C59.4907 31.8779 59.4104 32.1381 59.2462 32.3437L58.0212 33.8749C57.9317 33.9866 57.8201 34.0786 57.6935 34.1452C57.5669 34.2118 57.4279 34.2517 57.2852 34.2622C57.1425 34.2728 56.9992 34.2538 56.8642 34.2066C56.7291 34.1593 56.6053 34.0847 56.5003 33.9874L43.0816 21.5958C42.695 21.2428 42.1905 21.0471 41.667 21.0471C41.1435 21.0471 40.639 21.2428 40.2524 21.5958L26.8316 33.9874C26.7265 34.0842 26.6027 34.1584 26.4678 34.2053C26.3329 34.2522 26.1897 34.2709 26.0473 34.2601C25.9049 34.2494 25.7662 34.2095 25.6398 34.1428C25.5135 34.0762 25.4022 33.9843 25.3128 33.8728L24.0899 32.3437C23.9251 32.1379 23.8443 31.8773 23.8641 31.6144C23.8838 31.3515 24.0025 31.1059 24.1962 30.927Z" fill="#0048B4"/>
<path d="M53.1247 62.5H30.208C29.3792 62.5 28.5843 62.8292 27.9983 63.4153C27.4122 64.0013 27.083 64.7962 27.083 65.625V67.7083C27.083 68.5371 27.4122 69.332 27.9983 69.918C28.5843 70.5041 29.3792 70.8333 30.208 70.8333H53.1247C53.9535 70.8333 54.7483 70.5041 55.3344 69.918C55.9204 69.332 56.2497 68.5371 56.2497 67.7083V65.625C56.2497 64.7962 55.9204 64.0013 55.3344 63.4153C54.7483 62.8292 53.9535 62.5 53.1247 62.5ZM54.1663 67.7083C54.1663 67.9846 54.0566 68.2496 53.8612 68.4449C53.6659 68.6403 53.4009 68.75 53.1247 68.75H30.208C29.9317 68.75 29.6668 68.6403 29.4714 68.4449C29.2761 68.2496 29.1663 67.9846 29.1663 67.7083V65.625C29.1663 65.3487 29.2761 65.0838 29.4714 64.8884C29.6668 64.6931 29.9317 64.5833 30.208 64.5833H53.1247C53.4009 64.5833 53.6659 64.6931 53.8612 64.8884C54.0566 65.0838 54.1663 65.3487 54.1663 65.625V67.7083Z" fill="#0048B4"/>
<path d="M18.7497 70.8333C19.5738 70.8333 20.3793 70.589 21.0646 70.1311C21.7498 69.6733 22.2838 69.0225 22.5992 68.2612C22.9145 67.4998 22.9971 66.662 22.8363 65.8538C22.6755 65.0455 22.2787 64.3031 21.696 63.7204C21.1132 63.1377 20.3708 62.7408 19.5626 62.5801C18.7543 62.4193 17.9165 62.5018 17.1552 62.8172C16.3938 63.1325 15.7431 63.6666 15.2852 64.3518C14.8274 65.037 14.583 65.8426 14.583 66.6667C14.583 67.7717 15.022 68.8315 15.8034 69.613C16.5848 70.3944 17.6446 70.8333 18.7497 70.8333ZM18.7497 64.5833C19.1617 64.5833 19.5645 64.7055 19.9071 64.9344C20.2497 65.1634 20.5167 65.4887 20.6744 65.8694C20.8321 66.2501 20.8734 66.669 20.793 67.0731C20.7126 67.4772 20.5142 67.8485 20.2228 68.1398C19.9315 68.4312 19.5602 68.6296 19.1561 68.71C18.752 68.7904 18.3331 68.7491 17.9524 68.5914C17.5717 68.4337 17.2464 68.1667 17.0174 67.8241C16.7885 67.4815 16.6663 67.0787 16.6663 66.6667C16.6663 66.1141 16.8858 65.5842 17.2765 65.1935C17.6672 64.8028 18.1971 64.5833 18.7497 64.5833Z" fill="#0048B4"/>
<path d="M53.1247 77.0833H30.208C29.3792 77.0833 28.5843 77.4125 27.9983 77.9985C27.4122 78.5846 27.083 79.3795 27.083 80.2083V82.2916C27.083 83.1204 27.4122 83.9152 27.9983 84.5013C28.5843 85.0873 29.3792 85.4166 30.208 85.4166H53.1247C53.9535 85.4166 54.7483 85.0873 55.3344 84.5013C55.9204 83.9152 56.2497 83.1204 56.2497 82.2916V80.2083C56.2497 79.3795 55.9204 78.5846 55.3344 77.9985C54.7483 77.4125 53.9535 77.0833 53.1247 77.0833ZM54.1663 82.2916C54.1663 82.5679 54.0566 82.8328 53.8612 83.0282C53.6659 83.2235 53.4009 83.3333 53.1247 83.3333H30.208C29.9317 83.3333 29.6668 83.2235 29.4714 83.0282C29.2761 82.8328 29.1663 82.5679 29.1663 82.2916V80.2083C29.1663 79.932 29.2761 79.667 29.4714 79.4717C29.6668 79.2763 29.9317 79.1666 30.208 79.1666H53.1247C53.4009 79.1666 53.6659 79.2763 53.8612 79.4717C54.0566 79.667 54.1663 79.932 54.1663 80.2083V82.2916Z" fill="#0048B4"/>
<path d="M18.7497 85.4166C19.5738 85.4166 20.3793 85.1722 21.0646 84.7144C21.7498 84.2565 22.2838 83.6058 22.5992 82.8444C22.9145 82.0831 22.9971 81.2453 22.8363 80.437C22.6755 79.6288 22.2787 78.8864 21.696 78.3036C21.1132 77.7209 20.3708 77.3241 19.5626 77.1633C18.7543 77.0025 17.9165 77.0851 17.1552 77.4004C16.3938 77.7158 15.7431 78.2498 15.2852 78.935C14.8274 79.6202 14.583 80.4258 14.583 81.2499C14.583 82.355 15.022 83.4148 15.8034 84.1962C16.5848 84.9776 17.6446 85.4166 18.7497 85.4166ZM18.7497 79.1666C19.1617 79.1666 19.5645 79.2888 19.9071 79.5177C20.2497 79.7466 20.5167 80.072 20.6744 80.4527C20.8321 80.8333 20.8734 81.2522 20.793 81.6564C20.7126 82.0605 20.5142 82.4317 20.2228 82.7231C19.9315 83.0144 19.5602 83.2128 19.1561 83.2932C18.752 83.3736 18.3331 83.3323 17.9524 83.1747C17.5717 83.017 17.2464 82.75 17.0174 82.4074C16.7885 82.0648 16.6663 81.662 16.6663 81.2499C16.6663 80.6974 16.8858 80.1675 17.2765 79.7768C17.6672 79.3861 18.1971 79.1666 18.7497 79.1666Z" fill="#0048B4"/>
<path d="M9.37503 100H69.7917C72.2773 99.9972 74.6602 99.0086 76.4178 97.2511C78.1753 95.4935 79.1639 93.1106 79.1667 90.625V66.2188L97.7709 47.6146C98.7447 46.6365 99.2915 45.3125 99.2915 43.9323C99.2915 42.5521 98.7447 41.2281 97.7709 40.25L93.35 35.8333C92.3582 34.886 91.0393 34.3573 89.6677 34.3573C88.2962 34.3573 86.9773 34.886 85.9855 35.8333L79.1667 42.6479V9.375C79.1639 6.88944 78.1753 4.50647 76.4178 2.74892C74.6602 0.991363 72.2773 0.00275714 69.7917 0L24.7521 0C22.2574 0.0064733 19.8669 1.00132 18.1042 2.76667L2.72711 18.2354C1.85969 19.1034 1.17226 20.1342 0.704269 21.2686C0.23628 22.403 -0.00304588 23.6187 2.92623e-05 24.8458V90.625C0.0027864 93.1106 0.991392 95.4935 2.74895 97.2511C4.50651 99.0086 6.88947 99.9972 9.37503 100ZM87.4584 37.3042C88.0531 36.7351 88.8446 36.4174 89.6677 36.4174C90.4909 36.4174 91.2823 36.7351 91.8771 37.3042L96.298 41.7229C96.8838 42.3089 97.2129 43.1037 97.2129 43.9323C97.2129 44.7609 96.8838 45.5556 96.298 46.1417L94.0875 48.3521L85.248 39.5125L87.4584 37.3042ZM83.775 40.9854L92.6146 49.825L74.9375 67.5L66.0979 58.6625L83.775 40.9854ZM72.7855 68.2979L65.1625 69.6437C64.9975 69.6728 64.8279 69.6616 64.6681 69.6112C64.5083 69.5607 64.363 69.4724 64.2446 69.3538C64.1263 69.2352 64.0382 69.0898 63.988 68.9299C63.9378 68.77 63.9269 68.6004 63.9563 68.4354L65.3021 60.8146L72.7855 68.2979ZM4.2042 19.7042L19.5834 4.23542C20.5086 3.32602 21.659 2.67893 22.9167 2.36042V15.625C22.9167 17.5589 22.1485 19.4135 20.781 20.781C19.4136 22.1484 17.5589 22.9167 15.625 22.9167H2.37295C2.69489 21.7053 3.32591 20.5984 4.2042 19.7042ZM2.08336 25H15.625C18.1106 24.9972 20.4936 24.0086 22.2511 22.2511C24.0087 20.4935 24.9973 18.1106 25 15.625V2.08333H69.7917C71.7256 2.08333 73.5802 2.85156 74.9477 4.21901C76.3151 5.58647 77.0834 7.44113 77.0834 9.375V44.7313L63.8875 57.9271C63.7362 58.0784 63.635 58.2726 63.5979 58.4833L61.9063 68.0667C61.8243 68.5603 61.8613 69.0665 62.0141 69.543C62.167 70.0195 62.4313 70.4527 62.7852 70.8065C63.139 71.1604 63.5722 71.4247 64.0487 71.5776C64.5252 71.7304 65.0314 71.7674 65.525 71.6854L75.1188 69.9937C75.3288 69.9562 75.5222 69.8552 75.673 69.7042L77.0834 68.3021V90.625C77.0834 92.5589 76.3151 94.4135 74.9477 95.781C73.5802 97.1484 71.7256 97.9167 69.7917 97.9167H9.37503C7.44116 97.9167 5.5865 97.1484 4.21904 95.781C2.85159 94.4135 2.08336 92.5589 2.08336 90.625V25Z" fill="#0048B4"/>
</g>
<defs>
<clipPath id="clip0_1907_6897">
<rect width="100" height="100" fill="white"/>
</clipPath>
</defs>
</svg>
