<svg width="99" height="100" viewBox="0 0 99 100" fill="none" xmlns="http://www.w3.org/2000/svg">
<path d="M38.5423 54.1667C43.8989 54.1667 49.1352 52.5783 53.589 49.6023C58.0428 46.6264 61.5142 42.3965 63.5641 37.4477C65.6139 32.4989 66.1503 27.0533 65.1052 21.7996C64.0602 16.546 61.4808 11.7202 57.6931 7.93254C53.9055 4.14487 49.0797 1.56543 43.826 0.520411C38.5724 -0.524606 33.1268 0.0117348 28.178 2.06161C23.2291 4.11148 18.9993 7.58282 16.0233 12.0367C13.0474 16.4905 11.459 21.7268 11.459 27.0833C11.4673 34.2638 14.3233 41.1477 19.4006 46.225C24.478 51.3023 31.3619 54.1584 38.5423 54.1667ZM38.5423 2.08335C43.4869 2.08335 48.3203 3.54957 52.4316 6.29661C56.5428 9.04364 59.7471 12.9481 61.6393 17.5163C63.5315 22.0844 64.0266 27.1111 63.0619 31.9606C62.0973 36.8101 59.7163 41.2647 56.22 44.761C52.7237 48.2573 48.2691 50.6383 43.4196 51.603C38.57 52.5676 33.5434 52.0725 28.9752 50.1803C24.4071 48.2881 20.5026 45.0838 17.7556 40.9726C15.0085 36.8614 13.5423 32.0279 13.5423 27.0833C13.5495 20.4551 16.1857 14.1004 20.8726 9.41359C25.5594 4.72674 31.9141 2.09051 38.5423 2.08335Z" fill="#0048B4"/>
<path d="M6.29822 100H84.3753C86.3092 100 88.1638 99.2317 89.5313 97.8643C90.8987 96.4968 91.667 94.6422 91.667 92.7083V79.6291C92.4156 79.9495 93.2485 80.016 94.0385 79.8185C94.8285 79.621 95.5322 79.1703 96.042 78.5354L97.6315 76.5458C98.2211 75.8041 98.5089 74.8671 98.4375 73.9223C98.366 72.9776 97.9405 72.0946 97.2461 71.45L77.292 53.0187C76.0958 51.9282 74.5356 51.3237 72.917 51.3237C71.2983 51.3237 69.7381 51.9282 68.542 53.0187L58.7503 62.0562C52.9846 58.4317 46.3502 56.4247 39.5422 56.2454C32.7343 56.0662 26.0034 57.7214 20.055 61.0375C14.1066 64.3536 9.1596 69.2086 5.73239 75.0937C2.30517 80.9788 0.523925 87.6773 0.575299 94.4875C0.620424 95.9717 1.24442 97.3793 2.31388 98.4095C3.38333 99.4396 4.81336 100.01 6.29822 100ZM79.167 97.9166H66.667V85.4166C66.667 84.8641 66.8865 84.3342 67.2772 83.9435C67.6679 83.5528 68.1978 83.3333 68.7503 83.3333H77.0836C77.6362 83.3333 78.1661 83.5528 78.5568 83.9435C78.9475 84.3342 79.167 84.8641 79.167 85.4166V97.9166ZM89.5836 92.7083C89.5836 94.0896 89.0349 95.4144 88.0581 96.3911C87.0814 97.3679 85.7566 97.9166 84.3753 97.9166H81.2503V85.4166C81.2503 84.3116 80.8113 83.2517 80.0299 82.4703C79.2485 81.6889 78.1887 81.25 77.0836 81.25H68.7503C67.6452 81.25 66.5854 81.6889 65.804 82.4703C65.0226 83.2517 64.5836 84.3116 64.5836 85.4166V97.9166H61.4586C60.0773 97.9166 58.7525 97.3679 57.7758 96.3911C56.799 95.4144 56.2503 94.0896 56.2503 92.7083V78.0312L72.7086 62.8395C72.7657 62.7879 72.84 62.7593 72.917 62.7593C72.994 62.7593 73.0682 62.7879 73.1253 62.8395L89.5836 78.0312V92.7083ZM69.9482 54.55C70.7594 53.8091 71.8183 53.3982 72.917 53.3982C74.0156 53.3982 75.0745 53.8091 75.8857 54.55L95.8336 72.9791C96.1437 73.2652 96.3337 73.6582 96.3654 74.0788C96.3971 74.4995 96.2681 74.9165 96.0045 75.2458L94.4128 77.2333C94.2689 77.4107 94.0904 77.557 93.888 77.663C93.6857 77.7691 93.4638 77.8327 93.2361 77.8501C93.0083 77.8674 92.7794 77.8381 92.5633 77.764C92.3472 77.6898 92.1486 77.5723 91.9795 77.4187L74.5315 61.3062C74.088 60.9005 73.5087 60.6756 72.9076 60.6756C72.3065 60.6756 71.7272 60.9005 71.2836 61.3062L53.8378 77.4166C53.6687 77.5702 53.47 77.6877 53.254 77.7619C53.0379 77.836 52.809 77.8654 52.5812 77.848C52.3534 77.8306 52.1316 77.767 51.9292 77.6609C51.7269 77.5549 51.5483 77.4087 51.4045 77.2312L49.8128 75.2437C49.5518 74.9125 49.426 74.4947 49.4608 74.0745C49.4956 73.6543 49.6884 73.2629 50.0003 72.9791L69.9482 54.55ZM57.1586 63.525L53.6461 66.7708L55.6045 62.6041C56.1295 62.8979 56.6461 63.2083 57.1586 63.525ZM53.7524 61.65L50.6503 68.2437C50.4531 68.6559 50.1684 69.0202 49.816 69.311C49.4636 69.6019 49.052 69.8124 48.6099 69.9278C48.1677 70.0433 47.7058 70.0609 47.2561 69.9794C46.8065 69.898 46.3801 69.7194 46.0065 69.4562L40.2378 65.3354L47.292 59.375C49.5139 59.9223 51.677 60.6856 53.7503 61.6541L53.7524 61.65ZM41.0649 72.9166H36.0211L34.2232 69.775L38.542 66.6916L42.8607 69.775L41.0649 72.9166ZM42.5503 87.5125C42.5754 87.6916 42.5535 87.8741 42.4866 88.0421C42.4198 88.2102 42.3103 88.3579 42.169 88.4708L39.194 90.852C39.0093 91 38.7797 91.0806 38.543 91.0806C38.3063 91.0806 38.0767 91 37.892 90.852L34.9128 88.4708C34.7716 88.3575 34.6623 88.2093 34.5958 88.0409C34.5293 87.8725 34.5079 87.6896 34.5336 87.5104L36.3211 75H40.7649L42.5503 87.5125ZM38.269 58.2562C40.4286 58.2581 42.584 58.4477 44.7107 58.8229L38.542 64.0437L32.3399 58.7958C34.2974 58.4481 36.2809 58.2676 38.269 58.2562ZM29.7628 59.3458L36.8461 65.3395L31.0753 69.4604C30.7018 69.7232 30.2756 69.9014 29.8262 69.9827C29.3768 70.0639 28.9151 70.0462 28.4732 69.9308C28.0314 69.8154 27.62 69.605 27.2677 69.3144C26.9155 69.0237 26.6308 68.6598 26.4336 68.2479L23.3336 61.6541C25.3955 60.675 27.549 59.9018 29.7628 59.3458ZM13.1628 68.8291C15.6153 66.3593 18.4098 64.2545 21.4607 62.5791L24.5503 69.1437C24.8909 69.8512 25.3858 70.4733 25.9986 70.9642C26.6114 71.4551 27.3265 71.8024 28.0912 71.9805C28.856 72.1586 29.6509 72.163 30.4175 71.9933C31.1842 71.8236 31.903 71.4842 32.5211 71L34.3357 74.1708L32.4607 87.2229C32.3836 87.7613 32.4484 88.3105 32.6487 88.8162C32.8489 89.3218 33.1776 89.7665 33.6024 90.1062L36.5795 92.4895C37.1328 92.9355 37.822 93.1786 38.5326 93.1786C39.2432 93.1786 39.9324 92.9355 40.4857 92.4895L43.4586 90.1062C43.8834 89.7669 44.2124 89.3227 44.413 88.8174C44.6135 88.3121 44.6788 87.7632 44.6024 87.225L42.7274 74.1708L44.542 71C45.5207 71.7869 46.757 72.1819 48.0107 72.1083C47.5597 72.7697 47.3322 73.558 47.3615 74.3579C47.3907 75.1579 47.6752 75.9275 48.1732 76.5541L49.7649 78.5416C50.2752 79.1759 50.9781 79.6269 51.7674 79.8265C52.5566 80.0261 53.3894 79.9634 54.1399 79.6479V92.7083C54.1437 93.6817 54.3431 94.6444 54.7265 95.5391C55.1098 96.4339 55.6691 97.2424 56.3711 97.9166H6.29822C5.35985 97.9292 4.45378 97.5743 3.77367 96.9277C3.09356 96.281 2.69337 95.394 2.65863 94.4562C2.62679 89.7021 3.53886 84.9888 5.34197 80.5898C7.14509 76.1907 9.80339 72.1933 13.1628 68.8291Z" fill="#0048B4"/>
</svg>
