<svg width="110" height="110" viewBox="0 0 110 110" fill="none" xmlns="http://www.w3.org/2000/svg">
<path d="M28.7457 62.6269C28.6383 61.5097 30.3571 61.3378 30.443 62.4765C30.5504 63.4863 32.3336 64.0234 33.3434 63.1855C33.6012 62.9706 33.7731 62.6913 33.7731 62.3906C33.7731 60.3066 28.7242 62.2187 28.7242 58.2656C28.7242 56.8261 29.8629 55.7519 31.2379 55.4296V54.8066C31.2379 54.3339 31.6246 53.9472 32.1188 53.9472C32.6129 53.9472 32.9781 54.3554 32.9781 54.8281L32.9567 55.4081C35.6422 56.0097 36.1793 59.1034 34.6324 59.1034C34.1598 59.1034 33.7731 58.7167 33.7731 58.2441C33.7731 57.1913 31.9254 56.5898 30.8727 57.4491C30.6149 57.664 30.443 57.9433 30.443 58.2441C30.443 60.3281 35.4918 58.4159 35.4918 62.3691C35.4918 63.8085 34.3317 64.8827 32.9567 65.205L32.9352 65.8066C32.9352 66.9452 31.2164 66.9452 31.2164 65.8066V65.1835C29.9703 64.9257 28.8746 63.9589 28.7457 62.6269ZM32.1188 48.8984C38.4137 48.8984 43.527 54.0117 43.527 60.3066C43.527 66.6015 38.4137 71.7148 32.1188 71.7148C25.8239 71.7148 20.7106 66.6015 20.7106 60.3066C20.7106 54.0331 25.8239 48.8984 32.1188 48.8984ZM38.9938 53.4745C35.2125 49.6933 29.068 49.6933 25.2867 53.4745C21.5055 57.2558 21.5055 63.4003 25.2867 67.1816C29.068 70.9628 35.2125 70.9628 38.9938 67.1816C42.775 63.4003 42.775 57.2558 38.9938 53.4745ZM32.1188 44.1074C34.4176 44.1074 36.5875 44.58 38.5641 45.4394L48.6188 28.9609C48.8551 28.5742 49.3707 28.4238 49.7789 28.6601L64.8395 37.2538L80.2867 25.1367L76.3121 20.0878C75.9254 19.5722 76.2047 18.7988 76.8707 18.7128L103.232 14.8886C103.855 14.8027 104.392 15.4472 104.156 16.0488L94.316 40.7343C94.0582 41.4433 93.2203 41.5077 92.8336 41.0136L88.7946 35.9003L65.2047 50.8105C64.9469 51.0038 64.5817 51.0253 64.2809 50.8534L51.6051 43.5058L44.5153 49.8437C47.4156 53.2597 48.8121 57.7714 48.2106 62.412H61.0797C62.6481 62.412 63.9371 63.7011 63.9371 65.2695V67.4824C63.9371 67.8906 63.8512 68.2773 63.7008 68.621H66.7301C68.234 68.621 69.4586 69.8456 69.4586 71.3495V73.8202C69.4586 75.3242 68.234 76.5488 66.7301 76.5488H66.4938C66.6227 76.8495 66.6871 77.1718 66.6871 77.5156V80.0507C66.6871 80.4804 66.5797 80.9101 66.3864 81.2753C67.3961 81.7265 68.0836 82.7577 68.0836 83.8964V86.0663C68.0836 86.5175 67.9762 86.9472 67.7828 87.3339C68.943 87.6562 69.8024 88.7519 69.8024 89.998V92.3827C69.8024 93.9081 68.5563 95.1542 67.0309 95.1542H49.5641C48.0387 95.1542 46.7926 93.9081 46.7926 92.3827V89.998C46.7926 89.5683 46.9 89.1601 47.0504 88.8163C45.8903 88.4296 45.0524 87.3339 45.0524 86.0878V83.9179C45.0524 83.4452 45.1813 82.9726 45.3746 82.5859C44.3434 82.1991 43.6559 81.2109 43.6559 80.0722V77.537C43.6559 76.0546 44.859 74.8515 46.3414 74.8515H46.6207C46.4918 74.5507 46.4274 74.207 46.4274 73.8417V71.371C46.4274 71.0273 46.4918 70.6835 46.6207 70.3827H44.8375C42.775 73.0038 39.9391 74.9589 36.6949 75.9257C37.1246 76.4413 37.4039 77.1073 37.4039 77.8378V79.7929C37.4039 80.2441 37.2965 80.6738 37.1246 81.0605H39.5739C41.1852 81.0605 42.5172 82.3925 42.5172 84.0038V86.0449C42.5172 87.4199 41.5504 88.6015 40.2399 88.9023C40.4762 89.3534 40.6266 89.8691 40.6266 90.4062C40.6266 91.9316 40.8199 93.1562 39.7028 94.2734C39.1442 94.832 38.3492 95.1972 37.4899 95.1972H20.818C19.0778 95.1972 17.6813 93.7792 17.6813 92.0605C17.6813 90.5351 17.4879 89.3105 18.6051 88.2148C18.9703 87.8495 19.4215 87.5917 19.9156 87.4198C19.7008 87.0116 19.5934 86.5605 19.5934 86.0663V84.0253C19.5934 83.5956 19.6793 83.1659 19.8512 82.8007H17.4449C15.8121 82.8007 14.4586 81.4687 14.4586 79.8144V77.8593C14.4586 76.2265 15.7906 74.873 17.4449 74.873H24.8571C15.0172 69.9316 12.8258 56.7402 20.6676 48.8984C23.5895 45.912 27.65 44.1074 32.1188 44.1074ZM40.111 46.1913C41.2926 46.8574 42.3668 47.6738 43.3336 48.5976L50.8961 41.787C51.1969 41.5292 51.6051 41.4863 51.9274 41.7011L64.6461 49.0702L88.4723 33.9882C88.859 33.7519 89.3317 33.8378 89.611 34.1816L93.1989 38.7363L101.964 16.7577L78.5465 20.1523L82.1344 24.707C82.4567 25.1152 82.3492 25.6523 81.941 25.9531L65.3981 38.9081C65.1188 39.123 64.7321 39.1445 64.4528 38.9726L49.6071 30.5077L40.111 46.1913ZM47.9098 64.1523C47.5231 65.7421 46.9 67.2675 46.0836 68.621H61.1012C61.7242 68.621 62.2399 68.1054 62.2399 67.4824V65.2695C62.2399 64.6464 61.7242 64.1308 61.1012 64.1308H47.9098V64.1523ZM32.4625 76.5488H17.4235C16.736 76.5488 16.1559 77.1288 16.1559 77.8163V79.7714C16.1559 80.4589 16.736 81.039 17.4235 81.039H34.4606C35.1481 81.039 35.7282 80.4804 35.7282 79.7714V77.8163C35.7282 77.1288 35.1696 76.5488 34.4606 76.5488H32.4625ZM42.3883 50.08C36.7164 44.4081 27.5426 44.4081 21.8707 50.08C16.1989 55.7519 16.1989 64.9257 21.8707 70.5976C27.5211 76.2695 36.7164 76.2695 42.3883 70.5976C48.0387 64.9257 48.0387 55.7304 42.3883 50.08ZM20.4313 38.4355C19.9371 37.4257 21.484 36.6738 21.9781 37.6835L23.9332 41.7226C24.4274 42.7324 22.8805 43.4843 22.3864 42.4745L20.4313 38.4355ZM9.56018 73.4765C8.55041 73.9706 7.79846 72.4238 8.80823 71.9296L12.8473 69.9745C13.8571 69.4804 14.609 71.0273 13.5992 71.5214L9.56018 73.4765ZM6.59534 60.3925C5.47815 60.3066 5.58557 58.6093 6.72424 58.6738L11.2145 58.996C12.3317 59.082 12.2242 60.7792 11.0856 60.7148L6.59534 60.3925ZM10.5699 47.5663C9.62463 46.9433 10.5914 45.5253 11.5367 46.1484L15.2535 48.662C16.1774 49.2851 15.2321 50.7031 14.2867 50.08L10.5699 47.5663ZM55.4938 49.3066C56.5035 48.8124 57.2555 50.3593 56.2457 50.8534L52.2067 52.8085C51.1969 53.3027 50.4449 51.7558 51.4547 51.2617L55.4938 49.3066ZM46.3629 39.4452C46.986 38.5214 48.4039 39.4667 47.7809 40.412L45.2672 44.1288C44.6442 45.0741 43.2047 44.1074 43.8492 43.162L46.3629 39.4452ZM33.5367 35.4706C33.6227 34.3535 35.3199 34.4609 35.2555 35.5995L34.9332 40.0898C34.8473 41.207 33.15 41.0995 33.2145 39.9609L33.5367 35.4706ZM20.818 93.4355H37.5328C38.3063 93.4355 38.9508 92.7909 38.9508 92.0175V90.3847C38.9508 89.6113 38.3063 88.9667 37.5328 88.9667H20.818C20.0446 88.9667 19.4 89.6113 19.4 90.3847V92.0175C19.4 92.7909 20.0446 93.4355 20.818 93.4355ZM39.6168 82.7363H22.5153C21.8492 82.7363 21.2906 83.2948 21.2906 83.9609V86.0019C21.2906 86.6679 21.8492 87.2265 22.5153 87.2265H39.6168C40.2828 87.2265 40.8414 86.6679 40.8414 86.0019V83.9609C40.8414 83.2948 40.2828 82.7363 39.6168 82.7363ZM49.5856 93.4355H67.0524C67.6324 93.4355 68.0836 92.9628 68.0836 92.3827V89.998C68.0836 89.4179 67.611 88.9452 67.0524 88.9452H49.5856C49.0055 88.9452 48.5328 89.4179 48.5328 89.998V92.3827C48.5328 92.9413 49.0055 93.4355 49.5856 93.4355ZM65.2047 82.7363H47.9742C47.3512 82.7363 46.8141 83.2519 46.8141 83.8964V86.0663C46.8141 86.6894 47.3297 87.2265 47.9742 87.2265H65.2047C65.8278 87.2265 66.3649 86.7109 66.3649 86.0663V83.8964C66.3649 83.2734 65.8492 82.7363 65.2047 82.7363ZM46.3844 81.0175H64.0016C64.5387 81.0175 64.9684 80.5878 64.9684 80.0507V77.5156C64.9684 76.9784 64.5387 76.5488 64.0016 76.5488H46.3844C45.8473 76.5488 45.4176 76.9784 45.4176 77.5156V80.0507C45.4176 80.5878 45.8473 81.0175 46.3844 81.0175ZM66.7301 70.3613H49.1989C48.6403 70.3613 48.1891 70.8124 48.1891 71.3495V73.8202C48.1891 74.3788 48.6403 74.83 49.1989 74.83H66.7301C67.2887 74.83 67.7399 74.3788 67.7399 73.8202V71.3495C67.7399 70.7909 67.2887 70.3613 66.7301 70.3613ZM95.9489 57.9433H95.6051C95.8199 58.3515 95.9274 58.8242 95.9274 59.3183V61.0585C95.9274 61.8534 95.6266 62.5839 95.1324 63.121C95.9274 63.7441 96.4215 64.6894 96.4215 65.7421C96.4215 67.1386 96.5504 68.2558 95.4547 69.373C94.8317 69.9745 94.0153 70.3398 93.0914 70.3398C93.3063 70.7695 93.4352 71.2636 93.4352 71.7577V73.3906C93.4352 73.9062 93.3063 74.3788 93.0914 74.8085H95.025C96.6793 74.8085 98.0114 76.162 98.0114 77.7949V79.7284C98.0114 81.082 97.0875 82.2636 95.8199 82.6074C96.0348 83.0156 96.1422 83.4667 96.1422 83.9394V85.9589C96.1422 87.6132 94.8531 88.9023 93.0914 88.9023C93.2848 89.3105 93.4137 89.7831 93.4137 90.2558V92.0175C93.4137 93.7148 92.0387 95.0898 90.3414 95.0898H73.5192C71.8219 95.0898 70.4469 93.6933 70.4469 92.0175V90.2558C70.4469 88.58 71.7789 87.2265 73.4547 87.1835C73.2828 86.8183 73.1969 86.3886 73.1969 85.9589V83.9394C73.1969 82.5859 74.1207 81.4257 75.3883 81.082C75.1735 80.6738 75.066 80.2011 75.066 79.707V77.7734C75.066 77.3222 75.1735 76.8925 75.3453 76.4843H73.6051C71.8649 76.4843 70.4469 75.0663 70.4469 73.3476C70.4469 71.8222 70.2535 70.6191 71.3707 69.5019C72.0797 68.7929 72.8531 68.5781 73.8629 68.5781C73.3473 67.6542 73.4547 66.7304 73.4547 65.6991C73.4547 64.8613 73.7555 64.1093 74.2711 63.5292C73.4762 62.9706 72.9821 62.0468 72.9821 61.0156V59.2753C72.9821 57.5781 74.3785 56.1816 76.0758 56.1816H76.441C76.2262 55.7519 76.0973 55.2792 76.0973 54.7851V53.0878C76.0973 51.3691 77.4938 49.9726 79.2125 49.9726H95.9703C97.6891 49.9726 99.0856 51.3691 99.0856 53.0878V54.7851C99.0641 56.5468 97.6676 57.9433 95.9489 57.9433ZM92.8336 56.2245H95.9489C96.7008 56.2245 97.3453 55.6015 97.3453 54.8281V53.1308C97.3453 52.3574 96.7223 51.7343 95.9489 51.7343H79.191C78.4176 51.7343 77.7946 52.3574 77.7946 53.1308V54.8281C77.7946 55.58 78.4176 56.2245 79.191 56.2245H92.8336ZM92.8336 57.9433H76.0328C75.2809 57.9433 74.6578 58.5663 74.6578 59.3183V61.0585C74.6578 61.8105 75.2809 62.4335 76.0328 62.4335H92.8336C93.5856 62.4335 94.2086 61.8105 94.2086 61.0585V59.3183C94.2086 58.5663 93.5856 57.9433 92.8336 57.9433ZM90.277 68.621H93.1129C93.9938 68.621 94.7242 67.912 94.7242 67.0312V65.7421C94.7242 64.8613 93.9938 64.1523 93.1129 64.1523H76.7633C75.8824 64.1523 75.1735 64.8613 75.1735 65.7421V67.0312C75.1735 67.912 75.8824 68.621 76.7633 68.621H90.277ZM73.4977 93.4355H90.3199C91.0719 93.4355 91.6735 92.8124 91.6735 92.082V90.3202C91.6735 89.5683 91.0504 88.9667 90.3199 88.9667H73.4977C72.7457 88.9667 72.1442 89.5898 72.1442 90.3202V92.082C72.1442 92.8124 72.7457 93.4355 73.4977 93.4355ZM78.0094 82.7363H76.0973C75.4313 82.7363 74.8727 83.2948 74.8727 83.9609V85.9804C74.8727 86.6464 75.4313 87.205 76.0973 87.205H93.1989C93.8649 87.205 94.4235 86.6464 94.4235 85.9804V83.9609C94.4235 83.2948 93.8649 82.7363 93.1989 82.7363H78.0094ZM78.0094 81.0175H95.0035C95.691 81.0175 96.2711 80.4374 96.2711 79.7499V77.8163C96.2711 77.1074 95.691 76.5273 95.0035 76.5273H78.0094C77.3004 76.5273 76.7418 77.1074 76.7418 77.8163V79.7499C76.7418 80.4589 77.3004 81.0175 78.0094 81.0175ZM90.277 70.3613H73.5836C72.7887 70.3613 72.1442 71.0058 72.1442 71.7792V73.412C72.1442 74.1855 72.7887 74.83 73.5836 74.83H90.277C91.0504 74.83 91.6949 74.1855 91.6949 73.412V71.7792C91.6949 70.9843 91.0504 70.3613 90.277 70.3613Z" fill="#0048B4"/>
</svg>
