<svg width="103" height="103" viewBox="0 0 103 103" fill="none" xmlns="http://www.w3.org/2000/svg">
<path d="M67.7955 99.6862C67.5172 99.6862 67.2496 99.5304 67.1202 99.2631C66.9395 98.8903 67.0953 98.4418 67.4678 98.2611C70.9869 96.5553 73.9888 94.4706 76.3907 92.0649C76.6802 91.7751 76.96 91.4806 77.2315 91.1818C77.5098 90.8747 77.9835 90.8522 78.2911 91.1308C78.5977 91.4091 78.6202 91.8835 78.3419 92.1901C78.0548 92.5065 77.7584 92.818 77.4522 93.1247C74.9317 95.6493 71.7925 97.8317 68.1221 99.6108C68.0167 99.662 67.9053 99.6862 67.7955 99.6862Z" fill="#0048B4"/>
<path d="M80.4302 88.9494C80.2945 88.9494 80.1573 88.9128 80.0338 88.8356C79.6822 88.6161 79.5753 88.1535 79.7945 87.8022C80.105 87.3051 80.4 86.7885 80.671 86.267C80.8624 85.8993 81.3145 85.7567 81.6827 85.9479C82.0499 86.1391 82.1929 86.592 82.002 86.9594C81.7125 87.5155 81.398 88.0663 81.067 88.5966C80.9249 88.8244 80.6802 88.9494 80.4302 88.9494Z" fill="#0048B4"/>
<path d="M42.7904 99.853C24.1937 99.8532 4.7733 91.8525 3.28551 76.0793C2.66978 69.4648 3.92369 63.2089 6.911 57.9865C12.5458 48.164 21.1883 39.3388 30.2972 30.413C30.5931 30.1232 31.0677 30.1279 31.3578 30.4238C31.6478 30.7197 31.6429 31.1945 31.347 31.4843C22.3163 40.3337 13.7518 49.0764 8.21227 58.7321C5.37975 63.6843 4.19225 69.6347 4.77867 75.9392C6.26158 91.655 27.0184 99.1833 45.7845 98.2817C61.9071 97.51 78.1654 90.3239 78.142 76.01C78.142 73.9174 78.0961 71.1679 77.7381 68.4467C77.6844 68.0358 77.9735 67.6591 78.3841 67.6052C78.7962 67.5519 79.1712 67.8403 79.2254 68.2509C79.5946 71.0585 79.642 73.8718 79.642 76.0087C79.6669 91.3107 62.6913 98.9741 45.8563 99.78C44.8392 99.8286 43.8153 99.853 42.7904 99.853Z" fill="#0048B4"/>
<path d="M56.6216 36.1588C56.4288 36.1588 56.2359 36.0848 56.0894 35.9371C54.6221 34.4594 53.1045 32.9618 51.5669 31.4545C51.271 31.1644 51.2662 30.6896 51.5562 30.3937C51.8462 30.0983 52.3208 30.0934 52.6167 30.3832C54.1592 31.8954 55.6817 33.3978 57.1538 34.8803C57.4458 35.1742 57.4439 35.6493 57.1499 35.941C57.0039 36.0863 56.8125 36.1588 56.6216 36.1588Z" fill="#0048B4"/>
<path d="M30.5517 26.1188C30.3481 26.1188 30.1455 26.0363 29.9971 25.8739L24.1767 19.4838C23.0771 18.2628 23.1211 16.4157 24.2744 15.2753C25.2602 14.2892 27.0708 13.0963 30.2002 12.7611L29.6899 10.9633C29.2397 9.34658 30.1699 7.65908 31.7632 7.19838C37.2876 5.63564 43.6811 5.6725 50.77 7.308C51.5937 7.49306 52.2881 7.99648 52.7207 8.72426C53.1533 9.45107 53.2641 10.2995 53.0332 11.1137L52.5708 12.7609C55.7016 13.0956 57.5132 14.2892 58.5019 15.2785C59.6528 16.4159 59.6963 18.2631 58.5986 19.4809L52.7763 25.8739C52.4975 26.1806 52.0224 26.2018 51.7168 25.9232C51.4106 25.6444 51.3882 25.1701 51.667 24.8637L57.4868 18.4735C58.0444 17.8554 58.0268 16.9179 57.4443 16.3422C56.5449 15.4423 54.7978 14.3414 51.5659 14.1879C51.3379 14.1769 51.1269 14.0626 50.9931 13.8773C50.8598 13.692 50.8179 13.456 50.8794 13.236L51.5893 10.7062C51.7075 10.2907 51.6509 9.86 51.4316 9.49111C51.2114 9.12099 50.8584 8.86513 50.437 8.7704C43.5928 7.19204 37.4502 7.14809 32.1758 8.64052C31.3735 8.87246 30.9043 9.73305 31.1343 10.5575L31.8935 13.234C31.956 13.454 31.9145 13.6908 31.7807 13.8766C31.647 14.0624 31.436 14.1769 31.2075 14.1879C27.9756 14.3414 26.2285 15.4423 25.332 16.339C24.7466 16.9179 24.729 17.8554 25.2886 18.4767L31.1064 24.8637C31.3852 25.1701 31.3628 25.6444 31.0566 25.9232C30.9131 26.0541 30.7324 26.1188 30.5517 26.1188Z" fill="#0048B4"/>
<path d="M35.2931 18.3856C35.0987 18.3856 34.9049 18.3107 34.7579 18.1613L30.6368 13.9674C30.3468 13.672 30.3507 13.1971 30.6461 12.9069C30.9415 12.6163 31.4166 12.6205 31.7071 12.9161L35.8282 17.11C36.1183 17.4054 36.1143 17.8802 35.8189 18.1705C35.6729 18.3141 35.483 18.3856 35.2931 18.3856Z" fill="#0048B4"/>
<path d="M45.1889 21.4105C45.0122 21.4105 44.8345 21.3483 44.6914 21.2213C44.3818 20.9462 44.3535 20.4721 44.6289 20.1625L51.041 12.9437C51.3149 12.6344 51.789 12.6054 52.0996 12.881C52.4092 13.1561 52.4375 13.6303 52.1621 13.9398L45.75 21.1586C45.602 21.3253 45.396 21.4105 45.1889 21.4105Z" fill="#0048B4"/>
<path d="M33.7024 47.3789C33.6912 47.3789 33.68 47.3786 33.6682 47.3781C33.2547 47.3596 32.9344 47.0092 32.9529 46.5954C33.3186 38.4101 36.1473 33.635 37.8006 31.517C38.0555 31.1906 38.5276 31.1323 38.8533 31.3876C39.18 31.6425 39.2381 32.1137 38.9832 32.4401C37.4397 34.4172 34.7986 38.8935 34.451 46.6623C34.4334 47.0646 34.1014 47.3789 33.7024 47.3789Z" fill="#0048B4"/>
<path d="M44.5616 43.6589C44.1622 43.6589 43.8302 43.3442 43.8126 42.9414C43.5846 37.6672 41.9776 34.353 40.6695 32.5014C40.4308 32.1633 40.5113 31.6953 40.8497 31.4563C41.1871 31.2177 41.6554 31.2973 41.8951 31.6362C43.3189 33.6518 45.0675 37.2382 45.3116 42.8764C45.3292 43.2902 45.0084 43.6403 44.5943 43.6582C44.5836 43.6587 44.5724 43.6589 44.5616 43.6589Z" fill="#0048B4"/>
<path d="M41.3863 32.8141C37.5455 32.8141 33.7071 32.3857 29.9757 31.5282C29.0421 31.3149 28.2569 30.7399 27.7667 29.9094C27.2784 29.0832 27.15 28.0817 27.4132 27.1623C27.4181 27.1462 27.4234 27.1301 27.4288 27.1142C27.4317 27.1056 27.4347 27.0966 27.4376 27.0876C27.9532 25.3332 29.7491 24.2792 31.5401 24.6882C37.9806 26.1637 44.7892 26.1635 51.2286 24.6884C53.0133 24.2804 54.8229 25.34 55.3438 27.0954C55.3546 27.1308 55.3624 27.1672 55.3678 27.2038C55.6197 28.1091 55.4918 29.0903 55.0152 29.9035C54.5265 30.737 53.7408 31.3141 52.8028 31.5285C49.068 32.3854 45.2257 32.8141 41.3863 32.8141ZM28.8526 27.5854C28.7037 28.1154 28.7765 28.6694 29.0582 29.1467C29.337 29.6186 29.7818 29.9452 30.3106 30.0661C37.5548 31.7306 45.2159 31.7304 52.4679 30.0663C52.4684 30.0663 52.4684 30.0661 52.4688 30.0661C52.9991 29.945 53.4439 29.6176 53.7213 29.1447C54.0021 28.6659 54.0709 28.1103 53.9151 27.58C53.9054 27.5473 53.898 27.5141 53.8932 27.4804C53.5802 26.5053 52.5646 25.9228 51.5621 26.1508C44.9044 27.676 37.8644 27.676 31.2057 26.1503C30.1866 25.9179 29.1642 26.5182 28.8746 27.5175C28.8697 27.5346 28.8644 27.5514 28.858 27.568C28.8565 27.5737 28.8546 27.5795 28.8526 27.5854Z" fill="#0048B4"/>
<path d="M41.2984 85.8688C41.211 85.8688 41.1246 85.8681 41.0367 85.8668C31.7764 85.7243 24.3584 78.0746 24.5 68.8143C24.5689 64.3288 26.3809 60.1381 29.6021 57.0145C32.8228 53.8913 37.0538 52.2145 41.5528 52.2777C50.813 52.4201 58.231 60.0697 58.0894 69.3302C57.9483 78.5031 50.4405 85.8688 41.2984 85.8688ZM41.2881 53.7758C37.2925 53.7758 33.5215 55.3029 30.646 58.0914C27.7129 60.9362 26.0625 64.7523 26 68.8373C25.8706 77.2706 32.6265 84.2372 41.0601 84.3668C49.4585 84.4921 56.46 77.7404 56.5894 69.3073C56.7188 60.8737 49.9629 53.9071 41.5293 53.7777C41.4488 53.7765 41.3682 53.7758 41.2881 53.7758Z" fill="#0048B4"/>
<path d="M43.0776 69.8495C43.0737 69.8495 43.0698 69.8495 43.0659 69.8495L39.5 69.7948C37.3252 69.7614 35.5825 67.9642 35.6157 65.7889C35.6494 63.6342 37.4126 61.9039 39.56 61.9039C39.5805 61.9039 39.6006 61.9042 39.6216 61.9044L43.1875 61.9591C44.2412 61.9755 45.2256 62.401 45.959 63.1576C46.6928 63.9142 47.0879 64.9113 47.0718 65.9652C47.0654 66.3795 46.7212 66.7023 46.31 66.7035C45.896 66.6969 45.5654 66.3561 45.5718 65.9418C45.582 65.2887 45.3369 64.6708 44.8823 64.2018C44.4277 63.7328 43.8174 63.4691 43.164 63.4591L39.5981 63.4044C38.268 63.3698 37.1362 64.4635 37.1157 65.8121C37.0952 67.1603 38.1753 68.2743 39.5234 68.2948L43.0893 68.3495C43.5034 68.3558 43.834 68.6969 43.8276 69.111C43.8213 69.5211 43.4868 69.8495 43.0776 69.8495Z" fill="#0048B4"/>
<path d="M43.0312 76.2404C43.0102 76.2404 42.9892 76.2401 42.9682 76.2399L39.4028 76.1852C37.228 76.1517 35.4848 74.3549 35.518 72.1796C35.5244 71.766 35.831 71.4396 36.2793 71.441C36.6938 71.4474 37.0244 71.7882 37.018 72.2025C36.9975 73.5507 38.0776 74.6647 39.4262 74.6852L42.9917 74.7399C43.6303 74.7528 44.2627 74.505 44.7314 74.0504C45.2007 73.5958 45.4643 72.9855 45.4741 72.3324C45.4844 71.6791 45.2392 71.0612 44.7846 70.5922C44.3301 70.1232 43.7197 69.8595 43.0664 69.8495L39.5005 69.7948C39.0864 69.7885 38.7558 69.4474 38.7622 69.0333C38.7685 68.6195 39.1313 68.3031 39.5239 68.2948L43.0898 68.3495C44.1435 68.3658 45.1279 68.7914 45.8613 69.548C46.5952 70.3046 46.9902 71.3016 46.9741 72.3556C46.958 73.4091 46.5327 74.3934 45.7759 75.1273C45.0342 75.8463 44.0615 76.2404 43.0312 76.2404Z" fill="#0048B4"/>
<path d="M41.3936 63.4318C41.3902 63.4318 41.3863 63.4318 41.3824 63.4318C40.9684 63.4254 40.6373 63.0846 40.6436 62.6703L40.6695 60.964C40.6759 60.5538 41.0103 60.2255 41.4195 60.2255H41.4308C41.8448 60.2318 42.1759 60.5726 42.1695 60.9869L42.1436 62.6932C42.1373 63.1034 41.8028 63.4318 41.3936 63.4318Z" fill="#0048B4"/>
<path d="M41.171 77.9191C41.1671 77.9191 41.1632 77.9191 41.1593 77.9191C40.7452 77.9125 40.4146 77.5717 40.421 77.1576L40.4474 75.4513C40.4542 75.037 40.7838 74.7318 41.2091 74.7128C41.6231 74.7194 41.9537 75.0602 41.9474 75.4742L41.921 77.1805C41.9146 77.5909 41.5802 77.9191 41.171 77.9191Z" fill="#0048B4"/>
<path d="M99.1164 31.4486C98.8757 31.4486 98.6394 31.3331 98.4944 31.1185C94.8606 25.7423 89.4275 21.8729 83.197 20.2237C82.7966 20.1178 82.5578 19.7071 82.6638 19.3067C82.7703 18.9064 83.1799 18.669 83.5808 18.7735C90.1623 20.5157 95.9001 24.6017 99.7375 30.2787C99.9695 30.6217 99.8791 31.088 99.5359 31.3199C99.4075 31.4071 99.261 31.4486 99.1164 31.4486Z" fill="#0048B4"/>
<path d="M78.8906 19.454C78.8677 19.454 78.8447 19.453 78.8218 19.4508C78.0137 19.3773 77.1909 19.34 76.376 19.34C75.9619 19.34 75.626 19.0043 75.626 18.59C75.626 18.1757 75.9619 17.84 76.376 17.84C77.2358 17.84 78.1045 17.8793 78.9575 17.9572C79.3701 17.9948 79.6743 18.3595 79.6367 18.7721C79.6011 19.1615 79.2739 19.454 78.8906 19.454Z" fill="#0048B4"/>
<path d="M76.376 69.2118C63.5938 69.2118 53.1943 58.8126 53.1943 46.0302C53.1943 33.2428 63.5938 22.8397 76.376 22.8397C89.1582 22.8397 99.5576 33.2428 99.5576 46.0302C99.5576 58.8126 89.1582 69.2118 76.376 69.2118ZM76.376 24.3397C64.4209 24.3397 54.6943 34.0699 54.6943 46.0302C54.6943 57.9855 64.4209 67.7118 76.376 67.7118C88.3311 67.7118 98.0576 57.9855 98.0576 46.0302C98.0576 34.0699 88.3311 24.3397 76.376 24.3397Z" fill="#0048B4"/>
<path d="M76.376 63.7472C66.6064 63.7472 58.6582 55.799 58.6582 46.0292C58.6582 36.2557 66.6064 28.3043 76.376 28.3043C86.146 28.3043 94.0942 36.2557 94.0942 46.0292C94.0942 55.799 86.146 63.7472 76.376 63.7472ZM76.376 29.8043C67.4336 29.8043 60.1582 37.0826 60.1582 46.0292C60.1582 54.9718 67.4336 62.2472 76.376 62.2472C85.3188 62.2472 92.5942 54.9718 92.5942 46.0292C92.5942 37.0826 85.3188 29.8043 76.376 29.8043Z" fill="#0048B4"/>
<path d="M76.376 31.9955C75.9619 31.9955 75.626 31.6598 75.626 31.2455V29.0543C75.626 28.64 75.9619 28.3043 76.376 28.3043C76.79 28.3043 77.126 28.64 77.126 29.0543V31.2455C77.126 31.6598 76.79 31.9955 76.376 31.9955Z" fill="#0048B4"/>
<path d="M68.9864 33.9759C68.7271 33.9759 68.4751 33.8412 68.3365 33.6007L67.2413 31.703C67.0342 31.3441 67.1568 30.8854 67.5157 30.6783C67.8741 30.4713 68.3331 30.5941 68.5401 30.953L69.6353 32.8507C69.8423 33.2096 69.7198 33.6683 69.3609 33.8754C69.2427 33.9435 69.1138 33.9759 68.9864 33.9759Z" fill="#0048B4"/>
<path d="M63.5748 39.3859C63.4473 39.3859 63.3184 39.3534 63.2002 39.2851L61.3028 38.1896C60.9439 37.9826 60.8213 37.5238 61.0284 37.1652C61.2354 36.8063 61.6949 36.6833 62.0528 36.8908L63.9502 37.9862C64.3091 38.1933 64.4317 38.652 64.2247 39.0106C64.086 39.2511 63.8335 39.3859 63.5748 39.3859Z" fill="#0048B4"/>
<path d="M61.5952 46.7758H59.4043C58.9902 46.7758 58.6543 46.4401 58.6543 46.0258C58.6543 45.6115 58.9902 45.2758 59.4043 45.2758H61.5952C62.0093 45.2758 62.3452 45.6115 62.3452 46.0258C62.3452 46.4401 62.0093 46.7758 61.5952 46.7758Z" fill="#0048B4"/>
<path d="M61.6783 55.2616C61.4195 55.2616 61.167 55.1271 61.0284 54.8863C60.8213 54.5277 60.9439 54.069 61.3028 53.8619L63.2002 52.7665C63.5586 52.5594 64.0176 52.6817 64.2247 53.0409C64.4317 53.3995 64.3091 53.8583 63.9502 54.0653L62.0528 55.1607C61.9346 55.2291 61.8057 55.2616 61.6783 55.2616Z" fill="#0048B4"/>
<path d="M67.8892 61.4738C67.7618 61.4738 67.6329 61.4413 67.5147 61.373C67.1558 61.166 67.0333 60.7072 67.2403 60.3486L68.336 58.4509C68.543 58.0912 69.002 57.9689 69.3604 58.1765C69.7193 58.3835 69.8418 58.8422 69.6348 59.2009L68.5391 61.0986C68.4004 61.3393 68.148 61.4738 67.8892 61.4738Z" fill="#0048B4"/>
<path d="M76.376 63.7472C75.9619 63.7472 75.626 63.4115 75.626 62.9972V60.806C75.626 60.3917 75.9619 60.056 76.376 60.056C76.79 60.056 77.126 60.3917 77.126 60.806V62.9972C77.126 63.4115 76.79 63.7472 76.376 63.7472Z" fill="#0048B4"/>
<path d="M84.8619 61.4737C84.6031 61.4737 84.3506 61.3392 84.212 61.0985L83.1163 59.201C82.9092 58.8424 83.0318 58.3836 83.3907 58.1766C83.7486 57.9696 84.2081 58.0919 84.4151 58.451L85.5108 60.3485C85.7178 60.7071 85.5953 61.1659 85.2364 61.3729C85.1182 61.4413 84.9893 61.4737 84.8619 61.4737Z" fill="#0048B4"/>
<path d="M91.0728 55.2619C90.9454 55.2619 90.8165 55.2294 90.6983 55.161L88.8008 54.0656C88.4419 53.8586 88.3194 53.3998 88.5264 53.0412C88.7334 52.6823 89.1924 52.5595 89.5508 52.7668L91.4483 53.8622C91.8072 54.0693 91.9297 54.528 91.7227 54.8866C91.584 55.1271 91.3316 55.2619 91.0728 55.2619Z" fill="#0048B4"/>
<path d="M93.3477 46.776H91.1562C90.7422 46.776 90.4062 46.4403 90.4062 46.026C90.4062 45.6117 90.7422 45.276 91.1562 45.276H93.3477C93.7617 45.276 94.0977 45.6117 94.0977 46.026C94.0977 46.4403 93.7617 46.776 93.3477 46.776Z" fill="#0048B4"/>
<path d="M89.1763 39.3858C88.9175 39.3858 88.6651 39.2513 88.5264 39.0106C88.3194 38.6519 88.4419 38.1932 88.8008 37.9862L90.6983 36.8907C91.0567 36.6832 91.5157 36.806 91.7227 37.1651C91.9297 37.5238 91.8072 37.9825 91.4483 38.1895L89.5508 39.285C89.4327 39.3533 89.3038 39.3858 89.1763 39.3858Z" fill="#0048B4"/>
<path d="M83.7652 33.9759C83.6377 33.9759 83.5088 33.9434 83.3907 33.8751C83.0318 33.668 82.9092 33.2093 83.1163 32.8507L84.212 30.953C84.4185 30.5938 84.8785 30.471 85.2364 30.6785C85.5953 30.8856 85.7178 31.3443 85.5108 31.703L84.4151 33.6007C84.2764 33.8414 84.024 33.9759 83.7652 33.9759Z" fill="#0048B4"/>
<path d="M84.3115 46.7787H78.7314C78.3174 46.7787 77.9814 46.443 77.9814 46.0287C77.9814 45.6144 78.3174 45.2787 78.7314 45.2787H84.3115C84.7256 45.2787 85.0615 45.6144 85.0615 46.0287C85.0615 46.443 84.7256 46.7787 84.3115 46.7787Z" fill="#0048B4"/>
<path d="M76.3711 44.4188C75.957 44.4188 75.6211 44.0831 75.6211 43.6688V35.8788C75.6211 35.4645 75.957 35.1288 76.3711 35.1288C76.7852 35.1288 77.1211 35.4645 77.1211 35.8788V43.6688C77.1211 44.0831 76.7852 44.4188 76.3711 44.4188Z" fill="#0048B4"/>
<path d="M76.3755 49.1349C74.6606 49.1349 73.2656 47.7399 73.2656 46.0253C73.2656 44.3107 74.6606 42.9159 76.3755 42.9159C78.0898 42.9159 79.4849 44.3107 79.4849 46.0253C79.4849 47.7399 78.0898 49.1349 76.3755 49.1349ZM76.3755 44.4159C75.4878 44.4159 74.7656 45.1378 74.7656 46.0253C74.7656 46.9127 75.4878 47.6349 76.3755 47.6349C77.2627 47.6349 77.9849 46.9127 77.9849 46.0253C77.9849 45.1378 77.2627 44.4159 76.3755 44.4159Z" fill="#0048B4"/>
<path d="M82.334 48.8819C82.1421 48.8819 81.9502 48.8087 81.8037 48.6622C81.5107 48.3692 81.5107 47.8944 81.8037 47.6017L83.3813 46.0243L81.8042 44.4508C81.5112 44.1581 81.5107 43.6832 81.8032 43.39C82.0952 43.0968 82.5698 43.096 82.8638 43.389L84.9722 45.4928C85.1133 45.6334 85.1924 45.8243 85.1924 46.0233C85.1924 46.2225 85.1133 46.4134 84.9727 46.554L82.8643 48.6622C82.7178 48.8087 82.5259 48.8819 82.334 48.8819Z" fill="#0048B4"/>
<path d="M78.0908 38.2899C77.8989 38.2899 77.707 38.2167 77.5605 38.0702L76.374 36.8839L75.1909 38.0697C74.8979 38.3624 74.4233 38.3632 74.1304 38.0709C73.8374 37.7782 73.8364 37.3033 74.1294 37.0101L75.8428 35.2928C75.9834 35.152 76.1738 35.0726 76.373 35.0726C76.5718 35.0726 76.7632 35.1517 76.9038 35.2924L78.6211 37.0096C78.9141 37.3024 78.9141 37.7775 78.6211 38.0702C78.4746 38.2167 78.2827 38.2899 78.0908 38.2899Z" fill="#0048B4"/>
<path d="M13.3999 32.5956C11.126 32.5956 9.27637 30.7457 9.27637 28.4718C9.27637 26.2015 11.126 24.3546 13.3999 24.3546C15.6704 24.3546 17.5176 26.2015 17.5176 28.4718C17.5176 30.7457 15.6704 32.5956 13.3999 32.5956ZM13.3999 25.8546C11.9531 25.8546 10.7764 27.0287 10.7764 28.4718C10.7764 29.9186 11.9531 31.0956 13.3999 31.0956C14.8433 31.0956 16.0176 29.9186 16.0176 28.4718C16.0176 27.0287 14.8433 25.8546 13.3999 25.8546Z" fill="#0048B4"/>
<path d="M93.3511 89.2391C91.0771 89.2391 89.2275 87.3893 89.2275 85.1154C89.2275 82.8451 91.0771 80.9982 93.3511 80.9982C95.6211 80.9982 97.4683 82.8451 97.4683 85.1154C97.4683 87.3893 95.6211 89.2391 93.3511 89.2391ZM93.3511 82.4982C91.9043 82.4982 90.7275 83.6722 90.7275 85.1154C90.7275 86.5621 91.9043 87.7391 93.3511 87.7391C94.7944 87.7391 95.9683 86.5621 95.9683 85.1154C95.9683 83.6722 94.7944 82.4982 93.3511 82.4982Z" fill="#0048B4"/>
<path d="M67.8906 17.0463C67.4565 17.0463 67.0913 16.7462 67.0019 16.3163C66.7349 15.0006 66.0889 13.8055 65.1338 12.8573C64.1802 11.8969 62.9878 11.2513 61.6816 10.9862C61.2476 10.8954 60.9482 10.5297 60.9482 10.0961C60.9487 9.66223 61.2485 9.29724 61.6782 9.20789C62.9854 8.94275 64.1811 8.29626 65.1396 7.33801C66.0913 6.38586 66.7353 5.19031 67.0015 3.88001C67.0913 3.44714 67.4565 3.14709 67.8906 3.14709C68.3247 3.14709 68.6899 3.44714 68.7793 3.87708C69.0459 5.19031 69.6899 6.38611 70.6421 7.33801C71.6001 8.29626 72.7959 8.9425 74.1001 9.20715C74.5327 9.297 74.833 9.66199 74.8335 10.0961C74.8335 10.5299 74.5337 10.8956 74.104 10.9852C74.103 10.9855 74.1025 10.9855 74.102 10.9857C71.4224 11.5375 69.333 13.6295 68.7793 16.3153C68.6899 16.7462 68.3247 17.0463 67.8906 17.0463ZM63.7637 10.0966C64.6611 10.5074 65.4839 11.0809 66.1943 11.7968C66.9077 12.5048 67.48 13.328 67.8916 14.2291C68.7246 12.3993 70.1919 10.9305 72.019 10.0973C71.1211 9.68665 70.2964 9.11365 69.5815 8.39856C68.8706 7.68787 68.3003 6.86536 67.8906 5.96716C67.481 6.86487 66.9111 7.68762 66.2002 8.39856C65.4853 9.1134 64.6611 9.68567 63.7637 10.0966Z" fill="#0048B4"/>
</svg>
