<svg width="103" height="103" viewBox="0 0 103 103" fill="none" xmlns="http://www.w3.org/2000/svg">
<path d="M67.6031 99.4884C67.3248 99.4884 67.0572 99.3327 66.9278 99.0653C66.7471 98.6925 66.9029 98.244 67.2755 98.0634C70.795 96.3573 73.7969 94.2724 76.1983 91.8668C76.4879 91.577 76.7676 91.2829 77.0391 90.984C77.3175 90.6769 77.7911 90.6542 78.0987 90.933C78.4053 91.2113 78.4278 91.6857 78.1495 91.9923C77.8624 92.3087 77.566 92.6205 77.2593 92.9269C74.7398 95.4513 71.6007 97.6337 67.9298 99.413C67.8243 99.4642 67.713 99.4884 67.6031 99.4884Z" fill="#0048B4"/>
<path d="M80.2379 88.7513C80.1021 88.7513 79.9644 88.7146 79.8409 88.6373C79.4898 88.418 79.3829 87.9551 79.6021 87.604C79.9127 87.1072 80.2076 86.5906 80.4786 86.0691C80.67 85.7012 81.1226 85.5596 81.4903 85.7496C81.8575 85.9407 82.0006 86.3936 81.8097 86.761C81.5201 87.3174 81.2056 87.8685 80.8746 88.3987C80.732 88.6263 80.4879 88.7513 80.2379 88.7513Z" fill="#0048B4"/>
<path d="M57.7437 37.299C57.5498 37.299 57.356 37.2243 57.209 37.0751C55.5533 35.3925 53.7491 33.5973 51.3589 31.2546C51.063 30.9645 51.0581 30.4897 51.3482 30.194C51.6382 29.8979 52.1128 29.8935 52.4087 30.1833C54.8057 32.5326 56.6158 34.3337 58.2784 36.0229C58.5689 36.318 58.565 36.7931 58.2696 37.0837C58.1236 37.2272 57.9336 37.299 57.7437 37.299Z" fill="#0048B4"/>
<path d="M7.24436 85.7489C7.00852 85.7489 6.77561 85.6376 6.63011 85.4296C4.60569 82.5441 3.41722 79.3305 3.09739 75.8783C2.47141 69.2667 3.72532 63.0099 6.72386 57.7855C12.3689 47.9371 21.0071 39.1234 30.1096 30.213C30.4045 29.9232 30.8801 29.9279 31.1701 30.2243C31.4597 30.5202 31.4548 30.995 31.1584 31.2848C22.1345 40.1185 13.5749 48.8497 8.02513 58.5319C5.18186 63.4862 3.99436 69.4359 4.59055 75.7384C4.88645 78.9288 5.98557 81.8991 7.85764 84.5682C8.09593 84.9074 8.01389 85.3751 7.67454 85.6129C7.54368 85.7047 7.39329 85.7489 7.24436 85.7489Z" fill="#0048B4"/>
<path d="M42.6264 99.6632C40.687 99.6632 38.7212 99.5784 36.7387 99.4058C36.3261 99.3699 36.0205 99.0064 36.0566 98.5938C36.0923 98.181 36.4629 97.8734 36.8686 97.9117C51.1762 99.1563 64.6235 95.7401 71.9697 88.9937C75.9428 85.3453 77.9526 80.9097 77.9438 75.8101C77.9438 74.5396 77.9214 73.3822 77.8745 72.2701C77.8574 71.8563 78.1787 71.5069 78.5927 71.4896C79.0009 71.4757 79.3559 71.7935 79.3735 72.2076C79.4209 73.3406 79.4438 74.5186 79.4438 75.8089C79.4536 81.3453 77.2802 86.1536 72.9843 90.0985C66.3686 96.1741 55.0776 99.6627 42.6264 99.6632Z" fill="#0048B4"/>
<path d="M52.024 25.9188C51.8433 25.9188 51.6627 25.8544 51.5191 25.7233C51.2129 25.4444 51.1905 24.9701 51.4693 24.6637L57.2891 18.2738C57.8546 17.6542 57.837 16.7191 57.2496 16.1451C56.3458 15.2418 54.5997 14.1417 51.3804 13.9982C51.1519 13.9879 50.9405 13.8741 50.8062 13.6888C50.6719 13.5035 50.6299 13.2672 50.6915 13.047L51.4019 10.5069C51.5176 10.0978 51.4625 9.67223 51.2471 9.30651C51.0259 8.93077 50.669 8.66881 50.2427 8.56896C43.418 6.99498 37.2759 6.95153 31.9869 8.44078C31.1841 8.67321 30.7144 9.53307 30.9459 10.3561L31.7056 13.0448C31.7681 13.2655 31.7261 13.5023 31.5919 13.6881C31.4581 13.8736 31.2462 13.9879 31.0171 13.9982C27.7891 14.1417 26.0416 15.2416 25.1441 16.139C24.5508 16.7191 24.5333 17.6542 25.0982 18.2735L30.9185 24.6637C31.1973 24.9701 31.1749 25.4444 30.8687 25.7233C30.563 26.0013 30.0884 25.9801 29.8091 25.6739L23.9893 19.284C22.8775 18.0646 22.9214 16.2145 24.0894 15.0724C25.0743 14.0878 26.8853 12.8956 30.0123 12.569L29.502 10.763C29.0484 9.14855 29.9791 7.46031 31.5753 6.9984C37.1138 5.43907 43.5069 5.4757 50.5821 7.10802C51.4019 7.30016 52.1148 7.82384 52.5396 8.54528C52.9649 9.26769 53.0738 10.1085 52.8458 10.9134L52.3824 12.569C55.5025 12.8956 57.3135 14.0882 58.3043 15.0782C59.4664 16.2145 59.5103 18.0646 58.398 19.2843L52.5787 25.6739C52.4307 25.8363 52.2276 25.9188 52.024 25.9188Z" fill="#0048B4"/>
<path d="M35.1007 18.1878C34.9063 18.1878 34.7125 18.1129 34.5655 17.9634L30.4444 13.7696C30.1544 13.4742 30.1583 12.9993 30.4537 12.709C30.7491 12.4188 31.2242 12.4229 31.5147 12.7183L35.6358 16.9122C35.9259 17.2076 35.922 17.6824 35.6266 17.9727C35.4806 18.1163 35.2906 18.1878 35.1007 18.1878Z" fill="#0048B4"/>
<path d="M44.9966 21.2128C44.8198 21.2128 44.6421 21.1506 44.499 21.0236C44.1894 20.7485 44.1611 20.2743 44.4365 19.9648L50.8486 12.746C51.123 12.4369 51.5967 12.4076 51.9072 12.6833C52.2168 12.9584 52.2451 13.4325 51.9697 13.7421L45.5576 20.9609C45.4096 21.1276 45.2036 21.2128 44.9966 21.2128Z" fill="#0048B4"/>
<path d="M33.5042 47.1788C33.493 47.1788 33.4817 47.1786 33.47 47.1781C33.0564 47.1595 32.7361 46.8092 32.7547 46.3954C33.1184 38.2618 35.9402 33.4654 37.5901 31.3304C37.8431 31.0023 38.3152 30.9422 38.6419 31.1954C38.9695 31.4486 39.0301 31.9198 38.7766 32.2474C37.2356 34.2423 34.5984 38.7416 34.2527 46.4623C34.2351 46.8646 33.9031 47.1788 33.5042 47.1788Z" fill="#0048B4"/>
<path d="M44.3736 43.4588C43.9747 43.4588 43.6432 43.1449 43.6251 42.7428C43.3863 37.4615 41.7838 34.1551 40.481 32.3114C40.2423 31.9732 40.3228 31.5052 40.6612 31.2662C40.9986 31.0277 41.4669 31.1073 41.7066 31.4461C43.1246 33.4534 44.8683 37.0308 45.1231 42.6749C45.1422 43.0887 44.8219 43.4393 44.4078 43.4581C44.3966 43.4586 44.3849 43.4588 44.3736 43.4588Z" fill="#0048B4"/>
<path d="M41.1938 32.6161C37.353 32.6161 33.5146 32.1876 29.7832 31.3304C28.8496 31.117 28.0649 30.5421 27.5742 29.7115C27.0864 28.8851 26.9575 27.8839 27.2207 26.9642C27.2256 26.9476 27.2309 26.9315 27.2368 26.9154C27.2392 26.9068 27.2422 26.8981 27.2456 26.889C27.7607 25.1354 29.5576 24.0802 31.3476 24.4901C37.7881 25.9657 44.5967 25.9654 51.0361 24.4903C52.8276 24.0846 54.6308 25.1427 55.1514 26.8976C55.1621 26.933 55.1699 26.9691 55.1753 27.0055C55.4272 27.9107 55.2993 28.8922 54.8227 29.7057C54.334 30.5389 53.5483 31.1161 52.6108 31.3304C48.8755 32.1876 45.0332 32.6161 41.1938 32.6161ZM28.6601 27.3878C28.5112 27.9178 28.584 28.4718 28.8657 28.9488C29.1445 29.4208 29.5893 29.7474 30.1182 29.8683C37.3623 31.5323 45.0229 31.5326 52.2759 29.8685C52.8061 29.7474 53.251 29.4198 53.5283 28.9469C53.8096 28.4681 53.8784 27.9122 53.7226 27.3819C53.7134 27.3495 53.706 27.3163 53.7007 27.2828C53.3882 26.308 52.3696 25.7247 51.3696 25.9527C44.7114 27.4779 37.6723 27.4779 31.0132 25.9523C29.9941 25.7203 28.9712 26.3204 28.6821 27.3197C28.6772 27.337 28.6714 27.3541 28.6655 27.3712C28.6636 27.3766 28.6616 27.3822 28.6601 27.3878Z" fill="#0048B4"/>
<path d="M41.1146 85.6708C41.0233 85.6708 40.933 85.6703 40.8422 85.6688C40.7548 85.6679 40.62 85.6666 40.5101 85.653C40.0995 85.6012 39.808 85.2262 39.8598 84.8153C39.9115 84.4042 40.2914 84.1159 40.6976 84.1647C40.7474 84.1705 40.8041 84.1686 40.8539 84.1688C44.9506 84.2289 48.8163 82.7013 51.7504 79.8554C54.6849 77.0092 56.3339 73.1923 56.3934 69.1078C56.4584 65.0223 54.9276 61.1581 52.0839 58.226C49.2401 55.2938 45.4218 53.6434 41.3319 53.579C37.2616 53.5072 33.3842 55.0458 30.4511 57.8922C27.5184 60.7374 25.8681 64.5546 25.8036 68.6408C25.7304 73.579 28.0648 78.276 32.0482 81.2047C32.3817 81.4501 32.4535 81.9196 32.2084 82.2533C31.9628 82.5868 31.4931 82.6586 31.1596 82.4132C26.786 79.1979 24.223 74.0407 24.3036 68.6176C24.3749 64.1307 26.1869 59.9396 29.4066 56.8156C32.6273 53.6903 36.8646 52.0072 41.3554 52.079C45.8456 52.1498 50.038 53.962 53.1605 57.1818C56.2836 60.4015 57.9642 64.6451 57.8934 69.1307C57.8275 73.6151 56.017 77.8065 52.7948 80.932C49.6381 83.994 45.4989 85.6708 41.1146 85.6708Z" fill="#0048B4"/>
<path d="M42.8843 69.6518C42.8804 69.6518 42.8765 69.6518 42.8725 69.6518L39.3066 69.5968C38.2534 69.5807 37.2685 69.1552 36.5351 68.3986C35.8017 67.642 35.4062 66.6452 35.4223 65.5912C35.4565 63.4159 37.2158 61.6965 39.4282 61.7065L42.9941 61.7612C44.0478 61.7775 45.0322 62.203 45.7656 62.9596C46.4995 63.7162 46.8945 64.7133 46.8784 65.7673C46.8721 66.1816 46.541 66.509 46.1167 66.5055C45.7026 66.4989 45.3721 66.1581 45.3784 65.7438C45.3887 65.0907 45.1435 64.4728 44.689 64.0038C44.2344 63.5348 43.624 63.2712 42.9707 63.2612L39.4048 63.2065C38.0361 63.183 36.9433 64.2658 36.9223 65.6144C36.9121 66.2675 37.1572 66.8854 37.6118 67.3544C38.0669 67.8232 38.6767 68.0871 39.3296 68.0968L42.896 68.1518C43.31 68.1584 43.6406 68.4992 43.6343 68.9133C43.6279 69.3237 43.2934 69.6518 42.8843 69.6518Z" fill="#0048B4"/>
<path d="M42.8374 76.0426C42.8164 76.0426 42.7959 76.0424 42.7749 76.0421L39.2095 75.9874C37.0346 75.954 35.2915 74.1571 35.3247 71.9816C35.331 71.5714 35.6655 71.243 36.0747 71.243H36.0859C36.5005 71.2494 36.831 71.5902 36.8247 72.0045C36.8042 73.3529 37.8843 74.4669 39.2329 74.4874L42.7983 74.5421C43.4262 74.5502 44.0688 74.3075 44.5381 73.8524C45.0073 73.3978 45.271 72.7875 45.2807 72.1344C45.291 71.4811 45.0459 70.8632 44.5913 70.3944C44.1367 69.9254 43.5263 69.6617 42.873 69.6517L39.3071 69.5968C38.893 69.5905 38.5625 69.2494 38.5688 68.8353C38.5752 68.421 38.9511 68.1097 39.3305 68.0968L42.8965 68.1517C43.9502 68.1681 44.9345 68.5936 45.6679 69.35C46.4018 70.1066 46.7969 71.1036 46.7807 72.1576C46.7646 73.2111 46.3393 74.1954 45.5825 74.9293C44.8408 75.6486 43.8681 76.0426 42.8374 76.0426Z" fill="#0048B4"/>
<path d="M41.2003 63.2338C41.1969 63.2338 41.193 63.2338 41.1891 63.2338C40.775 63.2274 40.4439 62.8866 40.4503 62.4723L40.4762 60.766C40.4825 60.3527 40.7862 60.0455 41.2374 60.0275C41.6515 60.0338 41.9825 60.3746 41.9762 60.7889L41.9503 62.4952C41.9439 62.9054 41.6095 63.2338 41.2003 63.2338Z" fill="#0048B4"/>
<path d="M40.9776 77.7211C40.9737 77.7211 40.9698 77.7211 40.9659 77.7211C40.5518 77.7145 40.2213 77.3737 40.2276 76.9596L40.254 75.2533C40.2608 74.839 40.6036 74.5126 41.0157 74.5148C41.4298 74.5214 41.7603 74.8622 41.754 75.2763L41.7276 76.9826C41.7213 77.393 41.3868 77.7211 40.9776 77.7211Z" fill="#0048B4"/>
<path d="M13.2075 32.3978C10.9336 32.3978 9.08398 30.548 9.08398 28.274C9.08398 26.0038 10.9336 24.1569 13.2075 24.1569C15.478 24.1569 17.3252 26.0038 17.3252 28.274C17.3252 30.548 15.478 32.3978 13.2075 32.3978ZM13.2075 25.6569C11.7607 25.6569 10.584 26.8309 10.584 28.274C10.584 29.7208 11.7607 30.8978 13.2075 30.8978C14.6509 30.8978 15.8252 29.7208 15.8252 28.274C15.8252 26.8309 14.6509 25.6569 13.2075 25.6569Z" fill="#0048B4"/>
<path d="M93.1587 89.0411C90.8848 89.0411 89.0352 87.1913 89.0352 84.9176C89.0352 82.6473 90.8848 80.8004 93.1587 80.8004C95.4287 80.8004 97.2759 82.6473 97.2759 84.9176C97.2759 87.1913 95.4287 89.0411 93.1587 89.0411ZM93.1587 82.3004C91.7119 82.3004 90.5352 83.4745 90.5352 84.9176C90.5352 86.3641 91.7119 87.5411 93.1587 87.5411C94.6021 87.5411 95.7759 86.3641 95.7759 84.9176C95.7759 83.4745 94.6021 82.3004 93.1587 82.3004Z" fill="#0048B4"/>
<path d="M67.6982 16.8485C67.2642 16.8485 66.8989 16.5485 66.8096 16.1185C66.5425 14.8029 65.8965 13.6078 64.9414 12.6593C63.9883 11.6993 62.7959 11.0536 61.4888 10.7882C61.0562 10.6981 60.7563 10.3331 60.7559 9.89929C60.7559 9.4657 61.0552 9.09998 61.4849 9.01013C62.793 8.745 63.9888 8.09851 64.9473 7.14001C65.8989 6.18811 66.543 4.99255 66.8091 3.68201C66.8989 3.24915 67.2642 2.9491 67.6982 2.9491C68.1323 2.9491 68.4976 3.24915 68.5869 3.67908C68.8535 4.99255 69.4976 6.18835 70.4497 7.13977C71.4077 8.09851 72.6035 8.74475 73.9072 9.00916C74.3413 9.09973 74.6411 9.46545 74.6411 9.89929C74.6406 10.3334 74.3403 10.6984 73.9106 10.7875C73.9102 10.7875 73.9102 10.7877 73.9097 10.7877C71.23 11.3397 69.1406 13.4318 68.5869 16.1176C68.4976 16.5485 68.1323 16.8485 67.6982 16.8485ZM63.5713 9.89856C64.4692 10.3099 65.2915 10.8832 66.0019 11.5988C66.7153 12.307 67.2876 13.1302 67.6992 14.0314C68.5322 12.2015 69.999 10.733 71.8262 9.89954C70.9287 9.48889 70.104 8.91589 69.3892 8.20056C68.6782 7.49011 68.1084 6.6676 67.6982 5.76917C67.2886 6.66687 66.7187 7.48987 66.0078 8.20056C65.293 8.91541 64.4687 9.48792 63.5713 9.89856Z" fill="#0048B4"/>
<path d="M78.5165 67.9542C77.7812 67.9542 77.0858 67.67 76.559 67.1537C62.7865 53.6454 61.4945 40.6327 61.9506 34.0782C62.0302 32.9279 62.7914 31.9459 63.8451 31.6351C73.5917 28.7391 83.4438 28.7396 93.1825 31.6337C94.2397 31.9449 95.0038 32.9266 95.0824 34.076C95.5385 40.6305 94.2475 53.6447 80.474 67.1547C79.9477 67.6703 79.2528 67.9542 78.5165 67.9542ZM78.5165 30.953C73.7997 30.953 69.0067 31.6664 64.2704 33.0736C63.8139 33.2081 63.4833 33.6534 63.4467 34.182C63.0092 40.4789 64.2665 52.9962 77.6093 66.0826C78.0976 66.5619 78.9364 66.5612 79.4237 66.0836C92.767 52.9955 94.0243 40.4769 93.5863 34.1796C93.5497 33.6522 93.2167 33.2074 92.7572 33.0721C88.0243 31.6659 83.2338 30.953 78.5165 30.953Z" fill="#0048B4"/>
<path d="M76.7865 20.9266C76.3827 20.9266 76.0492 20.6051 76.0374 20.1986C76.0252 19.7845 76.3509 19.4391 76.765 19.4269C77.3495 19.4098 77.9334 19.4015 78.5164 19.4015C78.9305 19.4015 79.2664 19.7372 79.2664 20.1515C79.2664 20.5658 78.9305 20.9015 78.5164 20.9015C77.9481 20.9015 77.3788 20.9098 76.8089 20.9264C76.8016 20.9266 76.7938 20.9266 76.7865 20.9266Z" fill="#0048B4"/>
<path d="M60.6891 23.543C60.3658 23.543 60.0675 23.3321 59.9708 23.0064C59.8526 22.6092 60.0787 22.1917 60.4762 22.0738C64.4713 20.887 68.548 20.0853 72.5934 19.6912C73.0079 19.6509 73.3722 19.9525 73.4127 20.3648C73.4527 20.7772 73.151 21.1439 72.7389 21.1842C68.7887 21.5689 64.8067 22.3521 60.9029 23.5118C60.8316 23.533 60.7599 23.543 60.6891 23.543Z" fill="#0048B4"/>
<path d="M78.5169 72.9896C76.7649 72.9896 75.0125 72.336 73.6785 71.0289C57.9866 55.6373 56.532 40.5787 57.0618 32.9723C57.2586 30.1161 59.1995 27.6632 61.8914 26.869C72.9231 23.5924 84.1116 23.5921 95.1433 26.8695C97.8347 27.6632 99.7757 30.1161 99.9724 32.9727C100.502 40.5787 99.0476 55.6373 83.3562 71.0287C82.0222 72.3358 80.2693 72.9896 78.5169 72.9896ZM78.5169 25.9124C73.1043 25.9124 67.6922 26.7108 62.3172 28.3075C60.2219 28.9254 58.7117 30.8414 58.5579 33.0758C58.0462 40.4249 59.4666 54.9881 74.7288 69.9579C76.8176 72.0052 80.2171 72.0045 82.3059 69.9576C97.5676 54.9881 98.9881 40.4249 98.4763 33.0763C98.3225 30.8414 96.8118 28.9254 94.718 28.308C89.3425 26.711 83.9295 25.9124 78.5169 25.9124Z" fill="#0048B4"/>
<path d="M76.4209 52.6546C75.3516 52.6546 74.3467 52.2391 73.5923 51.4844L71.2515 49.1439C70.1675 48.0596 70.1675 46.2955 71.2515 45.211C72.3013 44.1607 74.1343 44.1607 75.1841 45.211L76.4209 46.4481L81.8496 41.0198C82.8984 39.9695 84.731 39.9698 85.7817 41.0196C86.3071 41.5447 86.5967 42.2432 86.5967 42.9859C86.5967 43.7288 86.3071 44.4273 85.7817 44.9525L79.25 51.4844C78.4956 52.2391 77.4907 52.6546 76.4209 52.6546ZM73.2178 45.8968C72.8755 45.8968 72.5537 46.0298 72.312 46.2715C71.813 46.7711 71.813 47.5838 72.312 48.0833L74.6528 50.4239C75.5957 51.3668 77.2476 51.3663 78.1895 50.4239L84.7212 43.8917C84.9634 43.6497 85.0967 43.3279 85.0967 42.9859C85.0967 42.6441 84.9634 42.3223 84.7212 42.0806C84.2383 41.5972 83.3936 41.5972 82.9106 42.0801L76.9512 48.0391C76.8105 48.1797 76.6196 48.2589 76.4209 48.2589C76.2217 48.2589 76.0312 48.1797 75.8906 48.0391L74.1235 46.2715C73.8818 46.0298 73.5601 45.8968 73.2178 45.8968Z" fill="#0048B4"/>
<path d="M35.603 100.051H5.14355C3.92969 100.051 2.94238 99.0634 2.94238 97.8497V92.007C2.94238 90.7933 3.92969 89.8058 5.14355 89.8058H35.603C36.8169 89.8058 37.8042 90.7933 37.8042 92.007V97.8497C37.8042 99.0634 36.8169 100.051 35.603 100.051ZM5.14355 91.3058C4.75684 91.3058 4.44238 91.6202 4.44238 92.007V97.8497C4.44238 98.2365 4.75684 98.5509 5.14355 98.5509H35.603C35.9897 98.5509 36.3042 98.2365 36.3042 97.8497V92.007C36.3042 91.6202 35.9897 91.3058 35.603 91.3058H5.14355Z" fill="#0048B4"/>
<path d="M9.72266 100.051C9.30859 100.051 8.97266 99.7152 8.97266 99.3009V90.5558C8.97266 90.1415 9.30859 89.8058 9.72266 89.8058C10.1367 89.8058 10.4727 90.1415 10.4727 90.5558V99.3009C10.4727 99.7152 10.1367 100.051 9.72266 100.051Z" fill="#0048B4"/>
<path d="M16.8232 100.051C16.4092 100.051 16.0732 99.7152 16.0732 99.3009V90.5558C16.0732 90.1415 16.4092 89.8058 16.8232 89.8058C17.2373 89.8058 17.5732 90.1415 17.5732 90.5558V99.3009C17.5732 99.7152 17.2373 100.051 16.8232 100.051Z" fill="#0048B4"/>
<path d="M23.9229 100.051C23.5088 100.051 23.1729 99.7152 23.1729 99.3009V90.5558C23.1729 90.1415 23.5088 89.8058 23.9229 89.8058C24.3369 89.8058 24.6729 90.1415 24.6729 90.5558V99.3009C24.6729 99.7152 24.3369 100.051 23.9229 100.051Z" fill="#0048B4"/>
<path d="M31.0234 100.051C30.6094 100.051 30.2734 99.7152 30.2734 99.3009V90.5558C30.2734 90.1415 30.6094 89.8058 31.0234 89.8058C31.4375 89.8058 31.7734 90.1415 31.7734 90.5558V99.3009C31.7734 99.7152 31.4375 100.051 31.0234 100.051Z" fill="#0048B4"/>
<path d="M39.1523 91.3058H8.69336C7.47949 91.3058 6.49219 90.3182 6.49219 89.1046V83.2618C6.49219 82.0482 7.47949 81.0607 8.69336 81.0607H39.1523C40.3662 81.0607 41.354 82.0482 41.354 83.2618V89.1046C41.354 90.3182 40.3662 91.3058 39.1523 91.3058ZM8.69336 82.5607C8.30664 82.5607 7.99219 82.8751 7.99219 83.2618V89.1046C7.99219 89.4913 8.30664 89.8058 8.69336 89.8058H39.1523C39.5391 89.8058 39.854 89.4913 39.854 89.1046V83.2618C39.854 82.8751 39.5391 82.5607 39.1523 82.5607H8.69336Z" fill="#0048B4"/>
<path d="M13.2734 91.3058C12.8594 91.3058 12.5234 90.9701 12.5234 90.5558V81.8107C12.5234 81.3964 12.8594 81.0607 13.2734 81.0607C13.6875 81.0607 14.0234 81.3964 14.0234 81.8107V90.5558C14.0234 90.9701 13.6875 91.3058 13.2734 91.3058Z" fill="#0048B4"/>
<path d="M20.374 91.3058C19.96 91.3058 19.624 90.9701 19.624 90.5558V81.8107C19.624 81.3964 19.96 81.0607 20.374 81.0607C20.7881 81.0607 21.124 81.3964 21.124 81.8107V90.5558C21.124 90.9701 20.7881 91.3058 20.374 91.3058Z" fill="#0048B4"/>
<path d="M27.4746 91.3058C27.0605 91.3058 26.7246 90.9701 26.7246 90.5558V81.8107C26.7246 81.3964 27.0605 81.0607 27.4746 81.0607C27.8887 81.0607 28.2246 81.3964 28.2246 81.8107V90.5558C28.2246 90.9701 27.8887 91.3058 27.4746 91.3058Z" fill="#0048B4"/>
<path d="M34.5742 91.3058C34.1602 91.3058 33.8242 90.9701 33.8242 90.5558V81.8107C33.8242 81.3964 34.1602 81.0607 34.5742 81.0607C34.9883 81.0607 35.3242 81.3964 35.3242 81.8107V90.5558C35.3242 90.9701 34.9883 91.3058 34.5742 91.3058Z" fill="#0048B4"/>
</svg>
