<svg width="110" height="110" viewBox="0 0 110 110" fill="none" xmlns="http://www.w3.org/2000/svg">
<path d="M28.7467 62.6269C28.6393 61.5097 30.358 61.3378 30.444 62.4765C30.5514 63.4863 32.3346 64.0234 33.3444 63.1855C33.6022 62.9706 33.774 62.6913 33.774 62.3906C33.774 60.3066 28.7252 62.2187 28.7252 58.2656C28.7252 56.8261 29.8639 55.7519 31.2389 55.4296V54.8066C31.2389 54.3339 31.6256 53.9472 32.1198 53.9472C32.6139 53.9472 32.9791 54.3554 32.9791 54.8281L32.9576 55.4081C35.6432 56.0097 36.1803 59.1034 34.6334 59.1034C34.1608 59.1034 33.774 58.7167 33.774 58.2441C33.774 57.1913 31.9264 56.5898 30.8737 57.4491C30.6158 57.664 30.444 57.9433 30.444 58.2441C30.444 60.3281 35.4928 58.4159 35.4928 62.3691C35.4928 63.8085 34.3326 64.8827 32.9576 65.205L32.9362 65.8066C32.9362 66.9452 31.2174 66.9452 31.2174 65.8066V65.1835C29.9713 64.9257 28.8756 63.9589 28.7467 62.6269ZM32.1198 48.8984C38.4147 48.8984 43.528 54.0117 43.528 60.3066C43.528 66.6015 38.4147 71.7148 32.1198 71.7148C25.8248 71.7148 20.7115 66.6015 20.7115 60.3066C20.7115 54.0331 25.8248 48.8984 32.1198 48.8984ZM38.9948 53.4745C35.2135 49.6933 29.069 49.6933 25.2877 53.4745C21.5065 57.2558 21.5065 63.4003 25.2877 67.1816C29.069 70.9628 35.2135 70.9628 38.9948 67.1816C42.776 63.4003 42.776 57.2558 38.9948 53.4745ZM32.1198 44.1074C34.4186 44.1074 36.5885 44.58 38.5651 45.4394L48.6198 28.9609C48.8561 28.5742 49.3717 28.4238 49.7799 28.6601L64.8405 37.2538L80.2877 25.1367L76.3131 20.0878C75.9264 19.5722 76.2057 18.7988 76.8717 18.7128L103.233 14.8886C103.856 14.8027 104.393 15.4472 104.157 16.0488L94.317 40.7343C94.0592 41.4433 93.2213 41.5077 92.8346 41.0136L88.7955 35.9003L65.2057 50.8105C64.9479 51.0038 64.5826 51.0253 64.2819 50.8534L51.6061 43.5058L44.5162 49.8437C47.4166 53.2597 48.8131 57.7714 48.2115 62.412H61.0807C62.649 62.412 63.9381 63.7011 63.9381 65.2695V67.4824C63.9381 67.8906 63.8522 68.2773 63.7018 68.621H66.7311C68.235 68.621 69.4596 69.8456 69.4596 71.3495V73.8202C69.4596 75.3242 68.235 76.5488 66.7311 76.5488H66.4948C66.6237 76.8495 66.6881 77.1718 66.6881 77.5156V80.0507C66.6881 80.4804 66.5807 80.9101 66.3873 81.2753C67.3971 81.7265 68.0846 82.7577 68.0846 83.8964V86.0663C68.0846 86.5175 67.9772 86.9472 67.7838 87.3339C68.944 87.6562 69.8033 88.7519 69.8033 89.998V92.3827C69.8033 93.9081 68.5573 95.1542 67.0319 95.1542H49.5651C48.0397 95.1542 46.7936 93.9081 46.7936 92.3827V89.998C46.7936 89.5683 46.901 89.1601 47.0514 88.8163C45.8912 88.4296 45.0533 87.3339 45.0533 86.0878V83.9179C45.0533 83.4452 45.1823 82.9726 45.3756 82.5859C44.3444 82.1991 43.6569 81.2109 43.6569 80.0722V77.537C43.6569 76.0546 44.86 74.8515 46.3424 74.8515H46.6217C46.4928 74.5507 46.4283 74.207 46.4283 73.8417V71.371C46.4283 71.0273 46.4928 70.6835 46.6217 70.3827H44.8385C42.776 73.0038 39.9401 74.9589 36.6959 75.9257C37.1256 76.4413 37.4049 77.1073 37.4049 77.8378V79.7929C37.4049 80.2441 37.2975 80.6738 37.1256 81.0605H39.5748C41.1862 81.0605 42.5182 82.3925 42.5182 84.0038V86.0449C42.5182 87.4199 41.5514 88.6015 40.2408 88.9023C40.4772 89.3534 40.6276 89.8691 40.6276 90.4062C40.6276 91.9316 40.8209 93.1562 39.7037 94.2734C39.1451 94.832 38.3502 95.1972 37.4908 95.1972H20.819C19.0787 95.1972 17.6823 93.7792 17.6823 92.0605C17.6823 90.5351 17.4889 89.3105 18.6061 88.2148C18.9713 87.8495 19.4225 87.5917 19.9166 87.4198C19.7018 87.0116 19.5944 86.5605 19.5944 86.0663V84.0253C19.5944 83.5956 19.6803 83.1659 19.8522 82.8007H17.4459C15.8131 82.8007 14.4596 81.4687 14.4596 79.8144V77.8593C14.4596 76.2265 15.7916 74.873 17.4459 74.873H24.858C15.0182 69.9316 12.8268 56.7402 20.6686 48.8984C23.5905 45.912 27.651 44.1074 32.1198 44.1074ZM40.1119 46.1913C41.2936 46.8574 42.3678 47.6738 43.3346 48.5976L50.8971 41.787C51.1979 41.5292 51.6061 41.4863 51.9283 41.7011L64.6471 49.0702L88.4733 33.9882C88.86 33.7519 89.3326 33.8378 89.6119 34.1816L93.1998 38.7363L101.965 16.7577L78.5475 20.1523L82.1354 24.707C82.4576 25.1152 82.3502 25.6523 81.942 25.9531L65.399 38.9081C65.1197 39.123 64.733 39.1445 64.4537 38.9726L49.608 30.5077L40.1119 46.1913ZM47.9108 64.1523C47.524 65.7421 46.901 67.2675 46.0846 68.621H61.1022C61.7252 68.621 62.2408 68.1054 62.2408 67.4824V65.2695C62.2408 64.6464 61.7252 64.1308 61.1022 64.1308H47.9108V64.1523ZM32.4635 76.5488H17.4244C16.7369 76.5488 16.1569 77.1288 16.1569 77.8163V79.7714C16.1569 80.4589 16.7369 81.039 17.4244 81.039H34.4615C35.149 81.039 35.7291 80.4804 35.7291 79.7714V77.8163C35.7291 77.1288 35.1705 76.5488 34.4615 76.5488H32.4635ZM42.3893 50.08C36.7174 44.4081 27.5436 44.4081 21.8717 50.08C16.1998 55.7519 16.1998 64.9257 21.8717 70.5976C27.5221 76.2695 36.7174 76.2695 42.3893 70.5976C48.0397 64.9257 48.0397 55.7304 42.3893 50.08ZM20.4323 38.4355C19.9381 37.4257 21.485 36.6738 21.9791 37.6835L23.9342 41.7226C24.4283 42.7324 22.8815 43.4843 22.3873 42.4745L20.4323 38.4355ZM9.56116 73.4765C8.55139 73.9706 7.79944 72.4238 8.8092 71.9296L12.8483 69.9745C13.858 69.4804 14.61 71.0273 13.6002 71.5214L9.56116 73.4765ZM6.59631 60.3925C5.47912 60.3066 5.58655 58.6093 6.72522 58.6738L11.2155 58.996C12.3326 59.082 12.2252 60.7792 11.0865 60.7148L6.59631 60.3925ZM10.5709 47.5663C9.62561 46.9433 10.5924 45.5253 11.5377 46.1484L15.2545 48.662C16.1783 49.2851 15.233 50.7031 14.2877 50.08L10.5709 47.5663ZM55.4948 49.3066C56.5045 48.8124 57.2565 50.3593 56.2467 50.8534L52.2076 52.8085C51.1979 53.3027 50.4459 51.7558 51.4557 51.2617L55.4948 49.3066ZM46.3639 39.4452C46.9869 38.5214 48.4049 39.4667 47.7819 40.412L45.2682 44.1288C44.6451 45.0741 43.2057 44.1074 43.8502 43.162L46.3639 39.4452ZM33.5377 35.4706C33.6237 34.3535 35.3209 34.4609 35.2565 35.5995L34.9342 40.0898C34.8483 41.207 33.151 41.0995 33.2155 39.9609L33.5377 35.4706ZM20.819 93.4355H37.5338C38.3073 93.4355 38.9518 92.7909 38.9518 92.0175V90.3847C38.9518 89.6113 38.3073 88.9667 37.5338 88.9667H20.819C20.0455 88.9667 19.401 89.6113 19.401 90.3847V92.0175C19.401 92.7909 20.0455 93.4355 20.819 93.4355ZM39.6178 82.7363H22.5162C21.8502 82.7363 21.2916 83.2948 21.2916 83.9609V86.0019C21.2916 86.6679 21.8502 87.2265 22.5162 87.2265H39.6178C40.2838 87.2265 40.8424 86.6679 40.8424 86.0019V83.9609C40.8424 83.2948 40.2838 82.7363 39.6178 82.7363ZM49.5866 93.4355H67.0533C67.6334 93.4355 68.0846 92.9628 68.0846 92.3827V89.998C68.0846 89.4179 67.6119 88.9452 67.0533 88.9452H49.5866C49.0065 88.9452 48.5338 89.4179 48.5338 89.998V92.3827C48.5338 92.9413 49.0065 93.4355 49.5866 93.4355ZM65.2057 82.7363H47.9752C47.3522 82.7363 46.8151 83.2519 46.8151 83.8964V86.0663C46.8151 86.6894 47.3307 87.2265 47.9752 87.2265H65.2057C65.8287 87.2265 66.3658 86.7109 66.3658 86.0663V83.8964C66.3658 83.2734 65.8502 82.7363 65.2057 82.7363ZM46.3854 81.0175H64.0026C64.5397 81.0175 64.9694 80.5878 64.9694 80.0507V77.5156C64.9694 76.9784 64.5397 76.5488 64.0026 76.5488H46.3854C45.8483 76.5488 45.4186 76.9784 45.4186 77.5156V80.0507C45.4186 80.5878 45.8483 81.0175 46.3854 81.0175ZM66.7311 70.3613H49.1998C48.6412 70.3613 48.1901 70.8124 48.1901 71.3495V73.8202C48.1901 74.3788 48.6412 74.83 49.1998 74.83H66.7311C67.2897 74.83 67.7408 74.3788 67.7408 73.8202V71.3495C67.7408 70.7909 67.2897 70.3613 66.7311 70.3613ZM95.9498 57.9433H95.6061C95.8209 58.3515 95.9283 58.8242 95.9283 59.3183V61.0585C95.9283 61.8534 95.6276 62.5839 95.1334 63.121C95.9283 63.7441 96.4225 64.6894 96.4225 65.7421C96.4225 67.1386 96.5514 68.2558 95.4557 69.373C94.8326 69.9745 94.0162 70.3398 93.0924 70.3398C93.3073 70.7695 93.4362 71.2636 93.4362 71.7577V73.3906C93.4362 73.9062 93.3073 74.3788 93.0924 74.8085H95.026C96.6803 74.8085 98.0123 76.162 98.0123 77.7949V79.7284C98.0123 81.082 97.0885 82.2636 95.8209 82.6074C96.0358 83.0156 96.1432 83.4667 96.1432 83.9394V85.9589C96.1432 87.6132 94.8541 88.9023 93.0924 88.9023C93.2858 89.3105 93.4147 89.7831 93.4147 90.2558V92.0175C93.4147 93.7148 92.0397 95.0898 90.3424 95.0898H73.5201C71.8229 95.0898 70.4479 93.6933 70.4479 92.0175V90.2558C70.4479 88.58 71.7799 87.2265 73.4557 87.1835C73.2838 86.8183 73.1979 86.3886 73.1979 85.9589V83.9394C73.1979 82.5859 74.1217 81.4257 75.3893 81.082C75.1744 80.6738 75.067 80.2011 75.067 79.707V77.7734C75.067 77.3222 75.1744 76.8925 75.3463 76.4843H73.6061C71.8658 76.4843 70.4479 75.0663 70.4479 73.3476C70.4479 71.8222 70.2545 70.6191 71.3717 69.5019C72.0807 68.7929 72.8541 68.5781 73.8639 68.5781C73.3483 67.6542 73.4557 66.7304 73.4557 65.6991C73.4557 64.8613 73.7565 64.1093 74.2721 63.5292C73.4772 62.9706 72.983 62.0468 72.983 61.0156V59.2753C72.983 57.5781 74.3795 56.1816 76.0768 56.1816H76.442C76.2272 55.7519 76.0983 55.2792 76.0983 54.7851V53.0878C76.0983 51.3691 77.4948 49.9726 79.2135 49.9726H95.9713C97.6901 49.9726 99.0866 51.3691 99.0866 53.0878V54.7851C99.0651 56.5468 97.6686 57.9433 95.9498 57.9433ZM92.8346 56.2245H95.9498C96.7018 56.2245 97.3463 55.6015 97.3463 54.8281V53.1308C97.3463 52.3574 96.7233 51.7343 95.9498 51.7343H79.192C78.4186 51.7343 77.7955 52.3574 77.7955 53.1308V54.8281C77.7955 55.58 78.4186 56.2245 79.192 56.2245H92.8346ZM92.8346 57.9433H76.0338C75.2819 57.9433 74.6588 58.5663 74.6588 59.3183V61.0585C74.6588 61.8105 75.2819 62.4335 76.0338 62.4335H92.8346C93.5865 62.4335 94.2096 61.8105 94.2096 61.0585V59.3183C94.2096 58.5663 93.5865 57.9433 92.8346 57.9433ZM90.278 68.621H93.1139C93.9948 68.621 94.7252 67.912 94.7252 67.0312V65.7421C94.7252 64.8613 93.9948 64.1523 93.1139 64.1523H76.7643C75.8834 64.1523 75.1744 64.8613 75.1744 65.7421V67.0312C75.1744 67.912 75.8834 68.621 76.7643 68.621H90.278ZM73.4987 93.4355H90.3209C91.0729 93.4355 91.6744 92.8124 91.6744 92.082V90.3202C91.6744 89.5683 91.0514 88.9667 90.3209 88.9667H73.4987C72.7467 88.9667 72.1451 89.5898 72.1451 90.3202V92.082C72.1451 92.8124 72.7467 93.4355 73.4987 93.4355ZM78.0104 82.7363H76.0983C75.4323 82.7363 74.8737 83.2948 74.8737 83.9609V85.9804C74.8737 86.6464 75.4323 87.205 76.0983 87.205H93.1998C93.8658 87.205 94.4244 86.6464 94.4244 85.9804V83.9609C94.4244 83.2948 93.8658 82.7363 93.1998 82.7363H78.0104ZM78.0104 81.0175H95.0045C95.692 81.0175 96.2721 80.4374 96.2721 79.7499V77.8163C96.2721 77.1074 95.692 76.5273 95.0045 76.5273H78.0104C77.3014 76.5273 76.7428 77.1074 76.7428 77.8163V79.7499C76.7428 80.4589 77.3014 81.0175 78.0104 81.0175ZM90.278 70.3613H73.5846C72.7897 70.3613 72.1451 71.0058 72.1451 71.7792V73.412C72.1451 74.1855 72.7897 74.83 73.5846 74.83H90.278C91.0514 74.83 91.6959 74.1855 91.6959 73.412V71.7792C91.6959 70.9843 91.0514 70.3613 90.278 70.3613Z" fill="#0048B4"/>
</svg>
