<svg width="110" height="110" viewBox="0 0 110 110" fill="none" xmlns="http://www.w3.org/2000/svg">
<path d="M85.5729 34.2676V22.9883C85.5729 21.1621 87.5494 19.959 89.2037 20.9043C89.2682 20.9473 89.3541 20.9902 89.4186 21.0117C89.9986 21.4199 91.2018 21.2266 91.6744 20.3672C93.1139 17.6816 94.8111 14.9316 96.3365 12.2891C97.2818 10.6563 99.3658 10.0977 100.977 11.043C102.051 11.666 102.803 12.1387 103.169 13.4707C103.383 14.2871 103.297 15.2754 102.825 16.0488L98.1842 24.127C97.7115 24.9219 97.9908 25.9746 98.8072 26.4258L98.9791 26.5332C99.7311 26.9629 100.182 27.7363 100.182 28.6172C100.182 29.0254 100.075 29.498 99.86 29.8203C99.6451 30.1641 99.3443 30.4863 98.9791 30.7012L89.2252 36.3301C87.5709 37.2969 85.5729 36.0937 85.5729 34.2676ZM87.2916 22.9883V34.2461C87.2916 34.8262 87.9146 35.1055 88.3443 34.8477L98.0982 29.2187L98.3561 28.9609C98.4205 28.8535 98.442 28.7461 98.442 28.6172C98.442 28.3594 98.3346 28.1445 98.0982 28.0156C97.1959 27.5 96.6158 26.834 96.358 25.8457C96.1432 25.0078 96.2291 24.084 96.7018 23.2676L101.364 15.1895C101.837 14.3945 101.557 13.3418 100.741 12.8906L100.139 12.5469C99.3443 12.0742 98.2916 12.3535 97.8189 13.1699L93.1998 21.2051C93.1783 21.2266 93.1568 21.2695 93.1354 21.3125C92.6627 22.1074 91.9322 22.623 91.0943 22.8379C90.2779 23.0527 89.2037 22.9668 88.4732 22.4727C87.7643 22.043 87.2916 22.5156 87.2916 22.9883ZM23.0318 35.707L12.5475 31.582C10.8072 30.8945 10.4635 28.5957 11.9244 27.4355C12.3541 27.0918 12.6334 26.7695 12.6979 26.1895C12.7408 25.7598 12.6334 25.3086 12.3541 24.9434L6.55332 17.6387C5.37168 16.1777 5.6295 14.0293 7.09043 12.8691C8.05723 12.1172 8.76621 11.5586 10.1412 11.709C11.0221 11.8164 11.9029 12.2676 12.4615 13.0195L18.1979 20.2383C18.8639 21.0332 19.8092 21.1406 20.6471 20.5176C21.0768 20.1953 21.3561 20.002 21.8932 19.9375C23.1822 19.7441 24.4283 20.625 24.6432 21.9785L26.319 33.1074C26.5768 34.9551 24.7721 36.3945 23.0318 35.707ZM13.1705 29.9922L23.6549 34.1172C24.1705 34.3105 24.6861 33.9023 24.6002 33.3652L22.9244 22.2363C22.8385 21.6992 22.2154 21.4629 21.8072 21.7852C20.9908 22.4297 20.1744 22.7305 19.1647 22.623C18.3053 22.5156 17.4674 22.0859 16.8873 21.3555C14.9322 18.9707 12.9557 16.4785 11.0865 14.0508C10.5064 13.3203 9.43223 13.2129 8.70176 13.793C8.12168 14.2441 7.62754 14.5449 7.5416 15.3613C7.49864 15.791 7.60606 16.2422 7.88536 16.6074L13.6432 23.8477C14.8678 25.2871 14.61 27.5859 13.0846 28.7031C12.4615 29.1758 12.7408 29.8203 13.1705 29.9922ZM12.9557 71.8437H21.8287C22.3658 71.2422 23.1393 70.8769 23.9772 70.8769H30.8951C31.7545 70.8769 32.5065 71.2422 33.0436 71.8437H35.7721C36.2877 71.3926 36.7818 70.8984 37.276 70.3613C38.6725 68.8359 39.94 67.6113 41.1002 66.6445C41.1002 65.3555 40.1119 64.3672 38.8658 64.3672H12.9557C11.7311 64.3672 10.7428 65.3769 10.7428 66.6016V69.6094C10.7428 70.834 11.7311 71.8437 12.9557 71.8437ZM21.8287 98.7851H9.8834C9.41075 98.7851 9.02403 98.3984 9.02403 97.9258V72.7031C9.02403 72.2734 9.32481 71.9297 9.73301 71.8652C9.28184 71.2207 9.02403 70.4687 9.02403 69.6309V66.623C9.02403 64.4531 10.7857 62.6699 12.9557 62.6699H15.6197C15.1041 61.9609 14.7818 61.1016 14.7818 60.1562V57.7285C14.7818 55.3867 16.6939 53.4961 19.0143 53.4961H40.735C33.3229 45.7402 33.4732 33.4941 41.0572 25.9102C48.7701 18.1973 61.274 18.1973 68.9869 25.9102C76.5709 33.4941 76.7213 45.7402 69.3092 53.4961H94.9615C97.1314 53.4961 98.9146 55.2578 98.9146 57.4492V60.457C98.9146 61.2949 98.6568 62.0469 98.2271 62.6914C100.333 62.7559 102.03 64.5176 102.03 66.6445V67.3105C103.297 68.084 104.092 69.3945 104.2 70.8984C104.307 72.6387 103.469 74.6152 101.342 76.291C95.7564 80.6523 92.4908 83.7246 85.6158 88.5371C82.5221 90.707 66.6666 95.7559 64.2174 95.8203L33.7311 97.4531C33.4518 98.7637 32.2916 99.7519 30.8951 99.7519H23.9772C23.1393 99.7519 22.3658 99.3652 21.8287 98.7851ZM12.9557 73.5625H10.7428V97.0664H21.0982V73.5625H12.9557ZM33.7955 75.3027L33.817 95.7129L64.11 94.0371C66.5807 93.8437 81.7271 89.0957 84.6275 87.0762C91.4811 82.2637 94.7037 79.2559 100.29 74.8945C102.266 73.3477 103.126 71.1777 102.03 69.5664C100.87 67.8262 98.3346 67.998 96.401 69.1367L87.2916 73.5195L83.8326 75.1738C83.0592 75.5391 79.6002 76.3984 76.3561 77.0859C73.692 77.6445 71.1139 78.0742 70.19 78.0312C65.7428 78.6113 59.0826 78.332 54.9576 77.3008C53.11 76.8496 50.2311 75.8613 50.7252 73.7773C50.8541 73.2832 51.4986 72.209 52.1647 72.1445L64.2174 70.8984C69.9752 70.3184 71.3502 64.0449 65.399 64.1953C62.3482 64.2812 59.7916 64.2812 57.5787 64.2598C48.0826 64.2383 45.3326 64.2383 38.5436 71.543C37.1686 73.0254 35.5787 74.3574 33.7955 75.3027ZM30.8951 72.5957H23.9772C23.3326 72.5957 22.7955 73.1328 22.7955 73.7773V96.8516C22.7955 97.4961 23.3326 98.0332 23.9772 98.0332H30.8951C31.5397 98.0332 32.0768 97.4961 32.0768 96.8516V73.7773C32.0768 73.1328 31.5397 72.5957 30.8951 72.5957ZM42.6471 65.4414C43.2272 65.0332 43.8072 64.668 44.3873 64.3672L42.1315 64.3457C42.3463 64.6894 42.5397 65.0547 42.6471 65.4414ZM51.1979 62.6699C53.0025 62.5625 55.0436 62.5625 57.5572 62.5625C59.7486 62.5625 62.3053 62.584 65.3346 62.498C66.0865 62.4766 66.7525 62.541 67.3541 62.6914H67.8912C69.2877 62.6914 70.4049 61.5527 70.4049 60.1777V57.75C70.4049 56.375 69.2662 55.2363 67.8912 55.2363C67.7623 55.2363 67.6549 55.2148 67.5475 55.1719C64.1529 57.9648 59.7916 59.6406 55.0436 59.6406C50.3385 59.6406 46.0201 57.9863 42.6256 55.2578H42.5611C41.1861 55.2578 40.0475 56.3965 40.0475 57.7715V60.1992C40.0475 61.5742 41.1861 62.7129 42.5611 62.7129H51.1979V62.6699ZM70.5768 65.0547C71.6725 67.4394 69.9537 69.5664 69.9322 69.6523C69.9322 70.2539 70.19 70.8125 70.5982 71.1992C71.0064 71.6074 71.565 71.8652 72.1666 71.8652H86.7975L95.5631 67.6543C97.3033 66.6875 98.9576 66.4082 100.311 66.666C100.311 65.3984 99.3229 64.4101 98.0982 64.4101H72.1666C71.5436 64.3672 70.985 64.625 70.5768 65.0547ZM68.4928 71.0918C68.1061 71.3711 67.6549 71.6504 67.1822 71.8652C67.5904 71.8652 68.5143 71.8867 68.8795 71.8223C68.7291 71.5859 68.6002 71.3281 68.4928 71.0918ZM54.9576 73.5625L52.5943 73.7988C52.4654 73.9492 52.401 74.0566 52.3795 74.1426C52.358 74.2715 52.5299 74.4434 52.8307 74.6582C53.3893 75.0234 54.2701 75.3242 55.3443 75.6035C59.319 76.5918 65.7643 76.8711 70.0396 76.3125C70.1041 76.291 70.19 76.291 70.2545 76.3125C71.651 76.5059 82.0064 74.1426 83.2096 73.5625H72.1666C71.5006 73.5625 70.8775 73.3906 70.3404 73.1113C69.7604 73.4121 69.1158 73.5625 68.4498 73.5625H54.9576ZM51.0904 42.6465C50.983 41.5293 52.7018 41.3574 52.7877 42.4961C52.9166 43.8926 55.3014 44.623 56.6764 43.5059C57.0416 43.2051 57.2565 42.7969 57.2565 42.3887C57.2565 39.5527 51.0475 42.002 51.0475 37.3184C51.0475 35.5996 52.4654 34.332 54.1412 34.0098V33.0859C54.1412 32.6133 54.5279 32.2266 55.0221 32.2266C55.5162 32.2266 55.9029 32.6348 55.8815 33.1074L55.86 33.9883C57.5357 34.3105 58.9752 35.5781 58.9752 37.2969C58.9752 38.4355 57.2565 38.4355 57.2565 37.2969C57.2565 35.8145 54.7857 35.0195 53.3678 36.1797C53.0025 36.4805 52.7877 36.8887 52.7877 37.2969C52.7877 40.1328 58.9967 37.6836 58.9967 42.3672C58.9967 44.0859 57.5572 45.375 55.9029 45.6758L55.8815 46.5781C55.8815 47.7168 54.1627 47.7168 54.1627 46.5781V45.6543C52.6158 45.3965 51.2408 44.2578 51.0904 42.6465ZM55.0436 25.9961C62.6705 25.9961 68.8795 32.1836 68.8795 39.832C68.8795 47.4805 62.692 53.668 55.0436 53.668C47.3951 53.668 41.2076 47.4805 41.2076 39.832C41.2076 32.1836 47.3951 25.9961 55.0436 25.9961ZM63.5943 31.2598C58.8678 26.5332 51.1979 26.5332 46.4713 31.2598C41.7447 35.9863 41.7447 43.6562 46.4713 48.4043C51.1979 53.1309 58.8678 53.1309 63.5943 48.4043C68.3209 43.6777 68.3209 36.0078 63.5943 31.2598ZM67.7838 27.0918C60.7584 20.0449 49.3287 20.0449 42.3033 27.0918C35.2564 34.1387 35.2564 45.5469 42.3033 52.5937C49.3287 59.6191 60.7369 59.6621 67.7838 52.5937C74.8092 45.5469 74.8092 34.1172 67.7838 27.0918ZM54.1627 11.1074C54.1627 9.96875 55.8815 9.96875 55.8815 11.1074V16.1133C55.8815 17.252 54.1627 17.252 54.1627 16.1133V11.1074ZM26.0826 40.9062C24.944 40.9062 24.944 39.1875 26.0826 39.1875H31.0885C32.2272 39.1875 32.2272 40.9062 31.0885 40.9062H26.0826ZM29.5416 26.3184C28.5533 25.7598 29.4127 24.2773 30.401 24.8359L34.7408 27.3496C35.7076 27.9082 34.8697 29.3906 33.8814 28.832L29.5416 26.3184ZM39.8326 15.4043C39.274 14.416 40.7565 13.5781 41.315 14.5449L43.8072 18.9062C44.3658 19.873 42.8834 20.7324 42.3248 19.7656L39.8326 15.4043ZM83.983 39.1875C85.1217 39.1875 85.1217 40.9062 83.983 40.9062H78.9771C77.8385 40.9062 77.8385 39.1875 78.9771 39.1875H83.983ZM79.6646 24.8359C80.6314 24.2773 81.4908 25.7598 80.524 26.3184L76.1842 28.832C75.1959 29.3906 74.358 27.9082 75.3248 27.3496L79.6646 24.8359ZM68.7721 14.5664C69.3307 13.5781 70.8131 14.4375 70.2545 15.4258L67.7408 19.7656C67.1822 20.7539 65.6998 19.8945 66.2584 18.9062L68.7721 14.5664ZM71.1998 62.7773C71.5006 62.6914 71.8229 62.6484 72.1666 62.6484H94.9615C96.1861 62.6484 97.1959 61.6387 97.1959 60.4141V57.4062C97.1959 56.1816 96.1861 55.1719 94.9615 55.1719H71.2857C71.8014 55.8809 72.1236 56.7402 72.1236 57.6855V60.1133C72.1236 61.1445 71.7799 62.0469 71.1998 62.7773ZM39.1666 62.6699C38.6295 61.9609 38.3287 61.0801 38.3287 60.1348V57.707C38.3287 56.7617 38.6295 55.9023 39.1666 55.1934H19.0357C17.6607 55.1934 16.5221 56.332 16.5221 57.707V60.1348C16.5221 61.5098 17.6607 62.6484 19.0357 62.6484H38.8873C38.9732 62.6699 39.0807 62.6699 39.1666 62.6699Z" fill="#0048B4"/>
</svg>
