<svg width="110" height="110" viewBox="0 0 110 110" fill="none" xmlns="http://www.w3.org/2000/svg">
<path d="M75.3242 66.4081C75.3027 66.4296 75.2598 66.4725 75.2383 66.494L63.2715 77.9022C66.4297 79.8788 69.1582 82.7362 70.9844 86.0018L99.3437 58.953C99.9668 58.3515 99.9883 57.3417 99.3867 56.6972L93.8867 50.9393C93.1992 50.2518 92.3828 50.1659 91.6309 50.8749L75.3242 66.4081ZM18.7559 71.1991C18.6484 70.0819 20.3672 69.91 20.4531 71.0487C20.625 72.8534 23.5898 73.7558 25.3086 72.3378C25.7812 71.9511 26.0605 71.4354 26.0605 70.8768C26.0605 67.3319 18.7344 70.2968 18.7344 64.8827C18.7344 62.8847 20.4316 61.4237 22.3867 61.1015V59.8983C22.3867 59.4257 22.7734 59.0389 23.2891 59.0389C23.7832 59.0389 24.1699 59.4257 24.1484 59.9198L24.127 61.1015C26.082 61.4237 27.8008 62.8847 27.8008 64.8827C27.8008 66.0214 26.082 66.0214 26.082 64.8827C26.082 62.9921 22.9883 61.9823 21.2266 63.4218C20.7539 63.8085 20.4746 64.3241 20.4746 64.8827C20.4746 68.4276 27.8008 65.4628 27.8008 70.8768C27.8008 72.8964 26.082 74.3358 24.1484 74.6581L24.127 75.8612C24.127 76.9999 22.4082 76.9999 22.4082 75.8612V74.6581C20.5605 74.3573 18.9277 73.0683 18.7559 71.1991ZM23.0312 27.6073H60.9512C62.8418 27.6073 63.8516 25.287 62.4766 23.912C62.0898 23.5253 61.5312 23.2675 60.9512 23.2675H23.0312C21.1406 23.2675 20.1309 25.5878 21.5059 26.9628C21.8926 27.371 22.4297 27.6073 23.0312 27.6073ZM55.2578 29.3261H50.2519L50.832 42.7968H54.6777L55.2578 29.3261ZM44.4941 29.3261H39.4883L40.0684 42.7968H43.9355L44.4941 29.3261ZM33.7305 29.3261H28.7246L29.3047 42.7968H33.1504L33.7305 29.3261ZM22.9883 29.3261C19.916 29.2831 18.0898 25.8241 19.8086 23.2675H19.3145C18.8418 23.2675 18.4551 22.8807 18.4551 22.4081V20.5175H13.5781C11.6875 20.5175 10.1621 22.0429 10.1621 23.9335V88.7518H18.6699C21.5059 88.7518 23.8047 91.0507 23.8047 93.8866V102.416L70.4258 102.502C72.3379 102.502 73.8633 100.998 73.8633 99.0858V85.6796L71.0488 88.3651C70.9414 88.4725 70.791 88.5585 70.6191 88.6015L62.498 90.4706C61.7246 90.6425 60.9297 90.5565 60.2422 90.1913V91.8026C60.2422 95.369 57.3418 98.2694 53.7754 98.2694H35.9863C32.4199 98.2694 29.5195 95.369 29.5195 91.8026V85.8729C29.5195 82.3065 32.4199 79.4061 35.9863 79.4061H53.7754C56.2031 79.4061 58.3945 80.7597 59.4902 82.8436L60.6934 78.2675C60.7793 77.9237 61.0371 77.7304 61.3164 77.4725L73.8633 65.5057V23.9335C73.8633 22.0429 72.3379 20.5175 70.4473 20.5175H65.5703V22.4081C65.5703 22.8807 65.1836 23.2675 64.7109 23.2675H64.1953C65.9355 25.8241 64.0879 29.2831 61.0156 29.3261L61.5957 42.7968C64.8828 42.7968 66.6875 46.4491 64.8398 49.0272C67.7187 49.5858 68.8789 53.1737 66.752 55.3007C66.0859 55.9667 65.1406 56.3964 64.1309 56.3964H19.873C16.5859 56.3964 14.8887 52.4003 17.252 50.0585C17.7676 49.5429 18.4336 49.1776 19.1641 49.0272C17.3164 46.4491 19.1426 42.7968 22.4082 42.7968L22.9883 29.3261ZM61.6172 44.5155H22.3652C20.4316 44.5155 19.3789 46.9003 20.7969 48.2968C21.2051 48.705 21.7637 48.9413 22.3652 48.9413H61.6172C63.5508 48.9413 64.6035 46.5565 63.1855 45.16C62.7773 44.7733 62.2402 44.5155 61.6172 44.5155ZM19.873 54.6776H64.1309C65.8711 54.6776 66.8164 52.5507 65.5273 51.2616C65.1621 50.8964 64.668 50.6815 64.1309 50.6815H19.873C18.1328 50.6815 17.1875 52.8085 18.4551 54.0761C18.8203 54.4413 19.3145 54.6776 19.873 54.6776ZM27.5859 42.7968L27.0059 29.3261H24.6855L24.1055 42.7968H27.5859ZM59.877 42.7968L59.2969 29.3261H56.9766L56.3965 42.7968H59.877ZM49.1133 42.7968L48.5332 29.3261H46.2129L45.6328 42.7968H49.1133ZM38.3496 42.7968L37.7695 29.3261H35.4492L34.8691 42.7968H38.3496ZM21.5059 21.5487L41.5723 10.0546C41.8516 9.90419 42.1738 9.90419 42.4316 10.0761L62.4766 21.5487H63.8301V20.1522L42.0019 7.64833L20.1738 20.1522V21.5487H21.5059ZM59.0176 21.5487L41.9805 11.7948L24.9434 21.5487H59.0176ZM42.4316 5.92958L64.9043 18.7987H70.4258C73.2617 18.7987 75.5605 21.0975 75.5605 23.9335V63.83L90.4492 49.6288C91.8887 48.2538 93.6934 48.3827 95.1113 49.7362L100.654 55.5585C101.9 56.869 101.857 58.9745 100.547 60.2206L75.5605 84.0253V99.0643C75.5605 101.922 73.2617 104.199 70.4043 104.199H68.75C53.4961 104.178 38.2422 104.135 22.9668 104.113C22.666 104.113 22.4512 104.006 22.2578 103.769L8.70117 90.2128C8.55078 90.0624 8.44336 89.8261 8.44336 89.5897V23.9335C8.44336 21.0975 10.7422 18.7987 13.5781 18.7987H19.0996L41.5938 5.92958C41.8516 5.7577 42.1738 5.77919 42.4316 5.92958ZM58.5234 87.9784C58.416 87.5058 58.416 87.0116 58.5234 86.539V85.8515C58.5234 83.2304 56.3965 81.1034 53.7754 81.1034H35.9863C33.3652 81.1034 31.2383 83.2304 31.2383 85.8515V91.7811C31.2383 94.3808 33.3652 96.5292 35.9863 96.5292H53.7754C56.3965 96.5292 58.5234 94.4022 58.5234 91.7811V87.9784ZM62.1758 79.2558L60.2422 86.7323V87.7636C60.2637 88.0858 61.0156 89.0311 62.1113 88.7733L69.6309 87.0331C67.9121 83.8964 65.248 81.1034 62.1758 79.2558ZM35.5566 63.0136C34.418 63.0136 34.418 61.2948 35.5566 61.2948H60.7578C61.8965 61.2948 61.8965 63.0136 60.7578 63.0136H35.5566ZM35.5566 69.0936C34.418 69.0936 34.418 67.3749 35.5566 67.3749H60.7578C61.8965 67.3749 61.8965 69.0936 60.7578 69.0936H35.5566ZM35.5566 75.1522C34.418 75.1522 34.418 73.4335 35.5566 73.4335H60.7578C61.8965 73.4335 61.8965 75.1522 60.7578 75.1522H35.5566ZM18.5625 81.7479C17.4238 81.7479 17.4238 80.0292 18.5625 80.0292H25.9961C27.1348 80.0292 27.1348 81.7479 25.9961 81.7479H18.5625ZM36.9102 86.9472C36.5234 86.6679 36.459 86.1308 36.7383 85.744C37.0176 85.3573 37.5547 85.2929 37.9414 85.5722C41.959 88.5585 42.2168 90.0624 43.0547 90.6425C43.7422 91.1366 44.3652 91.3515 44.7949 91.3085C45.0098 91.287 45.0742 91.2225 45.0957 90.9862C45.1172 90.4491 44.7949 89.5897 43.9355 88.3866C42.1738 85.9374 43.3555 84.3046 44.9453 84.6698C45.7832 84.8632 46.9648 85.7011 48.3184 87.4628C48.4258 87.5917 48.3613 87.6776 48.4043 87.6561C49.1133 87.119 49.6289 84.8632 50.8535 84.6268C51.7773 84.4335 52.5723 85.3358 53.1738 88.4725C53.3887 89.5897 51.6914 89.912 51.4766 88.7948C51.1113 86.9257 51.2617 86.2811 51.1758 86.3026C51.1113 86.3241 51.0039 86.7323 50.7461 87.1835C50.3809 87.8495 49.9727 88.58 49.4355 89.0097C48.6621 89.5897 47.8242 89.6327 46.9434 88.494C46.0195 87.2909 45.2891 86.6464 44.7949 86.41C44.8594 86.6464 45.0312 86.9686 45.3105 87.3554C46.5781 89.1171 47.416 91.2011 46.2344 92.4042C45.2031 93.4784 43.3769 92.9628 42.0449 92.0175C40.7344 91.0936 40.9707 89.955 36.9102 86.9472ZM22.0859 101.17V93.8866C22.0859 91.996 20.5605 90.4706 18.6699 90.4706H11.3652L22.0859 101.17Z" fill="#0048B4"/>
</svg>
