<svg width="406" height="1204" viewBox="0 0 406 1204" fill="none" xmlns="http://www.w3.org/2000/svg">
<path fill-rule="evenodd" clip-rule="evenodd" d="M248.625 124.312C248.625 171.616 222.203 212.749 183.313 233.759V333.561C222.203 354.571 248.625 395.704 248.625 443.008C248.625 490.312 222.203 531.445 183.313 552.454L183.313 651.257C222.203 672.266 248.625 713.399 248.625 760.703C248.625 808.007 222.203 849.14 183.313 870.149L183.313 969.952C222.203 990.961 248.625 1032.09 248.625 1079.4C248.625 1148.05 192.968 1203.71 124.312 1203.71C55.6565 1203.71 0 1148.05 0 1079.4C0 1032.09 26.4218 990.961 65.3125 969.952L65.3125 870.149C26.4218 849.14 0 808.007 0 760.703C0 713.399 26.4218 672.266 65.3125 651.256L65.3125 552.454C26.4218 531.445 0 490.312 0 443.008C0 395.703 26.4218 354.57 65.3125 333.561L65.3125 233.759C26.4218 212.75 0 171.617 0 124.312C0 55.6565 55.6565 0 124.312 0C192.968 0 248.625 55.6565 248.625 124.312Z" fill="url(#paint0_linear_2622_4082)"/>
<g filter="url(#filter0_d_2622_4082)">
<ellipse cx="124.889" cy="124" rx="104.5" ry="105" fill="white"/>
</g>
<g filter="url(#filter1_d_2622_4082)">
<circle cx="124.693" cy="442.5" r="104.5" fill="white"/>
</g>
<g filter="url(#filter2_d_2622_4082)">
<ellipse cx="124.307" cy="1078" rx="104.5" ry="105" fill="white"/>
</g>
<g filter="url(#filter3_d_2622_4082)">
<circle cx="124.5" cy="760.5" r="104.5" fill="white"/>
</g>
<path d="M395.053 124.615C395.053 127.561 397.441 129.949 400.387 129.949C403.332 129.949 405.72 127.561 405.72 124.615C405.72 121.67 403.332 119.282 400.387 119.282C397.441 119.282 395.053 121.67 395.053 124.615ZM240.387 125.615L400.387 125.615V123.615L240.387 123.615V125.615Z" fill="#0048B4"/>
<path d="M389.854 441.613C389.854 444.559 392.242 446.947 395.188 446.947C398.133 446.947 400.521 444.559 400.521 441.613C400.521 438.668 398.133 436.28 395.188 436.28C392.242 436.28 389.854 438.668 389.854 441.613ZM235.188 442.613L395.188 442.613V440.613L235.188 440.613V442.613Z" fill="#0048B4"/>
<path d="M389.661 767.613C389.661 770.559 392.049 772.947 394.994 772.947C397.94 772.947 400.327 770.559 400.327 767.613C400.327 764.668 397.94 762.28 394.994 762.28C392.049 762.28 389.661 764.668 389.661 767.613ZM234.994 768.613H394.994V766.613H234.994V768.613Z" fill="#0048B4"/>
<path d="M389.467 1093.61C389.467 1096.56 391.855 1098.95 394.801 1098.95C397.746 1098.95 400.134 1096.56 400.134 1093.61C400.134 1090.67 397.746 1088.28 394.801 1088.28C391.855 1088.28 389.467 1090.67 389.467 1093.61ZM234.801 1094.61H394.801V1092.61H234.801V1094.61Z" fill="#0048B4"/>
<path d="M187.096 1128.38V1135.29C187.096 1139.92 183.342 1143.67 178.712 1143.67H163.315C158.685 1143.67 154.932 1139.92 154.932 1135.29V1096.77C154.932 1092.14 158.685 1088.38 163.315 1088.38H178.712C183.342 1088.38 187.096 1092.14 187.096 1096.77V1119.28" stroke="#0048B4" stroke-width="2" stroke-miterlimit="10" stroke-linecap="round" stroke-linejoin="round"/>
<path d="M91.9434 1045.51C88.5652 1047.86 87.5465 1052.7 90.1084 1056.26C92.3382 1059.37 95.0776 1062.59 97.8185 1065.02C98.7036 1065.81 99.114 1067.01 98.859 1068.17C98.0681 1071.76 97.7429 1075.99 97.7611 1079.82C97.786 1084.97 102.845 1088.65 107.755 1087.08C111.405 1085.91 115.329 1084.3 118.499 1082.43C119.512 1081.84 120.765 1081.84 121.778 1082.43C124.947 1084.3 128.871 1085.91 132.521 1087.08C137.431 1088.65 142.491 1084.97 142.515 1079.82C142.534 1075.99 142.208 1071.76 141.417 1068.17C141.162 1067.01 141.573 1065.81 142.458 1065.02C145.199 1062.59 147.938 1059.36 150.168 1056.26C153.178 1052.08 151.246 1046.13 146.351 1044.52C142.718 1043.32 138.6 1042.32 134.945 1041.96C133.771 1041.85 132.741 1041.1 132.269 1040.02C130.799 1036.65 128.578 1033.04 126.314 1029.96C123.265 1025.8 117.011 1025.8 113.961 1029.96C111.698 1033.04 109.477 1036.65 108.007 1040.02C107.535 1041.1 106.505 1041.85 105.33 1041.96C103.792 1042.11 102.171 1042.38 100.54 1042.72" stroke="#0048B4" stroke-width="2" stroke-miterlimit="10" stroke-linecap="round" stroke-linejoin="round"/>
<path d="M80.5643 1074.32H71.2637C68.459 1074.32 66.1855 1072.05 66.1855 1069.25C66.1855 1066.44 68.459 1064.17 71.2637 1064.17H80.5643C83.3689 1064.17 85.6424 1066.44 85.6424 1069.25C85.6424 1072.05 83.3689 1074.32 80.5643 1074.32Z" stroke="#0048B4" stroke-width="2" stroke-miterlimit="10" stroke-linecap="round" stroke-linejoin="round"/>
<path d="M79.0339 1035.85L74.913 1031.73C72.93 1029.75 72.93 1026.53 74.913 1024.55C76.8963 1022.56 80.1118 1022.56 82.0948 1024.55L86.2157 1028.67C88.1987 1030.65 88.1987 1033.87 86.2157 1035.85C84.2327 1037.83 81.0167 1037.83 79.0339 1035.85Z" stroke="#0048B4" stroke-width="2" stroke-miterlimit="10" stroke-linecap="round" stroke-linejoin="round"/>
<path d="M169.014 1074.32H159.713C156.908 1074.32 154.635 1072.05 154.635 1069.25C154.635 1066.44 156.908 1064.17 159.713 1064.17H169.014C171.818 1064.17 174.092 1066.44 174.092 1069.25C174.092 1072.05 171.818 1074.32 169.014 1074.32Z" stroke="#0048B4" stroke-width="2" stroke-miterlimit="10" stroke-linecap="round" stroke-linejoin="round"/>
<path d="M154.061 1035.85C152.078 1033.87 152.078 1030.65 154.061 1028.67L158.182 1024.55C160.166 1022.56 163.381 1022.56 165.364 1024.55C167.347 1026.53 167.347 1029.75 165.364 1031.73L161.243 1035.85C159.26 1037.83 156.044 1037.83 154.061 1035.85Z" stroke="#0048B4" stroke-width="2" stroke-miterlimit="10" stroke-linecap="round" stroke-linejoin="round"/>
<path d="M154.932 1097.11C148.782 1097.74 140.863 1098.94 135.331 1100.34C134.525 1100.55 133.691 1100.63 132.861 1100.58C130.454 1100.44 128.102 1100.38 125.846 1100.38C119.174 1100.38 113.333 1100.92 109.349 1101.6C103.299 1102.62 99.2266 1108.36 100.253 1114.41C100.56 1116.22 101.29 1117.85 102.321 1119.22C97.9957 1116.89 92.8952 1114.53 87.9166 1112.37C83.4286 1110.42 79.0396 1108.64 75.4064 1107.2C71.2705 1105.55 66.555 1106.52 63.4086 1109.67C60.0735 1113.01 60.071 1118.41 63.3923 1121.75C68.2036 1126.6 73.6991 1131.55 79.3201 1135.75C87.9491 1142.21 96.8734 1146.94 104.07 1146.94C108.734 1146.94 116.03 1146.52 123.607 1145.18C130.631 1143.93 137.897 1141.88 143.531 1138.64C145.023 1137.78 146.714 1137.32 148.435 1137.36C150.86 1137.41 153.085 1137.31 155.129 1137.09" stroke="#0048B4" stroke-width="2" stroke-miterlimit="10" stroke-linecap="round" stroke-linejoin="round"/>
<path d="M138.055 1122.45C134.071 1123.12 128.231 1123.66 121.558 1123.66C117.939 1123.66 114.074 1123.5 110.129 1123.12C107.319 1122.85 104.097 1121.13 102.314 1119.21" stroke="#0048B4" stroke-width="2" stroke-miterlimit="10" stroke-linecap="round" stroke-linejoin="round"/>
<path d="M107.112 1102.22C104.525 1101.05 101.88 1099.9 99.3012 1098.83C95.5451 1097.25 91.9338 1095.82 88.8618 1094.62C84.7158 1093 80.0063 1094.01 76.88 1097.17C74.1858 1099.9 73.7031 1103.98 75.4132 1107.2" stroke="#0048B4" stroke-width="2" stroke-miterlimit="10" stroke-linecap="round" stroke-linejoin="round"/>
<mask id="mask0_2622_4082" style="mask-type:luminance" maskUnits="userSpaceOnUse" x="55" y="372" width="139" height="140">
<path d="M55 372H194V512H55V372Z" fill="white"/>
</mask>
<g mask="url(#mask0_2622_4082)">
<path d="M89.5177 444.082V449.833C90.9614 449.536 91.9787 448.677 91.9787 447.123C91.9787 445.504 90.9286 444.71 89.5177 444.082ZM87.8111 438.893V433.902C86.1705 434.167 85.1859 434.96 85.1859 436.216C85.1859 437.67 86.3017 438.298 87.8111 438.893ZM87.5486 453.799C83.5779 453.7 80.5918 451.552 80.5918 449.701C80.5918 448.776 81.4122 447.387 82.4295 447.387C83.6764 447.387 84.6608 449.536 87.5486 449.866V443.289C84.5625 442.165 81.1825 440.876 81.1825 436.646C81.1825 432.448 84.2672 430.63 87.5486 430.201V429.275C87.5486 428.845 88.0408 428.449 88.6644 428.449C89.2223 428.449 89.7802 428.845 89.7802 429.275V430.134C91.9132 430.201 95.3915 430.828 95.3915 432.746C95.3915 433.506 94.8664 435.026 93.6524 435.026C92.7334 435.026 91.9787 433.969 89.7802 433.803V439.62C92.7008 440.711 95.9822 442.198 95.9822 446.693C95.9822 450.759 93.4555 453.105 89.7802 453.7V454.725C89.7802 455.155 89.2223 455.551 88.6644 455.551C88.0408 455.551 87.5486 455.155 87.5486 454.725V453.799Z" fill="#0048B4"/>
<path d="M65.272 421.084C60.3095 426.62 57.2871 433.954 57.2871 442C57.2871 459.245 71.1665 473.224 88.2876 473.224C105.409 473.224 119.288 459.245 119.288 442C119.288 424.756 105.409 410.776 88.2876 410.776C82.0989 410.776 76.3345 412.604 71.4952 415.751" stroke="#0048B4" stroke-width="2" stroke-miterlimit="10" stroke-linecap="round" stroke-linejoin="round"/>
<path d="M88.2871 463.966C76.262 463.966 66.4785 454.112 66.4785 442C66.4785 429.888 76.262 420.035 88.2871 420.035C100.312 420.035 110.096 429.888 110.096 442C110.096 454.112 100.312 463.966 88.2871 463.966Z" stroke="#0048B4" stroke-width="2" stroke-miterlimit="10" stroke-linecap="round" stroke-linejoin="round"/>
<path d="M160.712 410.776C143.591 410.776 129.711 424.756 129.711 442C129.711 459.244 143.591 473.224 160.712 473.224C177.833 473.224 191.712 459.244 191.712 442C191.712 424.756 177.833 410.776 160.712 410.776Z" stroke="#0048B4" stroke-width="2" stroke-miterlimit="10" stroke-linecap="round" stroke-linejoin="round"/>
<path d="M179.44 453.242C181.395 449.951 182.522 446.106 182.522 442C182.522 429.888 172.738 420.034 160.713 420.034C148.688 420.034 138.904 429.888 138.904 442C138.904 454.112 148.688 463.965 160.713 463.965C165.772 463.965 170.431 462.217 174.135 459.294" stroke="#0048B4" stroke-width="2" stroke-miterlimit="10" stroke-linecap="round" stroke-linejoin="round"/>
<path d="M158.46 447.708C158.46 448.972 159.125 451.463 162.411 451.463C165.401 451.463 166.176 449.344 166.176 447.485C166.176 446.443 166.914 446.072 168.576 446.072C170.274 446.072 170.976 446.481 170.976 448.303C170.976 452.877 167.247 455.702 162.189 455.702C156.762 455.702 153.661 452.467 153.661 447.708V447.076H151.963C151.077 447.076 150.449 446.406 150.449 445.402C150.449 444.436 151.077 443.655 151.963 443.655H153.661V441.052H151.963C151.077 441.052 150.449 440.383 150.449 439.379C150.449 438.412 151.077 437.631 151.963 437.631H153.661V436.813C153.661 430.603 157.463 428.298 162.189 428.298C167.247 428.298 170.976 430.975 170.976 435.437C170.976 437.222 170.237 437.631 168.576 437.631C166.878 437.631 166.176 437.222 166.176 436.218C166.176 434.768 165.512 432.537 162.374 432.537C159.863 432.537 158.46 433.912 158.46 436.813V437.631H161.931C162.706 437.631 163.481 438.412 163.481 439.379C163.481 440.345 162.706 441.052 161.931 441.052H158.46V443.655H161.931C162.706 443.655 163.481 444.436 163.481 445.365C163.481 446.369 162.706 447.076 161.931 447.076H158.46V447.708Z" fill="#0048B4"/>
<path d="M148.764 377.47L143.821 382.449C143.821 382.449 113.787 359.413 95.55 389.647C94.6715 391.103 96.2043 392.814 97.7466 392.114C118.22 382.815 131.691 394.667 131.691 394.667L126.748 399.645C124.924 401.482 126.215 404.622 128.794 404.622H150.811C152.41 404.622 153.705 403.317 153.705 401.707V379.532C153.705 376.934 150.588 375.633 148.764 377.47Z" stroke="#0048B4" stroke-width="2" stroke-miterlimit="10" stroke-linecap="round" stroke-linejoin="round"/>
<path d="M100.236 506.53L105.179 501.551C105.179 501.551 135.213 524.587 153.45 494.353C154.329 492.897 152.796 491.186 151.254 491.887C130.78 501.185 117.31 489.333 117.31 489.333L122.253 484.355C124.076 482.518 122.785 479.378 120.206 479.378H98.1895C96.5907 479.378 95.2949 480.683 95.2949 482.294V504.468C95.2949 507.066 98.4126 508.367 100.236 506.53Z" stroke="#0048B4" stroke-width="2" stroke-miterlimit="10" stroke-linecap="round" stroke-linejoin="round"/>
</g>
<mask id="mask1_2622_4082" style="mask-type:luminance" maskUnits="userSpaceOnUse" x="58" y="690" width="132" height="152">
<path d="M58 690H190V842H58V690Z" fill="white"/>
</mask>
<g mask="url(#mask1_2622_4082)">
<path d="M163.329 773.117C159.987 773.117 157.277 769.997 157.277 766.149C157.277 762.3 159.987 759.18 163.329 759.18C166.671 759.18 169.381 762.3 169.381 766.149C169.381 769.997 166.671 773.117 163.329 773.117Z" stroke="#0048B4" stroke-width="2" stroke-miterlimit="10" stroke-linecap="round" stroke-linejoin="round"/>
<path d="M84.671 773.117C88.0131 773.117 90.7227 769.997 90.7227 766.149C90.7227 762.3 88.0131 759.18 84.671 759.18C81.3287 759.18 78.6191 762.3 78.6191 766.149C78.6191 769.997 81.3287 773.117 84.671 773.117Z" stroke="#0048B4" stroke-width="2" stroke-miterlimit="10" stroke-linecap="round" stroke-linejoin="round"/>
<path d="M172.433 738.078H75.5656C75.5656 742.067 72.7572 745.301 69.293 745.301V786.699C72.7572 786.699 75.5656 789.932 75.5656 793.922H172.433C172.433 789.933 175.241 786.699 178.705 786.699V745.301C175.241 745.301 172.433 742.067 172.433 738.078Z" stroke="#0048B4" stroke-width="2" stroke-miterlimit="10" stroke-linecap="round" stroke-linejoin="round"/>
<path d="M145.32 779.314C147.187 775.356 148.248 770.821 148.248 766C148.248 750.579 137.392 738.078 124 738.078C110.608 738.078 99.752 750.579 99.752 766C99.752 781.421 110.608 793.922 124 793.922C129.837 793.922 135.192 791.548 139.376 787.591" stroke="#0048B4" stroke-width="2" stroke-miterlimit="10" stroke-linecap="round" stroke-linejoin="round"/>
<path d="M136.389 774.269C136.389 767.386 131.527 761.786 125.549 761.786H122.452C120.51 761.786 118.93 759.967 118.93 757.731C118.93 755.496 120.51 753.677 122.452 753.677H125.549C126.968 753.677 128.242 754.649 128.795 756.154C129.582 758.298 131.73 759.301 133.591 758.394C135.453 757.488 136.323 755.015 135.536 752.871C134.115 749.003 131.145 746.277 127.66 745.485V742.292C127.66 739.964 126.022 738.078 124 738.078C121.979 738.078 120.341 739.964 120.341 742.292V745.486C115.37 746.62 111.611 751.68 111.611 757.731C111.611 764.614 116.474 770.214 122.452 770.214H125.549C127.491 770.214 129.07 772.033 129.07 774.269C129.07 776.504 127.491 778.323 125.549 778.323H122.452C120.989 778.323 119.7 777.309 119.169 775.741C118.434 773.572 116.313 772.5 114.429 773.346C112.547 774.191 111.615 776.634 112.349 778.803C113.723 782.859 116.742 785.71 120.341 786.518V789.708C120.341 792.035 121.979 793.922 124 793.922C126.022 793.922 127.66 792.035 127.66 789.708V786.514C132.631 785.38 136.389 780.32 136.389 774.269Z" stroke="#0048B4" stroke-width="2" stroke-miterlimit="10" stroke-linecap="round" stroke-linejoin="round"/>
<path d="M81.01 727.299L81.0093 738.078L59.9336 719.129L81.0093 700.181V710.97H155.635C163.467 710.97 169.816 718.281 169.816 727.299" stroke="#0048B4" stroke-width="2" stroke-miterlimit="10" stroke-linecap="round" stroke-linejoin="round"/>
<path d="M149.398 821.03H92.3643C84.5325 821.03 78.1836 813.719 78.1836 804.701" stroke="#0048B4" stroke-width="2" stroke-miterlimit="10" stroke-linecap="round" stroke-linejoin="round"/>
<path d="M166.99 804.701L166.991 793.922L188.066 812.871L166.991 831.819V821.03H158.422" stroke="#0048B4" stroke-width="2" stroke-miterlimit="10" stroke-linecap="round" stroke-linejoin="round"/>
<path d="M90.7218 727.299H81.0098" stroke="#0048B4" stroke-width="2" stroke-miterlimit="10" stroke-linecap="round" stroke-linejoin="round"/>
<path d="M178.98 804.7H186.647C187.431 804.7 188.067 803.969 188.067 803.066V728.934C188.067 728.031 187.431 727.299 186.647 727.299H99.7461" stroke="#0048B4" stroke-width="2" stroke-miterlimit="10" stroke-linecap="round" stroke-linejoin="round"/>
<path d="M69.0207 727.299H61.3531C60.5691 727.299 59.9336 728.031 59.9336 728.934V803.066C59.9336 803.969 60.5691 804.701 61.3531 804.701H166.99" stroke="#0048B4" stroke-width="2" stroke-miterlimit="10" stroke-linecap="round" stroke-linejoin="round"/>
</g>
<mask id="mask2_2622_4082" style="mask-type:luminance" maskUnits="userSpaceOnUse" x="43" y="42" width="163" height="163">
<path d="M43 42H206V205H43V42Z" fill="white"/>
</mask>
<g mask="url(#mask2_2622_4082)">
<path d="M67.1953 120.316C68.9527 120.316 70.3789 121.743 70.3789 123.5C70.3789 125.257 68.9527 126.684 67.1953 126.684C65.438 126.684 64.0117 125.257 64.0117 123.5C64.0117 121.743 65.438 120.316 67.1953 120.316Z" fill="#0048B4"/>
<path d="M68.6016 110.842C74.3798 85.316 97.2507 66.1953 124.499 66.1953C156.096 66.1953 181.804 91.9028 181.804 123.5C181.804 155.097 156.096 180.805 124.499 180.805C97.2507 180.805 74.3798 161.684 68.6016 136.158" stroke="#0048B4" stroke-width="2" stroke-miterlimit="10" stroke-linecap="round" stroke-linejoin="round"/>
<path d="M124.5 201.816C82.3715 201.816 46.1836 165.628 46.1836 123.5C46.1836 81.3715 82.3715 45.1836 124.5 45.1836C166.628 45.1836 202.816 81.3715 202.816 123.5C202.816 165.628 166.628 201.816 124.5 201.816Z" stroke="#0048B4" stroke-width="2" stroke-miterlimit="10" stroke-linecap="round" stroke-linejoin="round"/>
<path d="M130.867 123.5C137.9 123.5 143.602 117.798 143.602 110.766C143.602 107.251 142.175 104.067 139.87 101.762C137.565 99.4575 134.382 98.0313 130.867 98.0313H111.766V148.969H130.867C137.9 148.969 143.602 143.267 143.602 136.234C143.602 132.72 142.175 129.536 139.87 127.231C137.565 124.926 134.382 123.5 130.867 123.5Z" stroke="#0048B4" stroke-width="2" stroke-miterlimit="10" stroke-linecap="round" stroke-linejoin="round"/>
<path d="M130.867 123.5H111.766" stroke="#0048B4" stroke-width="2" stroke-miterlimit="10" stroke-linecap="round" stroke-linejoin="round"/>
<path d="M111.766 158.52V148.969" stroke="#0048B4" stroke-width="2" stroke-miterlimit="10" stroke-linecap="round" stroke-linejoin="round"/>
<path d="M130.867 158.52V148.969" stroke="#0048B4" stroke-width="2" stroke-miterlimit="10" stroke-linecap="round" stroke-linejoin="round"/>
<path d="M111.766 88.4805V98.0312" stroke="#0048B4" stroke-width="2" stroke-miterlimit="10" stroke-linecap="round" stroke-linejoin="round"/>
<path d="M130.867 88.4805V98.0312" stroke="#0048B4" stroke-width="2" stroke-miterlimit="10" stroke-linecap="round" stroke-linejoin="round"/>
<path d="M105.398 98.0312H111.766" stroke="#0048B4" stroke-width="2" stroke-miterlimit="10" stroke-linecap="round" stroke-linejoin="round"/>
<path d="M105.398 148.969H111.766" stroke="#0048B4" stroke-width="2" stroke-miterlimit="10" stroke-linecap="round" stroke-linejoin="round"/>
</g>
<defs>
<filter id="filter0_d_2622_4082" x="16.3887" y="19" width="217" height="218" filterUnits="userSpaceOnUse" color-interpolation-filters="sRGB">
<feFlood flood-opacity="0" result="BackgroundImageFix"/>
<feColorMatrix in="SourceAlpha" type="matrix" values="0 0 0 0 0 0 0 0 0 0 0 0 0 0 0 0 0 0 127 0" result="hardAlpha"/>
<feOffset dy="4"/>
<feGaussianBlur stdDeviation="2"/>
<feComposite in2="hardAlpha" operator="out"/>
<feColorMatrix type="matrix" values="0 0 0 0 0 0 0 0 0 0 0 0 0 0 0 0 0 0 0.25 0"/>
<feBlend mode="normal" in2="BackgroundImageFix" result="effect1_dropShadow_2622_4082"/>
<feBlend mode="normal" in="SourceGraphic" in2="effect1_dropShadow_2622_4082" result="shape"/>
</filter>
<filter id="filter1_d_2622_4082" x="16.1934" y="338" width="217" height="217" filterUnits="userSpaceOnUse" color-interpolation-filters="sRGB">
<feFlood flood-opacity="0" result="BackgroundImageFix"/>
<feColorMatrix in="SourceAlpha" type="matrix" values="0 0 0 0 0 0 0 0 0 0 0 0 0 0 0 0 0 0 127 0" result="hardAlpha"/>
<feOffset dy="4"/>
<feGaussianBlur stdDeviation="2"/>
<feComposite in2="hardAlpha" operator="out"/>
<feColorMatrix type="matrix" values="0 0 0 0 0 0 0 0 0 0 0 0 0 0 0 0 0 0 0.25 0"/>
<feBlend mode="normal" in2="BackgroundImageFix" result="effect1_dropShadow_2622_4082"/>
<feBlend mode="normal" in="SourceGraphic" in2="effect1_dropShadow_2622_4082" result="shape"/>
</filter>
<filter id="filter2_d_2622_4082" x="15.8066" y="973" width="217" height="218" filterUnits="userSpaceOnUse" color-interpolation-filters="sRGB">
<feFlood flood-opacity="0" result="BackgroundImageFix"/>
<feColorMatrix in="SourceAlpha" type="matrix" values="0 0 0 0 0 0 0 0 0 0 0 0 0 0 0 0 0 0 127 0" result="hardAlpha"/>
<feOffset dy="4"/>
<feGaussianBlur stdDeviation="2"/>
<feComposite in2="hardAlpha" operator="out"/>
<feColorMatrix type="matrix" values="0 0 0 0 0 0 0 0 0 0 0 0 0 0 0 0 0 0 0.25 0"/>
<feBlend mode="normal" in2="BackgroundImageFix" result="effect1_dropShadow_2622_4082"/>
<feBlend mode="normal" in="SourceGraphic" in2="effect1_dropShadow_2622_4082" result="shape"/>
</filter>
<filter id="filter3_d_2622_4082" x="16" y="656" width="217" height="217" filterUnits="userSpaceOnUse" color-interpolation-filters="sRGB">
<feFlood flood-opacity="0" result="BackgroundImageFix"/>
<feColorMatrix in="SourceAlpha" type="matrix" values="0 0 0 0 0 0 0 0 0 0 0 0 0 0 0 0 0 0 127 0" result="hardAlpha"/>
<feOffset dy="4"/>
<feGaussianBlur stdDeviation="2"/>
<feComposite in2="hardAlpha" operator="out"/>
<feColorMatrix type="matrix" values="0 0 0 0 0 0 0 0 0 0 0 0 0 0 0 0 0 0 0.25 0"/>
<feBlend mode="normal" in2="BackgroundImageFix" result="effect1_dropShadow_2622_4082"/>
<feBlend mode="normal" in="SourceGraphic" in2="effect1_dropShadow_2622_4082" result="shape"/>
</filter>
<linearGradient id="paint0_linear_2622_4082" x1="124.312" y1="-39.8892" x2="124.312" y2="1568.05" gradientUnits="userSpaceOnUse">
<stop offset="0.102231" stop-color="#0048B4"/>
<stop offset="0.483741" stop-color="#0048B4"/>
<stop offset="0.757613" stop-color="#0048B4"/>
</linearGradient>
</defs>
</svg>
