<svg width="514" height="346" viewBox="0 0 514 346" fill="none" xmlns="http://www.w3.org/2000/svg">
<g clip-path="url(#clip0_3200_3885)">
<rect width="514" height="346" rx="40" fill="#DDEAFF"/>
<g opacity="0.2">
<path d="M544 -5.99817H-30V352H544V-5.99817Z" fill="#DDEAFF"/>
<path d="M-29.5 351.5V-5.49817H543.5V351.5H-29.5Z" stroke="white" stroke-opacity="0.1"/>
<mask id="mask0_3200_3885" style="mask-type:luminance" maskUnits="userSpaceOnUse" x="-30" y="-6" width="574" height="358">
<path d="M544 -6H-30V351.998H544V-6Z" fill="white"/>
<path d="M-29.5 351.498V-5.5H543.5V351.498H-29.5Z" stroke="white"/>
</mask>
<g mask="url(#mask0_3200_3885)">
<path d="M415.483 264.933C419.656 248.819 422.265 232.286 427.384 216.451C432.502 200.615 440.456 185.17 453.258 174.615C461.688 167.665 473.357 160.018 471.136 149.284C468.735 137.68 452.807 136.019 444.274 127.846C431.279 115.398 438.897 92.0776 429.207 76.8836C422.451 66.291 409.242 62.4461 398.222 56.4884C374.092 43.4448 358.061 16.4762 358.056 -11.0813C434.569 -12.6762 511.082 -14.2717 587.595 -15.8666C599.558 -16.116 613.582 -15.3624 620.35 -5.43509C623.889 -0.242924 624.517 6.34841 625.037 12.6223C630.196 74.8776 635.35 137.628 628.157 199.678C621.915 253.515 606.402 307.157 612.499 361.01C612.499 360.666 486.398 358.845 474.888 358.648C451.683 358.249 428.477 357.851 405.272 357.452C398.784 357.341 381.674 360.445 378.015 353.519C374.435 346.744 385.528 335.341 388.709 329.886C400.538 309.607 409.591 287.688 415.483 264.933Z" fill="white"/>
<path d="M615.206 280.266C611.337 306.952 608.982 333.675 611.935 360.462C611.713 360.452 611.432 360.441 611.097 360.429C610.168 360.397 608.806 360.359 607.07 360.318C603.598 360.235 598.626 360.134 592.625 360.023C580.623 359.801 564.5 359.535 548.018 359.274C528.635 358.966 508.757 358.665 494.497 358.449C484.502 358.298 477.268 358.188 474.896 358.148C462.986 357.943 451.076 357.739 439.166 357.534C427.871 357.34 416.576 357.147 405.281 356.953C403.859 356.928 401.941 357.055 399.8 357.197C399.458 357.22 399.11 357.243 398.758 357.266C396.185 357.433 393.342 357.593 390.592 357.541C387.837 357.49 385.207 357.226 383.052 356.562C380.895 355.897 379.284 354.852 378.457 353.286C377.644 351.747 377.643 349.909 378.21 347.869C378.778 345.829 379.9 343.645 381.251 341.472C382.601 339.301 384.163 337.167 385.595 335.224L385.803 334.942C387.145 333.122 388.368 331.463 389.141 330.138C400.993 309.819 410.063 287.858 415.967 265.058C417.57 258.87 418.943 252.618 420.313 246.377C420.729 244.482 421.145 242.587 421.567 240.696C423.38 232.572 425.308 224.499 427.86 216.605C432.964 200.813 440.878 185.47 453.576 175.001L453.258 174.615L453.576 175.001C454.553 174.196 455.579 173.377 456.626 172.541C460.057 169.803 463.708 166.89 466.563 163.702C470.302 159.529 472.783 154.777 471.626 149.183C470.376 143.142 465.602 139.732 460.242 136.839C458.944 136.138 457.601 135.462 456.259 134.787L456.115 134.715C454.722 134.014 453.33 133.312 451.973 132.573C449.257 131.095 446.706 129.483 444.62 127.485C438.272 121.404 436.932 112.648 435.999 103.345C435.915 102.509 435.834 101.668 435.754 100.825C434.943 92.3591 434.107 83.6372 429.629 76.6147C426.185 71.2153 421.109 67.5562 415.554 64.5095C412.776 62.986 409.867 61.6096 406.976 60.2467L406.742 60.1366C403.924 58.8087 401.127 57.4903 398.46 56.0486C374.635 43.17 358.752 16.6127 358.557 -10.5917C396.273 -11.3778 433.988 -12.1641 471.703 -12.9504C510.337 -13.7559 548.972 -14.5614 587.606 -15.3667C593.581 -15.4912 600.023 -15.3631 605.804 -13.9808C611.58 -12.5997 616.647 -9.97874 619.936 -5.15343C623.389 -0.0877829 624.017 6.36669 624.539 12.6636C629.698 74.9272 634.847 137.628 627.66 199.62C625.784 215.8 623.075 231.938 620.364 248.085C618.564 258.804 616.764 269.526 615.206 280.266Z" stroke="white" stroke-opacity="0.1"/>
</g>
<mask id="mask1_3200_3885" style="mask-type:luminance" maskUnits="userSpaceOnUse" x="-30" y="-6" width="574" height="358">
<path d="M544 -6H-30V351.998H544V-6Z" fill="white"/>
<path d="M-29.5 351.498V-5.5H543.5V351.498H-29.5Z" stroke="white"/>
</mask>
<g mask="url(#mask1_3200_3885)">
<path d="M20.8122 344.341C33.97 309.928 23.789 267.792 44.4897 237.364C50.7148 228.215 59.2685 220.981 67.1449 213.225C82.6395 197.967 95.7187 180.445 108.732 162.999C120.906 146.678 133.494 129.37 136.119 109.136C138.173 93.2965 133.859 77.3996 129.585 62.0152C120.773 30.293 111.96 -1.42978 103.147 -33.152C41.0125 -32.7266 -21.1219 -32.3011 -83.2568 -31.8751C-82.8011 77.4187 -79.9179 186.307 -79.4621 295.601C-79.364 319.146 -79.1745 343.235 -71.2166 365.377C-39.6564 365.843 -8.55532 355.978 20.8122 344.341Z" fill="white"/>
<path d="M44.0763 237.083C33.6465 252.414 31.0116 270.673 29.3244 289.313C29.0859 291.949 28.8662 294.592 28.6465 297.236C27.3151 313.255 25.9813 329.305 20.4234 343.958C-8.7624 355.511 -39.5965 365.268 -70.8627 364.882C-78.672 342.923 -78.8644 319.043 -78.9621 295.599C-79.19 240.949 -80.0248 186.401 -80.8595 131.857L-80.8595 131.855C-81.6917 77.4752 -82.5239 23.0983 -82.7547 -31.3785C-20.9136 -31.8025 40.927 -32.226 102.768 -32.6494C111.547 -1.05009 120.325 30.5498 129.103 62.149C133.382 77.5501 137.662 93.349 135.623 109.071C133.017 129.155 120.518 146.361 108.331 162.7C95.3141 180.151 82.257 197.642 66.7941 212.868C65.0737 214.562 63.3158 216.236 61.5535 217.914C55.2861 223.88 48.9638 229.899 44.0763 237.083Z" stroke="white" stroke-opacity="0.1"/>
</g>
<mask id="mask2_3200_3885" style="mask-type:luminance" maskUnits="userSpaceOnUse" x="-30" y="-6" width="574" height="358">
<path d="M544 -6H-30V351.998H544V-6Z" fill="white"/>
<path d="M-29.5 351.498V-5.5H543.5V351.498H-29.5Z" stroke="white"/>
</mask>
<g mask="url(#mask2_3200_3885)">
<path d="M114.699 -6.06056C117.022 8.00041 119.344 22.0614 121.666 36.1223C125.154 57.243 129.112 78.3452 132.138 99.5369C134.326 114.856 126.504 128.856 118.052 141.484C101.43 166.316 75.9683 183.161 57.703 206.573C33.1484 238.047 22.2556 272.753 21.8464 312.434C21.5846 337.789 22.817 432.035 -26.5958 407.206C-38.1458 401.403 -35.1455 385.12 -35.4463 374.273C-36.4485 338.09 -37.2194 301.9 -37.7584 265.706C-38.8369 193.319 -38.989 120.918 -38.2153 48.5276C-38.0218 30.4296 -37.7704 12.3328 -37.461 -5.76342C-35.9038 -4.00983 -22.5439 -5.81712 -20.3461 -5.83025C-6.40762 -5.9108 7.53082 -5.99731 21.4693 -6.06832C52.5456 -6.22524 83.6226 -5.92034 114.699 -6.06056Z" fill="#0048B4"/>
<path d="M121.014 35.2428C118.768 21.6423 116.522 8.04181 114.276 -5.55867C99.1636 -5.49246 84.0519 -5.5305 68.9423 -5.56854L68.0829 -5.5707C52.5443 -5.60979 37.0078 -5.64677 21.4718 -5.56832C11.4054 -5.51704 1.33904 -5.45767 -8.72753 -5.3983C-12.5993 -5.37547 -16.4712 -5.35263 -20.3431 -5.33026L121.014 35.2428ZM121.014 35.2428L121.172 36.2038C122.335 43.2467 123.55 50.2838 124.765 57.3206C127.196 71.4014 129.626 85.4816 131.643 99.6076C133.801 114.72 126.091 128.575 117.636 141.205C109.359 153.571 98.8747 163.957 88.1483 174.199C87.0747 175.224 85.9985 176.248 84.9219 177.272C75.2543 186.47 65.5514 195.7 57.3088 206.265C32.6803 237.834 21.7567 272.649 21.3464 312.428C21.3366 313.377 21.3289 314.421 21.3205 315.551C21.217 329.549 21.0162 356.72 15.5718 378.518C12.6271 390.308 8.17199 400.421 1.46103 406.055C-1.88168 408.862 -5.78628 410.559 -10.3648 410.803C-14.9508 411.048 -20.2489 409.836 -26.3713 406.76C-31.9247 403.969 -34.0197 398.656 -34.743 392.572C-35.1044 389.531 -35.1192 386.326 -35.0608 383.188C-35.0449 382.333 -35.0235 381.482 -35.0023 380.641C-34.9461 378.406 -34.8915 376.24 -34.9465 374.26C-35.9486 338.078 -36.7195 301.89 -37.2584 265.699C-38.3369 193.316 -38.489 120.919 -37.7153 48.5329C-37.5249 30.7163 -37.2782 12.9009 -36.9754 -4.91393M121.014 35.2428L-36.9754 -4.91393M-36.9754 -4.91393C-36.816 -4.85881 -36.6487 -4.81335 -36.4799 -4.77482C-35.921 -4.64725 -35.2304 -4.57202 -34.4644 -4.53287C-32.93 -4.45445 -31.0229 -4.51781 -29.1131 -4.63526C-27.2002 -4.75289 -25.2689 -4.92587 -23.6833 -5.06971L-23.5087 -5.08556C-21.9926 -5.22317 -20.846 -5.32724 -20.3432 -5.33026L-36.9754 -4.91393Z" stroke="white" stroke-opacity="0.1"/>
</g>
<mask id="mask3_3200_3885" style="mask-type:luminance" maskUnits="userSpaceOnUse" x="-30" y="-6" width="574" height="358">
<path d="M544 -6H-30V351.998H544V-6Z" fill="white"/>
<path d="M-29.5 351.498V-5.5H543.5V351.498H-29.5Z" stroke="white"/>
</mask>
<g mask="url(#mask3_3200_3885)">
<path d="M427.999 236.584C431.372 219.269 438.905 202.277 451.907 190.989C457.162 186.427 463.195 182.88 468.197 178.018C473.199 173.156 477.221 166.447 476.706 159.327C476.079 150.68 469.144 144.098 462.223 139.318C455.301 134.538 447.54 130.218 443.419 122.691C436.669 110.362 441.943 93.5371 434.706 81.5131C428.915 71.8907 417.262 68.6849 407.463 63.7558C378.821 49.3482 362.087 12.9386 369.225 -19.4441C450.047 -19.095 530.869 -18.746 611.69 -18.3975C612.276 106.164 612.862 230.725 613.449 355.286C536.793 357.11 460.138 358.934 383.483 360.757C395.135 340.321 406.792 319.887 418.44 299.448C420.517 295.802 424.166 291.524 425.252 287.454C426.493 282.806 425.158 276.1 425.173 271.272C425.208 259.655 425.776 247.992 427.999 236.584Z" fill="#0048B4"/>
<path d="M428.49 236.679C431.85 219.43 439.346 202.557 452.235 191.366C454.497 189.403 456.904 187.629 459.329 185.842C459.7 185.568 460.072 185.293 460.444 185.018C463.236 182.953 466.019 180.833 468.546 178.377C473.599 173.465 477.735 166.62 477.204 159.291C476.56 150.395 469.441 143.695 462.507 138.906C461.432 138.164 460.344 137.437 459.256 136.711C456.811 135.078 454.367 133.445 452.08 131.642C448.788 129.046 445.874 126.133 443.858 122.451C440.605 116.51 440.19 109.49 439.767 102.343L439.744 101.958C439.316 94.7299 438.827 87.39 435.134 81.2553C432.173 76.3343 427.723 73.0743 422.825 70.4343C420.376 69.1144 417.805 67.9443 415.244 66.8002C414.938 66.6636 414.632 66.5274 414.327 66.3914C412.071 65.3857 409.835 64.3889 407.688 63.3092C379.376 49.0676 362.758 13.1288 369.628 -18.9423C450.149 -18.5946 530.671 -18.2468 611.193 -17.8997L612.946 354.798C574.329 355.717 535.712 356.635 497.096 357.554C459.516 358.448 421.935 359.342 384.355 360.236C388.203 353.488 392.051 346.74 395.9 339.992C403.559 326.561 411.219 313.129 418.875 299.696L418.44 299.448L418.875 299.695C419.534 298.538 420.345 297.33 421.191 296.068C421.669 295.356 422.158 294.627 422.638 293.881C423.949 291.841 425.171 289.698 425.735 287.583C426.379 285.174 426.349 282.264 426.171 279.4C426.111 278.418 426.033 277.444 425.957 276.492C425.809 274.632 425.668 272.858 425.673 271.274C425.708 259.669 426.275 248.043 428.49 236.679Z" stroke="white" stroke-opacity="0.1"/>
</g>
<mask id="mask4_3200_3885" style="mask-type:luminance" maskUnits="userSpaceOnUse" x="-30" y="-6" width="574" height="358">
<path d="M544 -6H-30V351.998H544V-6Z" fill="white"/>
<path d="M-29.5 351.498V-5.5H543.5V351.498H-29.5Z" stroke="white"/>
</mask>
<g mask="url(#mask4_3200_3885)">
<path d="M195.274 67.7213C180.669 66.5739 158.415 56.2266 146.849 43.6925C139.316 35.529 141.005 35.4633 136.341 24.9531C124.451 -1.8532 131.163 -8.16111 145.414 -18.5084C163.448 -31.6028 177.86 -48.8923 197.997 -58.8626C213.778 -66.6765 231.784 -70.8895 250.478 -69.0381C259.196 -68.1747 268.063 -65.9921 276.925 -62.2409C291.914 -55.896 307.127 -45.1053 321.692 -45.2002C330.26 -45.2563 337.987 -49.1596 346.809 -47.4932C385.866 -40.113 286.652 74.8986 195.274 67.7213Z" fill="#C8CDF5"/>
<path d="M195.313 67.2229C188.093 66.6557 178.941 63.8074 170.141 59.5273C161.342 55.248 152.945 49.561 147.216 43.3534C143.461 39.2842 142.041 37.2716 140.972 34.9905C140.493 33.9705 140.084 32.894 139.568 31.5384C139.5 31.3602 139.43 31.1772 139.358 30.9888C138.742 29.3731 137.969 27.3892 136.798 24.7504C130.861 11.3649 129.637 3.23579 131.551 -2.79862C133.467 -8.83844 138.559 -12.9132 145.708 -18.1039C152.473 -23.0159 158.736 -28.5219 164.96 -33.9943C167.053 -35.834 169.141 -37.6698 171.243 -39.478C179.61 -46.677 188.209 -53.4581 198.219 -58.4145C213.929 -66.1935 231.841 -70.3813 250.428 -68.5405C259.097 -67.6821 267.915 -65.5119 276.73 -61.7804C280.46 -60.2014 284.208 -58.3441 287.969 -56.442C288.584 -56.131 289.199 -55.8188 289.815 -55.5064C292.96 -53.9105 296.113 -52.3106 299.257 -50.8521C306.768 -47.3667 314.297 -44.652 321.695 -44.7002C325.256 -44.7235 328.681 -45.4033 332.043 -46.0708C332.781 -46.2172 333.515 -46.3631 334.248 -46.5013C338.341 -47.2735 342.402 -47.8169 346.716 -47.0018C349.091 -46.5532 350.901 -45.7031 352.215 -44.5311C353.525 -43.3622 354.368 -41.8486 354.771 -40.0215C355.583 -36.3418 354.606 -31.3931 352.003 -25.5722C346.805 -13.9512 335.263 0.839005 319.617 15.2048C288.317 43.9428 240.801 70.7957 195.313 67.2229Z" stroke="white" stroke-opacity="0.1"/>
</g>
<mask id="mask5_3200_3885" style="mask-type:luminance" maskUnits="userSpaceOnUse" x="-30" y="-6" width="574" height="358">
<path d="M544 -6H-30V351.998H544V-6Z" fill="white"/>
<path d="M-29.5 351.498V-5.5H543.5V351.498H-29.5Z" stroke="white"/>
</mask>
<g mask="url(#mask5_3200_3885)">
<path d="M409.788 -10.0408C407.483 -10.033 406.369 -1.83904 406.329 -0.615877C406.222 2.71231 407.127 6.01007 407.979 9.25293C411.617 23.1051 421 36.36 435.824 44.9072C445.541 50.5092 456.618 54.094 463.421 62.2187C469.55 69.5392 472.304 78.328 473.797 86.8729C477.063 105.572 476.77 131.932 502.811 141.327C519.42 147.32 538.861 141.808 557.175 142.371C568.877 142.731 580.326 145.625 592.035 145.478C603.744 145.332 616.771 140.872 619.811 132.129V-10.0408C619.811 -10.0408 409.83 -10.0408 409.788 -10.0408Z" fill="#99CCF6"/>
<path d="M619.311 -9.54077H619.281H619.209H619.132H619.051H618.965H618.875H618.78H618.681H618.578H618.47H618.358H618.242H618.121H617.996H617.866H617.733H617.595H617.453H617.307H617.156H617.001H616.843H616.68H616.513H616.342H616.166H615.987H615.804H615.617H615.425H615.23H615.031H614.828H614.62H614.409H614.195H613.976H613.753H613.527H613.296H613.062H612.825H612.583H612.338H612.089H611.836H611.579H611.319H611.056H610.788H610.517H610.243H609.965H609.683H609.398H609.109H608.817H608.521H608.222H607.92H607.614H607.304H606.992H606.676H606.356H606.033H605.707H605.378H605.045H604.71H604.37H604.028H603.683H603.334H602.982H602.627H602.269H601.908H601.544H601.176H600.806H600.433H600.056H599.677H599.295H598.909H598.521H598.13H597.736H597.339H596.939H596.537H596.131H595.723H595.312H594.898H594.482H594.063H593.641H593.216H592.789H592.359H591.927H591.492H591.054H590.614H590.171H589.725H589.277H588.827H588.374H587.919H587.461H587.001H586.538H586.073H585.606H585.136H584.664H584.19H583.713H583.234H582.753H582.27H581.784H581.296H580.806H580.314H579.82H579.324H578.825H578.325H577.822H577.317H576.811H576.302H575.791H575.278H574.764H574.247H573.729H573.208H572.686H572.162H571.636H571.108H570.579H570.047H569.514H568.979H568.443H567.904H567.364H566.823H566.279H565.734H565.188H564.639H564.09H563.538H562.986H562.431H561.875H561.318H560.759H560.199H559.637H559.074H558.509H557.944H557.376H556.808H556.238H555.667H555.094H554.521H553.946H553.37H552.792H552.214H551.634H551.053H550.471H549.888H549.304H548.719H548.132H547.545H546.957H546.367H545.777H545.186H544.593H544H543.406H542.811H542.216H541.619H541.021H540.423H539.824H539.224H538.624H538.022H537.42H536.818H536.214H535.61H535.006H534.4H533.794H533.188H532.581H531.973H531.365H530.756H530.147H529.538H528.928H528.317H527.706H527.095H526.483H525.871H525.259H524.646H524.033H523.42H522.807H522.193H521.579H520.965H520.35H519.736H519.121H518.506H517.891H517.276H516.661H516.046H515.431H514.815H514.2H513.585H512.97H512.355H511.74H511.125H510.51H509.895H509.28H508.666H508.052H507.438H506.824H506.211H505.597H504.984H504.372H503.759H503.147H502.535H501.924H501.313H500.703H500.093H499.483H498.874H498.265H497.657H497.05H496.442H495.836H495.23H494.625H494.02H493.416H492.812H492.21H491.608H491.006H490.406H489.806H489.207H488.608H488.011H487.414H486.818H486.223H485.629H485.036H484.444H483.853H483.262H482.673H482.084H481.497H480.911H480.325H479.741H479.158H478.576H477.995H477.415H476.837H476.259H475.683H475.108H474.534H473.962H473.39H472.82H472.252H471.685H471.119H470.554H469.991H469.429H468.869H468.31H467.752H467.196H466.642H466.089H465.538H464.988H464.44H463.893H463.348H462.804H462.263H461.723H461.184H460.647H460.112H459.579H459.048H458.518H457.99H457.464H456.94H456.418H455.897H455.378H454.862H454.347H453.834H453.323H452.815H452.308H451.803H451.3H450.8H450.301H449.804H449.31H448.818H448.328H447.84H447.354H446.871H446.389H445.91H445.434H444.959H444.487H444.017H443.55H443.085H442.622H442.162H441.704H441.248H440.795H440.345H439.897H439.451H439.008H438.568H438.13H437.695H437.262H436.832H436.405H435.98H435.558H435.139H434.722H434.308H433.897H433.489H433.083H432.68H432.28H431.883H431.489H431.098H430.71H430.324H429.942H429.562H429.186H428.812H428.442H428.074H427.71H427.348H426.99H426.635H426.283H425.934H425.589H425.246H424.907H424.571H424.238H423.908H423.582H423.259H422.94H422.623H422.311H422.001H421.695H421.392H421.093H420.797H420.505H420.216H419.93H419.649H419.37H419.096H418.824H418.557H418.293H418.033H417.776H417.523H417.274H417.029H416.787H416.549H416.314H416.084H415.857H415.635H415.416H415.2H414.989H414.782H414.579H414.379H414.184H413.992H413.805H413.621H413.442H413.266H413.095H412.928H412.765H412.606H412.451H412.3H412.154H412.011H411.873H411.739H411.61H411.484H411.363H411.247H411.134H411.026H410.923H410.824H410.729H410.638H410.553H410.471H410.394H410.322H410.254H410.19H410.131H410.077H410.027H409.982H409.942H409.906H409.875H409.849H409.827H409.81H409.798H409.791H409.789C409.66 -9.54014 409.504 -9.48472 409.314 -9.31293C409.121 -9.1378 408.92 -8.86558 408.72 -8.49778C408.319 -7.76276 407.975 -6.74578 407.693 -5.65849C407.129 -3.48467 406.847 -1.16778 406.829 -0.599846L619.311 -9.54077ZM619.311 -9.54077V132.043C617.835 136.189 613.981 139.383 608.974 141.569C603.945 143.764 597.829 144.906 592.029 144.978C586.213 145.051 580.456 144.369 574.666 143.619C574.144 143.551 573.622 143.483 573.1 143.415C567.836 142.728 562.54 142.036 557.19 141.871L557.175 142.371L557.19 141.871C550.811 141.675 544.278 142.214 537.808 142.748C534.962 142.982 532.127 143.216 529.323 143.386C520.112 143.944 511.185 143.817 502.981 140.857C490.133 136.222 483.787 127.418 480.235 117.421C477.66 110.178 476.564 102.358 475.535 95.0258C475.137 92.1855 474.749 89.4185 474.289 86.7868C472.79 78.2015 470.014 69.3141 463.804 61.8978C460.342 57.7626 455.806 54.7991 450.953 52.177C448.894 51.0642 446.768 50.0082 444.639 48.9509C444.26 48.7625 443.881 48.5741 443.502 48.3854C440.991 47.1349 438.489 45.8663 436.074 44.474C421.366 35.9941 412.067 22.8501 408.462 9.12593L408.462 9.12591C408.434 9.01692 408.405 8.90797 408.376 8.79907C407.548 5.64876 406.728 2.53316 406.829 -0.599695L619.311 -9.54077Z" stroke="white" stroke-opacity="0.1"/>
</g>
<mask id="mask6_3200_3885" style="mask-type:luminance" maskUnits="userSpaceOnUse" x="-30" y="-6" width="574" height="358">
<path d="M544 -6H-30V351.998H544V-6Z" fill="white"/>
<path d="M-29.5 351.498V-5.5H543.5V351.498H-29.5Z" stroke="white"/>
</mask>
<g mask="url(#mask6_3200_3885)">
<path d="M90.8711 -10.9746C71.4509 11.0011 80.4466 36.839 89.5342 61.162C99.1487 86.8943 100.724 114.38 86.0242 138.632C66.7573 170.419 29.821 185.648 8.79594 216.161C-6.42023 238.244 -15.2392 265.135 -11.0231 292.117C-6.98791 317.941 -3.72701 335.291 -13.198 360.45C-19.3341 376.75 -26.4838 392.663 -34.5921 408.066H-73.4238V-10.9746H90.8711Z" fill="#032D6B"/>
<path d="M-34.8941 407.566H-72.9238V-10.4746H89.7769C80.5518 0.403936 78.0719 12.2043 79.0138 24.2524C79.9775 36.5804 84.5256 49.185 89.0658 61.337C98.6478 86.9821 100.19 114.296 85.5966 138.373C76.0142 154.182 62.0306 165.887 47.7541 177.486C47.0965 178.021 46.4383 178.555 45.7799 179.089C32.1647 190.136 18.4584 201.257 8.38422 215.878C-6.88409 238.036 -15.7579 265.054 -11.5171 292.194C-11.3636 293.176 -11.2113 294.146 -11.0608 295.104C-7.25275 319.349 -4.60532 336.205 -13.666 360.274C-19.7592 376.46 -26.8533 392.265 -34.8941 407.566Z" stroke="white" stroke-opacity="0.1"/>
</g>
</g>
</g>
<defs>
<clipPath id="clip0_3200_3885">
<rect width="514" height="346" rx="40" fill="white"/>
</clipPath>
</defs>
</svg>
