<svg width="1540" height="407" viewBox="0 0 1540 407" fill="none" xmlns="http://www.w3.org/2000/svg">
<path fill-rule="evenodd" clip-rule="evenodd" d="M1305.73 183.782C1326.74 222.672 1367.87 249.094 1415.17 249.094C1483.83 249.094 1539.49 193.438 1539.49 124.782C1539.49 56.126 1483.83 0.469482 1415.17 0.469482C1367.87 0.469482 1326.74 26.8913 1305.73 65.782L1205.93 65.782C1184.92 26.8913 1143.78 0.469482 1096.48 0.469482C1049.17 0.469482 1008.04 26.8913 987.032 65.782L876.23 65.782C855.221 26.8913 814.088 0.469482 766.783 0.469482C719.479 0.469482 678.346 26.8913 657.337 65.782L557.535 65.782C536.525 26.8913 495.392 0.469482 448.088 0.469482C400.784 0.469482 359.651 26.8913 338.642 65.782L233.839 65.782C212.83 26.8913 171.697 0.469482 124.393 0.469482C55.7371 0.469482 0.0805664 56.126 0.0805664 124.782C0.0805664 193.438 55.7371 249.094 124.393 249.094C171.697 249.094 212.83 222.672 233.839 183.782L338.642 183.782C359.651 222.672 400.784 249.094 448.088 249.094C495.392 249.094 536.525 222.672 557.534 183.782L657.337 183.782C678.346 222.672 719.479 249.094 766.783 249.094C814.088 249.094 855.22 222.672 876.23 183.782L987.033 183.782C1008.04 222.672 1049.17 249.094 1096.48 249.094C1143.78 249.094 1184.92 222.672 1205.92 183.782L1305.73 183.782Z" fill="url(#paint0_linear_2617_323)"/>
<g filter="url(#filter0_d_2617_323)">
<ellipse cx="1415.02" cy="125.358" rx="104.5" ry="105" transform="rotate(90 1415.02 125.358)" fill="white"/>
</g>
<g filter="url(#filter1_d_2617_323)">
<circle cx="1096.52" cy="125.164" r="104.5" transform="rotate(90 1096.52 125.164)" fill="white"/>
</g>
<g filter="url(#filter2_d_2617_323)">
<ellipse cx="448.025" cy="124.775" rx="104.5" ry="105" transform="rotate(90 448.025 124.775)" fill="white"/>
</g>
<g filter="url(#filter3_d_2617_323)">
<circle cx="766.523" cy="124.969" r="104.5" transform="rotate(90 766.523 124.969)" fill="white"/>
</g>
<g filter="url(#filter4_d_2617_323)">
<circle cx="124.525" cy="124.581" r="104.5" transform="rotate(90 124.525 124.581)" fill="white"/>
</g>
<path d="M1414.87 395.522C1411.93 395.522 1409.54 397.91 1409.54 400.856C1409.54 403.801 1411.93 406.189 1414.87 406.189C1417.82 406.189 1420.2 403.801 1420.2 400.856C1420.2 397.91 1417.82 395.522 1414.87 395.522ZM1413.87 240.856V400.856H1415.87V240.856H1413.87Z" fill="#0048B4"/>
<path d="M1097.87 390.324C1094.93 390.324 1092.54 392.712 1092.54 395.657C1092.54 398.603 1094.93 400.991 1097.87 400.991C1100.82 400.991 1103.21 398.603 1103.21 395.657C1103.21 392.712 1100.82 390.324 1097.87 390.324ZM1096.87 235.657V395.657H1098.87V235.657H1096.87Z" fill="#0048B4"/>
<path d="M771.873 390.13C768.928 390.13 766.54 392.518 766.54 395.463C766.54 398.409 768.928 400.796 771.873 400.796C774.819 400.796 777.206 398.409 777.206 395.463C777.206 392.518 774.819 390.13 771.873 390.13ZM770.873 235.463V395.463H772.873V235.463H770.873Z" fill="#0048B4"/>
<path d="M445.873 389.938C442.928 389.938 440.54 392.326 440.54 395.271C440.54 398.217 442.928 400.605 445.873 400.605C448.819 400.605 451.206 398.217 451.206 395.271C451.206 392.326 448.819 389.938 445.873 389.938ZM444.873 235.271L444.873 395.271H446.873L446.873 235.271H444.873Z" fill="#0048B4"/>
<path d="M124.873 389.735C121.928 389.735 119.54 392.123 119.54 395.068C119.54 398.014 121.928 400.402 124.873 400.402C127.819 400.402 130.206 398.014 130.206 395.068C130.206 392.123 127.819 389.735 124.873 389.735ZM123.873 235.068L123.873 395.068H125.873L125.873 235.068H123.873Z" fill="#0048B4"/>
<path d="M147.99 161.116C148.683 162.81 149.079 164.658 149.112 166.595H164.627V161.888C164.627 160.702 163.57 159.795 162.398 159.975L160.109 160.328C159.169 160.472 158.269 159.91 157.974 159.006C157.567 157.76 157.065 156.557 156.478 155.405C156.05 154.564 156.3 153.536 157.061 152.978L158.932 151.606C159.888 150.904 159.994 149.516 159.156 148.677L152.121 141.642C151.282 140.804 149.894 140.91 149.193 141.866L147.821 143.737C147.262 144.498 146.235 144.749 145.393 144.32C144.241 143.733 143.038 143.231 141.792 142.824C140.888 142.529 140.326 141.629 140.471 140.689L140.823 138.399C141.003 137.227 140.096 136.17 138.91 136.17H128.961C127.775 136.17 126.869 137.227 127.049 138.399L127.401 140.689C127.546 141.629 126.983 142.529 126.079 142.824C124.833 143.231 123.63 143.733 122.478 144.32C121.637 144.748 120.61 144.498 120.051 143.737L118.679 141.866C117.978 140.91 116.589 140.804 115.751 141.642L108.716 148.677C107.877 149.516 107.983 150.904 108.94 151.606L110.81 152.978C111.572 153.536 111.822 154.564 111.394 155.405C110.807 156.557 110.305 157.76 109.898 159.006C109.603 159.91 108.703 160.472 107.763 160.328L105.473 159.975C104.301 159.795 103.244 160.702 103.244 161.888V166.595H118.759C118.903 158.333 125.64 151.679 133.936 151.679C137.047 151.679 139.939 152.615 142.346 154.22" stroke="#0048B4" stroke-width="2" stroke-miterlimit="10" stroke-linecap="round" stroke-linejoin="round"/>
<path d="M165.86 83.1449H179.684C181.641 83.1449 183.229 84.7321 183.229 86.6898V163.05C183.229 165.008 181.641 166.595 179.684 166.595H72.8633C68.9476 166.595 65.7734 163.421 65.7734 159.505" stroke="#0048B4" stroke-width="2" stroke-miterlimit="10" stroke-linecap="round" stroke-linejoin="round"/>
<path d="M101.873 83.1449H150.18" stroke="#0048B4" stroke-width="2" stroke-miterlimit="10" stroke-linecap="round" stroke-linejoin="round"/>
<path d="M80.8398 83.1449H93.6027" stroke="#0048B4" stroke-width="2" stroke-miterlimit="10" stroke-linecap="round" stroke-linejoin="round"/>
<path d="M90.0527 124.87H146.825" stroke="#0048B4" stroke-width="2" stroke-miterlimit="10" stroke-linecap="round" stroke-linejoin="round"/>
<path d="M116.329 124.87C105.678 124.87 97.043 116.235 97.043 105.584" stroke="#0048B4" stroke-width="2" stroke-miterlimit="10" stroke-linecap="round" stroke-linejoin="round"/>
<path d="M163.355 101.635H174.992" stroke="#0048B4" stroke-width="2" stroke-miterlimit="10" stroke-linecap="round" stroke-linejoin="round"/>
<path d="M163.355 109.533H174.992" stroke="#0048B4" stroke-width="2" stroke-miterlimit="10" stroke-linecap="round" stroke-linejoin="round"/>
<path d="M72.8633 74.0062C68.9476 74.0062 65.7734 77.1803 65.7734 81.0961V158.638H65.7819C65.9566 154.877 69.0598 151.882 72.8633 151.882H77.294C79.2517 151.882 80.8389 150.295 80.8389 148.337V77.5511C80.8389 75.5934 79.2517 74.0062 77.294 74.0062H72.8633Z" stroke="#0048B4" stroke-width="2" stroke-miterlimit="10" stroke-linecap="round" stroke-linejoin="round"/>
<path d="M156.343 77.6705L122.965 111.049L129.828 117.911L163.206 84.5333" stroke="#0048B4" stroke-width="2" stroke-miterlimit="10" stroke-linecap="round" stroke-linejoin="round"/>
<path d="M122.965 111.049L116.667 121.226C115.463 123.172 117.705 125.413 119.651 124.209L129.828 117.912L122.965 111.049Z" stroke="#0048B4" stroke-width="2" stroke-miterlimit="10" stroke-linecap="round" stroke-linejoin="round"/>
<path d="M163.103 84.6358L169.049 78.6896C170.944 76.7945 170.944 73.722 169.049 71.8269C167.154 69.9317 164.082 69.9317 162.186 71.8269L156.24 77.7731L163.103 84.6358Z" stroke="#0048B4" stroke-width="2" stroke-miterlimit="10" stroke-linecap="round" stroke-linejoin="round"/>
<path d="M1129.04 171.437H1145.34C1150.25 171.437 1154.23 167.458 1154.23 162.55V116.284" stroke="#0048B4" stroke-width="2" stroke-miterlimit="10" stroke-linecap="round" stroke-linejoin="round"/>
<path d="M1036.77 116.284V162.55C1036.77 167.458 1040.75 171.437 1045.66 171.437H1120.77" stroke="#0048B4" stroke-width="2" stroke-miterlimit="10" stroke-linecap="round" stroke-linejoin="round"/>
<path d="M1046.93 123.484H1043.97C1040 123.484 1036.77 120.261 1036.77 116.284V90.0228C1036.77 86.7019 1039.47 84.0096 1042.79 84.0096H1148.22C1151.54 84.0096 1154.23 86.7019 1154.23 90.0228V116.284C1154.23 120.261 1151 123.484 1147.03 123.484H1111.46" stroke="#0048B4" stroke-width="2" stroke-miterlimit="10" stroke-linecap="round" stroke-linejoin="round"/>
<path d="M1080 123.484H1055.67" stroke="#0048B4" stroke-width="2" stroke-miterlimit="10" stroke-linecap="round" stroke-linejoin="round"/>
<path d="M1106.4 129.954H1084.6C1082.43 129.954 1080.68 128.2 1080.68 126.036V120.933C1080.68 118.769 1082.43 117.015 1084.6 117.015H1106.4C1108.57 117.015 1110.32 118.769 1110.32 120.933V126.036C1110.32 128.2 1108.57 129.954 1106.4 129.954Z" stroke="#0048B4" stroke-width="2" stroke-miterlimit="10" stroke-linecap="round" stroke-linejoin="round"/>
<path d="M1120.78 76.3279V67.7565C1120.78 63.2383 1117.1 59.5625 1112.58 59.5625H1078.42C1073.9 59.5625 1070.23 63.2383 1070.23 67.7565V76.3279" stroke="#0048B4" stroke-width="2" stroke-miterlimit="10" stroke-linecap="round" stroke-linejoin="round"/>
<path d="M1077.55 75.742V67.7565C1077.55 67.2779 1077.94 66.8887 1078.42 66.8887H1112.58C1113.06 66.8887 1113.45 67.2779 1113.45 67.7565V76.3279" stroke="#0048B4" stroke-width="2" stroke-miterlimit="10" stroke-linecap="round" stroke-linejoin="round"/>
<path d="M1083.07 84.0097H1064.99V78.5581C1064.99 77.3264 1065.98 76.3279 1067.22 76.3279H1080.84C1082.07 76.3279 1083.07 77.3264 1083.07 78.5581L1083.07 84.0097Z" stroke="#0048B4" stroke-width="2" stroke-miterlimit="10" stroke-linecap="round" stroke-linejoin="round"/>
<path d="M1126.28 84.0097H1108.2V78.5581C1108.2 77.3264 1109.2 76.3279 1110.43 76.3279H1124.05C1125.28 76.3279 1126.28 77.3264 1126.28 78.5581V84.0097H1126.28Z" stroke="#0048B4" stroke-width="2" stroke-miterlimit="10" stroke-linecap="round" stroke-linejoin="round"/>
<path d="M1403.73 162.27C1404.14 157.44 1407.39 153.42 1411.81 151.9" stroke="#0048B4" stroke-width="2" stroke-miterlimit="10" stroke-linecap="round" stroke-linejoin="round"/>
<path d="M1419.61 155.166H1419.39C1414.42 155.166 1410.39 151.138 1410.39 146.169V143.549C1410.39 138.58 1414.42 134.552 1419.39 134.552H1419.61C1424.58 134.552 1428.61 138.58 1428.61 143.549V146.169C1428.61 151.138 1424.58 155.166 1419.61 155.166Z" stroke="#0048B4" stroke-width="2" stroke-miterlimit="10" stroke-linecap="round" stroke-linejoin="round"/>
<path d="M1427.38 151.967C1431.59 153.494 1434.7 157.301 1435.23 161.896" stroke="#0048B4" stroke-miterlimit="10" stroke-linecap="round" stroke-linejoin="round"/>
<path d="M1437.51 131.036C1440.66 134.98 1442.55 139.983 1442.55 145.427C1442.55 158.156 1432.23 168.475 1419.5 168.475C1406.77 168.475 1396.45 158.156 1396.45 145.427C1396.45 132.698 1406.77 122.379 1419.5 122.379C1423.52 122.379 1427.3 123.408 1430.59 125.215M1454.23 137.024L1451.44 137.453C1450.29 137.63 1449.19 136.944 1448.83 135.841C1448.34 134.321 1447.72 132.853 1447.01 131.447C1446.49 130.42 1446.79 129.166 1447.72 128.485L1450 126.811C1451.17 125.955 1451.3 124.261 1450.28 123.238L1441.69 114.654C1440.67 113.631 1438.97 113.76 1438.12 114.927L1436.44 117.21C1435.76 118.138 1434.51 118.444 1433.48 117.921C1432.08 117.205 1430.61 116.593 1429.09 116.096C1427.99 115.735 1427.3 114.638 1427.48 113.491L1427.91 110.696C1428.13 109.266 1427.02 107.977 1425.57 107.977H1413.43C1411.98 107.977 1410.88 109.266 1411.1 110.696L1411.53 113.491C1411.7 114.638 1411.02 115.735 1409.92 116.096C1408.39 116.593 1406.93 117.205 1405.52 117.921C1404.49 118.444 1403.24 118.138 1402.56 117.21L1400.89 114.927C1400.03 113.76 1398.34 113.631 1397.31 114.654L1388.73 123.238C1387.7 124.261 1387.83 125.956 1389 126.811L1391.28 128.485C1392.21 129.167 1392.52 130.421 1392 131.447C1391.28 132.853 1390.67 134.321 1390.17 135.841C1389.81 136.944 1388.71 137.63 1387.56 137.453L1384.77 137.024C1383.34 136.804 1382.05 137.91 1382.05 139.357V151.497C1382.05 152.944 1383.34 154.051 1384.77 153.831L1387.56 153.401C1388.71 153.225 1389.81 153.911 1390.17 155.014C1390.67 156.534 1391.28 158.002 1392 159.408C1392.52 160.435 1392.21 161.689 1391.28 162.37L1389 164.044C1387.83 164.9 1387.7 166.594 1388.73 167.617L1397.31 176.202C1398.34 177.225 1400.03 177.095 1400.89 175.928L1402.56 173.646C1403.24 172.717 1404.49 172.411 1405.52 172.934C1406.93 173.65 1408.39 174.262 1409.92 174.759C1411.02 175.12 1411.7 176.217 1411.53 177.365L1411.1 180.159C1410.88 181.589 1411.98 182.879 1413.43 182.879H1425.57C1427.02 182.879 1428.13 181.589 1427.91 180.159L1427.48 177.365C1427.3 176.217 1427.99 175.12 1429.09 174.759C1430.61 174.262 1432.08 173.65 1433.48 172.934C1434.51 172.411 1435.76 172.717 1436.44 173.646L1438.12 175.928C1438.97 177.095 1440.67 177.225 1441.69 176.202L1450.28 167.617C1451.3 166.594 1451.17 164.9 1450 164.044L1447.72 162.37C1446.79 161.689 1446.49 160.435 1447.01 159.408C1447.72 158.002 1448.34 156.534 1448.83 155.014C1449.19 153.911 1450.29 153.225 1451.44 153.401L1454.23 153.831C1455.66 154.051 1456.95 152.944 1456.95 151.497V139.357C1456.95 137.91 1455.66 136.804 1454.23 137.024Z" stroke="#0048B4" stroke-width="2" stroke-miterlimit="10" stroke-linecap="round" stroke-linejoin="round"/>
<path d="M1382.32 84.3103C1382.32 84.3103 1380.66 82.7834 1378.11 83.5522C1375.77 84.2579 1375.19 87.4637 1376.78 88.7124C1377.69 89.4294 1379.07 90.0191 1380.92 90.6744C1385.07 92.1411 1383.54 97.9925 1379.32 98.0207C1377.67 98.0315 1376.9 97.9271 1375.45 96.9806" stroke="#0048B4" stroke-width="2" stroke-miterlimit="10" stroke-linecap="round" stroke-linejoin="round"/>
<path d="M1379.32 98.6394V100.156" stroke="#0048B4" stroke-width="2" stroke-miterlimit="10" stroke-linecap="round" stroke-linejoin="round"/>
<path d="M1379.32 81.3605V82.8888" stroke="#0048B4" stroke-width="2" stroke-miterlimit="10" stroke-linecap="round" stroke-linejoin="round"/>
<path d="M1369.63 74.8931C1372.47 73.1358 1375.82 72.1215 1379.41 72.1215C1389.7 72.1215 1398.05 80.4655 1398.05 90.7585C1398.05 101.052 1389.7 109.396 1379.41 109.396C1369.12 109.396 1360.77 101.051 1360.77 90.7583C1360.77 87.6425 1361.54 84.7052 1362.89 82.1238" stroke="#0048B4" stroke-width="2" stroke-miterlimit="10" stroke-linecap="round" stroke-linejoin="round"/>
<path d="M1459.59 109.395C1469.89 109.395 1478.23 101.051 1478.23 90.7583C1478.23 80.4653 1469.89 72.1212 1459.59 72.1212C1449.3 72.1212 1440.96 80.4653 1440.96 90.7583C1440.96 101.051 1449.3 109.395 1459.59 109.395Z" stroke="#0048B4" stroke-width="2" stroke-miterlimit="10" stroke-linecap="round" stroke-linejoin="round"/>
<path d="M1459.59 72.1215V77.2257" stroke="#0048B4" stroke-width="2" stroke-miterlimit="10" stroke-linecap="round" stroke-linejoin="round"/>
<path d="M1478.23 90.7583H1473.12" stroke="#0048B4" stroke-width="2" stroke-miterlimit="10" stroke-linecap="round" stroke-linejoin="round"/>
<path d="M1459.59 109.395V104.291" stroke="#0048B4" stroke-width="2" stroke-miterlimit="10" stroke-linecap="round" stroke-linejoin="round"/>
<path d="M1440.96 90.7583H1446.06" stroke="#0048B4" stroke-width="2" stroke-miterlimit="10" stroke-linecap="round" stroke-linejoin="round"/>
<path d="M1451.24 82.4502L1459.59 90.7583H1466.79" stroke="#0048B4" stroke-width="2" stroke-miterlimit="10" stroke-linecap="round" stroke-linejoin="round"/>
<g clip-path="url(#clip0_2617_323)">
<path d="M785.119 149.318C785.119 149.318 783.622 154.381 778.49 153.124C773.358 151.867 761.203 148.94 761.203 148.94" stroke="#0048B4" stroke-width="2" stroke-miterlimit="10" stroke-linecap="round" stroke-linejoin="round"/>
<path d="M785.119 149.318C785.119 149.318 783.622 154.381 778.49 153.124C773.358 151.867 761.203 148.94 761.203 148.94" stroke="#0048B4" stroke-width="2" stroke-miterlimit="10" stroke-linecap="round" stroke-linejoin="round"/>
<path d="M825.558 143.642C822.509 137.277 815.494 140.286 814.905 140.506L785.119 149.318C785.119 149.318 787.158 143.327 780.983 140.862C763.898 134.042 761.835 132.876 757.499 132.807L757.498 132.806C744.11 132.851 741.685 132.96 735.031 135.938C731.55 137.496 728.244 139.383 725.147 141.561C723.121 142.985 720.873 144.064 718.484 144.72L710.357 146.955C709.422 147.212 708.773 148.063 708.773 149.033V176.07C708.773 177.578 710.283 178.62 711.694 178.085L739.947 167.358C746.141 165.339 752.634 165.135 757.835 167.21L768.878 171.619C771.292 172.451 776.838 173.747 782.592 170.797C782.595 170.796 782.597 170.795 782.597 170.795C783.993 170.178 819.516 154.464 821.15 153.741C822.318 153.143 828.187 149.621 825.558 143.642Z" stroke="#0048B4" stroke-width="2" stroke-miterlimit="10" stroke-linecap="round" stroke-linejoin="round"/>
<path d="M745.241 83.1194C745.241 83.1194 743.488 81.2994 741.129 81.2994C738.77 81.2994 737.052 83.0183 737.052 84.7874C737.052 86.5568 739.276 87.9722 742.09 88.7135C744.904 89.4549 745.499 90.9097 745.499 92.46C745.499 94.0103 744.129 96.0099 740.916 96.0099C738.701 96.0099 737.329 94.8992 736.691 94.2093" stroke="#0048B4" stroke-width="2" stroke-miterlimit="10" stroke-linecap="round" stroke-linejoin="round"/>
<path d="M740.883 78.5696V80.5467" stroke="#0048B4" stroke-width="2" stroke-miterlimit="10" stroke-linecap="round" stroke-linejoin="round"/>
<path d="M740.883 96.7629V98.7401" stroke="#0048B4" stroke-width="2" stroke-miterlimit="10" stroke-linecap="round" stroke-linejoin="round"/>
<path d="M782.685 90.073C781.626 90.073 780.768 90.9316 780.768 91.9908V123.449H795.209V90.073H782.685Z" stroke="#0048B4" stroke-width="2" stroke-miterlimit="10" stroke-linecap="round" stroke-linejoin="round"/>
<path d="M768.246 104.723C767.187 104.723 766.328 105.582 766.328 106.641V123.448H780.769V104.723H768.246Z" stroke="#0048B4" stroke-width="2" stroke-miterlimit="10" stroke-linecap="round" stroke-linejoin="round"/>
<path d="M797.127 75.4226C796.068 75.4226 795.209 76.2812 795.209 77.3404V123.449H809.65V75.4226H797.127Z" stroke="#0048B4" stroke-width="2" stroke-miterlimit="10" stroke-linecap="round" stroke-linejoin="round"/>
<path d="M764.131 123.449H826.228" stroke="#0048B4" stroke-width="2" stroke-miterlimit="10" stroke-linecap="round" stroke-linejoin="round"/>
<path d="M745.019 106.238C753.001 104.367 758.947 97.2078 758.947 88.6547C758.947 78.678 750.859 70.5906 740.883 70.5906C730.906 70.5906 722.818 78.6783 722.818 88.6547C722.818 97.2075 728.764 104.367 736.747 106.238" stroke="#0048B4" stroke-width="2" stroke-miterlimit="10" stroke-linecap="round" stroke-linejoin="round"/>
<path d="M824.092 89.6863V62.6903C824.092 61.631 823.233 60.7725 822.174 60.7725H811.568C810.509 60.7725 809.65 61.631 809.65 62.6903V123.449H824.092V97.9579" stroke="#0048B4" stroke-width="2" stroke-miterlimit="10" stroke-linecap="round" stroke-linejoin="round"/>
</g>
<g clip-path="url(#clip1_2617_323)">
<path d="M467.689 169.485C461.052 172.463 453.693 174.12 445.947 174.12C416.58 174.12 392.773 150.313 392.773 120.946C392.773 109.145 396.62 98.2441 403.125 89.4227M405.399 86.5518C415.152 75.0641 429.697 67.7725 445.947 67.7725C475.314 67.7725 499.121 91.5792 499.121 120.946C499.121 122.298 499.07 123.638 498.971 124.964" stroke="#0048B4" stroke-width="2" stroke-miterlimit="22.9256"/>
<path d="M412.904 79.2826C412.904 81.9302 415.139 84.3542 417.786 84.3542H447.789C450.436 84.3542 452.603 86.5206 452.603 89.1687C452.603 91.8167 450.437 93.9831 447.789 93.9831H440.246C437.598 93.9831 435.432 96.1498 435.432 98.7976C435.432 101.446 437.598 103.612 440.246 103.612C442.894 103.612 445.06 105.779 445.06 108.427C445.06 111.075 442.894 113.241 440.246 113.241H435.512C432.864 113.241 430.697 115.408 430.697 118.056V135.126C430.697 139.539 427.086 143.15 422.673 143.15C418.26 143.15 414.649 139.539 414.649 135.126V125.841C414.649 123.193 412.482 121.026 409.834 121.026H405.611C402.964 121.026 400.797 123.193 400.797 125.841V130.575C400.797 134.279 397.87 135.389 394.758 135.389" stroke="#0048B4" stroke-width="2" stroke-miterlimit="22.9256"/>
<path d="M473.006 124.964C475.654 124.964 477.82 122.797 477.82 120.149V104.781C477.82 102.133 479.987 99.9661 482.635 99.9661C485.283 99.9661 487.449 102.133 487.449 104.781C487.449 107.429 489.616 109.595 492.264 109.595H497.906" stroke="#0048B4" stroke-width="2" stroke-miterlimit="22.9256"/>
<path d="M462.971 80.3052V76.7603M470.061 83.8501V80.3052" stroke="#0048B4" stroke-width="2" stroke-miterlimit="22.9256"/>
<path d="M457.47 172.868V166.098C457.47 163.45 455.303 161.284 452.655 161.284C450.007 161.284 447.841 159.117 447.841 156.469C447.841 153.821 450.007 151.655 452.655 151.655H455.785C458.433 151.655 460.599 149.488 460.599 146.84V145.827C460.599 143.179 458.432 141.013 455.785 141.013H453.087C448.674 141.013 445.062 137.402 445.062 132.989C445.062 128.575 448.673 124.964 453.087 124.964H510.228V181.683C510.228 183.632 508.632 185.228 506.683 185.228H490.731M487.186 185.228H471.234C469.285 185.228 467.689 183.632 467.689 181.683V124.964" stroke="#0048B4" stroke-width="2" stroke-miterlimit="22.9256"/>
<path d="M488.959 162.186C496.79 162.186 503.139 155.837 503.139 148.006C503.139 140.175 496.79 133.826 488.959 133.826C481.128 133.826 474.779 140.175 474.779 148.006C474.779 155.837 481.128 162.186 488.959 162.186Z" stroke="#0048B4" stroke-width="2" stroke-miterlimit="22.9256"/>
<path d="M501.4 141.199C498.024 143.236 493.688 144.461 488.96 144.461C484.231 144.461 479.896 143.236 476.52 141.199M501.4 154.813C498.024 152.776 493.688 151.551 488.96 151.551C484.231 151.551 479.896 152.776 476.52 154.813" stroke="#0048B4" stroke-width="2" stroke-miterlimit="22.9256"/>
<path d="M488.958 162.186C491.895 162.186 494.275 155.837 494.275 148.006C494.275 140.175 491.895 133.826 488.958 133.826C486.021 133.826 483.641 140.175 483.641 148.006C483.641 155.837 486.021 162.186 488.958 162.186Z" stroke="#0048B4" stroke-width="2" stroke-miterlimit="22.9256"/>
<path d="M501.365 169.275H476.551V176.365H501.365V169.275Z" stroke="#0048B4" stroke-width="2" stroke-miterlimit="22.9256"/>
</g>
<defs>
<filter id="filter0_d_2617_323" x="1306.02" y="20.8578" width="218" height="217" filterUnits="userSpaceOnUse" color-interpolation-filters="sRGB">
<feFlood flood-opacity="0" result="BackgroundImageFix"/>
<feColorMatrix in="SourceAlpha" type="matrix" values="0 0 0 0 0 0 0 0 0 0 0 0 0 0 0 0 0 0 127 0" result="hardAlpha"/>
<feOffset dy="4"/>
<feGaussianBlur stdDeviation="2"/>
<feComposite in2="hardAlpha" operator="out"/>
<feColorMatrix type="matrix" values="0 0 0 0 0 0 0 0 0 0 0 0 0 0 0 0 0 0 0.25 0"/>
<feBlend mode="normal" in2="BackgroundImageFix" result="effect1_dropShadow_2617_323"/>
<feBlend mode="normal" in="SourceGraphic" in2="effect1_dropShadow_2617_323" result="shape"/>
</filter>
<filter id="filter1_d_2617_323" x="988.023" y="20.6636" width="217" height="217" filterUnits="userSpaceOnUse" color-interpolation-filters="sRGB">
<feFlood flood-opacity="0" result="BackgroundImageFix"/>
<feColorMatrix in="SourceAlpha" type="matrix" values="0 0 0 0 0 0 0 0 0 0 0 0 0 0 0 0 0 0 127 0" result="hardAlpha"/>
<feOffset dy="4"/>
<feGaussianBlur stdDeviation="2"/>
<feComposite in2="hardAlpha" operator="out"/>
<feColorMatrix type="matrix" values="0 0 0 0 0 0 0 0 0 0 0 0 0 0 0 0 0 0 0.25 0"/>
<feBlend mode="normal" in2="BackgroundImageFix" result="effect1_dropShadow_2617_323"/>
<feBlend mode="normal" in="SourceGraphic" in2="effect1_dropShadow_2617_323" result="shape"/>
</filter>
<filter id="filter2_d_2617_323" x="339.025" y="20.2753" width="218" height="217" filterUnits="userSpaceOnUse" color-interpolation-filters="sRGB">
<feFlood flood-opacity="0" result="BackgroundImageFix"/>
<feColorMatrix in="SourceAlpha" type="matrix" values="0 0 0 0 0 0 0 0 0 0 0 0 0 0 0 0 0 0 127 0" result="hardAlpha"/>
<feOffset dy="4"/>
<feGaussianBlur stdDeviation="2"/>
<feComposite in2="hardAlpha" operator="out"/>
<feColorMatrix type="matrix" values="0 0 0 0 0 0 0 0 0 0 0 0 0 0 0 0 0 0 0.25 0"/>
<feBlend mode="normal" in2="BackgroundImageFix" result="effect1_dropShadow_2617_323"/>
<feBlend mode="normal" in="SourceGraphic" in2="effect1_dropShadow_2617_323" result="shape"/>
</filter>
<filter id="filter3_d_2617_323" x="658.023" y="20.4692" width="217" height="217" filterUnits="userSpaceOnUse" color-interpolation-filters="sRGB">
<feFlood flood-opacity="0" result="BackgroundImageFix"/>
<feColorMatrix in="SourceAlpha" type="matrix" values="0 0 0 0 0 0 0 0 0 0 0 0 0 0 0 0 0 0 127 0" result="hardAlpha"/>
<feOffset dy="4"/>
<feGaussianBlur stdDeviation="2"/>
<feComposite in2="hardAlpha" operator="out"/>
<feColorMatrix type="matrix" values="0 0 0 0 0 0 0 0 0 0 0 0 0 0 0 0 0 0 0.25 0"/>
<feBlend mode="normal" in2="BackgroundImageFix" result="effect1_dropShadow_2617_323"/>
<feBlend mode="normal" in="SourceGraphic" in2="effect1_dropShadow_2617_323" result="shape"/>
</filter>
<filter id="filter4_d_2617_323" x="16.0254" y="20.0811" width="217" height="217" filterUnits="userSpaceOnUse" color-interpolation-filters="sRGB">
<feFlood flood-opacity="0" result="BackgroundImageFix"/>
<feColorMatrix in="SourceAlpha" type="matrix" values="0 0 0 0 0 0 0 0 0 0 0 0 0 0 0 0 0 0 127 0" result="hardAlpha"/>
<feOffset dy="4"/>
<feGaussianBlur stdDeviation="2"/>
<feComposite in2="hardAlpha" operator="out"/>
<feColorMatrix type="matrix" values="0 0 0 0 0 0 0 0 0 0 0 0 0 0 0 0 0 0 0.25 0"/>
<feBlend mode="normal" in2="BackgroundImageFix" result="effect1_dropShadow_2617_323"/>
<feBlend mode="normal" in="SourceGraphic" in2="effect1_dropShadow_2617_323" result="shape"/>
</filter>
<linearGradient id="paint0_linear_2617_323" x1="1580.71" y1="124.782" x2="-81.1451" y2="124.782" gradientUnits="userSpaceOnUse">
<stop offset="0.102231" stop-color="#0048B4"/>
<stop offset="0.483741" stop-color="#0048B4"/>
<stop offset="0.757613" stop-color="#0048B4"/>
</linearGradient>
<clipPath id="clip0_2617_323">
<rect width="121" height="121" fill="white" transform="translate(707 59)"/>
</clipPath>
<clipPath id="clip1_2617_323">
<rect width="121" height="121" fill="white" transform="translate(391 66)"/>
</clipPath>
</defs>
</svg>
