<svg width="1666" height="352" viewBox="0 0 1666 352" fill="none" xmlns="http://www.w3.org/2000/svg">
<ellipse cx="146.195" cy="146.195" rx="146.195" ry="146.195" transform="matrix(-1 8.74228e-08 8.74228e-08 1 318.514 26.1255)" fill="white"/>
<path d="M344.64 172.499C344.64 172.439 344.64 172.38 344.64 172.32C344.64 77.1504 267.49 0 172.32 0C77.1503 0 0 77.1504 0 172.32C0 172.38 8.73734e-05 172.439 8.73734e-05 172.499L7.17131 165.341L14.3425 172.499C14.3425 172.439 14.3424 172.38 14.3424 172.32C14.3424 85.0713 85.0714 14.3425 172.32 14.3425C259.569 14.3425 330.298 85.0713 330.298 172.32C330.298 172.38 330.297 172.439 330.297 172.499L337.469 179.657L344.64 172.499Z" fill="#0048B4"/>
<ellipse cx="134.027" cy="134.027" rx="134.027" ry="134.027" transform="matrix(-1 8.74228e-08 8.74228e-08 1 306.347 38.2935)" fill="#DDEAFF"/>
<path d="M76 172.181C76 225.3 119.062 268.361 172.181 268.361C225.3 268.361 268.361 225.3 268.361 172.181C268.361 119.062 225.3 76 172.181 76C119.062 76 76 119.062 76 172.181Z" fill="white"/>
<ellipse cx="146.195" cy="146.195" rx="146.195" ry="146.195" transform="matrix(-1 8.74228e-08 8.74228e-08 1 979.163 26.1255)" fill="white"/>
<path d="M1005.29 172.499C1005.29 172.439 1005.29 172.38 1005.29 172.32C1005.29 77.1504 928.139 0 832.969 0C737.8 0 660.649 77.1504 660.649 172.32C660.649 172.38 660.65 172.439 660.65 172.499L667.821 165.341L674.992 172.499C674.992 172.439 674.992 172.38 674.992 172.32C674.992 85.0713 745.721 14.3425 832.969 14.3425C920.218 14.3425 990.947 85.0713 990.947 172.32C990.947 172.38 990.947 172.439 990.947 172.499L998.118 179.657L1005.29 172.499Z" fill="#0048B4"/>
<ellipse cx="134.027" cy="134.027" rx="134.027" ry="134.027" transform="matrix(-1 8.74228e-08 8.74228e-08 1 966.996 38.2935)" fill="#DDEAFF"/>
<path d="M736 172.181C736 225.3 779.062 268.361 832.181 268.361C885.3 268.361 928.361 225.3 928.361 172.181C928.361 119.062 885.3 76 832.181 76C779.062 76 736 119.062 736 172.181Z" fill="white"/>
<ellipse cx="146.195" cy="146.195" rx="146.195" ry="146.195" transform="matrix(-1 8.74228e-08 8.74228e-08 1 1639.87 26.1255)" fill="white"/>
<path d="M1666 172.499C1666 172.439 1666 172.38 1666 172.32C1666 77.1504 1588.85 0 1493.68 0C1398.51 0 1321.36 77.1504 1321.36 172.32C1321.36 172.38 1321.36 172.439 1321.36 172.499L1328.53 165.341L1335.7 172.499C1335.7 172.439 1335.7 172.38 1335.7 172.32C1335.7 85.0713 1406.43 14.3425 1493.68 14.3425C1580.93 14.3425 1651.66 85.0713 1651.66 172.32C1651.66 172.38 1651.66 172.439 1651.66 172.499L1658.83 179.657L1666 172.499Z" fill="#0048B4"/>
<ellipse cx="134.027" cy="134.027" rx="134.027" ry="134.027" transform="matrix(-1 8.74228e-08 8.74228e-08 1 1627.71 38.2935)" fill="#DDEAFF"/>
<path d="M1398 172.181C1398 225.3 1441.06 268.361 1494.18 268.361C1547.3 268.361 1590.36 225.3 1590.36 172.181C1590.36 119.062 1547.3 76 1494.18 76C1441.06 76 1398 119.062 1398 172.181Z" fill="white"/>
<ellipse cx="502.645" cy="179.478" rx="146.195" ry="146.195" transform="rotate(180 502.645 179.478)" fill="white"/>
<path d="M674.966 179.299C674.966 179.359 674.966 179.418 674.966 179.478C674.966 274.647 597.816 351.798 502.646 351.798C407.476 351.798 330.326 274.647 330.326 179.478C330.326 179.418 330.326 179.359 330.326 179.299L337.497 186.457L344.669 179.299C344.669 179.359 344.669 179.418 344.669 179.478C344.669 266.727 415.398 337.455 502.646 337.455C589.895 337.455 660.624 266.727 660.624 179.478C660.624 179.418 660.624 179.359 660.624 179.299L667.795 172.141L674.966 179.299Z" fill="#0048B4"/>
<ellipse cx="502.646" cy="179.478" rx="134.027" ry="134.027" transform="rotate(180 502.646 179.478)" fill="#DDEAFF"/>
<path d="M406 178.82C406 125.701 449.062 82.6393 502.181 82.6393C555.3 82.6393 598.361 125.701 598.361 178.82C598.361 231.939 555.3 275 502.181 275C449.062 275 406 231.939 406 178.82Z" fill="white"/>
<ellipse cx="1164.14" cy="179.478" rx="146.195" ry="146.195" transform="rotate(180 1164.14 179.478)" fill="white"/>
<path d="M1336.46 179.299C1336.46 179.359 1336.46 179.418 1336.46 179.478C1336.46 274.647 1259.31 351.798 1164.14 351.798C1068.97 351.798 991.815 274.647 991.815 179.478C991.815 179.418 991.816 179.359 991.816 179.299L998.987 186.457L1006.16 179.299C1006.16 179.359 1006.16 179.418 1006.16 179.478C1006.16 266.727 1076.89 337.455 1164.14 337.455C1251.38 337.455 1322.11 266.727 1322.11 179.478C1322.11 179.418 1322.11 179.359 1322.11 179.299L1329.28 172.141L1336.46 179.299Z" fill="#0048B4"/>
<ellipse cx="1164.14" cy="179.478" rx="134.027" ry="134.027" transform="rotate(180 1164.14 179.478)" fill="#DDEAFF"/>
<path d="M1066 178.82C1066 125.701 1109.06 82.6393 1162.18 82.6393C1215.3 82.6393 1258.36 125.701 1258.36 178.82C1258.36 231.939 1215.3 275 1162.18 275C1109.06 275 1066 231.939 1066 178.82Z" fill="white"/>
<path d="M167.943 213.966C167.842 213.966 167.741 213.942 167.647 213.889C167.638 213.883 167.629 213.878 167.619 213.873L134.027 194.461C133.252 194.001 132.828 193.114 132.828 191.962L132.782 176.873C132.782 176.658 132.896 176.46 133.083 176.352C133.267 176.245 133.499 176.244 133.683 176.352L158.836 190.885C158.941 190.894 159.045 190.933 159.135 191.001C159.198 191.047 159.253 191.096 159.306 191.15C159.842 191.56 160.642 191.19 160.973 191.004C161.373 190.764 161.981 190.304 162.53 189.518L166.479 184.021C166.633 183.81 166.906 183.72 167.15 183.8C167.398 183.879 167.566 184.109 167.568 184.37L167.644 211.4C167.644 212.097 167.855 212.618 168.227 212.838L168.243 212.847C168.529 213.012 168.628 213.378 168.463 213.665C168.353 213.858 168.151 213.966 167.943 213.966ZM133.986 177.913L134.029 191.96C134.029 192.674 134.243 193.194 134.634 193.426L166.463 211.819C166.45 211.684 166.443 211.544 166.443 211.402L166.373 186.227L163.51 190.212C162.983 190.966 162.312 191.6 161.575 192.041C160.485 192.654 159.438 192.693 158.675 192.175C158.659 192.168 158.644 192.159 158.628 192.151L133.986 177.913Z" fill="#0048B4"/>
<path d="M168.749 214.181C168.352 214.181 167.978 214.085 167.644 213.893C166.872 213.449 166.446 212.563 166.441 211.398L166.365 184.38C166.365 184.254 166.405 184.131 166.478 184.028L188.457 153.425C188.599 153.228 188.845 153.136 189.081 153.19L211.141 158.308C211.412 158.371 211.604 158.612 211.605 158.891L211.683 186.044C211.688 188.222 210.204 190.784 208.305 191.877L170.438 213.675C169.853 214.011 169.279 214.181 168.749 214.181ZM167.566 184.571L167.643 211.395C167.644 212.113 167.858 212.631 168.243 212.853C168.63 213.075 169.208 212.997 169.84 212.635L207.708 190.837C209.215 189.969 210.486 187.775 210.482 186.047L210.406 159.37L189.198 154.449L167.566 184.571Z" fill="#0048B4"/>
<path d="M159.889 192.544C159.293 192.544 158.757 192.328 158.343 191.901C157.15 190.683 157.434 188.022 158.992 185.846L186.66 147.309C187.222 146.522 187.894 145.891 188.605 145.483C189.375 145.037 190.136 144.886 190.809 145.045L218.233 151.398C218.87 151.543 219.368 151.948 219.674 152.568C220.191 153.613 220.084 155.152 219.387 156.684C218.77 158.05 217.746 159.244 216.646 159.877C215.88 160.317 215.123 160.468 214.461 160.31L189.198 154.449L163.518 190.208C162.948 191.001 162.271 191.637 161.564 192.046C160.985 192.378 160.414 192.544 159.889 192.544ZM190.278 146.185C189.96 146.185 189.588 146.301 189.202 146.523C188.641 146.846 188.099 147.359 187.635 148.007L159.967 186.545C158.677 188.349 158.527 190.374 159.202 191.063C159.742 191.619 160.615 191.208 160.965 191.006C161.526 190.682 162.072 190.164 162.542 189.508L188.457 153.424C188.599 153.227 188.845 153.136 189.081 153.19L214.735 159.142C215.092 159.23 215.559 159.119 216.049 158.837C216.938 158.325 217.777 157.335 218.294 156.189C218.836 154.998 218.952 153.815 218.599 153.1C218.454 152.806 218.246 152.632 217.963 152.567L190.537 146.214C190.455 146.195 190.368 146.185 190.278 146.185Z" fill="#0048B4"/>
<path d="M158.927 192.225C158.824 192.225 158.72 192.199 158.627 192.144L125.189 172.83C124.994 172.693 124.865 172.598 124.736 172.469C123.548 171.248 123.831 168.59 125.376 166.412L150.018 126.175C150.611 125.352 151.288 124.722 151.998 124.315C152.029 124.298 152.134 124.245 152.151 124.238C152.326 124.154 152.599 124.132 152.769 124.231L189.381 145.389C189.573 145.499 189.689 145.707 189.68 145.929C189.673 146.15 189.544 146.35 189.344 146.447L188.981 146.08L188.964 146.11L189.199 146.512C188.654 146.832 188.111 147.352 187.629 148.015L159.963 186.549C158.669 188.356 158.521 190.378 159.198 191.063C159.221 191.071 159.292 191.139 159.358 191.208C159.566 191.423 159.585 191.758 159.4 191.994C159.283 192.144 159.106 192.225 158.927 192.225ZM152.46 125.438C151.943 125.763 151.446 126.245 151.015 126.841L126.377 167.073C125.071 168.915 124.922 170.94 125.591 171.627C125.665 171.7 125.745 171.756 125.823 171.812L157.62 190.177C157.499 188.884 157.973 187.266 158.987 185.849L186.656 147.313C187.049 146.773 187.483 146.308 187.934 145.939L152.46 125.438ZM152.297 124.836L152.359 124.942L152.375 124.913L152.297 124.836Z" fill="#0048B4"/>
<path d="M218.52 152.739C218.438 152.739 218.356 152.723 218.277 152.688C218.118 152.616 218.05 152.586 217.985 152.573L190.544 146.22C190.543 146.22 190.543 146.22 190.541 146.22C190.218 146.143 189.806 146.224 189.343 146.448C189.164 146.536 188.953 146.529 188.78 146.428L152.168 125.27C151.979 125.161 151.863 124.956 151.869 124.737C151.874 124.518 151.998 124.319 152.192 124.218C152.899 123.853 153.593 123.736 154.2 123.876L184.642 131.964C184.844 132.025 185.039 132.089 185.228 132.207L218.82 151.62C219.095 151.779 219.199 152.126 219.054 152.411C218.949 152.618 218.738 152.739 218.52 152.739ZM190.817 145.052L214.575 150.553L184.61 133.235C184.53 133.185 184.421 133.151 184.316 133.119L154.39 125.168L189.117 145.237C189.725 144.994 190.307 144.93 190.817 145.052Z" fill="#0048B4"/>
<path d="M156.847 166.179C156.782 166.179 156.716 166.169 156.653 166.147C156.409 166.064 156.246 165.834 156.246 165.576L156.322 150.091C156.324 149.878 156.438 149.682 156.621 149.575L169.717 141.964C169.904 141.856 170.134 141.855 170.322 141.965C170.508 142.073 170.621 142.275 170.619 142.49L170.543 148.44C170.54 148.569 170.498 148.694 170.42 148.796L157.324 165.943C157.208 166.095 157.03 166.179 156.847 166.179ZM157.521 150.44L157.456 163.793L169.345 148.226L169.405 143.533L157.521 150.44Z" fill="#0048B4"/>
<path d="M156.847 166.179C156.743 166.179 156.64 166.152 156.546 166.098L143.366 158.488C143.18 158.38 143.065 158.181 143.065 157.965L143.14 142.48C143.142 142.266 143.256 142.069 143.442 141.963C143.626 141.854 143.854 141.855 144.041 141.964L157.223 149.574C157.409 149.682 157.523 149.881 157.523 150.096L157.447 165.582C157.446 165.796 157.332 165.993 157.146 166.099C157.053 166.152 156.949 166.179 156.847 166.179ZM144.268 157.623L156.252 164.543L156.321 150.439L144.335 143.519L144.268 157.623Z" fill="#0048B4"/>
<path d="M156.923 150.693C156.819 150.693 156.716 150.667 156.623 150.613L143.44 143.002C143.256 142.895 143.142 142.697 143.14 142.484C143.14 142.27 143.254 142.072 143.439 141.964L156.535 134.354C156.722 134.245 156.949 134.245 157.137 134.353L170.319 141.964C170.503 142.07 170.618 142.268 170.619 142.482C170.619 142.696 170.505 142.894 170.32 143.001L157.225 150.612C157.131 150.666 157.027 150.693 156.923 150.693ZM144.937 142.481L156.921 149.4L168.822 142.484L156.838 135.566L144.937 142.481Z" fill="#0048B4"/>
<path d="M156.839 146.995C156.735 146.995 156.633 146.969 156.539 146.915L149.744 142.992C149.559 142.885 149.445 142.688 149.443 142.473C149.443 142.259 149.558 142.062 149.742 141.954L156.538 138.003C156.725 137.895 156.954 137.895 157.138 138.002C157.324 138.109 157.44 138.307 157.44 138.522V146.395C157.44 146.61 157.326 146.808 157.14 146.915C157.046 146.969 156.943 146.995 156.839 146.995ZM151.241 142.47L156.239 145.356V139.565L151.241 142.47Z" fill="#0048B4"/>
<path d="M156.921 147.043C156.817 147.043 156.713 147.016 156.62 146.962C156.435 146.855 156.239 146.609 156.239 146.396V138.522C156.239 138.307 156.353 138.11 156.539 138.003C156.727 137.894 156.952 137.894 157.14 138.003L164.017 141.974C164.202 142.081 164.316 142.279 164.317 142.492C164.317 142.706 164.203 142.904 164.019 143.012L157.223 146.962C157.129 147.016 157.025 147.043 156.921 147.043ZM157.44 139.561V145.448L162.52 142.495L157.44 139.561Z" fill="#0048B4"/>
<path d="M183.822 196.758C182.6 196.758 181.466 196.471 180.463 195.893C178.069 194.515 176.747 191.669 176.735 187.88C176.713 180.296 182.076 171.024 188.688 167.211C192.018 165.292 195.176 164.997 197.588 166.387C199.979 167.763 201.302 170.609 201.314 174.401C201.334 181.99 195.974 191.263 189.365 195.073C187.421 196.193 185.534 196.758 183.822 196.758ZM194.232 166.725C192.731 166.725 191.046 167.237 189.289 168.251C183.007 171.872 177.914 180.676 177.936 187.877C177.945 191.219 179.055 193.697 181.062 194.853C183.086 196.021 185.826 195.728 188.764 194.033C195.043 190.415 200.133 181.609 200.112 174.404C200.104 171.059 198.993 168.58 196.989 167.426C196.175 166.957 195.245 166.725 194.232 166.725Z" fill="#0048B4"/>
<path d="M191.953 180.315C192.227 180.545 192.368 180.976 192.37 181.614C192.371 182.135 192.249 182.677 192.007 183.237C191.764 183.8 191.418 184.337 190.971 184.845C190.522 185.355 190.004 185.798 189.413 186.177L189.416 187.222C189.417 187.349 189.382 187.475 189.309 187.601C189.237 187.726 189.14 187.825 189.021 187.894C188.91 187.957 188.818 187.97 188.745 187.934C188.671 187.897 188.636 187.809 188.635 187.672L188.633 186.627C187.708 187.091 186.843 187.36 186.039 187.43C185.937 187.441 185.851 187.409 185.782 187.335C185.714 187.263 185.678 187.162 185.678 187.035C185.677 186.868 185.728 186.695 185.824 186.515C185.923 186.336 186.049 186.2 186.203 186.111C186.287 186.063 186.369 186.036 186.446 186.032C187.139 185.985 187.868 185.762 188.629 185.362L188.619 181.978C188.037 182.137 187.546 182.229 187.149 182.251C186.751 182.275 186.417 182.173 186.152 181.949C185.886 181.724 185.752 181.322 185.75 180.743C185.749 180.234 185.858 179.7 186.073 179.142C186.29 178.586 186.613 178.04 187.045 177.508C187.476 176.972 187.994 176.501 188.603 176.092L188.6 175.062C188.599 174.936 188.634 174.807 188.707 174.676C188.779 174.546 188.872 174.449 188.982 174.386C189.092 174.322 189.187 174.31 189.265 174.355C189.342 174.399 189.38 174.486 189.38 174.612L189.383 175.627C190.222 175.184 190.965 174.918 191.617 174.826C191.858 174.786 191.977 174.913 191.978 175.209C191.978 175.365 191.933 175.534 191.838 175.715C191.744 175.899 191.62 176.033 191.466 176.122C191.415 176.152 191.347 176.171 191.261 176.182C190.68 176.281 190.055 176.507 189.387 176.864L189.397 180.367C190.015 180.175 190.525 180.064 190.931 180.027C191.338 179.988 191.678 180.086 191.953 180.315ZM189.41 184.912C190.616 184.12 191.217 183.214 191.214 182.191C191.213 181.809 191.059 181.601 190.757 181.565C190.452 181.528 190.001 181.59 189.401 181.748L189.41 184.912ZM188.615 180.594L188.606 177.358C188.093 177.732 187.683 178.148 187.377 178.604C187.069 179.062 186.916 179.516 186.917 179.969C186.918 180.399 187.062 180.65 187.35 180.721C187.637 180.791 188.059 180.748 188.615 180.594Z" fill="#0048B4"/>
<path d="M183.822 196.758C182.6 196.758 181.466 196.471 180.463 195.893C178.069 194.515 176.747 191.669 176.735 187.88C176.713 180.296 182.076 171.024 188.688 167.211C192.018 165.292 195.176 164.997 197.588 166.387C199.979 167.763 201.302 170.609 201.314 174.401C201.334 181.99 195.974 191.263 189.365 195.073C187.421 196.193 185.534 196.758 183.822 196.758ZM194.232 166.725C192.731 166.725 191.046 167.237 189.289 168.251C183.007 171.872 177.914 180.676 177.936 187.877C177.945 191.219 179.055 193.697 181.062 194.853C183.086 196.021 185.826 195.728 188.764 194.033C195.043 190.415 200.133 181.609 200.112 174.404C200.104 171.059 198.993 168.58 196.989 167.426C196.175 166.957 195.245 166.725 194.232 166.725Z" fill="#0048B4"/>
<path d="M191.953 180.315C192.227 180.545 192.368 180.976 192.37 181.614C192.371 182.135 192.249 182.677 192.007 183.237C191.764 183.8 191.418 184.337 190.971 184.845C190.522 185.355 190.004 185.798 189.413 186.177L189.416 187.222C189.417 187.349 189.382 187.475 189.309 187.601C189.237 187.726 189.14 187.825 189.021 187.894C188.91 187.957 188.818 187.97 188.745 187.934C188.671 187.897 188.636 187.809 188.635 187.672L188.633 186.627C187.708 187.091 186.843 187.36 186.039 187.43C185.937 187.441 185.851 187.409 185.782 187.335C185.714 187.263 185.678 187.162 185.678 187.035C185.677 186.868 185.728 186.695 185.824 186.515C185.923 186.336 186.049 186.2 186.203 186.111C186.287 186.063 186.369 186.036 186.446 186.032C187.139 185.985 187.868 185.762 188.629 185.362L188.619 181.978C188.037 182.137 187.546 182.229 187.149 182.251C186.751 182.275 186.417 182.173 186.152 181.949C185.886 181.724 185.752 181.322 185.75 180.743C185.749 180.234 185.858 179.7 186.073 179.142C186.29 178.586 186.613 178.04 187.045 177.508C187.476 176.972 187.994 176.501 188.603 176.092L188.6 175.062C188.599 174.936 188.634 174.807 188.707 174.676C188.779 174.546 188.872 174.449 188.982 174.386C189.092 174.322 189.187 174.31 189.265 174.355C189.342 174.399 189.38 174.486 189.38 174.612L189.383 175.627C190.222 175.184 190.965 174.918 191.617 174.826C191.858 174.786 191.977 174.913 191.978 175.209C191.978 175.365 191.933 175.534 191.838 175.715C191.744 175.899 191.62 176.033 191.466 176.122C191.415 176.152 191.347 176.171 191.261 176.182C190.68 176.281 190.055 176.507 189.387 176.864L189.397 180.367C190.015 180.175 190.525 180.064 190.931 180.027C191.338 179.988 191.678 180.086 191.953 180.315ZM189.41 184.912C190.616 184.12 191.217 183.214 191.214 182.191C191.213 181.809 191.059 181.601 190.757 181.565C190.452 181.528 190.001 181.59 189.401 181.748L189.41 184.912ZM188.615 180.594L188.606 177.358C188.093 177.732 187.683 178.148 187.377 178.604C187.069 179.062 186.916 179.516 186.917 179.969C186.918 180.399 187.062 180.65 187.35 180.721C187.637 180.791 188.059 180.748 188.615 180.594Z" fill="#0048B4"/>
<path d="M469.847 190.179C469.745 190.179 469.643 190.153 469.55 190.098L469.548 190.097C469.548 190.097 469.548 190.097 469.547 190.095L464.002 186.851C463.384 186.489 462.987 185.806 462.88 184.928L458.902 155.657C458.902 155.654 458.902 155.653 458.901 155.65C458.757 154.472 459.152 153.312 459.51 152.546C459.58 152.396 459.709 152.282 459.867 152.233C460.028 152.187 460.196 152.203 460.34 152.288L465.88 155.529C466.143 155.683 466.245 156.012 466.116 156.287C465.702 157.171 465.521 158.047 465.608 158.753L469.586 188.016C469.63 188.382 469.762 188.857 470.146 189.083C470.426 189.248 470.519 189.607 470.354 189.887C470.245 190.074 470.048 190.179 469.847 190.179ZM460.068 155.502L464.048 184.779C464.091 185.145 464.222 185.616 464.597 185.834L468.405 188.065L464.44 158.903C464.344 158.101 464.48 157.207 464.839 156.283L460.33 153.645C460.096 154.317 460.002 154.96 460.068 155.502Z" fill="#0048B4"/>
<path d="M538.436 197.971C537.935 197.971 537.421 197.88 536.964 197.707C536.729 197.605 536.612 197.553 536.496 197.48L533.275 195.606C533.094 195.501 532.982 195.305 532.982 195.096L533.026 167.508C533.028 167.298 533.14 167.097 533.322 166.992C533.503 166.886 533.729 166.882 533.91 166.985L537.188 168.882C537.365 168.988 537.573 169.069 537.816 169.131C538.119 169.202 538.455 169.224 538.775 169.202C538.991 169.2 539.157 169.178 539.305 169.135C539.545 169.083 539.763 168.997 539.944 168.888L547.554 164.456C547.8 164.314 547.952 164.137 547.952 163.995V163.992C547.953 163.669 548.216 163.406 548.541 163.406C548.865 163.408 549.13 163.67 549.13 163.995V163.998V164.002L549.028 191.571C549.028 191.978 548.861 192.568 548.071 193.055L540.456 197.488C540.023 197.748 539.452 197.913 538.856 197.949C538.718 197.964 538.577 197.971 538.436 197.971ZM534.16 194.76L537.102 196.472C537.183 196.522 537.25 196.549 537.322 196.579C537.793 196.764 538.296 196.822 538.759 196.777C539.19 196.75 539.581 196.642 539.857 196.476L547.467 192.045C547.635 191.942 547.85 191.767 547.85 191.569L547.946 165.589L540.543 169.9C540.257 170.073 539.916 170.208 539.588 170.277C539.374 170.34 539.103 170.377 538.821 170.377C538.428 170.407 537.965 170.376 537.537 170.272C537.177 170.183 536.861 170.057 536.592 169.898L534.201 168.515L534.16 194.76Z" fill="#0048B4"/>
<path d="M538.456 197.965C537.908 197.965 537.397 197.876 536.959 197.704C536.729 197.605 536.612 197.553 536.496 197.48L533.275 195.606C533.094 195.501 532.982 195.306 532.982 195.096L533.026 167.508C533.028 167.298 533.14 167.097 533.322 166.992C533.503 166.886 533.729 166.882 533.91 166.985L537.188 168.882C537.365 168.989 537.573 169.069 537.816 169.131C538.119 169.203 538.455 169.224 538.775 169.203C538.936 169.183 539.1 169.246 539.22 169.356C539.341 169.468 539.41 169.625 539.41 169.789V197.362C539.41 197.669 539.173 197.925 538.867 197.948C538.728 197.96 538.591 197.965 538.456 197.965ZM534.16 194.76L537.102 196.472C537.183 196.522 537.25 196.549 537.322 196.579C537.606 196.694 537.912 196.759 538.232 196.78V170.377C537.997 170.362 537.763 170.327 537.537 170.273C537.177 170.183 536.861 170.057 536.592 169.898L534.201 168.515L534.16 194.76Z" fill="#0048B4"/>
<path d="M538.521 170.389C538.202 170.389 537.86 170.35 537.537 170.272C537.204 170.203 536.862 170.073 536.592 169.912L533.321 168.019C533.138 167.913 533.026 167.719 533.026 167.509L533.041 160.449C533.042 160.241 533.153 160.047 533.334 159.942L536.539 158.074C537.631 157.422 539.367 157.419 540.487 158.075L548.13 162.501C548.776 162.882 549.13 163.412 549.13 163.995C549.13 164.572 548.771 165.111 548.144 165.474L540.544 169.915C540.28 170.073 539.938 170.203 539.588 170.277C539.374 170.34 539.103 170.377 538.821 170.377C538.725 170.384 538.624 170.389 538.521 170.389ZM534.204 167.17L537.188 168.896C537.355 168.997 537.575 169.079 537.796 169.125C538.117 169.201 538.452 169.224 538.775 169.202C538.991 169.2 539.157 169.178 539.305 169.135C539.568 169.079 539.786 168.997 539.944 168.902L547.553 164.456C547.8 164.314 547.952 164.137 547.952 163.995C547.952 163.851 547.793 163.668 547.536 163.517L539.894 159.091C539.149 158.656 537.862 158.653 537.137 159.088L534.217 160.79L534.204 167.17Z" fill="#0048B4"/>
<path d="M523.589 206.669C522.874 206.669 522.175 206.504 521.625 206.2L518.394 204.327C518.211 204.222 518.099 204.027 518.099 203.817L518.172 181.391C518.172 181.236 518.025 181.063 517.767 180.918L513.318 178.326C513.137 178.22 513.025 178.026 513.025 177.816L513.07 151.979C513.071 151.654 513.334 151.392 513.659 151.392C513.983 151.393 514.248 151.656 514.248 151.98C514.248 152.199 514.493 152.371 514.64 152.454L522.291 156.882C522.706 157.123 523.288 157.248 523.887 157.201C524.029 157.199 524.207 157.247 524.326 157.359C524.445 157.471 524.513 157.626 524.513 157.788V206.068C524.513 206.374 524.277 206.628 523.973 206.654C523.845 206.665 523.717 206.669 523.589 206.669ZM519.277 203.48L522.204 205.177C522.51 205.345 522.912 205.453 523.335 205.483V158.374C522.729 158.332 522.163 158.17 521.701 157.9L514.245 153.585L514.203 177.48L518.352 179.897C518.992 180.259 519.35 180.79 519.35 181.392L519.277 203.48Z" fill="#0048B4"/>
<path d="M523.591 206.67C522.874 206.67 522.175 206.505 521.625 206.2L518.394 204.328C518.211 204.223 518.099 204.027 518.099 203.818L518.172 181.391C518.172 181.236 518.025 181.064 517.767 180.919L513.318 178.327C513.137 178.22 513.025 178.026 513.025 177.817L513.07 151.979C513.071 151.655 513.334 151.392 513.659 151.392C513.983 151.394 514.248 151.656 514.248 151.981C514.248 152.199 514.493 152.372 514.64 152.455L522.291 156.882C522.706 157.124 523.288 157.249 523.887 157.201C524.351 157.188 524.757 157.081 525.051 156.895L532.657 152.458C532.913 152.314 533.055 152.147 533.055 151.997V151.994C533.056 151.669 533.319 151.406 533.644 151.406C533.968 151.408 534.233 151.671 534.233 151.995V151.998L534.145 200.276C534.145 200.851 533.786 201.389 533.161 201.754L525.574 206.194C525.161 206.443 524.621 206.598 523.974 206.654C523.847 206.666 523.719 206.67 523.591 206.67ZM519.277 203.48L522.204 205.178C522.637 205.416 523.265 205.53 523.875 205.482C524.333 205.442 524.714 205.339 524.974 205.182L532.568 200.737C532.815 200.594 532.967 200.417 532.967 200.275L533.052 153.589L525.66 157.901C525.208 158.186 524.59 158.359 523.94 158.376C523.131 158.436 522.32 158.261 521.701 157.901L514.245 153.585L514.203 177.481L518.352 179.898C518.992 180.26 519.35 180.791 519.35 181.393L519.277 203.48Z" fill="#0048B4"/>
<path d="M523.686 158.392C522.975 158.392 522.262 158.231 521.707 157.908L514.064 153.476C513.43 153.11 513.067 152.567 513.067 151.986C513.065 151.409 513.424 150.869 514.052 150.503L521.646 146.071C522.749 145.425 524.487 145.425 525.598 146.071L533.24 150.503C533.871 150.868 534.232 151.411 534.234 151.992C534.235 152.57 533.878 153.111 533.254 153.476L525.659 157.908C525.107 158.231 524.396 158.392 523.686 158.392ZM523.62 146.759C523.115 146.759 522.613 146.868 522.239 147.086L514.644 151.52C514.392 151.666 514.243 151.84 514.243 151.985C514.243 152.13 514.401 152.312 514.654 152.459L522.297 156.891C523.051 157.326 524.317 157.33 525.066 156.891L532.661 152.459C532.91 152.314 533.058 152.14 533.058 151.994C533.058 151.844 532.905 151.668 532.651 151.52L525.008 147.088C524.631 146.87 524.125 146.759 523.62 146.759Z" fill="#0048B4"/>
<path d="M508.7 215.362C508.232 215.362 507.762 215.292 507.345 215.157C507.113 215.081 506.899 214.986 506.725 214.883L503.497 213.018C503.314 212.912 503.202 212.717 503.202 212.506L503.275 196.963C503.275 196.812 503.129 196.638 502.873 196.487L498.423 193.917C498.24 193.81 498.128 193.615 498.128 193.404L498.173 181.374C498.174 181.05 498.437 180.788 498.762 180.788C499.086 180.789 499.351 181.052 499.351 181.376C499.351 181.52 499.51 181.702 499.768 181.855L507.409 186.281C507.822 186.521 508.402 186.647 509.004 186.598C509.143 186.591 509.324 186.646 509.444 186.756C509.563 186.868 509.63 187.023 509.63 187.186V214.759C509.63 215.065 509.396 215.319 509.092 215.345C508.963 215.356 508.83 215.362 508.7 215.362ZM504.381 212.17L507.321 213.867C507.427 213.93 507.562 213.989 507.709 214.037C507.934 214.111 508.191 214.157 508.453 214.176V187.77C507.847 187.726 507.274 187.562 506.818 187.298L499.345 182.969L499.306 193.068L503.468 195.471C504.325 195.977 504.453 196.625 504.453 196.966L504.381 212.17Z" fill="#0048B4"/>
<path d="M508.642 215.371C508.196 215.371 507.738 215.296 507.33 215.151C507.113 215.081 506.899 214.986 506.725 214.883L503.497 213.018C503.314 212.912 503.202 212.717 503.202 212.506L503.275 196.963C503.275 196.812 503.129 196.638 502.873 196.487L498.423 193.917C498.24 193.81 498.128 193.615 498.128 193.404L498.173 181.374C498.174 181.05 498.437 180.788 498.762 180.788C499.086 180.789 499.351 181.052 499.351 181.376C499.351 181.52 499.51 181.702 499.768 181.855L507.409 186.281C507.822 186.521 508.402 186.647 509.004 186.598C509.441 186.574 509.856 186.46 510.177 186.278L517.775 181.853C518.019 181.704 518.171 181.53 518.172 181.394V181.391C518.174 181.066 518.437 180.803 518.761 180.803C519.086 180.805 519.35 181.068 519.35 181.392V181.395L519.262 208.967C519.262 209.542 518.903 210.082 518.279 210.444L510.677 214.885C510.209 215.153 509.656 215.312 509.076 215.346C508.934 215.362 508.789 215.371 508.642 215.371ZM504.381 212.17L507.321 213.867C507.427 213.93 507.562 213.989 507.709 214.037C508.095 214.175 508.547 214.226 508.975 214.175C509.401 214.149 509.785 214.04 510.087 213.867L517.686 209.427C517.933 209.285 518.085 209.108 518.085 208.966L518.168 182.985L510.763 187.298C510.275 187.575 509.692 187.738 509.075 187.773C508.256 187.819 507.427 187.654 506.818 187.298L499.343 182.969L499.306 193.068L503.468 195.471C504.325 195.977 504.453 196.625 504.453 196.966L504.381 212.17Z" fill="#0048B4"/>
<path d="M508.796 187.785C508.085 187.785 507.373 187.624 506.818 187.301L499.174 182.867C498.542 182.501 498.179 181.96 498.177 181.379C498.176 180.804 498.535 180.262 499.161 179.894L506.757 175.463C507.86 174.819 509.599 174.816 510.707 175.463L518.35 179.894C518.981 180.261 519.344 180.804 519.344 181.385C519.346 181.963 518.988 182.502 518.363 182.867L510.769 187.301C510.218 187.622 509.507 187.785 508.796 187.785ZM508.73 176.152C508.226 176.152 507.723 176.261 507.35 176.479L499.754 180.911C499.504 181.058 499.353 181.233 499.353 181.378C499.353 181.522 499.511 181.703 499.764 181.85L507.409 186.284C508.16 186.719 509.426 186.72 510.177 186.284L517.77 181.85C518.02 181.705 518.168 181.532 518.168 181.387C518.168 181.237 518.016 181.059 517.76 180.911L510.119 176.479C509.741 176.261 509.235 176.152 508.73 176.152Z" fill="#0048B4"/>
<path d="M493.809 224.054C493.074 224.054 492.371 223.884 491.84 223.571L484.197 219.141C483.552 218.77 483.19 218.219 483.205 217.629L483.286 196.961V196.957C483.288 196.634 483.551 196.371 483.875 196.371C484.2 196.373 484.464 196.635 484.464 196.96C484.464 197.109 484.616 197.286 484.87 197.432L492.516 201.864C492.923 202.1 493.512 202.215 494.112 202.179C494.281 202.18 494.432 202.228 494.55 202.338C494.668 202.449 494.735 202.604 494.735 202.766V223.452C494.735 223.758 494.5 224.014 494.194 224.038C494.064 224.048 493.937 224.054 493.809 224.054ZM484.457 198.553L484.381 217.646C484.378 217.764 484.481 217.949 484.784 218.123L492.432 222.556C492.729 222.73 493.128 222.837 493.558 222.869V203.349C492.947 203.305 492.374 203.142 491.926 202.881L484.457 198.553Z" fill="#0048B4"/>
<path d="M493.816 224.06C493.105 224.06 492.394 223.897 491.84 223.571L484.197 219.141C483.552 218.77 483.19 218.219 483.205 217.629L483.286 196.957C483.288 196.634 483.551 196.371 483.875 196.371C484.2 196.373 484.464 196.635 484.464 196.96C484.464 197.109 484.616 197.286 484.87 197.432L492.516 201.864C493.269 202.301 494.54 202.301 495.289 201.864L502.881 197.434C503.129 197.287 503.28 197.115 503.281 196.97V196.964C503.283 196.641 503.547 196.378 503.87 196.378C504.195 196.38 504.459 196.643 504.459 196.967V196.981L504.366 217.662C504.366 218.239 504.02 218.765 503.392 219.138L495.789 223.573C495.236 223.897 494.525 224.06 493.816 224.06ZM484.457 198.553L484.381 217.646C484.378 217.764 484.481 217.949 484.784 218.123L492.432 222.556C493.173 222.987 494.461 222.988 495.196 222.557L502.796 218.124C503.04 217.979 503.188 217.804 503.188 217.659L503.274 198.565L495.881 202.881C494.771 203.527 493.033 203.527 491.926 202.881L484.457 198.553Z" fill="#0048B4"/>
<path d="M493.906 203.366C493.195 203.366 492.483 203.205 491.927 202.882L484.286 198.45C483.652 198.084 483.289 197.541 483.288 196.961C483.286 196.384 483.645 195.844 484.273 195.478L491.867 191.046C492.968 190.4 494.706 190.398 495.819 191.046L503.462 195.478C504.091 195.842 504.455 196.387 504.455 196.967C504.456 197.546 504.098 198.086 503.474 198.45L495.88 202.882C495.328 203.205 494.617 203.366 493.906 203.366ZM493.84 191.734C493.336 191.734 492.834 191.843 492.46 192.063L484.864 196.494C484.613 196.641 484.464 196.815 484.464 196.96C484.464 197.105 484.622 197.286 484.875 197.434L492.518 201.866C493.271 202.301 494.538 202.305 495.286 201.866L502.882 197.434C503.13 197.289 503.278 197.115 503.278 196.968C503.278 196.819 503.126 196.642 502.872 196.494L495.229 192.063C494.851 191.844 494.346 191.734 493.84 191.734Z" fill="#0048B4"/>
<path d="M493.592 184.368C493.483 184.368 493.372 184.339 493.273 184.28L487.391 180.825C487.21 180.719 487.099 180.525 487.099 180.315C487.101 180.107 487.213 179.913 487.394 179.808L490.07 178.264C490.444 178.056 490.809 177.989 491.14 178.072C491.264 178.111 491.346 178.154 491.416 178.198C491.583 178.284 491.689 178.419 491.741 178.5L491.331 178.944L491.824 178.622L493.988 183.4C494.198 183.608 494.218 183.92 494.037 184.154C493.926 184.297 493.761 184.368 493.592 184.368ZM488.857 180.322L492.194 182.283L490.809 179.212C490.794 179.222 490.734 179.241 490.652 179.287L488.857 180.322ZM490.814 179.212C490.836 179.229 490.876 179.248 490.909 179.261C490.876 179.247 490.845 179.231 490.814 179.212ZM490.8 179.192C490.8 179.195 490.801 179.196 490.803 179.199L490.8 179.192Z" fill="#0048B4"/>
<path d="M470.631 190.375C470.285 190.375 469.959 190.302 469.662 190.154C468.974 189.811 468.533 189.107 468.418 188.171L464.441 158.9C464.174 156.723 465.659 153.904 467.681 152.736C468.07 152.511 468.467 152.36 468.859 152.287C474.022 151.317 479.179 149.361 484.185 146.472C489.283 143.531 494.374 139.535 499.319 134.596C499.697 134.217 500.094 133.907 500.498 133.673C501.479 133.11 502.471 133.033 503.219 133.462C503.963 133.89 504.374 134.749 504.377 135.877L504.476 167.522C504.48 169.639 503.044 172.128 501.207 173.188L497.798 175.155C497.501 175.326 497.215 175.72 497.102 176.113L495.006 183.239C494.877 183.669 494.593 184.044 494.247 184.243C493.982 184.398 493.698 184.44 493.447 184.354C493.215 184.279 493.032 184.11 492.927 183.876L490.807 179.208C490.791 179.217 490.735 179.231 490.652 179.28L472.268 189.887C471.705 190.212 471.147 190.375 470.631 190.375ZM501.087 134.693C500.771 134.875 500.456 135.122 500.15 135.429C495.133 140.44 489.96 144.499 484.774 147.491C479.651 150.446 474.371 152.449 469.076 153.444C468.814 153.492 468.544 153.596 468.27 153.754C466.67 154.678 465.401 157.059 465.609 158.749L469.585 188.02C469.633 188.404 469.774 188.895 470.187 189.102C470.556 189.288 471.103 189.201 471.679 188.868L490.063 178.26C490.445 178.041 490.843 177.977 491.189 178.088C491.489 178.183 491.732 178.402 491.871 178.704L493.83 183.021C493.849 182.985 493.866 182.946 493.879 182.903L495.971 175.784C496.168 175.105 496.655 174.456 497.211 174.136L500.619 172.168C502.075 171.328 503.303 169.203 503.298 167.525L503.199 135.88C503.198 135.188 502.997 134.691 502.633 134.482C502.257 134.266 501.696 134.342 501.087 134.693Z" fill="#0048B4"/>
<path d="M465.583 156.626C465.48 156.626 465.378 156.599 465.286 156.546L459.745 153.303C459.483 153.15 459.381 152.821 459.51 152.545C460.136 151.209 461.095 150.098 462.142 149.495C462.501 149.276 462.914 149.12 463.321 149.047C468.417 148.081 474.766 146.878 479.84 143.953C483.779 141.675 486.927 138.412 490.57 134.634C491.602 133.565 492.661 132.467 493.777 131.352C494.168 130.96 494.567 130.648 494.963 130.429C495.934 129.863 496.928 129.784 497.679 130.22H497.682L503.227 133.466L503.23 133.469C503.51 133.633 503.605 133.992 503.441 134.272C503.277 134.553 502.915 134.648 502.638 134.484C502.258 134.266 501.697 134.341 501.089 134.691C500.765 134.879 500.447 135.129 500.146 135.431C495.133 140.437 489.961 144.493 484.777 147.488C479.662 150.444 474.378 152.447 469.072 153.441C468.813 153.494 468.536 153.6 468.26 153.754C467.437 154.231 466.633 155.179 466.116 156.286C466.046 156.437 465.916 156.55 465.758 156.599C465.701 156.616 465.642 156.626 465.583 156.626ZM460.821 152.569L465.345 155.216C465.957 154.136 466.785 153.249 467.679 152.732C468.068 152.515 468.458 152.365 468.846 152.286C474.031 151.316 479.189 149.36 484.188 146.469C489.285 143.526 494.373 139.531 499.315 134.598C499.687 134.226 500.085 133.914 500.5 133.671C500.635 133.595 500.768 133.528 500.902 133.469L497.09 131.237C496.71 131.02 496.15 131.099 495.545 131.451C495.239 131.622 494.919 131.873 494.609 132.184C493.497 133.294 492.443 134.387 491.418 135.451C487.866 139.133 484.511 142.611 480.428 144.972C475.181 147.997 468.723 149.22 463.534 150.203C463.261 150.251 462.988 150.358 462.74 150.507C462.022 150.921 461.331 151.67 460.821 152.569Z" fill="#0048B4"/>
<path d="M477.062 181.016C476.83 181.016 476.611 180.959 476.419 180.845C476.001 180.6 475.761 180.117 475.761 179.524L475.732 169.32C475.732 169.197 475.771 169.076 475.843 168.976L485.24 155.873C485.379 155.68 485.613 155.594 485.853 155.643L494.75 157.731C495.014 157.794 495.202 158.03 495.203 158.303L495.234 168.964C495.234 170.017 494.553 171.189 493.649 171.687L477.938 180.769C477.641 180.933 477.341 181.016 477.062 181.016ZM476.91 169.507L476.939 179.523C476.939 179.722 476.992 179.817 477.016 179.833C477.048 179.847 477.169 179.849 477.36 179.745L493.071 170.662C493.601 170.37 494.056 169.58 494.056 168.967L494.027 158.771L485.966 156.878L476.91 169.507Z" fill="#0048B4"/>
<path d="M473.375 172.623C472.863 172.623 472.393 172.427 472.054 172.071C471.22 171.222 471.294 169.645 472.236 168.327L483.725 152.285C484.03 151.85 484.413 151.489 484.833 151.253C485.36 150.948 485.934 150.853 486.44 150.967L497.832 153.616C498.355 153.726 498.812 154.083 499.073 154.593C499.418 155.315 499.376 156.236 498.963 157.135C498.631 157.893 498.072 158.537 497.427 158.9C496.92 159.204 496.346 159.313 495.825 159.183L485.966 156.882L475.667 171.256C475.353 171.69 474.971 172.048 474.562 172.292C474.157 172.519 473.773 172.623 473.375 172.623ZM486.007 152.096C485.824 152.096 485.62 152.157 485.417 152.274C485.15 152.424 484.892 152.67 484.686 152.964L473.193 169.012C472.544 169.919 472.535 170.881 472.898 171.252C473.147 171.51 473.559 171.503 473.974 171.273C474.227 171.121 474.495 170.867 474.712 170.568L485.238 155.877C485.376 155.684 485.62 155.597 485.849 155.647L496.096 158.038C496.323 158.09 496.58 158.035 496.836 157.883C497.271 157.638 497.659 157.182 497.886 156.66C497.888 156.655 497.89 156.651 497.891 156.647C498.156 156.075 498.203 155.502 498.019 155.116C497.926 154.935 497.766 154.804 497.578 154.765L486.175 152.113C486.124 152.101 486.068 152.096 486.007 152.096Z" fill="#0048B4"/>
<path d="M482.15 178.248C482.05 178.248 481.948 178.221 481.857 178.169C481.675 178.065 481.563 177.871 481.562 177.661L481.54 169.916C481.537 169.018 482.123 168 482.904 167.548L487.474 164.904C487.942 164.634 488.431 164.605 488.815 164.826C489.202 165.048 489.424 165.487 489.427 166.028L489.449 173.775C489.449 173.985 489.337 174.18 489.154 174.286L482.445 178.169C482.354 178.221 482.252 178.248 482.15 178.248ZM488.063 165.922L483.493 168.566C483.085 168.803 482.715 169.444 482.718 169.912L482.736 176.641L488.271 173.437L488.25 166.033C488.25 165.928 488.231 165.872 488.221 165.847C488.208 165.858 488.152 165.87 488.063 165.922Z" fill="#0048B4"/>
<path d="M486.864 169.996C487.153 169.829 487.384 169.967 487.385 170.295C487.386 170.627 487.156 171.029 486.868 171.195C486.581 171.361 486.346 171.229 486.345 170.897C486.344 170.569 486.578 170.162 486.864 169.996Z" fill="#0048B4"/>
<path d="M796.409 215.664C796.309 215.664 796.208 215.639 796.114 215.584L789.682 211.845C788.425 211.124 787.702 209.586 787.702 207.628L787.595 167.517C787.578 163.601 790.246 158.983 793.667 157.005L852.899 122.819C854.631 121.807 856.309 121.66 857.619 122.409L864.04 126.14C864.045 126.143 864.051 126.146 864.056 126.149C864.056 126.149 864.057 126.151 864.058 126.151C864.338 126.314 864.432 126.675 864.269 126.955C864.104 127.236 863.746 127.331 863.465 127.167L863.449 127.157C862.536 126.632 861.284 126.776 859.918 127.563L800.673 161.762C797.648 163.505 795.188 167.763 795.188 171.255L795.31 211.366C795.31 212.902 795.807 214.039 796.708 214.569C796.988 214.733 797.082 215.092 796.918 215.372C796.809 215.56 796.612 215.664 796.409 215.664ZM855.792 123.115C855.094 123.115 854.31 123.357 853.489 123.837L794.255 158.024C791.217 159.78 788.756 164.038 788.771 167.513L788.878 207.627C788.878 209.153 789.385 210.319 790.271 210.826L794.376 213.213C794.217 212.66 794.134 212.041 794.134 211.367L794.012 171.257C794.012 167.388 796.736 162.673 800.085 160.743L859.33 126.544C859.942 126.192 860.545 125.946 861.124 125.806L857.032 123.428C856.666 123.219 856.248 123.115 855.792 123.115Z" fill="#0048B4"/>
<path d="M797.927 216.062C797.276 216.062 796.67 215.909 796.132 215.599C794.852 214.864 794.143 213.361 794.135 211.367L794.018 171.249C794.002 167.399 796.726 162.683 800.09 160.738L859.341 126.546C861.074 125.54 862.742 125.392 864.029 126.13C865.312 126.866 866.024 128.369 866.032 130.363L866.12 162.54C866.121 162.713 866.044 162.879 865.911 162.991C865.778 163.103 865.601 163.15 865.43 163.121C863.437 162.767 861.078 163.336 858.604 164.757C851.447 168.894 845.635 178.957 845.649 187.188C845.649 187.769 845.692 188.336 845.749 188.86C845.774 189.091 845.661 189.316 845.458 189.433L800.826 215.184C799.815 215.767 798.828 216.062 797.927 216.062ZM862.229 126.844C861.537 126.844 860.753 127.087 859.93 127.564L800.678 161.757C797.64 163.513 795.179 167.77 795.194 171.245L795.311 211.363C795.317 212.919 795.817 214.062 796.718 214.579C797.624 215.098 798.872 214.952 800.237 214.165L844.541 188.604C844.5 188.151 844.473 187.675 844.473 187.189C844.458 178.584 850.534 168.063 858.017 163.738C860.462 162.334 862.84 161.698 864.942 161.873L864.856 130.366C864.849 128.811 864.348 127.668 863.443 127.151C863.086 126.946 862.676 126.844 862.229 126.844Z" fill="#0048B4"/>
<path d="M833.209 152.77C833.006 152.77 832.808 152.664 832.699 152.475C832.536 152.194 832.633 151.835 832.915 151.672L859.055 136.587C859.338 136.426 859.696 136.522 859.859 136.803C860.021 137.084 859.924 137.443 859.643 137.606L833.502 152.691C833.41 152.744 833.309 152.77 833.209 152.77Z" fill="#0048B4"/>
<path d="M839.965 159.747C839.761 159.747 839.563 159.642 839.454 159.453C839.292 159.172 839.389 158.812 839.67 158.649L859.055 147.462C859.336 147.302 859.696 147.397 859.859 147.678C860.021 147.959 859.924 148.318 859.642 148.481L840.258 159.669C840.166 159.722 840.064 159.747 839.965 159.747Z" fill="#0048B4"/>
<path d="M833.209 174.521C833.006 174.521 832.808 174.416 832.699 174.227C832.536 173.946 832.633 173.586 832.915 173.423L859.055 158.338C859.336 158.178 859.696 158.272 859.859 158.554C860.021 158.835 859.924 159.194 859.643 159.357L833.502 174.443C833.41 174.496 833.309 174.521 833.209 174.521Z" fill="#0048B4"/>
<path d="M833.209 185.397C833.006 185.397 832.808 185.291 832.699 185.102C832.536 184.822 832.633 184.462 832.915 184.299L847.438 175.918C847.718 175.758 848.079 175.854 848.241 176.134C848.403 176.415 848.307 176.774 848.025 176.937L833.502 185.319C833.41 185.372 833.309 185.397 833.209 185.397Z" fill="#0048B4"/>
<path d="M807.084 193.566C806.838 193.566 806.604 193.507 806.397 193.388C805.921 193.115 805.649 192.566 805.649 191.88L805.605 179.602C805.605 179.478 805.644 179.357 805.716 179.257L817.054 163.477C817.193 163.285 817.435 163.195 817.665 163.248L828.386 165.748C828.652 165.81 828.84 166.046 828.84 166.319L828.884 179.171V179.174C828.884 180.368 828.096 181.73 827.05 182.343L808.076 193.272C807.742 193.467 807.403 193.566 807.084 193.566ZM806.782 179.788L806.825 191.877C806.825 192.173 806.909 192.326 806.982 192.367C807.055 192.408 807.231 192.403 807.485 192.254L826.459 181.326C827.134 180.93 827.707 179.945 827.708 179.175L827.666 166.788L817.78 164.483L806.782 179.788Z" fill="#0048B4"/>
<path d="M802.644 183.455C802.059 183.455 801.524 183.232 801.137 182.827C800.173 181.844 800.268 180.009 801.368 178.47L815.226 159.156C815.576 158.654 816.037 158.222 816.521 157.948C817.116 157.604 817.752 157.479 818.369 157.614L832.112 160.805C832.708 160.932 833.228 161.338 833.528 161.919C833.928 162.755 833.877 163.827 833.393 164.876C833.001 165.767 832.345 166.521 831.592 166.945C831.004 167.298 830.343 167.42 829.747 167.275L817.776 164.486L805.31 181.858C804.939 182.367 804.492 182.786 804.014 183.073C803.546 183.333 803.104 183.455 802.644 183.455ZM817.878 158.736C817.635 158.736 817.368 158.817 817.106 158.968C816.768 159.16 816.443 159.467 816.186 159.836L802.325 179.156C801.582 180.193 801.432 181.447 801.983 182.009C802.316 182.357 802.879 182.358 803.425 182.055C803.752 181.858 804.08 181.548 804.356 181.169L817.049 163.481C817.187 163.289 817.432 163.199 817.661 163.251L830.018 166.13C830.316 166.204 830.664 166.131 831 165.928C831.544 165.622 832.03 165.054 832.318 164.399C832.319 164.395 832.32 164.392 832.322 164.388C832.656 163.667 832.713 162.94 832.474 162.443C832.343 162.189 832.121 162.01 831.856 161.953L818.11 158.761C818.037 158.746 817.956 158.736 817.878 158.736Z" fill="#0048B4"/>
<path d="M813.226 190.227C813.125 190.227 813.024 190.202 812.934 190.149C812.751 190.044 812.639 189.851 812.638 189.641L812.612 180.315C812.609 179.289 813.305 178.083 814.196 177.568L819.708 174.383C820.234 174.078 820.779 174.047 821.206 174.292C821.633 174.538 821.878 175.028 821.88 175.637L821.906 184.963C821.907 185.174 821.795 185.369 821.613 185.474L813.521 190.148C813.43 190.202 813.328 190.227 813.226 190.227ZM820.578 175.305C820.525 175.305 820.429 175.326 820.297 175.402L814.785 178.586C814.252 178.894 813.787 179.7 813.788 180.312L813.812 188.622L820.729 184.626L820.704 175.64C820.703 175.428 820.646 175.327 820.619 175.311C820.612 175.308 820.598 175.305 820.578 175.305Z" fill="#0048B4"/>
<path d="M818.912 180.412C819.26 180.211 819.539 180.377 819.54 180.772C819.541 181.172 819.264 181.655 818.916 181.856C818.571 182.056 818.287 181.897 818.286 181.497C818.285 181.102 818.567 180.611 818.912 180.412Z" fill="#0048B4"/>
<path d="M854.973 212.379C854.869 212.379 854.764 212.352 854.67 212.295C854.646 212.281 854.598 212.244 854.545 212.201L850.502 209.873C850.059 209.639 849.782 209.093 849.782 208.424L849.753 196.528C849.752 196.318 849.864 196.123 850.047 196.017C850.228 195.911 850.454 195.912 850.637 196.018L853.063 197.43C853.125 197.466 853.178 197.512 853.221 197.564C853.292 197.577 853.361 197.602 853.426 197.641C853.79 197.862 854.186 198.034 854.603 198.151C854.675 198.171 854.742 198.205 854.802 198.25C854.947 198.361 855.09 198.578 855.09 198.76L855.135 210.833C855.135 210.922 855.147 210.998 855.158 211.073C855.166 211.088 855.204 211.205 855.211 211.22L855.202 211.243C855.25 211.271 855.355 211.341 855.389 211.376C855.599 211.585 855.619 211.92 855.436 212.154C855.321 212.301 855.148 212.379 854.973 212.379ZM850.932 197.551L850.959 208.422C850.959 208.708 851.051 208.831 851.074 208.846L853.957 210.52L853.916 199.167C853.53 199.031 853.161 198.857 852.814 198.647C852.757 198.611 852.706 198.568 852.666 198.518C852.599 198.506 852.533 198.483 852.472 198.447L850.932 197.551Z" fill="#0048B4"/>
<path d="M855.387 212.481C855.139 212.481 854.902 212.423 854.69 212.307C854.641 212.28 854.597 212.247 854.557 212.207C854.446 212.132 854.371 212.069 854.306 211.969C854.259 211.913 854.177 211.806 854.118 211.656C854.063 211.553 854.016 211.402 853.994 211.24C853.975 211.114 853.958 210.984 853.958 210.836L853.915 198.764C853.914 198.578 854.001 198.395 854.151 198.283C854.3 198.172 854.494 198.13 854.672 198.184C856.857 198.84 859.49 198.335 862.281 196.724C865.127 195.071 867.838 192.452 870.121 189.148C870.268 188.938 870.535 188.844 870.78 188.921C871.025 188.997 871.193 189.224 871.193 189.481L871.223 201.54C871.223 202.711 870.428 204.087 869.413 204.669C869.044 204.894 868.638 204.989 868.257 204.949L863.301 204.241C863.227 204.229 863.075 204.24 862.872 204.359C862.651 204.487 862.434 204.69 862.258 204.932L857.336 211.327C857.04 211.71 856.704 212.013 856.362 212.203C856.038 212.387 855.703 212.481 855.387 212.481ZM855.307 211.295C855.426 211.327 855.601 211.282 855.784 211.177C855.99 211.063 856.209 210.862 856.404 210.609L861.316 204.227C861.581 203.862 861.918 203.552 862.281 203.341C862.69 203.104 863.118 203.01 863.492 203.081L868.409 203.782C868.518 203.801 868.663 203.749 868.814 203.657C869.404 203.318 870.046 202.371 870.047 201.542L870.021 191.276C867.878 194.039 865.431 196.255 862.871 197.741C860.096 199.345 857.427 199.942 855.094 199.497L855.135 210.834C855.135 210.923 855.147 210.998 855.158 211.073C855.165 211.088 855.204 211.205 855.211 211.221C855.238 211.235 855.274 211.264 855.307 211.295Z" fill="#0048B4"/>
<path d="M855.518 199.571C855.486 199.571 855.453 199.569 855.42 199.563C855.041 199.5 854.695 199.435 854.332 199.325C854.25 199.3 854.174 199.258 854.111 199.201C854.075 199.177 854.044 199.151 854.018 199.124C853.794 198.888 853.803 198.516 854.038 198.292C854.228 198.112 854.504 198.082 854.723 198.2C855.007 198.288 855.304 198.351 855.614 198.403C855.902 198.451 856.106 198.7 856.105 198.983C856.105 199.014 856.103 199.047 856.097 199.08C856.049 199.367 855.8 199.571 855.518 199.571Z" fill="#0048B4"/>
<path d="M856.625 199.644C855.83 199.644 855.065 199.535 854.338 199.318C850.787 198.254 848.66 194.627 848.646 189.618C848.621 181.009 854.699 170.486 862.194 166.16C865.945 163.996 869.501 163.663 872.209 165.223C874.903 166.773 876.393 169.988 876.405 174.275C876.419 179.206 874.48 184.869 871.085 189.813C868.715 193.265 865.875 196.005 862.869 197.74C860.682 199.002 858.562 199.644 856.625 199.644ZM868.443 165.433C866.72 165.433 864.792 166.019 862.783 167.18C855.613 171.317 849.799 181.381 849.822 189.615C849.835 194.144 851.604 197.27 854.676 198.19C856.856 198.844 859.483 198.335 862.281 196.721C865.135 195.074 867.844 192.455 870.115 189.146C873.378 184.395 875.242 178.976 875.229 174.278C875.218 170.429 873.937 167.574 871.622 166.242C870.681 165.701 869.609 165.433 868.443 165.433Z" fill="#0048B4"/>
<path d="M853.125 198.737C853.026 198.737 852.925 198.712 852.833 198.659C852.832 198.659 852.831 198.658 852.83 198.658C852.812 198.648 852.795 198.637 852.777 198.627L848.649 196.233C845.975 194.687 844.491 191.476 844.471 187.191C844.451 178.59 850.528 168.067 858.018 163.732C861.782 161.559 865.347 161.229 868.056 162.806L872.235 165.229L872.237 165.23C872.517 165.393 872.613 165.753 872.451 166.034C872.288 166.314 871.927 166.409 871.648 166.249C869.307 164.898 866.161 165.228 862.788 167.175C855.604 171.315 849.79 181.379 849.828 189.61C849.828 193.433 851.085 196.27 853.369 197.61L853.421 197.64C853.701 197.803 853.797 198.162 853.635 198.443C853.526 198.631 853.329 198.737 853.125 198.737ZM864.27 163.001C862.547 163.001 860.619 163.589 858.607 164.75C851.442 168.897 845.628 178.962 845.647 187.186C845.666 191.035 846.941 193.886 849.239 195.215L849.967 195.637C849.105 194.024 848.652 191.982 848.652 189.613C848.612 181.007 854.689 170.483 862.2 166.156C864.301 164.943 866.344 164.306 868.211 164.256L867.465 163.823C866.521 163.274 865.443 163.001 864.27 163.001Z" fill="#0048B4"/>
<path d="M853.119 198.732C853.018 198.732 852.917 198.706 852.824 198.652L852.471 198.447C852.191 198.283 852.095 197.923 852.259 197.643C852.422 197.361 852.784 197.268 853.063 197.43L853.416 197.636C853.696 197.799 853.792 198.159 853.628 198.44C853.519 198.628 853.321 198.732 853.119 198.732Z" fill="#0048B4"/>
<path d="M853.119 198.732C853.018 198.732 852.917 198.706 852.824 198.652L852.471 198.447C852.191 198.283 852.095 197.923 852.259 197.643C852.422 197.361 852.784 197.268 853.063 197.43L853.416 197.636C853.696 197.799 853.792 198.159 853.628 198.44C853.519 198.628 853.321 198.732 853.119 198.732Z" fill="#0048B4"/>
<path d="M859.855 190.283C859.463 190.283 859.086 190.23 858.727 190.122C856.976 189.598 855.928 187.841 855.92 185.423C855.909 181.423 858.733 176.533 862.216 174.523C864.014 173.485 865.738 173.333 867.07 174.098C868.394 174.86 869.126 176.415 869.131 178.475C869.138 180.771 868.239 183.402 866.666 185.693C865.567 187.294 864.244 188.568 862.843 189.377C861.803 189.978 860.789 190.283 859.855 190.283ZM865.204 174.795C864.481 174.795 863.663 175.046 862.803 175.542C859.646 177.364 857.087 181.795 857.097 185.42C857.102 187.319 857.819 188.622 859.064 188.995C859.965 189.265 861.067 189.044 862.254 188.359C863.505 187.637 864.696 186.484 865.697 185.027C867.116 182.959 867.961 180.511 867.955 178.478C867.95 176.855 867.428 175.662 866.483 175.118C866.108 174.902 865.676 174.795 865.204 174.795Z" fill="#0048B4"/>
<path d="M1188.63 141.24C1188.36 141.24 1188.08 141.223 1187.82 141.191C1187.79 141.186 1187.62 141.164 1187.58 141.152C1187.42 141.144 1187.15 141.094 1186.91 141.028C1186.64 140.967 1186.38 140.884 1186.13 140.785C1185.86 140.668 1185.62 140.555 1185.4 140.428C1185.32 140.388 1185.19 140.316 1185.09 140.244C1184.02 139.513 1183.19 138.424 1182.62 137.005C1182.55 136.835 1182.56 136.644 1182.65 136.486C1182.75 136.328 1182.91 136.223 1183.09 136.2C1184.06 136.079 1185.15 135.783 1186.42 135.294C1187.4 134.92 1188.3 134.945 1189.01 135.367L1195.43 139.114C1195.7 139.274 1195.8 139.621 1195.65 139.899C1195.5 140.176 1195.16 140.289 1194.88 140.153C1194.72 140.086 1194.65 140.067 1194.56 140.045C1194.31 139.993 1193.84 140.031 1193.38 140.203C1191.63 140.89 1190.03 141.24 1188.63 141.24ZM1184.02 137.24C1184.47 138.112 1185.05 138.793 1185.74 139.27C1185.81 139.31 1185.89 139.356 1185.96 139.391C1186.17 139.512 1186.37 139.606 1186.59 139.7C1186.77 139.771 1186.97 139.835 1187.19 139.888C1187.4 139.944 1187.61 139.983 1187.83 140.008C1188.18 140.05 1188.41 140.064 1188.63 140.064C1189.88 140.064 1191.33 139.741 1192.96 139.104C1192.99 139.095 1193.01 139.086 1193.03 139.079L1188.41 136.381C1187.91 136.084 1187.28 136.224 1186.84 136.392C1185.8 136.791 1184.87 137.07 1184.02 137.24Z" fill="#0048B4"/>
<path d="M1151.05 151.75C1150.95 151.75 1150.85 151.724 1150.75 151.671L1144.2 147.86C1144.02 147.754 1143.91 147.56 1143.91 147.351C1143.91 147.14 1144.02 146.947 1144.2 146.842L1172.47 130.527C1173.61 129.852 1174.77 129.755 1175.65 130.266L1182.2 134.077C1182.48 134.24 1182.58 134.6 1182.41 134.881C1182.25 135.162 1181.89 135.257 1181.61 135.093C1181.12 134.806 1180.39 134.896 1179.61 135.342L1151.34 151.671C1151.25 151.724 1151.15 151.75 1151.05 151.75ZM1145.67 147.354L1151.05 150.482L1179.02 134.324C1179.26 134.19 1179.49 134.08 1179.72 133.993L1175.06 131.283C1174.56 130.992 1173.83 131.088 1173.07 131.543L1145.67 147.354Z" fill="#0048B4"/>
<path d="M1163.78 224.058C1163.71 224.058 1163.65 224.056 1163.59 224.052C1145.24 222.64 1135.17 207.192 1133.65 178.136C1133.53 175.865 1134.96 172.978 1136.99 171.424C1142.32 167.328 1145.68 162.179 1146.97 156.122C1147.45 153.881 1148.97 151.681 1150.76 150.651L1179.02 134.329C1180.04 133.739 1181.06 133.594 1181.89 133.923C1182.61 134.207 1183.12 134.806 1183.38 135.653C1183.98 137.605 1184.95 138.921 1186.27 139.563C1187.89 140.35 1190.14 140.196 1192.97 139.104C1194.01 138.696 1195 138.764 1195.74 139.294C1196.55 139.877 1196.96 140.939 1196.9 142.285C1195.57 172.768 1185.71 199.528 1167.6 221.821C1167.03 222.52 1166.37 223.095 1165.7 223.485C1165.04 223.862 1164.38 224.058 1163.78 224.058ZM1179.61 135.347L1151.34 151.669C1149.85 152.53 1148.53 154.462 1148.12 156.367C1146.77 162.707 1143.26 168.086 1137.71 172.357C1135.99 173.675 1134.72 176.186 1134.83 178.074C1136.31 206.445 1146.02 221.519 1163.67 222.879C1164.09 222.91 1164.59 222.766 1165.11 222.466C1165.66 222.148 1166.2 221.668 1166.68 221.079C1184.63 198.987 1194.4 172.459 1195.73 142.232C1195.77 141.297 1195.53 140.592 1195.05 140.25C1194.53 139.878 1193.86 140.019 1193.39 140.201C1190.25 141.414 1187.68 141.557 1185.76 140.622C1184.13 139.831 1182.95 138.275 1182.25 135.995C1182.1 135.494 1181.83 135.166 1181.46 135.017C1180.97 134.823 1180.31 134.941 1179.61 135.347Z" fill="#0048B4"/>
<path d="M1162.64 217.745C1162.62 217.745 1162.6 217.744 1162.58 217.741C1148.82 216.235 1141.17 202.843 1139.85 177.937C1139.84 177.88 1139.85 177.822 1139.86 177.766C1139.96 177.341 1140.36 176.652 1140.76 176.342C1147.29 171.319 1151.42 164.952 1153.03 157.419C1153.14 156.889 1153.56 156.252 1153.87 156.011L1178.79 141.615C1179.05 141.463 1179.39 141.535 1179.56 141.776C1181.92 145.003 1185.52 146.562 1189.79 146.208C1189.96 146.196 1190.13 146.257 1190.25 146.378C1190.37 146.499 1190.44 146.668 1190.42 146.839C1188.38 173.785 1179.19 197.567 1163.1 217.526C1162.99 217.665 1162.82 217.745 1162.64 217.745ZM1141.03 177.976C1142.32 201.958 1149.51 214.928 1162.38 216.535C1178.06 196.982 1187.08 173.736 1189.2 147.422C1184.99 147.588 1181.41 146.005 1178.93 142.892L1154.53 156.982C1154.5 157.014 1154.24 157.397 1154.18 157.664C1152.51 165.479 1148.24 172.076 1141.48 177.274C1141.34 177.379 1141.11 177.748 1141.03 177.976Z" fill="#0048B4"/>
<path d="M1135.45 174.622C1135.35 174.622 1135.25 174.596 1135.16 174.542L1128.61 170.733C1128.47 170.653 1128.37 170.521 1128.33 170.367C1128.3 170.212 1128.32 170.049 1128.4 169.914C1128.98 168.994 1129.68 168.2 1130.44 167.617C1135.77 163.52 1139.13 158.371 1140.42 152.315C1140.9 150.074 1142.42 147.875 1144.21 146.843C1144.39 146.737 1144.61 146.737 1144.8 146.844L1151.35 150.652C1151.53 150.757 1151.64 150.951 1151.64 151.161C1151.64 151.371 1151.53 151.564 1151.34 151.669C1149.85 152.529 1148.53 154.461 1148.12 156.367C1146.77 162.706 1143.26 168.085 1137.71 172.356C1137.06 172.855 1136.45 173.543 1135.95 174.345C1135.84 174.524 1135.65 174.622 1135.45 174.622ZM1129.74 170.031L1135.27 173.247C1135.78 172.528 1136.37 171.904 1136.99 171.424C1142.32 167.328 1145.68 162.179 1146.97 156.122C1147.38 154.224 1148.53 152.357 1149.96 151.204L1144.51 148.039C1143.14 148.969 1141.95 150.777 1141.57 152.56C1140.22 158.898 1136.71 164.278 1131.16 168.549C1130.65 168.94 1130.17 169.446 1129.74 170.031Z" fill="#0048B4"/>
<path d="M1151.83 220.546C1151.73 220.546 1151.63 220.52 1151.54 220.466L1144.99 216.659C1134.26 210.425 1128.25 196.183 1127.1 174.329C1127.03 172.973 1127.5 171.363 1128.41 169.914C1128.57 169.644 1128.92 169.556 1129.2 169.716L1135.75 173.526C1135.89 173.605 1135.99 173.737 1136.02 173.892C1136.06 174.046 1136.04 174.209 1135.95 174.345C1135.18 175.594 1134.76 176.954 1134.83 178.074C1135.95 199.503 1141.77 213.422 1152.12 219.446L1152.13 219.449C1152.41 219.612 1152.51 219.973 1152.34 220.253C1152.23 220.441 1152.04 220.546 1151.83 220.546ZM1129.12 171.03C1128.53 172.136 1128.22 173.291 1128.28 174.266C1129.4 195.659 1135.2 209.568 1145.52 215.608C1138.55 208.053 1134.56 195.497 1133.65 178.136C1133.59 176.942 1133.95 175.553 1134.65 174.247L1129.12 171.03Z" fill="#0048B4"/>
<path d="M1154.75 199.65C1154.56 199.65 1154.38 199.604 1154.22 199.512C1153.86 199.306 1153.66 198.908 1153.65 198.418L1153.62 185.053L1151.31 186.387C1150.67 186.752 1150.15 186.573 1149.86 186.288C1149.39 185.81 1149.4 184.949 1149.88 184.143L1163.96 160.677C1164.18 160.317 1164.47 160.021 1164.79 159.839C1165.19 159.606 1165.6 159.566 1165.95 159.73L1180.13 166.881C1180.5 167.06 1180.73 167.445 1180.75 167.932C1180.78 168.734 1180.27 169.647 1179.56 170.055L1176.99 171.541C1176.83 171.634 1176.67 171.926 1176.67 172.12L1176.71 185.771C1176.71 186.56 1176.19 187.453 1175.51 187.849L1170.37 190.82C1169.95 191.064 1169.5 191.087 1169.15 190.883C1168.8 190.679 1168.59 190.278 1168.59 189.784L1168.57 183.576L1162.35 187.147C1162.04 187.327 1161.75 187.827 1161.75 188.196L1161.77 194.404C1161.77 195.193 1161.26 196.086 1160.57 196.482L1155.43 199.453C1155.21 199.584 1154.97 199.65 1154.75 199.65ZM1153.85 183.726C1154.01 183.726 1154.17 183.767 1154.31 183.848C1154.62 184.024 1154.79 184.358 1154.79 184.763L1154.83 198.414L1159.98 195.464C1160.3 195.281 1160.59 194.768 1160.59 194.407L1160.58 188.198C1160.57 187.41 1161.08 186.52 1161.76 186.128L1167.96 182.546C1168.38 182.299 1168.83 182.276 1169.19 182.482C1169.54 182.687 1169.75 183.084 1169.75 183.572L1169.77 189.781L1174.92 186.831C1175.23 186.649 1175.53 186.135 1175.53 185.774L1175.49 172.122C1175.49 171.501 1175.87 170.829 1176.4 170.523L1178.97 169.037C1179.43 168.773 1179.64 168.062 1179.56 167.89L1165.44 160.788C1165.44 160.789 1165.38 160.857 1165.38 160.857C1165.23 160.942 1165.08 161.098 1164.97 161.286L1150.89 184.747C1150.66 185.132 1150.68 185.417 1150.71 185.476L1153.27 183.892C1153.46 183.782 1153.66 183.726 1153.85 183.726Z" fill="#0048B4"/>
<path d="M1467.06 215.679C1466.96 215.679 1466.86 215.653 1466.77 215.599L1459.22 211.208C1458.07 210.539 1457.38 209.218 1457.28 207.49L1454.37 155.847C1454.36 155.632 1454.47 155.427 1454.65 155.313C1454.84 155.2 1455.07 155.197 1455.25 155.306L1462.8 159.696C1462.97 159.795 1463.08 159.975 1463.09 160.172L1466 211.799C1466.09 213.126 1466.57 214.117 1467.36 214.583C1467.64 214.749 1467.74 215.108 1467.57 215.388C1467.46 215.574 1467.27 215.679 1467.06 215.679ZM1455.61 156.873L1458.45 207.423C1458.53 208.743 1459.01 209.726 1459.81 210.192L1465.06 213.243C1464.94 212.823 1464.86 212.363 1464.82 211.872L1461.93 160.554L1455.61 156.873Z" fill="#0048B4"/>
<path d="M1468.17 150.575C1468.07 150.575 1467.96 150.548 1467.87 150.495L1460.31 146.105C1460.13 146 1460.02 145.806 1460.02 145.595C1460.02 145.385 1460.13 145.191 1460.31 145.087L1498.93 122.799C1500.65 121.803 1502.31 121.663 1503.57 122.403L1511.13 126.793C1511.41 126.955 1511.51 127.315 1511.35 127.596C1511.19 127.877 1510.82 127.972 1510.55 127.811C1509.65 127.299 1508.42 127.438 1507.08 128.209L1468.46 150.496C1468.37 150.548 1468.27 150.575 1468.17 150.575ZM1461.78 145.598L1468.17 149.307L1506.49 127.19C1507.08 126.848 1507.67 126.606 1508.23 126.469L1502.98 123.42C1502.11 122.911 1500.84 123.054 1499.52 123.819L1461.78 145.598Z" fill="#0048B4"/>
<path d="M1462.5 160.794C1462.4 160.794 1462.3 160.766 1462.21 160.713L1454.66 156.327C1454.49 156.228 1454.38 156.05 1454.36 155.853C1454.14 152.01 1456.86 147.08 1460.31 145.087C1460.5 144.983 1460.72 144.982 1460.91 145.088L1468.46 149.474C1468.64 149.579 1468.75 149.773 1468.75 149.984C1468.75 150.194 1468.64 150.387 1468.45 150.492C1465.34 152.287 1462.89 156.719 1463.09 160.17C1463.1 160.386 1463 160.593 1462.81 160.706C1462.72 160.763 1462.61 160.794 1462.5 160.794ZM1455.53 155.473L1461.92 159.188C1462.16 155.865 1464.29 152.04 1467.04 150.013L1460.62 146.28C1457.73 148.118 1455.48 152.181 1455.53 155.473Z" fill="#0048B4"/>
<path d="M1468.55 216.065C1467.94 216.065 1467.37 215.927 1466.85 215.65C1465.65 215.001 1464.94 213.66 1464.83 211.875L1461.92 160.242C1461.69 156.39 1464.41 151.46 1467.86 149.479L1506.48 127.185C1508.24 126.171 1509.92 126.046 1511.2 126.832C1512.5 127.629 1513.18 129.289 1513.07 131.384L1511.02 174.56C1511.01 174.81 1510.84 175.024 1510.61 175.096C1509.18 175.528 1507.86 176.098 1506.69 176.79C1504.44 178.094 1502.88 179.707 1502.19 181.456C1501.9 182.174 1501.76 182.898 1501.76 183.606L1501.75 189.915C1501.75 190.522 1501.84 191.107 1502.04 191.7C1502.08 191.819 1502.08 191.947 1502.04 192.066C1501.86 192.632 1501.76 193.241 1501.76 193.827L1501.75 197.344C1501.74 197.552 1501.63 197.746 1501.45 197.851L1471.41 215.205C1470.41 215.777 1469.44 216.065 1468.55 216.065ZM1509.33 127.5C1508.65 127.5 1507.88 127.737 1507.07 128.205L1468.45 150.499C1465.39 152.253 1462.89 156.774 1463.1 160.173L1466.01 211.809C1466.09 213.17 1466.59 214.167 1467.41 214.615C1468.3 215.097 1469.51 214.942 1470.82 214.185L1500.57 197.001L1500.58 193.824C1500.58 193.172 1500.68 192.521 1500.86 191.888C1500.67 191.236 1500.57 190.588 1500.57 189.915L1500.58 183.605C1500.58 182.749 1500.75 181.88 1501.09 181.022C1501.88 179.025 1503.61 177.211 1506.1 175.773C1507.23 175.103 1508.5 174.537 1509.87 174.095L1511.89 131.33C1511.89 131.328 1511.89 131.327 1511.89 131.325C1511.98 129.672 1511.5 128.4 1510.58 127.834C1510.22 127.61 1509.8 127.5 1509.33 127.5Z" fill="#0048B4"/>
<path d="M1471.54 175.776C1471.09 175.776 1470.64 175.666 1470.24 175.445C1469.39 174.99 1468.86 174.146 1468.8 173.19L1468.23 160.401C1468.16 158.939 1469.56 156.196 1471.15 155.29L1502.15 137.395C1503.14 136.825 1504.32 136.842 1505.3 137.445C1506.27 138.042 1506.81 139.076 1506.75 140.211L1506.24 153.468C1506.16 155.213 1505.21 156.772 1503.7 157.643L1472.91 175.407C1472.48 175.653 1472.01 175.776 1471.54 175.776ZM1503.68 138.159C1503.36 138.159 1503.04 138.243 1502.74 138.414L1471.73 156.311C1470.57 156.975 1469.36 159.283 1469.41 160.347L1469.98 173.131C1470.01 173.67 1470.31 174.149 1470.79 174.409C1471.28 174.671 1471.85 174.662 1472.32 174.388L1503.11 156.623C1504.27 155.954 1505 154.755 1505.07 153.416L1505.58 140.161C1505.58 140.158 1505.58 140.155 1505.58 140.151C1505.62 139.454 1505.28 138.816 1504.68 138.446C1504.37 138.255 1504.02 138.159 1503.68 138.159Z" fill="#0048B4"/>
<path d="M1471.02 192.469C1470.79 192.469 1470.57 192.412 1470.37 192.3C1469.94 192.049 1469.68 191.545 1469.68 190.92L1469.66 185.821C1469.66 184.755 1470.39 183.501 1471.31 182.967L1476.94 179.72C1477.48 179.406 1478.05 179.37 1478.49 179.625C1478.93 179.878 1479.18 180.381 1479.18 181.005L1479.2 186.102C1479.2 187.169 1478.48 188.423 1477.55 188.959L1471.93 192.204C1471.62 192.379 1471.31 192.469 1471.02 192.469ZM1477.52 180.74L1471.9 183.987C1471.33 184.313 1470.84 185.167 1470.84 185.818L1470.86 190.917C1470.86 191.142 1470.92 191.258 1470.96 191.281C1471 191.304 1471.14 191.3 1471.34 191.185L1476.96 187.939C1477.53 187.613 1478.03 186.756 1478.02 186.106L1478.01 181.01C1478.01 180.784 1477.94 180.668 1477.9 180.645C1477.86 180.618 1477.72 180.628 1477.52 180.74Z" fill="#0048B4"/>
<path d="M1484.08 184.929C1483.85 184.929 1483.63 184.873 1483.44 184.761C1483 184.508 1482.75 184.005 1482.74 183.381L1482.73 178.284C1482.72 177.218 1483.45 175.963 1484.37 175.427L1490 172.182C1490.55 171.869 1491.11 171.831 1491.55 172.086C1491.99 172.338 1492.24 172.841 1492.24 173.466L1492.26 178.564C1492.27 179.631 1491.54 180.885 1490.61 181.419L1484.99 184.665C1484.68 184.84 1484.37 184.929 1484.08 184.929ZM1490.9 173.094C1490.84 173.094 1490.73 173.12 1490.59 173.201L1484.96 176.447C1484.4 176.774 1483.9 177.63 1483.9 178.28L1483.92 183.376C1483.92 183.602 1483.98 183.718 1484.02 183.741C1484.07 183.767 1484.2 183.76 1484.4 183.645L1490.03 180.399C1490.59 180.073 1491.09 179.217 1491.09 178.568L1491.07 173.47C1491.07 173.244 1491 173.128 1490.96 173.105C1490.95 173.098 1490.93 173.094 1490.9 173.094Z" fill="#0048B4"/>
<path d="M1497.14 177.391C1496.91 177.391 1496.69 177.335 1496.5 177.223C1496.06 176.971 1495.81 176.467 1495.81 175.842L1495.79 170.744C1495.79 169.677 1496.51 168.423 1497.44 167.888L1503.06 164.642C1503.61 164.329 1504.17 164.293 1504.61 164.546C1505.05 164.799 1505.3 165.301 1505.31 165.927L1505.32 171.026C1505.33 172.09 1504.6 173.344 1503.68 173.881L1498.05 177.126C1497.75 177.302 1497.44 177.391 1497.14 177.391ZM1503.65 165.662L1498.02 168.907C1497.46 169.233 1496.96 170.091 1496.96 170.74L1496.98 175.838C1496.98 176.064 1497.05 176.18 1497.09 176.203C1497.13 176.226 1497.26 176.222 1497.46 176.107L1503.09 172.861C1503.65 172.534 1504.15 171.678 1504.15 171.029L1504.13 165.93C1504.13 165.706 1504.07 165.59 1504.03 165.566C1503.98 165.541 1503.85 165.547 1503.65 165.662Z" fill="#0048B4"/>
<path d="M1471.02 207.569C1470.79 207.569 1470.57 207.515 1470.37 207.403C1469.94 207.15 1469.68 206.646 1469.68 206.021L1469.66 200.923C1469.66 199.857 1470.39 198.604 1471.31 198.068L1476.94 194.822C1477.48 194.509 1478.05 194.472 1478.49 194.726C1478.93 194.979 1479.18 195.483 1479.18 196.108L1479.2 201.204C1479.2 202.272 1478.48 203.525 1477.55 204.061L1471.93 207.307C1471.62 207.482 1471.31 207.569 1471.02 207.569ZM1477.52 195.842L1471.9 199.088C1471.33 199.414 1470.84 200.271 1470.84 200.92L1470.86 206.018C1470.86 206.242 1470.92 206.359 1470.96 206.383C1471 206.408 1471.14 206.4 1471.34 206.287L1476.96 203.041C1477.53 202.715 1478.03 201.858 1478.02 201.209L1478.01 196.112C1478.01 195.887 1477.94 195.77 1477.9 195.746C1477.86 195.723 1477.72 195.73 1477.52 195.842Z" fill="#0048B4"/>
<path d="M1484.08 200.031C1483.85 200.031 1483.63 199.975 1483.44 199.863C1483 199.61 1482.75 199.108 1482.74 198.483L1482.73 193.385C1482.72 192.318 1483.45 191.064 1484.38 190.53L1490 187.284C1490.55 186.97 1491.11 186.935 1491.55 187.188C1491.99 187.441 1492.24 187.943 1492.24 188.568L1492.26 193.665C1492.27 194.733 1491.54 195.987 1490.61 196.521L1484.99 199.767C1484.68 199.942 1484.37 200.031 1484.08 200.031ZM1490.9 188.196C1490.84 188.196 1490.73 188.222 1490.59 188.304L1484.96 191.549C1484.4 191.875 1483.9 192.731 1483.9 193.38L1483.92 198.479C1483.92 198.704 1483.98 198.821 1484.02 198.844C1484.07 198.871 1484.2 198.862 1484.4 198.747L1490.03 195.502C1490.59 195.176 1491.09 194.32 1491.09 193.669L1491.07 188.572C1491.07 188.347 1491 188.231 1490.96 188.208C1490.95 188.2 1490.93 188.196 1490.9 188.196Z" fill="#0048B4"/>
<path d="M1497.15 192.493C1496.92 192.493 1496.69 192.435 1496.49 192.32C1496.06 192.065 1495.8 191.564 1495.8 190.945L1495.79 185.844C1495.79 184.771 1496.51 183.52 1497.44 182.993L1501.35 180.731C1501.56 180.606 1501.83 180.628 1502.03 180.794C1502.22 180.958 1502.28 181.224 1502.19 181.456C1501.9 182.174 1501.76 182.898 1501.76 183.606L1501.75 189.756C1501.74 189.965 1501.63 190.158 1501.45 190.262L1498.06 192.233C1497.75 192.407 1497.44 192.493 1497.15 192.493ZM1500.68 182.474L1498.02 184.012C1497.46 184.336 1496.97 185.189 1496.97 185.842L1496.98 190.943C1496.98 191.149 1497.04 191.273 1497.09 191.304C1497.14 191.334 1497.28 191.318 1497.47 191.213L1500.57 189.415L1500.58 183.605C1500.58 183.23 1500.62 182.852 1500.68 182.474Z" fill="#0048B4"/>
<path d="M1519.15 211.141C1514.45 211.141 1509.75 210.104 1506.16 208.032C1502.54 205.945 1500.56 203.136 1500.56 200.121L1500.58 193.79C1500.58 193.465 1500.84 193.202 1501.17 193.202C1501.49 193.204 1501.76 193.468 1501.76 193.792C1501.75 196.367 1503.53 198.813 1506.76 200.68C1513.62 204.638 1524.74 204.638 1531.55 200.68C1534.72 198.839 1536.47 196.428 1536.47 193.891C1536.47 193.567 1536.74 193.304 1537.06 193.304C1537.38 193.306 1537.65 193.57 1537.65 193.894L1537.63 200.226C1537.62 203.2 1535.66 205.972 1532.12 208.03C1528.55 210.104 1523.86 211.141 1519.15 211.141ZM1501.75 197.684L1501.74 200.124C1501.73 202.701 1503.51 205.146 1506.74 207.012C1513.6 210.97 1524.72 210.971 1531.53 207.013C1534.7 205.174 1536.45 202.761 1536.45 200.223L1536.46 197.778C1535.53 199.241 1534.07 200.575 1532.14 201.697C1525 205.844 1513.36 205.843 1506.17 201.7C1504.19 200.551 1502.69 199.184 1501.75 197.684Z" fill="#0048B4"/>
<path d="M1519.18 204.81C1514.47 204.812 1509.77 203.775 1506.17 201.704C1504.89 200.957 1503.81 200.127 1502.97 199.232C1502.78 199.033 1502.61 198.839 1502.45 198.644C1502.43 198.621 1502.41 198.593 1502.39 198.562C1502.19 198.335 1502.01 198.091 1501.85 197.831C1501.72 197.644 1501.6 197.43 1501.49 197.222L1501.41 197.087C1501.3 196.877 1501.22 196.685 1501.14 196.498L1500.96 196.02C1500.89 195.803 1500.84 195.684 1500.82 195.554C1500.73 195.234 1500.68 194.989 1500.65 194.746C1500.6 194.42 1500.58 194.123 1500.58 193.827C1500.58 193.109 1500.7 192.394 1500.92 191.704C1501 191.462 1501.23 191.296 1501.48 191.296C1501.74 191.298 1501.96 191.463 1502.04 191.707C1502.65 193.616 1504.28 195.378 1506.74 196.802C1513.6 200.76 1524.71 200.759 1531.52 196.804C1533.96 195.389 1535.56 193.637 1536.17 191.736C1536.25 191.495 1536.47 191.329 1536.72 191.327H1536.73C1536.98 191.327 1537.21 191.487 1537.29 191.727C1537.51 192.369 1537.62 193.037 1537.63 193.758C1537.64 193.8 1537.64 193.843 1537.64 193.886V194.385C1537.54 195.569 1537.18 196.596 1536.55 197.61C1536.5 197.707 1536.42 197.825 1536.34 197.946L1536.3 198.02C1536.28 198.052 1536.27 198.083 1536.25 198.111C1536.03 198.444 1535.76 198.777 1535.45 199.1C1535.18 199.399 1534.87 199.711 1534.51 200.021C1534.34 200.179 1534.14 200.345 1533.94 200.479C1533.8 200.6 1533.61 200.742 1533.4 200.884C1533.22 201.023 1533.02 201.165 1532.8 201.308C1532.64 201.408 1532.48 201.503 1532.32 201.601L1532.15 201.7C1528.58 203.773 1523.88 204.81 1519.18 204.81ZM1503.34 197.88C1503.53 198.101 1503.67 198.263 1503.82 198.427C1504.59 199.237 1505.58 199.998 1506.76 200.686C1513.62 204.641 1524.75 204.641 1531.55 200.686L1531.72 200.588C1531.87 200.498 1532.02 200.411 1532.16 200.318C1532.35 200.195 1532.53 200.073 1532.71 199.935C1532.91 199.794 1533.07 199.672 1533.24 199.537C1533.44 199.398 1533.59 199.268 1533.73 199.14C1534.06 198.855 1534.34 198.576 1534.59 198.3C1534.83 198.043 1535.05 197.782 1535.23 197.522C1535.24 197.498 1535.25 197.475 1535.26 197.453L1535.36 197.304C1535.42 197.206 1535.48 197.113 1535.54 197.014C1536.09 196.133 1536.39 195.276 1536.47 194.363L1536.47 194.153C1536.46 194.11 1536.45 194.064 1536.45 194.018C1536.45 194.015 1536.45 194.011 1536.45 194.006C1536.45 193.962 1536.45 193.919 1536.45 193.876C1535.52 195.353 1534.05 196.695 1532.11 197.821C1524.98 201.964 1513.34 201.968 1506.16 197.822C1504.19 196.688 1502.7 195.335 1501.76 193.847C1501.76 194.072 1501.77 194.301 1501.81 194.526C1501.84 194.782 1501.88 194.979 1501.93 195.177C1501.99 195.388 1502.01 195.464 1502.04 195.546L1502.19 195.957C1502.3 196.205 1502.37 196.375 1502.45 196.535L1502.51 196.649C1502.61 196.827 1502.71 197.011 1502.83 197.186C1502.98 197.416 1503.12 197.614 1503.28 197.798C1503.3 197.824 1503.32 197.851 1503.34 197.88Z" fill="#0048B4"/>
<path d="M1519.15 200.931C1514.45 200.931 1509.75 199.896 1506.16 197.824C1502.54 195.737 1500.56 192.928 1500.56 189.913L1500.58 183.58C1500.58 183.255 1500.84 182.993 1501.17 182.993C1501.49 182.994 1501.76 183.258 1501.76 183.583C1501.75 186.158 1503.53 188.604 1506.76 190.471C1513.62 194.427 1524.74 194.431 1531.55 190.472C1534.72 188.631 1536.47 186.22 1536.47 183.682C1536.47 183.357 1536.74 183.095 1537.06 183.095C1537.38 183.096 1537.65 183.36 1537.65 183.685L1537.63 190.018C1537.62 192.991 1535.66 195.763 1532.12 197.821C1528.55 199.894 1523.85 200.931 1519.15 200.931ZM1501.75 187.475L1501.74 189.916C1501.73 192.493 1503.51 194.938 1506.74 196.804C1513.6 200.763 1524.72 200.76 1531.53 196.804C1534.7 194.964 1536.45 192.553 1536.45 190.015L1536.46 187.57C1535.53 189.033 1534.07 190.367 1532.14 191.489C1525 195.636 1513.36 195.636 1506.17 191.49C1504.19 190.341 1502.69 188.974 1501.75 187.475Z" fill="#0048B4"/>
<path d="M1519.17 194.598C1514.47 194.598 1509.76 193.563 1506.17 191.49C1502.57 189.411 1500.59 186.612 1500.58 183.609C1500.58 180.625 1502.53 177.844 1506.09 175.778C1513.23 171.63 1524.87 171.632 1532.05 175.776C1535.66 177.857 1537.64 180.656 1537.65 183.658C1537.65 186.641 1535.7 189.422 1532.14 191.489C1528.57 193.563 1523.87 194.598 1519.17 194.598ZM1519.05 173.828C1514.57 173.828 1510.08 174.816 1506.68 176.795C1503.5 178.641 1501.75 181.061 1501.76 183.607C1501.76 186.174 1503.54 188.611 1506.76 190.471C1513.62 194.427 1524.74 194.432 1531.55 190.472C1534.73 188.625 1536.48 186.205 1536.47 183.659C1536.47 181.094 1534.69 178.657 1531.47 176.796C1528.04 174.817 1523.54 173.828 1519.05 173.828Z" fill="#0048B4"/>
<path d="M1519.15 190.725C1516.16 190.725 1513.17 190.066 1510.89 188.75C1508.56 187.406 1507.28 185.582 1507.28 183.617C1507.27 181.666 1508.54 179.855 1510.84 178.519C1515.37 175.882 1522.77 175.884 1527.34 178.518C1529.67 179.862 1530.95 181.684 1530.95 183.648C1530.96 185.601 1529.69 187.412 1527.39 188.749C1525.12 190.066 1522.14 190.725 1519.15 190.725ZM1519.08 177.702C1516.3 177.702 1513.53 178.314 1511.43 179.536C1509.51 180.652 1508.45 182.101 1508.45 183.616C1508.45 185.144 1509.53 186.605 1511.48 187.73C1515.71 190.176 1522.59 190.178 1526.8 187.732C1528.72 186.615 1529.78 185.164 1529.78 183.649C1529.78 182.124 1528.7 180.663 1526.75 179.537C1524.63 178.314 1521.85 177.702 1519.08 177.702Z" fill="#0048B4"/>
<path d="M1519.13 186.137C1519.19 186.099 1519.27 186.072 1519.35 186.052C1520.12 185.883 1520.8 185.638 1521.41 185.316L1519.17 184.014C1518.61 184.202 1518.11 184.345 1517.66 184.44C1517.22 184.537 1516.78 184.571 1516.32 184.543C1515.87 184.515 1515.45 184.388 1515.07 184.166C1514.73 183.97 1514.5 183.74 1514.38 183.478C1514.27 183.216 1514.28 182.934 1514.42 182.635C1514.56 182.334 1514.84 182.038 1515.27 181.749L1514.59 181.352C1514.5 181.303 1514.46 181.245 1514.46 181.179C1514.45 181.113 1514.49 181.056 1514.58 181.006C1514.66 180.958 1514.77 180.933 1514.88 180.933C1515 180.933 1515.1 180.957 1515.19 181.006L1515.86 181.397C1516.53 181.043 1517.2 180.775 1517.89 180.599C1518.13 180.531 1518.36 180.553 1518.55 180.667C1518.66 180.727 1518.71 180.802 1518.73 180.893C1518.74 180.983 1518.69 181.063 1518.57 181.131C1518.53 181.154 1518.46 181.176 1518.37 181.199C1517.77 181.365 1517.21 181.589 1516.68 181.872L1519 183.22C1519.58 183.012 1520.09 182.858 1520.53 182.752C1520.97 182.65 1521.42 182.612 1521.89 182.64C1522.36 182.669 1522.8 182.806 1523.22 183.051C1523.57 183.251 1523.79 183.486 1523.88 183.756C1523.97 184.026 1523.93 184.307 1523.75 184.603C1523.57 184.898 1523.27 185.183 1522.85 185.457L1523.54 185.86C1523.62 185.908 1523.67 185.965 1523.66 186.029C1523.67 186.093 1523.62 186.153 1523.53 186.205C1523.44 186.254 1523.35 186.28 1523.24 186.282C1523.13 186.283 1523.03 186.259 1522.94 186.206L1522.25 185.803C1521.5 186.184 1520.68 186.477 1519.81 186.681C1519.7 186.708 1519.58 186.715 1519.45 186.7C1519.32 186.688 1519.22 186.657 1519.13 186.607C1519.02 186.543 1518.97 186.466 1518.96 186.375C1518.95 186.284 1519.01 186.205 1519.13 186.137ZM1522.01 184.97C1522.87 184.401 1522.96 183.919 1522.28 183.526C1522.03 183.38 1521.71 183.332 1521.34 183.385C1520.97 183.438 1520.5 183.56 1519.91 183.752L1522.01 184.97ZM1516.11 182.235C1515.77 182.491 1515.57 182.742 1515.52 182.985C1515.47 183.229 1515.6 183.438 1515.89 183.611C1516.18 183.778 1516.51 183.843 1516.89 183.807C1517.26 183.771 1517.72 183.663 1518.25 183.482L1516.11 182.235Z" fill="#0048B4"/>
<path d="M1478.42 158.387C1478.92 158.899 1479.18 159.83 1479.18 161.187C1479.18 162.547 1478.93 163.77 1478.43 164.857C1477.93 165.945 1477.22 166.761 1476.28 167.302C1475.33 167.849 1474.61 167.865 1474.11 167.355C1473.61 166.843 1473.36 165.909 1473.35 164.549C1473.35 163.193 1473.59 161.972 1474.09 160.884C1474.58 159.799 1475.31 158.984 1476.25 158.438C1477.19 157.896 1477.91 157.878 1478.42 158.387ZM1477.71 164.536C1478.04 163.742 1478.2 162.814 1478.2 161.752C1478.2 160.699 1478.03 159.97 1477.69 159.561C1477.36 159.152 1476.88 159.127 1476.26 159.486C1475.63 159.846 1475.15 160.423 1474.82 161.217C1474.49 162.011 1474.33 162.933 1474.33 163.985C1474.33 165.048 1474.5 165.783 1474.84 166.192C1475.17 166.6 1475.65 166.624 1476.28 166.265C1476.9 165.905 1477.37 165.329 1477.71 164.536Z" fill="#0048B4"/>
<path d="M1481.1 162.975C1481.26 162.881 1481.41 162.866 1481.53 162.934C1481.64 163.002 1481.7 163.129 1481.7 163.318L1481.7 163.393C1481.7 163.58 1481.65 163.778 1481.53 163.983C1481.41 164.187 1481.27 164.338 1481.1 164.431L1481 164.494C1480.83 164.589 1480.69 164.602 1480.57 164.535C1480.45 164.467 1480.39 164.337 1480.39 164.15L1480.39 164.075C1480.39 163.886 1480.45 163.69 1480.57 163.486C1480.69 163.282 1480.83 163.133 1480.99 163.037L1481.1 162.975Z" fill="#0048B4"/>
<path d="M1486.07 152.897C1486.21 152.814 1486.33 152.805 1486.43 152.86C1486.53 152.917 1486.58 153.028 1486.59 153.192L1486.61 160.168L1487.67 159.554C1487.8 159.479 1487.91 159.47 1488 159.518C1488.09 159.571 1488.13 159.669 1488.13 159.816C1488.13 159.966 1488.09 160.115 1488 160.266C1487.91 160.418 1487.8 160.527 1487.67 160.603L1484.35 162.52C1484.22 162.594 1484.11 162.61 1484.03 162.558C1483.94 162.508 1483.9 162.412 1483.9 162.262C1483.89 162.115 1483.94 161.964 1484.03 161.81C1484.11 161.662 1484.22 161.545 1484.35 161.471L1485.63 160.732L1485.61 154.473L1484.51 155.725C1484.41 155.829 1484.33 155.902 1484.27 155.938C1484.13 156.018 1484.02 156.032 1483.93 155.984C1483.85 155.934 1483.8 155.834 1483.8 155.677C1483.8 155.448 1483.89 155.222 1484.08 155.007L1485.54 153.29C1485.64 153.172 1485.74 153.084 1485.84 153.026L1486.07 152.897Z" fill="#0048B4"/>
<path d="M1492.82 149C1492.96 148.917 1493.08 148.908 1493.18 148.965C1493.28 149.022 1493.33 149.133 1493.34 149.297L1493.36 156.273L1494.42 155.658C1494.55 155.584 1494.66 155.575 1494.75 155.623C1494.84 155.674 1494.88 155.774 1494.88 155.921C1494.88 156.071 1494.84 156.218 1494.75 156.371C1494.66 156.523 1494.55 156.632 1494.42 156.706L1491.1 158.623C1490.97 158.697 1490.87 158.713 1490.78 158.663C1490.69 158.612 1490.65 158.515 1490.65 158.365C1490.65 158.218 1490.69 158.068 1490.78 157.915C1490.86 157.765 1490.97 157.648 1491.1 157.574L1492.38 156.837L1492.36 150.578L1491.27 151.828C1491.16 151.934 1491.08 152.006 1491.02 152.043C1490.88 152.121 1490.77 152.135 1490.68 152.089C1490.6 152.037 1490.56 151.937 1490.56 151.78C1490.55 151.551 1490.65 151.325 1490.83 151.11L1492.29 149.393C1492.39 149.275 1492.49 149.189 1492.59 149.131L1492.82 149Z" fill="#0048B4"/>
<path d="M1499.57 145.105C1499.71 145.023 1499.83 145.013 1499.94 145.068C1500.04 145.125 1500.09 145.236 1500.09 145.401L1500.11 152.376L1501.17 151.763C1501.3 151.687 1501.41 151.678 1501.5 151.726C1501.59 151.78 1501.64 151.878 1501.64 152.025C1501.64 152.175 1501.59 152.324 1501.5 152.474C1501.41 152.627 1501.3 152.736 1501.17 152.811L1497.85 154.728C1497.72 154.802 1497.62 154.817 1497.53 154.767C1497.44 154.717 1497.4 154.619 1497.4 154.468C1497.4 154.322 1497.44 154.173 1497.53 154.019C1497.62 153.868 1497.72 153.753 1497.85 153.68L1499.13 152.941L1499.11 146.681L1498.02 147.933C1497.92 148.037 1497.83 148.111 1497.77 148.147C1497.63 148.226 1497.52 148.241 1497.44 148.193C1497.35 148.143 1497.31 148.043 1497.3 147.885C1497.3 147.656 1497.4 147.431 1497.58 147.215L1499.04 145.499C1499.14 145.38 1499.25 145.292 1499.34 145.235L1499.57 145.105Z" fill="#0048B4"/>
</svg>
