<svg width="42" height="42" viewBox="0 0 42 42" fill="none" xmlns="http://www.w3.org/2000/svg">
<path d="M22.5489 5.59714C22.5048 5.57509 18.1358 3.50029 14.6592 3.23569C11.0052 2.95114 7.34387 4.89049 7.30607 4.91149L6.81152 3.98434C6.97112 3.89929 10.7805 1.89274 14.739 2.18779C18.413 2.46919 22.8156 4.56184 23.0015 4.65004L22.5489 5.59714Z" fill="#0048B4"/>
<path d="M18.8549 7.66264L18.395 6.71869L21.9965 4.96309L19.6697 1.76584L20.5192 1.14844L23.582 5.35684L18.8549 7.66264Z" fill="#0048B4"/>
<path d="M3.17423 10.4103L2.72168 9.4632C2.90753 9.375 7.31018 7.28235 10.9852 7.00095C14.9311 6.71325 18.752 8.71245 18.9116 8.7975L18.4171 9.72465C18.3803 9.7047 14.7074 7.7643 11.065 8.04885C7.58843 8.31345 3.21833 10.3893 3.17423 10.4103Z" fill="#0048B4"/>
<path d="M6.86926 12.4751L2.14111 10.1693L5.20396 5.96094L6.05341 6.57834L3.72661 9.77559L7.32811 11.5312L6.86926 12.4751Z" fill="#0048B4"/>
<path d="M26.6047 41.41C25.2681 41.41 23.9125 41.2651 22.6861 40.9921C20.5935 40.5259 16.1908 37.167 15.2595 36.202C14.4174 35.3295 12.162 31.98 11.8312 29.2552C11.6863 28.0687 12.5967 24.5334 13.7107 23.2755C13.9312 23.0284 14.1594 22.8635 14.3953 22.7809L14.2515 22.4575C13.527 20.8804 12.4539 19.0587 11.5068 17.4501C9.90345 14.7264 9.306 13.6386 9.4068 13.0191C9.57585 11.9691 10.4368 10.7574 11.5834 10.5453L11.7861 10.5043C12.0816 10.4326 12.384 10.3932 12.688 10.3867C13.6887 10.3867 14.6053 10.9579 15.5745 12.1833C16.4134 13.2448 17.7721 16.1754 18.9156 18.8266C18.8631 18.1588 18.883 17.6013 19.0237 17.2758C19.5907 15.9601 21.172 15.4425 21.654 15.412L21.7726 15.4089C22.0782 15.4089 23.6416 15.4855 24.3661 17.0059C24.4816 17.2495 24.5919 17.512 24.6937 17.7777C24.8239 17.3262 25.0087 16.9324 25.2723 16.7077C26.0829 16.0189 27.1927 15.6619 27.9477 15.874C28.7593 16.1019 29.4429 16.9608 29.6896 18.0664C29.7957 17.827 29.9238 17.6328 30.075 17.5194C30.8089 16.9692 32.0857 16.9104 32.8942 17.4711C33.8812 18.1557 36.1514 22.257 36.5504 25.8438C36.8769 28.7922 37.2454 34.0611 36.0285 36.2325C34.7643 38.4847 32.1782 40.234 30.3102 40.905C29.4009 41.2294 28.0852 41.41 26.6047 41.41ZM14.7712 23.791C14.074 23.8603 12.708 27.7663 12.8728 29.1261C13.1689 31.5705 15.2679 34.6974 16.0155 35.4723C16.9048 36.3942 21.1153 39.5652 22.9129 39.9652C24.0669 40.2225 25.3416 40.359 26.6037 40.359C27.9466 40.359 29.1667 40.1962 29.9521 39.9127C31.3644 39.4056 33.9012 37.8694 35.1097 35.7138C35.8951 34.3162 36.039 30.7588 35.5045 25.9572C35.1255 22.5363 32.9131 18.7605 32.2947 18.33C31.798 17.9866 30.9706 18.1546 30.7029 18.3562C30.5548 18.5253 30.3354 19.5144 30.2503 20.4562L29.9868 23.3616L29.2213 20.5465C29.2213 20.5465 28.8811 19.297 28.6669 18.3069C28.4842 17.47 28.018 16.9807 27.6621 16.882C27.2704 16.7707 26.484 17.0511 25.9516 17.5047C25.6618 17.7514 25.4466 19.1773 25.4371 20.3008L25.3972 24.6657L24.4008 20.4153C24.3966 20.3964 23.9797 18.6271 23.418 17.4543C22.9644 16.503 21.9669 16.4547 21.7726 16.4547C21.4671 16.4757 20.3488 16.8516 19.9876 17.6884C19.7356 18.2754 20.3068 21.3382 20.9799 23.8383L19.9845 24.1659C19.9498 24.0745 16.2906 14.7768 14.7523 12.8311C13.7632 11.5795 13.1017 11.4346 12.6901 11.4346C12.4591 11.4346 12.2365 11.4808 12.0024 11.5302L11.7766 11.5753C11.1865 11.6845 10.566 12.4374 10.4431 13.186C10.4526 13.5871 11.5393 15.433 12.4129 16.9167C13.3716 18.5463 14.4594 20.3932 15.2059 22.0176C15.3956 22.4313 15.572 22.8583 15.7351 23.2986L15.7372 23.3059C16.8765 24.8757 17.4435 30.0385 17.5054 30.6318L16.4628 30.7525C16.4586 30.7158 15.9777 27.0387 14.8122 23.8299L14.7712 23.791Z" fill="#0048B4"/>
</svg>
