<svg width="72" height="72" viewBox="0 0 72 72" fill="none" xmlns="http://www.w3.org/2000/svg">
<path d="M28.9617 55.125L26.2617 64.125H45.7377L43.0377 55.125H28.9617Z" fill="#0048B4"/>
<path d="M21.375 3.375H6.75C5.85489 3.375 4.99645 3.73058 4.36351 4.36351C3.73058 4.99645 3.375 5.85489 3.375 6.75V41.625H21.375V3.375ZM11.25 38.25H6.75V33.75H11.25V38.25ZM11.25 29.25H6.75V24.75H11.25V29.25ZM11.25 20.25H6.75V15.75H11.25V20.25ZM11.25 11.25H6.75V6.75H11.25V11.25ZM19.125 39.375H14.625V37.125H19.125V39.375ZM19.125 34.875H14.625V32.625H19.125V34.875ZM19.125 30.375H14.625V28.125H19.125V30.375ZM19.125 25.875H14.625V23.625H19.125V25.875ZM19.125 21.375H14.625V19.125H19.125V21.375ZM19.125 16.875H14.625V14.625H19.125V16.875ZM19.125 12.375H14.625V10.125H19.125V12.375ZM19.125 7.875H14.625V5.625H19.125V7.875Z" fill="#0048B4"/>
<path d="M22.5 66.375H49.5V68.625H22.5V66.375Z" fill="#0048B4"/>
<path d="M3.375 49.5C3.375 50.3951 3.73058 51.2535 4.36351 51.8865C4.99645 52.5194 5.85489 52.875 6.75 52.875H65.25C66.1451 52.875 67.0035 52.5194 67.6365 51.8865C68.2694 51.2535 68.625 50.3951 68.625 49.5V43.875H3.375V49.5ZM36 46.125C36.445 46.125 36.88 46.257 37.25 46.5042C37.62 46.7514 37.9084 47.1028 38.0787 47.514C38.249 47.9251 38.2936 48.3775 38.2068 48.814C38.1199 49.2504 37.9057 49.6513 37.591 49.966C37.2763 50.2807 36.8754 50.495 36.439 50.5818C36.0025 50.6686 35.5501 50.624 35.139 50.4537C34.7278 50.2834 34.3764 49.995 34.1292 49.625C33.882 49.255 33.75 48.82 33.75 48.375C33.75 47.7783 33.9871 47.206 34.409 46.784C34.831 46.3621 35.4033 46.125 36 46.125Z" fill="#0048B4"/>
<path d="M65.25 3.375H23.625V30.375H68.625V6.75C68.625 5.85489 68.2694 4.99645 67.6365 4.36351C67.0035 3.73058 66.1451 3.375 65.25 3.375ZM63 27H31.5V6.75H63V27Z" fill="#0048B4"/>
<path d="M23.625 41.625H68.625V32.625H23.625V41.625ZM25.875 36H33.75V33.75H36V36H45V33.75H47.25V36H56.25V33.75H58.5V36H66.375V38.25H58.5V40.5H56.25V38.25H47.25V40.5H45V38.25H36V40.5H33.75V38.25H25.875V36Z" fill="#0048B4"/>
<path d="M42.75 12.375V22.5L51.75 16.875L42.75 12.375Z" fill="#0048B4"/>
</svg>
